<?xml version="1.0" encoding="utf-8"?>
<!-- Generator: Adobe Illustrator 17.0.0, SVG Export Plug-In . SVG Version: 6.00 Build 0)  -->
<!DOCTYPE svg PUBLIC "-//W3C//DTD SVG 1.1//EN" "http://www.w3.org/Graphics/SVG/1.1/DTD/svg11.dtd" [
	<!ENTITY ns_extend "http://ns.adobe.com/Extensibility/1.0/">
	<!ENTITY ns_ai "http://ns.adobe.com/AdobeIllustrator/10.0/">
	<!ENTITY ns_graphs "http://ns.adobe.com/Graphs/1.0/">
	<!ENTITY ns_vars "http://ns.adobe.com/Variables/1.0/">
	<!ENTITY ns_imrep "http://ns.adobe.com/ImageReplacement/1.0/">
	<!ENTITY ns_sfw "http://ns.adobe.com/SaveForWeb/1.0/">
	<!ENTITY ns_custom "http://ns.adobe.com/GenericCustomNamespace/1.0/">
	<!ENTITY ns_adobe_xpath "http://ns.adobe.com/XPath/1.0/">
]>
<svg version="1.1" id="Capa_1" xmlns:x="&ns_extend;" xmlns:i="&ns_ai;" xmlns:graph="&ns_graphs;"
	 xmlns="http://www.w3.org/2000/svg" xmlns:xlink="http://www.w3.org/1999/xlink" x="0px" y="0px" width="188.498px"
	 height="44.031px" viewBox="0 0 188.498 44.031" enable-background="new 0 0 188.498 44.031" xml:space="preserve">
<metadata>
	<sfw  xmlns="&ns_sfw;">
		<slices></slices>
		<sliceSourceBounds  width="188.499" height="44.032" y="197.484" x="217.251" bottomLeftOrigin="true"></sliceSourceBounds>
	</sfw>
</metadata>
<g>
	<polygon fill="#FFCD06" stroke="#000000" stroke-miterlimit="10" points="169.281,0.5 187.838,22.016 169.281,43.532 
		152.393,43.532 170.949,22.016 152.393,0.5 	"/>
	<polygon fill="#FFCD06" stroke="#000000" stroke-miterlimit="10" points="19.219,43.532 0.66,22.016 19.219,0.5 36.107,0.5 
		17.551,22.016 36.107,43.532 	"/>
	<polygon fill="#FFFFFF" stroke="#000000" stroke-miterlimit="10" points="41.219,0.5 147.281,0.5 165.836,22.016 147.281,43.532 
		41.219,43.532 22.664,22.016 	"/>
	<g>
		<g>
			<path d="M44.851,27.016V14.212h2.585v12.804H44.851z"/>
			<path d="M58.318,27.016h-2.454v-4.733c0-1.002-0.053-1.649-0.157-1.943s-0.275-0.522-0.511-0.686
				c-0.236-0.163-0.52-0.245-0.852-0.245c-0.425,0-0.807,0.116-1.145,0.35c-0.338,0.232-0.569,0.541-0.694,0.926
				c-0.125,0.384-0.188,1.095-0.188,2.131v4.201h-2.454v-9.275h2.279v1.362c0.81-1.048,1.828-1.572,3.057-1.572
				c0.542,0,1.037,0.098,1.485,0.293s0.787,0.444,1.018,0.747c0.229,0.303,0.39,0.646,0.48,1.03s0.135,0.935,0.135,1.65v5.764
				H58.318z"/>
			<path d="M65.061,17.741v1.956h-1.677v3.738c0,0.757,0.016,1.198,0.048,1.323s0.105,0.229,0.219,0.311
				c0.113,0.081,0.252,0.122,0.415,0.122c0.227,0,0.556-0.079,0.986-0.236l0.21,1.904c-0.57,0.244-1.217,0.367-1.939,0.367
				c-0.442,0-0.841-0.074-1.196-0.223s-0.615-0.341-0.781-0.577C61.18,26.191,61.065,25.871,61,25.47
				c-0.052-0.285-0.078-0.861-0.078-1.729v-4.044h-1.127v-1.956h1.127v-1.843l2.463-1.433v3.275L65.061,17.741L65.061,17.741z"/>
			<path d="M69.114,27.016h-2.455v-9.275h2.28v1.318c0.39-0.623,0.74-1.033,1.052-1.231c0.312-0.197,0.665-0.297,1.062-0.297
				c0.559,0,1.098,0.154,1.616,0.463l-0.76,2.14c-0.414-0.268-0.798-0.401-1.153-0.401c-0.344,0-0.635,0.095-0.873,0.284
				c-0.239,0.189-0.427,0.531-0.563,1.026c-0.137,0.494-0.205,1.531-0.205,3.108L69.114,27.016L69.114,27.016z"/>
			<path d="M73.157,22.247c0-0.815,0.201-1.604,0.603-2.367s0.972-1.345,1.708-1.747c0.736-0.401,1.559-0.603,2.468-0.603
				c1.402,0,2.553,0.456,3.449,1.367s1.346,2.063,1.346,3.454c0,1.403-0.453,2.566-1.358,3.489s-2.045,1.385-3.42,1.385
				c-0.85,0-1.66-0.192-2.432-0.577c-0.771-0.384-1.358-0.947-1.761-1.689C73.358,24.217,73.157,23.313,73.157,22.247z
				 M75.673,22.378c0,0.92,0.219,1.624,0.655,2.113s0.976,0.734,1.615,0.734c0.641,0,1.178-0.245,1.612-0.734
				c0.434-0.489,0.65-1.199,0.65-2.131c0-0.908-0.217-1.607-0.65-2.096c-0.435-0.489-0.972-0.734-1.612-0.734
				s-1.179,0.245-1.615,0.734C75.892,20.753,75.673,21.458,75.673,22.378z"/>
			<path d="M93.158,27.016h-2.279v-1.362c-0.379,0.529-0.826,0.924-1.341,1.184c-0.516,0.259-1.035,0.389-1.56,0.389
				c-1.065,0-1.979-0.43-2.738-1.289c-0.76-0.858-1.14-2.057-1.14-3.594c0-1.572,0.37-2.767,1.109-3.585s1.674-1.228,2.804-1.228
				c1.036,0,1.933,0.432,2.69,1.293v-4.611h2.454L93.158,27.016L93.158,27.016z M86.607,22.177c0,0.99,0.137,1.706,0.41,2.148
				c0.396,0.641,0.949,0.961,1.66,0.961c0.564,0,1.045-0.24,1.44-0.721c0.396-0.48,0.595-1.197,0.595-2.152
				c0-1.065-0.192-1.833-0.577-2.302c-0.384-0.469-0.876-0.703-1.476-0.703c-0.582,0-1.07,0.231-1.463,0.694
				C86.804,20.566,86.607,21.257,86.607,22.177z"/>
			<path d="M101.683,27.016v-1.389c-0.338,0.495-0.781,0.885-1.332,1.17c-0.55,0.285-1.131,0.429-1.742,0.429
				c-0.623,0-1.182-0.138-1.677-0.411s-0.854-0.657-1.074-1.152c-0.222-0.495-0.332-1.18-0.332-2.053v-5.869h2.454v4.262
				c0,1.305,0.045,2.104,0.136,2.397c0.09,0.295,0.255,0.527,0.493,0.699c0.239,0.172,0.542,0.258,0.908,0.258
				c0.42,0,0.795-0.115,1.127-0.346c0.332-0.229,0.559-0.515,0.682-0.855c0.122-0.341,0.183-1.175,0.183-2.502v-3.913h2.455v9.275
				H101.683z"/>
			<path d="M114.591,20.483l-2.419,0.437c-0.081-0.482-0.267-0.847-0.555-1.092c-0.288-0.244-0.662-0.366-1.122-0.366
				c-0.611,0-1.1,0.211-1.463,0.633c-0.364,0.423-0.546,1.128-0.546,2.118c0,1.101,0.185,1.878,0.555,2.332
				c0.369,0.454,0.866,0.682,1.489,0.682c0.466,0,0.847-0.133,1.144-0.397c0.297-0.266,0.507-0.721,0.629-1.367l2.411,0.41
				c-0.251,1.106-0.731,1.942-1.441,2.507s-1.662,0.848-2.856,0.848c-1.356,0-2.438-0.429-3.244-1.284
				c-0.807-0.856-1.21-2.041-1.21-3.555c0-1.531,0.405-2.724,1.214-3.577c0.81-0.853,1.904-1.279,3.284-1.279
				c1.13,0,2.027,0.243,2.694,0.729S114.3,19.488,114.591,20.483z"/>
			<path d="M124.539,20.483l-2.419,0.437c-0.081-0.482-0.267-0.847-0.555-1.092c-0.288-0.244-0.662-0.366-1.122-0.366
				c-0.611,0-1.1,0.211-1.463,0.633c-0.364,0.423-0.546,1.128-0.546,2.118c0,1.101,0.185,1.878,0.555,2.332
				c0.369,0.454,0.866,0.682,1.489,0.682c0.466,0,0.847-0.133,1.144-0.397c0.297-0.266,0.507-0.721,0.629-1.367l2.411,0.41
				c-0.251,1.106-0.731,1.942-1.441,2.507s-1.662,0.848-2.856,0.848c-1.356,0-2.438-0.429-3.244-1.284
				c-0.807-0.856-1.21-2.041-1.21-3.555c0-1.531,0.405-2.724,1.214-3.577c0.81-0.853,1.904-1.279,3.284-1.279
				c1.13,0,2.027,0.243,2.694,0.729S124.248,19.488,124.539,20.483z"/>
			<path d="M126.4,16.483v-2.271h2.454v2.271H126.4z M126.4,27.016v-9.275h2.454v9.275H126.4z"/>
			<path d="M130.802,22.247c0-0.815,0.201-1.604,0.603-2.367c0.402-0.763,0.972-1.345,1.708-1.747
				c0.736-0.401,1.559-0.603,2.468-0.603c1.402,0,2.553,0.456,3.449,1.367s1.346,2.063,1.346,3.454c0,1.403-0.453,2.566-1.358,3.489
				s-2.045,1.385-3.42,1.385c-0.85,0-1.66-0.192-2.432-0.577c-0.771-0.384-1.358-0.947-1.761-1.689
				C131.003,24.217,130.802,23.313,130.802,22.247z M133.317,22.378c0,0.92,0.219,1.624,0.655,2.113
				c0.436,0.489,0.976,0.734,1.615,0.734c0.641,0,1.178-0.245,1.612-0.734c0.434-0.489,0.65-1.199,0.65-2.131
				c0-0.908-0.217-1.607-0.65-2.096c-0.435-0.489-0.972-0.734-1.612-0.734s-1.179,0.245-1.615,0.734
				C133.536,20.753,133.317,21.458,133.317,22.378z M134.348,16.605l1.206-2.611h2.751l-2.402,2.611H134.348z"/>
			<path d="M150.732,27.016h-2.454v-4.733c0-1.002-0.053-1.649-0.157-1.943s-0.275-0.522-0.511-0.686
				c-0.236-0.163-0.52-0.245-0.852-0.245c-0.425,0-0.807,0.116-1.145,0.35c-0.338,0.232-0.569,0.541-0.694,0.926
				c-0.125,0.384-0.188,1.095-0.188,2.131v4.201h-2.454v-9.275h2.279v1.362c0.81-1.048,1.828-1.572,3.057-1.572
				c0.542,0,1.037,0.098,1.485,0.293s0.787,0.444,1.018,0.747c0.229,0.303,0.39,0.646,0.48,1.03s0.135,0.935,0.135,1.65
				L150.732,27.016L150.732,27.016z"/>
		</g>
	</g>
</g>
</svg>
