<?xml version="1.0" encoding="utf-8"?>
<!-- Generator: Adobe Illustrator 17.0.0, SVG Export Plug-In . SVG Version: 6.00 Build 0)  -->
<!DOCTYPE svg PUBLIC "-//W3C//DTD SVG 1.1//EN" "http://www.w3.org/Graphics/SVG/1.1/DTD/svg11.dtd" [
	<!ENTITY ns_extend "http://ns.adobe.com/Extensibility/1.0/">
	<!ENTITY ns_ai "http://ns.adobe.com/AdobeIllustrator/10.0/">
	<!ENTITY ns_graphs "http://ns.adobe.com/Graphs/1.0/">
	<!ENTITY ns_vars "http://ns.adobe.com/Variables/1.0/">
	<!ENTITY ns_imrep "http://ns.adobe.com/ImageReplacement/1.0/">
	<!ENTITY ns_sfw "http://ns.adobe.com/SaveForWeb/1.0/">
	<!ENTITY ns_custom "http://ns.adobe.com/GenericCustomNamespace/1.0/">
	<!ENTITY ns_adobe_xpath "http://ns.adobe.com/XPath/1.0/">
]>
<svg version="1.1" id="Capa_1" xmlns:x="&ns_extend;" xmlns:i="&ns_ai;" xmlns:graph="&ns_graphs;"
	 xmlns="http://www.w3.org/2000/svg" xmlns:xlink="http://www.w3.org/1999/xlink" x="0px" y="0px" width="40px" height="40px"
	 viewBox="0 0 40 40" enable-background="new 0 0 40 40" xml:space="preserve">
<metadata>
	<sfw  xmlns="&ns_sfw;">
		<slices></slices>
		<sliceSourceBounds  width="40" height="40" y="199.5" x="291.5" bottomLeftOrigin="true"></sliceSourceBounds>
	</sfw>
</metadata>
<g>
	<g>
		<g>
			<rect id="SVGID_1_" fill="#010202" width="40" height="40"/>
		</g>
		<g>
			<defs>
				<rect id="SVGID_2_" width="40" height="40"/>
			</defs>
			<clipPath id="SVGID_3_">
				<use xlink:href="#SVGID_2_"  overflow="visible"/>
			</clipPath>
			<rect clip-path="url(#SVGID_3_)" fill="#154A8C" width="40" height="40"/>
		</g>
	</g>
</g>
<path fill="#FFFFFF" d="M28.865,19.26l-8.46-6.979c-0.391-0.323-0.957-0.323-1.349,0l-8.459,6.979
	c-0.245,0.201-0.387,0.501-0.387,0.816v10.531c0,0.584,0.476,1.06,1.06,1.06h16.92c0.585,0,1.06-0.476,1.06-1.06V20.076
	C29.25,19.761,29.109,19.461,28.865,19.26 M20.852,29.548h-2.24v-5.866h2.24V29.548z M27.131,29.548h-4.16v-6.925
	c0-0.586-0.475-1.058-1.061-1.058h-4.359c-0.584,0-1.059,0.473-1.059,1.058v6.925H12.33v-8.972l7.401-6.105l7.399,6.105v8.972
	H27.131z"/>
<path fill="#FFFFFF" d="M31.803,17.135c-2.36-1.891-4.586-3.698-7.002-5.688c-0.721-0.648-1.479-1.263-2.215-1.856
	c-0.717-0.582-1.461-1.183-2.146-1.802c-0.402-0.361-1.014-0.361-1.417,0c-0.687,0.619-1.429,1.22-2.147,1.802
	c-0.733,0.594-1.492,1.208-2.215,1.856c-2.416,1.989-4.641,3.797-7,5.688C7.204,17.5,7.13,18.168,7.497,18.623
	c0.364,0.457,1.032,0.531,1.488,0.166c2.373-1.901,4.611-3.72,7.041-5.721c0.012-0.01,0.023-0.02,0.036-0.029
	c0.685-0.619,1.428-1.22,2.148-1.802c0.502-0.407,1.016-0.823,1.522-1.254c0.505,0.431,1.021,0.847,1.522,1.254
	c0.719,0.582,1.461,1.183,2.147,1.802c0.013,0.01,0.023,0.02,0.035,0.029c2.431,2.001,4.667,3.819,7.041,5.721
	c0.196,0.155,0.43,0.232,0.662,0.232c0.31,0,0.618-0.136,0.827-0.399C32.332,18.168,32.258,17.5,31.803,17.135"/>
</svg>
