<!-- Generator: Adobe Illustrator 17.0.0, SVG Export Plug-In  -->
<svg version="1.1"
	 xmlns="http://www.w3.org/2000/svg" xmlns:xlink="http://www.w3.org/1999/xlink" xmlns:a="http://ns.adobe.com/AdobeSVGViewerExtensions/3.0/"
	 x="0px" y="0px" width="205.727px" height="205.727px" viewBox="0 0 205.727 205.727" enable-background="new 0 0 205.727 205.727"
	 xml:space="preserve">
<defs>
</defs>
<g>
	<circle fill="#FFFFFF" stroke="#000000" stroke-miterlimit="10" cx="102.863" cy="102.863" r="102.363"/>
	<path fill="#FFCD09" stroke="#000000" stroke-miterlimit="10" d="M185.898,102.863c0,45.862-37.172,83.036-83.037,83.036
		c-45.855,0-83.031-37.174-83.031-83.036s37.176-83.036,83.031-83.036C148.727,19.827,185.898,57.001,185.898,102.863z"/>
</g>
<g>
	<g>
		<path fill="#FFFFFF" stroke="#000000" stroke-miterlimit="10" d="M159.754,56.206c0-2.931-2.209-5.233-5.142-5.233H51.231
			c-2.933,0-5.511,2.302-5.511,5.233v75.749h114.033V56.206z"/>
		<path fill="#F2F2F2" stroke="#221D1E" stroke-width="2" stroke-linejoin="round" stroke-miterlimit="10" d="M37.455,131.955v5.243
			c0,2.928,2.581,5.223,5.955,5.223h119.022c3.376,0,6.136-2.295,6.136-5.223v-5.243H37.455z"/>
		
			<rect x="53.983" y="57.582" fill="#FFD248" stroke="#221D1E" stroke-width="2" stroke-linejoin="round" stroke-miterlimit="10" width="98.058" height="66.109"/>
		
			<line fill="none" stroke="#221D1E" stroke-width="3.2" stroke-linejoin="round" stroke-miterlimit="10" x1="96.401" y1="137.464" x2="109.073" y2="137.464"/>
	</g>
	<rect x="60.594" y="107.165" fill="#144A8B" width="85.388" height="8.814"/>
	<rect x="60.594" y="63.643" fill="#144A8B" width="85.938" height="17.628"/>
	<g>
		<rect x="60.594" y="86.78" fill="#FFFFFF" width="56.742" height="15.426"/>
		<rect x="122.844" y="86.78" fill="#FFFFFF" width="23.138" height="15.426"/>
	</g>
</g>
</svg>