<!-- Generator: Adobe Illustrator 17.0.0, SVG Export Plug-In  -->
<svg version="1.1"
	 xmlns="http://www.w3.org/2000/svg" xmlns:xlink="http://www.w3.org/1999/xlink" xmlns:a="http://ns.adobe.com/AdobeSVGViewerExtensions/3.0/"
	 x="0px" y="0px" width="205.727px" height="205.727px" viewBox="0 0 205.727 205.727" enable-background="new 0 0 205.727 205.727"
	 xml:space="preserve">
<defs>
</defs>
<g>
	<circle fill="#FFFFFF" stroke="#000000" stroke-miterlimit="10" cx="102.863" cy="102.863" r="102.363"/>
	<path fill="#FFCD09" stroke="#000000" stroke-miterlimit="10" d="M185.898,102.863c0,45.862-37.172,83.036-83.037,83.036
		c-45.855,0-83.031-37.174-83.031-83.036s37.176-83.036,83.031-83.036C148.727,19.827,185.898,57.001,185.898,102.863z"/>
</g>
<g>
	<g>
		<g>
			<path fill="#144A8B" d="M161.493,103.385l7.293-4.733l-4.139-5.475l-1.533-6.689l-8.317,2.545
				c-1.966-2.21-4.218-4.032-6.659-5.458l0.846-8.651l-6.858-0.18l-6.181-2.975l-3.201,8.09c-1.417,0.076-2.829,0.263-4.226,0.558
				v11.072c6.572-2.336,14.169-0.354,18.679,5.455c5.629,7.244,4.311,17.679-2.931,23.305c-4.645,3.604-10.591,4.346-15.748,2.518
				v11.494c1.169,0.246,2.347,0.442,3.537,0.535l2.996,8.162l6.258-2.814l6.862-0.012l-0.629-8.669
				c1.236-0.683,2.439-1.471,3.591-2.365c1.163-0.902,2.23-1.883,3.204-2.919l8.246,2.749l1.703-6.652l4.268-5.365l-7.168-4.917
				C161.869,109.158,161.901,106.251,161.493,103.385z"/>
			<path fill="#000101" d="M135.051,144.054c-0.144,0-0.29-0.027-0.428-0.085c-0.28-0.118-0.497-0.348-0.604-0.633l-2.758-7.515
				c-0.925-0.102-1.904-0.264-2.971-0.489c-0.507-0.109-0.87-0.555-0.87-1.071v-11.494c0-0.356,0.176-0.689,0.466-0.894
				c0.29-0.207,0.663-0.258,0.997-0.139c4.951,1.75,10.556,0.871,14.71-2.351c6.757-5.25,7.984-15.014,2.738-21.768
				c-2.956-3.805-7.42-5.988-12.25-5.988c-1.778,0-3.527,0.302-5.198,0.895c-0.328,0.122-0.707,0.07-0.997-0.137
				c-0.29-0.207-0.466-0.539-0.466-0.896V80.417c0-0.519,0.363-0.966,0.87-1.072c1.215-0.257,2.451-0.436,3.689-0.533l2.946-7.446
				c0.11-0.282,0.336-0.506,0.619-0.618c0.283-0.109,0.6-0.098,0.874,0.033l5.969,2.874l6.623,0.173
				c0.308,0.009,0.595,0.143,0.794,0.371c0.202,0.229,0.298,0.528,0.271,0.832l-0.781,7.962c2.149,1.327,4.11,2.935,5.845,4.788
				l7.654-2.34c0.291-0.09,0.607-0.051,0.868,0.1c0.265,0.152,0.452,0.407,0.521,0.703l1.481,6.459l3.995,5.287
				c0.184,0.243,0.259,0.551,0.204,0.851c-0.05,0.299-0.226,0.563-0.48,0.729l-6.714,4.358c0.299,2.526,0.269,5.06-0.096,7.553
				l6.602,4.525c0.252,0.172,0.417,0.44,0.463,0.741c0.045,0.301-0.037,0.608-0.225,0.846l-4.123,5.182l-1.645,6.425
				c-0.075,0.294-0.27,0.543-0.537,0.688c-0.266,0.146-0.581,0.176-0.872,0.078l-7.589-2.528c-0.898,0.908-1.85,1.756-2.843,2.526
				c-0.992,0.771-2.04,1.478-3.12,2.112l0.582,7.976c0.021,0.304-0.084,0.602-0.292,0.827c-0.206,0.221-0.497,0.348-0.802,0.348
				l-6.63,0.012l-6.044,2.719C135.355,144.02,135.204,144.054,135.051,144.054z M129.614,133.361
				c0.904,0.166,1.734,0.279,2.525,0.341c0.429,0.035,0.797,0.314,0.945,0.715l2.587,7.058l5.186-2.332
				c0.142-0.063,0.294-0.098,0.447-0.098l5.688-0.008l-0.546-7.494c-0.03-0.426,0.191-0.831,0.565-1.039
				c1.198-0.662,2.36-1.426,3.447-2.271c1.084-0.844,2.121-1.787,3.078-2.805c0.292-0.313,0.74-0.425,1.146-0.29l7.128,2.376
				l1.41-5.511c0.038-0.149,0.106-0.29,0.204-0.411l3.535-4.442l-6.199-4.251c-0.352-0.242-0.529-0.667-0.46-1.089
				c0.465-2.72,0.501-5.502,0.105-8.271c-0.061-0.423,0.13-0.843,0.488-1.074l6.306-4.093l-3.429-4.534
				c-0.094-0.123-0.161-0.266-0.194-0.416l-1.27-5.541l-7.191,2.2c-0.415,0.127-0.856,0.001-1.141-0.319
				c-1.85-2.082-4.002-3.845-6.393-5.24c-0.37-0.217-0.579-0.628-0.538-1.054l0.733-7.479l-5.683-0.149
				c-0.155-0.003-0.308-0.041-0.447-0.107l-5.119-2.464l-2.768,6.995c-0.158,0.398-0.532,0.668-0.962,0.691
				c-1.063,0.058-2.132,0.181-3.186,0.366v8.688c1.455-0.381,2.951-0.572,4.468-0.572c5.511,0,10.605,2.491,13.979,6.836
				c5.987,7.707,4.589,18.853-3.123,24.845c-4.336,3.362-10.053,4.509-15.324,3.134V133.361z"/>
		</g>
	</g>
	<g>
		<polygon fill="#F2F2F2" points="114.721,50.73 51.499,50.73 51.499,151.238 128.518,151.238 128.518,64.529 		"/>
		<path fill="#000101" d="M128.518,152.334H51.499c-0.606,0-1.096-0.489-1.096-1.096V50.73c0-0.605,0.489-1.097,1.096-1.097h63.222
			c0.29,0,0.569,0.116,0.773,0.322l13.799,13.798c0.205,0.206,0.321,0.484,0.321,0.775v86.709
			C129.614,151.845,129.124,152.334,128.518,152.334z M52.595,150.143h74.826V64.983l-13.154-13.156H52.595V150.143z"/>
	</g>
	<g>
		<polygon fill="#D2D3D4" points="114.723,64.529 128.518,64.529 114.723,50.73 		"/>
		<path fill="#000101" d="M128.518,65.625h-13.795c-0.606,0-1.096-0.489-1.096-1.096V50.73c0-0.442,0.267-0.843,0.677-1.013
			c0.406-0.17,0.881-0.075,1.195,0.238l13.794,13.798c0.312,0.314,0.407,0.785,0.237,1.195
			C129.362,65.358,128.962,65.625,128.518,65.625z M115.819,63.434h10.054l-10.054-10.056V63.434z"/>
	</g>
	<g>
		<path fill="#000101" d="M105.039,65.625H41.955c-0.605,0-1.097-0.489-1.097-1.096c0-0.605,0.491-1.096,1.097-1.096h63.084
			c0.604,0,1.097,0.49,1.097,1.096C106.136,65.136,105.644,65.625,105.039,65.625z"/>
	</g>
	<g>
		<path fill="#000101" d="M105.039,80.877H41.955c-0.605,0-1.097-0.49-1.097-1.096c0-0.606,0.491-1.097,1.097-1.097h63.084
			c0.604,0,1.097,0.491,1.097,1.097C106.136,80.387,105.644,80.877,105.039,80.877z"/>
	</g>
	<g>
		<path fill="#000101" d="M105.039,96.126H41.955c-0.605,0-1.097-0.489-1.097-1.096c0-0.606,0.491-1.096,1.097-1.096h63.084
			c0.604,0,1.097,0.49,1.097,1.096C106.136,95.637,105.644,96.126,105.039,96.126z"/>
	</g>
	<g>
		<path fill="#000101" d="M105.039,111.378H41.955c-0.605,0-1.097-0.49-1.097-1.097c0-0.606,0.491-1.096,1.097-1.096h63.084
			c0.604,0,1.097,0.49,1.097,1.096C106.136,110.888,105.644,111.378,105.039,111.378z"/>
	</g>
	<g>
		<path fill="#000101" d="M82.962,126.628H41.955c-0.605,0-1.097-0.489-1.097-1.096c0-0.607,0.491-1.096,1.097-1.096h41.007
			c0.607,0,1.098,0.489,1.098,1.096C84.06,126.139,83.569,126.628,82.962,126.628z"/>
	</g>
	<g>
		<path fill="#FFCD07" d="M114.723,133.518c0,5.35-4.337,9.686-9.684,9.686c-5.349,0-9.684-4.336-9.684-9.686
			c0-5.346,4.335-9.682,9.684-9.682C110.386,123.836,114.723,128.172,114.723,133.518z"/>
		<path fill="#000101" d="M105.039,144.301c-5.943,0-10.779-4.838-10.779-10.783c0-5.943,4.836-10.778,10.779-10.778
			c5.943,0,10.78,4.835,10.78,10.778C115.819,139.463,110.982,144.301,105.039,144.301z M105.039,124.931
			c-4.735,0-8.588,3.853-8.588,8.587c0,4.737,3.853,8.59,8.588,8.59c4.735,0,8.588-3.853,8.588-8.59
			C113.627,128.784,109.774,124.931,105.039,124.931z"/>
	</g>
</g>
</svg>