<!-- Generator: Adobe Illustrator 17.0.0, SVG Export Plug-In  -->
<svg version="1.1"
	 xmlns="http://www.w3.org/2000/svg" xmlns:xlink="http://www.w3.org/1999/xlink" xmlns:a="http://ns.adobe.com/AdobeSVGViewerExtensions/3.0/"
	 x="0px" y="0px" width="313.782px" height="51.006px" viewBox="0 0 313.782 51.006" enable-background="new 0 0 313.782 51.006"
	 xml:space="preserve">
<defs>
</defs>
<g>
	<rect x="0" y="2.052" fill="#D2D3D3" width="43.577" height="41.015"/>
	<g>
		<rect x="43.577" y="2.052" fill="#FFCD07" width="268.154" height="41.015"/>
		<path fill="#154A8B" d="M311.731,45.117H43.577c-1.132,0-2.052-0.918-2.052-2.051V2.052c0-1.133,0.92-2.052,2.052-2.052h268.154
			c1.133,0,2.051,0.919,2.051,2.052v41.015C313.782,44.199,312.864,45.117,311.731,45.117z M45.629,41.016h264.053V4.102H45.629
			V41.016z"/>
	</g>
	<path fill="#154A8B" stroke="#000101" stroke-width="0.5" stroke-miterlimit="10" d="M34.787,25.339
		c0-7.489-6.092-13.582-13.581-13.582S7.624,17.85,7.624,25.339c0,6.993,5.313,12.765,12.113,13.5v11.917h4.102V38.66
		C30.072,37.43,34.787,31.927,34.787,25.339z M21.206,34.82c-5.227,0-9.481-4.254-9.481-9.481c0-5.229,4.254-9.48,9.481-9.48
		s9.482,4.252,9.482,9.48C30.688,30.566,26.434,34.82,21.206,34.82z"/>
</g>
<g>
	<g>
		<path fill="#154A8B" d="M79.803,29.111V18.476h4.716c0.948,0,1.669,0.096,2.162,0.286c0.493,0.191,0.888,0.529,1.183,1.013
			s0.442,1.018,0.442,1.604c0,0.754-0.244,1.391-0.732,1.907c-0.489,0.518-1.243,0.847-2.264,0.987
			c0.372,0.179,0.655,0.355,0.849,0.529c0.411,0.377,0.801,0.849,1.168,1.415l1.85,2.895h-1.77l-1.408-2.213
			c-0.411-0.639-0.749-1.127-1.016-1.466c-0.266-0.338-0.504-0.575-0.714-0.711c-0.211-0.135-0.425-0.229-0.643-0.282
			c-0.159-0.034-0.421-0.051-0.783-0.051H81.21v4.723H79.803z M81.21,23.17h3.025c0.644,0,1.146-0.066,1.509-0.2
			c0.363-0.133,0.639-0.346,0.827-0.638c0.189-0.293,0.283-0.611,0.283-0.954c0-0.503-0.183-0.917-0.548-1.241
			c-0.365-0.323-0.941-0.485-1.73-0.485H81.21V23.17z"/>
		<path fill="#154A8B" d="M89.441,29.111V18.476h7.689v1.255h-6.282v3.258h5.884v1.248h-5.884v3.62h6.529v1.255H89.441z"/>
		<path fill="#154A8B" d="M106.282,27.973c0.653,0.449,1.256,0.778,1.807,0.986l-0.413,0.979c-0.765-0.275-1.526-0.711-2.285-1.306
			c-0.789,0.439-1.659,0.66-2.612,0.66c-0.962,0-1.835-0.232-2.619-0.696c-0.783-0.465-1.387-1.118-1.81-1.959
			c-0.424-0.842-0.635-1.79-0.635-2.844c0-1.05,0.213-2.005,0.639-2.866c0.425-0.86,1.031-1.517,1.816-1.966
			c0.786-0.45,1.665-0.675,2.638-0.675c0.981,0,1.867,0.233,2.655,0.7s1.39,1.119,1.803,1.959c0.414,0.839,0.62,1.785,0.62,2.84
			c0,0.876-0.133,1.663-0.398,2.361C107.221,26.847,106.819,27.455,106.282,27.973z M103.185,26.173
			c0.813,0.228,1.482,0.566,2.01,1.016c0.827-0.754,1.24-1.889,1.24-3.402c0-0.86-0.146-1.613-0.438-2.256
			c-0.293-0.644-0.721-1.143-1.284-1.498s-1.196-0.533-1.897-0.533c-1.049,0-1.92,0.358-2.611,1.077
			c-0.691,0.718-1.037,1.791-1.037,3.218c0,1.383,0.342,2.444,1.026,3.185s1.559,1.11,2.622,1.11c0.503,0,0.978-0.095,1.422-0.283
			c-0.439-0.285-0.904-0.488-1.393-0.609L103.185,26.173z"/>
		<path fill="#154A8B" d="M115.659,18.476h1.407v6.145c0,1.069-0.121,1.918-0.363,2.547c-0.241,0.629-0.678,1.141-1.31,1.534
			c-0.631,0.395-1.459,0.592-2.484,0.592c-0.996,0-1.812-0.172-2.445-0.516c-0.634-0.343-1.086-0.84-1.356-1.49
			s-0.406-1.54-0.406-2.667v-6.145h1.407v6.138c0,0.924,0.086,1.604,0.258,2.042c0.172,0.438,0.467,0.775,0.885,1.013
			c0.419,0.236,0.93,0.355,1.535,0.355c1.034,0,1.772-0.235,2.212-0.704c0.44-0.469,0.661-1.371,0.661-2.706V18.476z"/>
		<path fill="#154A8B" d="M118.34,29.111V18.476h7.689v1.255h-6.282v3.258h5.884v1.248h-5.884v3.62h6.529v1.255H118.34z"/>
		<path fill="#154A8B" d="M127.144,29.111V18.476h4.716c0.948,0,1.669,0.096,2.162,0.286c0.493,0.191,0.888,0.529,1.183,1.013
			s0.442,1.018,0.442,1.604c0,0.754-0.244,1.391-0.732,1.907c-0.489,0.518-1.243,0.847-2.264,0.987
			c0.372,0.179,0.655,0.355,0.849,0.529c0.411,0.377,0.801,0.849,1.168,1.415l1.85,2.895h-1.77l-1.408-2.213
			c-0.411-0.639-0.749-1.127-1.016-1.466c-0.266-0.338-0.504-0.575-0.714-0.711c-0.211-0.135-0.425-0.229-0.643-0.282
			c-0.159-0.034-0.421-0.051-0.783-0.051h-1.633v4.723H127.144z M128.551,23.17h3.025c0.644,0,1.146-0.066,1.509-0.2
			c0.363-0.133,0.639-0.346,0.827-0.638c0.189-0.293,0.283-0.611,0.283-0.954c0-0.503-0.183-0.917-0.548-1.241
			c-0.365-0.323-0.941-0.485-1.73-0.485h-3.366V23.17z"/>
		<path fill="#154A8B" d="M136.992,29.111V18.476h1.407v10.636H136.992z"/>
		<path fill="#154A8B" d="M139.737,29.111V18.476h2.118l2.518,7.53c0.232,0.702,0.401,1.227,0.508,1.574
			c0.121-0.387,0.31-0.955,0.566-1.704l2.546-7.4h1.894v10.636h-1.356V20.21l-3.091,8.901h-1.27l-3.076-9.054v9.054H139.737z"/>
		<path fill="#154A8B" d="M151.298,29.111V18.476h1.407v10.636H151.298z"/>
		<path fill="#154A8B" d="M154.116,29.111V18.476h7.689v1.255h-6.282v3.258h5.884v1.248h-5.884v3.62h6.529v1.255H154.116z"/>
		<path fill="#154A8B" d="M162.883,29.111V18.476h1.443l5.587,8.351v-8.351h1.349v10.636h-1.443l-5.586-8.357v8.357H162.883z"/>
		<path fill="#154A8B" d="M175.234,29.111V19.73h-3.504v-1.255h8.43v1.255h-3.519v9.381H175.234z"/>
		<path fill="#154A8B" d="M180.076,23.932c0-1.766,0.475-3.147,1.423-4.146c0.947-0.999,2.171-1.498,3.671-1.498
			c0.981,0,1.866,0.234,2.655,0.703c0.788,0.47,1.389,1.124,1.803,1.963c0.413,0.839,0.62,1.791,0.62,2.854
			c0,1.079-0.218,2.044-0.653,2.896c-0.435,0.851-1.052,1.495-1.85,1.933c-0.798,0.438-1.659,0.657-2.583,0.657
			c-1.001,0-1.896-0.242-2.685-0.726c-0.788-0.483-1.385-1.144-1.791-1.98C180.279,25.75,180.076,24.865,180.076,23.932z
			 M181.527,23.953c0,1.281,0.345,2.291,1.034,3.029c0.689,0.737,1.554,1.106,2.594,1.106c1.059,0,1.931-0.373,2.615-1.118
			c0.685-0.744,1.026-1.801,1.026-3.17c0-0.866-0.146-1.621-0.438-2.268c-0.293-0.646-0.721-1.146-1.284-1.501
			s-1.196-0.533-1.897-0.533c-0.996,0-1.854,0.342-2.572,1.026C181.887,21.21,181.527,22.353,181.527,23.953z"/>
		<path fill="#154A8B" d="M190.482,25.694l1.328-0.116c0.063,0.532,0.209,0.969,0.438,1.31c0.23,0.341,0.587,0.616,1.07,0.827
			c0.483,0.21,1.028,0.315,1.633,0.315c0.537,0,1.011-0.08,1.422-0.239c0.411-0.16,0.717-0.379,0.918-0.656
			c0.2-0.278,0.301-0.582,0.301-0.911c0-0.333-0.097-0.625-0.29-0.874s-0.513-0.458-0.958-0.628
			c-0.285-0.11-0.916-0.283-1.894-0.519c-0.977-0.234-1.661-0.456-2.053-0.664c-0.508-0.266-0.887-0.596-1.136-0.99
			c-0.249-0.394-0.374-0.835-0.374-1.323c0-0.537,0.153-1.039,0.458-1.506s0.749-0.821,1.334-1.063
			c0.586-0.242,1.236-0.363,1.952-0.363c0.788,0,1.483,0.127,2.086,0.381c0.602,0.254,1.065,0.628,1.389,1.121
			c0.324,0.493,0.498,1.052,0.522,1.676l-1.35,0.102c-0.072-0.672-0.317-1.18-0.736-1.523c-0.418-0.343-1.036-0.515-1.854-0.515
			c-0.851,0-1.472,0.155-1.86,0.468c-0.39,0.312-0.584,0.688-0.584,1.128c0,0.382,0.138,0.696,0.413,0.943
			c0.271,0.246,0.979,0.499,2.122,0.758s1.929,0.485,2.354,0.679c0.619,0.285,1.076,0.646,1.371,1.084
			c0.295,0.438,0.442,0.942,0.442,1.513c0,0.566-0.162,1.1-0.486,1.6c-0.323,0.501-0.789,0.891-1.396,1.169
			c-0.606,0.277-1.29,0.417-2.049,0.417c-0.963,0-1.77-0.141-2.42-0.421s-1.161-0.702-1.53-1.267
			C190.697,27.043,190.502,26.405,190.482,25.694z"/>
		<path fill="#154A8B" d="M202.831,29.111V18.476h7.689v1.255h-6.282v3.258h5.884v1.248h-5.884v3.62h6.529v1.255H202.831z"/>
		<path fill="#154A8B" d="M210.531,29.111l4.113-5.543l-3.627-5.093h1.676l1.93,2.728c0.401,0.566,0.687,1.002,0.855,1.307
			c0.237-0.388,0.518-0.791,0.842-1.212l2.141-2.822h1.53l-3.736,5.013l4.026,5.623h-1.74l-2.678-3.794
			c-0.149-0.218-0.305-0.455-0.464-0.711c-0.237,0.387-0.406,0.652-0.508,0.798l-2.67,3.707H210.531z"/>
		<path fill="#154A8B" d="M223.129,29.111V19.73h-3.504v-1.255h8.43v1.255h-3.519v9.381H223.129z"/>
		<path fill="#154A8B" d="M228.429,29.111V18.476h7.689v1.255h-6.282v3.258h5.884v1.248h-5.884v3.62h6.529v1.255H228.429z"/>
		<path fill="#154A8B" d="M237.231,29.111V18.476h4.716c0.948,0,1.669,0.096,2.162,0.286c0.493,0.191,0.888,0.529,1.183,1.013
			s0.442,1.018,0.442,1.604c0,0.754-0.244,1.391-0.732,1.907c-0.489,0.518-1.243,0.847-2.264,0.987
			c0.372,0.179,0.655,0.355,0.849,0.529c0.411,0.377,0.801,0.849,1.168,1.415l1.85,2.895h-1.77l-1.408-2.213
			c-0.411-0.639-0.749-1.127-1.016-1.466c-0.266-0.338-0.504-0.575-0.714-0.711c-0.211-0.135-0.425-0.229-0.643-0.282
			c-0.159-0.034-0.421-0.051-0.783-0.051h-1.633v4.723H237.231z M238.639,23.17h3.025c0.644,0,1.146-0.066,1.509-0.2
			c0.363-0.133,0.639-0.346,0.827-0.638c0.189-0.293,0.283-0.611,0.283-0.954c0-0.503-0.183-0.917-0.548-1.241
			c-0.365-0.323-0.941-0.485-1.73-0.485h-3.366V23.17z"/>
		<path fill="#154A8B" d="M246.826,29.111V18.476h1.443l5.587,8.351v-8.351h1.349v10.636h-1.443l-5.586-8.357v8.357H246.826z"/>
		<path fill="#154A8B" d="M256.043,23.932c0-1.766,0.475-3.147,1.423-4.146c0.947-0.999,2.171-1.498,3.671-1.498
			c0.981,0,1.866,0.234,2.655,0.703c0.788,0.47,1.389,1.124,1.803,1.963c0.413,0.839,0.62,1.791,0.62,2.854
			c0,1.079-0.218,2.044-0.653,2.896c-0.435,0.851-1.052,1.495-1.85,1.933c-0.798,0.438-1.659,0.657-2.583,0.657
			c-1.001,0-1.896-0.242-2.685-0.726c-0.788-0.483-1.385-1.144-1.791-1.98C256.246,25.75,256.043,24.865,256.043,23.932z
			 M257.494,23.953c0,1.281,0.345,2.291,1.034,3.029c0.689,0.737,1.554,1.106,2.594,1.106c1.059,0,1.931-0.373,2.615-1.118
			c0.685-0.744,1.026-1.801,1.026-3.17c0-0.866-0.146-1.621-0.438-2.268c-0.293-0.646-0.721-1.146-1.284-1.501
			s-1.196-0.533-1.897-0.533c-0.996,0-1.854,0.342-2.572,1.026C257.853,21.21,257.494,22.353,257.494,23.953z"/>
		<path fill="#154A8B" d="M266.449,25.694l1.328-0.116c0.063,0.532,0.209,0.969,0.438,1.31c0.23,0.341,0.587,0.616,1.07,0.827
			c0.483,0.21,1.028,0.315,1.633,0.315c0.537,0,1.011-0.08,1.422-0.239c0.411-0.16,0.717-0.379,0.918-0.656
			c0.2-0.278,0.301-0.582,0.301-0.911c0-0.333-0.097-0.625-0.29-0.874s-0.513-0.458-0.958-0.628
			c-0.285-0.11-0.916-0.283-1.894-0.519c-0.977-0.234-1.661-0.456-2.053-0.664c-0.508-0.266-0.887-0.596-1.136-0.99
			c-0.249-0.394-0.374-0.835-0.374-1.323c0-0.537,0.153-1.039,0.458-1.506s0.749-0.821,1.334-1.063
			c0.586-0.242,1.236-0.363,1.952-0.363c0.788,0,1.483,0.127,2.086,0.381c0.602,0.254,1.065,0.628,1.389,1.121
			c0.324,0.493,0.498,1.052,0.522,1.676l-1.35,0.102c-0.072-0.672-0.317-1.18-0.736-1.523c-0.418-0.343-1.036-0.515-1.854-0.515
			c-0.851,0-1.472,0.155-1.86,0.468c-0.39,0.312-0.584,0.688-0.584,1.128c0,0.382,0.138,0.696,0.413,0.943
			c0.271,0.246,0.979,0.499,2.122,0.758s1.929,0.485,2.354,0.679c0.619,0.285,1.076,0.646,1.371,1.084
			c0.295,0.438,0.442,0.942,0.442,1.513c0,0.566-0.162,1.1-0.486,1.6c-0.323,0.501-0.789,0.891-1.396,1.169
			c-0.606,0.277-1.29,0.417-2.049,0.417c-0.963,0-1.77-0.141-2.42-0.421s-1.161-0.702-1.53-1.267
			C266.664,27.043,266.469,26.405,266.449,25.694z"/>
	</g>
</g>
</svg>