<?xml version="1.0" encoding="utf-8"?>
<!-- Generator: Adobe Illustrator 17.0.0, SVG Export Plug-In . SVG Version: 6.00 Build 0)  -->
<!DOCTYPE svg PUBLIC "-//W3C//DTD SVG 1.1//EN" "http://www.w3.org/Graphics/SVG/1.1/DTD/svg11.dtd" [
	<!ENTITY ns_extend "http://ns.adobe.com/Extensibility/1.0/">
	<!ENTITY ns_ai "http://ns.adobe.com/AdobeIllustrator/10.0/">
	<!ENTITY ns_graphs "http://ns.adobe.com/Graphs/1.0/">
	<!ENTITY ns_vars "http://ns.adobe.com/Variables/1.0/">
	<!ENTITY ns_imrep "http://ns.adobe.com/ImageReplacement/1.0/">
	<!ENTITY ns_sfw "http://ns.adobe.com/SaveForWeb/1.0/">
	<!ENTITY ns_custom "http://ns.adobe.com/GenericCustomNamespace/1.0/">
	<!ENTITY ns_adobe_xpath "http://ns.adobe.com/XPath/1.0/">
]>
<svg version="1.1" id="Capa_1" xmlns:x="&ns_extend;" xmlns:i="&ns_ai;" xmlns:graph="&ns_graphs;"
	 xmlns="http://www.w3.org/2000/svg" xmlns:xlink="http://www.w3.org/1999/xlink" x="0px" y="0px" width="460.326px"
	 height="36.08px" viewBox="0 0 460.326 36.08" enable-background="new 0 0 460.326 36.08" xml:space="preserve">
<metadata>
	<sfw  xmlns="&ns_sfw;">
		<slices></slices>
		<sliceSourceBounds  width="460.326" height="35.557" x="237.337" y="662.983" bottomLeftOrigin="true"></sliceSourceBounds>
	</sfw>
</metadata>
<g>
	<rect x="0" y="0" fill="#C6C6C6" width="37.777" height="35.557"/>
	<g>
		<g>
			<rect x="38.277" y="0.5" fill="#FFCC04" width="421.549" height="34.557"/>
			<path d="M459.326,1v33.557H38.777V1H459.326 M460.326,0H37.777v35.557h422.549L460.326,0L460.326,0z"/>
		</g>
	</g>
</g>
<g>
	<g>
		<path d="M55.584,23.218c-0.269,0.625-0.638,1.172-1.106,1.641s-1.016,0.837-1.641,1.106c-0.625,0.268-1.293,0.402-2.006,0.402
			h-1.494c-0.713,0-1.385-0.135-2.015-0.402c-0.63-0.27-1.179-0.638-1.647-1.106s-0.838-1.016-1.106-1.641s-0.403-1.294-0.403-2.007
			V9.932c0-0.713,0.135-1.382,0.403-2.007s0.638-1.172,1.106-1.641s1.018-0.837,1.647-1.106c0.63-0.268,1.302-0.402,2.015-0.402
			h1.494c0.713,0,1.381,0.135,2.006,0.402c0.625,0.27,1.172,0.638,1.641,1.106s0.838,1.016,1.106,1.641s0.403,1.294,0.403,2.007
			v0.85l-1.891,0.293V9.932c0-0.469-0.088-0.906-0.264-1.311c-0.176-0.406-0.414-0.76-0.717-1.063s-0.657-0.542-1.063-0.718
			s-0.842-0.264-1.311-0.264h-1.318c-0.469,0-0.906,0.088-1.312,0.264s-0.762,0.415-1.069,0.718s-0.549,0.656-0.725,1.063
			c-0.176,0.404-0.264,0.842-0.264,1.311v11.279c0,0.469,0.088,0.906,0.264,1.311c0.176,0.406,0.417,0.762,0.725,1.07
			c0.308,0.307,0.664,0.549,1.069,0.725s0.843,0.264,1.312,0.264h1.318c0.469,0,0.905-0.088,1.311-0.264s0.76-0.418,1.063-0.725
			c0.303-0.309,0.541-0.664,0.717-1.07c0.176-0.404,0.264-0.842,0.264-1.311v-1.143l1.891,0.308v0.835
			C55.987,21.924,55.853,22.593,55.584,23.218z"/>
		<path d="M60.19,26.074V5.068h1.803v21.006C61.993,26.074,60.19,26.074,60.19,26.074z"/>
		<path d="M75.616,26.074L74.62,24.58c-0.41,0.537-0.924,0.969-1.539,1.297c-0.615,0.326-1.289,0.49-2.021,0.49h-0.453
			c-0.605,0-1.178-0.115-1.715-0.344c-0.537-0.23-1.006-0.545-1.406-0.945s-0.715-0.869-0.944-1.406s-0.345-1.108-0.345-1.714
			v-0.146c0-0.605,0.115-1.177,0.345-1.714s0.544-1.006,0.944-1.406s0.869-0.715,1.406-0.945c0.537-0.229,1.109-0.344,1.715-0.344
			h3.809v-2.314c0-0.361-0.068-0.701-0.205-1.018c-0.137-0.318-0.322-0.594-0.557-0.828s-0.511-0.42-0.828-0.557
			s-0.656-0.205-1.018-0.205h-1.055c-0.361,0-0.701,0.068-1.019,0.205s-0.593,0.322-0.827,0.557s-0.42,0.51-0.557,0.828
			c-0.137,0.316-0.205,0.656-0.205,1.018v0.542l-1.803-0.293V15.19c0-0.605,0.115-1.177,0.345-1.714s0.544-1.006,0.944-1.406
			s0.869-0.715,1.406-0.945c0.537-0.229,1.109-0.344,1.715-0.344h1.055c0.605,0,1.176,0.115,1.713,0.344
			c0.537,0.23,1.006,0.545,1.406,0.945s0.716,0.869,0.945,1.406s0.344,1.108,0.344,1.714v10.884
			C76.215,26.074,75.616,26.074,75.616,26.074z M74.415,18.809h-3.809c-0.361,0-0.701,0.068-1.019,0.205s-0.593,0.324-0.827,0.564
			c-0.234,0.238-0.42,0.518-0.557,0.834c-0.137,0.318-0.205,0.657-0.205,1.019v0.63c0,0.361,0.068,0.701,0.205,1.018
			c0.137,0.318,0.322,0.594,0.557,0.828s0.51,0.42,0.827,0.557s0.657,0.205,1.019,0.205h1.201c0.361,0,0.7-0.068,1.018-0.205
			s0.594-0.322,0.828-0.557s0.42-0.51,0.557-0.828c0.137-0.316,0.205-0.656,0.205-1.018V18.809z"/>
		<path d="M90.132,22.266c0,0.605-0.121,1.16-0.365,1.662c-0.244,0.504-0.576,0.936-0.996,1.297s-0.906,0.643-1.458,0.842
			c-0.552,0.201-1.13,0.301-1.735,0.301h-1.201c-0.605,0-1.185-0.115-1.736-0.344c-0.552-0.23-1.035-0.545-1.45-0.945
			s-0.747-0.869-0.996-1.406s-0.374-1.108-0.374-1.714v-0.601l1.803-0.293v0.996c0,0.361,0.075,0.701,0.227,1.018
			c0.151,0.318,0.354,0.594,0.607,0.828s0.547,0.42,0.879,0.557s0.68,0.205,1.041,0.205h1.201c0.361,0,0.707-0.054,1.039-0.161
			s0.628-0.261,0.887-0.462c0.259-0.199,0.464-0.441,0.615-0.725s0.227-0.605,0.227-0.967c0-0.537-0.117-0.977-0.352-1.318
			s-0.544-0.627-0.93-0.857c-0.386-0.229-0.825-0.42-1.318-0.57c-0.493-0.152-0.998-0.303-1.516-0.455
			c-0.518-0.15-1.023-0.324-1.517-0.52s-0.933-0.451-1.318-0.77c-0.386-0.316-0.696-0.715-0.931-1.193s-0.352-1.074-0.352-1.787
			c0-0.605,0.117-1.16,0.352-1.662c0.234-0.504,0.553-0.936,0.953-1.297s0.866-0.643,1.398-0.842
			c0.532-0.201,1.102-0.301,1.707-0.301h1.055c0.605,0,1.176,0.115,1.713,0.344c0.537,0.23,1.006,0.545,1.406,0.945
			c0.4,0.4,0.716,0.869,0.945,1.406s0.344,1.108,0.344,1.714v0.059l-1.801,0.293v-0.454c0-0.361-0.068-0.701-0.205-1.018
			c-0.137-0.318-0.322-0.594-0.557-0.828s-0.511-0.42-0.828-0.557s-0.656-0.205-1.018-0.205h-1.055
			c-0.361,0-0.701,0.054-1.019,0.161s-0.593,0.261-0.827,0.462c-0.234,0.199-0.42,0.441-0.557,0.725s-0.205,0.605-0.205,0.967
			c0,0.518,0.117,0.939,0.352,1.268c0.234,0.326,0.544,0.603,0.93,0.827s0.825,0.413,1.318,0.563
			c0.493,0.152,0.996,0.309,1.509,0.469c0.513,0.162,1.016,0.345,1.509,0.55s0.933,0.469,1.318,0.791s0.695,0.726,0.93,1.208
			C90.015,20.955,90.132,21.553,90.132,22.266z"/>
		<path d="M103.265,23.672c-0.229,0.537-0.545,1.006-0.945,1.406s-0.869,0.715-1.406,0.945c-0.537,0.229-1.107,0.344-1.713,0.344H98
			c-0.605,0-1.178-0.115-1.715-0.344c-0.537-0.23-1.006-0.545-1.406-0.945s-0.715-0.869-0.944-1.406s-0.345-1.108-0.345-1.714V15.19
			c0-0.605,0.115-1.177,0.345-1.714s0.544-1.006,0.944-1.406s0.869-0.715,1.406-0.945c0.537-0.229,1.109-0.344,1.715-0.344h1.2
			c0.605,0,1.176,0.115,1.713,0.344c0.537,0.23,1.006,0.545,1.406,0.945s0.716,0.869,0.945,1.406s0.344,1.108,0.344,1.714v3.53
			h-8.217v3.34c0,0.361,0.068,0.701,0.205,1.018c0.137,0.318,0.322,0.594,0.557,0.828s0.51,0.42,0.827,0.557
			s0.657,0.205,1.019,0.205H99.2c0.361,0,0.7-0.068,1.018-0.205s0.594-0.322,0.828-0.557s0.42-0.51,0.557-0.828
			c0.137-0.316,0.205-0.656,0.205-1.018v-0.996l1.801,0.293v0.601C103.608,22.564,103.494,23.135,103.265,23.672z M101.808,15.088
			c0-0.361-0.068-0.701-0.205-1.018c-0.137-0.318-0.322-0.594-0.557-0.828s-0.511-0.42-0.828-0.557S99.562,12.48,99.2,12.48h-1.201
			c-0.361,0-0.701,0.068-1.019,0.205s-0.593,0.322-0.827,0.557s-0.42,0.51-0.557,0.828c-0.137,0.316-0.205,0.656-0.205,1.018v2.227
			h6.416L101.808,15.088L101.808,15.088z"/>
		<path d="M117.524,22.266c0,0.605-0.121,1.16-0.365,1.662c-0.244,0.504-0.576,0.936-0.996,1.297s-0.906,0.643-1.458,0.842
			c-0.552,0.201-1.13,0.301-1.735,0.301h-1.201c-0.605,0-1.185-0.115-1.736-0.344c-0.552-0.23-1.035-0.545-1.45-0.945
			s-0.747-0.869-0.996-1.406s-0.374-1.108-0.374-1.714v-0.601l1.803-0.293v0.996c0,0.361,0.075,0.701,0.227,1.018
			c0.151,0.318,0.354,0.594,0.607,0.828s0.547,0.42,0.879,0.557s0.68,0.205,1.041,0.205h1.201c0.361,0,0.707-0.054,1.039-0.161
			s0.628-0.261,0.887-0.462c0.259-0.199,0.464-0.441,0.615-0.725s0.227-0.605,0.227-0.967c0-0.537-0.117-0.977-0.352-1.318
			s-0.544-0.627-0.93-0.857c-0.386-0.229-0.825-0.42-1.318-0.57c-0.493-0.152-0.998-0.303-1.516-0.455
			c-0.518-0.15-1.023-0.324-1.517-0.52s-0.933-0.451-1.318-0.77c-0.386-0.316-0.696-0.715-0.931-1.193s-0.352-1.074-0.352-1.787
			c0-0.605,0.117-1.16,0.352-1.662c0.234-0.504,0.553-0.936,0.953-1.297s0.866-0.643,1.398-0.842
			c0.532-0.201,1.102-0.301,1.707-0.301h1.055c0.605,0,1.176,0.115,1.713,0.344c0.537,0.23,1.006,0.545,1.406,0.945
			c0.4,0.4,0.716,0.869,0.945,1.406s0.344,1.108,0.344,1.714v0.059l-1.801,0.293v-0.454c0-0.361-0.068-0.701-0.205-1.018
			c-0.137-0.318-0.322-0.594-0.557-0.828s-0.511-0.42-0.828-0.557s-0.656-0.205-1.018-0.205h-1.055
			c-0.361,0-0.701,0.054-1.019,0.161s-0.593,0.261-0.827,0.462c-0.234,0.199-0.42,0.441-0.557,0.725s-0.205,0.605-0.205,0.967
			c0,0.518,0.117,0.939,0.352,1.268c0.234,0.326,0.544,0.603,0.93,0.827s0.825,0.413,1.318,0.563
			c0.493,0.152,0.996,0.309,1.509,0.469c0.513,0.162,1.016,0.345,1.509,0.55s0.933,0.469,1.318,0.791s0.695,0.726,0.93,1.208
			C117.407,20.955,117.524,21.553,117.524,22.266z"/>
		<path d="M137.3,26.074l-0.996-1.523c-0.41,0.557-0.922,0.998-1.537,1.326c-0.615,0.326-1.289,0.49-2.021,0.49h-0.455
			c-0.605,0-1.176-0.115-1.713-0.344c-0.537-0.23-1.006-0.545-1.406-0.945s-0.716-0.869-0.945-1.406s-0.344-1.108-0.344-1.714V15.19
			c0-0.605,0.114-1.177,0.344-1.714c0.23-0.537,0.545-1.006,0.945-1.406s0.869-0.715,1.406-0.945
			c0.537-0.229,1.107-0.344,1.713-0.344h0.455c0.674,0,1.299,0.137,1.875,0.41s1.068,0.654,1.479,1.143V5.068h1.803v21.006
			C137.903,26.074,137.3,26.074,137.3,26.074z M136.099,15.088c0-0.361-0.068-0.701-0.205-1.018
			c-0.137-0.318-0.322-0.594-0.557-0.828s-0.51-0.42-0.827-0.557s-0.657-0.205-1.019-0.205h-1.201c-0.361,0-0.7,0.068-1.018,0.205
			s-0.594,0.322-0.828,0.557s-0.42,0.51-0.557,0.828c-0.137,0.316-0.205,0.656-0.205,1.018v6.973c0,0.361,0.068,0.701,0.205,1.018
			c0.137,0.318,0.322,0.594,0.557,0.828s0.511,0.42,0.828,0.557s0.656,0.205,1.018,0.205h1.201c0.361,0,0.701-0.068,1.019-0.205
			s0.593-0.322,0.827-0.557s0.42-0.51,0.557-0.828c0.137-0.316,0.205-0.656,0.205-1.018V15.088z"/>
		<path d="M151.18,23.672c-0.229,0.537-0.544,1.006-0.944,1.406s-0.869,0.715-1.406,0.945c-0.537,0.229-1.109,0.344-1.715,0.344
			h-1.201c-0.605,0-1.176-0.115-1.713-0.344c-0.537-0.23-1.006-0.545-1.406-0.945s-0.716-0.869-0.945-1.406
			s-0.344-1.108-0.344-1.714V15.19c0-0.605,0.114-1.177,0.344-1.714s0.545-1.006,0.945-1.406s0.869-0.715,1.406-0.945
			c0.537-0.229,1.107-0.344,1.713-0.344h1.201c0.605,0,1.178,0.115,1.715,0.344c0.537,0.23,1.006,0.545,1.406,0.945
			s0.715,0.869,0.944,1.406s0.345,1.108,0.345,1.714v3.53h-8.219v3.34c0,0.361,0.068,0.701,0.205,1.018
			c0.137,0.318,0.322,0.594,0.557,0.828s0.511,0.42,0.828,0.557s0.656,0.205,1.018,0.205h1.201c0.361,0,0.701-0.068,1.019-0.205
			s0.593-0.322,0.827-0.557s0.42-0.51,0.557-0.828c0.137-0.316,0.205-0.656,0.205-1.018v-0.996l1.803,0.293v0.601
			C151.524,22.564,151.409,23.135,151.18,23.672z M149.722,15.088c0-0.361-0.068-0.701-0.205-1.018
			c-0.137-0.318-0.322-0.594-0.557-0.828s-0.51-0.42-0.827-0.557s-0.657-0.205-1.019-0.205h-1.201c-0.361,0-0.7,0.068-1.018,0.205
			s-0.594,0.322-0.828,0.557s-0.42,0.51-0.557,0.828c-0.137,0.316-0.205,0.656-0.205,1.018v2.227h6.416v-2.227H149.722z"/>
		<path d="M166.436,12.788c-0.361,0-0.701,0.068-1.019,0.205s-0.593,0.322-0.827,0.557s-0.42,0.511-0.557,0.827
			c-0.137,0.318-0.205,0.657-0.205,1.019v10.679h-1.803v-15h0.602l0.98,1.523c0.41-0.557,0.926-0.998,1.546-1.326
			c0.62-0.326,1.296-0.49,2.028-0.49h1.055v2.007h-1.8V12.788z"/>
		<path d="M180.315,23.672c-0.229,0.537-0.545,1.006-0.945,1.406s-0.869,0.715-1.406,0.945c-0.537,0.229-1.107,0.344-1.713,0.344
			h-1.201c-0.605,0-1.178-0.115-1.715-0.344c-0.537-0.23-1.006-0.545-1.406-0.945s-0.715-0.869-0.944-1.406
			s-0.345-1.108-0.345-1.714V15.19c0-0.605,0.115-1.177,0.345-1.714s0.544-1.006,0.944-1.406s0.869-0.715,1.406-0.945
			c0.537-0.229,1.109-0.344,1.715-0.344h1.201c0.605,0,1.176,0.115,1.713,0.344c0.537,0.23,1.006,0.545,1.406,0.945
			s0.716,0.869,0.945,1.406s0.344,1.108,0.344,1.714v3.53h-8.217v3.34c0,0.361,0.068,0.701,0.205,1.018
			c0.137,0.318,0.322,0.594,0.557,0.828s0.51,0.42,0.827,0.557s0.657,0.205,1.019,0.205h1.201c0.361,0,0.7-0.068,1.018-0.205
			s0.594-0.322,0.828-0.557s0.42-0.51,0.557-0.828c0.137-0.316,0.205-0.656,0.205-1.018v-0.996l1.801,0.293v0.601
			C180.659,22.564,180.545,23.135,180.315,23.672z M178.858,15.088c0-0.361-0.068-0.701-0.205-1.018
			c-0.137-0.318-0.322-0.594-0.557-0.828s-0.511-0.42-0.828-0.557s-0.656-0.205-1.018-0.205h-1.201
			c-0.361,0-0.701,0.068-1.019,0.205s-0.593,0.322-0.827,0.557s-0.42,0.51-0.557,0.828c-0.137,0.316-0.205,0.656-0.205,1.018v2.227
			h6.416v-2.227H178.858z"/>
		<path d="M192.481,32.08v-7.266c-0.41,0.488-0.904,0.869-1.48,1.143s-1.201,0.41-1.875,0.41h-0.453
			c-0.605,0-1.178-0.115-1.715-0.344c-0.537-0.23-1.006-0.545-1.406-0.945s-0.715-0.869-0.944-1.406s-0.345-1.108-0.345-1.714V15.19
			c0-0.605,0.115-1.177,0.345-1.714s0.544-1.006,0.944-1.406s0.869-0.715,1.406-0.945c0.537-0.229,1.109-0.344,1.715-0.344h0.453
			c0.732,0,1.406,0.164,2.021,0.49c0.615,0.328,1.129,0.77,1.539,1.326l0.996-1.523h0.6V32.08H192.481z M192.481,15.088
			c0-0.361-0.068-0.701-0.205-1.018c-0.137-0.318-0.322-0.594-0.557-0.828s-0.511-0.42-0.828-0.557s-0.656-0.205-1.018-0.205h-1.201
			c-0.361,0-0.701,0.068-1.019,0.205s-0.593,0.322-0.827,0.557s-0.42,0.51-0.557,0.828c-0.137,0.316-0.205,0.656-0.205,1.018v6.973
			c0,0.361,0.068,0.701,0.205,1.018c0.137,0.318,0.322,0.594,0.557,0.828s0.51,0.42,0.827,0.557s0.657,0.205,1.019,0.205h1.201
			c0.361,0,0.7-0.068,1.018-0.205s0.594-0.322,0.828-0.557s0.42-0.51,0.557-0.828c0.137-0.316,0.205-0.656,0.205-1.018V15.088z"/>
		<path d="M207.306,26.074l-0.996-1.523c-0.41,0.557-0.924,0.998-1.539,1.326c-0.615,0.326-1.289,0.49-2.021,0.49h-0.453
			c-0.605,0-1.178-0.115-1.715-0.344c-0.537-0.23-1.006-0.545-1.406-0.945s-0.715-0.869-0.944-1.406s-0.345-1.108-0.345-1.714
			V11.074h1.803V22.06c0,0.361,0.068,0.701,0.205,1.018c0.137,0.318,0.322,0.594,0.557,0.828s0.51,0.42,0.827,0.557
			s0.657,0.205,1.019,0.205h1.201c0.361,0,0.7-0.068,1.018-0.205s0.594-0.322,0.828-0.557s0.42-0.51,0.557-0.828
			c0.137-0.316,0.205-0.656,0.205-1.018V11.074h1.801v15C207.908,26.074,207.306,26.074,207.306,26.074z"/>
		<path d="M221.185,23.672c-0.229,0.537-0.545,1.006-0.945,1.406s-0.869,0.715-1.406,0.945c-0.537,0.229-1.107,0.344-1.713,0.344
			h-1.201c-0.605,0-1.178-0.115-1.715-0.344c-0.537-0.23-1.006-0.545-1.406-0.945s-0.715-0.869-0.944-1.406
			s-0.345-1.108-0.345-1.714V15.19c0-0.605,0.115-1.177,0.345-1.714s0.544-1.006,0.944-1.406s0.869-0.715,1.406-0.945
			c0.537-0.229,1.109-0.344,1.715-0.344h1.201c0.605,0,1.176,0.115,1.713,0.344c0.537,0.23,1.006,0.545,1.406,0.945
			s0.716,0.869,0.945,1.406s0.344,1.108,0.344,1.714v3.53h-8.217v3.34c0,0.361,0.068,0.701,0.205,1.018
			c0.137,0.318,0.322,0.594,0.557,0.828s0.51,0.42,0.827,0.557s0.657,0.205,1.019,0.205h1.201c0.361,0,0.7-0.068,1.018-0.205
			s0.594-0.322,0.828-0.557s0.42-0.51,0.557-0.828c0.137-0.316,0.205-0.656,0.205-1.018v-0.996l1.801,0.293v0.601
			C221.528,22.564,221.414,23.135,221.185,23.672z M219.728,15.088c0-0.361-0.068-0.701-0.205-1.018
			c-0.137-0.318-0.322-0.594-0.557-0.828s-0.511-0.42-0.828-0.557s-0.656-0.205-1.018-0.205h-1.201
			c-0.361,0-0.701,0.068-1.019,0.205s-0.593,0.322-0.827,0.557s-0.42,0.51-0.557,0.828c-0.137,0.316-0.205,0.656-0.205,1.018v2.227
			h6.416v-2.227H219.728z"/>
		<path d="M229.542,12.788c-0.361,0-0.701,0.068-1.019,0.205s-0.593,0.322-0.827,0.557s-0.42,0.511-0.557,0.827
			c-0.137,0.318-0.205,0.657-0.205,1.019v10.679h-1.803v-15h0.602l0.98,1.523c0.41-0.557,0.926-0.998,1.546-1.326
			c0.62-0.326,1.296-0.49,2.028-0.49h1.055v2.007h-1.8V12.788z"/>
		<path d="M234.2,7.471V5.068h2.094V7.47H234.2V7.471z M234.347,26.074v-15h1.801v15H234.347z"/>
		<path d="M256.186,26.074V15.088c0-0.361-0.068-0.701-0.205-1.018c-0.137-0.318-0.322-0.594-0.557-0.828s-0.51-0.42-0.827-0.557
			s-0.657-0.205-1.019-0.205h-0.893c-0.361,0-0.701,0.068-1.019,0.205s-0.596,0.322-0.835,0.557s-0.428,0.51-0.564,0.828
			c-0.137,0.316-0.205,0.656-0.205,1.018v10.986h-1.787V15.088c0-0.361-0.068-0.701-0.205-1.018
			c-0.137-0.318-0.324-0.594-0.563-0.828s-0.518-0.42-0.835-0.557s-0.656-0.205-1.018-0.205h-0.895c-0.361,0-0.7,0.068-1.018,0.205
			s-0.594,0.322-0.828,0.557s-0.42,0.51-0.557,0.828c-0.137,0.316-0.205,0.656-0.205,1.018v10.986h-1.801v-15h0.6l0.982,1.523
			c0.41-0.557,0.925-0.998,1.545-1.326c0.62-0.326,1.297-0.49,2.029-0.49h0.146c0.85,0,1.615,0.21,2.299,0.63
			s1.211,0.977,1.582,1.67c0.186-0.342,0.416-0.654,0.689-0.938s0.576-0.524,0.908-0.726c0.332-0.199,0.693-0.355,1.084-0.469
			c0.391-0.111,0.795-0.168,1.215-0.168h0.146c0.605,0,1.178,0.115,1.715,0.344c0.537,0.23,1.006,0.545,1.406,0.945
			c0.4,0.4,0.715,0.869,0.944,1.406s0.345,1.108,0.345,1.714v10.884L256.186,26.074L256.186,26.074z"/>
		<path d="M262.046,7.471V5.068h2.096V7.47h-2.096V7.471z M262.192,26.074v-15h1.803v15H262.192z"/>
		<path d="M277.874,23.672c-0.229,0.537-0.545,1.006-0.945,1.406s-0.869,0.715-1.406,0.945c-0.537,0.229-1.107,0.344-1.713,0.344
			h-1.201c-0.605,0-1.178-0.115-1.715-0.344c-0.537-0.23-1.006-0.545-1.406-0.945s-0.715-0.869-0.944-1.406
			s-0.345-1.108-0.345-1.714V15.19c0-0.605,0.115-1.177,0.345-1.714s0.544-1.006,0.944-1.406s0.869-0.715,1.406-0.945
			c0.537-0.229,1.109-0.344,1.715-0.344h1.201c0.605,0,1.176,0.115,1.713,0.344c0.537,0.23,1.006,0.545,1.406,0.945
			s0.716,0.869,0.945,1.406s0.344,1.108,0.344,1.714v3.53h-8.217v3.34c0,0.361,0.068,0.701,0.205,1.018
			c0.137,0.318,0.322,0.594,0.557,0.828s0.51,0.42,0.827,0.557s0.657,0.205,1.019,0.205h1.201c0.361,0,0.7-0.068,1.018-0.205
			s0.594-0.322,0.828-0.557s0.42-0.51,0.557-0.828c0.137-0.316,0.205-0.656,0.205-1.018v-0.996l1.801,0.293v0.601
			C278.218,22.564,278.103,23.135,277.874,23.672z M276.417,15.088c0-0.361-0.068-0.701-0.205-1.018
			c-0.137-0.318-0.322-0.594-0.557-0.828s-0.511-0.42-0.828-0.557s-0.656-0.205-1.018-0.205h-1.201
			c-0.361,0-0.701,0.068-1.019,0.205s-0.593,0.322-0.827,0.557s-0.42,0.51-0.557,0.828c-0.137,0.316-0.205,0.656-0.205,1.018v2.227
			h6.416v-2.227H276.417z"/>
		<path d="M290.04,26.074V15.088c0-0.361-0.068-0.701-0.205-1.018c-0.137-0.318-0.322-0.594-0.557-0.828s-0.511-0.42-0.828-0.557
			s-0.656-0.205-1.018-0.205h-1.201c-0.361,0-0.701,0.068-1.019,0.205s-0.593,0.322-0.827,0.557s-0.42,0.51-0.557,0.828
			c-0.137,0.316-0.205,0.656-0.205,1.018v10.986h-1.803v-15h0.602l0.98,1.523c0.41-0.557,0.926-0.998,1.546-1.326
			c0.62-0.326,1.296-0.49,2.028-0.49h0.455c0.605,0,1.176,0.115,1.713,0.344c0.537,0.23,1.006,0.545,1.406,0.945
			s0.716,0.869,0.945,1.406s0.344,1.108,0.344,1.714v10.884C291.839,26.074,290.04,26.074,290.04,26.074z"/>
		<path d="M300.909,26.074c-0.547,0-1.063-0.103-1.546-0.308s-0.903-0.488-1.26-0.85s-0.64-0.781-0.85-1.26
			s-0.315-0.991-0.315-1.538v-9.331h-2.695v-1.714h2.695V7.469l1.803-0.293v3.896h3.809v1.714h-3.809v9.419
			c0,0.303,0.056,0.584,0.168,0.842c0.112,0.26,0.266,0.486,0.461,0.682s0.426,0.35,0.689,0.461c0.264,0.113,0.547,0.169,0.85,0.169
			h1.641v1.714h-1.641V26.074z"/>
		<path d="M315.535,23.672c-0.229,0.537-0.544,1.006-0.944,1.406s-0.869,0.715-1.406,0.945c-0.537,0.229-1.109,0.344-1.715,0.344
			h-1.201c-0.605,0-1.176-0.115-1.713-0.344c-0.537-0.23-1.006-0.545-1.406-0.945s-0.716-0.869-0.945-1.406
			s-0.344-1.108-0.344-1.714V15.19c0-0.605,0.114-1.177,0.344-1.714s0.545-1.006,0.945-1.406s0.869-0.715,1.406-0.945
			c0.537-0.229,1.107-0.344,1.713-0.344h1.201c0.605,0,1.178,0.115,1.715,0.344c0.537,0.23,1.006,0.545,1.406,0.945
			s0.715,0.869,0.944,1.406s0.345,1.108,0.345,1.714v6.768C315.88,22.564,315.765,23.135,315.535,23.672z M314.077,15.088
			c0-0.361-0.068-0.701-0.205-1.018c-0.137-0.318-0.322-0.594-0.557-0.828s-0.51-0.42-0.827-0.557s-0.657-0.205-1.019-0.205h-1.201
			c-0.361,0-0.7,0.068-1.018,0.205s-0.594,0.322-0.828,0.557s-0.42,0.51-0.557,0.828c-0.137,0.316-0.205,0.656-0.205,1.018v6.973
			c0,0.361,0.068,0.701,0.205,1.018c0.137,0.318,0.322,0.594,0.557,0.828s0.511,0.42,0.828,0.557s0.656,0.205,1.018,0.205h1.201
			c0.361,0,0.701-0.068,1.019-0.205s0.593-0.322,0.827-0.557s0.42-0.51,0.557-0.828c0.137-0.316,0.205-0.656,0.205-1.018V15.088z"/>
		<path d="M329.796,22.266c0,0.605-0.123,1.16-0.367,1.662c-0.244,0.504-0.576,0.936-0.996,1.297s-0.905,0.643-1.457,0.842
			c-0.552,0.201-1.131,0.301-1.736,0.301h-1.201c-0.605,0-1.184-0.115-1.735-0.344c-0.552-0.23-1.035-0.545-1.45-0.945
			s-0.747-0.869-0.996-1.406s-0.373-1.108-0.373-1.714v-0.601l1.801-0.293v0.996c0,0.361,0.076,0.701,0.228,1.018
			c0.151,0.318,0.354,0.594,0.608,0.828s0.547,0.42,0.879,0.557s0.678,0.205,1.039,0.205h1.201c0.361,0,0.709-0.054,1.041-0.161
			s0.627-0.261,0.886-0.462c0.259-0.199,0.464-0.441,0.615-0.725s0.228-0.605,0.228-0.967c0-0.537-0.117-0.977-0.352-1.318
			s-0.545-0.627-0.931-0.857c-0.386-0.229-0.825-0.42-1.318-0.57c-0.493-0.152-0.999-0.303-1.517-0.455
			c-0.518-0.15-1.022-0.324-1.516-0.52s-0.933-0.451-1.318-0.77c-0.386-0.316-0.695-0.715-0.93-1.193s-0.352-1.074-0.352-1.787
			c0-0.605,0.117-1.16,0.352-1.662c0.234-0.504,0.551-0.936,0.951-1.297s0.867-0.643,1.399-0.842
			c0.532-0.201,1.101-0.301,1.706-0.301h1.055c0.605,0,1.178,0.115,1.715,0.344c0.537,0.23,1.006,0.545,1.406,0.945
			c0.4,0.4,0.715,0.869,0.944,1.406s0.345,1.108,0.345,1.714v0.059l-1.803,0.293v-0.454c0-0.361-0.068-0.701-0.205-1.018
			c-0.137-0.318-0.322-0.594-0.557-0.828s-0.51-0.42-0.827-0.557s-0.657-0.205-1.019-0.205h-1.055c-0.361,0-0.7,0.054-1.018,0.161
			s-0.594,0.261-0.828,0.462c-0.234,0.199-0.42,0.441-0.557,0.725s-0.205,0.605-0.205,0.967c0,0.518,0.117,0.939,0.352,1.268
			c0.234,0.326,0.545,0.603,0.931,0.827s0.825,0.413,1.318,0.563c0.493,0.152,0.996,0.309,1.509,0.469
			c0.513,0.162,1.016,0.345,1.509,0.55s0.933,0.469,1.318,0.791s0.696,0.726,0.931,1.208
			C329.679,20.955,329.796,21.553,329.796,22.266z"/>
	</g>
</g>
<g>
	<g>
		<rect x="449.248" y="22.428" fill="#154A8C" width="3.631" height="3.796"/>
		<rect x="440.651" y="22.428" fill="#154A8C" width="3.633" height="3.796"/>
		<rect x="432.057" y="22.428" fill="#154A8C" width="3.631" height="3.796"/>
		<rect x="423.46" y="22.428" fill="#154A8C" width="3.631" height="3.796"/>
		<rect x="414.864" y="22.428" fill="#154A8C" width="3.632" height="3.796"/>
		<rect x="406.268" y="22.428" fill="#154A8C" width="3.635" height="3.796"/>
		<rect x="397.673" y="22.428" fill="#154A8C" width="3.634" height="3.796"/>
		<rect x="389.076" y="22.428" fill="#154A8C" width="3.634" height="3.796"/>
		<rect x="380.481" y="22.428" fill="#154A8C" width="3.634" height="3.796"/>
		<rect x="371.887" y="22.428" fill="#154A8C" width="3.634" height="3.796"/>
		<rect x="363.292" y="22.428" fill="#154A8C" width="3.632" height="3.796"/>
		<rect x="354.695" y="22.428" fill="#154A8C" width="3.63" height="3.796"/>
		<rect x="346.101" y="22.428" fill="#154A8C" width="3.632" height="3.796"/>
		<rect x="338.057" y="22.428" fill="#154A8C" width="3.633" height="3.796"/>
	</g>
</g>
<path fill="#154A8C" stroke="#000000" stroke-width="0.5" stroke-miterlimit="10" d="M31.486,14.801
	c-0.156-0.307-0.611-0.459-1.072-0.459h-1.068h-0.311h-2.75v-2.906c0-0.762-0.609-1.373-1.377-1.373h-0.766V8.531
	c0-0.305-0.299-0.609-0.609-0.609H9.613c-0.453,0-0.762,0.305-0.762,0.609v1.99H8.242c-0.764,0-1.381,0.609-1.381,1.373v16.363
	c0,0.764,0.617,1.377,1.381,1.377h6.267h3.059h6.275h2.291h1.529c0.609,0,1.221-0.459,1.371-1.072l2.758-12.541v-0.305
	C31.793,15.412,31.793,15.106,31.486,14.801 M11.451,14.188h12.082V8.531H9.613v9.326l0.461-2.602
	C10.23,14.647,10.84,14.188,11.451,14.188 M24.142,14.188h0.307c0.154,0,0.307,0,0.307,0.154h0.152v-2.906h-0.766
	C24.142,11.436,24.142,14.188,24.142,14.188z M8.242,24.129l0.609-3.057v-9.178H8.242V24.129z M11.301,12.508
	c0-0.305,0.301-0.613,0.613-0.613h9.172c0.453,0,0.768,0.309,0.768,0.613c0,0.457-0.315,0.762-0.768,0.762h-9.172
	C11.601,13.27,11.301,12.965,11.301,12.508 M11.301,10.213c0-0.307,0.301-0.611,0.613-0.611h9.172c0.453,0,0.768,0.305,0.768,0.611
	c0,0.461-0.315,0.766-0.768,0.766h-9.172C11.601,10.979,11.301,10.674,11.301,10.213"/>
</svg>
