<!-- Generator: Adobe Illustrator 17.0.0, SVG Export Plug-In  -->
<svg version="1.1"
	 xmlns="http://www.w3.org/2000/svg" xmlns:xlink="http://www.w3.org/1999/xlink" xmlns:a="http://ns.adobe.com/AdobeSVGViewerExtensions/3.0/"
	 x="0px" y="0px" width="401.254px" height="65.155px" viewBox="0 0 401.254 65.155" enable-background="new 0 0 401.254 65.155"
	 xml:space="preserve">
<defs>
</defs>
<g>
	<rect x="0" y="2.624" fill="#D1D2D3" width="55.726" height="52.448"/>
	<g>
		<rect x="55.726" y="2.624" fill="#FFCC04" width="342.906" height="52.448"/>
		<path fill="#154A8C" d="M398.632,57.694H55.726c-1.447,0-2.623-1.173-2.623-2.622V2.624C53.103,1.176,54.278,0,55.726,0h342.906
			c1.448,0,2.622,1.176,2.622,2.624v52.448C401.254,56.521,400.08,57.694,398.632,57.694z M58.35,52.45h337.661V5.247H58.35V52.45z"
			/>
	</g>
	<path fill="#154A8C" stroke="#000000" stroke-width="0.5" stroke-miterlimit="10" d="M44.485,32.402
		c0-9.576-7.79-17.368-17.367-17.368c-9.577,0-17.368,7.792-17.368,17.368c0,8.943,6.794,16.323,15.49,17.264v15.239h5.246V49.438
		C38.456,47.864,44.485,40.827,44.485,32.402z M27.118,44.527c-6.685,0-12.124-5.44-12.124-12.125
		c0-6.686,5.439-12.123,12.124-12.123c6.684,0,12.124,5.438,12.124,12.123C39.242,39.088,33.803,44.527,27.118,44.527z"/>
</g>
<g>
	<g>
		<path fill="#154A8C" d="M149.079,36.737V22.421h1.943l7.52,11.24v-11.24h1.816v14.316h-1.943l-7.52-11.25v11.25H149.079z"/>
		<path fill="#154A8C" d="M161.485,29.765c0-2.376,0.638-4.236,1.914-5.581s2.923-2.017,4.941-2.017
			c1.321,0,2.513,0.315,3.574,0.947s1.87,1.512,2.427,2.642s0.835,2.41,0.835,3.843c0,1.452-0.293,2.751-0.879,3.896
			s-1.416,2.014-2.49,2.603s-2.233,0.884-3.477,0.884c-1.348,0-2.552-0.325-3.613-0.977s-1.865-1.54-2.412-2.666
			S161.485,31.022,161.485,29.765z M163.438,29.794c0,1.726,0.464,3.084,1.392,4.077s2.092,1.489,3.491,1.489
			c1.426,0,2.6-0.501,3.521-1.504s1.382-2.425,1.382-4.268c0-1.165-0.197-2.183-0.591-3.052s-0.97-1.543-1.729-2.021
			s-1.609-0.718-2.554-0.718c-1.341,0-2.495,0.461-3.462,1.382S163.438,27.639,163.438,29.794z"/>
		<path fill="#154A8C" d="M180.313,36.737V22.421h9.658v1.689h-7.764v4.434h6.719v1.689h-6.719v6.504H180.313z"/>
		<path fill="#154A8C" d="M200.347,22.421h1.895v8.271c0,1.438-0.163,2.581-0.488,3.428s-0.913,1.535-1.763,2.065
			s-1.965,0.796-3.345,0.796c-1.341,0-2.438-0.231-3.291-0.693s-1.462-1.131-1.826-2.007s-0.547-2.072-0.547-3.589v-8.271h1.895
			v8.262c0,1.243,0.115,2.16,0.347,2.749s0.628,1.043,1.191,1.362s1.252,0.479,2.065,0.479c1.394,0,2.386-0.315,2.979-0.947
			s0.889-1.846,0.889-3.643V22.421z"/>
		<path fill="#154A8C" d="M203.896,36.737V22.421h1.943l7.52,11.24v-11.24h1.816v14.316h-1.943l-7.52-11.25v11.25H203.896z"/>
		<path fill="#154A8C" d="M227.094,31.718l1.895,0.479c-0.397,1.556-1.111,2.742-2.144,3.56s-2.293,1.226-3.784,1.226
			c-1.543,0-2.798-0.314-3.765-0.942s-1.702-1.538-2.207-2.729s-0.757-2.471-0.757-3.838c0-1.491,0.285-2.791,0.854-3.901
			s1.38-1.953,2.432-2.529s2.209-0.864,3.472-0.864c1.433,0,2.637,0.364,3.613,1.094s1.657,1.755,2.041,3.076l-1.865,0.439
			c-0.332-1.042-0.813-1.8-1.445-2.275s-1.426-0.713-2.383-0.713c-1.101,0-2.02,0.264-2.759,0.791s-1.258,1.235-1.558,2.124
			s-0.449,1.805-0.449,2.749c0,1.218,0.178,2.28,0.532,3.188c0.354,0.908,0.906,1.587,1.655,2.036s1.56,0.674,2.432,0.674
			c1.062,0,1.96-0.306,2.695-0.918S226.833,32.922,227.094,31.718z"/>
		<path fill="#154A8C" d="M230.164,36.737V22.421h1.895v14.316H230.164z"/>
		<path fill="#154A8C" d="M233.343,29.765c0-2.376,0.638-4.236,1.914-5.581s2.923-2.017,4.941-2.017
			c1.321,0,2.513,0.315,3.574,0.947s1.87,1.512,2.427,2.642s0.835,2.41,0.835,3.843c0,1.452-0.293,2.751-0.879,3.896
			s-1.416,2.014-2.49,2.603s-2.233,0.884-3.477,0.884c-1.348,0-2.552-0.325-3.613-0.977s-1.865-1.54-2.412-2.666
			S233.343,31.022,233.343,29.765z M235.296,29.794c0,1.726,0.464,3.084,1.392,4.077s2.092,1.489,3.491,1.489
			c1.426,0,2.6-0.501,3.521-1.504s1.382-2.425,1.382-4.268c0-1.165-0.197-2.183-0.591-3.052s-0.97-1.543-1.729-2.021
			s-1.609-0.718-2.554-0.718c-1.341,0-2.495,0.461-3.462,1.382S235.296,27.639,235.296,29.794z"/>
		<path fill="#154A8C" d="M247.976,36.737V22.421h1.943l7.52,11.24v-11.24h1.816v14.316h-1.943l-7.52-11.25v11.25H247.976z"/>
		<path fill="#154A8C" d="M259.387,36.737l5.498-14.316h2.041l5.859,14.316h-2.158l-1.67-4.336h-5.986l-1.572,4.336H259.387z
			 M263.518,30.858h4.854l-1.494-3.965c-0.456-1.204-0.794-2.194-1.016-2.969c-0.183,0.918-0.439,1.829-0.771,2.734L263.518,30.858z
			"/>
		<path fill="#154A8C" d="M272.74,36.737V22.421h1.895v12.627h7.051v1.689H272.74z"/>
		<path fill="#154A8C" d="M282.501,36.737V22.421h10.352v1.689h-8.457v4.385h7.92v1.68h-7.92v4.873h8.789v1.689H282.501z"/>
		<path fill="#154A8C" d="M293.677,32.138l1.787-0.156c0.085,0.716,0.281,1.304,0.591,1.763s0.789,0.83,1.44,1.113
			s1.384,0.425,2.197,0.425c0.723,0,1.36-0.107,1.914-0.322s0.965-0.51,1.235-0.884s0.405-0.783,0.405-1.226
			c0-0.449-0.13-0.842-0.391-1.177c-0.261-0.335-0.69-0.617-1.289-0.845c-0.384-0.149-1.233-0.383-2.549-0.698
			s-2.236-0.613-2.764-0.894c-0.684-0.358-1.193-0.803-1.528-1.333s-0.503-1.125-0.503-1.782c0-0.723,0.205-1.398,0.615-2.026
			s1.009-1.105,1.797-1.431s1.663-0.488,2.627-0.488c1.062,0,1.997,0.171,2.808,0.513s1.434,0.845,1.87,1.509
			s0.671,1.416,0.703,2.256l-1.816,0.137c-0.098-0.905-0.428-1.589-0.991-2.051s-1.395-0.693-2.495-0.693
			c-1.146,0-1.98,0.21-2.505,0.63s-0.786,0.926-0.786,1.519c0,0.515,0.186,0.938,0.557,1.27c0.364,0.332,1.316,0.672,2.856,1.021
			s2.596,0.652,3.169,0.913c0.833,0.384,1.448,0.871,1.846,1.46s0.596,1.268,0.596,2.036c0,0.762-0.218,1.479-0.654,2.153
			s-1.063,1.198-1.88,1.572s-1.736,0.562-2.759,0.562c-1.296,0-2.381-0.188-3.257-0.566s-1.563-0.945-2.061-1.704
			S293.703,33.095,293.677,32.138z"/>
	</g>
</g>
</svg>