<!-- Generator: Adobe Illustrator 17.0.0, SVG Export Plug-In  -->
<svg version="1.1"
	 xmlns="http://www.w3.org/2000/svg" xmlns:xlink="http://www.w3.org/1999/xlink" xmlns:a="http://ns.adobe.com/AdobeSVGViewerExtensions/3.0/"
	 x="0px" y="0px" width="205.727px" height="205.727px" viewBox="0 0 205.727 205.727" enable-background="new 0 0 205.727 205.727"
	 xml:space="preserve">
<defs>
</defs>
<g>
	<circle fill="#FFFFFF" stroke="#000000" stroke-miterlimit="10" cx="102.863" cy="102.863" r="102.363"/>
	<path fill="#FFCD09" stroke="#000000" stroke-miterlimit="10" d="M185.898,102.863c0,45.862-37.172,83.036-83.037,83.036
		c-45.855,0-83.031-37.174-83.031-83.036s37.176-83.036,83.031-83.036C148.727,19.827,185.898,57.001,185.898,102.863z"/>
</g>
<g>
	<g>
		<g>
			<path fill="#FFFFFF" d="M103.154,134.895c27.241,0,51.315-13.544,65.866-34.263C154.47,79.916,130.395,66.37,103.154,66.37
				c-27.239,0-51.315,13.546-65.863,34.263C51.839,121.352,75.915,134.895,103.154,134.895z"/>
			<path fill="#000101" d="M103.154,135.479c-26.366,0-51.165-12.901-66.341-34.512c-0.141-0.199-0.141-0.468,0-0.668
				c15.176-21.61,39.975-34.511,66.341-34.511c26.365,0,51.166,12.9,66.344,34.511c0.14,0.201,0.14,0.469,0,0.671
				C154.32,122.577,129.52,135.479,103.154,135.479z M38.004,100.633c14.977,21.099,39.302,33.68,65.15,33.68
				c25.85,0,50.174-12.581,65.152-33.68c-14.979-21.098-39.303-33.68-65.152-33.68C77.306,66.953,52.982,79.535,38.004,100.633z"/>
		</g>
		<g>
			<circle fill="#144A8B" cx="103.153" cy="100.633" r="27.534"/>
			<path fill="#000101" d="M103.154,128.748c-15.502,0-28.116-12.613-28.116-28.115c0-15.503,12.614-28.115,28.116-28.115
				c15.503,0,28.117,12.612,28.117,28.115C131.271,116.135,118.657,128.748,103.154,128.748z M103.154,73.683
				c-14.86,0-26.95,12.089-26.95,26.95c0,14.86,12.09,26.949,26.95,26.949c14.862,0,26.952-12.089,26.952-26.949
				C130.107,85.772,118.017,73.683,103.154,73.683z"/>
		</g>
		<g>
			<circle fill="#414042" cx="103.155" cy="100.633" r="10.166"/>
			<path fill="#000101" d="M103.154,111.381c-5.926,0-10.748-4.822-10.748-10.748c0-5.926,4.822-10.746,10.748-10.746
				c5.93,0,10.75,4.82,10.75,10.746C113.904,106.559,109.084,111.381,103.154,111.381z M103.154,91.05
				c-5.283,0-9.582,4.3-9.582,9.583c0,5.284,4.299,9.583,9.582,9.583c5.285,0,9.584-4.299,9.584-9.583
				C112.738,95.35,108.439,91.05,103.154,91.05z"/>
		</g>
		<g>
			<path fill="#000101" d="M82.521,101.216c-0.322,0-0.583-0.26-0.583-0.583c0-11.7,9.518-21.217,21.217-21.217
				c0.321,0,0.583,0.259,0.583,0.581c0,0.323-0.262,0.583-0.583,0.583c-11.057,0-20.051,8.996-20.051,20.053
				C83.104,100.956,82.843,101.216,82.521,101.216z"/>
		</g>
		<g>
			<circle fill="#FFFFFF" cx="96.756" cy="92.691" r="5.816"/>
			<path fill="#000101" d="M96.757,99.089c-3.528,0-6.4-2.869-6.4-6.398c0-3.529,2.872-6.399,6.4-6.399
				c3.528,0,6.397,2.87,6.397,6.399C103.154,96.22,100.285,99.089,96.757,99.089z M96.757,87.457c-2.887,0-5.234,2.348-5.234,5.233
				c0,2.885,2.348,5.235,5.234,5.235c2.887,0,5.231-2.35,5.231-5.235C101.988,89.806,99.644,87.457,96.757,87.457z"/>
		</g>
	</g>
	<g>
		<g>
			<path fill="#7DAFD0" d="M110.109,146.931c-1.03-0.578-2.034-1.233-2.979-2.003c-0.949-0.77-1.791-1.613-2.567-2.503l-5.067,6.238
				l5.545,4.505L110.109,146.931z"/>
			<path fill="#000101" d="M99.076,148.707c-0.011-0.108,0.019-0.219,0.093-0.31l5.068-6.239c0.078-0.097,0.196-0.153,0.319-0.155
				c0.124-0.003,0.242,0.05,0.325,0.143c0.831,0.951,1.654,1.754,2.516,2.455c0.855,0.696,1.81,1.337,2.919,1.961
				c0.108,0.059,0.185,0.166,0.208,0.287c0.021,0.132-0.009,0.249-0.087,0.346l-5.069,6.237c-0.146,0.182-0.412,0.209-0.594,0.062
				l-5.544-4.501C99.14,148.918,99.088,148.816,99.076,148.707z M104.578,143.076l-4.487,5.525l4.889,3.972l4.488-5.524
				c-0.969-0.57-1.824-1.158-2.604-1.791C106.08,144.618,105.329,143.905,104.578,143.076z"/>
		</g>
		<g>
			<polygon fill="#144A8B" points="105.041,153.168 99.496,148.663 97.668,147.177 77.643,171.827 79.474,173.314 85.018,177.816 
				86.846,179.305 106.872,154.652 			"/>
			<path fill="#000101" d="M77.225,171.87c-0.012-0.106,0.02-0.218,0.093-0.308L97.34,146.91c0.07-0.086,0.173-0.142,0.285-0.153
				c0.111-0.012,0.222,0.022,0.309,0.092l9.203,7.476c0.176,0.142,0.204,0.42,0.062,0.593l-20.025,24.654
				c-0.07,0.086-0.173,0.142-0.284,0.152c-0.111,0.012-0.224-0.02-0.311-0.091l-9.2-7.477
				C77.288,172.081,77.235,171.98,77.225,171.87z M97.729,147.77l-19.491,23.995l8.546,6.943l19.493-23.995L97.729,147.77z"/>
		</g>
		<g>
			<path fill="#FFCD0B" d="M136.494,141.887c7.27-8.946,5.907-22.094-3.041-29.362c-8.947-7.268-22.096-5.908-29.365,3.041
				c-6.499,8.002-6.079,19.349,0.476,26.859c0.776,0.89,1.618,1.733,2.567,2.503c0.944,0.77,1.948,1.425,2.979,2.003
				C118.806,151.805,129.994,149.892,136.494,141.887z M110.64,140.607c-6.561-5.33-7.557-14.97-2.229-21.528
				c5.33-6.563,14.97-7.561,21.53-2.229c6.561,5.327,7.559,14.967,2.23,21.528C126.842,144.938,117.202,145.938,110.64,140.607z"/>
			<path fill="#000101" d="M99.115,130.894c0,0,0,0,0-0.004c-0.585-5.647,1.065-11.185,4.645-15.59
				c3.586-4.417,8.678-7.172,14.337-7.758c5.659-0.584,11.207,1.066,15.623,4.655c4.415,3.586,7.169,8.677,7.755,14.336
				c0.586,5.658-1.066,11.205-4.652,15.622c-6.544,8.054-17.866,10.218-26.92,5.143c-1.149-0.646-2.146-1.315-3.039-2.04
				c-0.898-0.73-1.755-1.568-2.617-2.557C101.348,139.381,99.571,135.295,99.115,130.894z M140.636,126.62
				c-0.564-5.435-3.21-10.323-7.448-13.768c-4.24-3.445-9.569-5.034-15.004-4.471c-5.434,0.563-10.322,3.209-13.768,7.45
				c-3.438,4.231-5.022,9.548-4.461,14.971c0.001,0.004,0.001,0.004,0.001,0.004c0.438,4.227,2.142,8.15,4.926,11.34
				c0.831,0.951,1.654,1.754,2.516,2.455c0.855,0.696,1.81,1.337,2.919,1.961c8.695,4.874,19.566,2.797,25.851-4.94
				C139.609,137.382,141.198,132.053,140.636,126.62z M104.647,130.349c-0.433-4.18,0.788-8.276,3.436-11.537
				c2.647-3.26,6.408-5.295,10.587-5.728c4.18-0.433,8.277,0.788,11.538,3.437c3.261,2.648,5.293,6.407,5.727,10.587
				c0.433,4.177-0.787,8.274-3.436,11.535c-2.649,3.261-6.409,5.295-10.589,5.73c-4.179,0.433-8.276-0.789-11.536-3.439
				C107.114,138.284,105.08,134.525,104.647,130.349z M135.096,127.194c-0.409-3.956-2.335-7.514-5.421-10.018
				c-3.085-2.508-6.963-3.662-10.917-3.252c-3.955,0.409-7.513,2.333-10.018,5.42c-2.508,3.085-3.663,6.961-3.254,10.917
				c0.41,3.954,2.334,7.512,5.42,10.016c3.086,2.508,6.963,3.663,10.917,3.254c3.955-0.41,7.514-2.335,10.021-5.423
				C134.35,135.024,135.506,131.148,135.096,127.194z"/>
		</g>
		<g opacity="0.4">
			<circle fill="#939598" cx="120.291" cy="128.728" r="15.305"/>
			<path fill="#000101" d="M104.647,130.35L104.647,130.35c-0.433-4.181,0.788-8.277,3.436-11.538
				c2.647-3.26,6.408-5.295,10.587-5.728c4.18-0.433,8.277,0.788,11.538,3.437c3.261,2.648,5.293,6.407,5.727,10.587
				c0.433,4.177-0.787,8.274-3.436,11.535c-2.649,3.261-6.409,5.295-10.589,5.73c-4.179,0.433-8.276-0.789-11.536-3.439
				C107.114,138.284,105.08,134.526,104.647,130.35z M135.096,127.194c-0.409-3.956-2.335-7.514-5.421-10.018
				c-3.085-2.508-6.963-3.662-10.917-3.252c-3.955,0.409-7.513,2.333-10.018,5.42c-2.508,3.085-3.663,6.961-3.254,10.917
				l0.001,0.001c0.407,3.953,2.333,7.511,5.419,10.015c3.086,2.508,6.963,3.663,10.917,3.254c3.955-0.41,7.514-2.335,10.021-5.423
				C134.35,135.024,135.506,131.148,135.096,127.194z"/>
		</g>
		<g>
			<line fill="#FFFFFF" x1="119.36" y1="119.757" x2="121.221" y2="137.695"/>
			<path fill="#000101" d="M118.94,119.8c-0.023-0.231,0.144-0.438,0.377-0.462c0.23-0.024,0.438,0.144,0.463,0.375l1.861,17.938
				c0.024,0.232-0.145,0.439-0.377,0.464c-0.232,0.023-0.439-0.145-0.463-0.377L118.94,119.8z"/>
		</g>
		<g>
			<line fill="#FFFFFF" x1="113.073" y1="123.227" x2="114.354" y2="135.587"/>
			<path fill="#000101" d="M112.653,123.271c-0.023-0.23,0.145-0.438,0.376-0.463c0.232-0.023,0.44,0.146,0.463,0.376l1.282,12.36
				c0.024,0.234-0.145,0.44-0.377,0.464c-0.231,0.025-0.438-0.143-0.463-0.377L112.653,123.271z"/>
		</g>
		<g>
			<line fill="#FFFFFF" x1="126.225" y1="121.865" x2="127.506" y2="134.226"/>
			<path fill="#000101" d="M125.804,121.908c-0.023-0.23,0.145-0.438,0.377-0.462c0.232-0.024,0.439,0.145,0.464,0.375l1.28,12.36
				c0.024,0.234-0.143,0.44-0.376,0.465c-0.232,0.023-0.438-0.143-0.463-0.378L125.804,121.908z"/>
		</g>
	</g>
</g>
</svg>