<?xml version="1.0" encoding="utf-8"?>
<!-- Generator: Adobe Illustrator 17.0.0, SVG Export Plug-In . SVG Version: 6.00 Build 0)  -->
<!DOCTYPE svg PUBLIC "-//W3C//DTD SVG 1.1//EN" "http://www.w3.org/Graphics/SVG/1.1/DTD/svg11.dtd" [
	<!ENTITY ns_extend "http://ns.adobe.com/Extensibility/1.0/">
	<!ENTITY ns_ai "http://ns.adobe.com/AdobeIllustrator/10.0/">
	<!ENTITY ns_graphs "http://ns.adobe.com/Graphs/1.0/">
	<!ENTITY ns_vars "http://ns.adobe.com/Variables/1.0/">
	<!ENTITY ns_imrep "http://ns.adobe.com/ImageReplacement/1.0/">
	<!ENTITY ns_sfw "http://ns.adobe.com/SaveForWeb/1.0/">
	<!ENTITY ns_custom "http://ns.adobe.com/GenericCustomNamespace/1.0/">
	<!ENTITY ns_adobe_xpath "http://ns.adobe.com/XPath/1.0/">
]>
<svg version="1.1" id="Capa_1" xmlns:x="&ns_extend;" xmlns:i="&ns_ai;" xmlns:graph="&ns_graphs;"
	 xmlns="http://www.w3.org/2000/svg" xmlns:xlink="http://www.w3.org/1999/xlink" x="0px" y="0px" width="313.782px"
	 height="51.006px" viewBox="0 0 313.782 51.006" enable-background="new 0 0 313.782 51.006" xml:space="preserve">
<metadata>
	<sfw  xmlns="&ns_sfw;">
		<slices></slices>
		<sliceSourceBounds  width="313.782" height="51.006" x="525.719" y="724.872" bottomLeftOrigin="true"></sliceSourceBounds>
	</sfw>
</metadata>
<g>
	<g>
		<rect x="0.11" y="2.178" fill="#D1D2D2" width="43.577" height="41.014"/>
		<g>
			<rect x="43.688" y="2.178" fill="#FFCC03" width="268.154" height="41.014"/>
			<path fill="#124B8A" d="M311.842,45.242H43.688c-1.132,0-2.052-0.917-2.052-2.051V2.178c0-1.133,0.92-2.053,2.052-2.053h268.154
				c1.133,0,2.051,0.92,2.051,2.053v41.014C313.893,44.325,312.975,45.242,311.842,45.242z M45.738,41.142h264.055V4.229H45.738
				V41.142z"/>
		</g>
		<path fill="#124B8A" stroke="#000000" stroke-width="0.5" stroke-miterlimit="10" d="M34.897,25.464
			c0-7.488-6.093-13.582-13.581-13.582c-7.489,0-13.582,6.094-13.582,13.582c0,6.993,5.314,12.765,12.113,13.501v11.916h4.102
			V38.785C30.182,37.555,34.897,32.053,34.897,25.464z M21.316,34.945c-5.229,0-9.481-4.254-9.481-9.481
			c0-5.228,4.252-9.48,9.481-9.48c5.227,0,9.48,4.252,9.48,9.48C30.797,30.691,26.544,34.945,21.316,34.945z"/>
	</g>
	<g>
		<path fill="#124B8A" d="M49.414,29.237V18.602h4.716c0.948,0,1.669,0.096,2.162,0.287s0.888,0.528,1.183,1.012
			c0.295,0.483,0.442,1.018,0.442,1.603c0,0.755-0.244,1.391-0.732,1.908c-0.489,0.518-1.243,0.846-2.264,0.987
			c0.372,0.179,0.655,0.355,0.849,0.529c0.411,0.377,0.801,0.849,1.168,1.415l1.85,2.895h-1.77l-1.408-2.213
			c-0.411-0.639-0.749-1.127-1.016-1.465c-0.266-0.338-0.504-0.576-0.714-0.711c-0.211-0.135-0.425-0.229-0.643-0.283
			c-0.159-0.034-0.421-0.051-0.783-0.051h-1.633v4.723H49.414z M50.821,23.296h3.025c0.644,0,1.146-0.066,1.509-0.199
			c0.363-0.133,0.639-0.346,0.827-0.639c0.189-0.292,0.283-0.61,0.283-0.954c0-0.503-0.183-0.917-0.548-1.24
			c-0.365-0.324-0.941-0.486-1.73-0.486h-3.366V23.296z"/>
		<path fill="#124B8A" d="M59.053,29.237V18.602h7.689v1.255H60.46v3.258h5.884v1.248H60.46v3.621h6.529v1.255H59.053z"/>
		<path fill="#124B8A" d="M75.893,28.098c0.653,0.45,1.256,0.779,1.807,0.987l-0.413,0.979c-0.765-0.276-1.526-0.711-2.285-1.307
			c-0.789,0.44-1.659,0.66-2.612,0.66c-0.962,0-1.835-0.231-2.619-0.696c-0.783-0.464-1.387-1.117-1.81-1.959
			c-0.424-0.841-0.635-1.789-0.635-2.843c0-1.049,0.213-2.005,0.639-2.866c0.425-0.861,1.031-1.516,1.816-1.966
			c0.786-0.45,1.665-0.675,2.638-0.675c0.981,0,1.867,0.233,2.655,0.7s1.39,1.12,1.803,1.958c0.414,0.839,0.62,1.786,0.62,2.84
			c0,0.875-0.133,1.663-0.398,2.361C76.832,26.973,76.431,27.58,75.893,28.098z M72.796,26.299c0.813,0.228,1.482,0.565,2.01,1.016
			c0.827-0.755,1.24-1.888,1.24-3.402c0-0.861-0.146-1.613-0.438-2.256c-0.293-0.643-0.721-1.143-1.284-1.498
			s-1.196-0.533-1.897-0.533c-1.049,0-1.92,0.359-2.611,1.077c-0.691,0.718-1.037,1.791-1.037,3.218
			c0,1.383,0.342,2.445,1.026,3.185c0.685,0.739,1.559,1.109,2.622,1.109c0.503,0,0.978-0.094,1.422-0.282
			c-0.439-0.286-0.904-0.489-1.393-0.61L72.796,26.299z"/>
		<path fill="#124B8A" d="M85.27,18.602h1.407v6.145c0,1.069-0.121,1.917-0.363,2.546c-0.241,0.629-0.678,1.14-1.31,1.534
			c-0.631,0.395-1.459,0.591-2.484,0.591c-0.996,0-1.812-0.171-2.445-0.515s-1.086-0.84-1.356-1.491
			c-0.271-0.65-0.406-1.539-0.406-2.666v-6.145h1.407v6.138c0,0.924,0.086,1.604,0.258,2.042s0.467,0.775,0.885,1.012
			c0.419,0.237,0.93,0.355,1.535,0.355c1.034,0,1.772-0.234,2.212-0.703c0.44-0.47,0.661-1.371,0.661-2.706V18.602z"/>
		<path fill="#124B8A" d="M87.951,29.237V18.602h7.689v1.255h-6.282v3.258h5.884v1.248h-5.884v3.621h6.529v1.255H87.951z"/>
		<path fill="#124B8A" d="M96.754,29.237V18.602h4.716c0.948,0,1.669,0.096,2.162,0.287s0.888,0.528,1.183,1.012
			c0.295,0.483,0.442,1.018,0.442,1.603c0,0.755-0.244,1.391-0.732,1.908c-0.489,0.518-1.243,0.846-2.264,0.987
			c0.372,0.179,0.655,0.355,0.849,0.529c0.411,0.377,0.801,0.849,1.168,1.415l1.85,2.895h-1.77l-1.408-2.213
			c-0.411-0.639-0.749-1.127-1.016-1.465c-0.266-0.338-0.504-0.576-0.714-0.711c-0.211-0.135-0.425-0.229-0.643-0.283
			c-0.159-0.034-0.421-0.051-0.783-0.051h-1.633v4.723H96.754z M98.161,23.296h3.025c0.644,0,1.146-0.066,1.509-0.199
			c0.363-0.133,0.639-0.346,0.827-0.639c0.189-0.292,0.283-0.61,0.283-0.954c0-0.503-0.183-0.917-0.548-1.24
			c-0.365-0.324-0.941-0.486-1.73-0.486h-3.366V23.296z"/>
		<path fill="#124B8A" d="M106.602,29.237V18.602h1.407v10.636H106.602z"/>
		<path fill="#124B8A" d="M109.348,29.237V18.602h2.118l2.518,7.53c0.232,0.701,0.401,1.227,0.508,1.574
			c0.121-0.387,0.31-0.955,0.566-1.705l2.546-7.399h1.894v10.636h-1.356v-8.902l-3.091,8.902h-1.27l-3.076-9.054v9.054H109.348z"/>
		<path fill="#124B8A" d="M120.908,29.237V18.602h1.407v10.636H120.908z"/>
		<path fill="#124B8A" d="M123.726,29.237V18.602h7.689v1.255h-6.282v3.258h5.884v1.248h-5.884v3.621h6.529v1.255H123.726z"/>
		<path fill="#124B8A" d="M132.494,29.237V18.602h1.443l5.587,8.351v-8.351h1.349v10.636h-1.443l-5.586-8.358v8.358H132.494z"/>
		<path fill="#124B8A" d="M144.845,29.237v-9.381h-3.504v-1.255h8.43v1.255h-3.519v9.381H144.845z"/>
		<path fill="#124B8A" d="M149.686,24.057c0-1.765,0.475-3.147,1.423-4.146c0.947-0.999,2.171-1.498,3.671-1.498
			c0.981,0,1.866,0.234,2.656,0.704c0.788,0.469,1.389,1.124,1.803,1.962c0.413,0.839,0.62,1.791,0.62,2.855
			c0,1.079-0.218,2.043-0.653,2.894c-0.435,0.852-1.052,1.496-1.85,1.934c-0.798,0.438-1.659,0.656-2.583,0.656
			c-1.001,0-1.896-0.241-2.685-0.725c-0.788-0.484-1.385-1.145-1.791-1.981C149.89,25.876,149.686,24.991,149.686,24.057z
			 M151.138,24.079c0,1.282,0.345,2.291,1.034,3.028c0.689,0.738,1.554,1.106,2.594,1.106c1.059,0,1.931-0.372,2.615-1.117
			c0.685-0.744,1.027-1.801,1.027-3.17c0-0.866-0.146-1.622-0.438-2.267c-0.293-0.646-0.721-1.146-1.285-1.502
			s-1.196-0.533-1.897-0.533c-0.996,0-1.854,0.342-2.572,1.026C151.497,21.336,151.138,22.478,151.138,24.079z"/>
		<path fill="#124B8A" d="M160.094,25.82l1.328-0.116c0.063,0.532,0.209,0.969,0.438,1.31c0.23,0.341,0.587,0.616,1.07,0.827
			c0.483,0.21,1.028,0.315,1.633,0.315c0.537,0,1.011-0.08,1.422-0.239c0.411-0.16,0.717-0.379,0.918-0.657
			c0.2-0.277,0.301-0.581,0.301-0.91c0-0.334-0.097-0.625-0.29-0.874s-0.513-0.458-0.958-0.627
			c-0.285-0.111-0.916-0.284-1.894-0.519c-0.977-0.235-1.661-0.456-2.053-0.664c-0.508-0.266-0.887-0.596-1.136-0.99
			s-0.374-0.835-0.374-1.324c0-0.537,0.153-1.039,0.458-1.505s0.749-0.821,1.334-1.063c0.586-0.242,1.236-0.362,1.952-0.362
			c0.788,0,1.483,0.127,2.086,0.381c0.602,0.254,1.065,0.627,1.389,1.121c0.324,0.494,0.498,1.052,0.522,1.676l-1.35,0.102
			c-0.072-0.672-0.317-1.18-0.736-1.523c-0.418-0.343-1.036-0.515-1.854-0.515c-0.851,0-1.472,0.156-1.86,0.468
			c-0.39,0.312-0.584,0.688-0.584,1.128c0,0.382,0.138,0.696,0.413,0.943c0.271,0.247,0.979,0.5,2.122,0.758
			c1.144,0.259,1.929,0.485,2.354,0.679c0.619,0.285,1.076,0.646,1.371,1.084c0.295,0.438,0.442,0.942,0.442,1.512
			c0,0.566-0.162,1.1-0.486,1.6c-0.323,0.501-0.789,0.891-1.396,1.168c-0.606,0.278-1.29,0.417-2.049,0.417
			c-0.963,0-1.77-0.14-2.42-0.42c-0.65-0.281-1.161-0.703-1.53-1.267C160.309,27.168,160.114,26.531,160.094,25.82z"/>
		<path fill="#124B8A" d="M171.984,24.057c0-1.765,0.475-3.147,1.423-4.146c0.947-0.999,2.171-1.498,3.671-1.498
			c0.981,0,1.866,0.234,2.655,0.704c0.788,0.469,1.389,1.124,1.803,1.962c0.413,0.839,0.62,1.791,0.62,2.855
			c0,1.079-0.218,2.043-0.653,2.894c-0.435,0.852-1.052,1.496-1.85,1.934s-1.659,0.656-2.583,0.656
			c-1.001,0-1.896-0.241-2.685-0.725c-0.788-0.484-1.385-1.145-1.791-1.981C172.187,25.876,171.984,24.991,171.984,24.057z
			 M173.435,24.079c0,1.282,0.345,2.291,1.034,3.028c0.689,0.738,1.554,1.106,2.594,1.106c1.059,0,1.931-0.372,2.615-1.117
			c0.685-0.744,1.026-1.801,1.026-3.17c0-0.866-0.146-1.622-0.438-2.267c-0.293-0.646-0.721-1.146-1.284-1.502
			s-1.196-0.533-1.897-0.533c-0.996,0-1.854,0.342-2.572,1.026C173.794,21.336,173.435,22.478,173.435,24.079z"/>
		<path fill="#124B8A" d="M182.892,29.237V18.602h4.716c0.948,0,1.669,0.096,2.162,0.287s0.888,0.528,1.183,1.012
			c0.295,0.483,0.442,1.018,0.442,1.603c0,0.755-0.244,1.391-0.732,1.908c-0.489,0.518-1.243,0.846-2.264,0.987
			c0.372,0.179,0.655,0.355,0.849,0.529c0.411,0.377,0.801,0.849,1.168,1.415l1.85,2.895h-1.77l-1.408-2.213
			c-0.411-0.639-0.749-1.127-1.016-1.465c-0.266-0.338-0.504-0.576-0.714-0.711c-0.211-0.135-0.425-0.229-0.643-0.283
			c-0.159-0.034-0.421-0.051-0.783-0.051h-1.633v4.723H182.892z M184.299,23.296h3.025c0.644,0,1.146-0.066,1.509-0.199
			c0.363-0.133,0.639-0.346,0.827-0.639c0.189-0.292,0.283-0.61,0.283-0.954c0-0.503-0.183-0.917-0.548-1.24
			c-0.365-0.324-0.941-0.486-1.73-0.486h-3.366V23.296z"/>
		<path fill="#124B8A" d="M197.477,25.066v-1.248l4.506-0.007v3.946c-0.692,0.552-1.405,0.967-2.141,1.244
			c-0.735,0.278-1.49,0.417-2.264,0.417c-1.045,0-1.994-0.224-2.848-0.671s-1.498-1.094-1.934-1.94
			c-0.435-0.847-0.652-1.792-0.652-2.836c0-1.035,0.216-2.001,0.649-2.898c0.433-0.897,1.056-1.563,1.868-1.999
			c0.813-0.436,1.748-0.653,2.808-0.653c0.769,0,1.464,0.125,2.086,0.374c0.621,0.249,1.108,0.596,1.461,1.041
			c0.354,0.445,0.622,1.025,0.806,1.741l-1.27,0.348c-0.159-0.542-0.358-0.967-0.595-1.277c-0.237-0.31-0.576-0.557-1.016-0.744
			c-0.44-0.186-0.929-0.279-1.466-0.279c-0.644,0-1.199,0.098-1.669,0.294c-0.469,0.196-0.848,0.453-1.135,0.772
			c-0.288,0.319-0.512,0.67-0.671,1.052c-0.271,0.658-0.406,1.371-0.406,2.14c0,0.948,0.163,1.741,0.489,2.379
			c0.326,0.639,0.802,1.112,1.426,1.422s1.286,0.464,1.987,0.464c0.609,0,1.205-0.117,1.785-0.352s1.021-0.484,1.32-0.751v-1.98
			H197.477z"/>
		<path fill="#124B8A" d="M201.79,29.237l4.084-10.636h1.517l4.353,10.636h-1.603l-1.241-3.222h-4.447l-1.168,3.222H201.79z
			 M204.859,24.87h3.605l-1.109-2.945c-0.339-0.895-0.591-1.63-0.755-2.206c-0.136,0.682-0.326,1.359-0.573,2.031L204.859,24.87z"/>
		<path fill="#124B8A" d="M211.754,29.237V18.602h1.443l5.587,8.351v-8.351h1.349v10.636h-1.443l-5.586-8.358v8.358H211.754z"/>
		<path fill="#124B8A" d="M221.639,29.237V18.602h1.407v10.636H221.639z"/>
		<path fill="#124B8A" d="M223.579,29.237v-1.306l5.448-6.813c0.387-0.484,0.754-0.904,1.103-1.263h-5.935v-1.255h7.618v1.255
			l-5.972,7.378l-0.646,0.748h6.791v1.255H223.579z"/>
		<path fill="#124B8A" d="M231.237,29.237l4.084-10.636h1.517l4.353,10.636h-1.603l-1.241-3.222h-4.447l-1.168,3.222H231.237z
			 M234.305,24.87h3.605l-1.109-2.945c-0.339-0.895-0.591-1.63-0.755-2.206c-0.136,0.682-0.326,1.359-0.573,2.031L234.305,24.87z"/>
		<path fill="#124B8A" d="M248.804,25.508l1.407,0.355c-0.295,1.156-0.826,2.038-1.593,2.645c-0.767,0.607-1.704,0.91-2.812,0.91
			c-1.146,0-2.078-0.232-2.797-0.699c-0.718-0.467-1.265-1.144-1.639-2.028c-0.375-0.885-0.563-1.835-0.563-2.851
			c0-1.108,0.211-2.074,0.635-2.898c0.423-0.825,1.025-1.451,1.807-1.879c0.78-0.428,1.641-0.642,2.579-0.642
			c1.063,0,1.959,0.271,2.684,0.813c0.726,0.542,1.231,1.303,1.517,2.285l-1.386,0.327c-0.246-0.774-0.604-1.337-1.073-1.69
			c-0.47-0.353-1.06-0.53-1.771-0.53c-0.817,0-1.501,0.196-2.05,0.588c-0.549,0.392-0.935,0.917-1.157,1.578
			s-0.333,1.341-0.333,2.042c0,0.904,0.131,1.694,0.395,2.369s0.674,1.179,1.23,1.513c0.556,0.333,1.158,0.5,1.807,0.5
			c0.788,0,1.455-0.227,2.002-0.682S248.61,26.403,248.804,25.508z"/>
		<path fill="#124B8A" d="M251.085,29.237V18.602h1.407v10.636H251.085z"/>
		<path fill="#124B8A" d="M253.446,24.057c0-1.765,0.475-3.147,1.423-4.146c0.947-0.999,2.171-1.498,3.671-1.498
			c0.981,0,1.866,0.234,2.655,0.704c0.788,0.469,1.389,1.124,1.803,1.962c0.413,0.839,0.62,1.791,0.62,2.855
			c0,1.079-0.218,2.043-0.653,2.894c-0.435,0.852-1.052,1.496-1.85,1.934s-1.659,0.656-2.583,0.656
			c-1.001,0-1.896-0.241-2.685-0.725c-0.788-0.484-1.385-1.145-1.791-1.981C253.649,25.876,253.446,24.991,253.446,24.057z
			 M254.897,24.079c0,1.282,0.345,2.291,1.034,3.028c0.689,0.738,1.554,1.106,2.594,1.106c1.059,0,1.931-0.372,2.615-1.117
			c0.685-0.744,1.026-1.801,1.026-3.17c0-0.866-0.146-1.622-0.438-2.267c-0.293-0.646-0.721-1.146-1.284-1.502
			s-1.196-0.533-1.897-0.533c-0.996,0-1.854,0.342-2.572,1.026C255.256,21.336,254.897,22.478,254.897,24.079z"/>
		<path fill="#124B8A" d="M264.318,29.237V18.602h1.443l5.587,8.351v-8.351h1.349v10.636h-1.443l-5.586-8.358v8.358H264.318z"/>
		<path fill="#124B8A" d="M272.794,29.237l4.084-10.636h1.517l4.353,10.636h-1.603l-1.241-3.222h-4.447l-1.168,3.222H272.794z
			 M275.863,24.87h3.605l-1.109-2.945c-0.339-0.895-0.591-1.63-0.755-2.206c-0.136,0.682-0.326,1.359-0.573,2.031L275.863,24.87z"/>
		<path fill="#124B8A" d="M282.714,29.237V18.602h1.408v9.381h5.237v1.255H282.714z"/>
		<path fill="#124B8A" d="M289.966,29.237V18.602h7.689v1.255h-6.282v3.258h5.884v1.248h-5.884v3.621h6.529v1.255H289.966z"/>
		<path fill="#124B8A" d="M298.268,25.82l1.328-0.116c0.063,0.532,0.209,0.969,0.438,1.31c0.23,0.341,0.587,0.616,1.07,0.827
			c0.483,0.21,1.028,0.315,1.633,0.315c0.537,0,1.011-0.08,1.422-0.239c0.411-0.16,0.717-0.379,0.918-0.657
			c0.2-0.277,0.301-0.581,0.301-0.91c0-0.334-0.097-0.625-0.29-0.874s-0.513-0.458-0.958-0.627
			c-0.285-0.111-0.916-0.284-1.894-0.519c-0.977-0.235-1.661-0.456-2.053-0.664c-0.508-0.266-0.887-0.596-1.136-0.99
			s-0.374-0.835-0.374-1.324c0-0.537,0.153-1.039,0.458-1.505s0.749-0.821,1.334-1.063c0.586-0.242,1.236-0.362,1.952-0.362
			c0.788,0,1.483,0.127,2.086,0.381c0.602,0.254,1.065,0.627,1.389,1.121c0.324,0.494,0.498,1.052,0.522,1.676l-1.35,0.102
			c-0.072-0.672-0.317-1.18-0.736-1.523c-0.418-0.343-1.036-0.515-1.854-0.515c-0.851,0-1.472,0.156-1.86,0.468
			c-0.39,0.312-0.584,0.688-0.584,1.128c0,0.382,0.138,0.696,0.413,0.943c0.271,0.247,0.979,0.5,2.122,0.758
			c1.144,0.259,1.929,0.485,2.354,0.679c0.619,0.285,1.076,0.646,1.371,1.084c0.295,0.438,0.442,0.942,0.442,1.512
			c0,0.566-0.162,1.1-0.486,1.6c-0.323,0.501-0.789,0.891-1.396,1.168c-0.606,0.278-1.29,0.417-2.049,0.417
			c-0.963,0-1.77-0.14-2.42-0.42c-0.65-0.281-1.161-0.703-1.53-1.267C298.483,27.168,298.287,26.531,298.268,25.82z"/>
	</g>
</g>
</svg>
