<!-- Generator: Adobe Illustrator 17.0.0, SVG Export Plug-In  -->
<svg version="1.1"
	 xmlns="http://www.w3.org/2000/svg" xmlns:xlink="http://www.w3.org/1999/xlink" xmlns:a="http://ns.adobe.com/AdobeSVGViewerExtensions/3.0/"
	 x="0px" y="0px" width="205.727px" height="205.727px" viewBox="0 0 205.727 205.727" enable-background="new 0 0 205.727 205.727"
	 xml:space="preserve">
<defs>
</defs>
<g>
	<circle fill="#FFFFFF" stroke="#000000" stroke-miterlimit="10" cx="102.863" cy="102.863" r="102.363"/>
	<path fill="#FFCD09" stroke="#000000" stroke-miterlimit="10" d="M185.898,102.863c0,45.862-37.172,83.036-83.037,83.036
		c-45.855,0-83.031-37.174-83.031-83.036s37.176-83.036,83.031-83.036C148.727,19.827,185.898,57.001,185.898,102.863z"/>
</g>
<g>
	<g>
		<g>
			<rect x="54.142" y="60.366" fill="#FFFFFF" width="88.37" height="82.438"/>
			<path fill="#000101" d="M142.512,143.405h-88.37c-0.332,0-0.6-0.269-0.6-0.601V60.366c0-0.331,0.268-0.6,0.6-0.6h88.37
				c0.332,0,0.601,0.269,0.601,0.6v82.439C143.112,143.137,142.844,143.405,142.512,143.405z M54.743,142.204h87.168V60.967H54.743
				V142.204z"/>
		</g>
		<g>
			<path fill="#FFFFFF" d="M142.512,53.067c0-5.375-4.357-9.731-9.731-9.731H63.876c-5.375,0-9.734,4.356-9.734,9.731v7.299h88.37
				V53.067z"/>
			<path fill="#000101" d="M142.512,60.967h-88.37c-0.332,0-0.6-0.269-0.6-0.601v-7.299c0-5.697,4.635-10.332,10.334-10.332h68.904
				c5.697,0,10.332,4.635,10.332,10.332v7.299C143.112,60.698,142.844,60.967,142.512,60.967z M54.743,59.766h87.168v-6.698
				c0-5.035-4.096-9.131-9.131-9.131H63.876c-5.036,0-9.133,4.096-9.133,9.131V59.766z"/>
		</g>
	</g>
	<g>
		<circle fill="#FFFFFF" cx="62.515" cy="51.852" r="3.109"/>
		<path fill="#000101" d="M62.515,55.561c-2.046,0-3.71-1.663-3.71-3.709c0-2.046,1.664-3.71,3.71-3.71
			c2.045,0,3.71,1.664,3.71,3.71C66.225,53.897,64.56,55.561,62.515,55.561z M62.515,49.343c-1.384,0-2.509,1.125-2.509,2.509
			c0,1.383,1.125,2.509,2.509,2.509c1.383,0,2.509-1.126,2.509-2.509C65.023,50.468,63.897,49.343,62.515,49.343z"/>
	</g>
	<g>
		<circle fill="#FFFFFF" cx="72.011" cy="51.852" r="3.11"/>
		<path fill="#000101" d="M72.011,55.561c-2.045,0-3.71-1.663-3.71-3.709c0-2.046,1.665-3.71,3.71-3.71
			c2.047,0,3.711,1.664,3.711,3.71C75.722,53.897,74.058,55.561,72.011,55.561z M72.011,49.343c-1.384,0-2.509,1.125-2.509,2.509
			c0,1.383,1.125,2.509,2.509,2.509c1.384,0,2.51-1.126,2.51-2.509C74.521,50.468,73.395,49.343,72.011,49.343z"/>
	</g>
	<g>
		<circle fill="#FFFFFF" cx="81.508" cy="51.852" r="3.108"/>
		<path fill="#000101" d="M81.508,55.561c-2.046,0-3.71-1.663-3.71-3.709c0-2.046,1.664-3.71,3.71-3.71
			c2.046,0,3.71,1.664,3.71,3.71C85.218,53.897,83.554,55.561,81.508,55.561z M81.508,49.343c-1.383,0-2.509,1.125-2.509,2.509
			c0,1.383,1.126,2.509,2.509,2.509c1.383,0,2.509-1.126,2.509-2.509C84.017,50.468,82.891,49.343,81.508,49.343z"/>
	</g>
	<g>
		<line fill="#FFFFFF" x1="122.95" y1="54.96" x2="129.17" y2="54.96"/>
		<path fill="#000101" d="M129.17,55.561h-6.22c-0.332,0-0.601-0.269-0.601-0.601c0-0.331,0.269-0.6,0.601-0.6h6.22
			c0.332,0,0.601,0.268,0.601,0.6C129.77,55.292,129.502,55.561,129.17,55.561z"/>
	</g>
	<g>
		<g>
			<line fill="#FFFFFF" x1="131.788" y1="49.443" x2="137.305" y2="54.96"/>
			<path fill="#000101" d="M137.305,55.561c-0.153,0-0.308-0.058-0.425-0.176l-5.518-5.518c-0.234-0.234-0.234-0.614,0-0.849
				c0.235-0.234,0.615-0.234,0.85,0l5.518,5.518c0.234,0.234,0.234,0.614,0,0.849C137.612,55.503,137.458,55.561,137.305,55.561z"/>
		</g>
		<g>
			<line fill="#FFFFFF" x1="131.788" y1="54.96" x2="137.304" y2="49.441"/>
			<path fill="#000101" d="M131.788,55.561c-0.154,0-0.308-0.058-0.426-0.176c-0.234-0.233-0.234-0.614,0-0.849l5.517-5.52
				c0.234-0.234,0.614-0.234,0.849,0c0.235,0.234,0.235,0.614,0,0.85l-5.516,5.519C132.095,55.503,131.941,55.561,131.788,55.561z"
				/>
		</g>
	</g>
	<g>
		<rect x="63.051" y="67.665" fill="#FFCD07" width="70.554" height="6.893"/>
		<path fill="#000101" d="M133.605,75.159H63.051c-0.332,0-0.601-0.269-0.601-0.601v-6.894c0-0.332,0.269-0.601,0.601-0.601h70.554
			c0.332,0,0.601,0.269,0.601,0.601v6.894C134.205,74.891,133.936,75.159,133.605,75.159z M63.651,73.959h69.353v-5.693H63.651
			V73.959z"/>
	</g>
	<g>
		<rect x="63.051" y="81.451" fill="#144A8B" width="31.499" height="6.894"/>
		<path fill="#000101" d="M94.55,88.946H63.051c-0.332,0-0.601-0.268-0.601-0.601v-6.895c0-0.331,0.269-0.6,0.601-0.6H94.55
			c0.332,0,0.601,0.269,0.601,0.6v6.895C95.15,88.678,94.882,88.946,94.55,88.946z M63.651,87.745h30.298v-5.693H63.651V87.745z"/>
	</g>
	<g>
		<rect x="105.222" y="81.451" fill="#144A8B" width="28.383" height="6.894"/>
		<path fill="#000101" d="M133.605,88.946h-28.383c-0.332,0-0.601-0.268-0.601-0.601v-6.895c0-0.331,0.269-0.6,0.601-0.6h28.383
			c0.332,0,0.601,0.269,0.601,0.6v6.895C134.205,88.678,133.936,88.946,133.605,88.946z M105.822,87.745h27.182v-5.693h-27.182
			V87.745z"/>
	</g>
	<g>
		<rect x="63.051" y="95.238" fill="#FFCD07" width="50.024" height="6.894"/>
		<path fill="#000101" d="M113.075,102.732H63.051c-0.332,0-0.601-0.269-0.601-0.601v-6.894c0-0.332,0.269-0.601,0.601-0.601h50.024
			c0.332,0,0.6,0.269,0.6,0.601v6.894C113.675,102.464,113.407,102.732,113.075,102.732z M63.651,101.531h48.822v-5.693H63.651
			V101.531z"/>
	</g>
	<g>
		<rect x="63.051" y="109.024" fill="#144A8B" width="15.349" height="6.894"/>
		<path fill="#000101" d="M78.399,116.52H63.051c-0.332,0-0.601-0.27-0.601-0.602v-6.894c0-0.332,0.269-0.601,0.601-0.601h15.349
			c0.331,0,0.6,0.269,0.6,0.601v6.894C78.999,116.25,78.73,116.52,78.399,116.52z M63.651,115.318h14.146v-5.693H63.651V115.318z"/>
	</g>
	<g>
		<rect x="88.933" y="109.024" fill="#144A8B" width="44.672" height="6.894"/>
		<path fill="#000101" d="M133.605,116.52H88.933c-0.332,0-0.602-0.27-0.602-0.602v-6.894c0-0.332,0.27-0.601,0.602-0.601h44.672
			c0.332,0,0.601,0.269,0.601,0.601v6.894C134.205,116.25,133.936,116.52,133.605,116.52z M89.532,115.318h43.472v-5.693H89.532
			V115.318z"/>
	</g>
	<g>
		<rect x="63.051" y="122.811" fill="#FFCD07" width="27.308" height="6.894"/>
		<path fill="#000101" d="M90.358,130.307H63.051c-0.332,0-0.601-0.27-0.601-0.602v-6.894c0-0.331,0.269-0.6,0.601-0.6h27.308
			c0.332,0,0.601,0.269,0.601,0.6v6.894C90.959,130.037,90.69,130.307,90.358,130.307z M63.651,129.105h26.106v-5.692H63.651
			V129.105z"/>
	</g>
	<g>
		<g>
			<path fill="#FFFFFF" d="M105.077,120.091c0,0,2.005,38.736,28.745,48.364v-56.662L105.077,120.091z"/>
		</g>
		<g>
			<path fill="#FFFFFF" d="M133.822,111.793v56.662c26.741-9.628,28.746-48.364,28.746-48.364L133.822,111.793z"/>
		</g>
		<g>
			<path fill="#144A8B" d="M133.822,111.793l-28.745,8.298c0,0,2.005,38.736,28.745,48.364
				c26.741-9.628,28.746-48.364,28.746-48.364L133.822,111.793z"/>
			<path fill="#000101" d="M133.822,169.057c-0.068,0-0.138-0.013-0.203-0.036c-26.807-9.652-29.12-48.508-29.142-48.898
				c-0.014-0.278,0.166-0.531,0.434-0.608l28.745-8.299c0.108-0.031,0.224-0.031,0.333,0l28.746,8.299
				c0.268,0.077,0.447,0.33,0.433,0.608c-0.02,0.391-2.336,39.246-29.142,48.898C133.96,169.044,133.892,169.057,133.822,169.057z
				 M105.711,120.533c0.351,4.423,3.83,38.357,28.111,47.283c24.292-8.93,27.764-42.86,28.112-47.283l-28.112-8.115L105.711,120.533
				z"/>
		</g>
		<g>
			<path fill="#FFFFFF" d="M146.459,154.302c-2.65,3.354-5.868,6.307-9.779,8.47"/>
			<path fill="#000101" d="M136.681,163.372c-0.213,0-0.417-0.112-0.526-0.31c-0.161-0.29-0.056-0.655,0.234-0.816
				c3.57-1.975,6.8-4.772,9.599-8.317c0.207-0.259,0.584-0.303,0.844-0.099c0.261,0.206,0.305,0.583,0.1,0.844
				c-2.899,3.67-6.25,6.571-9.96,8.623C136.878,163.349,136.778,163.372,136.681,163.372z"/>
		</g>
		<g>
			<path fill="#FFFFFF" d="M152.571,143.969c-1.114,2.517-2.438,5.023-4.001,7.401"/>
			<path fill="#000101" d="M148.569,151.971c-0.113,0-0.227-0.031-0.329-0.098c-0.277-0.183-0.354-0.556-0.172-0.832
				c1.452-2.21,2.783-4.672,3.954-7.316c0.135-0.303,0.49-0.438,0.793-0.306c0.303,0.135,0.439,0.489,0.305,0.793
				c-1.197,2.704-2.56,5.224-4.048,7.488C148.957,151.876,148.765,151.971,148.569,151.971z"/>
		</g>
		<g>
			<line fill="#FFFFFF" x1="133.822" y1="116.915" x2="133.822" y2="152.013"/>
			<path fill="#000101" d="M133.822,152.613c-0.331,0-0.601-0.268-0.601-0.601v-35.098c0-0.331,0.27-0.601,0.601-0.601
				c0.332,0,0.601,0.27,0.601,0.601v35.098C134.423,152.345,134.154,152.613,133.822,152.613z"/>
		</g>
	</g>
</g>
</svg>