<!-- Generator: Adobe Illustrator 17.0.0, SVG Export Plug-In  -->
<svg version="1.1"
	 xmlns="http://www.w3.org/2000/svg" xmlns:xlink="http://www.w3.org/1999/xlink" xmlns:a="http://ns.adobe.com/AdobeSVGViewerExtensions/3.0/"
	 x="0px" y="0px" width="313.782px" height="51.006px" viewBox="0 0 313.782 51.006" enable-background="new 0 0 313.782 51.006"
	 xml:space="preserve">
<defs>
</defs>
<g>
	<rect x="0" y="2.052" fill="#D2D3D3" width="43.577" height="41.015"/>
	<g>
		<rect x="43.577" y="2.052" fill="#FFCD07" width="268.154" height="41.015"/>
		<path fill="#154A8B" d="M311.731,45.117H43.577c-1.132,0-2.052-0.917-2.052-2.051V2.052C41.525,0.92,42.445,0,43.577,0h268.154
			c1.133,0,2.051,0.92,2.051,2.052v41.015C313.782,44.2,312.864,45.117,311.731,45.117z M45.629,41.016h264.053V4.104H45.629V41.016
			z"/>
	</g>
	<path fill="#154A8B" stroke="#000101" stroke-width="0.5" stroke-miterlimit="10" d="M34.787,25.339
		c0-7.489-6.092-13.582-13.581-13.582S7.624,17.85,7.624,25.339c0,6.993,5.313,12.765,12.113,13.5v11.917h4.102V38.66
		C30.072,37.43,34.787,31.928,34.787,25.339z M21.206,34.82c-5.227,0-9.481-4.254-9.481-9.482c0-5.227,4.254-9.48,9.481-9.48
		s9.482,4.253,9.482,9.48C30.688,30.566,26.434,34.82,21.206,34.82z"/>
</g>
<g>
	<g>
		<path fill="#154A8B" d="M68.072,29.112V18.476h4.716c0.948,0,1.669,0.096,2.162,0.287s0.888,0.528,1.183,1.012
			c0.295,0.483,0.442,1.018,0.442,1.603c0,0.755-0.244,1.391-0.732,1.908c-0.489,0.518-1.243,0.846-2.264,0.987
			c0.372,0.179,0.655,0.355,0.849,0.529c0.411,0.377,0.801,0.849,1.168,1.415l1.85,2.895h-1.77l-1.408-2.213
			c-0.411-0.638-0.749-1.127-1.016-1.465c-0.266-0.338-0.504-0.576-0.714-0.711c-0.211-0.135-0.425-0.229-0.643-0.283
			c-0.159-0.034-0.421-0.051-0.783-0.051h-1.633v4.723H68.072z M69.479,23.17h3.025c0.644,0,1.146-0.066,1.509-0.199
			c0.363-0.133,0.639-0.346,0.827-0.639c0.189-0.292,0.283-0.61,0.283-0.954c0-0.503-0.183-0.917-0.548-1.24
			c-0.365-0.324-0.941-0.486-1.73-0.486h-3.366V23.17z"/>
		<path fill="#154A8B" d="M77.711,29.112V18.476H85.4v1.255h-6.282v3.258h5.884v1.248h-5.884v3.621h6.529v1.255H77.711z"/>
		<path fill="#154A8B" d="M94.552,27.973c0.653,0.45,1.256,0.779,1.807,0.987l-0.413,0.979c-0.765-0.276-1.526-0.711-2.285-1.306
			c-0.789,0.44-1.659,0.66-2.612,0.66c-0.962,0-1.835-0.232-2.619-0.696c-0.783-0.464-1.387-1.117-1.81-1.959
			c-0.424-0.841-0.635-1.789-0.635-2.844c0-1.049,0.213-2.005,0.639-2.866c0.425-0.861,1.031-1.516,1.816-1.966
			c0.786-0.45,1.665-0.675,2.638-0.675c0.981,0,1.867,0.233,2.655,0.7s1.39,1.12,1.803,1.958c0.414,0.839,0.62,1.786,0.62,2.84
			c0,0.875-0.133,1.663-0.398,2.361C95.49,26.847,95.089,27.455,94.552,27.973z M91.454,26.173c0.813,0.228,1.482,0.566,2.01,1.016
			c0.827-0.755,1.24-1.889,1.24-3.403c0-0.861-0.146-1.613-0.438-2.256c-0.293-0.643-0.721-1.143-1.284-1.498
			s-1.196-0.533-1.897-0.533c-1.049,0-1.92,0.359-2.611,1.077c-0.691,0.718-1.037,1.791-1.037,3.218
			c0,1.383,0.342,2.445,1.026,3.185c0.685,0.74,1.559,1.11,2.622,1.11c0.503,0,0.978-0.094,1.422-0.283
			c-0.439-0.286-0.904-0.489-1.393-0.61L91.454,26.173z"/>
		<path fill="#154A8B" d="M103.929,18.476h1.407v6.145c0,1.069-0.121,1.917-0.363,2.546c-0.241,0.629-0.678,1.14-1.31,1.535
			c-0.631,0.394-1.459,0.591-2.484,0.591c-0.996,0-1.812-0.171-2.445-0.515c-0.634-0.344-1.086-0.84-1.356-1.491
			c-0.271-0.65-0.406-1.539-0.406-2.666v-6.145h1.407v6.138c0,0.924,0.086,1.604,0.258,2.042c0.172,0.438,0.467,0.775,0.885,1.012
			c0.419,0.237,0.93,0.355,1.535,0.355c1.034,0,1.772-0.234,2.212-0.704c0.44-0.469,0.661-1.371,0.661-2.706V18.476z"/>
		<path fill="#154A8B" d="M106.609,29.112V18.476h7.689v1.255h-6.282v3.258h5.884v1.248h-5.884v3.621h6.529v1.255H106.609z"/>
		<path fill="#154A8B" d="M115.413,29.112V18.476h4.716c0.948,0,1.669,0.096,2.162,0.287s0.888,0.528,1.183,1.012
			c0.295,0.483,0.442,1.018,0.442,1.603c0,0.755-0.244,1.391-0.732,1.908c-0.489,0.518-1.243,0.846-2.264,0.987
			c0.372,0.179,0.655,0.355,0.849,0.529c0.411,0.377,0.801,0.849,1.168,1.415l1.85,2.895h-1.77l-1.408-2.213
			c-0.411-0.638-0.749-1.127-1.016-1.465c-0.266-0.338-0.504-0.576-0.714-0.711c-0.211-0.135-0.425-0.229-0.643-0.283
			c-0.159-0.034-0.421-0.051-0.783-0.051h-1.633v4.723H115.413z M116.82,23.17h3.025c0.644,0,1.146-0.066,1.509-0.199
			c0.363-0.133,0.639-0.346,0.827-0.639c0.189-0.292,0.283-0.61,0.283-0.954c0-0.503-0.183-0.917-0.548-1.24
			c-0.365-0.324-0.941-0.486-1.73-0.486h-3.366V23.17z"/>
		<path fill="#154A8B" d="M125.262,29.112V18.476h1.407v10.636H125.262z"/>
		<path fill="#154A8B" d="M128.007,29.112V18.476h2.118l2.518,7.531c0.232,0.701,0.401,1.226,0.508,1.574
			c0.121-0.387,0.31-0.955,0.566-1.705l2.546-7.4h1.894v10.636H136.8V20.21l-3.091,8.902h-1.27l-3.076-9.054v9.054H128.007z"/>
		<path fill="#154A8B" d="M139.567,29.112V18.476h1.407v10.636H139.567z"/>
		<path fill="#154A8B" d="M142.386,29.112V18.476h7.689v1.255h-6.282v3.258h5.884v1.248h-5.884v3.621h6.529v1.255H142.386z"/>
		<path fill="#154A8B" d="M151.152,29.112V18.476h1.443l5.587,8.351v-8.351h1.349v10.636h-1.443l-5.586-8.358v8.358H151.152z"/>
		<path fill="#154A8B" d="M163.504,29.112v-9.381H160v-1.255h8.43v1.255h-3.519v9.381H163.504z"/>
		<path fill="#154A8B" d="M168.346,23.932c0-1.765,0.475-3.147,1.423-4.146c0.947-0.999,2.171-1.498,3.671-1.498
			c0.981,0,1.866,0.234,2.655,0.704c0.788,0.469,1.389,1.124,1.803,1.962c0.413,0.839,0.62,1.791,0.62,2.855
			c0,1.079-0.218,2.043-0.653,2.895c-0.435,0.852-1.052,1.496-1.85,1.934c-0.798,0.438-1.659,0.656-2.583,0.656
			c-1.001,0-1.896-0.242-2.685-0.725c-0.788-0.484-1.385-1.144-1.791-1.981C168.549,25.751,168.346,24.865,168.346,23.932z
			 M169.797,23.954c0,1.282,0.345,2.292,1.034,3.029c0.689,0.738,1.554,1.106,2.594,1.106c1.059,0,1.931-0.373,2.615-1.117
			s1.026-1.802,1.026-3.17c0-0.866-0.146-1.622-0.438-2.267c-0.293-0.646-0.721-1.146-1.284-1.502s-1.196-0.533-1.897-0.533
			c-0.996,0-1.854,0.342-2.572,1.026C170.156,21.21,169.797,22.353,169.797,23.954z"/>
		<path fill="#154A8B" d="M178.752,25.695l1.328-0.116c0.063,0.532,0.209,0.969,0.438,1.31c0.23,0.341,0.587,0.617,1.07,0.827
			s1.028,0.315,1.633,0.315c0.537,0,1.011-0.08,1.422-0.239s0.717-0.378,0.918-0.657c0.2-0.278,0.301-0.582,0.301-0.911
			c0-0.333-0.097-0.625-0.29-0.874s-0.513-0.458-0.958-0.627c-0.285-0.111-0.916-0.284-1.894-0.519
			c-0.977-0.235-1.661-0.456-2.053-0.664c-0.508-0.266-0.887-0.596-1.136-0.99s-0.374-0.835-0.374-1.324
			c0-0.537,0.153-1.039,0.458-1.505s0.749-0.821,1.334-1.063c0.586-0.242,1.236-0.362,1.952-0.362c0.788,0,1.483,0.127,2.086,0.381
			c0.602,0.254,1.065,0.627,1.389,1.121c0.324,0.494,0.498,1.052,0.522,1.676l-1.35,0.102c-0.072-0.672-0.317-1.18-0.736-1.523
			c-0.418-0.343-1.036-0.515-1.854-0.515c-0.851,0-1.472,0.156-1.86,0.468c-0.39,0.312-0.584,0.688-0.584,1.128
			c0,0.382,0.138,0.696,0.413,0.943c0.271,0.247,0.979,0.5,2.122,0.758c1.144,0.259,1.929,0.485,2.354,0.679
			c0.619,0.285,1.076,0.646,1.371,1.084c0.295,0.438,0.442,0.942,0.442,1.513c0,0.566-0.162,1.099-0.486,1.6
			c-0.323,0.5-0.789,0.89-1.396,1.168c-0.606,0.278-1.29,0.417-2.049,0.417c-0.963,0-1.77-0.14-2.42-0.42
			c-0.65-0.281-1.161-0.703-1.53-1.266C178.967,27.043,178.771,26.406,178.752,25.695z"/>
		<path fill="#154A8B" d="M191.071,29.112V18.476h3.663c0.827,0,1.459,0.051,1.894,0.152c0.609,0.14,1.13,0.395,1.561,0.762
			c0.561,0.474,0.98,1.08,1.259,1.817c0.277,0.738,0.417,1.581,0.417,2.528c0,0.808-0.095,1.523-0.283,2.147
			s-0.431,1.14-0.726,1.549c-0.295,0.409-0.618,0.73-0.969,0.965c-0.351,0.235-0.773,0.413-1.27,0.534
			c-0.495,0.121-1.065,0.181-1.708,0.181H191.071z M192.478,27.857h2.271c0.701,0,1.252-0.065,1.65-0.196
			c0.399-0.13,0.718-0.314,0.954-0.551c0.334-0.333,0.594-0.782,0.78-1.346s0.279-1.247,0.279-2.049
			c0-1.113-0.183-1.967-0.548-2.565c-0.365-0.597-0.809-0.998-1.331-1.201c-0.377-0.145-0.984-0.218-1.821-0.218h-2.234V27.857z"/>
		<path fill="#154A8B" d="M200.731,29.112V18.476h7.689v1.255h-6.282v3.258h5.884v1.248h-5.884v3.621h6.529v1.255H200.731z"/>
		<path fill="#154A8B" d="M212.541,29.112V18.476h4.012c0.706,0,1.245,0.034,1.618,0.102c0.522,0.087,0.96,0.253,1.313,0.497
			c0.354,0.244,0.638,0.586,0.853,1.026c0.216,0.44,0.323,0.924,0.323,1.451c0,0.904-0.288,1.67-0.863,2.296
			c-0.576,0.626-1.615,0.94-3.12,0.94h-2.728v4.324H212.541z M213.948,23.533h2.75c0.909,0,1.555-0.169,1.937-0.508
			c0.382-0.338,0.573-0.815,0.573-1.429c0-0.445-0.112-0.826-0.337-1.143c-0.226-0.317-0.521-0.526-0.889-0.627
			c-0.237-0.063-0.675-0.095-1.313-0.095h-2.721V23.533z"/>
		<path fill="#154A8B" d="M221.373,29.112V18.476h4.716c0.948,0,1.669,0.096,2.162,0.287s0.888,0.528,1.183,1.012
			c0.295,0.483,0.442,1.018,0.442,1.603c0,0.755-0.244,1.391-0.732,1.908c-0.489,0.518-1.243,0.846-2.264,0.987
			c0.372,0.179,0.655,0.355,0.849,0.529c0.411,0.377,0.801,0.849,1.168,1.415l1.85,2.895h-1.77l-1.408-2.213
			c-0.411-0.638-0.749-1.127-1.016-1.465c-0.266-0.338-0.504-0.576-0.714-0.711c-0.211-0.135-0.425-0.229-0.643-0.283
			c-0.159-0.034-0.421-0.051-0.783-0.051h-1.633v4.723H221.373z M222.78,23.17h3.025c0.644,0,1.146-0.066,1.509-0.199
			c0.363-0.133,0.639-0.346,0.827-0.639c0.189-0.292,0.283-0.61,0.283-0.954c0-0.503-0.183-0.917-0.548-1.24
			c-0.365-0.324-0.941-0.486-1.73-0.486h-3.366V23.17z"/>
		<path fill="#154A8B" d="M230.554,23.932c0-1.765,0.475-3.147,1.423-4.146c0.947-0.999,2.171-1.498,3.671-1.498
			c0.981,0,1.866,0.234,2.655,0.704c0.788,0.469,1.389,1.124,1.803,1.962c0.413,0.839,0.62,1.791,0.62,2.855
			c0,1.079-0.218,2.043-0.653,2.895c-0.435,0.852-1.052,1.496-1.85,1.934c-0.798,0.438-1.659,0.656-2.583,0.656
			c-1.001,0-1.896-0.242-2.685-0.725c-0.788-0.484-1.385-1.144-1.791-1.981C230.757,25.751,230.554,24.865,230.554,23.932z
			 M232.005,23.954c0,1.282,0.345,2.292,1.034,3.029c0.689,0.738,1.554,1.106,2.594,1.106c1.059,0,1.931-0.373,2.615-1.117
			s1.026-1.802,1.026-3.17c0-0.866-0.146-1.622-0.438-2.267c-0.293-0.646-0.721-1.146-1.284-1.502s-1.196-0.533-1.897-0.533
			c-0.996,0-1.854,0.342-2.572,1.026C232.364,21.21,232.005,22.353,232.005,23.954z"/>
		<path fill="#154A8B" d="M241.439,29.112V18.476h3.663c0.827,0,1.459,0.051,1.894,0.152c0.609,0.14,1.13,0.395,1.561,0.762
			c0.561,0.474,0.98,1.08,1.259,1.817c0.277,0.738,0.417,1.581,0.417,2.528c0,0.808-0.095,1.523-0.283,2.147
			s-0.431,1.14-0.726,1.549c-0.295,0.409-0.618,0.73-0.969,0.965c-0.351,0.235-0.773,0.413-1.27,0.534
			c-0.495,0.121-1.065,0.181-1.708,0.181H241.439z M242.847,27.857h2.271c0.701,0,1.252-0.065,1.65-0.196
			c0.399-0.13,0.718-0.314,0.954-0.551c0.334-0.333,0.594-0.782,0.78-1.346s0.279-1.247,0.279-2.049
			c0-1.113-0.183-1.967-0.548-2.565c-0.365-0.597-0.809-0.998-1.331-1.201c-0.377-0.145-0.984-0.218-1.821-0.218h-2.234V27.857z"/>
		<path fill="#154A8B" d="M258.05,18.476h1.407v6.145c0,1.069-0.121,1.917-0.363,2.546c-0.241,0.629-0.678,1.14-1.31,1.535
			c-0.631,0.394-1.459,0.591-2.484,0.591c-0.996,0-1.812-0.171-2.445-0.515c-0.634-0.344-1.086-0.84-1.356-1.491
			c-0.271-0.65-0.406-1.539-0.406-2.666v-6.145h1.407v6.138c0,0.924,0.086,1.604,0.258,2.042c0.172,0.438,0.467,0.775,0.885,1.012
			c0.419,0.237,0.93,0.355,1.535,0.355c1.034,0,1.772-0.234,2.212-0.704c0.44-0.469,0.661-1.371,0.661-2.706V18.476z"/>
		<path fill="#154A8B" d="M268.291,25.383l1.407,0.355c-0.295,1.156-0.826,2.038-1.593,2.645s-1.704,0.91-2.812,0.91
			c-1.146,0-2.078-0.233-2.797-0.7c-0.718-0.467-1.265-1.143-1.639-2.028c-0.375-0.885-0.563-1.835-0.563-2.851
			c0-1.108,0.211-2.074,0.635-2.898c0.423-0.825,1.025-1.451,1.807-1.879c0.78-0.428,1.641-0.642,2.579-0.642
			c1.063,0,1.959,0.271,2.684,0.813c0.726,0.542,1.231,1.303,1.517,2.285l-1.386,0.327c-0.246-0.774-0.604-1.337-1.073-1.69
			c-0.47-0.353-1.06-0.53-1.771-0.53c-0.817,0-1.501,0.196-2.05,0.588c-0.549,0.392-0.935,0.917-1.157,1.578
			s-0.333,1.341-0.333,2.042c0,0.904,0.131,1.694,0.395,2.369s0.674,1.179,1.23,1.513c0.556,0.333,1.158,0.5,1.807,0.5
			c0.788,0,1.455-0.227,2.002-0.682C267.727,26.952,268.097,26.278,268.291,25.383z"/>
		<path fill="#154A8B" d="M273.039,29.112v-9.381h-3.504v-1.255h8.43v1.255h-3.519v9.381H273.039z"/>
		<path fill="#154A8B" d="M277.881,23.932c0-1.765,0.475-3.147,1.423-4.146c0.947-0.999,2.171-1.498,3.671-1.498
			c0.981,0,1.866,0.234,2.655,0.704c0.788,0.469,1.389,1.124,1.803,1.962c0.413,0.839,0.62,1.791,0.62,2.855
			c0,1.079-0.218,2.043-0.653,2.895c-0.435,0.852-1.052,1.496-1.85,1.934c-0.798,0.438-1.659,0.656-2.583,0.656
			c-1.001,0-1.896-0.242-2.685-0.725c-0.788-0.484-1.385-1.144-1.791-1.981C278.084,25.751,277.881,24.865,277.881,23.932z
			 M279.332,23.954c0,1.282,0.345,2.292,1.034,3.029c0.689,0.738,1.554,1.106,2.594,1.106c1.059,0,1.931-0.373,2.615-1.117
			s1.026-1.802,1.026-3.17c0-0.866-0.146-1.622-0.438-2.267c-0.293-0.646-0.721-1.146-1.284-1.502s-1.196-0.533-1.897-0.533
			c-0.996,0-1.854,0.342-2.572,1.026C279.691,21.21,279.332,22.353,279.332,23.954z"/>
	</g>
</g>
</svg>