<!-- Generator: Adobe Illustrator 17.0.0, SVG Export Plug-In  -->
<svg version="1.1"
	 xmlns="http://www.w3.org/2000/svg" xmlns:xlink="http://www.w3.org/1999/xlink" xmlns:a="http://ns.adobe.com/AdobeSVGViewerExtensions/3.0/"
	 x="0px" y="0px" width="166.198px" height="112.976px" viewBox="0 0 166.198 112.976" enable-background="new 0 0 166.198 112.976"
	 xml:space="preserve">
<defs>
</defs>
<g>
	<g>
		<path fill="#FFCD07" d="M80.838,19.521c-2.654,0-5.119,1.186-6.768,3.26c-2.961,3.727-2.341,9.174,1.39,12.129
			c1.541,1.23,3.397,1.878,5.364,1.878c2.655,0,5.117-1.188,6.766-3.263c2.96-3.726,2.341-9.171-1.386-12.129
			C84.661,20.168,82.805,19.521,80.838,19.521"/>
		<path fill="#154A8B" d="M80.824,56.307c-6.329,0-12.549-2.172-17.504-6.112c-12.154-9.655-14.186-27.399-4.534-39.552
			C64.163,3.879,72.198,0,80.838,0c6.329,0,12.545,2.173,17.504,6.113c5.888,4.678,9.6,11.365,10.456,18.838
			c0.409,3.559,0.148,7.089-0.766,10.506c-0.569,2.127-1.397,4.193-2.455,6.133c-0.491,0.895-1.611,1.225-2.508,0.736
			c-0.899-0.487-1.226-1.609-0.74-2.506c0.918-1.686,1.64-3.474,2.134-5.32c0.797-2.967,1.019-6.035,0.665-9.128
			c-0.741-6.489-3.97-12.306-9.084-16.366c-4.313-3.424-9.71-5.308-15.206-5.308c-7.509,0-14.491,3.368-19.157,9.241
			c-8.39,10.557-6.624,25.973,3.936,34.36c4.311,3.428,9.712,5.31,15.207,5.31c1.021,0,1.845,0.829,1.845,1.85
			C82.669,55.479,81.845,56.307,80.824,56.307"/>
		<path fill="#154A8B" d="M80.824,47.992c-4.46,0-8.838-1.529-12.334-4.307c-8.561-6.804-9.993-19.311-3.19-27.872
			c3.783-4.764,9.447-7.497,15.538-7.497c4.457,0,8.843,1.529,12.332,4.303c4.147,3.298,6.77,8.012,7.371,13.279
			c0.299,2.631,0.084,5.243-0.641,7.758c-0.286,0.979-1.309,1.543-2.288,1.262c-0.984-0.284-1.544-1.308-1.264-2.283
			c0.589-2.049,0.762-4.172,0.52-6.319c-0.493-4.283-2.619-8.116-5.994-10.802c-2.845-2.26-6.407-3.502-10.036-3.502
			c-4.955,0-9.568,2.223-12.646,6.101c-5.535,6.968-4.37,17.14,2.598,22.679c2.843,2.263,6.405,3.505,10.035,3.505
			c1.021,0,1.845,0.827,1.845,1.848C82.669,47.161,81.845,47.992,80.824,47.992"/>
		<path fill="none" stroke="#FFFFFF" stroke-width="0.115" stroke-miterlimit="10" d="M90.506,28.153
			c0,5.343-4.335,9.674-9.675,9.674c-5.343,0-9.675-4.331-9.675-9.674c0-5.342,4.332-9.675,9.675-9.675
			C86.171,18.479,90.506,22.812,90.506,28.153z"/>
		<path fill="#154A8B" d="M80.824,39.675c-2.588,0-5.131-0.886-7.163-2.501c-4.974-3.949-5.805-11.213-1.853-16.19
			c2.199-2.767,5.491-4.355,9.029-4.355c2.591,0,5.131,0.89,7.159,2.503c4.979,3.953,5.806,11.215,1.854,16.19
			C87.654,38.089,84.362,39.675,80.824,39.675 M80.838,20.325c-2.409,0-4.642,1.077-6.137,2.957
			c-2.685,3.38-2.12,8.315,1.262,10.998c1.397,1.108,3.08,1.701,4.861,1.701c2.404,0,4.641-1.077,6.136-2.958
			c2.681-3.379,2.119-8.311-1.258-10.999C84.3,20.914,82.621,20.325,80.838,20.325"/>
		<g>
			<path fill="#FFFFFF" d="M92.913,61.842c2.62,0,4.745-2.127,4.745-4.749V44.954c0-3.541-2.869-6.406-6.406-6.406l-6.489-0.014
				v-9.493c0-2.002-1.558-3.707-3.564-3.78c-2.098-0.075-3.827,1.607-3.827,3.694v16.582l-0.969-2.02
				c-0.527-1.102-1.523-1.727-2.55-1.727c-0.478,0-0.955,0.133-1.397,0.407c-1.409,0.884-1.93,2.903-1.155,4.514
				c0,0,3.199,7.485,5.486,12.387c0.772,1.674,2.45,2.743,4.297,2.743H92.913z"/>
			<path fill="none" stroke="#000101" stroke-width="1.714" stroke-miterlimit="10" d="M92.913,61.842
				c2.62,0,4.745-2.127,4.745-4.749V44.954c0-3.541-2.869-6.406-6.406-6.406l-6.489-0.014v-9.493c0-2.002-1.558-3.707-3.564-3.78
				c-2.098-0.075-3.827,1.607-3.827,3.694v16.582l-0.969-2.02c-0.527-1.102-1.523-1.727-2.55-1.727
				c-0.478,0-0.955,0.133-1.397,0.407c-1.409,0.884-1.93,2.903-1.155,4.514c0,0,3.199,7.485,5.486,12.387
				c0.772,1.674,2.45,2.743,4.297,2.743H92.913z"/>
		</g>
	</g>
	<g>
		<path fill="#000101" d="M11.422,82.999l1.709,0.432c-0.358,1.404-1.003,2.475-1.934,3.211c-0.932,0.737-2.069,1.106-3.414,1.106
			c-1.392,0-2.524-0.284-3.396-0.851s-1.536-1.388-1.991-2.462c-0.455-1.075-0.683-2.229-0.683-3.463
			c0-1.345,0.257-2.518,0.771-3.52c0.514-1.001,1.245-1.762,2.193-2.281c0.948-0.521,1.992-0.78,3.132-0.78
			c1.292,0,2.379,0.329,3.26,0.987c0.881,0.657,1.494,1.582,1.841,2.774l-1.683,0.396c-0.299-0.939-0.734-1.624-1.304-2.053
			s-1.286-0.643-2.149-0.643c-0.993,0-1.822,0.237-2.489,0.713c-0.666,0.477-1.135,1.115-1.405,1.917
			c-0.27,0.802-0.405,1.628-0.405,2.479c0,1.099,0.16,2.058,0.48,2.877s0.818,1.432,1.493,1.837
			c0.676,0.404,1.407,0.607,2.194,0.607c0.957,0,1.768-0.276,2.431-0.828C10.737,84.905,11.187,84.086,11.422,82.999z"/>
		<path fill="#000101" d="M14.476,87.527V74.612h1.586v12.915H14.476z"/>
		<path fill="#000101" d="M18.005,76.436v-1.823h1.586v1.823H18.005z M18.005,87.527v-9.356h1.586v9.356H18.005z"/>
		<path fill="#000101" d="M27.588,84.101l1.559,0.202c-0.17,1.075-0.606,1.916-1.308,2.524c-0.702,0.607-1.563,0.912-2.586,0.912
			c-1.28,0-2.31-0.419-3.088-1.256s-1.167-2.036-1.167-3.599c0-1.011,0.167-1.895,0.502-2.652s0.844-1.325,1.528-1.704
			s1.429-0.568,2.233-0.568c1.016,0,1.847,0.257,2.493,0.771c0.646,0.515,1.061,1.244,1.242,2.189l-1.542,0.238
			c-0.146-0.629-0.406-1.102-0.779-1.419s-0.824-0.476-1.353-0.476c-0.799,0-1.447,0.286-1.947,0.859
			c-0.499,0.572-0.748,1.479-0.748,2.718c0,1.257,0.24,2.17,0.722,2.739c0.481,0.57,1.11,0.854,1.886,0.854
			c0.622,0,1.143-0.19,1.56-0.572S27.476,84.894,27.588,84.101z"/>
		<path fill="#000101" d="M33.835,84.734l1.568-0.246c0.088,0.628,0.333,1.109,0.735,1.444s0.965,0.502,1.688,0.502
			c0.729,0,1.269-0.147,1.621-0.444s0.528-0.645,0.528-1.044c0-0.358-0.155-0.641-0.467-0.846c-0.217-0.142-0.758-0.32-1.621-0.538
			c-1.163-0.293-1.969-0.547-2.418-0.762c-0.449-0.214-0.79-0.511-1.022-0.89c-0.231-0.379-0.348-0.798-0.348-1.256
			c0-0.417,0.096-0.803,0.286-1.158c0.191-0.355,0.451-0.65,0.78-0.886c0.246-0.182,0.582-0.336,1.009-0.462
			c0.426-0.126,0.882-0.189,1.369-0.189c0.734,0,1.379,0.105,1.935,0.317c0.555,0.211,0.964,0.497,1.229,0.858
			s0.446,0.845,0.546,1.449l-1.55,0.212c-0.071-0.481-0.275-0.857-0.612-1.128c-0.338-0.271-0.815-0.405-1.432-0.405
			c-0.729,0-1.248,0.12-1.56,0.361s-0.467,0.522-0.467,0.846c0,0.205,0.064,0.391,0.193,0.555c0.129,0.171,0.332,0.312,0.608,0.423
			c0.158,0.059,0.625,0.194,1.4,0.405c1.122,0.3,1.904,0.545,2.348,0.736c0.443,0.19,0.792,0.468,1.044,0.832
			c0.253,0.364,0.379,0.816,0.379,1.356c0,0.529-0.154,1.026-0.462,1.493c-0.309,0.468-0.754,0.828-1.335,1.084
			c-0.582,0.256-1.239,0.384-1.974,0.384c-1.216,0-2.143-0.253-2.779-0.758C34.418,86.476,34.012,85.728,33.835,84.734z"/>
		<path fill="#000101" d="M42.377,82.85c0-1.732,0.482-3.017,1.445-3.851c0.805-0.692,1.785-1.039,2.942-1.039
			c1.286,0,2.338,0.421,3.154,1.264s1.225,2.008,1.225,3.493c0,1.204-0.181,2.151-0.542,2.842c-0.361,0.689-0.887,1.226-1.577,1.607
			s-1.443,0.573-2.26,0.573c-1.31,0-2.368-0.42-3.176-1.261C42.781,85.639,42.377,84.43,42.377,82.85z M44.007,82.85
			c0,1.198,0.262,2.095,0.784,2.691c0.523,0.596,1.181,0.894,1.974,0.894c0.787,0,1.441-0.299,1.965-0.898
			c0.522-0.599,0.784-1.512,0.784-2.739c0-1.157-0.263-2.034-0.789-2.63c-0.525-0.597-1.179-0.895-1.96-0.895
			c-0.793,0-1.45,0.297-1.974,0.89C44.269,80.756,44.007,81.651,44.007,82.85z"/>
		<path fill="#000101" d="M53.94,87.527H52.47V74.612h1.586v4.607c0.669-0.84,1.523-1.26,2.563-1.26c0.575,0,1.12,0.116,1.634,0.348
			c0.515,0.232,0.938,0.559,1.269,0.979c0.332,0.42,0.592,0.926,0.78,1.52c0.188,0.593,0.282,1.228,0.282,1.902
			c0,1.604-0.396,2.843-1.189,3.718c-0.793,0.876-1.745,1.313-2.854,1.313c-1.104,0-1.971-0.462-2.6-1.384V87.527z M53.923,82.778
			c0,1.122,0.153,1.933,0.458,2.432c0.5,0.816,1.175,1.225,2.026,1.225c0.693,0,1.292-0.301,1.798-0.902
			c0.505-0.603,0.758-1.499,0.758-2.691c0-1.222-0.242-2.124-0.728-2.705c-0.484-0.581-1.07-0.872-1.757-0.872
			c-0.693,0-1.293,0.301-1.798,0.903C54.176,80.769,53.923,81.64,53.923,82.778z"/>
		<path fill="#000101" d="M61.973,87.527v-9.356h1.427v1.419c0.364-0.664,0.7-1.102,1.009-1.313
			c0.309-0.212,0.647-0.317,1.018-0.317c0.534,0,1.078,0.17,1.63,0.511l-0.546,1.472c-0.388-0.229-0.775-0.344-1.163-0.344
			c-0.347,0-0.658,0.104-0.934,0.313c-0.276,0.209-0.473,0.498-0.591,0.868c-0.176,0.563-0.264,1.181-0.264,1.85v4.898H61.973z"/>
		<path fill="#000101" d="M73.88,84.515l1.639,0.202c-0.258,0.958-0.736,1.7-1.436,2.229c-0.699,0.528-1.592,0.793-2.679,0.793
			c-1.368,0-2.453-0.422-3.255-1.265s-1.202-2.024-1.202-3.546c0-1.574,0.405-2.796,1.216-3.665s1.861-1.304,3.153-1.304
			c1.251,0,2.273,0.426,3.066,1.277s1.189,2.05,1.189,3.595c0,0.094-0.004,0.234-0.01,0.423h-6.977
			c0.059,1.027,0.349,1.814,0.872,2.36c0.522,0.547,1.174,0.819,1.955,0.819c0.582,0,1.078-0.152,1.489-0.458
			C73.313,85.672,73.64,85.184,73.88,84.515z M68.674,81.95h5.224c-0.07-0.786-0.27-1.377-0.599-1.771
			c-0.505-0.61-1.16-0.916-1.965-0.916c-0.729,0-1.341,0.244-1.837,0.731S68.727,81.135,68.674,81.95z"/>
		<path fill="#000101" d="M87.581,84.101l1.559,0.202c-0.17,1.075-0.606,1.916-1.308,2.524c-0.702,0.607-1.563,0.912-2.586,0.912
			c-1.28,0-2.31-0.419-3.088-1.256s-1.167-2.036-1.167-3.599c0-1.011,0.167-1.895,0.502-2.652s0.844-1.325,1.528-1.704
			s1.429-0.568,2.233-0.568c1.016,0,1.847,0.257,2.493,0.771c0.646,0.515,1.061,1.244,1.242,2.189l-1.542,0.238
			c-0.146-0.629-0.406-1.102-0.779-1.419s-0.824-0.476-1.353-0.476c-0.799,0-1.447,0.286-1.947,0.859
			c-0.499,0.572-0.748,1.479-0.748,2.718c0,1.257,0.24,2.17,0.722,2.739c0.481,0.57,1.11,0.854,1.886,0.854
			c0.622,0,1.143-0.19,1.56-0.572S87.469,84.894,87.581,84.101z"/>
		<path fill="#000101" d="M96.079,86.373c-0.588,0.499-1.153,0.852-1.696,1.058c-0.543,0.205-1.126,0.309-1.749,0.309
			c-1.027,0-1.817-0.252-2.369-0.754c-0.553-0.502-0.828-1.144-0.828-1.925c0-0.458,0.104-0.877,0.313-1.256
			c0.208-0.378,0.481-0.683,0.819-0.911c0.338-0.229,0.718-0.402,1.141-0.52c0.312-0.083,0.781-0.162,1.41-0.238
			c1.28-0.152,2.223-0.335,2.827-0.546c0.006-0.218,0.009-0.355,0.009-0.414c0-0.646-0.149-1.102-0.449-1.366
			c-0.405-0.357-1.007-0.537-1.806-0.537c-0.746,0-1.297,0.131-1.652,0.392c-0.355,0.262-0.618,0.725-0.788,1.388l-1.551-0.211
			c0.142-0.664,0.373-1.2,0.696-1.608s0.79-0.722,1.4-0.942c0.611-0.22,1.318-0.33,2.123-0.33c0.799,0,1.448,0.094,1.947,0.281
			c0.499,0.188,0.866,0.425,1.102,0.71c0.234,0.284,0.399,0.645,0.493,1.079c0.053,0.271,0.079,0.758,0.079,1.462v2.114
			c0,1.475,0.034,2.407,0.102,2.798s0.201,0.765,0.4,1.123h-1.656C96.231,87.198,96.126,86.814,96.079,86.373z M95.946,82.832
			c-0.575,0.234-1.438,0.435-2.59,0.599c-0.651,0.094-1.113,0.2-1.383,0.317c-0.271,0.117-0.479,0.289-0.626,0.516
			c-0.146,0.226-0.22,0.477-0.22,0.753c0,0.423,0.159,0.775,0.479,1.057c0.32,0.282,0.789,0.424,1.405,0.424
			c0.611,0,1.154-0.134,1.63-0.401s0.825-0.633,1.049-1.097c0.17-0.358,0.255-0.887,0.255-1.586V82.832z"/>
		<path fill="#000101" d="M105.556,87.527v-1.181c-0.594,0.928-1.466,1.393-2.617,1.393c-0.746,0-1.432-0.206-2.057-0.617
			c-0.626-0.411-1.11-0.985-1.454-1.723c-0.344-0.736-0.516-1.584-0.516-2.541c0-0.935,0.156-1.781,0.468-2.542
			c0.311-0.761,0.777-1.344,1.4-1.749c0.622-0.405,1.318-0.607,2.088-0.607c0.563,0,1.066,0.119,1.507,0.356
			c0.44,0.238,0.799,0.548,1.074,0.93v-4.634h1.577v12.915H105.556z M100.542,82.858c0,1.198,0.253,2.094,0.758,2.687
			c0.505,0.594,1.102,0.89,1.789,0.89c0.692,0,1.281-0.283,1.766-0.85c0.485-0.567,0.728-1.432,0.728-2.595
			c0-1.28-0.247-2.22-0.74-2.819c-0.493-0.599-1.102-0.898-1.824-0.898c-0.704,0-1.293,0.288-1.766,0.863
			C100.778,80.712,100.542,81.619,100.542,82.858z"/>
		<path fill="#000101" d="M115.102,86.373c-0.588,0.499-1.153,0.852-1.696,1.058c-0.543,0.205-1.126,0.309-1.749,0.309
			c-1.027,0-1.817-0.252-2.369-0.754c-0.553-0.502-0.828-1.144-0.828-1.925c0-0.458,0.104-0.877,0.313-1.256
			c0.208-0.378,0.481-0.683,0.819-0.911c0.338-0.229,0.718-0.402,1.141-0.52c0.312-0.083,0.781-0.162,1.41-0.238
			c1.28-0.152,2.223-0.335,2.827-0.546c0.006-0.218,0.009-0.355,0.009-0.414c0-0.646-0.149-1.102-0.449-1.366
			c-0.405-0.357-1.007-0.537-1.806-0.537c-0.746,0-1.297,0.131-1.652,0.392c-0.355,0.262-0.618,0.725-0.788,1.388l-1.551-0.211
			c0.142-0.664,0.373-1.2,0.696-1.608s0.79-0.722,1.4-0.942c0.611-0.22,1.318-0.33,2.123-0.33c0.799,0,1.448,0.094,1.947,0.281
			c0.499,0.188,0.866,0.425,1.102,0.71c0.234,0.284,0.399,0.645,0.493,1.079c0.053,0.271,0.079,0.758,0.079,1.462v2.114
			c0,1.475,0.034,2.407,0.102,2.798s0.201,0.765,0.4,1.123h-1.656C115.254,87.198,115.148,86.814,115.102,86.373z M114.969,82.832
			c-0.575,0.234-1.438,0.435-2.59,0.599c-0.651,0.094-1.113,0.2-1.383,0.317c-0.271,0.117-0.479,0.289-0.626,0.516
			c-0.146,0.226-0.22,0.477-0.22,0.753c0,0.423,0.159,0.775,0.479,1.057c0.32,0.282,0.789,0.424,1.405,0.424
			c0.611,0,1.154-0.134,1.63-0.401s0.825-0.633,1.049-1.097c0.17-0.358,0.255-0.887,0.255-1.586V82.832z"/>
		<path fill="#000101" d="M124.458,87.527h-1.471V74.612h1.586v4.607c0.669-0.84,1.523-1.26,2.563-1.26
			c0.575,0,1.12,0.116,1.634,0.348c0.515,0.232,0.938,0.559,1.269,0.979c0.332,0.42,0.592,0.926,0.78,1.52
			c0.188,0.593,0.282,1.228,0.282,1.902c0,1.604-0.396,2.843-1.189,3.718c-0.793,0.876-1.745,1.313-2.854,1.313
			c-1.104,0-1.971-0.462-2.6-1.384V87.527z M124.44,82.778c0,1.122,0.153,1.933,0.458,2.432c0.5,0.816,1.175,1.225,2.026,1.225
			c0.693,0,1.292-0.301,1.798-0.902c0.505-0.603,0.758-1.499,0.758-2.691c0-1.222-0.242-2.124-0.728-2.705
			c-0.484-0.581-1.07-0.872-1.757-0.872c-0.693,0-1.293,0.301-1.798,0.903C124.693,80.769,124.44,81.64,124.44,82.778z"/>
		<path fill="#000101" d="M131.916,82.85c0-1.732,0.482-3.017,1.445-3.851c0.805-0.692,1.785-1.039,2.942-1.039
			c1.286,0,2.338,0.421,3.154,1.264s1.225,2.008,1.225,3.493c0,1.204-0.181,2.151-0.542,2.842c-0.361,0.689-0.887,1.226-1.577,1.607
			s-1.443,0.573-2.26,0.573c-1.31,0-2.368-0.42-3.176-1.261C132.32,85.639,131.916,84.43,131.916,82.85z M133.546,82.85
			c0,1.198,0.262,2.095,0.784,2.691c0.523,0.596,1.181,0.894,1.974,0.894c0.787,0,1.441-0.299,1.965-0.898
			c0.522-0.599,0.784-1.512,0.784-2.739c0-1.157-0.263-2.034-0.789-2.63c-0.525-0.597-1.179-0.895-1.96-0.895
			c-0.793,0-1.45,0.297-1.974,0.89C133.808,80.756,133.546,81.651,133.546,82.85z"/>
		<path fill="#000101" d="M145.48,86.109l0.229,1.4c-0.446,0.094-0.846,0.141-1.198,0.141c-0.576,0-1.022-0.091-1.339-0.272
			c-0.317-0.183-0.541-0.422-0.67-0.719c-0.129-0.296-0.193-0.92-0.193-1.872v-5.383h-1.163v-1.233h1.163v-2.316l1.576-0.952v3.269
			h1.595v1.233h-1.595v5.472c0,0.452,0.028,0.742,0.084,0.872c0.056,0.129,0.146,0.231,0.273,0.308
			c0.126,0.077,0.307,0.115,0.542,0.115C144.961,86.171,145.193,86.15,145.48,86.109z"/>
		<path fill="#000101" d="M145.917,82.85c0-1.732,0.482-3.017,1.445-3.851c0.805-0.692,1.785-1.039,2.942-1.039
			c1.286,0,2.338,0.421,3.154,1.264s1.225,2.008,1.225,3.493c0,1.204-0.181,2.151-0.542,2.842c-0.361,0.689-0.887,1.226-1.577,1.607
			s-1.443,0.573-2.26,0.573c-1.31,0-2.368-0.42-3.176-1.261C146.321,85.639,145.917,84.43,145.917,82.85z M147.547,82.85
			c0,1.198,0.262,2.095,0.784,2.691c0.523,0.596,1.181,0.894,1.974,0.894c0.787,0,1.441-0.299,1.965-0.898
			c0.522-0.599,0.784-1.512,0.784-2.739c0-1.157-0.263-2.034-0.789-2.63c-0.525-0.597-1.179-0.895-1.96-0.895
			c-0.793,0-1.45,0.297-1.974,0.89C147.809,80.756,147.547,81.651,147.547,82.85z M149.424,77.009l1.172-2.467h2.079l-1.938,2.467
			H149.424z"/>
		<path fill="#000101" d="M156.019,87.527v-9.356h1.427v1.331c0.688-1.028,1.68-1.542,2.979-1.542c0.563,0,1.082,0.102,1.555,0.304
			c0.473,0.203,0.826,0.469,1.062,0.797c0.234,0.329,0.399,0.72,0.493,1.172c0.059,0.294,0.088,0.808,0.088,1.542v5.753h-1.586
			v-5.691c0-0.646-0.062-1.129-0.185-1.449s-0.342-0.575-0.656-0.767c-0.314-0.19-0.683-0.286-1.105-0.286
			c-0.676,0-1.259,0.215-1.749,0.644s-0.735,1.242-0.735,2.44v5.109H156.019z"/>
		<path fill="#000101" d="M0,112.765V99.822h1.444v1.216c0.341-0.476,0.726-0.832,1.154-1.07c0.429-0.237,0.948-0.356,1.56-0.356
			c0.799,0,1.504,0.205,2.114,0.616c0.611,0.411,1.072,0.991,1.383,1.74c0.312,0.749,0.468,1.569,0.468,2.462
			c0,0.958-0.172,1.819-0.516,2.586s-0.843,1.354-1.498,1.763c-0.654,0.407-1.344,0.612-2.065,0.612
			c-0.529,0-1.003-0.112-1.423-0.335c-0.42-0.224-0.766-0.505-1.035-0.846v4.555H0z M1.436,104.554c0,1.204,0.244,2.094,0.731,2.669
			c0.487,0.576,1.078,0.863,1.771,0.863c0.705,0,1.309-0.298,1.811-0.894c0.503-0.597,0.754-1.52,0.754-2.771
			c0-1.191-0.246-2.084-0.736-2.678c-0.49-0.593-1.076-0.89-1.757-0.89c-0.676,0-1.273,0.315-1.793,0.947
			C1.695,102.432,1.436,103.35,1.436,104.554z"/>
		<path fill="#000101" d="M15.616,108.024c-0.588,0.499-1.153,0.852-1.696,1.058c-0.543,0.205-1.126,0.309-1.749,0.309
			c-1.027,0-1.817-0.252-2.369-0.754c-0.553-0.502-0.828-1.144-0.828-1.925c0-0.458,0.104-0.877,0.313-1.256
			c0.208-0.378,0.481-0.683,0.819-0.911c0.338-0.229,0.718-0.402,1.141-0.52c0.312-0.083,0.781-0.162,1.41-0.238
			c1.28-0.152,2.223-0.335,2.827-0.546c0.006-0.218,0.009-0.355,0.009-0.414c0-0.646-0.149-1.102-0.449-1.366
			c-0.405-0.357-1.007-0.537-1.806-0.537c-0.746,0-1.297,0.131-1.652,0.392c-0.355,0.262-0.618,0.725-0.788,1.388l-1.551-0.211
			c0.142-0.664,0.373-1.2,0.696-1.608s0.79-0.722,1.4-0.942c0.611-0.22,1.318-0.33,2.123-0.33c0.799,0,1.448,0.094,1.947,0.281
			c0.499,0.188,0.866,0.425,1.102,0.71c0.234,0.284,0.399,0.645,0.493,1.079c0.053,0.271,0.079,0.758,0.079,1.462v2.114
			c0,1.475,0.034,2.407,0.102,2.798s0.201,0.765,0.4,1.123h-1.656C15.769,108.85,15.663,108.465,15.616,108.024z M15.483,104.483
			c-0.575,0.234-1.438,0.435-2.59,0.599c-0.651,0.094-1.113,0.2-1.383,0.317c-0.271,0.117-0.479,0.289-0.626,0.516
			c-0.146,0.226-0.22,0.477-0.22,0.753c0,0.423,0.159,0.775,0.479,1.057c0.32,0.282,0.789,0.424,1.405,0.424
			c0.611,0,1.154-0.134,1.63-0.401s0.825-0.633,1.049-1.097c0.17-0.358,0.255-0.887,0.255-1.586V104.483z"/>
		<path fill="#000101" d="M19.004,109.179v-9.356h1.427v1.419c0.364-0.664,0.7-1.102,1.009-1.313
			c0.309-0.212,0.647-0.317,1.018-0.317c0.534,0,1.078,0.17,1.63,0.511l-0.546,1.472c-0.388-0.229-0.775-0.344-1.163-0.344
			c-0.347,0-0.658,0.104-0.934,0.313c-0.276,0.209-0.473,0.498-0.591,0.868c-0.176,0.563-0.264,1.181-0.264,1.85v4.898H19.004z"/>
		<path fill="#000101" d="M30.613,108.024c-0.588,0.499-1.153,0.852-1.696,1.058c-0.543,0.205-1.126,0.309-1.749,0.309
			c-1.027,0-1.817-0.252-2.369-0.754c-0.553-0.502-0.828-1.144-0.828-1.925c0-0.458,0.104-0.877,0.313-1.256
			c0.208-0.378,0.481-0.683,0.819-0.911c0.338-0.229,0.718-0.402,1.141-0.52c0.312-0.083,0.781-0.162,1.41-0.238
			c1.28-0.152,2.223-0.335,2.827-0.546c0.006-0.218,0.009-0.355,0.009-0.414c0-0.646-0.149-1.102-0.449-1.366
			c-0.405-0.357-1.007-0.537-1.806-0.537c-0.746,0-1.297,0.131-1.652,0.392c-0.355,0.262-0.618,0.725-0.788,1.388l-1.551-0.211
			c0.142-0.664,0.373-1.2,0.696-1.608s0.79-0.722,1.4-0.942c0.611-0.22,1.318-0.33,2.123-0.33c0.799,0,1.448,0.094,1.947,0.281
			c0.499,0.188,0.866,0.425,1.102,0.71c0.234,0.284,0.399,0.645,0.493,1.079c0.053,0.271,0.079,0.758,0.079,1.462v2.114
			c0,1.475,0.034,2.407,0.102,2.798s0.201,0.765,0.4,1.123H30.93C30.766,108.85,30.66,108.465,30.613,108.024z M30.48,104.483
			c-0.575,0.234-1.438,0.435-2.59,0.599c-0.651,0.094-1.113,0.2-1.383,0.317c-0.271,0.117-0.479,0.289-0.626,0.516
			c-0.146,0.226-0.22,0.477-0.22,0.753c0,0.423,0.159,0.775,0.479,1.057c0.32,0.282,0.789,0.424,1.405,0.424
			c0.611,0,1.154-0.134,1.63-0.401s0.825-0.633,1.049-1.097c0.17-0.358,0.255-0.887,0.255-1.586V104.483z"/>
		<path fill="#000101" d="M41.106,109.179l-3.559-9.356h1.674l2.008,5.604c0.218,0.604,0.417,1.233,0.6,1.885
			c0.141-0.493,0.338-1.086,0.59-1.779l2.079-5.709h1.63l-3.541,9.356H41.106z"/>
		<path fill="#000101" d="M53.41,106.166l1.639,0.202c-0.258,0.958-0.736,1.7-1.436,2.229c-0.699,0.528-1.592,0.793-2.679,0.793
			c-1.368,0-2.453-0.422-3.255-1.265s-1.202-2.024-1.202-3.546c0-1.574,0.405-2.796,1.216-3.665s1.861-1.304,3.153-1.304
			c1.251,0,2.273,0.426,3.066,1.277s1.189,2.05,1.189,3.595c0,0.094-0.004,0.234-0.01,0.423h-6.977
			c0.059,1.027,0.349,1.814,0.872,2.36c0.522,0.547,1.174,0.819,1.955,0.819c0.582,0,1.078-0.152,1.489-0.458
			C52.844,107.323,53.17,106.835,53.41,106.166z M48.204,103.602h5.224c-0.07-0.786-0.27-1.377-0.599-1.771
			c-0.505-0.61-1.16-0.916-1.965-0.916c-0.729,0-1.341,0.244-1.837,0.731S48.257,102.786,48.204,103.602z"/>
		<path fill="#000101" d="M56.499,109.179v-9.356h1.427v1.419c0.364-0.664,0.7-1.102,1.009-1.313
			c0.309-0.212,0.647-0.317,1.018-0.317c0.534,0,1.078,0.17,1.63,0.511l-0.546,1.472c-0.388-0.229-0.775-0.344-1.163-0.344
			c-0.347,0-0.658,0.104-0.934,0.313c-0.276,0.209-0.473,0.498-0.591,0.868c-0.176,0.563-0.264,1.181-0.264,1.85v4.898H56.499z"/>
		<path fill="#000101" d="M72.598,105.752l1.559,0.202c-0.17,1.075-0.606,1.916-1.308,2.524c-0.702,0.607-1.563,0.912-2.586,0.912
			c-1.28,0-2.31-0.419-3.088-1.256s-1.167-2.036-1.167-3.599c0-1.011,0.167-1.895,0.502-2.652s0.844-1.325,1.528-1.704
			s1.429-0.568,2.233-0.568c1.016,0,1.847,0.257,2.493,0.771c0.646,0.515,1.061,1.244,1.242,2.189l-1.542,0.238
			c-0.146-0.629-0.406-1.102-0.779-1.419s-0.824-0.476-1.353-0.476c-0.799,0-1.447,0.286-1.947,0.859
			c-0.499,0.572-0.748,1.479-0.748,2.718c0,1.257,0.24,2.17,0.722,2.739c0.481,0.57,1.11,0.854,1.886,0.854
			c0.622,0,1.143-0.19,1.56-0.572S72.485,106.545,72.598,105.752z"/>
		<path fill="#000101" d="M81.096,108.024c-0.588,0.499-1.153,0.852-1.696,1.058c-0.543,0.205-1.126,0.309-1.749,0.309
			c-1.027,0-1.817-0.252-2.369-0.754c-0.553-0.502-0.828-1.144-0.828-1.925c0-0.458,0.104-0.877,0.313-1.256
			c0.208-0.378,0.481-0.683,0.819-0.911c0.338-0.229,0.718-0.402,1.141-0.52c0.312-0.083,0.781-0.162,1.41-0.238
			c1.28-0.152,2.223-0.335,2.827-0.546c0.006-0.218,0.009-0.355,0.009-0.414c0-0.646-0.149-1.102-0.449-1.366
			c-0.405-0.357-1.007-0.537-1.806-0.537c-0.746,0-1.297,0.131-1.652,0.392c-0.355,0.262-0.618,0.725-0.788,1.388l-1.551-0.211
			c0.142-0.664,0.373-1.2,0.696-1.608s0.79-0.722,1.4-0.942c0.611-0.22,1.318-0.33,2.123-0.33c0.799,0,1.448,0.094,1.947,0.281
			c0.499,0.188,0.866,0.425,1.102,0.71c0.234,0.284,0.399,0.645,0.493,1.079c0.053,0.271,0.079,0.758,0.079,1.462v2.114
			c0,1.475,0.034,2.407,0.102,2.798s0.201,0.765,0.4,1.123h-1.656C81.248,108.85,81.143,108.465,81.096,108.024z M80.963,104.483
			c-0.575,0.234-1.438,0.435-2.59,0.599c-0.651,0.094-1.113,0.2-1.383,0.317c-0.271,0.117-0.479,0.289-0.626,0.516
			c-0.146,0.226-0.22,0.477-0.22,0.753c0,0.423,0.159,0.775,0.479,1.057c0.32,0.282,0.789,0.424,1.405,0.424
			c0.611,0,1.154-0.134,1.63-0.401s0.825-0.633,1.049-1.097c0.17-0.358,0.255-0.887,0.255-1.586V104.483z"/>
		<path fill="#000101" d="M90.571,109.179v-1.181c-0.594,0.928-1.466,1.393-2.617,1.393c-0.746,0-1.432-0.206-2.057-0.617
			c-0.626-0.411-1.11-0.985-1.454-1.723c-0.344-0.736-0.516-1.584-0.516-2.541c0-0.935,0.156-1.781,0.468-2.542
			c0.311-0.761,0.777-1.344,1.4-1.749c0.622-0.405,1.318-0.607,2.088-0.607c0.563,0,1.066,0.119,1.507,0.356
			c0.44,0.238,0.799,0.548,1.074,0.93v-4.634h1.577v12.915H90.571z M85.558,104.51c0,1.198,0.253,2.094,0.758,2.687
			c0.505,0.594,1.102,0.89,1.789,0.89c0.692,0,1.281-0.283,1.766-0.85c0.485-0.567,0.728-1.432,0.728-2.595
			c0-1.28-0.247-2.22-0.74-2.819c-0.493-0.599-1.102-0.898-1.824-0.898c-0.704,0-1.293,0.288-1.766,0.863
			C85.794,102.363,85.558,103.271,85.558,104.51z"/>
		<path fill="#000101" d="M100.117,108.024c-0.588,0.499-1.153,0.852-1.696,1.058c-0.543,0.205-1.126,0.309-1.749,0.309
			c-1.027,0-1.817-0.252-2.369-0.754c-0.553-0.502-0.828-1.144-0.828-1.925c0-0.458,0.104-0.877,0.313-1.256
			c0.208-0.378,0.481-0.683,0.819-0.911c0.338-0.229,0.718-0.402,1.141-0.52c0.312-0.083,0.781-0.162,1.41-0.238
			c1.28-0.152,2.223-0.335,2.827-0.546c0.006-0.218,0.009-0.355,0.009-0.414c0-0.646-0.149-1.102-0.449-1.366
			c-0.405-0.357-1.007-0.537-1.806-0.537c-0.746,0-1.297,0.131-1.652,0.392c-0.355,0.262-0.618,0.725-0.788,1.388l-1.551-0.211
			c0.142-0.664,0.373-1.2,0.696-1.608s0.79-0.722,1.4-0.942c0.611-0.22,1.318-0.33,2.123-0.33c0.799,0,1.448,0.094,1.947,0.281
			c0.499,0.188,0.866,0.425,1.102,0.71c0.234,0.284,0.399,0.645,0.493,1.079c0.053,0.271,0.079,0.758,0.079,1.462v2.114
			c0,1.475,0.034,2.407,0.102,2.798s0.201,0.765,0.4,1.123h-1.656C100.27,108.85,100.164,108.465,100.117,108.024z M99.984,104.483
			c-0.575,0.234-1.438,0.435-2.59,0.599c-0.651,0.094-1.113,0.2-1.383,0.317c-0.271,0.117-0.479,0.289-0.626,0.516
			c-0.146,0.226-0.22,0.477-0.22,0.753c0,0.423,0.159,0.775,0.479,1.057c0.32,0.282,0.789,0.424,1.405,0.424
			c0.611,0,1.154-0.134,1.63-0.401s0.825-0.633,1.049-1.097c0.17-0.358,0.255-0.887,0.255-1.586V104.483z"/>
		<path fill="#000101" d="M114.417,106.166l1.639,0.202c-0.258,0.958-0.736,1.7-1.436,2.229c-0.699,0.528-1.592,0.793-2.679,0.793
			c-1.368,0-2.453-0.422-3.255-1.265s-1.202-2.024-1.202-3.546c0-1.574,0.405-2.796,1.216-3.665s1.861-1.304,3.153-1.304
			c1.251,0,2.273,0.426,3.066,1.277s1.189,2.05,1.189,3.595c0,0.094-0.004,0.234-0.01,0.423h-6.977
			c0.059,1.027,0.349,1.814,0.872,2.36c0.522,0.547,1.174,0.819,1.955,0.819c0.582,0,1.078-0.152,1.489-0.458
			C113.851,107.323,114.177,106.835,114.417,106.166z M109.211,103.602h5.224c-0.07-0.786-0.27-1.377-0.599-1.771
			c-0.505-0.61-1.16-0.916-1.965-0.916c-0.729,0-1.341,0.244-1.837,0.731S109.264,102.786,109.211,103.602z"/>
		<path fill="#000101" d="M115.506,112.809l0.3-1.348c0.316,0.082,0.566,0.123,0.749,0.123c0.322,0,0.563-0.107,0.722-0.321
			c0.159-0.215,0.238-0.751,0.238-1.608v-9.832h1.586v9.867c0,1.151-0.15,1.953-0.449,2.405c-0.382,0.587-1.017,0.881-1.903,0.881
			C116.319,112.976,115.905,112.92,115.506,112.809z M117.515,98.105v-1.841h1.586v1.841H117.515z"/>
		<path fill="#000101" d="M127.413,106.166l1.639,0.202c-0.258,0.958-0.736,1.7-1.436,2.229c-0.699,0.528-1.592,0.793-2.679,0.793
			c-1.368,0-2.453-0.422-3.255-1.265s-1.202-2.024-1.202-3.546c0-1.574,0.405-2.796,1.216-3.665s1.861-1.304,3.153-1.304
			c1.251,0,2.273,0.426,3.066,1.277s1.189,2.05,1.189,3.595c0,0.094-0.004,0.234-0.01,0.423h-6.977
			c0.059,1.027,0.349,1.814,0.872,2.36c0.522,0.547,1.174,0.819,1.955,0.819c0.582,0,1.078-0.152,1.489-0.458
			C126.847,107.323,127.173,106.835,127.413,106.166z M122.207,103.602h5.224c-0.07-0.786-0.27-1.377-0.599-1.771
			c-0.505-0.61-1.16-0.916-1.965-0.916c-0.729,0-1.341,0.244-1.837,0.731S122.26,102.786,122.207,103.602z"/>
		<path fill="#000101" d="M130.52,109.179v-9.356h1.418v1.313c0.294-0.459,0.685-0.827,1.172-1.106
			c0.487-0.278,1.043-0.418,1.665-0.418c0.693,0,1.262,0.144,1.705,0.432s0.756,0.69,0.938,1.207
			c0.739-1.093,1.703-1.639,2.89-1.639c0.928,0,1.642,0.257,2.141,0.771c0.499,0.515,0.749,1.306,0.749,2.374v6.423h-1.577v-5.894
			c0-0.635-0.052-1.091-0.154-1.37s-0.289-0.504-0.56-0.674c-0.271-0.171-0.587-0.256-0.951-0.256c-0.658,0-1.204,0.219-1.639,0.656
			s-0.652,1.139-0.652,2.102v5.436h-1.586V103.1c0-0.704-0.129-1.233-0.388-1.586c-0.258-0.352-0.681-0.528-1.269-0.528
			c-0.446,0-0.858,0.118-1.237,0.353c-0.379,0.235-0.653,0.578-0.824,1.03c-0.17,0.453-0.255,1.104-0.255,1.956v4.854H130.52z"/>
		<path fill="#000101" d="M145.026,112.765V99.822h1.444v1.216c0.341-0.476,0.726-0.832,1.154-1.07
			c0.429-0.237,0.948-0.356,1.56-0.356c0.799,0,1.504,0.205,2.114,0.616c0.611,0.411,1.072,0.991,1.383,1.74
			c0.312,0.749,0.468,1.569,0.468,2.462c0,0.958-0.172,1.819-0.516,2.586s-0.843,1.354-1.498,1.763
			c-0.654,0.407-1.344,0.612-2.065,0.612c-0.529,0-1.003-0.112-1.423-0.335c-0.42-0.224-0.766-0.505-1.035-0.846v4.555H145.026z
			 M146.462,104.554c0,1.204,0.244,2.094,0.731,2.669c0.487,0.576,1.078,0.863,1.771,0.863c0.705,0,1.309-0.298,1.811-0.894
			c0.503-0.597,0.754-1.52,0.754-2.771c0-1.191-0.246-2.084-0.736-2.678c-0.49-0.593-1.076-0.89-1.757-0.89
			c-0.676,0-1.273,0.315-1.793,0.947C146.722,102.432,146.462,103.35,146.462,104.554z"/>
		<path fill="#000101" d="M154.502,109.179V96.264h1.586v12.915H154.502z"/>
		<path fill="#000101" d="M157.432,104.501c0-1.732,0.482-3.017,1.445-3.851c0.805-0.692,1.785-1.039,2.942-1.039
			c1.286,0,2.338,0.421,3.154,1.264s1.225,2.008,1.225,3.493c0,1.204-0.181,2.151-0.542,2.842c-0.361,0.689-0.887,1.226-1.577,1.607
			s-1.443,0.573-2.26,0.573c-1.31,0-2.368-0.42-3.176-1.261C157.836,107.29,157.432,106.081,157.432,104.501z M159.062,104.501
			c0,1.198,0.262,2.095,0.784,2.691c0.523,0.596,1.181,0.894,1.974,0.894c0.787,0,1.441-0.299,1.965-0.898
			c0.522-0.599,0.784-1.512,0.784-2.739c0-1.157-0.263-2.034-0.789-2.63c-0.525-0.597-1.179-0.895-1.96-0.895
			c-0.793,0-1.45,0.297-1.974,0.89C159.323,102.407,159.062,103.303,159.062,104.501z"/>
	</g>
</g>
</svg>