<!-- Generator: Adobe Illustrator 17.0.0, SVG Export Plug-In  -->
<svg version="1.1"
	 xmlns="http://www.w3.org/2000/svg" xmlns:xlink="http://www.w3.org/1999/xlink" xmlns:a="http://ns.adobe.com/AdobeSVGViewerExtensions/3.0/"
	 x="0px" y="0px" width="161.908px" height="112.765px" viewBox="0 0 161.908 112.765" enable-background="new 0 0 161.908 112.765"
	 xml:space="preserve">
<defs>
</defs>
<g>
	<g>
		<path fill="#FFCC04" d="M79.126,19.521c-2.654,0-5.119,1.186-6.768,3.26c-2.961,3.726-2.341,9.174,1.39,12.129
			c1.541,1.23,3.399,1.878,5.364,1.878c2.655,0,5.118-1.188,6.766-3.263c2.96-3.726,2.341-9.171-1.386-12.129
			C82.949,20.168,81.093,19.521,79.126,19.521"/>
		<path fill="#154A8C" d="M79.112,56.307c-6.329,0-12.549-2.172-17.504-6.112c-12.154-9.655-14.187-27.399-4.534-39.552
			C62.451,3.879,70.486,0,79.126,0c6.33,0,12.545,2.173,17.504,6.113c5.888,4.678,9.601,11.365,10.456,18.838
			c0.409,3.559,0.148,7.089-0.766,10.506c-0.569,2.127-1.397,4.193-2.455,6.133c-0.491,0.895-1.611,1.225-2.508,0.736
			c-0.899-0.487-1.226-1.609-0.74-2.506c0.918-1.686,1.64-3.474,2.134-5.32c0.797-2.967,1.018-6.035,0.665-9.128
			c-0.741-6.489-3.97-12.306-9.084-16.366c-4.313-3.424-9.71-5.308-15.206-5.308c-7.509,0-14.491,3.368-19.157,9.241
			c-8.389,10.557-6.623,25.973,3.937,34.36c4.311,3.428,9.712,5.31,15.207,5.31c1.021,0,1.845,0.829,1.845,1.85
			C80.957,55.479,80.133,56.307,79.112,56.307"/>
		<path fill="#154A8C" d="M79.112,47.992c-4.46,0-8.837-1.529-12.334-4.307c-8.562-6.804-9.993-19.311-3.189-27.872
			c3.783-4.764,9.445-7.497,15.536-7.497c4.457,0,8.843,1.529,12.332,4.303c4.148,3.298,6.77,8.012,7.371,13.279
			c0.299,2.631,0.084,5.243-0.641,7.758c-0.286,0.979-1.309,1.543-2.288,1.262c-0.984-0.284-1.544-1.308-1.263-2.283
			c0.588-2.049,0.761-4.172,0.519-6.319c-0.492-4.283-2.619-8.116-5.994-10.802c-2.845-2.26-6.407-3.502-10.036-3.502
			c-4.955,0-9.567,2.223-12.647,6.101c-5.535,6.968-4.37,17.14,2.598,22.679c2.843,2.263,6.405,3.505,10.035,3.505
			c1.021,0,1.845,0.827,1.845,1.848C80.957,47.161,80.133,47.992,79.112,47.992"/>
		<path fill="none" stroke="#FFFFFF" stroke-width="0.115" stroke-miterlimit="10" d="M88.794,28.153
			c0,5.343-4.335,9.674-9.675,9.674c-5.343,0-9.675-4.331-9.675-9.674c0-5.342,4.332-9.675,9.675-9.675
			C84.459,18.479,88.794,22.812,88.794,28.153z"/>
		<path fill="#154A8C" d="M79.112,39.675c-2.588,0-5.131-0.886-7.163-2.501c-4.974-3.949-5.805-11.213-1.852-16.19
			c2.198-2.767,5.49-4.355,9.028-4.355c2.591,0,5.131,0.89,7.159,2.503c4.979,3.953,5.806,11.215,1.854,16.19
			C85.942,38.089,82.65,39.675,79.112,39.675 M79.126,20.325c-2.409,0-4.642,1.077-6.137,2.957c-2.684,3.38-2.12,8.315,1.262,10.998
			c1.397,1.108,3.08,1.701,4.861,1.701c2.404,0,4.64-1.077,6.136-2.958c2.682-3.379,2.119-8.312-1.258-10.999
			C82.589,20.914,80.909,20.325,79.126,20.325"/>
		<g>
			<path fill="#FFFFFF" d="M91.201,61.842c2.62,0,4.745-2.127,4.745-4.749V44.954c0-3.541-2.869-6.406-6.406-6.406l-6.489-0.014
				v-9.493c0-2.002-1.558-3.707-3.564-3.78c-2.096-0.075-3.827,1.607-3.827,3.694v16.582l-0.968-2.02
				c-0.527-1.102-1.524-1.727-2.551-1.727c-0.478,0-0.955,0.133-1.397,0.407c-1.409,0.884-1.929,2.903-1.153,4.514
				c0,0,3.198,7.485,5.484,12.387c0.772,1.674,2.45,2.743,4.298,2.743H91.201z"/>
			<path fill="none" stroke="#000000" stroke-width="1.714" stroke-miterlimit="10" d="M91.201,61.842
				c2.62,0,4.745-2.127,4.745-4.749V44.954c0-3.541-2.869-6.406-6.406-6.406l-6.489-0.014v-9.493c0-2.002-1.558-3.707-3.564-3.78
				c-2.096-0.075-3.827,1.607-3.827,3.694v16.582l-0.968-2.02c-0.527-1.102-1.524-1.727-2.551-1.727
				c-0.478,0-0.955,0.133-1.397,0.407c-1.409,0.884-1.929,2.903-1.153,4.514c0,0,3.198,7.485,5.484,12.387
				c0.772,1.674,2.45,2.743,4.298,2.743H91.201z"/>
		</g>
	</g>
	<g>
		<path d="M9.709,82.999l1.709,0.432c-0.357,1.404-1.002,2.475-1.934,3.211c-0.932,0.737-2.068,1.106-3.414,1.106
			c-1.391,0-2.523-0.284-3.396-0.851c-0.871-0.566-1.535-1.388-1.99-2.462C0.229,83.36,0,82.206,0,80.973
			c0-1.345,0.258-2.518,0.771-3.52c0.514-1.001,1.246-1.762,2.193-2.281c0.949-0.521,1.992-0.78,3.133-0.78
			c1.291,0,2.379,0.329,3.26,0.987c0.881,0.657,1.494,1.582,1.84,2.774L9.516,78.55c-0.299-0.939-0.734-1.624-1.305-2.053
			c-0.568-0.429-1.285-0.643-2.148-0.643c-0.994,0-1.822,0.237-2.49,0.713c-0.666,0.477-1.135,1.115-1.404,1.917
			s-0.406,1.628-0.406,2.479c0,1.099,0.16,2.058,0.48,2.877s0.818,1.432,1.494,1.837c0.676,0.404,1.406,0.607,2.193,0.607
			c0.957,0,1.768-0.276,2.432-0.828S9.475,84.086,9.709,82.999z"/>
		<path d="M12.764,87.527V74.612h1.586v12.915H12.764z"/>
		<path d="M16.293,76.436v-1.823h1.586v1.823H16.293z M16.293,87.527v-9.356h1.586v9.356H16.293z"/>
		<path d="M25.875,84.101l1.559,0.202c-0.17,1.075-0.605,1.916-1.307,2.524c-0.703,0.607-1.564,0.912-2.586,0.912
			c-1.281,0-2.311-0.419-3.088-1.256c-0.779-0.837-1.168-2.036-1.168-3.599c0-1.011,0.168-1.895,0.502-2.652
			c0.336-0.758,0.844-1.325,1.529-1.704c0.684-0.379,1.428-0.568,2.232-0.568c1.016,0,1.848,0.257,2.494,0.771
			c0.646,0.515,1.061,1.244,1.242,2.189l-1.543,0.238c-0.146-0.629-0.406-1.102-0.779-1.419s-0.824-0.476-1.352-0.476
			c-0.799,0-1.447,0.286-1.947,0.859c-0.5,0.572-0.748,1.479-0.748,2.718c0,1.257,0.24,2.17,0.721,2.739
			c0.482,0.57,1.111,0.854,1.887,0.854c0.621,0,1.143-0.19,1.559-0.572C25.5,85.48,25.764,84.894,25.875,84.101z"/>
		<path d="M32.123,84.734l1.568-0.246c0.088,0.628,0.332,1.109,0.734,1.444s0.965,0.502,1.688,0.502c0.729,0,1.27-0.147,1.621-0.444
			c0.354-0.297,0.529-0.645,0.529-1.044c0-0.358-0.156-0.641-0.467-0.846c-0.217-0.142-0.758-0.32-1.621-0.538
			c-1.164-0.293-1.969-0.547-2.418-0.762c-0.449-0.214-0.791-0.511-1.023-0.89c-0.23-0.379-0.348-0.798-0.348-1.256
			c0-0.417,0.096-0.803,0.287-1.158s0.451-0.65,0.779-0.886c0.246-0.182,0.582-0.336,1.01-0.462
			c0.426-0.126,0.881-0.189,1.369-0.189c0.734,0,1.379,0.105,1.934,0.317c0.555,0.211,0.965,0.497,1.229,0.858
			c0.266,0.361,0.447,0.845,0.547,1.449l-1.551,0.212c-0.07-0.481-0.275-0.857-0.611-1.128c-0.338-0.271-0.816-0.405-1.432-0.405
			c-0.729,0-1.248,0.12-1.561,0.361c-0.311,0.241-0.467,0.522-0.467,0.846c0,0.205,0.064,0.391,0.193,0.555
			c0.129,0.171,0.332,0.312,0.609,0.423c0.158,0.059,0.625,0.194,1.4,0.405c1.121,0.3,1.904,0.545,2.348,0.736
			c0.443,0.19,0.791,0.468,1.043,0.832c0.254,0.364,0.379,0.816,0.379,1.356c0,0.529-0.154,1.026-0.461,1.493
			c-0.309,0.468-0.754,0.828-1.336,1.084s-1.238,0.384-1.973,0.384c-1.217,0-2.143-0.253-2.779-0.758
			C32.705,86.476,32.299,85.728,32.123,84.734z"/>
		<path d="M40.664,82.85c0-1.732,0.482-3.017,1.445-3.851c0.805-0.692,1.785-1.039,2.943-1.039c1.285,0,2.338,0.421,3.154,1.264
			s1.225,2.008,1.225,3.493c0,1.204-0.182,2.151-0.543,2.842c-0.361,0.689-0.887,1.226-1.576,1.607
			c-0.691,0.382-1.443,0.573-2.26,0.573c-1.311,0-2.369-0.42-3.176-1.261C41.068,85.639,40.664,84.43,40.664,82.85z M42.295,82.85
			c0,1.198,0.262,2.095,0.783,2.691c0.523,0.596,1.182,0.894,1.975,0.894c0.787,0,1.441-0.299,1.965-0.898
			c0.521-0.599,0.783-1.512,0.783-2.739c0-1.157-0.262-2.034-0.789-2.63c-0.525-0.597-1.178-0.895-1.959-0.895
			c-0.793,0-1.451,0.297-1.975,0.89C42.557,80.756,42.295,81.651,42.295,82.85z"/>
		<path d="M52.229,87.527h-1.471V74.612h1.586v4.607c0.668-0.84,1.523-1.26,2.563-1.26c0.576,0,1.121,0.116,1.635,0.348
			c0.514,0.232,0.938,0.559,1.268,0.979c0.332,0.42,0.592,0.926,0.781,1.52c0.188,0.593,0.281,1.228,0.281,1.902
			c0,1.604-0.396,2.843-1.189,3.718c-0.793,0.876-1.744,1.313-2.854,1.313c-1.105,0-1.971-0.462-2.6-1.384V87.527z M52.211,82.778
			c0,1.122,0.152,1.933,0.457,2.432c0.5,0.816,1.176,1.225,2.027,1.225c0.693,0,1.291-0.301,1.797-0.902
			c0.506-0.603,0.758-1.499,0.758-2.691c0-1.222-0.242-2.124-0.727-2.705s-1.07-0.872-1.758-0.872c-0.693,0-1.293,0.301-1.797,0.903
			C52.463,80.769,52.211,81.64,52.211,82.778z"/>
		<path d="M60.26,87.527v-9.356h1.428v1.419c0.363-0.664,0.699-1.102,1.008-1.313c0.309-0.212,0.648-0.317,1.018-0.317
			c0.535,0,1.078,0.17,1.631,0.511l-0.547,1.472c-0.387-0.229-0.775-0.344-1.162-0.344c-0.348,0-0.658,0.104-0.934,0.313
			c-0.277,0.209-0.473,0.498-0.592,0.868c-0.176,0.563-0.264,1.181-0.264,1.85v4.898H60.26z"/>
		<path d="M72.168,84.515l1.639,0.202c-0.258,0.958-0.736,1.7-1.436,2.229c-0.699,0.528-1.592,0.793-2.68,0.793
			c-1.367,0-2.453-0.422-3.254-1.265c-0.803-0.843-1.203-2.024-1.203-3.546c0-1.574,0.406-2.796,1.217-3.665
			s1.861-1.304,3.152-1.304c1.252,0,2.273,0.426,3.066,1.277s1.189,2.05,1.189,3.595c0,0.094-0.004,0.234-0.01,0.423h-6.977
			c0.059,1.027,0.35,1.814,0.873,2.36c0.521,0.547,1.174,0.819,1.955,0.819c0.582,0,1.078-0.152,1.488-0.458
			C71.602,85.672,71.928,85.184,72.168,84.515z M66.961,81.95h5.225c-0.07-0.786-0.27-1.377-0.6-1.771
			c-0.504-0.61-1.16-0.916-1.965-0.916c-0.729,0-1.34,0.244-1.836,0.731S67.014,81.135,66.961,81.95z"/>
		<path d="M85.869,84.101l1.559,0.202c-0.17,1.075-0.607,1.916-1.309,2.524c-0.701,0.607-1.563,0.912-2.586,0.912
			c-1.279,0-2.309-0.419-3.088-1.256c-0.777-0.837-1.166-2.036-1.166-3.599c0-1.011,0.166-1.895,0.502-2.652
			c0.334-0.758,0.844-1.325,1.527-1.704c0.686-0.379,1.43-0.568,2.234-0.568c1.016,0,1.846,0.257,2.492,0.771
			c0.646,0.515,1.061,1.244,1.242,2.189l-1.541,0.238c-0.146-0.629-0.406-1.102-0.779-1.419s-0.824-0.476-1.354-0.476
			c-0.799,0-1.447,0.286-1.947,0.859c-0.498,0.572-0.748,1.479-0.748,2.718c0,1.257,0.24,2.17,0.723,2.739
			c0.48,0.57,1.109,0.854,1.885,0.854c0.623,0,1.143-0.19,1.561-0.572C85.492,85.48,85.756,84.894,85.869,84.101z"/>
		<path d="M94.367,86.373c-0.588,0.499-1.154,0.852-1.697,1.058c-0.543,0.205-1.125,0.309-1.748,0.309
			c-1.027,0-1.818-0.252-2.369-0.754c-0.553-0.502-0.828-1.144-0.828-1.925c0-0.458,0.104-0.877,0.313-1.256
			c0.207-0.378,0.48-0.683,0.818-0.911c0.338-0.229,0.719-0.402,1.141-0.52c0.313-0.083,0.781-0.162,1.41-0.238
			c1.281-0.152,2.223-0.335,2.828-0.546c0.006-0.218,0.008-0.355,0.008-0.414c0-0.646-0.148-1.102-0.449-1.366
			c-0.404-0.357-1.006-0.537-1.805-0.537c-0.746,0-1.297,0.131-1.652,0.392c-0.355,0.262-0.619,0.725-0.789,1.388l-1.551-0.211
			c0.143-0.664,0.373-1.2,0.697-1.608c0.322-0.408,0.789-0.722,1.4-0.942c0.611-0.22,1.318-0.33,2.123-0.33
			c0.799,0,1.447,0.094,1.947,0.281c0.498,0.188,0.865,0.425,1.102,0.71c0.234,0.284,0.398,0.645,0.492,1.079
			c0.053,0.271,0.08,0.758,0.08,1.462v2.114c0,1.475,0.033,2.407,0.102,2.798c0.066,0.391,0.201,0.765,0.4,1.123h-1.656
			C94.52,87.198,94.414,86.814,94.367,86.373z M94.234,82.832c-0.576,0.234-1.439,0.435-2.59,0.599
			c-0.652,0.094-1.113,0.2-1.383,0.317c-0.271,0.117-0.48,0.289-0.627,0.516c-0.146,0.226-0.219,0.477-0.219,0.753
			c0,0.423,0.158,0.775,0.479,1.057c0.32,0.282,0.789,0.424,1.406,0.424c0.611,0,1.154-0.134,1.629-0.401
			c0.477-0.268,0.826-0.633,1.049-1.097c0.17-0.358,0.256-0.887,0.256-1.586V82.832z"/>
		<path d="M103.844,87.527v-1.181c-0.594,0.928-1.467,1.393-2.617,1.393c-0.746,0-1.432-0.206-2.057-0.617
			c-0.627-0.411-1.111-0.985-1.455-1.723c-0.344-0.736-0.516-1.584-0.516-2.541c0-0.935,0.156-1.781,0.469-2.542
			c0.311-0.761,0.777-1.344,1.4-1.749c0.621-0.405,1.318-0.607,2.088-0.607c0.563,0,1.066,0.119,1.506,0.356
			c0.441,0.238,0.799,0.548,1.074,0.93v-4.634h1.578v12.915H103.844z M98.83,82.858c0,1.198,0.252,2.094,0.758,2.687
			c0.504,0.594,1.102,0.89,1.789,0.89c0.691,0,1.281-0.283,1.766-0.85c0.484-0.567,0.727-1.432,0.727-2.595
			c0-1.28-0.246-2.22-0.74-2.819c-0.492-0.599-1.102-0.898-1.824-0.898c-0.703,0-1.293,0.288-1.766,0.863
			C99.066,80.712,98.83,81.619,98.83,82.858z"/>
		<path d="M113.389,86.373c-0.588,0.499-1.152,0.852-1.695,1.058c-0.543,0.205-1.127,0.309-1.75,0.309
			c-1.027,0-1.816-0.252-2.369-0.754s-0.828-1.144-0.828-1.925c0-0.458,0.104-0.877,0.313-1.256c0.209-0.378,0.482-0.683,0.82-0.911
			c0.338-0.229,0.717-0.402,1.141-0.52c0.311-0.083,0.781-0.162,1.41-0.238c1.279-0.152,2.223-0.335,2.826-0.546
			c0.006-0.218,0.01-0.355,0.01-0.414c0-0.646-0.15-1.102-0.449-1.366c-0.406-0.357-1.008-0.537-1.807-0.537
			c-0.746,0-1.297,0.131-1.652,0.392c-0.355,0.262-0.617,0.725-0.787,1.388l-1.551-0.211c0.141-0.664,0.373-1.2,0.695-1.608
			c0.324-0.408,0.791-0.722,1.4-0.942c0.611-0.22,1.318-0.33,2.123-0.33c0.799,0,1.449,0.094,1.947,0.281
			c0.5,0.188,0.867,0.425,1.102,0.71c0.234,0.284,0.4,0.645,0.494,1.079c0.053,0.271,0.078,0.758,0.078,1.462v2.114
			c0,1.475,0.035,2.407,0.102,2.798c0.068,0.391,0.201,0.765,0.4,1.123h-1.656C113.541,87.198,113.436,86.814,113.389,86.373z
			 M113.256,82.832c-0.574,0.234-1.438,0.435-2.59,0.599c-0.65,0.094-1.113,0.2-1.383,0.317s-0.479,0.289-0.625,0.516
			c-0.146,0.226-0.221,0.477-0.221,0.753c0,0.423,0.16,0.775,0.48,1.057c0.32,0.282,0.789,0.424,1.404,0.424
			c0.611,0,1.154-0.134,1.631-0.401c0.475-0.268,0.824-0.633,1.049-1.097c0.17-0.358,0.254-0.887,0.254-1.586V82.832z"/>
		<path d="M122.746,87.527h-1.471V74.612h1.586v4.607c0.668-0.84,1.523-1.26,2.563-1.26c0.576,0,1.121,0.116,1.635,0.348
			c0.514,0.232,0.938,0.559,1.268,0.979c0.332,0.42,0.592,0.926,0.781,1.52c0.188,0.593,0.281,1.228,0.281,1.902
			c0,1.604-0.396,2.843-1.189,3.718c-0.793,0.876-1.744,1.313-2.854,1.313c-1.105,0-1.971-0.462-2.6-1.384V87.527z M122.729,82.778
			c0,1.122,0.152,1.933,0.457,2.432c0.5,0.816,1.176,1.225,2.027,1.225c0.693,0,1.291-0.301,1.797-0.902
			c0.506-0.603,0.758-1.499,0.758-2.691c0-1.222-0.242-2.124-0.727-2.705s-1.07-0.872-1.758-0.872c-0.693,0-1.293,0.301-1.797,0.903
			C122.98,80.769,122.729,81.64,122.729,82.778z"/>
		<path d="M130.203,82.85c0-1.732,0.482-3.017,1.445-3.851c0.805-0.692,1.785-1.039,2.943-1.039c1.285,0,2.338,0.421,3.154,1.264
			s1.225,2.008,1.225,3.493c0,1.204-0.182,2.151-0.543,2.842c-0.361,0.689-0.887,1.226-1.576,1.607
			c-0.691,0.382-1.443,0.573-2.26,0.573c-1.311,0-2.369-0.42-3.176-1.261C130.607,85.639,130.203,84.43,130.203,82.85z
			 M131.834,82.85c0,1.198,0.262,2.095,0.783,2.691c0.523,0.596,1.182,0.894,1.975,0.894c0.787,0,1.441-0.299,1.965-0.898
			c0.521-0.599,0.783-1.512,0.783-2.739c0-1.157-0.262-2.034-0.789-2.63c-0.525-0.597-1.178-0.895-1.959-0.895
			c-0.793,0-1.451,0.297-1.975,0.89C132.096,80.756,131.834,81.651,131.834,82.85z"/>
		<path d="M143.768,86.109l0.23,1.4c-0.447,0.094-0.846,0.141-1.199,0.141c-0.576,0-1.021-0.091-1.338-0.272
			c-0.318-0.183-0.541-0.422-0.67-0.719c-0.129-0.296-0.193-0.92-0.193-1.872v-5.383h-1.164v-1.233h1.164v-2.316l1.576-0.952v3.269
			h1.594v1.233h-1.594v5.472c0,0.452,0.027,0.742,0.084,0.872c0.055,0.129,0.146,0.231,0.273,0.308
			c0.125,0.077,0.307,0.115,0.541,0.115C143.248,86.171,143.48,86.15,143.768,86.109z"/>
		<path d="M144.205,82.85c0-1.732,0.482-3.017,1.445-3.851c0.805-0.692,1.785-1.039,2.941-1.039c1.287,0,2.338,0.421,3.154,1.264
			s1.225,2.008,1.225,3.493c0,1.204-0.18,2.151-0.541,2.842c-0.361,0.689-0.887,1.226-1.578,1.607
			c-0.689,0.382-1.443,0.573-2.26,0.573c-1.309,0-2.367-0.42-3.176-1.261C144.609,85.639,144.205,84.43,144.205,82.85z
			 M145.834,82.85c0,1.198,0.262,2.095,0.785,2.691c0.523,0.596,1.18,0.894,1.973,0.894c0.787,0,1.441-0.299,1.965-0.898
			c0.523-0.599,0.785-1.512,0.785-2.739c0-1.157-0.264-2.034-0.789-2.63c-0.525-0.597-1.18-0.895-1.961-0.895
			c-0.793,0-1.449,0.297-1.973,0.89C146.096,80.756,145.834,81.651,145.834,82.85z M147.711,77.009l1.172-2.467h2.08l-1.939,2.467
			H147.711z"/>
		<path d="M154.307,87.527v-9.356h1.426v1.331c0.688-1.028,1.68-1.542,2.979-1.542c0.564,0,1.082,0.102,1.555,0.304
			c0.473,0.203,0.826,0.469,1.063,0.797c0.234,0.329,0.398,0.72,0.492,1.172c0.059,0.294,0.088,0.808,0.088,1.542v5.753h-1.586
			v-5.691c0-0.646-0.061-1.129-0.184-1.449s-0.342-0.575-0.656-0.767c-0.314-0.19-0.684-0.286-1.105-0.286
			c-0.676,0-1.26,0.215-1.75,0.644s-0.734,1.242-0.734,2.44v5.109H154.307z"/>
		<path d="M0.545,112.765V99.822H1.99v1.216c0.34-0.476,0.725-0.832,1.154-1.07c0.428-0.237,0.947-0.356,1.559-0.356
			c0.799,0,1.504,0.205,2.115,0.616s1.072,0.991,1.383,1.74s0.467,1.569,0.467,2.462c0,0.958-0.172,1.819-0.516,2.586
			s-0.842,1.354-1.498,1.763c-0.654,0.407-1.344,0.612-2.064,0.612c-0.529,0-1.004-0.112-1.424-0.335
			c-0.42-0.224-0.766-0.505-1.035-0.846v4.555H0.545z M1.98,104.554c0,1.204,0.244,2.094,0.732,2.669
			c0.486,0.576,1.078,0.863,1.77,0.863c0.705,0,1.309-0.298,1.811-0.894c0.504-0.597,0.754-1.52,0.754-2.771
			c0-1.191-0.246-2.084-0.736-2.678c-0.49-0.593-1.076-0.89-1.756-0.89c-0.676,0-1.273,0.315-1.793,0.947
			C2.24,102.432,1.98,103.35,1.98,104.554z"/>
		<path d="M16.162,108.024c-0.588,0.499-1.154,0.852-1.697,1.058c-0.543,0.205-1.125,0.309-1.748,0.309
			c-1.027,0-1.818-0.252-2.369-0.754c-0.553-0.502-0.828-1.144-0.828-1.925c0-0.458,0.104-0.877,0.313-1.256
			c0.207-0.378,0.48-0.683,0.818-0.911c0.338-0.229,0.719-0.402,1.141-0.52c0.313-0.083,0.781-0.162,1.41-0.238
			c1.281-0.152,2.223-0.335,2.828-0.546c0.006-0.218,0.008-0.355,0.008-0.414c0-0.646-0.148-1.102-0.449-1.366
			c-0.404-0.357-1.006-0.537-1.805-0.537c-0.746,0-1.297,0.131-1.652,0.392c-0.355,0.262-0.619,0.725-0.789,1.388l-1.551-0.211
			c0.143-0.664,0.373-1.2,0.697-1.608c0.322-0.408,0.789-0.722,1.4-0.942c0.611-0.22,1.318-0.33,2.123-0.33
			c0.799,0,1.447,0.094,1.947,0.281c0.498,0.188,0.865,0.425,1.102,0.71c0.234,0.284,0.398,0.645,0.492,1.079
			c0.053,0.271,0.08,0.758,0.08,1.462v2.114c0,1.475,0.033,2.407,0.102,2.798c0.066,0.391,0.201,0.765,0.4,1.123h-1.656
			C16.314,108.85,16.209,108.465,16.162,108.024z M16.029,104.483c-0.576,0.234-1.439,0.435-2.59,0.599
			c-0.652,0.094-1.113,0.2-1.383,0.317c-0.271,0.117-0.48,0.289-0.627,0.516c-0.146,0.226-0.219,0.477-0.219,0.753
			c0,0.423,0.158,0.775,0.479,1.057c0.32,0.282,0.789,0.424,1.406,0.424c0.611,0,1.154-0.134,1.629-0.401
			c0.477-0.268,0.826-0.633,1.049-1.097c0.17-0.358,0.256-0.887,0.256-1.586V104.483z"/>
		<path d="M19.549,109.179v-9.356h1.428v1.419c0.363-0.664,0.699-1.102,1.008-1.313c0.309-0.212,0.648-0.317,1.018-0.317
			c0.535,0,1.078,0.17,1.631,0.511l-0.547,1.472c-0.387-0.229-0.775-0.344-1.162-0.344c-0.348,0-0.658,0.104-0.934,0.313
			c-0.277,0.209-0.473,0.498-0.592,0.868c-0.176,0.563-0.264,1.181-0.264,1.85v4.898H19.549z"/>
		<path d="M31.158,108.024c-0.588,0.499-1.152,0.852-1.695,1.058c-0.543,0.205-1.127,0.309-1.75,0.309
			c-1.027,0-1.816-0.252-2.369-0.754s-0.828-1.144-0.828-1.925c0-0.458,0.104-0.877,0.313-1.256c0.209-0.378,0.482-0.683,0.82-0.911
			c0.338-0.229,0.717-0.402,1.141-0.52c0.311-0.083,0.781-0.162,1.41-0.238c1.279-0.152,2.223-0.335,2.826-0.546
			c0.006-0.218,0.01-0.355,0.01-0.414c0-0.646-0.15-1.102-0.449-1.366c-0.406-0.357-1.008-0.537-1.807-0.537
			c-0.746,0-1.297,0.131-1.652,0.392c-0.355,0.262-0.617,0.725-0.787,1.388l-1.551-0.211c0.141-0.664,0.373-1.2,0.695-1.608
			c0.324-0.408,0.791-0.722,1.4-0.942c0.611-0.22,1.318-0.33,2.123-0.33c0.799,0,1.449,0.094,1.947,0.281
			c0.5,0.188,0.867,0.425,1.102,0.71c0.234,0.284,0.4,0.645,0.494,1.079c0.053,0.271,0.078,0.758,0.078,1.462v2.114
			c0,1.475,0.035,2.407,0.102,2.798c0.068,0.391,0.201,0.765,0.4,1.123h-1.656C31.311,108.85,31.205,108.465,31.158,108.024z
			 M31.025,104.483c-0.574,0.234-1.438,0.435-2.59,0.599c-0.65,0.094-1.113,0.2-1.383,0.317s-0.479,0.289-0.625,0.516
			c-0.146,0.226-0.221,0.477-0.221,0.753c0,0.423,0.16,0.775,0.48,1.057c0.32,0.282,0.789,0.424,1.404,0.424
			c0.611,0,1.154-0.134,1.631-0.401c0.475-0.268,0.824-0.633,1.049-1.097c0.17-0.358,0.254-0.887,0.254-1.586V104.483z"/>
		<path d="M39.053,109.179v-9.356h1.418v1.313c0.295-0.459,0.686-0.827,1.172-1.106c0.488-0.278,1.043-0.418,1.666-0.418
			c0.693,0,1.262,0.144,1.705,0.432s0.756,0.69,0.938,1.207c0.74-1.093,1.703-1.639,2.891-1.639c0.928,0,1.641,0.257,2.141,0.771
			c0.498,0.515,0.748,1.306,0.748,2.374v6.423h-1.576v-5.894c0-0.635-0.053-1.091-0.154-1.37c-0.104-0.279-0.289-0.504-0.561-0.674
			c-0.27-0.171-0.586-0.256-0.951-0.256c-0.658,0-1.203,0.219-1.639,0.656c-0.434,0.438-0.652,1.139-0.652,2.102v5.436h-1.586V103.1
			c0-0.704-0.129-1.233-0.387-1.586c-0.258-0.352-0.682-0.528-1.27-0.528c-0.445,0-0.857,0.118-1.236,0.353
			c-0.379,0.235-0.654,0.578-0.824,1.03c-0.17,0.453-0.256,1.104-0.256,1.956v4.854H39.053z"/>
		<path d="M59.664,108.024c-0.588,0.499-1.152,0.852-1.695,1.058c-0.543,0.205-1.127,0.309-1.75,0.309
			c-1.027,0-1.816-0.252-2.369-0.754s-0.828-1.144-0.828-1.925c0-0.458,0.104-0.877,0.313-1.256c0.209-0.378,0.482-0.683,0.82-0.911
			c0.338-0.229,0.717-0.402,1.141-0.52c0.311-0.083,0.781-0.162,1.41-0.238c1.279-0.152,2.223-0.335,2.826-0.546
			c0.006-0.218,0.01-0.355,0.01-0.414c0-0.646-0.15-1.102-0.449-1.366c-0.406-0.357-1.008-0.537-1.807-0.537
			c-0.746,0-1.297,0.131-1.652,0.392c-0.355,0.262-0.617,0.725-0.787,1.388l-1.551-0.211c0.141-0.664,0.373-1.2,0.695-1.608
			c0.324-0.408,0.791-0.722,1.4-0.942c0.611-0.22,1.318-0.33,2.123-0.33c0.799,0,1.449,0.094,1.947,0.281
			c0.5,0.188,0.867,0.425,1.102,0.71c0.234,0.284,0.4,0.645,0.494,1.079c0.053,0.271,0.078,0.758,0.078,1.462v2.114
			c0,1.475,0.035,2.407,0.102,2.798c0.068,0.391,0.201,0.765,0.4,1.123H59.98C59.816,108.85,59.711,108.465,59.664,108.024z
			 M59.531,104.483c-0.574,0.234-1.438,0.435-2.59,0.599c-0.65,0.094-1.113,0.2-1.383,0.317s-0.479,0.289-0.625,0.516
			c-0.146,0.226-0.221,0.477-0.221,0.753c0,0.423,0.16,0.775,0.48,1.057c0.32,0.282,0.789,0.424,1.404,0.424
			c0.611,0,1.154-0.134,1.631-0.401c0.475-0.268,0.824-0.633,1.049-1.097c0.17-0.358,0.254-0.887,0.254-1.586V104.483z
			 M56.449,98.66l1.172-2.467h2.078l-1.938,2.467H56.449z"/>
		<path d="M62.436,106.386l1.568-0.246c0.088,0.628,0.332,1.109,0.734,1.444s0.965,0.502,1.688,0.502
			c0.729,0,1.27-0.147,1.621-0.444c0.354-0.297,0.529-0.645,0.529-1.044c0-0.358-0.156-0.641-0.467-0.846
			c-0.217-0.142-0.758-0.32-1.621-0.538c-1.164-0.293-1.969-0.547-2.418-0.762c-0.449-0.214-0.791-0.511-1.023-0.89
			c-0.23-0.379-0.348-0.798-0.348-1.256c0-0.417,0.096-0.803,0.287-1.158s0.451-0.65,0.779-0.886
			c0.246-0.182,0.582-0.336,1.01-0.462c0.426-0.126,0.881-0.189,1.369-0.189c0.734,0,1.379,0.105,1.934,0.317
			c0.555,0.211,0.965,0.497,1.229,0.858c0.266,0.361,0.447,0.845,0.547,1.449l-1.551,0.212c-0.07-0.481-0.275-0.857-0.611-1.128
			c-0.338-0.271-0.816-0.405-1.432-0.405c-0.729,0-1.248,0.12-1.561,0.361c-0.311,0.241-0.467,0.522-0.467,0.846
			c0,0.205,0.064,0.391,0.193,0.555c0.129,0.171,0.332,0.312,0.609,0.423c0.158,0.059,0.625,0.194,1.4,0.405
			c1.121,0.3,1.904,0.545,2.348,0.736c0.443,0.19,0.791,0.468,1.043,0.832c0.254,0.364,0.379,0.816,0.379,1.356
			c0,0.529-0.154,1.026-0.461,1.493c-0.309,0.468-0.754,0.828-1.336,1.084s-1.238,0.384-1.973,0.384
			c-1.217,0-2.143-0.253-2.779-0.758C63.018,108.127,62.611,107.379,62.436,106.386z"/>
		<path d="M76.066,98.087v-1.823h1.586v1.823H76.066z M76.066,109.179v-9.356h1.586v9.356H76.066z"/>
		<path d="M79.543,109.179v-9.356h1.428v1.331c0.688-1.028,1.68-1.542,2.979-1.542c0.563,0,1.082,0.102,1.555,0.304
			c0.473,0.203,0.826,0.469,1.061,0.797c0.234,0.329,0.4,0.72,0.494,1.172c0.059,0.294,0.088,0.808,0.088,1.542v5.753h-1.586v-5.691
			c0-0.646-0.063-1.129-0.186-1.449s-0.342-0.575-0.656-0.767c-0.314-0.19-0.682-0.286-1.105-0.286
			c-0.676,0-1.258,0.215-1.748,0.644s-0.736,1.242-0.736,2.44v5.109H79.543z"/>
		<path d="M89.434,109.179v-8.123h-1.402v-1.233h1.402v-0.995c0-0.629,0.055-1.096,0.166-1.4c0.154-0.411,0.422-0.745,0.807-1
			c0.385-0.256,0.924-0.384,1.617-0.384c0.445,0,0.939,0.053,1.48,0.159l-0.238,1.383c-0.33-0.059-0.641-0.088-0.934-0.088
			c-0.482,0-0.822,0.103-1.023,0.308c-0.199,0.206-0.299,0.591-0.299,1.154v0.863h1.824v1.233H91.01v8.123H89.434z"/>
		<path d="M92.953,104.501c0-1.732,0.482-3.017,1.445-3.851c0.805-0.692,1.785-1.039,2.941-1.039c1.287,0,2.338,0.421,3.154,1.264
			s1.225,2.008,1.225,3.493c0,1.204-0.18,2.151-0.541,2.842c-0.361,0.689-0.887,1.226-1.578,1.607
			c-0.689,0.382-1.443,0.573-2.26,0.573c-1.309,0-2.367-0.42-3.176-1.261C93.357,107.29,92.953,106.081,92.953,104.501z
			 M94.582,104.501c0,1.198,0.262,2.095,0.785,2.691c0.523,0.596,1.18,0.894,1.973,0.894c0.787,0,1.441-0.299,1.965-0.898
			c0.523-0.599,0.785-1.512,0.785-2.739c0-1.157-0.264-2.034-0.789-2.63c-0.525-0.597-1.18-0.895-1.961-0.895
			c-0.793,0-1.449,0.297-1.973,0.89C94.844,102.407,94.582,103.303,94.582,104.501z"/>
		<path d="M103.037,109.179v-9.356h1.428v1.419c0.363-0.664,0.699-1.102,1.008-1.313c0.309-0.212,0.648-0.317,1.018-0.317
			c0.535,0,1.078,0.17,1.631,0.511l-0.547,1.472c-0.387-0.229-0.775-0.344-1.162-0.344c-0.348,0-0.658,0.104-0.934,0.313
			c-0.277,0.209-0.473,0.498-0.592,0.868c-0.176,0.563-0.264,1.181-0.264,1.85v4.898H103.037z"/>
		<path d="M108.541,109.179v-9.356h1.418v1.313c0.293-0.459,0.684-0.827,1.172-1.106c0.486-0.278,1.043-0.418,1.664-0.418
			c0.693,0,1.262,0.144,1.705,0.432s0.756,0.69,0.939,1.207c0.738-1.093,1.703-1.639,2.889-1.639c0.928,0,1.643,0.257,2.141,0.771
			c0.5,0.515,0.75,1.306,0.75,2.374v6.423h-1.578v-5.894c0-0.635-0.051-1.091-0.154-1.37c-0.102-0.279-0.289-0.504-0.559-0.674
			c-0.271-0.171-0.588-0.256-0.951-0.256c-0.658,0-1.205,0.219-1.639,0.656c-0.436,0.438-0.652,1.139-0.652,2.102v5.436H114.1V103.1
			c0-0.704-0.129-1.233-0.389-1.586c-0.258-0.352-0.68-0.528-1.268-0.528c-0.447,0-0.859,0.118-1.238,0.353
			c-0.379,0.235-0.652,0.578-0.824,1.03c-0.17,0.453-0.254,1.104-0.254,1.956v4.854H108.541z"/>
		<path d="M129.152,108.024c-0.588,0.499-1.154,0.852-1.697,1.058c-0.543,0.205-1.125,0.309-1.748,0.309
			c-1.027,0-1.818-0.252-2.369-0.754c-0.553-0.502-0.828-1.144-0.828-1.925c0-0.458,0.104-0.877,0.313-1.256
			c0.207-0.378,0.48-0.683,0.818-0.911c0.338-0.229,0.719-0.402,1.141-0.52c0.313-0.083,0.781-0.162,1.41-0.238
			c1.281-0.152,2.223-0.335,2.828-0.546c0.006-0.218,0.008-0.355,0.008-0.414c0-0.646-0.148-1.102-0.449-1.366
			c-0.404-0.357-1.006-0.537-1.805-0.537c-0.746,0-1.297,0.131-1.652,0.392c-0.355,0.262-0.619,0.725-0.789,1.388l-1.551-0.211
			c0.143-0.664,0.373-1.2,0.697-1.608c0.322-0.408,0.789-0.722,1.4-0.942c0.611-0.22,1.318-0.33,2.123-0.33
			c0.799,0,1.447,0.094,1.947,0.281c0.498,0.188,0.865,0.425,1.102,0.71c0.234,0.284,0.398,0.645,0.492,1.079
			c0.053,0.271,0.08,0.758,0.08,1.462v2.114c0,1.475,0.033,2.407,0.102,2.798c0.066,0.391,0.201,0.765,0.4,1.123h-1.656
			C129.305,108.85,129.199,108.465,129.152,108.024z M129.02,104.483c-0.576,0.234-1.439,0.435-2.59,0.599
			c-0.652,0.094-1.113,0.2-1.383,0.317c-0.271,0.117-0.48,0.289-0.627,0.516c-0.146,0.226-0.219,0.477-0.219,0.753
			c0,0.423,0.158,0.775,0.479,1.057c0.32,0.282,0.789,0.424,1.406,0.424c0.611,0,1.154-0.134,1.629-0.401
			c0.477-0.268,0.826-0.633,1.049-1.097c0.17-0.358,0.256-0.887,0.256-1.586V104.483z"/>
		<path d="M138.662,105.752l1.559,0.202c-0.17,1.075-0.605,1.916-1.307,2.524c-0.703,0.607-1.564,0.912-2.586,0.912
			c-1.281,0-2.311-0.419-3.088-1.256c-0.779-0.837-1.168-2.036-1.168-3.599c0-1.011,0.168-1.895,0.502-2.652
			c0.336-0.758,0.844-1.325,1.529-1.704c0.684-0.379,1.428-0.568,2.232-0.568c1.016,0,1.848,0.257,2.494,0.771
			c0.646,0.515,1.061,1.244,1.242,2.189l-1.543,0.238c-0.146-0.629-0.406-1.102-0.779-1.419s-0.824-0.476-1.352-0.476
			c-0.799,0-1.447,0.286-1.947,0.859c-0.5,0.572-0.748,1.479-0.748,2.718c0,1.257,0.24,2.17,0.721,2.739
			c0.482,0.57,1.111,0.854,1.887,0.854c0.621,0,1.143-0.19,1.559-0.572C138.287,107.132,138.551,106.545,138.662,105.752z"/>
		<path d="M141.064,98.087v-1.823h1.586v1.823H141.064z M141.064,109.179v-9.356h1.586v9.356H141.064z"/>
		<path d="M143.951,104.501c0-1.732,0.482-3.017,1.445-3.851c0.805-0.692,1.785-1.039,2.941-1.039c1.287,0,2.338,0.421,3.154,1.264
			s1.225,2.008,1.225,3.493c0,1.204-0.18,2.151-0.541,2.842c-0.361,0.689-0.887,1.226-1.578,1.607
			c-0.689,0.382-1.443,0.573-2.26,0.573c-1.309,0-2.367-0.42-3.176-1.261C144.355,107.29,143.951,106.081,143.951,104.501z
			 M145.58,104.501c0,1.198,0.262,2.095,0.785,2.691c0.523,0.596,1.18,0.894,1.973,0.894c0.787,0,1.441-0.299,1.965-0.898
			c0.523-0.599,0.785-1.512,0.785-2.739c0-1.157-0.264-2.034-0.789-2.63c-0.525-0.597-1.18-0.895-1.961-0.895
			c-0.793,0-1.449,0.297-1.973,0.89C145.842,102.407,145.58,103.303,145.58,104.501z M147.457,98.66l1.172-2.467h2.08l-1.939,2.467
			H147.457z"/>
		<path d="M154.053,109.179v-9.356h1.426v1.331c0.688-1.028,1.68-1.542,2.979-1.542c0.564,0,1.082,0.102,1.555,0.304
			c0.473,0.203,0.826,0.469,1.063,0.797c0.234,0.329,0.398,0.72,0.492,1.172c0.059,0.294,0.088,0.808,0.088,1.542v5.753h-1.586
			v-5.691c0-0.646-0.061-1.129-0.184-1.449s-0.342-0.575-0.656-0.767c-0.314-0.19-0.684-0.286-1.105-0.286
			c-0.676,0-1.26,0.215-1.75,0.644s-0.734,1.242-0.734,2.44v5.109H154.053z"/>
	</g>
</g>
</svg>