<!-- Generator: Adobe Illustrator 17.0.0, SVG Export Plug-In  -->
<svg version="1.1"
	 xmlns="http://www.w3.org/2000/svg" xmlns:xlink="http://www.w3.org/1999/xlink" xmlns:a="http://ns.adobe.com/AdobeSVGViewerExtensions/3.0/"
	 x="0px" y="0px" width="459.83px" height="416.494px" viewBox="0 0 459.83 416.494" enable-background="new 0 0 459.83 416.494"
	 xml:space="preserve">
<defs>
</defs>
<g>
	<g>
		<g>
			<g>
				<path fill="#000101" d="M330.034,101.293H2.948c-0.485,0-0.879-0.394-0.879-0.879V37.887c0-0.485,0.394-0.879,0.879-0.879
					h327.086c0.486,0,0.879,0.393,0.879,0.879v62.527C330.913,100.899,330.52,101.293,330.034,101.293z M3.827,99.535h325.328
					V38.766H3.827V99.535z"/>
			</g>
			<g>
				<path fill="#000101" d="M330.034,365.852H2.948c-0.485,0-0.879-0.393-0.879-0.879V100.414c0-0.485,0.394-0.879,0.879-0.879
					h327.086c0.486,0,0.879,0.394,0.879,0.879v264.559C330.913,365.459,330.52,365.852,330.034,365.852z M3.827,364.094h325.328
					V101.293H3.827V364.094z"/>
			</g>
		</g>
		<g>
			<rect x="13.948" y="50.121" fill="#154A8B" width="305.088" height="38.059"/>
			<path fill="#000101" d="M319.036,89.059H13.948c-0.486,0-0.879-0.394-0.879-0.879V50.121c0-0.486,0.393-0.879,0.879-0.879
				h305.088c0.486,0,0.879,0.393,0.879,0.879V88.18C319.915,88.665,319.522,89.059,319.036,89.059z M14.827,87.301h303.33V51H14.827
				V87.301z"/>
		</g>
		<g>
			<path fill="#FFCD07" d="M258.489,233.401l13.852-6.19c-0.538-7.179-1.834-14.305-3.848-21.264l-15.136-0.945l-4.964-12.995
				l-8.107-11.315l7.572-13.166c-2.31-2.717-4.783-5.344-7.418-7.867c-2.637-2.52-5.367-4.875-8.188-7.063l-12.813,8.137
				l-11.658-7.6l-13.207-4.387l-1.608-15.08c-7.044-1.706-14.217-2.688-21.413-2.914l-5.58,14.105l-13.895,0.703l-13.263,4.215
				l-10.167-11.264c-6.61,2.709-12.996,6.109-19.04,10.226l3.787,14.697l-10.832,8.74l-8.256,11.202l-14.85-3.131
				c-3.851,6.215-6.968,12.744-9.376,19.46l11.693,9.671l-3.625,13.432l-0.099,13.918l-13.84,6.186
				c0.539,7.182,1.834,14.307,3.848,21.269l15.131,0.947l4.971,12.992l8.106,11.32l-7.576,13.154
				c2.314,2.72,4.785,5.349,7.423,7.872c2.632,2.521,5.373,4.874,8.191,7.066l12.809-8.14l11.653,7.599l13.213,4.386l1.602,15.085
				c7.039,1.703,14.216,2.684,21.415,2.91l5.579-14.103l13.898-0.7l13.26-4.219l10.172,11.267
				c6.609-2.708,12.992-6.11,19.033-10.227l-3.781-14.7l10.828-8.736l8.256-11.209l14.853,3.136
				c3.846-6.218,6.965-12.745,9.377-19.463l-11.698-9.664l3.632-13.434L258.489,233.401z"/>
			<path fill="#000101" d="M164.996,340.252c-0.009,0-0.019,0-0.027,0c-7.216-0.229-14.48-1.215-21.593-2.936
				c-0.363-0.087-0.629-0.393-0.668-0.762l-1.541-14.521l-12.678-4.207c-0.072-0.023-0.141-0.057-0.204-0.098l-11.179-7.29
				l-12.329,7.836c-0.313,0.2-0.716,0.183-1.011-0.048c-2.898-2.252-5.676-4.648-8.261-7.123c-2.597-2.484-5.114-5.155-7.485-7.938
				c-0.24-0.283-0.277-0.688-0.092-1.01l7.295-12.663l-7.776-10.861c-0.044-0.061-0.081-0.126-0.106-0.197l-4.77-12.465
				l-14.566-0.911c-0.371-0.024-0.687-0.276-0.79-0.634c-2.034-7.035-3.341-14.252-3.88-21.447c-0.029-0.37,0.18-0.718,0.517-0.868
				l13.324-5.955l0.095-13.352c0-0.076,0.011-0.15,0.031-0.224l3.478-12.886l-11.259-9.311c-0.286-0.236-0.392-0.625-0.267-0.974
				c2.467-6.877,5.646-13.48,9.456-19.624c0.193-0.315,0.559-0.475,0.929-0.398l14.296,3.014l7.921-10.746
				c0.044-0.061,0.096-0.116,0.155-0.163l10.392-8.385l-3.646-14.151c-0.092-0.358,0.05-0.735,0.357-0.943
				c5.979-4.072,12.438-7.542,19.201-10.314c0.342-0.14,0.737-0.049,0.984,0.226l9.787,10.843l12.726-4.043
				c0.071-0.023,0.145-0.035,0.222-0.041l13.33-0.674l5.372-13.579c0.136-0.343,0.497-0.593,0.845-0.554
				c7.209,0.225,14.473,1.213,21.594,2.938c0.359,0.087,0.626,0.391,0.665,0.76l1.548,14.52l12.67,4.207
				c0.072,0.023,0.141,0.057,0.205,0.098l11.184,7.291l12.336-7.833c0.313-0.199,0.718-0.181,1.01,0.047
				c2.846,2.208,5.623,4.604,8.256,7.122c2.616,2.506,5.133,5.174,7.48,7.932c0.24,0.283,0.277,0.688,0.094,1.009l-7.293,12.675
				l7.778,10.856c0.044,0.062,0.08,0.128,0.107,0.198l4.763,12.467l14.571,0.91c0.371,0.023,0.686,0.276,0.789,0.632
				c2.035,7.033,3.342,14.247,3.882,21.442c0.026,0.37-0.181,0.717-0.519,0.869l-13.336,5.959l-0.08,13.354
				c0,0.076-0.01,0.151-0.031,0.225l-3.484,12.887l11.264,9.304c0.287,0.236,0.393,0.626,0.268,0.975
				c-2.465,6.862-5.646,13.466-9.458,19.628c-0.193,0.316-0.556,0.473-0.929,0.398l-14.3-3.02l-7.921,10.754
				c-0.045,0.06-0.097,0.115-0.154,0.161l-10.389,8.384l3.641,14.15c0.093,0.359-0.049,0.738-0.357,0.945
				c-5.982,4.077-12.44,7.546-19.194,10.314c-0.346,0.143-0.739,0.051-0.985-0.225l-9.793-10.847l-12.721,4.048
				c-0.072,0.022-0.146,0.036-0.222,0.039l-13.333,0.674l-5.371,13.575C165.682,340.033,165.356,340.252,164.996,340.252z
				 M144.39,335.752c6.602,1.557,13.329,2.47,20.018,2.723l5.351-13.526c0.126-0.321,0.429-0.537,0.772-0.555l13.785-0.695
				l13.152-4.185c0.326-0.102,0.686-0.007,0.917,0.25l9.757,10.807c6.242-2.603,12.223-5.816,17.791-9.561l-3.627-14.099
				c-0.086-0.334,0.031-0.687,0.299-0.902l10.74-8.667l8.189-11.117c0.203-0.276,0.54-0.408,0.889-0.338l14.249,3.007
				c3.496-5.733,6.441-11.847,8.765-18.191l-11.223-9.268c-0.266-0.221-0.38-0.575-0.289-0.908l3.602-13.323l0.084-13.806
				c0.002-0.346,0.206-0.656,0.521-0.797l13.286-5.938c-0.541-6.67-1.752-13.35-3.599-19.876l-14.517-0.907
				c-0.343-0.021-0.644-0.242-0.766-0.564l-4.924-12.889l-8.041-11.226c-0.2-0.279-0.219-0.65-0.047-0.949l7.264-12.626
				c-2.193-2.547-4.531-5.011-6.955-7.333c-2.439-2.331-5.004-4.558-7.631-6.623l-12.292,7.805
				c-0.289,0.186-0.663,0.186-0.951-0.004l-11.563-7.539l-13.099-4.351c-0.328-0.108-0.561-0.398-0.597-0.74l-1.544-14.464
				c-6.605-1.56-13.333-2.476-20.016-2.726l-5.352,13.529c-0.127,0.319-0.43,0.536-0.773,0.554l-13.781,0.698l-13.154,4.18
				c-0.324,0.104-0.687,0.01-0.919-0.248l-9.751-10.804c-6.252,2.605-12.231,5.817-17.797,9.557l3.633,14.1
				c0.086,0.332-0.031,0.686-0.299,0.902l-10.746,8.669l-8.188,11.11c-0.205,0.277-0.546,0.411-0.889,0.339l-14.245-3.002
				c-3.494,5.717-6.439,11.83-8.763,18.188l11.218,9.276c0.267,0.22,0.379,0.573,0.288,0.906l-3.595,13.322l-0.099,13.805
				c-0.002,0.346-0.207,0.655-0.521,0.797l-13.274,5.932c0.541,6.668,1.751,13.352,3.599,19.883l14.511,0.908
				c0.344,0.022,0.645,0.242,0.766,0.563l4.932,12.887l8.039,11.229c0.2,0.279,0.219,0.652,0.047,0.951l-7.268,12.615
				c2.215,2.568,4.554,5.035,6.961,7.336c2.396,2.295,4.963,4.521,7.637,6.627l12.283-7.807c0.291-0.183,0.664-0.183,0.952,0.005
				l11.558,7.537l13.105,4.35c0.327,0.108,0.561,0.397,0.598,0.741L144.39,335.752z"/>
		</g>
		<g>
			<g>
				<path fill="#154A8B" d="M330.034,295.522c-3.581-1.105-7.217-1.816-10.85-2.105l-5.507-15.008l-11.504,5.187l-12.616,0.008
					l1.162,15.957c-4.6,2.531-8.834,5.791-12.506,9.716l-15.164-5.055l-3.122,12.226l-7.852,9.876l13.186,9.029
					c-0.91,5.314-0.95,10.677-0.175,15.889l-13.412,8.723l3.79,4.999h37.405c-8.801-9.03-11.427-22.952-5.501-34.884
					c7.506-15.108,25.836-21.271,40.939-13.77c0.599,0.299,1.156,0.641,1.727,0.97V295.522z"/>
				<path fill="#000101" d="M292.903,365.844c-0.009,0-0.022,0-0.034,0h-37.405c-0.275,0-0.535-0.129-0.701-0.349l-3.789-5.001
					c-0.148-0.193-0.209-0.44-0.166-0.682c0.042-0.24,0.182-0.452,0.387-0.584l12.942-8.418c-0.689-5-0.632-10.058,0.167-15.049
					l-12.725-8.713c-0.203-0.137-0.337-0.352-0.373-0.594c-0.035-0.24,0.029-0.485,0.18-0.678l7.736-9.729l3.076-12.043
					c0.061-0.234,0.217-0.436,0.432-0.552c0.213-0.119,0.463-0.14,0.698-0.065l14.632,4.877c3.474-3.629,7.452-6.721,11.843-9.198
					l-1.122-15.4c-0.018-0.243,0.066-0.482,0.232-0.662c0.168-0.178,0.399-0.279,0.645-0.279l12.428-0.009l11.332-5.108
					c0.22-0.098,0.475-0.104,0.7-0.009c0.225,0.095,0.401,0.278,0.485,0.509l5.313,14.482c3.479,0.315,6.998,1.021,10.478,2.092
					c0.37,0.114,0.62,0.454,0.62,0.84v21.758c0,0.315-0.168,0.604-0.44,0.761c-0.271,0.159-0.607,0.159-0.879,0l-0.381-0.221
					c-0.426-0.25-0.85-0.498-1.298-0.723c-4.144-2.059-8.573-3.103-13.169-3.103c-11.354,0-21.543,6.314-26.592,16.477
					c-5.561,11.196-3.462,24.735,5.217,33.748c0.247,0.156,0.41,0.431,0.41,0.744C293.782,365.45,293.389,365.844,292.903,365.844z
					 M255.899,364.086h34.977c-8.15-9.515-9.914-23.084-4.297-34.396c5.35-10.765,16.143-17.452,28.168-17.452
					c4.868,0,9.561,1.106,13.951,3.285c0.154,0.077,0.308,0.159,0.457,0.239v-19.587c-3.341-0.983-6.715-1.617-10.041-1.881
					c-0.342-0.026-0.637-0.251-0.756-0.573l-5.181-14.12l-10.643,4.798c-0.113,0.051-0.234,0.077-0.36,0.077l-11.671,0.008
					l1.094,15.015c0.024,0.342-0.152,0.668-0.453,0.834c-4.588,2.525-8.723,5.736-12.289,9.545c-0.234,0.251-0.595,0.339-0.92,0.233
					l-14.267-4.755l-2.889,11.311c-0.031,0.12-0.086,0.232-0.163,0.329l-7.266,9.138l12.406,8.496
					c0.283,0.193,0.428,0.533,0.371,0.872c-0.887,5.175-0.944,10.428-0.174,15.611c0.052,0.341-0.102,0.679-0.389,0.866
					l-12.622,8.207L255.899,364.086z"/>
			</g>
		</g>
		<g>
			<g>
				<path fill="#154A8B" d="M72.391,100.412c1.104,3.581,1.816,7.214,2.104,10.85l15.008,5.506l-5.184,11.504l-0.012,12.617
					l-15.957-1.165c-2.53,4.604-5.789,8.837-9.713,12.511l5.054,15.163l-12.227,3.12l-9.876,7.855l-9.027-13.186
					c-5.314,0.909-10.68,0.949-15.889,0.174l-8.725,13.414l-5-3.792l0.002-37.405c9.031,8.799,22.951,11.426,34.884,5.499
					c15.106-7.507,21.268-25.836,13.769-40.936c-0.298-0.601-0.642-1.159-0.972-1.728L72.391,100.412z"/>
				<path fill="#000101" d="M7.948,179.654c-0.19,0-0.377-0.063-0.53-0.178l-5-3.793c-0.22-0.166-0.349-0.425-0.349-0.7
					l0.002-37.405c0-0.354,0.211-0.672,0.537-0.809c0.328-0.14,0.702-0.066,0.955,0.18c5.502,5.361,13.063,8.437,20.744,8.437
					c4.582,0,9-1.041,13.135-3.095c14.647-7.277,20.646-25.113,13.373-39.76c-0.223-0.449-0.471-0.872-0.723-1.296l-0.221-0.38
					c-0.158-0.271-0.158-0.607-0.002-0.879c0.158-0.272,0.448-0.441,0.762-0.441l21.759-0.002c0.386,0,0.726,0.252,0.839,0.621
					c1.073,3.472,1.775,6.993,2.093,10.475l14.483,5.314c0.23,0.084,0.414,0.259,0.508,0.484c0.095,0.225,0.091,0.479-0.008,0.701
					l-5.107,11.332l-0.012,12.428c0,0.244-0.102,0.478-0.281,0.643c-0.178,0.168-0.415,0.252-0.66,0.233l-15.4-1.123
					c-2.475,4.391-5.565,8.372-9.195,11.847l4.877,14.631c0.076,0.231,0.054,0.484-0.064,0.698
					c-0.117,0.214-0.317,0.371-0.553,0.431l-12.045,3.074l-9.727,7.738c-0.191,0.151-0.44,0.213-0.679,0.182
					c-0.242-0.037-0.456-0.172-0.594-0.373l-8.712-12.723c-4.967,0.791-10.074,0.848-15.049,0.164l-8.42,12.943
					c-0.131,0.205-0.345,0.345-0.585,0.388C8.05,179.649,7.998,179.654,7.948,179.654z M3.827,174.547l3.9,2.957l8.209-12.622
					c0.186-0.288,0.523-0.44,0.865-0.39c5.15,0.766,10.466,0.707,15.611-0.171c0.332-0.058,0.678,0.087,0.872,0.37l8.497,12.406
					l9.135-7.268c0.098-0.077,0.209-0.133,0.33-0.164l11.311-2.887l-4.754-14.268c-0.107-0.326-0.018-0.685,0.232-0.918
					c3.811-3.568,7.021-7.703,9.543-12.293c0.166-0.301,0.492-0.483,0.834-0.453l15.018,1.096l0.01-11.673
					c0-0.125,0.025-0.247,0.078-0.36l4.795-10.643l-14.121-5.181c-0.322-0.118-0.547-0.413-0.572-0.755
					c-0.265-3.33-0.898-6.705-1.883-10.041l-19.585,0.002c0.081,0.151,0.163,0.303,0.237,0.457
					c7.704,15.514,1.35,34.406-14.164,42.115c-4.381,2.175-9.063,3.278-13.916,3.278c-0.002,0-0.002,0-0.002,0
					c-7.461,0-14.816-2.74-20.479-7.575L3.827,174.547z"/>
			</g>
		</g>
		<g>
			<circle fill="#FFFFFF" cx="50.618" cy="69.149" r="7.031"/>
			<path fill="#000101" d="M50.618,77.059c-4.361,0-7.91-3.547-7.91-7.909c0-4.361,3.549-7.909,7.91-7.909
				c4.361,0,7.91,3.548,7.91,7.909C58.528,73.512,54.979,77.059,50.618,77.059z M50.618,62.998c-3.391,0-6.152,2.76-6.152,6.151
				s2.762,6.151,6.152,6.151c3.392,0,6.152-2.76,6.152-6.151S54.011,62.998,50.618,62.998z"/>
		</g>
		<g>
			<circle fill="#FFFFFF" cx="72.737" cy="69.149" r="7.031"/>
			<path fill="#000101" d="M72.737,77.059c-4.361,0-7.91-3.547-7.91-7.909c0-4.361,3.549-7.909,7.91-7.909s7.91,3.548,7.91,7.909
				C80.647,73.512,77.099,77.059,72.737,77.059z M72.737,62.998c-3.393,0-6.152,2.76-6.152,6.151s2.76,6.151,6.152,6.151
				c3.391,0,6.152-2.76,6.152-6.151S76.128,62.998,72.737,62.998z"/>
		</g>
		<g>
			<polygon fill="#FFCD07" points="2.948,364.964 140.112,364.964 125.831,345.237 101.88,341.285 69.991,290.756 50.618,287.68 
				34.651,271.986 2.948,274.566 			"/>
			<path fill="#000101" d="M140.112,365.844H2.948c-0.485,0-0.879-0.393-0.879-0.88v-90.397c0-0.459,0.352-0.84,0.807-0.876
				l31.703-2.58c0.26-0.015,0.507,0.069,0.688,0.249l15.766,15.496l19.095,3.032c0.25,0.039,0.47,0.184,0.605,0.399l31.678,50.195
				l23.563,3.888c0.229,0.038,0.435,0.163,0.57,0.353l14.28,19.727c0.194,0.268,0.22,0.621,0.071,0.915
				C140.746,365.658,140.442,365.844,140.112,365.844z M3.827,364.086h134.563l-13.059-18.041l-23.596-3.893
				c-0.248-0.041-0.466-0.185-0.601-0.397L69.46,291.561l-18.979-3.012c-0.182-0.029-0.35-0.113-0.479-0.242l-15.681-15.412
				l-30.494,2.482V364.086z"/>
		</g>
		<g>
			<polygon fill="#E7E7E7" points="140.84,226.015 182.688,184.168 145.874,184.168 115.766,214.275 115.766,246.48 2.948,359.324 
				2.948,364.964 78.182,364.964 156.251,286.963 188.452,286.963 218.562,256.855 218.561,219.926 176.654,261.831 			"/>
			<path fill="#000101" d="M78.182,365.844H2.948c-0.485,0-0.879-0.393-0.879-0.88v-5.64c0-0.234,0.094-0.457,0.258-0.621
				l112.56-112.588v-31.84c0-0.232,0.093-0.457,0.258-0.621l30.108-30.108c0.165-0.165,0.389-0.257,0.621-0.257h36.814
				c0.355,0,0.676,0.213,0.811,0.542c0.137,0.329,0.061,0.706-0.189,0.958l-41.227,41.226l34.571,34.574l41.284-41.285
				c0.253-0.252,0.635-0.327,0.959-0.19c0.327,0.136,0.542,0.457,0.542,0.813l0.002,36.93c0,0.233-0.093,0.457-0.259,0.621
				l-30.109,30.107c-0.165,0.165-0.388,0.257-0.621,0.257h-31.838l-77.811,77.745C78.639,365.75,78.415,365.844,78.182,365.844z
				 M3.827,364.086h73.99l77.812-77.744c0.164-0.165,0.387-0.258,0.621-0.258h31.837l29.596-29.592l-0.001-34.445l-40.406,40.406
				c-0.33,0.329-0.914,0.329-1.244,0l-35.813-35.816c-0.344-0.345-0.344-0.9,0-1.244l40.346-40.346h-34.326l-29.595,29.592v31.841
				c0,0.233-0.093,0.456-0.257,0.622L3.827,359.688V364.086z"/>
		</g>
		<g>
			<path fill="#000101" d="M37.882,365.844c-0.225,0-0.449-0.086-0.621-0.258c-0.344-0.344-0.344-0.899,0-1.242l93.053-92.978
				c0.342-0.344,0.898-0.344,1.242,0c0.344,0.343,0.344,0.898,0,1.242l-93.052,92.978C38.332,365.758,38.107,365.844,37.882,365.844
				z"/>
		</g>
		<g>
			<g>
				<polygon fill="#A8AAAD" points="428.073,118.336 392.575,118.336 322.592,118.336 322.592,196.641 294.368,219.422 
					322.592,219.422 333.92,219.422 452.491,219.422 452.491,118.336 				"/>
				<path fill="#000101" d="M452.491,220.301H294.368c-0.372,0-0.703-0.236-0.828-0.587c-0.124-0.35-0.012-0.741,0.276-0.977
					l27.896-22.517v-77.885c0-0.486,0.393-0.879,0.879-0.879h129.899c0.486,0,0.879,0.393,0.879,0.879v101.086
					C453.37,219.907,452.977,220.301,452.491,220.301z M296.856,218.543h154.756v-99.328H323.47v77.426
					c0,0.266-0.119,0.517-0.326,0.684L296.856,218.543z"/>
			</g>
			<g>
				<g>
					<polygon fill="#FFFFFF" points="376.946,185.8 407.222,155.526 438.005,186.314 438.005,132.668 336.464,132.668 
						336.464,191.754 359.681,168.535 					"/>
					<path fill="#000101" d="M336.464,192.633c-0.113,0-0.228-0.021-0.337-0.066c-0.327-0.136-0.542-0.457-0.542-0.813v-59.086
						c0-0.484,0.393-0.878,0.879-0.878h101.541c0.486,0,0.879,0.394,0.879,0.878v53.646c0,0.354-0.214,0.676-0.541,0.812
						c-0.325,0.138-0.706,0.061-0.959-0.191l-30.162-30.167l-29.653,29.651c-0.343,0.344-0.9,0.344-1.242,0l-16.646-16.643
						l-22.596,22.598C336.917,192.543,336.692,192.633,336.464,192.633z M337.343,133.547v56.085l21.717-21.719
						c0.344-0.343,0.899-0.343,1.242,0l16.645,16.644l29.652-29.652c0.33-0.329,0.914-0.329,1.243,0l29.284,29.288v-50.646H337.343z
						"/>
				</g>
				<g>
					<polygon fill="#E7E7E7" points="407.222,155.526 376.946,185.8 359.681,168.535 336.464,191.754 336.464,204.88 
						438.005,204.88 438.005,186.314 					"/>
					<path fill="#000101" d="M438.005,205.759H336.464c-0.486,0-0.879-0.392-0.879-0.879v-13.126c0-0.234,0.094-0.457,0.258-0.621
						l23.217-23.22c0.344-0.343,0.899-0.343,1.242,0l16.645,16.644l29.652-29.652c0.33-0.329,0.914-0.329,1.243,0l30.785,30.789
						c0.165,0.164,0.257,0.387,0.257,0.621v18.565C438.884,205.367,438.491,205.759,438.005,205.759z M337.343,204.002h99.783
						v-17.323l-29.904-29.91l-29.653,29.651c-0.343,0.344-0.9,0.344-1.242,0l-16.646-16.643l-22.338,22.34V204.002z"/>
				</g>
			</g>
			<g>
				<circle fill="#FFCD07" cx="375.724" cy="151.27" r="8.902"/>
				<path fill="#000101" d="M375.726,161.05c-5.394,0-9.783-4.388-9.783-9.78c0-5.392,4.39-9.781,9.783-9.781
					c5.391,0,9.778,4.39,9.778,9.781C385.504,156.662,381.116,161.05,375.726,161.05z M375.726,143.247
					c-4.426,0-8.025,3.599-8.025,8.022c0,4.425,3.6,8.023,8.025,8.023c4.423,0,8.021-3.598,8.021-8.023
					C383.747,146.846,380.148,143.247,375.726,143.247z"/>
			</g>
		</g>
		<g>
			<polygon fill="#FFFFFF" points="351.866,256.661 351.866,279.053 313.635,321.688 351.866,321.688 351.866,411.999 
				454.153,411.999 454.153,256.661 			"/>
			<path fill="#000101" d="M454.153,412.878H351.866c-0.486,0-0.879-0.394-0.879-0.879v-89.433h-37.353
				c-0.347,0-0.661-0.205-0.804-0.521c-0.141-0.316-0.082-0.686,0.149-0.945l38.007-42.383v-22.056c0-0.485,0.393-0.879,0.879-0.879
				h102.287c0.484,0,0.878,0.394,0.878,0.879v155.338C455.031,412.484,454.638,412.878,454.153,412.878z M352.745,411.12h100.529
				V257.54H352.745v21.513c0,0.216-0.08,0.426-0.225,0.587l-36.917,41.169h36.263c0.485,0,0.879,0.392,0.879,0.879V411.12z"/>
		</g>
		<g>
			<path fill="#FFCD07" d="M437.276,302.688c0,18.926-15.346,34.268-34.268,34.268c-18.924,0-34.265-15.342-34.265-34.268
				c0-18.924,15.341-34.266,34.265-34.266C421.931,268.422,437.276,283.764,437.276,302.688z"/>
			<path fill="#000101" d="M403.009,337.834c-19.378,0-35.144-15.767-35.144-35.146c0-19.378,15.766-35.145,35.144-35.145
				c19.381,0,35.146,15.767,35.146,35.145C438.155,322.067,422.39,337.834,403.009,337.834z M403.009,269.301
				c-18.41,0-33.387,14.977-33.387,33.387c0,18.41,14.977,33.389,33.387,33.389c18.41,0,33.389-14.978,33.389-33.389
				C436.397,284.277,421.419,269.301,403.009,269.301z"/>
		</g>
		<g>
			<g>
				<line fill="#FFFFFF" x1="395.233" y1="282.585" x2="395.233" y2="322.791"/>
				<path fill="#000101" d="M395.233,323.669c-0.486,0-0.879-0.393-0.879-0.878v-40.206c0-0.485,0.393-0.879,0.879-0.879
					c0.485,0,0.879,0.394,0.879,0.879v40.206C396.112,323.275,395.719,323.669,395.233,323.669z"/>
			</g>
			<g>
				<line fill="#FFFFFF" x1="410.787" y1="282.585" x2="410.787" y2="322.791"/>
				<path fill="#000101" d="M410.787,323.669c-0.485,0-0.879-0.393-0.879-0.878v-40.206c0-0.485,0.394-0.879,0.879-0.879
					c0.486,0,0.879,0.394,0.879,0.879v40.206C411.666,323.275,411.273,323.669,410.787,323.669z"/>
			</g>
			<g>
				<line fill="#FFFFFF" x1="423.115" y1="294.909" x2="382.912" y2="294.909"/>
				<path fill="#000101" d="M423.115,295.789h-40.203c-0.486,0-0.879-0.394-0.879-0.88c0-0.485,0.393-0.879,0.879-0.879h40.203
					c0.485,0,0.879,0.394,0.879,0.879C423.994,295.396,423.601,295.789,423.115,295.789z"/>
			</g>
			<g>
				<line fill="#FFFFFF" x1="423.115" y1="310.467" x2="382.908" y2="310.467"/>
				<path fill="#000101" d="M423.115,311.346h-40.207c-0.485,0-0.879-0.393-0.879-0.879c0-0.485,0.394-0.879,0.879-0.879h40.207
					c0.485,0,0.879,0.393,0.879,0.879C423.994,310.953,423.601,311.346,423.115,311.346z"/>
			</g>
		</g>
		<g>
			<path fill="#000101" d="M437.276,376.882h-68.532c-0.485,0-0.879-0.393-0.879-0.878c0-0.486,0.394-0.879,0.879-0.879h68.532
				c0.485,0,0.879,0.393,0.879,0.879C438.155,376.488,437.762,376.882,437.276,376.882z"/>
			<path fill="#000101" d="M437.276,358.09h-68.532c-0.485,0-0.879-0.393-0.879-0.878c0-0.486,0.394-0.879,0.879-0.879h68.532
				c0.485,0,0.879,0.393,0.879,0.879C438.155,357.696,437.762,358.09,437.276,358.09z"/>
		</g>
		<g>
			<path fill="#000101" d="M322.592,131.101h-71.015c-0.485,0-0.879-0.394-0.879-0.879c0-0.486,0.394-0.879,0.879-0.879h71.015
				c0.485,0,0.878,0.393,0.878,0.879C323.47,130.707,323.077,131.101,322.592,131.101z"/>
		</g>
		<g>
			<path fill="#000101" d="M322.592,147.503h-44.264c-0.485,0-0.879-0.394-0.879-0.878c0-0.486,0.394-0.879,0.879-0.879h44.264
				c0.485,0,0.878,0.393,0.878,0.879C323.47,147.109,323.077,147.503,322.592,147.503z"/>
		</g>
		<g>
			<path fill="#000101" d="M322.592,163.437h-18.902c-0.485,0-0.879-0.394-0.879-0.879c0-0.485,0.394-0.879,0.879-0.879h18.902
				c0.485,0,0.878,0.393,0.878,0.879C323.47,163.043,323.077,163.437,322.592,163.437z"/>
		</g>
		<g>
			<path fill="#000101" d="M35.53,209.024H2.948c-0.485,0-0.879-0.394-0.879-0.879c0-0.486,0.394-0.879,0.879-0.879H35.53
				c0.486,0,0.879,0.393,0.879,0.879C36.409,208.631,36.017,209.024,35.53,209.024z"/>
		</g>
		<g>
			<path fill="#000101" d="M46.224,232.994H2.948c-0.485,0-0.879-0.393-0.879-0.878c0-0.485,0.394-0.879,0.879-0.879h43.275
				c0.486,0,0.879,0.393,0.879,0.879C47.102,232.602,46.71,232.994,46.224,232.994z"/>
		</g>
		<g>
			<path fill="#000101" d="M410.787,399.749h-42.043c-0.485,0-0.879-0.393-0.879-0.878c0-0.486,0.394-0.879,0.879-0.879h42.043
				c0.486,0,0.879,0.392,0.879,0.879C411.666,399.356,411.273,399.749,410.787,399.749z"/>
		</g>
	</g>
	<g>
		<path d="M347.979,74.208h49.862c0.789,0,1.429-0.639,1.429-1.428c0-0.789-0.64-1.428-1.429-1.428h-49.862
			c-0.79,0-1.427,0.639-1.427,1.428C346.553,73.569,347.189,74.208,347.979,74.208z"/>
	</g>
	<g>
		<path d="M420.1,74.208h38.303c0.789,0,1.428-0.639,1.428-1.428c0-0.789-0.639-1.428-1.428-1.428H420.1
			c-0.789,0-1.428,0.639-1.428,1.428C418.672,73.569,419.31,74.208,420.1,74.208z"/>
	</g>
	<g>
		<path d="M121.071,389.968h49.862c0.789,0,1.429-0.639,1.429-1.428c0-0.789-0.64-1.428-1.429-1.428h-49.862
			c-0.79,0-1.427,0.639-1.427,1.428C119.644,389.329,120.281,389.968,121.071,389.968z"/>
	</g>
	<g>
		<path d="M193.191,389.968h38.303c0.789,0,1.428-0.639,1.428-1.428c0-0.789-0.639-1.428-1.428-1.428h-38.303
			c-0.789,0-1.428,0.639-1.428,1.428C191.764,389.329,192.402,389.968,193.191,389.968z"/>
	</g>
	<g>
		<path d="M339.535,51.128h26.591c0.79,0,1.428-0.639,1.428-1.428c0-0.789-0.638-1.428-1.428-1.428h-26.591
			c-0.789,0-1.428,0.639-1.428,1.428C338.107,50.489,338.746,51.128,339.535,51.128z"/>
	</g>
	<g>
		<path d="M23.113,21.173h26.591c0.79,0,1.428-0.639,1.428-1.428c0-0.789-0.638-1.428-1.428-1.428H23.113
			c-0.789,0-1.428,0.639-1.428,1.428C21.685,20.534,22.324,21.173,23.113,21.173z"/>
	</g>
	<g>
		<g>
			<g>
				<path d="M22.935,405.569c-0.249,0-0.497-0.096-0.686-0.284L0.284,383.32c-0.379-0.379-0.379-0.993,0-1.373
					c0.379-0.379,0.994-0.379,1.373,0l21.965,21.964c0.379,0.381,0.379,0.994,0,1.374C23.433,405.474,23.185,405.569,22.935,405.569
					z"/>
			</g>
			<g>
				<path d="M0.971,405.569c-0.249,0-0.497-0.096-0.686-0.284c-0.379-0.38-0.379-0.993,0-1.374l21.965-21.964
					c0.379-0.379,0.994-0.379,1.373,0c0.379,0.38,0.379,0.994,0,1.373L1.657,405.285C1.468,405.474,1.22,405.569,0.971,405.569z"/>
			</g>
		</g>
	</g>
	<g>
		<g>
			<path d="M320.41,416.494h11.486c0.537,0,0.971-0.434,0.971-0.971c0-0.536-0.434-0.971-0.971-0.971H320.41
				c-0.535,0-0.971,0.435-0.971,0.971C319.439,416.061,319.875,416.494,320.41,416.494z"/>
		</g>
		<g>
			<path d="M311.289,402.422h20.607c0.537,0,0.971-0.435,0.971-0.973c0-0.535-0.434-0.97-0.971-0.97h-20.607
				c-0.537,0-0.971,0.435-0.971,0.97C310.318,401.987,310.752,402.422,311.289,402.422z"/>
		</g>
	</g>
	<g>
		<g>
			<g>
				<path d="M146.716,23.906c-0.249,0-0.497-0.096-0.686-0.284L124.064,1.657c-0.379-0.379-0.379-0.993,0-1.373
					c0.379-0.379,0.994-0.379,1.373,0l21.965,21.964c0.379,0.381,0.379,0.994,0,1.374C147.213,23.811,146.965,23.906,146.716,23.906
					z"/>
			</g>
			<g>
				<path d="M124.751,23.906c-0.249,0-0.497-0.096-0.687-0.284c-0.379-0.38-0.379-0.993,0-1.374l21.965-21.964
					c0.379-0.379,0.994-0.379,1.373,0c0.379,0.38,0.379,0.994,0,1.373l-21.965,21.965C125.248,23.811,125,23.906,124.751,23.906z"/>
			</g>
		</g>
	</g>
	<g>
		<g>
			<path d="M66.889,396.547H55.402c-0.537,0-0.971-0.434-0.971-0.971c0-0.536,0.434-0.971,0.971-0.971h11.486
				c0.535,0,0.971,0.435,0.971,0.971C67.859,396.113,67.424,396.547,66.889,396.547z"/>
		</g>
		<g>
			<path d="M76.01,382.475H55.402c-0.537,0-0.971-0.435-0.971-0.973c0-0.535,0.434-0.97,0.971-0.97H76.01
				c0.537,0,0.971,0.435,0.971,0.97C76.98,382.04,76.547,382.475,76.01,382.475z"/>
		</g>
	</g>
	<g>
		<g>
			<path d="M365.966,240.289h26.283c0.537,0,0.971-0.434,0.971-0.971c0-0.537-0.434-0.972-0.971-0.972h-26.283
				c-0.537,0-0.971,0.434-0.971,0.972C364.995,239.855,365.429,240.289,365.966,240.289z"/>
		</g>
		<g>
			<path d="M349.706,240.289h10.435c0.536,0,0.971-0.434,0.971-0.971c0-0.537-0.435-0.972-0.971-0.972h-10.435
				c-0.537,0-0.971,0.434-0.971,0.972C348.735,239.855,349.169,240.289,349.706,240.289z"/>
		</g>
		<g>
			<path d="M339.636,240.289h5.096c0.535,0,0.969-0.434,0.969-0.971c0-0.537-0.434-0.972-0.969-0.972h-5.096
				c-0.535,0-0.971,0.434-0.971,0.972C338.665,239.855,339.101,240.289,339.636,240.289z"/>
		</g>
	</g>
	<g>
		<g>
			<path d="M232.779,10.27h26.283c0.537,0,0.971-0.435,0.971-0.971c0-0.537-0.434-0.972-0.971-0.972h-26.283
				c-0.537,0-0.971,0.435-0.971,0.972C231.809,9.835,232.242,10.27,232.779,10.27z"/>
		</g>
		<g>
			<path d="M216.519,10.27h10.436c0.536,0,0.971-0.435,0.971-0.971c0-0.537-0.435-0.972-0.971-0.972h-10.436
				c-0.537,0-0.971,0.435-0.971,0.972C215.549,9.835,215.982,10.27,216.519,10.27z"/>
		</g>
		<g>
			<path d="M206.449,10.27h5.096c0.535,0,0.969-0.435,0.969-0.971c0-0.537-0.434-0.972-0.969-0.972h-5.096
				c-0.535,0-0.971,0.435-0.971,0.972C205.478,9.835,205.914,10.27,206.449,10.27z"/>
		</g>
	</g>
</g>
</svg>