<?xml version="1.0" encoding="utf-8"?>
<!-- Generator: Adobe Illustrator 17.0.0, SVG Export Plug-In . SVG Version: 6.00 Build 0)  -->
<!DOCTYPE svg PUBLIC "-//W3C//DTD SVG 1.1//EN" "http://www.w3.org/Graphics/SVG/1.1/DTD/svg11.dtd" [
	<!ENTITY ns_extend "http://ns.adobe.com/Extensibility/1.0/">
	<!ENTITY ns_ai "http://ns.adobe.com/AdobeIllustrator/10.0/">
	<!ENTITY ns_graphs "http://ns.adobe.com/Graphs/1.0/">
	<!ENTITY ns_vars "http://ns.adobe.com/Variables/1.0/">
	<!ENTITY ns_imrep "http://ns.adobe.com/ImageReplacement/1.0/">
	<!ENTITY ns_sfw "http://ns.adobe.com/SaveForWeb/1.0/">
	<!ENTITY ns_custom "http://ns.adobe.com/GenericCustomNamespace/1.0/">
	<!ENTITY ns_adobe_xpath "http://ns.adobe.com/XPath/1.0/">
]>
<svg version="1.1" id="Capa_1" xmlns:x="&ns_extend;" xmlns:i="&ns_ai;" xmlns:graph="&ns_graphs;"
	 xmlns="http://www.w3.org/2000/svg" xmlns:xlink="http://www.w3.org/1999/xlink" x="0px" y="0px" width="925.725px"
	 height="36.354px" viewBox="0 0 925.725 36.354" enable-background="new 0 0 925.725 36.354" xml:space="preserve">
<metadata>
	<sfw  xmlns="&ns_sfw;">
		<slices></slices>
		<sliceSourceBounds  width="925.725" height="35.557" x="4.638" y="663.12" bottomLeftOrigin="true"></sliceSourceBounds>
	</sfw>
</metadata>
<g>
	<rect x="0" y="0" fill="#C7C6C6" width="37.777" height="35.557"/>
	<g>
		<g>
			<rect x="38.277" y="0.5" fill="#FFCD07" width="886.947" height="34.557"/>
			<path fill="#000101" d="M924.725,1v33.557H38.777V1H924.725 M925.725,0H37.777v35.557h887.947L925.725,0L925.725,0z"/>
		</g>
	</g>
</g>
<g>
	<g>
		<rect x="699.666" y="23.701" fill="#154A8B" width="3.615" height="3.796"/>
		<rect x="691.102" y="23.701" fill="#154A8B" width="3.618" height="3.796"/>
		<rect x="682.542" y="23.701" fill="#154A8B" width="3.616" height="3.796"/>
		<rect x="673.979" y="23.701" fill="#154A8B" width="3.616" height="3.796"/>
		<rect x="750.167" y="23.701" fill="#154A8B" width="3.616" height="3.796"/>
		<rect x="741.604" y="23.701" fill="#154A8B" width="3.618" height="3.796"/>
		<rect x="733.044" y="23.701" fill="#154A8B" width="3.616" height="3.796"/>
		<rect x="724.481" y="23.701" fill="#154A8B" width="3.616" height="3.796"/>
		<rect x="715.921" y="23.701" fill="#154A8B" width="3.616" height="3.796"/>
		<rect x="707.358" y="23.701" fill="#154A8B" width="3.62" height="3.796"/>
	</g>
	<g>
		<rect x="862.713" y="23.701" fill="#154A8B" width="3.617" height="3.796"/>
		<rect x="854.15" y="23.701" fill="#154A8B" width="3.619" height="3.796"/>
		<rect x="845.59" y="23.701" fill="#154A8B" width="3.616" height="3.796"/>
		<rect x="837.027" y="23.701" fill="#154A8B" width="3.617" height="3.796"/>
		<rect x="828.467" y="23.701" fill="#154A8B" width="3.617" height="3.796"/>
		<rect x="819.904" y="23.701" fill="#154A8B" width="3.619" height="3.796"/>
		<rect x="913.215" y="23.701" fill="#154A8B" width="3.617" height="3.796"/>
		<rect x="904.652" y="23.701" fill="#154A8B" width="3.618" height="3.796"/>
		<rect x="896.092" y="23.701" fill="#154A8B" width="3.617" height="3.796"/>
		<rect x="887.529" y="23.701" fill="#154A8B" width="3.617" height="3.796"/>
		<rect x="878.969" y="23.701" fill="#154A8B" width="3.616" height="3.796"/>
		<rect x="870.406" y="23.701" fill="#154A8B" width="3.62" height="3.796"/>
		<rect x="811.343" y="23.701" fill="#154A8B" width="3.62" height="3.796"/>
		<rect x="802.781" y="23.701" fill="#154A8B" width="3.619" height="3.796"/>
		<rect x="794.221" y="23.701" fill="#154A8B" width="3.618" height="3.796"/>
		<rect x="785.66" y="23.701" fill="#154A8B" width="3.619" height="3.796"/>
		<rect x="777.099" y="23.701" fill="#154A8B" width="3.617" height="3.796"/>
		<rect x="768.537" y="23.701" fill="#154A8B" width="3.614" height="3.796"/>
		<rect x="759.975" y="23.701" fill="#154A8B" width="3.618" height="3.796"/>
	</g>
</g>
<g>
	<g>
		<path fill="#000101" d="M57.881,23.492c-0.269,0.625-0.637,1.172-1.105,1.641s-1.016,0.837-1.641,1.105s-1.295,0.402-2.008,0.402
			h-1.494c-0.713,0-1.384-0.134-2.014-0.402s-1.18-0.637-1.648-1.105s-0.837-1.016-1.105-1.641s-0.402-1.295-0.402-2.008V10.205
			c0-0.713,0.134-1.381,0.402-2.006s0.637-1.172,1.105-1.641s1.019-0.838,1.648-1.106s1.301-0.403,2.014-0.403h1.494
			c0.713,0,1.383,0.135,2.008,0.403s1.172,0.638,1.641,1.106s0.837,1.016,1.105,1.641s0.402,1.293,0.402,2.006v0.85l-1.889,0.293
			v-1.143c0-0.469-0.088-0.905-0.264-1.311s-0.416-0.76-0.719-1.063s-0.656-0.541-1.062-0.717S53.506,6.85,53.037,6.85h-1.318
			c-0.469,0-0.905,0.088-1.311,0.264s-0.762,0.414-1.069,0.717s-0.55,0.657-0.726,1.063s-0.264,0.842-0.264,1.311v11.279
			c0,0.469,0.088,0.906,0.264,1.312s0.418,0.762,0.726,1.069s0.664,0.549,1.069,0.725s0.842,0.264,1.311,0.264h1.318
			c0.469,0,0.906-0.088,1.312-0.264s0.759-0.417,1.062-0.725s0.543-0.664,0.719-1.069s0.264-0.843,0.264-1.312v-1.143l1.889,0.309
			v0.834C58.283,22.197,58.149,22.867,57.881,23.492z"/>
		<path fill="#000101" d="M71.562,23.945c-0.229,0.537-0.545,1.006-0.945,1.406s-0.869,0.716-1.406,0.945s-1.107,0.344-1.713,0.344
			h-1.201c-0.605,0-1.178-0.114-1.715-0.344s-1.006-0.545-1.406-0.945s-0.715-0.869-0.944-1.406s-0.345-1.107-0.345-1.713v-6.768
			c0-0.605,0.115-1.178,0.345-1.715s0.544-1.006,0.944-1.406s0.869-0.715,1.406-0.944s1.109-0.345,1.715-0.345h1.201
			c0.605,0,1.176,0.115,1.713,0.345s1.006,0.544,1.406,0.944c0.4,0.4,0.716,0.869,0.945,1.406s0.344,1.109,0.344,1.715v6.768
			C71.906,22.838,71.792,23.408,71.562,23.945z M70.105,15.361c0-0.361-0.068-0.7-0.205-1.018s-0.322-0.594-0.557-0.828
			s-0.511-0.42-0.828-0.557s-0.656-0.205-1.018-0.205h-1.201c-0.361,0-0.701,0.068-1.019,0.205s-0.593,0.322-0.827,0.557
			s-0.42,0.511-0.557,0.828S63.689,15,63.689,15.361v6.973c0,0.361,0.068,0.701,0.205,1.019c0.137,0.318,0.322,0.593,0.557,0.827
			s0.51,0.42,0.827,0.557s0.657,0.205,1.019,0.205h1.201c0.361,0,0.7-0.068,1.018-0.205s0.594-0.322,0.828-0.557
			s0.42-0.51,0.557-0.827s0.205-0.657,0.205-1.019L70.105,15.361L70.105,15.361z"/>
		<path fill="#000101" d="M91.346,26.348V15.361c0-0.361-0.068-0.7-0.205-1.018s-0.322-0.594-0.557-0.828s-0.511-0.42-0.828-0.557
			s-0.656-0.205-1.018-0.205h-0.895c-0.361,0-0.7,0.068-1.018,0.205s-0.596,0.322-0.835,0.557s-0.427,0.511-0.563,0.828
			S85.223,15,85.223,15.361v10.986h-1.787V15.361c0-0.361-0.068-0.7-0.205-1.018s-0.325-0.594-0.564-0.828s-0.518-0.42-0.835-0.557
			s-0.657-0.205-1.019-0.205H79.92c-0.361,0-0.701,0.068-1.019,0.205s-0.593,0.322-0.827,0.557s-0.42,0.511-0.557,0.828
			S77.312,15,77.312,15.361v10.986H75.51v-15h0.602l0.98,1.523c0.41-0.557,0.926-0.998,1.546-1.325s1.296-0.491,2.028-0.491h0.146
			c0.85,0,1.617,0.211,2.301,0.631c0.684,0.42,1.211,0.977,1.582,1.67c0.186-0.342,0.414-0.654,0.688-0.938s0.576-0.525,0.908-0.726
			s0.693-0.356,1.084-0.469s0.797-0.169,1.217-0.169h0.146c0.605,0,1.176,0.115,1.713,0.345s1.006,0.544,1.406,0.944
			c0.4,0.4,0.716,0.869,0.945,1.406s0.344,1.109,0.344,1.715v10.883h-1.8V26.348z"/>
		<path fill="#000101" d="M106.426,23.945c-0.229,0.537-0.545,1.006-0.945,1.406s-0.869,0.716-1.406,0.945s-1.107,0.344-1.713,0.344
			h-1.201c-0.605,0-1.178-0.114-1.715-0.344s-1.006-0.545-1.406-0.945s-0.715-0.869-0.944-1.406s-0.345-1.107-0.345-1.713v-6.768
			c0-0.605,0.115-1.178,0.345-1.715s0.544-1.006,0.944-1.406s0.869-0.715,1.406-0.944s1.109-0.345,1.715-0.345h1.201
			c0.605,0,1.176,0.115,1.713,0.345s1.006,0.544,1.406,0.944c0.4,0.4,0.716,0.869,0.945,1.406s0.344,1.109,0.344,1.715v3.529h-8.217
			v3.34c0,0.361,0.068,0.701,0.205,1.019s0.322,0.593,0.557,0.827s0.51,0.42,0.827,0.557s0.657,0.205,1.019,0.205h1.201
			c0.361,0,0.7-0.068,1.018-0.205s0.594-0.322,0.828-0.557s0.42-0.51,0.557-0.827s0.205-0.657,0.205-1.019v-0.996l1.801,0.293v0.602
			C106.77,22.838,106.655,23.408,106.426,23.945z M104.969,15.361c0-0.361-0.068-0.7-0.205-1.018s-0.322-0.594-0.557-0.828
			s-0.511-0.42-0.828-0.557s-0.656-0.205-1.018-0.205h-1.201c-0.361,0-0.701,0.068-1.019,0.205s-0.593,0.322-0.827,0.557
			s-0.42,0.511-0.557,0.828S98.553,15,98.553,15.361v2.227h6.416V15.361z"/>
		<path fill="#000101" d="M118.592,26.348V15.361c0-0.361-0.068-0.7-0.205-1.018s-0.322-0.594-0.557-0.828s-0.511-0.42-0.828-0.557
			s-0.656-0.205-1.018-0.205h-1.201c-0.361,0-0.701,0.068-1.019,0.205s-0.593,0.322-0.827,0.557s-0.42,0.511-0.557,0.828
			s-0.205,0.656-0.205,1.018v10.986h-1.803v-15h0.602l0.98,1.523c0.41-0.557,0.926-0.998,1.546-1.325s1.296-0.491,2.028-0.491h0.455
			c0.605,0,1.176,0.115,1.713,0.345s1.006,0.544,1.406,0.944s0.716,0.869,0.945,1.406s0.344,1.109,0.344,1.715v10.883
			L118.592,26.348L118.592,26.348z"/>
		<path fill="#000101" d="M129.461,26.348c-0.547,0-1.063-0.102-1.546-0.307s-0.903-0.488-1.26-0.85s-0.64-0.781-0.85-1.26
			s-0.315-0.992-0.315-1.539v-9.33h-2.695v-1.715h2.695V7.743l1.803-0.293v3.896h3.809v1.715h-3.809v9.418
			c0,0.303,0.056,0.584,0.168,0.843s0.266,0.485,0.461,0.681s0.426,0.35,0.689,0.462s0.547,0.169,0.85,0.169h1.641v1.713
			L129.461,26.348L129.461,26.348z"/>
		<path fill="#000101" d="M143.83,26.348l-0.996-1.494c-0.41,0.537-0.922,0.97-1.537,1.297s-1.289,0.49-2.021,0.49h-0.455
			c-0.605,0-1.176-0.114-1.713-0.344s-1.006-0.545-1.406-0.945s-0.716-0.869-0.945-1.406s-0.344-1.107-0.344-1.713v-0.146
			c0-0.605,0.114-1.178,0.344-1.715s0.545-1.006,0.945-1.406s0.869-0.715,1.406-0.944s1.107-0.345,1.713-0.345h3.809v-2.314
			c0-0.361-0.068-0.7-0.205-1.018s-0.322-0.594-0.557-0.828s-0.51-0.42-0.827-0.557s-0.657-0.205-1.019-0.205h-1.055
			c-0.361,0-0.7,0.068-1.018,0.205s-0.594,0.322-0.828,0.557s-0.42,0.511-0.557,0.828s-0.205,0.656-0.205,1.018v0.543l-1.801-0.293
			v-0.146c0-0.605,0.114-1.178,0.344-1.715s0.545-1.006,0.945-1.406c0.4-0.4,0.869-0.715,1.406-0.944s1.107-0.345,1.713-0.345h1.055
			c0.605,0,1.178,0.115,1.715,0.345s1.006,0.544,1.406,0.944c0.4,0.4,0.715,0.869,0.944,1.406s0.345,1.109,0.345,1.715V26.35h-0.601
			V26.348z M142.629,19.082h-3.809c-0.361,0-0.7,0.068-1.018,0.205s-0.594,0.325-0.828,0.564s-0.42,0.518-0.557,0.835
			s-0.205,0.657-0.205,1.019v0.629c0,0.361,0.068,0.701,0.205,1.019s0.322,0.593,0.557,0.827s0.511,0.42,0.828,0.557
			s0.656,0.205,1.018,0.205h1.201c0.361,0,0.701-0.068,1.019-0.205s0.593-0.322,0.827-0.557s0.42-0.51,0.557-0.827
			s0.205-0.657,0.205-1.019V19.082z"/>
		<path fill="#000101" d="M152.443,13.063c-0.361,0-0.7,0.068-1.018,0.205s-0.594,0.322-0.828,0.557s-0.42,0.51-0.557,0.827
			s-0.205,0.657-0.205,1.019v10.678h-1.801v-15h0.6l0.982,1.523c0.41-0.557,0.925-0.998,1.545-1.325s1.297-0.491,2.029-0.491h1.055
			v2.008L152.443,13.063L152.443,13.063z"/>
		<path fill="#000101" d="M157.102,7.744V5.342h2.096v2.402C159.198,7.744,157.102,7.744,157.102,7.744z M157.248,26.348v-15h1.803
			v15H157.248z"/>
		<path fill="#000101" d="M172.93,23.945c-0.229,0.537-0.545,1.006-0.945,1.406s-0.869,0.716-1.406,0.945s-1.107,0.344-1.713,0.344
			h-1.201c-0.605,0-1.178-0.114-1.715-0.344s-1.006-0.545-1.406-0.945s-0.715-0.869-0.944-1.406s-0.345-1.107-0.345-1.713v-6.768
			c0-0.605,0.115-1.178,0.345-1.715s0.544-1.006,0.944-1.406s0.869-0.715,1.406-0.944s1.109-0.345,1.715-0.345h1.201
			c0.605,0,1.176,0.115,1.713,0.345s1.006,0.544,1.406,0.944c0.4,0.4,0.716,0.869,0.945,1.406s0.344,1.109,0.344,1.715v6.768
			C173.273,22.838,173.159,23.408,172.93,23.945z M171.473,15.361c0-0.361-0.068-0.7-0.205-1.018s-0.322-0.594-0.557-0.828
			s-0.511-0.42-0.828-0.557s-0.656-0.205-1.018-0.205h-1.201c-0.361,0-0.701,0.068-1.019,0.205s-0.593,0.322-0.827,0.557
			s-0.42,0.511-0.557,0.828s-0.205,0.656-0.205,1.018v6.973c0,0.361,0.068,0.701,0.205,1.019s0.322,0.593,0.557,0.827
			s0.51,0.42,0.827,0.557s0.657,0.205,1.019,0.205h1.201c0.361,0,0.7-0.068,1.018-0.205s0.594-0.322,0.828-0.557
			s0.42-0.51,0.557-0.827s0.205-0.657,0.205-1.019V15.361z"/>
		<path fill="#000101" d="M187.189,22.539c0,0.605-0.121,1.16-0.365,1.663s-0.576,0.935-0.996,1.296s-0.906,0.643-1.458,0.843
			s-1.13,0.3-1.735,0.3h-1.201c-0.605,0-1.185-0.114-1.736-0.344s-1.035-0.545-1.45-0.945s-0.747-0.869-0.996-1.406
			s-0.374-1.107-0.374-1.713v-0.602l1.803-0.293v0.996c0,0.361,0.075,0.701,0.227,1.019s0.354,0.593,0.607,0.827
			s0.547,0.42,0.879,0.557s0.68,0.205,1.041,0.205h1.201c0.361,0,0.707-0.053,1.039-0.16s0.628-0.262,0.887-0.462
			s0.464-0.442,0.615-0.726s0.227-0.605,0.227-0.967c0-0.537-0.117-0.977-0.352-1.318s-0.544-0.627-0.93-0.856
			s-0.825-0.42-1.318-0.571s-0.998-0.303-1.516-0.454s-1.023-0.325-1.517-0.521s-0.933-0.451-1.318-0.769s-0.696-0.716-0.931-1.194
			s-0.352-1.074-0.352-1.787c0-0.605,0.117-1.159,0.352-1.662s0.553-0.936,0.953-1.297c0.4-0.361,0.866-0.642,1.398-0.842
			s1.102-0.301,1.707-0.301h1.055c0.605,0,1.176,0.115,1.713,0.345s1.006,0.544,1.406,0.944c0.4,0.4,0.716,0.869,0.945,1.406
			s0.344,1.109,0.344,1.715v0.059l-1.801,0.293v-0.455c0-0.361-0.068-0.7-0.205-1.018s-0.322-0.594-0.557-0.828
			s-0.511-0.42-0.828-0.557s-0.656-0.205-1.018-0.205h-1.055c-0.361,0-0.701,0.055-1.019,0.162s-0.593,0.261-0.827,0.461
			s-0.42,0.441-0.557,0.725s-0.205,0.605-0.205,0.967c0,0.518,0.117,0.94,0.352,1.268s0.544,0.604,0.93,0.828
			s0.825,0.412,1.318,0.563s0.996,0.308,1.509,0.469s1.016,0.345,1.509,0.55s0.933,0.469,1.318,0.791s0.695,0.725,0.93,1.208
			S187.189,21.826,187.189,22.539z"/>
		<path fill="#000101" d="M207.859,22.539c0,0.605-0.123,1.16-0.367,1.663s-0.576,0.935-0.996,1.296s-0.905,0.643-1.457,0.843
			s-1.131,0.3-1.736,0.3h-1.201c-0.605,0-1.184-0.114-1.735-0.344s-1.035-0.545-1.45-0.945s-0.747-0.869-0.996-1.406
			s-0.373-1.107-0.373-1.713v-0.602l1.801-0.293v0.996c0,0.361,0.076,0.701,0.228,1.019s0.354,0.593,0.608,0.827
			s0.547,0.42,0.879,0.557s0.678,0.205,1.039,0.205h1.201c0.361,0,0.709-0.053,1.041-0.16s0.627-0.262,0.886-0.462
			s0.464-0.442,0.615-0.726s0.228-0.605,0.228-0.967c0-0.537-0.117-0.977-0.352-1.318s-0.545-0.627-0.931-0.856
			s-0.825-0.42-1.318-0.571s-0.999-0.303-1.517-0.454s-1.022-0.325-1.516-0.521s-0.933-0.451-1.318-0.769s-0.695-0.716-0.93-1.194
			s-0.352-1.074-0.352-1.787c0-0.605,0.117-1.159,0.352-1.662s0.551-0.936,0.951-1.297c0.4-0.361,0.867-0.642,1.399-0.842
			s1.101-0.301,1.706-0.301h1.055c0.605,0,1.178,0.115,1.715,0.345s1.006,0.544,1.406,0.944c0.4,0.4,0.715,0.869,0.944,1.406
			s0.345,1.109,0.345,1.715v0.059l-1.803,0.293v-0.455c0-0.361-0.068-0.7-0.205-1.018s-0.322-0.594-0.557-0.828
			s-0.51-0.42-0.827-0.557s-0.657-0.205-1.019-0.205h-1.055c-0.361,0-0.7,0.055-1.018,0.162s-0.594,0.261-0.828,0.461
			s-0.42,0.441-0.557,0.725s-0.205,0.605-0.205,0.967c0,0.518,0.117,0.94,0.352,1.268s0.545,0.604,0.931,0.828
			s0.825,0.412,1.318,0.563s0.996,0.308,1.509,0.469s1.016,0.345,1.509,0.55s0.933,0.469,1.318,0.791s0.696,0.725,0.931,1.208
			S207.859,21.826,207.859,22.539z"/>
		<path fill="#000101" d="M220.991,23.945c-0.229,0.537-0.544,1.006-0.944,1.406s-0.869,0.716-1.406,0.945s-1.109,0.344-1.715,0.344
			h-1.201c-0.605,0-1.176-0.114-1.713-0.344s-1.006-0.545-1.406-0.945s-0.716-0.869-0.945-1.406s-0.344-1.107-0.344-1.713v-6.768
			c0-0.605,0.114-1.178,0.344-1.715s0.545-1.006,0.945-1.406c0.4-0.4,0.869-0.715,1.406-0.944s1.107-0.345,1.713-0.345h1.201
			c0.605,0,1.178,0.115,1.715,0.345s1.006,0.544,1.406,0.944c0.4,0.4,0.715,0.869,0.944,1.406s0.345,1.109,0.345,1.715v6.768
			C221.336,22.838,221.221,23.408,220.991,23.945z M219.533,15.361c0-0.361-0.068-0.7-0.205-1.018s-0.322-0.594-0.557-0.828
			s-0.51-0.42-0.827-0.557s-0.657-0.205-1.019-0.205h-1.201c-0.361,0-0.7,0.068-1.018,0.205s-0.594,0.322-0.828,0.557
			s-0.42,0.511-0.557,0.828s-0.205,0.656-0.205,1.018v6.973c0,0.361,0.068,0.701,0.205,1.019s0.322,0.593,0.557,0.827
			s0.511,0.42,0.828,0.557s0.656,0.205,1.018,0.205h1.201c0.361,0,0.701-0.068,1.019-0.205s0.593-0.322,0.827-0.557
			s0.42-0.51,0.557-0.827s0.205-0.657,0.205-1.019V15.361z"/>
		<path fill="#000101" d="M234.614,23.945c-0.229,0.537-0.544,1.006-0.944,1.406s-0.869,0.716-1.406,0.945s-1.109,0.344-1.715,0.344
			h-1.201c-0.605,0-1.176-0.114-1.713-0.344s-1.006-0.545-1.406-0.945s-0.716-0.869-0.945-1.406s-0.344-1.107-0.344-1.713V5.342
			h1.801v7.266c0.41-0.488,0.904-0.869,1.48-1.143s1.201-0.41,1.875-0.41h0.453c0.605,0,1.178,0.115,1.715,0.345
			s1.006,0.544,1.406,0.944c0.4,0.4,0.715,0.869,0.944,1.406s0.345,1.109,0.345,1.715v6.768
			C234.959,22.838,234.844,23.408,234.614,23.945z M233.156,15.361c0-0.361-0.068-0.7-0.205-1.018s-0.322-0.594-0.557-0.828
			s-0.51-0.42-0.827-0.557s-0.657-0.205-1.019-0.205h-1.201c-0.361,0-0.7,0.068-1.018,0.205s-0.594,0.322-0.828,0.557
			s-0.42,0.511-0.557,0.828S226.74,15,226.74,15.361v6.973c0,0.361,0.068,0.701,0.205,1.019s0.322,0.593,0.557,0.827
			s0.511,0.42,0.828,0.557s0.656,0.205,1.018,0.205h1.201c0.361,0,0.701-0.068,1.019-0.205s0.593-0.322,0.827-0.557
			s0.42-0.51,0.557-0.827s0.205-0.657,0.205-1.019v-6.973H233.156z"/>
		<path fill="#000101" d="M242.971,13.063c-0.361,0-0.7,0.068-1.018,0.205s-0.594,0.322-0.828,0.557s-0.42,0.51-0.557,0.827
			s-0.205,0.657-0.205,1.019v10.678h-1.801v-15h0.6l0.982,1.523c0.41-0.557,0.925-0.998,1.545-1.325s1.297-0.491,2.029-0.491h1.055
			v2.008L242.971,13.063L242.971,13.063z"/>
		<path fill="#000101" d="M256.851,23.945c-0.229,0.537-0.544,1.006-0.944,1.406s-0.869,0.716-1.406,0.945s-1.109,0.344-1.715,0.344
			h-1.201c-0.605,0-1.176-0.114-1.713-0.344s-1.006-0.545-1.406-0.945s-0.716-0.869-0.945-1.406s-0.344-1.107-0.344-1.713v-6.768
			c0-0.605,0.114-1.178,0.344-1.715s0.545-1.006,0.945-1.406c0.4-0.4,0.869-0.715,1.406-0.944s1.107-0.345,1.713-0.345h1.201
			c0.605,0,1.178,0.115,1.715,0.345s1.006,0.544,1.406,0.944c0.4,0.4,0.715,0.869,0.944,1.406s0.345,1.109,0.345,1.715v3.529h-8.219
			v3.34c0,0.361,0.068,0.701,0.205,1.019s0.322,0.593,0.557,0.827s0.511,0.42,0.828,0.557s0.656,0.205,1.018,0.205h1.201
			c0.361,0,0.701-0.068,1.019-0.205s0.593-0.322,0.827-0.557s0.42-0.51,0.557-0.827s0.205-0.657,0.205-1.019v-0.996l1.803,0.293
			v0.602C257.195,22.838,257.08,23.408,256.851,23.945z M255.393,15.361c0-0.361-0.068-0.7-0.205-1.018s-0.322-0.594-0.557-0.828
			s-0.51-0.42-0.827-0.557s-0.657-0.205-1.019-0.205h-1.201c-0.361,0-0.7,0.068-1.018,0.205s-0.594,0.322-0.828,0.557
			s-0.42,0.511-0.557,0.828s-0.205,0.656-0.205,1.018v2.227h6.416v-2.227H255.393z"/>
		<path fill="#000101" d="M268.299,26.348V5.342h1.801v21.006H268.299z"/>
		<path fill="#000101" d="M283.723,26.348l-0.996-1.494c-0.41,0.537-0.922,0.97-1.537,1.297s-1.289,0.49-2.021,0.49h-0.455
			c-0.605,0-1.176-0.114-1.713-0.344s-1.006-0.545-1.406-0.945s-0.716-0.869-0.945-1.406s-0.344-1.107-0.344-1.713v-0.146
			c0-0.605,0.114-1.178,0.344-1.715s0.545-1.006,0.945-1.406s0.869-0.715,1.406-0.944s1.107-0.345,1.713-0.345h3.809v-2.314
			c0-0.361-0.068-0.7-0.205-1.018s-0.322-0.594-0.557-0.828s-0.51-0.42-0.827-0.557s-0.657-0.205-1.019-0.205h-1.055
			c-0.361,0-0.7,0.068-1.018,0.205s-0.594,0.322-0.828,0.557s-0.42,0.511-0.557,0.828s-0.205,0.656-0.205,1.018v0.543l-1.801-0.293
			v-0.146c0-0.605,0.114-1.178,0.344-1.715s0.545-1.006,0.945-1.406s0.869-0.715,1.406-0.944s1.107-0.345,1.713-0.345h1.055
			c0.605,0,1.178,0.115,1.715,0.345s1.006,0.544,1.406,0.944c0.4,0.4,0.715,0.869,0.944,1.406s0.345,1.109,0.345,1.715V26.35h-0.601
			V26.348z M282.521,19.082h-3.809c-0.361,0-0.7,0.068-1.018,0.205s-0.594,0.325-0.828,0.564s-0.42,0.518-0.557,0.835
			s-0.205,0.657-0.205,1.019v0.629c0,0.361,0.068,0.701,0.205,1.019s0.322,0.593,0.557,0.827s0.511,0.42,0.828,0.557
			s0.656,0.205,1.018,0.205h1.201c0.361,0,0.701-0.068,1.019-0.205s0.593-0.322,0.827-0.557s0.42-0.51,0.557-0.827
			s0.205-0.657,0.205-1.019V19.082z"/>
		<path fill="#000101" d="M304.502,23.945c-0.229,0.537-0.545,1.006-0.945,1.406s-0.869,0.716-1.406,0.945s-1.107,0.344-1.713,0.344
			h-1.201c-0.605,0-1.178-0.114-1.715-0.344s-1.006-0.545-1.406-0.945s-0.715-0.869-0.944-1.406s-0.345-1.107-0.345-1.713v-6.768
			c0-0.605,0.115-1.178,0.345-1.715s0.544-1.006,0.944-1.406s0.869-0.715,1.406-0.944s1.109-0.345,1.715-0.345h1.201
			c0.605,0,1.176,0.115,1.713,0.345s1.006,0.544,1.406,0.944c0.4,0.4,0.716,0.869,0.945,1.406s0.344,1.109,0.344,1.715v3.529h-8.217
			v3.34c0,0.361,0.068,0.701,0.205,1.019s0.322,0.593,0.557,0.827s0.51,0.42,0.827,0.557s0.657,0.205,1.019,0.205h1.201
			c0.361,0,0.7-0.068,1.018-0.205s0.594-0.322,0.828-0.557s0.42-0.51,0.557-0.827s0.205-0.657,0.205-1.019v-0.996l1.801,0.293v0.602
			C304.846,22.838,304.731,23.408,304.502,23.945z M303.045,15.361c0-0.361-0.068-0.7-0.205-1.018s-0.322-0.594-0.557-0.828
			s-0.511-0.42-0.828-0.557s-0.656-0.205-1.018-0.205h-1.201c-0.361,0-0.701,0.068-1.019,0.205s-0.593,0.322-0.827,0.557
			s-0.42,0.511-0.557,0.828s-0.205,0.656-0.205,1.018v2.227h6.416v-2.227H303.045z"/>
		<path fill="#000101" d="M318.762,22.539c0,0.605-0.121,1.16-0.365,1.663s-0.576,0.935-0.996,1.296s-0.906,0.643-1.458,0.843
			s-1.13,0.3-1.735,0.3h-1.201c-0.605,0-1.185-0.114-1.736-0.344s-1.035-0.545-1.45-0.945s-0.747-0.869-0.996-1.406
			s-0.374-1.107-0.374-1.713v-0.602l1.803-0.293v0.996c0,0.361,0.075,0.701,0.227,1.019s0.354,0.593,0.607,0.827
			s0.547,0.42,0.879,0.557s0.68,0.205,1.041,0.205h1.201c0.361,0,0.707-0.053,1.039-0.16s0.628-0.262,0.887-0.462
			s0.464-0.442,0.615-0.726s0.227-0.605,0.227-0.967c0-0.537-0.117-0.977-0.352-1.318s-0.544-0.627-0.93-0.856
			s-0.825-0.42-1.318-0.571s-0.998-0.303-1.516-0.454s-1.023-0.325-1.517-0.521s-0.933-0.451-1.318-0.769s-0.696-0.716-0.931-1.194
			s-0.352-1.074-0.352-1.787c0-0.605,0.117-1.159,0.352-1.662s0.553-0.936,0.953-1.297s0.866-0.642,1.398-0.842
			s1.102-0.301,1.707-0.301h1.055c0.605,0,1.176,0.115,1.713,0.345s1.006,0.544,1.406,0.944s0.716,0.869,0.945,1.406
			s0.344,1.109,0.344,1.715v0.059l-1.801,0.293v-0.455c0-0.361-0.068-0.7-0.205-1.018s-0.322-0.594-0.557-0.828
			s-0.511-0.42-0.828-0.557s-0.656-0.205-1.018-0.205h-1.055c-0.361,0-0.701,0.055-1.019,0.162s-0.593,0.261-0.827,0.461
			s-0.42,0.441-0.557,0.725s-0.205,0.605-0.205,0.967c0,0.518,0.117,0.94,0.352,1.268s0.544,0.604,0.93,0.828
			s0.825,0.412,1.318,0.563s0.996,0.308,1.509,0.469s1.016,0.345,1.509,0.55s0.933,0.469,1.318,0.791s0.695,0.725,0.93,1.208
			S318.762,21.826,318.762,22.539z"/>
		<path fill="#000101" d="M331.895,23.945c-0.229,0.537-0.545,1.006-0.945,1.406s-0.869,0.716-1.406,0.945s-1.107,0.344-1.713,0.344
			h-0.455c-0.674,0-1.299-0.137-1.875-0.41s-1.068-0.654-1.479-1.143v7.266h-1.803V11.348h0.602l0.98,1.523
			c0.41-0.557,0.926-0.998,1.546-1.325s1.296-0.491,2.028-0.491h0.455c0.605,0,1.176,0.115,1.713,0.345s1.006,0.544,1.406,0.944
			s0.716,0.869,0.945,1.406s0.344,1.109,0.344,1.715v6.768C332.238,22.838,332.124,23.408,331.895,23.945z M330.437,15.361
			c0-0.361-0.068-0.7-0.205-1.018s-0.322-0.594-0.557-0.828s-0.511-0.42-0.828-0.557s-0.656-0.205-1.018-0.205h-1.201
			c-0.361,0-0.701,0.068-1.019,0.205s-0.593,0.322-0.827,0.557s-0.42,0.511-0.557,0.828s-0.205,0.656-0.205,1.018v6.973
			c0,0.361,0.068,0.701,0.205,1.019s0.322,0.593,0.557,0.827s0.51,0.42,0.827,0.557s0.657,0.205,1.019,0.205h1.201
			c0.361,0,0.7-0.068,1.018-0.205s0.594-0.322,0.828-0.557s0.42-0.51,0.557-0.827s0.205-0.657,0.205-1.019V15.361z"/>
		<path fill="#000101" d="M345.517,23.945c-0.229,0.537-0.543,1.006-0.943,1.406s-0.869,0.716-1.406,0.945
			c-0.538,0.229-1.108,0.344-1.714,0.344h-1.201c-0.605,0-1.178-0.114-1.715-0.344s-1.006-0.545-1.406-0.945
			s-0.715-0.869-0.944-1.406s-0.345-1.107-0.345-1.713v-6.768c0-0.605,0.115-1.178,0.345-1.715s0.544-1.006,0.944-1.406
			s0.869-0.715,1.406-0.944s1.109-0.345,1.715-0.345h1.201c0.605,0,1.176,0.115,1.714,0.345c0.537,0.229,1.006,0.544,1.406,0.944
			c0.4,0.4,0.715,0.869,0.943,1.406c0.23,0.537,0.346,1.109,0.346,1.715v3.529h-8.218v3.34c0,0.361,0.068,0.701,0.205,1.019
			s0.322,0.593,0.557,0.827s0.51,0.42,0.827,0.557s0.657,0.205,1.019,0.205h1.201c0.361,0,0.7-0.068,1.018-0.205
			s0.593-0.322,0.827-0.557s0.42-0.51,0.557-0.827s0.205-0.657,0.205-1.019v-0.996l1.803,0.293v0.602
			C345.862,22.838,345.747,23.408,345.517,23.945z M344.06,15.361c0-0.361-0.068-0.7-0.205-1.018s-0.322-0.594-0.557-0.828
			s-0.51-0.42-0.827-0.557s-0.656-0.205-1.018-0.205h-1.201c-0.361,0-0.701,0.068-1.019,0.205s-0.593,0.322-0.827,0.557
			s-0.42,0.511-0.557,0.828s-0.205,0.656-0.205,1.018v2.227h6.415L344.06,15.361L344.06,15.361z"/>
		<path fill="#000101" d="M359.14,23.945c-0.229,0.537-0.544,1.006-0.944,1.406s-0.869,0.716-1.406,0.945s-1.108,0.344-1.714,0.344
			h-1.201c-0.605,0-1.177-0.114-1.714-0.344s-1.006-0.545-1.406-0.945s-0.716-0.869-0.944-1.406
			c-0.23-0.537-0.345-1.107-0.345-1.713v-6.768c0-0.605,0.114-1.178,0.345-1.715c0.229-0.537,0.544-1.006,0.944-1.406
			s0.869-0.715,1.406-0.944s1.108-0.345,1.714-0.345h1.201c0.605,0,1.177,0.115,1.714,0.345s1.006,0.544,1.406,0.944
			c0.4,0.4,0.715,0.869,0.944,1.406s0.345,1.109,0.345,1.715v0.6l-1.802,0.293v-0.996c0-0.361-0.068-0.7-0.205-1.018
			s-0.322-0.594-0.557-0.828s-0.511-0.42-0.828-0.557s-0.656-0.205-1.018-0.205h-1.201c-0.361,0-0.701,0.068-1.018,0.205
			c-0.318,0.137-0.594,0.322-0.828,0.557s-0.42,0.511-0.557,0.828s-0.205,0.656-0.205,1.018v6.973c0,0.361,0.068,0.701,0.205,1.019
			s0.322,0.593,0.557,0.827s0.51,0.42,0.828,0.557c0.316,0.137,0.656,0.205,1.018,0.205h1.201c0.361,0,0.7-0.068,1.018-0.205
			s0.594-0.322,0.828-0.557s0.42-0.51,0.557-0.827s0.205-0.657,0.205-1.019v-0.996l1.802,0.293v0.602
			C359.484,22.838,359.369,23.408,359.14,23.945z"/>
		<path fill="#000101" d="M363.542,7.744V5.342h2.095v2.402C365.637,7.744,363.542,7.744,363.542,7.744z M363.688,26.348v-15h1.802
			v15H363.688z"/>
		<path fill="#000101" d="M374.851,7.057c-0.303,0-0.584,0.056-0.843,0.168s-0.485,0.266-0.681,0.461s-0.35,0.426-0.462,0.689
			s-0.168,0.547-0.168,0.85v2.123h3.501v1.715h-3.501v13.285h-1.802V13.063h-2.71v-1.715h2.71V9.313
			c0-0.547,0.103-1.063,0.308-1.546s0.488-0.905,0.85-1.267s0.781-0.645,1.26-0.85s0.991-0.309,1.538-0.309h1.655v1.715h-1.655
			V7.057z"/>
		<path fill="#000101" d="M378.762,7.744V5.342h2.095v2.402C380.857,7.744,378.762,7.744,378.762,7.744z M378.908,26.348v-15h1.802
			v15H378.908z"/>
		<path fill="#000101" d="M394.589,23.945c-0.229,0.537-0.544,1.006-0.944,1.406s-0.869,0.716-1.406,0.945s-1.108,0.344-1.714,0.344
			h-1.201c-0.605,0-1.177-0.114-1.714-0.344s-1.006-0.545-1.406-0.945s-0.716-0.869-0.944-1.406
			c-0.23-0.537-0.345-1.107-0.345-1.713v-6.768c0-0.605,0.114-1.178,0.345-1.715c0.229-0.537,0.544-1.006,0.944-1.406
			s0.869-0.715,1.406-0.944s1.108-0.345,1.714-0.345h1.201c0.605,0,1.177,0.115,1.714,0.345s1.006,0.544,1.406,0.944
			c0.4,0.4,0.715,0.869,0.944,1.406s0.345,1.109,0.345,1.715v0.6l-1.802,0.293v-0.996c0-0.361-0.068-0.7-0.205-1.018
			s-0.322-0.594-0.557-0.828s-0.511-0.42-0.828-0.557s-0.656-0.205-1.018-0.205h-1.201c-0.361,0-0.701,0.068-1.018,0.205
			c-0.318,0.137-0.594,0.322-0.828,0.557s-0.42,0.511-0.557,0.828s-0.205,0.656-0.205,1.018v6.973c0,0.361,0.068,0.701,0.205,1.019
			s0.322,0.593,0.557,0.827s0.51,0.42,0.828,0.557c0.316,0.137,0.656,0.205,1.018,0.205h1.201c0.361,0,0.7-0.068,1.018-0.205
			s0.594-0.322,0.828-0.557s0.42-0.51,0.557-0.827s0.205-0.657,0.205-1.019v-0.996l1.802,0.293v0.602
			C394.934,22.838,394.818,23.408,394.589,23.945z"/>
		<path fill="#000101" d="M407.956,26.348l-0.996-1.494c-0.41,0.537-0.923,0.97-1.538,1.297s-1.289,0.49-2.021,0.49h-0.454
			c-0.605,0-1.177-0.114-1.714-0.344s-1.006-0.545-1.406-0.945s-0.716-0.869-0.944-1.406c-0.23-0.537-0.345-1.107-0.345-1.713
			v-0.146c0-0.605,0.114-1.178,0.345-1.715c0.229-0.537,0.544-1.006,0.944-1.406s0.869-0.715,1.406-0.944s1.108-0.345,1.714-0.345
			h3.809v-2.314c0-0.361-0.068-0.7-0.205-1.018s-0.322-0.594-0.557-0.828s-0.511-0.42-0.828-0.557s-0.656-0.205-1.018-0.205h-1.055
			c-0.361,0-0.701,0.068-1.018,0.205c-0.318,0.137-0.594,0.322-0.828,0.557s-0.42,0.511-0.557,0.828s-0.205,0.656-0.205,1.018v0.543
			l-1.802-0.293v-0.146c0-0.605,0.114-1.178,0.345-1.715c0.229-0.537,0.544-1.006,0.944-1.406s0.869-0.715,1.406-0.944
			s1.108-0.345,1.714-0.345h1.055c0.605,0,1.177,0.115,1.714,0.345s1.006,0.544,1.406,0.944c0.4,0.4,0.715,0.869,0.944,1.406
			s0.345,1.109,0.345,1.715V26.35h-0.6V26.348z M406.755,19.082h-3.809c-0.361,0-0.701,0.068-1.018,0.205
			c-0.318,0.137-0.594,0.325-0.828,0.564s-0.42,0.518-0.557,0.835s-0.205,0.657-0.205,1.019v0.629c0,0.361,0.068,0.701,0.205,1.019
			s0.322,0.593,0.557,0.827s0.51,0.42,0.828,0.557c0.316,0.137,0.656,0.205,1.018,0.205h1.201c0.361,0,0.7-0.068,1.018-0.205
			s0.594-0.322,0.828-0.557s0.42-0.51,0.557-0.827s0.205-0.657,0.205-1.019V19.082z"/>
		<path fill="#000101" d="M421.835,23.945c-0.229,0.537-0.544,1.006-0.944,1.406s-0.869,0.716-1.406,0.945s-1.108,0.344-1.714,0.344
			h-1.201c-0.605,0-1.177-0.114-1.714-0.344s-1.006-0.545-1.406-0.945s-0.716-0.869-0.944-1.406
			c-0.23-0.537-0.345-1.107-0.345-1.713v-6.768c0-0.605,0.114-1.178,0.345-1.715c0.229-0.537,0.544-1.006,0.944-1.406
			s0.869-0.715,1.406-0.944s1.108-0.345,1.714-0.345h1.201c0.605,0,1.177,0.115,1.714,0.345s1.006,0.544,1.406,0.944
			c0.4,0.4,0.715,0.869,0.944,1.406s0.345,1.109,0.345,1.715v0.6l-1.802,0.293v-0.996c0-0.361-0.068-0.7-0.205-1.018
			s-0.322-0.594-0.557-0.828s-0.511-0.42-0.828-0.557s-0.656-0.205-1.018-0.205h-1.201c-0.361,0-0.701,0.068-1.018,0.205
			c-0.318,0.137-0.594,0.322-0.828,0.557s-0.42,0.511-0.557,0.828s-0.205,0.656-0.205,1.018v6.973c0,0.361,0.068,0.701,0.205,1.019
			s0.322,0.593,0.557,0.827s0.51,0.42,0.828,0.557c0.316,0.137,0.656,0.205,1.018,0.205h1.201c0.361,0,0.7-0.068,1.018-0.205
			s0.594-0.322,0.828-0.557s0.42-0.51,0.557-0.827s0.205-0.657,0.205-1.019v-0.996l1.802,0.293v0.602
			C422.18,22.838,422.064,23.408,421.835,23.945z"/>
		<path fill="#000101" d="M426.237,7.744V5.342h2.095v2.402C428.332,7.744,426.237,7.744,426.237,7.744z M426.384,26.348v-15h1.802
			v15H426.384z"/>
		<path fill="#000101" d="M442.064,23.945c-0.229,0.537-0.544,1.006-0.944,1.406s-0.869,0.716-1.406,0.945S438.606,26.64,438,26.64
			h-1.201c-0.605,0-1.177-0.114-1.714-0.344s-1.006-0.545-1.406-0.945s-0.716-0.869-0.944-1.406
			c-0.23-0.537-0.345-1.107-0.345-1.713v-6.768c0-0.605,0.114-1.178,0.345-1.715c0.229-0.537,0.544-1.006,0.944-1.406
			s0.869-0.715,1.406-0.944s1.108-0.345,1.714-0.345H438c0.605,0,1.177,0.115,1.714,0.345s1.006,0.544,1.406,0.944
			c0.4,0.4,0.715,0.869,0.944,1.406s0.345,1.109,0.345,1.715v6.768C442.409,22.838,442.294,23.408,442.064,23.945z M440.607,15.361
			c0-0.361-0.068-0.7-0.205-1.018s-0.322-0.594-0.557-0.828s-0.511-0.42-0.828-0.557s-0.656-0.205-1.018-0.205h-1.201
			c-0.361,0-0.701,0.068-1.018,0.205c-0.318,0.137-0.594,0.322-0.828,0.557s-0.42,0.511-0.557,0.828s-0.205,0.656-0.205,1.018v6.973
			c0,0.361,0.068,0.701,0.205,1.019s0.322,0.593,0.557,0.827s0.51,0.42,0.828,0.557c0.316,0.137,0.656,0.205,1.018,0.205H438
			c0.361,0,0.7-0.068,1.018-0.205s0.594-0.322,0.828-0.557s0.42-0.51,0.557-0.827s0.205-0.657,0.205-1.019v-6.973H440.607z
			 M436.652,8.945h-1.348l2.388-3.604h3.003L436.652,8.945z"/>
		<path fill="#000101" d="M454.23,26.348V15.361c0-0.361-0.068-0.7-0.205-1.018s-0.322-0.594-0.557-0.828s-0.511-0.42-0.828-0.557
			s-0.656-0.205-1.018-0.205h-1.201c-0.361,0-0.701,0.068-1.018,0.205c-0.318,0.137-0.594,0.322-0.828,0.557
			s-0.42,0.511-0.557,0.828s-0.205,0.656-0.205,1.018v10.986h-1.802v-15h0.601l0.981,1.523c0.41-0.557,0.925-0.998,1.546-1.325
			c0.619-0.327,1.296-0.491,2.028-0.491h0.454c0.605,0,1.177,0.115,1.714,0.345s1.006,0.544,1.406,0.944s0.715,0.869,0.944,1.406
			s0.345,1.109,0.345,1.715v10.883L454.23,26.348L454.23,26.348z"/>
		<path fill="#000101" d="M475.954,26.348l-0.996-1.523c-0.41,0.557-0.923,0.999-1.538,1.326s-1.289,0.49-2.021,0.49h-0.454
			c-0.605,0-1.177-0.114-1.714-0.344s-1.006-0.545-1.406-0.945s-0.716-0.869-0.944-1.406c-0.23-0.537-0.345-1.107-0.345-1.713
			v-6.768c0-0.605,0.114-1.178,0.345-1.715c0.229-0.537,0.544-1.006,0.944-1.406s0.869-0.715,1.406-0.944s1.108-0.345,1.714-0.345
			h0.454c0.674,0,1.299,0.137,1.875,0.41s1.069,0.654,1.479,1.143V5.342h1.802v21.006H475.954z M474.753,15.361
			c0-0.361-0.068-0.7-0.205-1.018s-0.322-0.594-0.557-0.828s-0.511-0.42-0.828-0.557s-0.656-0.205-1.018-0.205h-1.201
			c-0.361,0-0.701,0.068-1.018,0.205c-0.318,0.137-0.594,0.322-0.828,0.557s-0.42,0.511-0.557,0.828s-0.205,0.656-0.205,1.018v6.973
			c0,0.361,0.068,0.701,0.205,1.019s0.322,0.593,0.557,0.827s0.51,0.42,0.828,0.557c0.316,0.137,0.656,0.205,1.018,0.205h1.201
			c0.361,0,0.7-0.068,1.018-0.205s0.594-0.322,0.828-0.557s0.42-0.51,0.557-0.827s0.205-0.657,0.205-1.019V15.361z"/>
		<path fill="#000101" d="M489.833,23.945c-0.229,0.537-0.544,1.006-0.944,1.406s-0.869,0.716-1.406,0.945s-1.108,0.344-1.714,0.344
			h-1.201c-0.605,0-1.177-0.114-1.714-0.344s-1.006-0.545-1.406-0.945s-0.716-0.869-0.944-1.406
			c-0.23-0.537-0.345-1.107-0.345-1.713v-6.768c0-0.605,0.114-1.178,0.345-1.715c0.229-0.537,0.544-1.006,0.944-1.406
			s0.869-0.715,1.406-0.944s1.108-0.345,1.714-0.345h1.201c0.605,0,1.177,0.115,1.714,0.345s1.006,0.544,1.406,0.944
			c0.4,0.4,0.715,0.869,0.944,1.406s0.345,1.109,0.345,1.715v3.529h-8.218v3.34c0,0.361,0.068,0.701,0.205,1.019
			s0.322,0.593,0.557,0.827s0.51,0.42,0.828,0.557c0.316,0.137,0.656,0.205,1.018,0.205h1.201c0.361,0,0.7-0.068,1.018-0.205
			s0.594-0.322,0.828-0.557s0.42-0.51,0.557-0.827s0.205-0.657,0.205-1.019v-0.996l1.802,0.293v0.602
			C490.178,22.838,490.062,23.408,489.833,23.945z M488.376,15.361c0-0.361-0.068-0.7-0.205-1.018s-0.322-0.594-0.557-0.828
			s-0.511-0.42-0.828-0.557s-0.656-0.205-1.018-0.205h-1.201c-0.361,0-0.701,0.068-1.018,0.205
			c-0.318,0.137-0.594,0.322-0.828,0.557s-0.42,0.511-0.557,0.828S481.96,15,481.96,15.361v2.227h6.416L488.376,15.361
			L488.376,15.361z"/>
		<path fill="#000101" d="M505.09,13.063c-0.361,0-0.701,0.068-1.018,0.205c-0.318,0.137-0.594,0.322-0.828,0.557
			s-0.42,0.51-0.557,0.827s-0.205,0.657-0.205,1.019v10.678h-1.802v-15h0.601l0.981,1.523c0.41-0.557,0.925-0.998,1.546-1.325
			c0.619-0.327,1.296-0.491,2.028-0.491h1.055v2.008L505.09,13.063L505.09,13.063z"/>
		<path fill="#000101" d="M518.969,23.945c-0.229,0.537-0.544,1.006-0.944,1.406s-0.869,0.716-1.406,0.945s-1.108,0.344-1.714,0.344
			h-1.201c-0.605,0-1.177-0.114-1.714-0.344c-0.537-0.229-1.006-0.545-1.406-0.945s-0.716-0.869-0.944-1.406
			c-0.23-0.537-0.345-1.107-0.345-1.713v-6.768c0-0.605,0.114-1.178,0.345-1.715c0.229-0.537,0.544-1.006,0.944-1.406
			s0.869-0.715,1.406-0.944c0.537-0.229,1.108-0.345,1.714-0.345h1.201c0.605,0,1.177,0.115,1.714,0.345s1.006,0.544,1.406,0.944
			c0.4,0.4,0.715,0.869,0.944,1.406s0.345,1.109,0.345,1.715v3.529h-8.218v3.34c0,0.361,0.068,0.701,0.205,1.019
			s0.322,0.593,0.557,0.827c0.234,0.234,0.51,0.42,0.828,0.557c0.316,0.137,0.656,0.205,1.018,0.205h1.201
			c0.361,0,0.7-0.068,1.018-0.205s0.594-0.322,0.828-0.557s0.42-0.51,0.557-0.827s0.205-0.657,0.205-1.019v-0.996l1.802,0.293v0.602
			C519.313,22.838,519.198,23.408,518.969,23.945z M517.512,15.361c0-0.361-0.068-0.7-0.205-1.018s-0.322-0.594-0.557-0.828
			s-0.511-0.42-0.828-0.557s-0.656-0.205-1.018-0.205h-1.201c-0.361,0-0.701,0.068-1.018,0.205
			c-0.318,0.137-0.594,0.322-0.828,0.557c-0.234,0.234-0.42,0.511-0.557,0.828s-0.205,0.656-0.205,1.018v2.227h6.416v-2.227H517.512
			z"/>
		<path fill="#000101" d="M531.135,32.354v-7.266c-0.41,0.488-0.903,0.869-1.479,1.143s-1.201,0.41-1.875,0.41h-0.454
			c-0.605,0-1.177-0.114-1.714-0.344s-1.006-0.545-1.406-0.945s-0.716-0.869-0.944-1.406c-0.23-0.537-0.345-1.107-0.345-1.713
			v-6.768c0-0.605,0.114-1.178,0.345-1.715c0.229-0.537,0.544-1.006,0.944-1.406c0.4-0.4,0.869-0.715,1.406-0.944
			s1.108-0.345,1.714-0.345h0.454c0.732,0,1.406,0.164,2.021,0.491s1.128,0.769,1.538,1.325l0.996-1.523h0.601v21.006
			C532.937,32.354,531.135,32.354,531.135,32.354z M531.135,15.361c0-0.361-0.068-0.7-0.205-1.018s-0.322-0.594-0.557-0.828
			s-0.511-0.42-0.828-0.557s-0.656-0.205-1.018-0.205h-1.201c-0.361,0-0.701,0.068-1.018,0.205
			c-0.318,0.137-0.594,0.322-0.828,0.557s-0.42,0.511-0.557,0.828s-0.205,0.656-0.205,1.018v6.973c0,0.361,0.068,0.701,0.205,1.019
			s0.322,0.593,0.557,0.827s0.51,0.42,0.828,0.557c0.316,0.137,0.656,0.205,1.018,0.205h1.201c0.361,0,0.7-0.068,1.018-0.205
			s0.594-0.322,0.828-0.557s0.42-0.51,0.557-0.827s0.205-0.657,0.205-1.019V15.361z"/>
		<path fill="#000101" d="M545.959,26.348l-0.996-1.523c-0.41,0.557-0.923,0.999-1.538,1.326s-1.289,0.49-2.021,0.49h-0.454
			c-0.605,0-1.177-0.114-1.714-0.344s-1.006-0.545-1.406-0.945s-0.716-0.869-0.944-1.406c-0.23-0.537-0.345-1.107-0.345-1.713
			V11.348h1.802v10.986c0,0.361,0.068,0.701,0.205,1.019s0.322,0.593,0.557,0.827s0.51,0.42,0.828,0.557
			c0.316,0.137,0.656,0.205,1.018,0.205h1.201c0.361,0,0.7-0.068,1.018-0.205s0.594-0.322,0.828-0.557s0.42-0.51,0.557-0.827
			s0.205-0.657,0.205-1.019V11.348h1.802v15H545.959z"/>
		<path fill="#000101" d="M559.838,23.945c-0.229,0.537-0.544,1.006-0.944,1.406s-0.869,0.716-1.406,0.945s-1.108,0.344-1.714,0.344
			h-1.201c-0.605,0-1.177-0.114-1.714-0.344s-1.006-0.545-1.406-0.945s-0.716-0.869-0.944-1.406
			c-0.23-0.537-0.345-1.107-0.345-1.713v-6.768c0-0.605,0.114-1.178,0.345-1.715c0.229-0.537,0.544-1.006,0.944-1.406
			c0.4-0.4,0.869-0.715,1.406-0.944s1.108-0.345,1.714-0.345h1.201c0.605,0,1.177,0.115,1.714,0.345s1.006,0.544,1.406,0.944
			c0.4,0.4,0.715,0.869,0.944,1.406s0.345,1.109,0.345,1.715v3.529h-8.218v3.34c0,0.361,0.068,0.701,0.205,1.019
			s0.322,0.593,0.557,0.827s0.51,0.42,0.828,0.557c0.316,0.137,0.656,0.205,1.018,0.205h1.201c0.361,0,0.7-0.068,1.018-0.205
			s0.594-0.322,0.828-0.557s0.42-0.51,0.557-0.827s0.205-0.657,0.205-1.019v-0.996l1.802,0.293v0.602
			C560.183,22.838,560.067,23.408,559.838,23.945z M558.381,15.361c0-0.361-0.068-0.7-0.205-1.018s-0.322-0.594-0.557-0.828
			s-0.511-0.42-0.828-0.557s-0.656-0.205-1.018-0.205h-1.201c-0.361,0-0.701,0.068-1.018,0.205
			c-0.318,0.137-0.594,0.322-0.828,0.557s-0.42,0.511-0.557,0.828s-0.205,0.656-0.205,1.018v2.227h6.416v-2.227H558.381z"/>
		<path fill="#000101" d="M568.195,13.063c-0.361,0-0.701,0.068-1.018,0.205c-0.318,0.137-0.594,0.322-0.828,0.557
			s-0.42,0.51-0.557,0.827s-0.205,0.657-0.205,1.019v10.678h-1.802v-15h0.601l0.981,1.523c0.41-0.557,0.925-0.998,1.546-1.325
			c0.619-0.327,1.296-0.491,2.028-0.491h1.055v2.008L568.195,13.063L568.195,13.063z"/>
		<path fill="#000101" d="M572.854,7.744V5.342h2.095v2.402C574.949,7.744,572.854,7.744,572.854,7.744z M573,26.348v-15h1.802v15
			H573z"/>
		<path fill="#000101" d="M594.841,26.348V15.361c0-0.361-0.068-0.7-0.205-1.018s-0.322-0.594-0.557-0.828s-0.511-0.42-0.828-0.557
			s-0.656-0.205-1.018-0.205h-0.894c-0.361,0-0.701,0.068-1.019,0.205s-0.596,0.322-0.834,0.557
			c-0.24,0.234-0.428,0.511-0.564,0.828s-0.205,0.656-0.205,1.018v10.986h-1.787V15.361c0-0.361-0.068-0.7-0.205-1.018
			s-0.325-0.594-0.564-0.828s-0.518-0.42-0.834-0.557c-0.318-0.137-0.657-0.205-1.019-0.205h-0.894
			c-0.361,0-0.701,0.068-1.018,0.205c-0.318,0.137-0.594,0.322-0.828,0.557s-0.42,0.511-0.557,0.828s-0.205,0.656-0.205,1.018
			v10.986h-1.802v-15h0.601l0.981,1.523c0.41-0.557,0.925-0.998,1.546-1.325c0.619-0.327,1.296-0.491,2.028-0.491h0.146
			c0.85,0,1.616,0.211,2.3,0.631c0.684,0.42,1.211,0.977,1.582,1.67c0.186-0.342,0.415-0.654,0.688-0.938s0.576-0.525,0.908-0.726
			s0.693-0.356,1.084-0.469s0.796-0.169,1.216-0.169h0.146c0.605,0,1.177,0.115,1.714,0.345s1.006,0.544,1.406,0.944
			c0.4,0.4,0.715,0.869,0.944,1.406s0.345,1.109,0.345,1.715v10.883h-1.798V26.348z"/>
		<path fill="#000101" d="M600.7,7.744V5.342h2.095v2.402C602.795,7.744,600.7,7.744,600.7,7.744z M600.847,26.348v-15h1.802v15
			H600.847z"/>
		<path fill="#000101" d="M616.527,23.945c-0.229,0.537-0.544,1.006-0.944,1.406s-0.869,0.716-1.406,0.945s-1.108,0.344-1.714,0.344
			h-1.201c-0.605,0-1.177-0.114-1.714-0.344s-1.006-0.545-1.406-0.945s-0.716-0.869-0.944-1.406
			c-0.23-0.537-0.345-1.107-0.345-1.713v-6.768c0-0.605,0.114-1.178,0.345-1.715c0.229-0.537,0.544-1.006,0.944-1.406
			c0.4-0.4,0.869-0.715,1.406-0.944s1.108-0.345,1.714-0.345h1.201c0.605,0,1.177,0.115,1.714,0.345s1.006,0.544,1.406,0.944
			c0.4,0.4,0.715,0.869,0.944,1.406s0.345,1.109,0.345,1.715v3.529h-8.218v3.34c0,0.361,0.068,0.701,0.205,1.019
			s0.322,0.593,0.557,0.827s0.51,0.42,0.828,0.557c0.316,0.137,0.656,0.205,1.018,0.205h1.201c0.361,0,0.7-0.068,1.018-0.205
			s0.594-0.322,0.828-0.557s0.42-0.51,0.557-0.827s0.205-0.657,0.205-1.019v-0.996l1.802,0.293v0.602
			C616.872,22.838,616.757,23.408,616.527,23.945z M615.07,15.361c0-0.361-0.068-0.7-0.205-1.018s-0.322-0.594-0.557-0.828
			s-0.511-0.42-0.828-0.557s-0.656-0.205-1.018-0.205h-1.201c-0.361,0-0.701,0.068-1.018,0.205
			c-0.318,0.137-0.594,0.322-0.828,0.557s-0.42,0.511-0.557,0.828s-0.205,0.656-0.205,1.018v2.227h6.416v-2.227H615.07z"/>
		<path fill="#000101" d="M628.693,26.348V15.361c0-0.361-0.068-0.7-0.205-1.018s-0.322-0.594-0.557-0.828s-0.511-0.42-0.828-0.557
			s-0.656-0.205-1.018-0.205h-1.201c-0.361,0-0.701,0.068-1.018,0.205c-0.318,0.137-0.594,0.322-0.828,0.557
			s-0.42,0.511-0.557,0.828s-0.205,0.656-0.205,1.018v10.986h-1.802v-15h0.601l0.981,1.523c0.41-0.557,0.925-0.998,1.546-1.325
			c0.619-0.327,1.296-0.491,2.028-0.491h0.454c0.605,0,1.177,0.115,1.714,0.345s1.006,0.544,1.406,0.944s0.715,0.869,0.944,1.406
			s0.345,1.109,0.345,1.715v10.883L628.693,26.348L628.693,26.348z"/>
		<path fill="#000101" d="M639.563,26.348c-0.547,0-1.063-0.102-1.545-0.307c-0.484-0.205-0.904-0.488-1.26-0.85
			c-0.357-0.361-0.641-0.781-0.85-1.26c-0.211-0.479-0.315-0.992-0.315-1.539v-9.33h-2.695v-1.715h2.695V7.743l1.802-0.293v3.896
			h3.809v1.715h-3.809v9.418c0,0.303,0.056,0.584,0.168,0.843s0.267,0.485,0.462,0.681s0.425,0.35,0.688,0.462
			s0.547,0.169,0.85,0.169h1.641v1.713L639.563,26.348L639.563,26.348z"/>
		<path fill="#000101" d="M654.188,23.945c-0.229,0.537-0.544,1.006-0.944,1.406s-0.869,0.716-1.406,0.945s-1.108,0.344-1.714,0.344
			h-1.201c-0.605,0-1.177-0.114-1.714-0.344s-1.006-0.545-1.406-0.945s-0.716-0.869-0.944-1.406
			c-0.23-0.537-0.345-1.107-0.345-1.713v-6.768c0-0.605,0.114-1.178,0.345-1.715c0.229-0.537,0.544-1.006,0.944-1.406
			c0.4-0.4,0.869-0.715,1.406-0.944s1.108-0.345,1.714-0.345h1.201c0.605,0,1.177,0.115,1.714,0.345s1.006,0.544,1.406,0.944
			c0.4,0.4,0.715,0.869,0.944,1.406s0.345,1.109,0.345,1.715v6.768C654.533,22.838,654.418,23.408,654.188,23.945z M652.731,15.361
			c0-0.361-0.068-0.7-0.205-1.018s-0.322-0.594-0.557-0.828s-0.511-0.42-0.828-0.557s-0.656-0.205-1.018-0.205h-1.201
			c-0.361,0-0.701,0.068-1.018,0.205c-0.318,0.137-0.594,0.322-0.828,0.557s-0.42,0.511-0.557,0.828s-0.205,0.656-0.205,1.018v6.973
			c0,0.361,0.068,0.701,0.205,1.019s0.322,0.593,0.557,0.827s0.51,0.42,0.828,0.557c0.316,0.137,0.656,0.205,1.018,0.205h1.201
			c0.361,0,0.7-0.068,1.018-0.205s0.594-0.322,0.828-0.557s0.42-0.51,0.557-0.827s0.205-0.657,0.205-1.019V15.361z"/>
		<path fill="#000101" d="M668.449,22.539c0,0.605-0.122,1.16-0.366,1.663s-0.576,0.935-0.996,1.296s-0.906,0.643-1.457,0.843
			c-0.553,0.2-1.131,0.3-1.736,0.3h-1.201c-0.605,0-1.185-0.114-1.736-0.344s-1.035-0.545-1.449-0.945
			c-0.416-0.4-0.748-0.869-0.996-1.406c-0.25-0.537-0.374-1.107-0.374-1.713v-0.602l1.802-0.293v0.996
			c0,0.361,0.075,0.701,0.227,1.019s0.354,0.593,0.608,0.827s0.547,0.42,0.879,0.557s0.679,0.205,1.04,0.205h1.201
			c0.361,0,0.708-0.053,1.04-0.16s0.627-0.262,0.886-0.462s0.464-0.442,0.615-0.726s0.228-0.605,0.228-0.967
			c0-0.537-0.117-0.977-0.352-1.318s-0.545-0.627-0.931-0.856s-0.825-0.42-1.318-0.571s-0.998-0.303-1.516-0.454
			s-1.023-0.325-1.516-0.521c-0.494-0.195-0.934-0.451-1.318-0.769c-0.387-0.317-0.696-0.716-0.931-1.194s-0.352-1.074-0.352-1.787
			c0-0.605,0.117-1.159,0.352-1.662s0.552-0.936,0.952-1.297s0.866-0.642,1.398-0.842s1.102-0.301,1.707-0.301h1.055
			c0.605,0,1.177,0.115,1.714,0.345s1.006,0.544,1.406,0.944s0.715,0.869,0.944,1.406s0.345,1.109,0.345,1.715v0.059l-1.802,0.293
			v-0.455c0-0.361-0.068-0.7-0.205-1.018s-0.322-0.594-0.557-0.828s-0.511-0.42-0.828-0.557s-0.656-0.205-1.018-0.205h-1.055
			c-0.361,0-0.701,0.055-1.018,0.162c-0.318,0.107-0.594,0.261-0.828,0.461s-0.42,0.441-0.557,0.725s-0.205,0.605-0.205,0.967
			c0,0.518,0.117,0.94,0.352,1.268s0.544,0.604,0.93,0.828s0.825,0.412,1.318,0.563s0.996,0.308,1.51,0.469
			c0.512,0.161,1.015,0.345,1.508,0.55s0.933,0.469,1.318,0.791s0.696,0.725,0.931,1.208S668.449,21.826,668.449,22.539z"/>
	</g>
</g>
<g id="XMLID_1_">
	<g id="XMLID_6_">
		<g>
			<g>
				<g>
					<defs>
						<rect id="SVGID_1_" x="6.239" y="7.259" width="27.337" height="24.051"/>
					</defs>
					<clipPath id="SVGID_2_">
						<use xlink:href="#SVGID_1_"  overflow="visible"/>
					</clipPath>
					
						<path id="XMLID_8_" clip-path="url(#SVGID_2_)" fill="#154A8B" stroke="#000101" stroke-width="0.5" stroke-miterlimit="10" d="
						M31.353,17.323h-5.725l-3.071,2.967v-2.967h-1.27c-0.954,0-1.697-0.74-1.697-1.695v-6.25c0-0.953,0.743-1.695,1.697-1.695
						h10.17c0.953,0,1.694,0.742,1.694,1.695v6.25C33.048,16.583,32.306,17.323,31.353,17.323L31.353,17.323z"/>
				</g>
			</g>
		</g>
		<g>
			<g>
				<g>
					<defs>
						<rect id="SVGID_3_" x="6.239" y="7.259" width="27.337" height="24.051"/>
					</defs>
					<clipPath id="SVGID_4_">
						<use xlink:href="#SVGID_3_"  overflow="visible"/>
					</clipPath>
					<path id="XMLID_7_" clip-path="url(#SVGID_4_)" fill="#000101" d="M10.689,29.085L10.689,29.085l2.119-0.318v2.014
						c0,0.318,0.213,0.529,0.53,0.529h10.596c0.316,0,0.529-0.211,0.529-0.529v-7.205c0.848-0.848,1.59-1.908,2.119-2.969
						c0.106-0.211,0-0.527-0.213-0.635c-0.212-0.106-0.528,0-0.633,0.215c-0.426,1.059-1.167,2.01-2.015,2.859
						c-0.105,0.105-0.214,0.213-0.214,0.424v6.887h-9.534v-2.119c0-0.107-0.104-0.318-0.211-0.424
						c-0.106-0.105-0.214-0.105-0.425-0.105l-2.543,0.422c-0.742,0-1.377-0.635-1.377-1.377v-3.389c0-0.318-0.212-0.531-0.529-0.531
						H8.042c-0.319,0-0.529-0.105-0.637-0.213C7.3,22.515,7.3,22.196,7.513,21.985l1.801-3.496c0-0.108,0.105-0.108,0.105-0.213
						v-1.483c0-3.283,1.907-6.25,4.872-7.627c1.061-0.531,2.119-0.742,3.285-0.85c0.317,0,0.531-0.213,0.531-0.529
						c0-0.318-0.214-0.529-0.531-0.529c-1.27,0.105-2.436,0.318-3.602,0.846c-3.285,1.592-5.509,4.875-5.509,8.584v1.379
						l-1.801,3.389c-0.318,0.529-0.318,1.164,0,1.59c0.316,0.424,0.848,0.74,1.479,0.74h0.321v2.863
						C8.252,28.024,9.314,29.085,10.689,29.085L10.689,29.085z"/>
				</g>
			</g>
		</g>
	</g>
	<path id="XMLID_5_" fill="#000101" d="M22.345,20.821c0.107,0,0.107,0,0.212,0c0.106,0,0.212,0,0.317-0.107l2.968-2.861h5.511
		c1.164,0,2.224-0.953,2.224-2.225v-6.25c0-1.166-0.954-2.225-2.224-2.225H21.18c-1.166,0-2.226,0.951-2.226,2.225v6.25
		c0,1.166,0.952,2.225,2.226,2.225h0.846v2.438C22.025,20.501,22.132,20.714,22.345,20.821L22.345,20.821z M21.18,16.901
		c-0.637,0-1.166-0.531-1.166-1.166V9.483c0-0.637,0.529-1.166,1.166-1.166h10.173c0.634,0,1.164,0.529,1.164,1.166v6.252
		c0,0.635-0.53,1.166-1.164,1.166h-5.725c-0.104,0-0.211,0-0.316,0.105l-2.225,2.119v-1.803c0-0.316-0.213-0.529-0.53-0.529H21.18
		V16.901z"/>
	<path id="XMLID_4_" fill="#000101" d="M26.265,13.296c0.105,0,0.213-0.106,0.318-0.106c0.106-0.105,0.106-0.211,0.106-0.316
		s-0.106-0.211-0.106-0.318c-0.105-0.106-0.213-0.106-0.318-0.106c-0.106,0-0.211,0.106-0.316,0.106
		c-0.106,0.107-0.106,0.213-0.106,0.318c0,0.106,0.106,0.211,0.106,0.316C26.054,13.296,26.158,13.296,26.265,13.296L26.265,13.296z
		"/>
	<path id="XMLID_3_" fill="#000101" d="M28.172,13.296c0.105,0,0.214-0.106,0.317-0.106c0.108-0.105,0.108-0.211,0.108-0.316
		s-0.108-0.211-0.108-0.318c-0.104-0.106-0.212-0.106-0.317-0.106c-0.104,0-0.212,0.106-0.316,0.106
		c-0.109,0.107-0.109,0.213-0.109,0.318c0,0.106,0.109,0.211,0.109,0.316C27.96,13.296,28.067,13.296,28.172,13.296L28.172,13.296z"
		/>
	<path id="XMLID_2_" fill="#000101" d="M24.358,13.296c0.105,0,0.212-0.106,0.314-0.106c0.109-0.105,0.109-0.211,0.109-0.316
		s-0.109-0.211-0.109-0.318c-0.103-0.106-0.209-0.106-0.314-0.106c-0.107,0-0.214,0.106-0.319,0.106
		c-0.104,0.107-0.104,0.213-0.104,0.318c0,0.106,0.104,0.211,0.104,0.316C24.145,13.296,24.251,13.296,24.358,13.296L24.358,13.296z
		"/>
</g>
</svg>
