<?xml version="1.0" encoding="utf-8"?>
<!-- Generator: Adobe Illustrator 17.0.0, SVG Export Plug-In . SVG Version: 6.00 Build 0)  -->
<!DOCTYPE svg PUBLIC "-//W3C//DTD SVG 1.1//EN" "http://www.w3.org/Graphics/SVG/1.1/DTD/svg11.dtd" [
	<!ENTITY ns_extend "http://ns.adobe.com/Extensibility/1.0/">
	<!ENTITY ns_ai "http://ns.adobe.com/AdobeIllustrator/10.0/">
	<!ENTITY ns_graphs "http://ns.adobe.com/Graphs/1.0/">
	<!ENTITY ns_vars "http://ns.adobe.com/Variables/1.0/">
	<!ENTITY ns_imrep "http://ns.adobe.com/ImageReplacement/1.0/">
	<!ENTITY ns_sfw "http://ns.adobe.com/SaveForWeb/1.0/">
	<!ENTITY ns_custom "http://ns.adobe.com/GenericCustomNamespace/1.0/">
	<!ENTITY ns_adobe_xpath "http://ns.adobe.com/XPath/1.0/">
]>
<svg version="1.1" id="Capa_1" xmlns:x="&ns_extend;" xmlns:i="&ns_ai;" xmlns:graph="&ns_graphs;"
	 xmlns="http://www.w3.org/2000/svg" xmlns:xlink="http://www.w3.org/1999/xlink" x="0px" y="0px" width="278.166px"
	 height="416.168px" viewBox="0 0 278.166 416.168" enable-background="new 0 0 278.166 416.168" xml:space="preserve">
<metadata>
	<sfw  xmlns="&ns_sfw;">
		<slices></slices>
		<sliceSourceBounds  width="278.166" height="416.168" x="543.417" y="542.416" bottomLeftOrigin="true"></sliceSourceBounds>
	</sfw>
</metadata>
<g>
	<g>
		<defs>
			<rect id="SVGID_1_" x="0" y="61.043" width="278.166" height="310"/>
		</defs>
		<clipPath id="SVGID_2_">
			<use xlink:href="#SVGID_1_"  overflow="visible"/>
		</clipPath>
		<g clip-path="url(#SVGID_2_)">
			<path fill="#967C0C" d="M81.263,203.643c0,4.605,4.417,8.339,9.864,8.339c5.449,0,9.866-3.734,9.866-8.339
				c0-4.604,0-10.174-9.866-8.338C85.679,195.305,78.823,198.321,81.263,203.643"/>
			<path fill="none" stroke="#C4A318" stroke-miterlimit="10" d="M81.263,203.643c0,4.605,4.417,8.339,9.864,8.339
				c5.449,0,9.866-3.734,9.866-8.339c0-4.604,0-10.174-9.866-8.338C85.679,195.305,78.823,198.321,81.263,203.643z"/>
			<path fill="#574A35" d="M177.541,93.19c0,0,6.924,5.183,5.464,11.701c-1.46,6.519-1.025,7.506-2.71,13.031
				c-1.686,5.524,1.251,11.021-4.622,11.209c-5.871,0.186-11.747-6.41-12.918-8.396C161.583,118.749,172.316,90.796,177.541,93.19"
				/>
			<path fill="none" stroke="#4C3617" stroke-miterlimit="10" d="M177.541,93.19c0,0,6.924,5.183,5.464,11.701
				c-1.46,6.519-1.025,7.506-2.71,13.031c-1.686,5.524,1.251,11.021-4.622,11.209c-5.871,0.186-11.747-6.41-12.918-8.396
				C161.583,118.749,172.316,90.796,177.541,93.19z"/>
			<path fill="#FFC691" d="M104.846,162.637c0,0.817-10.947,41.468-13.51,44.842c-2.562,3.375,11.059,34.664,15.145,34.684
				c4.087,0.02,47.368,14.186,47.368,14.186s5.753-36.623,6.434-37.381s-27.105-15.74-27.922-16.012
				c-0.817-0.273-22.883-16.346-23.428-18.525C108.387,182.251,104.846,162.637,104.846,162.637"/>
			<path fill="none" stroke="#F1B486" stroke-miterlimit="10" d="M104.846,162.637c0,0.817-10.947,41.468-13.51,44.842
				c-2.562,3.375,11.059,34.664,15.145,34.684c4.087,0.02,47.368,14.186,47.368,14.186s5.753-36.623,6.434-37.381
				s-27.105-15.74-27.922-16.012c-0.817-0.273-22.883-16.346-23.428-18.525C108.387,182.251,104.846,162.637,104.846,162.637z"/>
			<path fill="#F1B486" d="M104.053,166.038c0,0-10.185,38.303-11.496,38.825c-1.311,0.524-2.24,6.287-2.425,7.119
				c-0.186,0.83,16.89,10.48,16.89,10.48s5.198-7.478,4.269-10.791c-0.928-3.314-6.297-15.937-6.297-15.937
				s12.007,20.499,25.765,24.819c13.758,4.322,21.103-2.731,22.441-2.731c1.34,0-4.495-9.838-4.495-9.838
				s-22.233-13.734-23.048-14.476C124.842,192.766,104.053,166.038,104.053,166.038"/>
			<path fill="#18252B" d="M31.286,395.95l-0.883,7.822c0,0,6.134,4.876,9.395,6.506c3.262,1.63,10.147,8.155,22.651,5.074
				c12.502-3.08,32.59-14.495,45.286-17.032c12.698-2.538,12.792-9.062,30.865-9.242c18.074-0.182,49.079-8.756,55.873-10.872
				c6.791-2.116,12.394-6.161,11.851-6.704c-0.544-0.545-19.932-9.242-20.476-9.242c-0.544,0-51.947,12.504-51.947,12.504
				l-54.295,21.744c0,0-28.391,1.449-28.933,1.269C50.127,397.595,31.286,395.95,31.286,395.95"/>
			<path fill="#FFCC04" d="M80.808,200.607c0,0-2.023,10.156-2.749,11.245c-0.727,1.089-19.614,18.888-24.336,23.247
				c-4.722,4.358-14.891,17.07-19.614,20.703c-4.721,3.633-4.358,2.905-6.538,14.892c-2.179,11.985-6.538,29.42-7.99,36.322
				c-1.453,6.901-2.179,15.255-2.179,19.614c0,4.357,31.703-8.718,31.703-8.718s-9.247,49.761-12.302,57.025
				c-3.056,7.264-10.684,11.622-9.957,17.797c0.726,6.175,20.34,21.43,31.963,19.252c11.623-2.18,53.756-24.337,59.568-24.337
				c5.811,0,32.326-3.994,42.859-6.174c10.534-2.18,22.52-7.629,31.237-7.265c8.717,0.362,10.532-13.076,10.532-13.076
				s-13.076-91.894-12.711-92.983c0.363-1.09-6.175-30.148-6.175-30.148s-29.784,8.356-49.762-3.269
				c-19.977-11.622-41.588-23.245-45.311-30.146C85.322,197.687,81.626,196.68,80.808,200.607"/>
			<path fill="none" stroke="#C4A318" stroke-miterlimit="10" d="M80.808,200.607c0,0-2.023,10.156-2.749,11.245
				c-0.727,1.089-19.614,18.888-24.336,23.247c-4.722,4.358-14.891,17.07-19.614,20.703c-4.721,3.633-4.358,2.905-6.538,14.892
				c-2.179,11.985-6.538,29.42-7.99,36.322c-1.453,6.901-2.179,15.255-2.179,19.614c0,4.357,31.703-8.718,31.703-8.718
				s-9.247,49.761-12.302,57.025c-3.056,7.264-10.684,11.622-9.957,17.797c0.726,6.175,20.34,21.43,31.963,19.252
				c11.623-2.18,53.756-24.337,59.568-24.337c5.811,0,32.326-3.994,42.859-6.174c10.534-2.18,22.52-7.629,31.237-7.265
				c8.717,0.362,10.532-13.076,10.532-13.076s-13.076-91.894-12.711-92.983c0.363-1.09-6.175-30.148-6.175-30.148
				s-29.784,8.356-49.762-3.269c-19.977-11.622-41.588-23.245-45.311-30.146C85.322,197.687,81.626,196.68,80.808,200.607z"/>
			<path fill="#FFC691" d="M174.856,97.694c0.275,0.771,3.814,2.287,2.997,16.453c-0.817,14.165-1.324,20.703,0.583,25.88
				c1.907,5.175,9.768,26.15,9.496,35.141c-0.272,8.99-9.52,40.743-14.84,43.799c-5.319,3.057-42.918,3.406-58.712-14.923
				c0,0-12.531-13.62-10.897-29.692c1.635-16.073,2.997-26.425,2.997-26.425s-1.907-26.26,12.259-36.611
				c14.165-10.352,17.435-23.155,21.249-23.973C143.801,86.525,173.088,92.753,174.856,97.694"/>
			<path fill="none" stroke="#F1B486" stroke-miterlimit="10" d="M174.856,97.694c0.275,0.771,3.814,2.287,2.997,16.453
				c-0.817,14.165-1.324,20.703,0.583,25.88c1.907,5.175,9.768,26.15,9.496,35.141c-0.272,8.99-9.52,40.743-14.84,43.799
				c-5.319,3.057-42.918,3.406-58.712-14.923c0,0-12.531-13.62-10.897-29.692c1.635-16.073,2.997-26.425,2.997-26.425
				s-1.907-26.26,12.259-36.611c14.165-10.352,17.435-23.155,21.249-23.973C143.801,86.525,173.088,92.753,174.856,97.694z"/>
			<path fill="#FFC691" d="M147.888,200.607c1.089,0.439,20.976-2.289,21.793-2.286s10.624-3.268,14.438,4.634
				c3.813,7.898,16.456,46.31,15.719,47.944c-0.736,1.634,3.167,6.265,3.167,6.265s48.672,49.7,47.31,62.308
				c-1.362,12.607,0.545,33.582-21.248,33.854s-30.486-8.444-34.039-22.882c-3.554-14.439-13.361-35.959-13.634-43.042
				c-0.272-7.082-5.448-19.069-3.813-25.334c0,0-14.71,1.634-17.435-11.986c0,0-2.452-9.182,0-9.184c0,0-2.724,0.739-6.265,1.011
				c0,0,3.814,14.166-2.724,17.162c0,0-11.169-8.444-9.534-18.796c0,0-2.997-3.27-1.635-7.084c0,0-3.212-4.358,0.139-7.082
				c0,0,3.402-12.803,8.578-14.711c0,0-5.721-1.361-4.631-4.903C145.163,202.955,147.888,200.607,147.888,200.607"/>
			<path fill="none" stroke="#F1B486" stroke-miterlimit="10" d="M147.888,200.607c1.089,0.439,20.976-2.289,21.793-2.286
				s10.624-3.268,14.438,4.634c3.813,7.898,16.456,46.31,15.719,47.944c-0.736,1.634,3.167,6.265,3.167,6.265
				s48.672,49.7,47.31,62.308c-1.362,12.607,0.545,33.582-21.248,33.854s-30.486-8.444-34.039-22.882
				c-3.554-14.439-13.361-35.959-13.634-43.042c-0.272-7.082-5.448-19.069-3.813-25.334c0,0-14.71,1.634-17.435-11.986
				c0,0-2.452-9.182,0-9.184c0,0-2.724,0.739-6.265,1.011c0,0,3.814,14.166-2.724,17.162c0,0-11.169-8.444-9.534-18.796
				c0,0-2.997-3.27-1.635-7.084c0,0-3.212-4.358,0.139-7.082c0,0,3.402-12.803,8.578-14.711c0,0-5.721-1.361-4.631-4.903
				C145.163,202.955,147.888,200.607,147.888,200.607z"/>
			<path fill="#F1B486" d="M160.295,246.838c0,0,0.59,6.011,3.109,6.785c2.52,0.772,8.258,4.649,12.27,4.649h5.95
				c0,0-2.133,4.458-2.328,6.203c-0.192,1.744,3.102,12.017,3.296,14.342c0.193,2.326,1.357,7.559,1.55,8.915
				c0.194,1.357,3.804,10.127,3.797,11.241c-0.008,1.115,1.824,6.286,1.824,6.286h-3.111c0,0-3.866-12.294-4.254-14.039
				c-0.387-1.744-4.309-20.789-4.652-21.898c-0.398-1.299-0.556-5.601-0.556-5.601l0.183-1.825c0,0-4.688,0.359-7.212-0.631
				C167.64,260.273,160.092,258.466,160.295,246.838"/>
			<path fill="#967C0C" d="M27.68,335.999l-1.382-13.306c0,0-11.721,1.906-7.908,7.627C22.204,336.042,27.68,335.999,27.68,335.999"
				/>
			<path fill="none" stroke="#C4A318" stroke-miterlimit="10" d="M27.68,335.999l-1.382-13.306c0,0-11.721,1.906-7.908,7.627
				C22.204,336.042,27.68,335.999,27.68,335.999z"/>
			<path fill="#967C0C" d="M74.335,326.656c0,0,7.043,1.316,6.928-4.93c-0.117-6.246-0.271-9.262-3.462-9.534
				c-3.192-0.272-6.734,2.087-7.143,3.769c-0.409,1.68,2.043,10.695,2.043,10.695L74.335,326.656L74.335,326.656z"/>
			<path fill="none" stroke="#C4A318" stroke-miterlimit="10" d="M74.335,326.656c0,0,7.043,1.316,6.928-4.93
				c-0.117-6.246-0.271-9.262-3.462-9.534c-3.192-0.272-6.734,2.087-7.143,3.769c-0.409,1.68,2.043,10.695,2.043,10.695
				L74.335,326.656L74.335,326.656z"/>
			<path fill="#FFFFFF" d="M268.294,286.858c0,0-29.148,3.814-30.238,3.814c-1.089,0-33.597-15.648-35.051-15.179
				c-1.452,0.469-1.801,0.368-6.083,5.917c-1.971,2.555-4.238,10.762-10.916,22.078c-2.024,3.428-4.435,7.733-6.71,11.182
				c-3.333,3.422-5.285,6.91-7.536,9.852c-3.672,4.798-6.233,8.392-6.233,8.392l-8.801,32.733c0,0,40.659,10.771,46.28,10.563
				c5.622-0.21,4.541,3.268,11.079-5.722C220.622,361.499,268.294,286.858,268.294,286.858"/>
			<path fill="none" stroke="#6D6E71" stroke-miterlimit="10" d="M268.294,286.858c0,0-29.148,3.814-30.238,3.814
				c-1.089,0-33.597-15.648-35.051-15.179c-1.452,0.469-1.801,0.368-6.083,5.917c-1.971,2.555-4.238,10.762-10.916,22.078
				c-2.024,3.428-4.435,7.733-6.71,11.182c-3.333,3.422-5.285,6.91-7.536,9.852c-3.672,4.798-6.233,8.392-6.233,8.392l-8.801,32.733
				c0,0,40.659,10.771,46.28,10.563c5.622-0.21,4.541,3.268,11.079-5.722C220.622,361.499,268.294,286.858,268.294,286.858z"/>
			<path fill="#FFC691" d="M72.248,315.734l3.996,12.712c0,0,31.6,4.722,41.042,6.901c9.444,2.18,14.529-0.728,19.251,0
				c4.722,0.727,6.538-7.99,9.807-11.986c3.269-3.997,18.887-9.08,26.515-7.627l5.812-0.256c0,0-12.713,16.237-12.713,17.69
				s-0.727,11.986,6.538,14.166c7.265,2.179,22.883,1.451,27.241,0c4.359-1.452,5.887,0.519,5.448,1.375
				c0,0-1.011,5.998-5.347,7.693c0,0-2.505,6.631-5.751,6.977c0.955,2.65-6.033,6.412-6.033,6.412s-5.468,1.981-9.712,1.792
				c-4.242-0.188-26.02-2.828-29.698-4.433c-3.676-1.602-7.759-2.262-9.3-2.45c-1.54-0.188-3.52,1.604-4.652,0.849
				c-1.131-0.755-7.508,2.761-10.913,3.578c-3.405,0.817-35.55,7.628-42.905,8.717c-7.355,1.091-20.431,2.725-25.607,2.997
				c-5.175,0.272-13.62,0-15.8,0c-2.179,0-8.172,1.634-8.99-11.714c-0.817-13.348-5.168-42.736-5.168-42.736
				S50.817,315.189,72.248,315.734"/>
			<path fill="none" stroke="#F1B486" stroke-miterlimit="10" d="M72.248,315.734l3.996,12.712c0,0,31.6,4.722,41.042,6.901
				c9.444,2.18,14.529-0.728,19.251,0c4.722,0.727,6.538-7.99,9.807-11.986c3.269-3.997,18.887-9.08,26.515-7.627l5.812-0.256
				c0,0-12.713,16.237-12.713,17.69s-0.727,11.986,6.538,14.166c7.265,2.179,22.883,1.451,27.241,0
				c4.359-1.452,5.887,0.519,5.448,1.375c0,0-1.011,5.998-5.347,7.693c0,0-2.505,6.631-5.751,6.977
				c0.955,2.65-6.033,6.412-6.033,6.412s-5.468,1.981-9.712,1.792c-4.242-0.188-26.02-2.828-29.698-4.433
				c-3.676-1.602-7.759-2.262-9.3-2.45c-1.54-0.188-3.52,1.604-4.652,0.849c-1.131-0.755-7.508,2.761-10.913,3.578
				c-3.405,0.817-35.55,7.628-42.905,8.717c-7.355,1.091-20.431,2.725-25.607,2.997c-5.175,0.272-13.62,0-15.8,0
				c-2.179,0-8.172,1.634-8.99-11.714c-0.817-13.348-5.168-42.736-5.168-42.736S50.817,315.189,72.248,315.734z"/>
			<path fill="none" stroke="#F1B486" stroke-linecap="round" stroke-linejoin="round" stroke-miterlimit="10" d="M65.074,330.444
				c0,0,1.818-3.429,11.168-1.998"/>
			<path fill="#F1B486" d="M74.435,322.693c0,0-6.719-2.654-11.883-1.929c-5.165,0.727-19.851,7.479-22.433,8.581
				c-2.581,1.103-8.956,2.473-8.956,2.877c0,0.405,2.673,29.248,2.673,30.806s1.028,10.456,2.965,11.91
				c1.938,1.452,8.659,4.977,22.097,1.762c13.439-3.216,48.308-6.847,52.486-7.575c4.177-0.725,22.516-3.655,22.516-3.655
				s-9.291,3.512-14.55,4.636c-5.258,1.124-30.523,6.453-35.594,7.255c-5.069,0.799-19.046,3.724-23.768,3.602
				s-19.449,1.298-22.701,0.004c-3.252-1.296-5.329-1.894-6.124-7.662c-0.795-5.769-1.375-18.033-2.093-21.33
				c-0.719-3.296-2.87-19.413-3.174-21.529c-0.303-2.118-0.586-4.056-0.586-4.056l37.04-13.198l9.807,1.09L74.435,322.693z"/>
			<path fill="#FFCC04" d="M17.401,326.631l6.885,0.025c6.886,0.025,30.436-11.739,38.88-11.178c8.445,0.564,19.342,1.345,17.98,0
				c-1.362-1.343-2.725-13.91-4.904-21.81c-2.179-7.899-3.268-31.6-3.268-31.6"/>
			<path fill="none" stroke="#C4A318" stroke-miterlimit="10" d="M17.401,326.631l6.885,0.025
				c6.886,0.025,30.436-11.739,38.88-11.178c8.445,0.564,19.342,1.345,17.98,0c-1.362-1.343-2.725-13.91-4.904-21.81
				c-2.179-7.899-3.268-31.6-3.268-31.6"/>
			<path fill="none" stroke="#F1B486" stroke-linecap="round" stroke-linejoin="round" stroke-miterlimit="10" d="M160.146,354.962
				c0,0,15.528,5.72,22.611,5.448c7.082-0.273,17.081-4.008,17.081-4.008"/>
			<path fill="none" stroke="#F1B486" stroke-linecap="round" stroke-linejoin="round" stroke-miterlimit="10" d="M158.511,360.419
				c0.273-0.283,15.095,6.826,25.335,4.893l10.241-1.931"/>
			<path fill="none" stroke="#F1B486" stroke-linecap="round" stroke-linejoin="round" stroke-miterlimit="10" d="M171.86,211.672
				c0,0-19.887-1.09-23.155-0.273"/>
			<path fill="none" stroke="#F1B486" stroke-linecap="round" stroke-linejoin="round" stroke-miterlimit="10" d="M164.777,221.206
				c0,0-11.169-3.269-16.072-1.906c-4.903,1.362-8.396,11.211-8.717,13.892"/>
			<path fill="none" stroke="#F1B486" stroke-linecap="round" stroke-linejoin="round" stroke-miterlimit="10" d="M164.777,226.079
				c0,0-14.438-2.208-16.072,0c-1.635,2.21-7.099,9.924-7.082,14.196"/>
			<path fill="none" stroke="#F1B486" stroke-linecap="round" stroke-linejoin="round" stroke-miterlimit="10" d="M161.78,235.645
				c0,0,1.362,2.996-3.269,4.631c-4.631,1.634-6.432,3.269-7.031,0"/>
			<path fill="none" stroke="#F1B486" stroke-linecap="round" stroke-linejoin="round" stroke-miterlimit="10" d="M196.922,256.348
				c0,0,3.213-3.292,2.916-5.448"/>
			<path fill="none" stroke="#231F20" stroke-miterlimit="10" d="M175.673,187.972c0,0-28.604,6.265-42.224-13.076"/>
			<path fill="none" stroke="#F1B486" stroke-linecap="round" stroke-linejoin="round" stroke-miterlimit="10" d="M165.85,157.926
				c0,0,1.8-0.101,7.069-0.372c5.269-0.272,7.087,0.936,7.377,0.771"/>
			<path fill="none" stroke="#231F20" stroke-miterlimit="10" d="M136.718,170.536c0,0-5.993,1.362-5.993,6.538"/>
			<path fill="none" stroke="#F1B486" stroke-linecap="round" stroke-linejoin="round" stroke-miterlimit="10" d="M148.017,155.9
				c0,0-5.878-0.831-9.309-0.78c-3.43,0.052-7.883,0.35-9.525,0.78"/>
			<path fill="#574A35" d="M167.747,66.629c0,0,17.681,0.528,17.681,15.966s-7.653,20.715-15.437,20.319
				c-7.786-0.396-12.141-4.222-14.779-5.674c-2.639-1.451-7.276-0.923-9.576,0.264c-2.298,1.188-4.938,5.146-7.708,4.751
				c-2.772-0.396-3.431-2.202-5.148,0.679c-1.715,2.882,0,13.295-4.88,15.67c-4.882,2.375-9.632,2.243-10.557,5.41
				c-0.923,3.167-0.526,10.688-1.188,12.931l-2.242-1.189c0,0-2.289-7.371-4.471-7.363c-2.184,0.008-9.021,5.808-7.869-1.517
				c0.338-3.128,4.956-8.963,4.561-12.658c-0.396-3.693,4.745-3.253,6.197-6.949c1.451-3.693,3.957-5.541,4.486-8.443
				c0.526-2.903-0.529-7.275,4.749-11.554c5.277-4.28,17.153-8.503,18.472-8.107c1.319,0.397-2.638-4.882,0.529-5.804
				c3.166-0.925,11.478,0.264,16.228,3.694c0,0-1.716-4.751,0.924-5.412c2.639-0.658,9.5,3.563,12.403,8.445
				C170.123,80.087,163.788,67.422,167.747,66.629"/>
			<path fill="none" stroke="#4C3617" stroke-miterlimit="10" d="M167.747,66.629c0,0,17.681,0.528,17.681,15.966
				s-7.653,20.715-15.437,20.319c-7.786-0.396-12.141-4.222-14.779-5.674c-2.639-1.451-7.276-0.923-9.576,0.264
				c-2.298,1.188-4.938,5.146-7.708,4.751c-2.772-0.396-3.431-2.202-5.148,0.679c-1.715,2.882,0,13.295-4.88,15.67
				c-4.882,2.375-9.632,2.243-10.557,5.41c-0.923,3.167-0.526,10.688-1.188,12.931l-2.242-1.189c0,0-2.289-7.371-4.471-7.363
				c-2.184,0.008-9.021,5.808-7.869-1.517c0.338-3.128,4.956-8.963,4.561-12.658c-0.396-3.693,4.745-3.253,6.197-6.949
				c1.451-3.693,3.957-5.541,4.486-8.443c0.526-2.903-0.529-7.275,4.749-11.554c5.277-4.28,17.153-8.503,18.472-8.107
				c1.319,0.397-2.638-4.882,0.529-5.804c3.166-0.925,11.478,0.264,16.228,3.694c0,0-1.716-4.751,0.924-5.412
				c2.639-0.658,9.5,3.563,12.403,8.445C170.123,80.087,163.788,67.422,167.747,66.629z"/>
			<path fill="none" stroke="#4C3617" stroke-linecap="round" stroke-linejoin="round" stroke-miterlimit="10" d="M173.025,85.629
				c0,0-2.031-4.25-2.903-5.542"/>
			<path fill="none" stroke="#4C3617" stroke-linecap="round" stroke-linejoin="round" stroke-miterlimit="10" d="M161.15,82.858
				c0,0-2.58-4.708-4.355-5.806"/>
			<path fill="none" stroke="#4C3617" stroke-linecap="round" stroke-linejoin="round" stroke-miterlimit="10" d="M147.445,84.309
				c0,0-6.35-3.694-7.406-5.145"/>
			<path fill="#231F20" d="M125.393,138.221c0.015,0.916,0.753,6.436,0.753,6.436l-12.232-6.672v-2.85
				C113.913,135.135,119.833,138.525,125.393,138.221"/>
			<path fill="#FFC691" d="M113.913,138c0,0-0.276-10.752-5.745-11.117c-5.47-0.363-9.56,10.854-9.296,14.812
				c0.264,3.957,0.66,6.86,1.716,8.18c1.055,1.319,1.451,1.979,0.264,4.222c-1.188,2.244-4.222,8.182-1.188,9.501
				s6.466-0.528,7.917-2.903"/>
			<path fill="none" stroke="#F1B486" stroke-miterlimit="10" d="M113.913,138c0,0-0.276-10.752-5.745-11.117
				c-5.47-0.363-9.56,10.854-9.296,14.812c0.264,3.957,0.66,6.86,1.716,8.18c1.055,1.319,1.451,1.979,0.264,4.222
				c-1.188,2.244-4.222,8.182-1.188,9.501s6.466-0.528,7.917-2.903"/>
			<path fill="#FFC691" d="M109.428,143.014c0.132-0.528-0.594-8.935-2.342-9.811c-1.748-0.877-4.52,0.311-5.311,3.741
				c0,0-2.771,8.047,0,6.993c2.771-1.056,1.75-2.505,3.218-2.771"/>
			<path fill="none" stroke="#F1B486" stroke-linecap="round" stroke-linejoin="round" stroke-miterlimit="10" d="M109.428,143.014
				c0.132-0.528-0.594-8.935-2.342-9.811c-1.748-0.877-4.52,0.311-5.311,3.741c0,0-2.771,8.047,0,6.993
				c2.771-1.056,1.75-2.505,3.218-2.771"/>
			<path fill="#FFC691" d="M199.188,358.189c1.195-2.691-3.202-0.138-3.202-0.138l0.206,2.35
				C196.417,360.523,198.497,359.568,199.188,358.189"/>
			<path fill="none" stroke="#F1B486" stroke-miterlimit="10" d="M199.188,358.189c1.195-2.691-3.202-0.138-3.202-0.138l0.206,2.35
				C196.417,360.523,198.497,359.568,199.188,358.189z"/>
			<path fill="#FFC691" d="M205.052,349.453c1.195-2.691-3.163-0.34-3.163-0.34l0.365,3.102
				C202.282,351.789,204.361,350.835,205.052,349.453"/>
			<path fill="none" stroke="#F1B486" stroke-miterlimit="10" d="M205.052,349.453c1.195-2.691-3.163-0.34-3.163-0.34l0.365,3.102
				C202.282,351.789,204.361,350.835,205.052,349.453z"/>
			<path fill="#FFC691" d="M194.005,364.764c1.195-2.69-3.202-0.137-3.202-0.137l0.206,2.35
				C191.235,367.1,193.314,366.145,194.005,364.764"/>
			<path fill="none" stroke="#F1B486" stroke-miterlimit="10" d="M194.005,364.764c1.195-2.69-3.202-0.137-3.202-0.137l0.206,2.35
				C191.235,367.1,193.314,366.145,194.005,364.764z"/>
			<path fill="none" stroke="#D69F7B" stroke-linecap="round" stroke-linejoin="round" stroke-miterlimit="10" d="M153.101,169.271
				c-2.242-0.528-4.882,0.131-3.562,3.825c1.32,3.695,3.826,1.98,5.022,2.244c1.197,0.264,0.915-3.167,2.499-3.431
				c1.584-0.265,1.715,1.583,2.771,2.985c1.054,1.402,1.583,1.5,7.128,1.5c5.545,0,4.879-4.75,4.218-7.784
				c-0.659-3.035-7.784-10.16-8.312-12.008c-0.529-1.848,0.58-7.638,0.58-7.638"/>
			<path fill="#231F20" d="M157.932,134.461c-21.603-3.391-33.845-1.778-33.845-1.778l0.661,8.273
				c2.671,15.642,8.584,13.926,12.781,13.926s10.3,1.906,12.971-6.866c2.67-8.776,7.431-6.687,7.431-6.687s2.289,0.381,4.96,9.156
				c2.669,8.774,8.774,6.867,12.971,6.867c4.197,0,10.11,1.717,12.78-13.925l0.954-7.25
				C189.597,136.178,179.106,134.461,157.932,134.461 M164.108,149.653c-2.879-7.005-3.646-11.515,1.056-12.476
				c4.701-0.957,9.691-0.766,9.691-0.766s11.61-0.097,11.131,4.222c-0.48,4.317,1.917,15.353-10.557,15.353h-4.605
				C170.825,155.986,166.986,156.658,164.108,149.653 M127.406,138.163c-0.48-4.319,11.131-4.222,11.131-4.222
				s4.99-0.191,9.692,0.767c4.701,0.96,3.933,5.47,1.055,12.474c-2.879,7.006-6.717,6.334-6.717,6.334h-4.605
				C125.488,153.516,127.886,142.48,127.406,138.163"/>
			<path fill="#574A35" d="M164.813,132.392c0,0,9.037-2.243,13.306,1.846l4.671-1.011c0,0-1.281-7.001-8.907-7.968
				c-7.626-0.966-12.291,5.744-12.291,5.744L164.813,132.392z"/>
			<path fill="#574A35" d="M148.59,131.103c0,0-5.458-3.28-9.509-3.084c-4.052,0.198-7.328,3.857-7.328,3.857l-4.459-0.858
				c0,0,5.382-8.546,13.165-8c7.783,0.545,10.677,6.361,10.677,6.361L148.59,131.103z"/>
			<path fill="#75654E" d="M142.28,86.848c0,0-10.231-3.64-15.228-0.811c-4.996,2.829-6.38,7.518-6.872,8.541
				c0,0,3.332-5.417,7.915-6.37C132.678,87.257,142.28,86.848,142.28,86.848"/>
			<path fill="#75654E" d="M168.789,80.418c-5.64-6.811-9.098-7.673-10.819-6.981c0,0-0.674,0.669,0.108,1.743
				c0,0-0.578-1.322,0.679-0.881C160.013,74.743,163.918,75.841,168.789,80.418"/>
			<path fill="#75654E" d="M178.236,71.191c0.402-0.88-8.485-3.907-10.053-2.916c0,0-0.542,0.781,0.423,1.693
				c0,0-0.807-1.193,0.508-0.986C170.431,69.19,172.937,68.994,178.236,71.191"/>
			<path fill="#4C3617" d="M157.724,93.65c0.23,0.003,3.718,2.631,5.792,3.182c2.073,0.551,11.81-1.301,14.607-4.395
				c2.172-2.403,7.538-11.686,0.569-18.571c0.054,0.042,0.101,0.076,0.169,0.133c1.48,1.263,6.168,6.44,5.39,13.464
				c-0.899,8.106-9.744,13.088-20.994,11.102C158.595,97.333,157.821,94.498,157.724,93.65"/>
			<path fill="#75654E" d="M156.521,79.502c-6.958-6.664-14.61-5.066-15.142-4.729c0,0,0.479,0.673,0.956,0.958
				c0.477,0.285,0.008-0.392,0.008-0.392S146.943,74.572,156.521,79.502"/>
			<path opacity="0.2" enable-background="new    " d="M86.057,200.982c0,0-1.684,4.474-1.684,6.316s-5.283,10.564-7.617,12.654
				c-2.334,2.088-15.111,12.652-16.83,14.251c-1.72,1.597-14.127,16.952-16.216,18.55c-2.088,1.597-8.23,8.352-8.967,10.073
				s-5.407,18.428-6.635,22.113s-8.882,27.387-8.882,27.387s0.514-3.223,1.475-7.589c1.881-8.548,4.933-21.556,5.422-23.913
				c0.737-3.564,1.922-9.293,2.488-12.24c0.269-1.412,0.671-7.254,2.633-9.656c0.588-0.724,1.389-1.215,2.59-2.228
				c5.123-4.334,6.498-6.192,7.739-7.53c1.336-1.439,7.793-9.288,12.107-13.312c4.315-4.025,19.763-18.586,20.179-18.943
				c0.759-0.654,4.609-4.549,4.609-4.549s1.619-5.252,1.927-6.685c0.309-1.435,0.301-5.934,2.079-6.657
				C83.943,198.426,86.057,200.982,86.057,200.982"/>
		</g>
	</g>
</g>
<g>
	<path d="M81.439,13.483V2.746h2.168v10.737C83.607,13.483,81.439,13.483,81.439,13.483z"/>
	<path d="M84.584,13.483V2.746h2.109l4.395,7.171V2.746h2.014v10.737h-2.175l-4.329-7.002v7.002
		C86.598,13.483,84.584,13.483,84.584,13.483z"/>
	<path d="M99.279,9.536v-1.81h4.673v4.277c-0.454,0.439-1.112,0.826-1.974,1.161c-0.862,0.334-1.734,0.502-2.618,0.502
		c-1.123,0-2.102-0.236-2.937-0.707c-0.835-0.472-1.462-1.146-1.882-2.021c-0.42-0.877-0.63-1.83-0.63-2.86
		c0-1.118,0.234-2.111,0.703-2.981c0.469-0.868,1.155-1.535,2.058-1.999c0.688-0.356,1.545-0.534,2.571-0.534
		c1.333,0,2.374,0.279,3.124,0.838c0.749,0.56,1.231,1.332,1.446,2.318l-2.153,0.402c-0.151-0.527-0.436-0.943-0.854-1.248
		c-0.417-0.306-0.938-0.458-1.563-0.458c-0.947,0-1.701,0.3-2.26,0.901c-0.559,0.6-0.838,1.491-0.838,2.673
		c0,1.274,0.283,2.23,0.85,2.867c0.566,0.638,1.309,0.956,2.227,0.956c0.454,0,0.909-0.089,1.366-0.268
		c0.457-0.178,0.849-0.394,1.176-0.648V9.536H99.279z"/>
	<path d="M104.842,13.483V2.746h7.961v1.816h-5.793v2.38h5.391v1.81h-5.391v2.923h5.999v1.809h-8.167V13.483z"/>
	<path d="M113.759,13.483V2.746h2.109l4.395,7.171V2.746h2.014v10.737h-2.175l-4.329-7.002v7.002
		C115.773,13.483,113.759,13.483,113.759,13.483z"/>
	<path d="M123.394,13.483V2.746h2.168v10.737C125.562,13.483,123.394,13.483,123.394,13.483z"/>
	<path d="M126.517,13.483V2.746h7.961v1.816h-5.793v2.38h5.391v1.81h-5.391v2.923h5.999v1.809h-8.167V13.483z"/>
	<path d="M135.419,13.483V2.746h4.563c1.147,0,1.981,0.097,2.501,0.289c0.52,0.193,0.936,0.536,1.249,1.029s0.469,1.058,0.469,1.692
		c0,0.805-0.237,1.471-0.71,1.995c-0.474,0.525-1.182,0.856-2.124,0.993c0.469,0.273,0.855,0.573,1.161,0.9
		c0.305,0.327,0.716,0.908,1.234,1.743l1.311,2.095h-2.593l-1.567-2.336c-0.557-0.836-0.938-1.361-1.143-1.579
		c-0.205-0.217-0.422-0.366-0.652-0.446C138.889,9.04,138.525,9,138.027,9h-0.439v4.482h-2.169V13.483z M137.587,7.287h1.604
		c1.04,0,1.689-0.044,1.948-0.132s0.461-0.239,0.608-0.454s0.22-0.483,0.22-0.806c0-0.361-0.097-0.653-0.289-0.875
		c-0.193-0.223-0.465-0.363-0.817-0.422c-0.176-0.023-0.703-0.036-1.582-0.036h-1.692V7.287z"/>
	<path d="M144.695,8.181c0-1.094,0.164-2.012,0.491-2.754c0.244-0.547,0.577-1.037,1-1.473c0.422-0.434,0.885-0.756,1.388-0.967
		c0.669-0.282,1.44-0.424,2.314-0.424c1.582,0,2.848,0.49,3.798,1.472c0.949,0.981,1.424,2.347,1.424,4.095
		c0,1.733-0.471,3.089-1.414,4.068c-0.942,0.979-2.202,1.469-3.779,1.469c-1.597,0-2.866-0.487-3.809-1.462
		C145.166,11.231,144.695,9.89,144.695,8.181z M146.929,8.107c0,1.216,0.281,2.138,0.842,2.765c0.562,0.628,1.274,0.941,2.139,0.941
		s1.573-0.312,2.127-0.934c0.554-0.623,0.832-1.557,0.832-2.802c0-1.23-0.27-2.148-0.809-2.754c-0.54-0.605-1.256-0.908-2.15-0.908
		s-1.614,0.307-2.161,0.919C147.202,5.948,146.929,6.872,146.929,8.107z"/>
	<path d="M91.187,31.483h-2.358l-0.938-2.439h-4.292l-0.886,2.439h-2.3l4.182-10.737h2.292L91.187,31.483z M87.195,27.235
		l-1.479-3.984l-1.45,3.984H87.195z"/>
	<path d="M91.249,31.483V20.746h2.109l4.395,7.171v-7.171h2.014v10.737h-2.175l-4.329-7.002v7.002
		C93.263,31.483,91.249,31.483,91.249,31.483z"/>
	<path d="M110.632,31.483h-2.358l-0.938-2.439h-4.292l-0.886,2.439h-2.3l4.182-10.737h2.292L110.632,31.483z M106.64,27.235
		l-1.479-3.984l-1.45,3.984H106.64z"/>
	<path d="M110.731,31.483V20.834h2.168v8.841h5.391v1.809L110.731,31.483L110.731,31.483z"/>
	<path d="M118.659,31.483V20.746h2.168v10.737C120.827,31.483,118.659,31.483,118.659,31.483z"/>
	<path d="M120.852,31.483v-1.955l5.64-6.966h-5.002v-1.816h7.859v1.685l-5.881,7.244h6.108v1.809L120.852,31.483L120.852,31.483z"/>
	<path d="M139.517,31.483h-2.358l-0.938-2.439h-4.292l-0.886,2.439h-2.3l4.182-10.737h2.292L139.517,31.483z M135.525,27.235
		l-1.479-3.984l-1.45,3.984H135.525z"/>
	<path d="M139.579,31.483V20.746h2.109l4.395,7.171v-7.171h2.014v10.737h-2.175l-4.329-7.002v7.002
		C141.593,31.483,139.579,31.483,139.579,31.483z"/>
	<path d="M149.273,20.746h3.962c0.894,0,1.575,0.068,2.043,0.205c0.63,0.186,1.169,0.516,1.619,0.989s0.791,1.053,1.025,1.739
		s0.352,1.532,0.352,2.538c0,0.884-0.11,1.646-0.33,2.285c-0.269,0.781-0.652,1.413-1.15,1.896
		c-0.376,0.366-0.884,0.652-1.523,0.857c-0.479,0.151-1.118,0.227-1.919,0.227h-4.08L149.273,20.746L149.273,20.746z M151.44,22.563
		v7.112h1.619c0.605,0,1.042-0.034,1.311-0.104c0.352-0.088,0.643-0.236,0.875-0.446s0.421-0.556,0.568-1.036
		c0.146-0.481,0.22-1.137,0.22-1.967s-0.073-1.467-0.22-1.912c-0.146-0.443-0.352-0.791-0.615-1.039
		c-0.264-0.25-0.598-0.418-1.003-0.506c-0.303-0.068-0.896-0.103-1.78-0.103L151.44,22.563L151.44,22.563z"/>
	<path d="M158.563,26.181c0-1.094,0.164-2.012,0.491-2.754c0.244-0.547,0.577-1.037,1-1.473c0.422-0.434,0.885-0.756,1.388-0.967
		c0.669-0.282,1.44-0.424,2.314-0.424c1.582,0,2.848,0.49,3.798,1.472c0.949,0.981,1.424,2.347,1.424,4.095
		c0,1.733-0.471,3.089-1.414,4.068c-0.942,0.979-2.202,1.469-3.779,1.469c-1.597,0-2.866-0.487-3.809-1.462
		C159.034,29.231,158.563,27.89,158.563,26.181z M160.796,26.107c0,1.216,0.281,2.138,0.842,2.765
		c0.562,0.628,1.274,0.941,2.139,0.941s1.573-0.312,2.127-0.934c0.554-0.623,0.832-1.557,0.832-2.802c0-1.23-0.27-2.148-0.809-2.754
		c-0.54-0.605-1.256-0.908-2.15-0.908s-1.614,0.307-2.161,0.919C161.07,23.948,160.796,24.872,160.796,26.107z"/>
	<path d="M81.512,49.483V38.746h4.563c1.147,0,1.981,0.097,2.501,0.289c0.52,0.193,0.936,0.536,1.249,1.029s0.469,1.058,0.469,1.692
		c0,0.805-0.237,1.471-0.71,1.995c-0.474,0.525-1.182,0.856-2.124,0.993c0.469,0.273,0.855,0.573,1.161,0.9
		c0.305,0.327,0.716,0.908,1.234,1.743l1.311,2.095h-2.593l-1.567-2.336c-0.557-0.836-0.938-1.361-1.143-1.579
		c-0.205-0.217-0.422-0.366-0.652-0.446C84.982,45.04,84.618,45,84.12,45h-0.44v4.482L81.512,49.483L81.512,49.483z M83.68,43.287
		h1.604c1.04,0,1.689-0.044,1.948-0.132s0.461-0.239,0.608-0.454s0.22-0.483,0.22-0.806c0-0.361-0.097-0.653-0.289-0.875
		c-0.193-0.223-0.465-0.363-0.817-0.422c-0.176-0.023-0.703-0.036-1.582-0.036H83.68V43.287z"/>
	<path d="M91.227,49.483V38.746h7.961v1.816h-5.793v2.38h5.391v1.81h-5.391v2.923h5.999v1.809L91.227,49.483L91.227,49.483z"/>
	<path d="M108.764,48.121c0.532,0.381,1.111,0.684,1.736,0.908l-0.798,1.53c-0.327-0.098-0.647-0.231-0.959-0.402
		c-0.068-0.034-0.549-0.352-1.443-0.952c-0.703,0.308-1.482,0.462-2.336,0.462c-1.65,0-2.943-0.486-3.878-1.458
		c-0.936-0.972-1.403-2.337-1.403-4.095c0-1.752,0.469-3.116,1.406-4.09c0.938-0.975,2.209-1.461,3.816-1.461
		c1.592,0,2.854,0.486,3.787,1.461c0.933,0.974,1.399,2.338,1.399,4.09c0,0.929-0.129,1.744-0.388,2.447
		C109.506,47.099,109.194,47.618,108.764,48.121z M107.021,46.897c0.278-0.326,0.487-0.722,0.626-1.186s0.208-0.996,0.208-1.598
		c0-1.239-0.273-2.166-0.82-2.779c-0.547-0.612-1.262-0.919-2.146-0.919s-1.601,0.308-2.149,0.923
		c-0.55,0.615-0.824,1.541-0.824,2.775c0,1.256,0.274,2.194,0.824,2.816c0.549,0.623,1.244,0.934,2.083,0.934
		c0.313,0,0.608-0.051,0.886-0.153c-0.439-0.288-0.886-0.513-1.34-0.674l0.608-1.237C105.69,46.044,106.372,46.41,107.021,46.897z"
		/>
	<path d="M110.665,38.746h2.168v5.815c0,0.923,0.027,1.521,0.081,1.795c0.093,0.439,0.313,0.792,0.663,1.058
		c0.349,0.267,0.826,0.399,1.432,0.399c0.615,0,1.079-0.126,1.392-0.377c0.313-0.252,0.5-0.561,0.564-0.927s0.095-0.974,0.095-1.823
		v-5.94h2.168v5.64c0,1.289-0.059,2.2-0.176,2.732s-0.333,0.98-0.648,1.348c-0.314,0.365-0.736,0.657-1.263,0.875
		c-0.527,0.217-1.216,0.326-2.065,0.326c-1.025,0-1.803-0.119-2.333-0.355c-0.53-0.237-0.949-0.545-1.256-0.923
		c-0.308-0.379-0.51-0.775-0.608-1.19c-0.142-0.615-0.212-1.523-0.212-2.725v-5.728H110.665z"/>
	<path d="M120.402,49.483V38.746h7.961v1.816h-5.793v2.38h5.391v1.81h-5.391v2.923h5.999v1.809L120.402,49.483L120.402,49.483z"/>
	<path d="M129.304,49.483V38.746h4.563c1.147,0,1.981,0.097,2.501,0.289c0.52,0.193,0.936,0.536,1.249,1.029
		s0.469,1.058,0.469,1.692c0,0.805-0.237,1.471-0.71,1.995c-0.474,0.525-1.182,0.856-2.124,0.993c0.469,0.273,0.855,0.573,1.161,0.9
		c0.305,0.327,0.716,0.908,1.234,1.743l1.311,2.095h-2.593l-1.567-2.336c-0.557-0.836-0.938-1.361-1.143-1.579
		c-0.205-0.217-0.422-0.366-0.652-0.446C132.774,45.04,132.41,45,131.912,45h-0.439v4.482L129.304,49.483L129.304,49.483z
		 M131.472,43.287h1.604c1.04,0,1.689-0.044,1.948-0.132s0.461-0.239,0.608-0.454s0.22-0.483,0.22-0.806
		c0-0.361-0.097-0.653-0.289-0.875c-0.193-0.223-0.465-0.363-0.817-0.422c-0.176-0.023-0.703-0.036-1.582-0.036h-1.692V43.287z"/>
	<path d="M138.953,49.483V38.746h2.168v10.737C141.121,49.483,138.953,49.483,138.953,49.483z"/>
	<path d="M142.047,49.483V38.746h3.245l1.948,7.324l1.926-7.324h3.252v10.737h-2.014v-8.452l-2.131,8.452h-2.087l-2.124-8.452v8.452
		C144.062,49.483,142.047,49.483,142.047,49.483z"/>
	<path d="M153.396,49.483V38.746h2.168v10.737C155.564,49.483,153.396,49.483,153.396,49.483z"/>
	<path d="M156.519,49.483V38.746h7.961v1.816h-5.793v2.38h5.391v1.81h-5.391v2.923h5.999v1.809L156.519,49.483L156.519,49.483z"/>
	<path d="M165.436,49.483V38.746h2.109l4.395,7.171v-7.171h2.014v10.737h-2.175l-4.329-7.002v7.002
		C167.45,49.483,165.436,49.483,165.436,49.483z"/>
	<path d="M177.554,49.483v-8.921h-3.186v-1.816h8.533v1.816h-3.179v8.921H177.554z"/>
	<path d="M182.75,44.181c0-1.094,0.164-2.012,0.491-2.754c0.244-0.547,0.577-1.037,1-1.473c0.422-0.434,0.885-0.756,1.388-0.967
		c0.669-0.282,1.44-0.424,2.314-0.424c1.582,0,2.848,0.49,3.798,1.472c0.949,0.981,1.424,2.347,1.424,4.095
		c0,1.733-0.471,3.089-1.414,4.068c-0.942,0.979-2.202,1.469-3.779,1.469c-1.597,0-2.866-0.487-3.809-1.462
		C183.221,47.231,182.75,45.89,182.75,44.181z M184.984,44.107c0,1.216,0.281,2.138,0.842,2.765
		c0.562,0.628,1.274,0.941,2.139,0.941s1.573-0.312,2.127-0.934c0.554-0.623,0.832-1.557,0.832-2.802c0-1.23-0.27-2.148-0.809-2.754
		c-0.54-0.605-1.256-0.908-2.15-0.908s-1.614,0.307-2.161,0.919C185.257,41.948,184.984,42.872,184.984,44.107z"/>
	<path d="M193.197,45.989l2.109-0.205c0.127,0.709,0.385,1.229,0.772,1.561c0.389,0.332,0.912,0.498,1.571,0.498
		c0.698,0,1.224-0.147,1.578-0.443c0.354-0.295,0.531-0.641,0.531-1.036c0-0.254-0.075-0.47-0.224-0.648
		c-0.149-0.178-0.409-0.333-0.78-0.465c-0.254-0.088-0.833-0.244-1.736-0.469c-1.162-0.288-1.978-0.642-2.446-1.062
		c-0.659-0.591-0.989-1.312-0.989-2.161c0-0.547,0.155-1.059,0.465-1.534c0.31-0.477,0.756-0.839,1.34-1.088
		s1.288-0.373,2.113-0.373c1.348,0,2.362,0.295,3.043,0.886c0.682,0.591,1.039,1.38,1.073,2.366l-2.168,0.095
		c-0.093-0.552-0.292-0.948-0.597-1.19c-0.306-0.241-0.763-0.362-1.374-0.362c-0.63,0-1.123,0.13-1.479,0.388
		c-0.229,0.167-0.344,0.389-0.344,0.667c0,0.254,0.107,0.472,0.322,0.651c0.273,0.23,0.938,0.469,1.992,0.719
		c1.055,0.248,1.835,0.506,2.34,0.772c0.506,0.266,0.901,0.63,1.187,1.091c0.286,0.462,0.429,1.032,0.429,1.711
		c0,0.615-0.171,1.191-0.513,1.729s-0.825,0.936-1.45,1.197c-0.625,0.261-1.404,0.392-2.336,0.392c-1.357,0-2.4-0.313-3.127-0.941
		C193.773,48.105,193.339,47.19,193.197,45.989z"/>
</g>
<line fill="none" stroke="#231F20" stroke-width="3.2" stroke-linejoin="round" stroke-miterlimit="10" x1="70.86" y1="0" x2="70.86" y2="54.763"/>
</svg>
