<!-- Generator: Adobe Illustrator 17.0.0, SVG Export Plug-In  -->
<svg version="1.1"
	 xmlns="http://www.w3.org/2000/svg" xmlns:xlink="http://www.w3.org/1999/xlink" xmlns:a="http://ns.adobe.com/AdobeSVGViewerExtensions/3.0/"
	 x="0px" y="0px" width="925.724px" height="35.557px" viewBox="0 0 925.724 35.557" enable-background="new 0 0 925.724 35.557"
	 xml:space="preserve">
<defs>
</defs>
<g>
	<rect x="0" y="0" fill="#C6C6C6" width="37.777" height="35.557"/>
	<g>
		<g>
			<rect x="38.277" y="0.5" fill="#FFCC04" width="886.946" height="34.557"/>
			<path d="M924.724,1v33.557H38.777V1H924.724 M925.724,0H37.777v35.557h887.946V0L925.724,0z"/>
		</g>
	</g>
</g>
<g>
	<g>
		<path d="M55.892,26.925c-0.269,0.625-0.637,1.172-1.106,1.641s-1.018,0.837-1.648,1.106c-0.63,0.268-1.301,0.402-2.014,0.402
			h-6.65V9.068h6.65c0.713,0,1.384,0.135,2.014,0.402c0.63,0.27,1.179,0.638,1.648,1.106s0.837,1.019,1.106,1.647
			c0.269,0.631,0.403,1.302,0.403,2.015v10.679C56.294,25.631,56.16,26.3,55.892,26.925z M54.405,14.239
			c0-0.469-0.088-0.905-0.264-1.312c-0.176-0.404-0.417-0.762-0.725-1.068c-0.308-0.309-0.664-0.55-1.069-0.726
			s-0.842-0.264-1.311-0.264h-4.673v17.402h4.673c0.469,0,0.906-0.088,1.311-0.264s0.762-0.415,1.069-0.718s0.549-0.656,0.725-1.063
			c0.176-0.404,0.264-0.842,0.264-1.311V14.239z"/>
		<path d="M69.866,27.672c-0.229,0.537-0.544,1.006-0.945,1.406s-0.869,0.715-1.406,0.945c-0.537,0.229-1.108,0.344-1.714,0.344
			H64.6c-0.605,0-1.177-0.115-1.714-0.344c-0.537-0.23-1.006-0.545-1.406-0.945s-0.715-0.869-0.945-1.406s-0.344-1.108-0.344-1.714
			V19.19c0-0.605,0.115-1.177,0.344-1.714s0.544-1.006,0.945-1.406c0.4-0.4,0.869-0.715,1.406-0.945
			c0.537-0.229,1.108-0.344,1.714-0.344h1.201c0.605,0,1.177,0.115,1.714,0.344c0.537,0.23,1.006,0.545,1.406,0.945
			c0.4,0.4,0.715,0.869,0.945,1.406s0.344,1.108,0.344,1.714v3.53h-8.218v3.34c0,0.361,0.068,0.701,0.205,1.018
			c0.137,0.318,0.322,0.594,0.557,0.828s0.51,0.42,0.828,0.557s0.657,0.205,1.018,0.205h1.201c0.361,0,0.701-0.068,1.018-0.205
			s0.593-0.322,0.828-0.557s0.42-0.51,0.557-0.828c0.137-0.316,0.205-0.656,0.205-1.018v-0.996l1.802,0.293v0.601
			C70.21,26.564,70.096,27.135,69.866,27.672z M68.409,19.088c0-0.361-0.068-0.701-0.205-1.018
			c-0.137-0.318-0.322-0.594-0.557-0.828s-0.51-0.42-0.828-0.557s-0.657-0.205-1.018-0.205H64.6c-0.361,0-0.701,0.068-1.018,0.205
			s-0.593,0.322-0.828,0.557s-0.42,0.51-0.557,0.828c-0.137,0.316-0.205,0.656-0.205,1.018v2.227h6.416V19.088z"/>
		<path d="M78.97,10.782c-0.303,0-0.583,0.056-0.842,0.169c-0.259,0.111-0.486,0.266-0.681,0.461s-0.349,0.425-0.461,0.688
			s-0.168,0.547-0.168,0.85v2.124h3.501v1.714h-3.501v13.286h-1.802V16.788h-2.71v-1.714h2.71v-2.036
			c0-0.547,0.103-1.062,0.308-1.546c0.205-0.482,0.488-0.905,0.85-1.267s0.781-0.645,1.26-0.85s0.991-0.308,1.538-0.308h1.655v1.714
			H78.97z"/>
		<path d="M82.881,11.471V9.068h2.095v2.402H82.881z M83.028,30.074v-15h1.802v15H83.028z"/>
		<path d="M97.251,30.074V19.088c0-0.361-0.068-0.701-0.205-1.018c-0.137-0.318-0.322-0.594-0.557-0.828s-0.51-0.42-0.828-0.557
			s-0.657-0.205-1.018-0.205h-1.201c-0.361,0-0.701,0.068-1.018,0.205s-0.593,0.322-0.828,0.557s-0.42,0.51-0.557,0.828
			c-0.137,0.316-0.205,0.656-0.205,1.018v10.986h-1.802v-15h0.601l0.981,1.523c0.41-0.557,0.925-0.998,1.545-1.326
			c0.62-0.326,1.296-0.49,2.029-0.49h0.454c0.605,0,1.177,0.115,1.714,0.344c0.537,0.23,1.006,0.545,1.406,0.945
			c0.4,0.4,0.715,0.869,0.945,1.406s0.344,1.108,0.344,1.714v10.884H97.251z"/>
		<path d="M103.111,11.471V9.068h2.095v2.402H103.111z M103.257,30.074v-15h1.802v15H103.257z"/>
		<path d="M118.938,27.672c-0.229,0.537-0.544,1.006-0.945,1.406s-0.869,0.715-1.406,0.945c-0.537,0.229-1.108,0.344-1.714,0.344
			h-1.201c-0.605,0-1.177-0.115-1.714-0.344c-0.537-0.23-1.006-0.545-1.406-0.945s-0.715-0.869-0.945-1.406
			s-0.344-1.108-0.344-1.714V19.19c0-0.605,0.115-1.177,0.344-1.714s0.544-1.006,0.945-1.406c0.4-0.4,0.869-0.715,1.406-0.945
			c0.537-0.229,1.108-0.344,1.714-0.344h1.201c0.605,0,1.177,0.115,1.714,0.344c0.537,0.23,1.006,0.545,1.406,0.945
			c0.4,0.4,0.715,0.869,0.945,1.406s0.344,1.108,0.344,1.714v0.601l-1.802,0.293v-0.996c0-0.361-0.068-0.701-0.205-1.018
			c-0.137-0.318-0.322-0.594-0.557-0.828s-0.51-0.42-0.828-0.557s-0.657-0.205-1.018-0.205h-1.201c-0.361,0-0.701,0.068-1.018,0.205
			s-0.593,0.322-0.828,0.557s-0.42,0.51-0.557,0.828c-0.137,0.316-0.205,0.656-0.205,1.018v6.973c0,0.361,0.068,0.701,0.205,1.018
			c0.137,0.318,0.322,0.594,0.557,0.828s0.51,0.42,0.828,0.557s0.657,0.205,1.018,0.205h1.201c0.361,0,0.701-0.068,1.018-0.205
			s0.593-0.322,0.828-0.557s0.42-0.51,0.557-0.828c0.137-0.316,0.205-0.656,0.205-1.018v-0.996l1.802,0.293v0.601
			C119.283,26.564,119.168,27.135,118.938,27.672z"/>
		<path d="M123.34,11.471V9.068h2.095v2.402H123.34z M123.487,30.074v-15h1.802v15H123.487z"/>
		<path d="M139.168,27.672c-0.229,0.537-0.544,1.006-0.945,1.406s-0.869,0.715-1.406,0.945c-0.537,0.229-1.108,0.344-1.714,0.344
			h-1.201c-0.605,0-1.177-0.115-1.714-0.344c-0.537-0.23-1.006-0.545-1.406-0.945s-0.715-0.869-0.945-1.406
			s-0.344-1.108-0.344-1.714V19.19c0-0.605,0.115-1.177,0.344-1.714s0.544-1.006,0.945-1.406c0.4-0.4,0.869-0.715,1.406-0.945
			c0.537-0.229,1.108-0.344,1.714-0.344h1.201c0.605,0,1.177,0.115,1.714,0.344c0.537,0.23,1.006,0.545,1.406,0.945
			c0.4,0.4,0.715,0.869,0.945,1.406s0.344,1.108,0.344,1.714v6.768C139.512,26.564,139.397,27.135,139.168,27.672z M137.71,19.088
			c0-0.361-0.068-0.701-0.205-1.018c-0.137-0.318-0.322-0.594-0.557-0.828s-0.51-0.42-0.828-0.557s-0.657-0.205-1.018-0.205h-1.201
			c-0.361,0-0.701,0.068-1.018,0.205s-0.593,0.322-0.828,0.557s-0.42,0.51-0.557,0.828c-0.137,0.316-0.205,0.656-0.205,1.018v6.973
			c0,0.361,0.068,0.701,0.205,1.018c0.137,0.318,0.322,0.594,0.557,0.828s0.51,0.42,0.828,0.557s0.657,0.205,1.018,0.205h1.201
			c0.361,0,0.701-0.068,1.018-0.205s0.593-0.322,0.828-0.557s0.42-0.51,0.557-0.828c0.137-0.316,0.205-0.656,0.205-1.018V19.088z
			 M133.755,12.672h-1.348l2.388-3.604h3.003L133.755,12.672z"/>
		<path d="M151.333,30.074V19.088c0-0.361-0.068-0.701-0.205-1.018c-0.137-0.318-0.322-0.594-0.557-0.828s-0.51-0.42-0.828-0.557
			s-0.657-0.205-1.018-0.205h-1.201c-0.361,0-0.701,0.068-1.018,0.205s-0.593,0.322-0.828,0.557s-0.42,0.51-0.557,0.828
			c-0.137,0.316-0.205,0.656-0.205,1.018v10.986h-1.802v-15h0.601l0.981,1.523c0.41-0.557,0.925-0.998,1.545-1.326
			c0.62-0.326,1.296-0.49,2.029-0.49h0.454c0.605,0,1.177,0.115,1.714,0.344c0.537,0.23,1.006,0.545,1.406,0.945
			c0.4,0.4,0.715,0.869,0.945,1.406s0.344,1.108,0.344,1.714v10.884H151.333z"/>
	</g>
</g>
<g>
	<g>
		<rect x="289.096" y="26.428" fill="#154A8C" width="3.617" height="3.796"/>
		<rect x="280.534" y="26.428" fill="#154A8C" width="3.619" height="3.796"/>
		<rect x="271.973" y="26.428" fill="#154A8C" width="3.616" height="3.796"/>
		<rect x="263.411" y="26.428" fill="#154A8C" width="3.616" height="3.796"/>
		<rect x="254.85" y="26.428" fill="#154A8C" width="3.617" height="3.796"/>
		<rect x="246.287" y="26.428" fill="#154A8C" width="3.62" height="3.796"/>
		<rect x="237.726" y="26.428" fill="#154A8C" width="3.62" height="3.796"/>
		<rect x="229.164" y="26.428" fill="#154A8C" width="3.619" height="3.796"/>
		<rect x="220.603" y="26.428" fill="#154A8C" width="3.619" height="3.796"/>
		<rect x="212.043" y="26.428" fill="#154A8C" width="3.619" height="3.796"/>
		<rect x="203.481" y="26.428" fill="#154A8C" width="3.618" height="3.796"/>
		<rect x="194.92" y="26.428" fill="#154A8C" width="3.615" height="3.796"/>
		<rect x="186.358" y="26.428" fill="#154A8C" width="3.618" height="3.796"/>
		<rect x="178.347" y="26.428" fill="#154A8C" width="3.619" height="3.796"/>
		<rect x="169.785" y="26.428" fill="#154A8C" width="3.618" height="3.796"/>
		<rect x="161.224" y="26.428" fill="#154A8C" width="3.615" height="3.796"/>
	</g>
	<g>
		<rect x="400.532" y="26.428" fill="#154A8C" width="3.616" height="3.796"/>
		<rect x="391.969" y="26.428" fill="#154A8C" width="3.619" height="3.796"/>
		<rect x="383.409" y="26.428" fill="#154A8C" width="3.617" height="3.796"/>
		<rect x="374.846" y="26.428" fill="#154A8C" width="3.617" height="3.796"/>
		<rect x="366.286" y="26.428" fill="#154A8C" width="3.617" height="3.796"/>
		<rect x="357.723" y="26.428" fill="#154A8C" width="3.62" height="3.796"/>
		<rect x="451.034" y="26.428" fill="#154A8C" width="3.617" height="3.796"/>
		<rect x="442.471" y="26.428" fill="#154A8C" width="3.619" height="3.796"/>
		<rect x="433.911" y="26.428" fill="#154A8C" width="3.617" height="3.796"/>
		<rect x="425.348" y="26.428" fill="#154A8C" width="3.617" height="3.796"/>
		<rect x="416.788" y="26.428" fill="#154A8C" width="3.617" height="3.796"/>
		<rect x="408.225" y="26.428" fill="#154A8C" width="3.62" height="3.796"/>
		<rect x="349.162" y="26.428" fill="#154A8C" width="3.62" height="3.796"/>
		<rect x="340.6" y="26.428" fill="#154A8C" width="3.619" height="3.796"/>
		<rect x="332.039" y="26.428" fill="#154A8C" width="3.619" height="3.796"/>
		<rect x="323.479" y="26.428" fill="#154A8C" width="3.619" height="3.796"/>
		<rect x="314.917" y="26.428" fill="#154A8C" width="3.617" height="3.796"/>
		<rect x="306.356" y="26.428" fill="#154A8C" width="3.614" height="3.796"/>
		<rect x="297.794" y="26.428" fill="#154A8C" width="3.618" height="3.796"/>
	</g>
</g>
<path fill="#154A8C" stroke="#000000" stroke-width="0.5" stroke-miterlimit="10" d="M27.247,6.788H10.461
	c-0.647,0-1.203,0.389-1.455,0.941C8.915,7.931,8.862,8.153,8.862,8.386v20.785c0,0.877,0.719,1.598,1.6,1.598h16.786
	c0.234,0,0.455-0.053,0.657-0.145c0.553-0.252,0.942-0.809,0.942-1.453V8.386C28.847,7.509,28.127,6.788,27.247,6.788z
	 M25.354,27.571h-13c-0.441,0-0.799-0.357-0.799-0.799c0-0.443,0.358-0.801,0.799-0.801h13c0.442,0,0.801,0.357,0.801,0.801
	C26.155,27.214,25.796,27.571,25.354,27.571z M25.354,23.575h-13c-0.441,0-0.799-0.357-0.799-0.801c0-0.441,0.358-0.797,0.799-0.797
	h13c0.442,0,0.801,0.355,0.801,0.797C26.155,23.218,25.796,23.575,25.354,23.575z M25.354,19.577h-13
	c-0.441,0-0.799-0.357-0.799-0.799c0-0.441,0.358-0.799,0.799-0.799h13c0.442,0,0.801,0.357,0.801,0.799
	C26.155,19.22,25.796,19.577,25.354,19.577z M25.354,15.581h-13c-0.441,0-0.799-0.357-0.799-0.799s0.358-0.801,0.799-0.801h13
	c0.442,0,0.801,0.359,0.801,0.801S25.796,15.581,25.354,15.581z M25.354,11.585h-13c-0.441,0-0.799-0.357-0.799-0.801
	c0-0.441,0.358-0.799,0.799-0.799h13c0.442,0,0.801,0.357,0.801,0.799C26.155,11.228,25.796,11.585,25.354,11.585z"/>
</svg>