<?xml version="1.0" encoding="utf-8"?>
<!-- Generator: Adobe Illustrator 17.0.0, SVG Export Plug-In . SVG Version: 6.00 Build 0)  -->
<!DOCTYPE svg PUBLIC "-//W3C//DTD SVG 1.1//EN" "http://www.w3.org/Graphics/SVG/1.1/DTD/svg11.dtd" [
	<!ENTITY ns_extend "http://ns.adobe.com/Extensibility/1.0/">
	<!ENTITY ns_ai "http://ns.adobe.com/AdobeIllustrator/10.0/">
	<!ENTITY ns_graphs "http://ns.adobe.com/Graphs/1.0/">
	<!ENTITY ns_vars "http://ns.adobe.com/Variables/1.0/">
	<!ENTITY ns_imrep "http://ns.adobe.com/ImageReplacement/1.0/">
	<!ENTITY ns_sfw "http://ns.adobe.com/SaveForWeb/1.0/">
	<!ENTITY ns_custom "http://ns.adobe.com/GenericCustomNamespace/1.0/">
	<!ENTITY ns_adobe_xpath "http://ns.adobe.com/XPath/1.0/">
]>
<svg version="1.1" id="Capa_1" xmlns:x="&ns_extend;" xmlns:i="&ns_ai;" xmlns:graph="&ns_graphs;"
	 xmlns="http://www.w3.org/2000/svg" xmlns:xlink="http://www.w3.org/1999/xlink" x="0px" y="0px" width="341.835px"
	 height="340.118px" viewBox="0 0 341.835 340.118" enable-background="new 0 0 341.835 340.118" xml:space="preserve">
<metadata>
	<sfw  xmlns="&ns_sfw;">
		<slices></slices>
		<sliceSourceBounds  width="341.835" height="340.118" x="511.583" y="580.441" bottomLeftOrigin="true"></sliceSourceBounds>
	</sfw>
</metadata>
<g>
	<g>
		<g>
			<rect x="1.961" y="86.432" fill="#E7E6E6" width="337.912" height="249.787"/>
			<rect x="0" y="332.317" fill="#154A8C" width="341.835" height="7.801"/>
			<g>
				<path fill="#2A5E96" d="M174.86,82.79c0-2.174-1.766-3.942-3.943-3.942c-2.177,0-3.941,1.769-3.941,3.942
					c0,2.176,1.764,3.943,3.941,3.943S174.86,84.966,174.86,82.79z"/>
				<rect x="0" y="82.791" fill="#154A8C" width="341.835" height="7.8"/>
				<polygon fill="#2A5E96" points="49.378,90.591 66.511,82.791 273.669,82.791 291.128,90.591 				"/>
				<polygon opacity="0.35" fill="#FFFFFF" enable-background="new    " points="169,36.083 14.955,106.399 14.955,325.071 
					325.955,325.071 325.955,106.399 				"/>
			</g>
		</g>
		<g>
			<path d="M217.287,6.257h-40.392V0h-6.652v6.257h-42.82c-6.919,0-12.548,5.63-12.548,12.548v9.716
				c0,5.652,3.759,10.44,8.904,12.005v-3.438c-3.327-1.422-5.665-4.726-5.665-8.566v-9.716c0-5.133,4.176-9.309,9.31-9.309h89.864
				c5.134,0,9.31,4.176,9.31,9.309v9.716c0,2.814-1.258,5.334-3.238,7.042v3.933c3.858-2.143,6.477-6.257,6.477-10.975v-9.716
				C229.835,11.887,224.206,6.257,217.287,6.257"/>
			<path fill="#C6C6C6" d="M212.43,57.666h-77.72c-6.036,0-10.931-4.895-10.931-10.931V34.591c0-6.036,4.895-10.929,10.931-10.929
				h77.72c6.036,0,10.928,4.893,10.928,10.929v12.145C223.358,52.771,218.466,57.666,212.43,57.666"/>
			<rect x="135.923" y="28.028" width="75.292" height="22.841"/>
			<rect x="135.923" y="28.028" fill="#808080" width="75.292" height="22.841"/>
			<path fill="#59595C" d="M146.113,42.774c0,1.117-0.906,2.024-2.024,2.024c-1.116,0-2.021-0.907-2.021-2.024
				c0-1.118,0.905-2.024,2.021-2.024C145.207,40.75,146.113,41.656,146.113,42.774"/>
			<path fill="#424143" d="M152.186,42.774c0,1.117-0.907,2.024-2.025,2.024c-1.116,0-2.024-0.907-2.024-2.024
				c0-1.118,0.908-2.024,2.024-2.024C151.279,40.75,152.186,41.656,152.186,42.774"/>
			<path fill="#59595C" d="M146.113,36.988c0,1.118-0.906,2.024-2.024,2.024c-1.116,0-2.021-0.906-2.021-2.024
				s0.905-2.024,2.021-2.024C145.207,34.964,146.113,35.87,146.113,36.988"/>
			<path fill="#424143" d="M152.186,36.988c0,1.118-0.907,2.024-2.025,2.024c-1.116,0-2.024-0.906-2.024-2.024
				s0.908-2.024,2.024-2.024C151.279,34.964,152.186,35.87,152.186,36.988"/>
			<path fill="#929497" d="M158.139,42.774c0,1.117-0.906,2.024-2.023,2.024c-1.119,0-2.024-0.907-2.024-2.024
				c0-1.118,0.905-2.024,2.024-2.024C157.233,40.75,158.139,41.656,158.139,42.774"/>
			<path fill="#929497" d="M158.139,36.988c0,1.118-0.906,2.024-2.023,2.024c-1.119,0-2.024-0.906-2.024-2.024
				s0.905-2.024,2.024-2.024C157.233,34.964,158.139,35.87,158.139,36.988"/>
			<path fill="#77BF47" d="M207.17,32.851c0-0.376-0.303-0.682-0.679-0.682c-0.377,0-0.682,0.306-0.682,0.682
				s0.305,0.681,0.682,0.681C206.867,33.531,207.17,33.227,207.17,32.851"/>
			<path fill="#F05C22" d="M207.17,36.083c0-0.374-0.303-0.68-0.679-0.68c-0.377,0-0.682,0.306-0.682,0.68
				c0,0.377,0.305,0.682,0.682,0.682C206.867,36.765,207.17,36.46,207.17,36.083"/>
			<path fill="#E3E2E2" d="M203.016,35.765v-0.118V32.84h-2.925v2.807v0.118v2.807h2.925V35.765z M202.813,38.369h-2.519v-2.522
				h2.519V38.369z M202.813,35.563h-2.519v-2.521h2.519V35.563z"/>
			<path fill="#E3E2E2" d="M199.499,39.101h4.256v-6.847h-4.256V39.101z M203.552,38.897H199.7v-6.441h3.852V38.897z"/>
			<circle fill="none" stroke="#E3E2E2" stroke-width="0.17" stroke-miterlimit="10" cx="201.576" cy="37.082" r="0.585"/>
			
				<line fill="none" stroke="#E3E2E2" stroke-width="0.197" stroke-miterlimit="10" x1="201.585" y1="33.909" x2="201.585" y2="34.944"/>
			<path fill="none" stroke="#F1F1F1" stroke-miterlimit="10" d="M179.223,37.339h-13.31c-0.241,0-0.457-0.156-0.528-0.39
				l-1.073-3.447c-0.111-0.355,0.155-0.717,0.527-0.717h14.383c0.306,0,0.552,0.247,0.552,0.552v3.451
				C179.775,37.093,179.528,37.339,179.223,37.339z"/>
			<path fill="none" stroke="#F1F1F1" stroke-miterlimit="10" d="M179.223,45.031h-13.31c-0.241,0-0.457-0.156-0.528-0.39
				l-1.073-3.449c-0.111-0.354,0.155-0.716,0.527-0.716h14.383c0.306,0,0.552,0.247,0.552,0.553v3.45
				C179.775,44.783,179.528,45.031,179.223,45.031z"/>
			<polygon fill="none" stroke="#F1F1F1" stroke-miterlimit="10" points="188.166,33.999 185.35,33.999 184.834,32.785 
				188.68,32.785 			"/>
			<polygon fill="none" stroke="#F1F1F1" stroke-miterlimit="10" points="188.166,37.44 185.35,37.44 184.834,36.226 188.68,36.226 
							"/>
			<polygon fill="none" stroke="#F1F1F1" stroke-miterlimit="10" points="188.166,40.779 185.35,40.779 184.834,39.565 
				188.68,39.565 			"/>
			<polygon fill="none" stroke="#F1F1F1" stroke-miterlimit="10" points="188.166,44.019 185.35,44.019 184.834,42.805 
				188.68,42.805 			"/>
		</g>
	</g>
	<g>
		<g>
			
				<circle fill="none" stroke="#231F20" stroke-width="3.2" stroke-linejoin="round" stroke-dasharray="9.9219,9.9219" cx="286.298" cy="188.524" r="33.463"/>
		</g>
		<g>
			
				<rect x="22.074" y="211.403" fill="#FFFFFF" stroke="#231F20" stroke-width="3.2" stroke-linejoin="round" stroke-miterlimit="10" width="69.136" height="55.198"/>
			<rect x="28.207" y="217.537" fill="#154A8C" width="56.313" height="42.374"/>
			<polyline fill="none" stroke="#231F20" stroke-width="3.2" stroke-linejoin="round" stroke-miterlimit="10" points="
				27.585,245.554 51.33,233.221 74.555,246.604 			"/>
			<polyline fill="none" stroke="#231F20" stroke-width="3.2" stroke-linejoin="round" stroke-miterlimit="10" points="
				64.621,240.879 73.242,233.221 85.051,240.879 			"/>
			<circle fill="#FFFFFF" cx="61.565" cy="225.742" r="5.379"/>
		</g>
		<g>
			<path fill="#C4C6C7" d="M96.786,172.862v-3.93c0.558-0.227,1.406-0.522,2.082-0.882l2.754,2.779c0.263,0.264,0.681,0.264,0.943,0
				l3.976-3.982c0.263-0.265,0.261-0.691-0.003-0.953l-2.782-2.94c0.362-0.675,0.655-1.173,0.88-2.289h3.932
				c0.374,0,0.484,0.018,0.484-0.355v-5.631c0-0.373-0.11-0.704-0.484-0.704h-3.932c-0.226-1.115-0.52-1.439-0.88-2.112l2.778-2.772
				c0.265-0.265,0.265-0.688,0-0.951l-3.982-3.98c-0.263-0.266-0.69-0.263-0.953,0.001l-2.731,2.778
				c-0.676-0.357-1.524-0.654-2.082-0.882v-3.932c0-0.371-0.397-0.973-0.77-0.973h-5.632c-0.373,0-0.845,0.602-0.845,0.973v3.932
				c-0.558,0.228-1.37,0.524-2.042,0.882l-2.738-2.777c-0.263-0.265-0.669-0.265-0.933,0l-3.973,3.981
				c-0.263,0.265-0.258,0.69,0.005,0.954l2.785,2.767c-0.36,0.673-0.657,0.997-0.881,2.112h-3.93c-0.373,0-1.118,0.331-1.118,0.704
				v5.631c0,0.373,0.745,0.355,1.118,0.355h3.93c0.227,1.116,0.524,1.614,0.883,2.289l-2.782,2.86c-0.264,0.264-0.264,0.73,0,0.993
				l3.985,4.002c0.264,0.265,0.69,0.274,0.953,0.01l2.696-2.773c0.671,0.359,1.483,0.66,2.042,0.887v3.93
				c0,0.374,0.472,0.626,0.845,0.626h5.632C96.389,173.488,96.786,173.236,96.786,172.862z"/>
			
				<circle fill="#F1F2F2" stroke="#231F20" stroke-width="3.2" stroke-linejoin="round" stroke-miterlimit="10" cx="93.057" cy="157.681" r="5.054"/>
		</g>
		<g>
			
				<circle fill="#F1F2F2" stroke="#231F20" stroke-width="3.2" stroke-linejoin="round" stroke-miterlimit="10" cx="285.799" cy="189.13" r="8.773"/>
		</g>
		<g>
			<rect x="133.585" y="266.602" fill="#BCBEC0" width="31.781" height="21.187"/>
			<g>
				<path fill="#F1F2F2" d="M222.795,175.739c0-4.407-3.276-8.384-7.879-8.384H83.608c-4.604,0-8.566,3.977-8.566,8.384v65.772
					h147.753L222.795,175.739L222.795,175.739z"/>
				<path fill="#F1F2F2" stroke="#231F20" stroke-width="3.2" stroke-linejoin="round" stroke-miterlimit="10" d="M75.042,241.512
					V259.1c0,4.411,3.962,7.502,8.566,7.502h131.308c4.603,0,7.879-3.091,7.879-7.502v-17.588L75.042,241.512L75.042,241.512z"/>
			</g>
			<circle fill="#BCBEC0" cx="149.262" cy="254.123" r="5.152"/>
			
				<rect x="127.452" y="287.788" fill="#F1F2F2" stroke="#231F20" stroke-width="3.2" stroke-linejoin="round" stroke-miterlimit="10" width="42.933" height="5.576"/>
			
				<rect x="84.521" y="176.277" fill="#939598" stroke="#231F20" stroke-width="3.2" stroke-linejoin="round" stroke-miterlimit="10" width="129.353" height="65.234"/>
			<g opacity="0.3">
				<rect x="93.441" y="184.64" fill="#F1F2F2" width="112.067" height="17.284"/>
				<rect x="93.441" y="206.385" fill="#F1F2F2" width="74.154" height="13.939"/>
				<rect x="174.845" y="206.385" fill="#F1F2F2" width="30.108" height="13.939"/>
				<rect x="93.441" y="225.342" fill="#F1F2F2" width="111.511" height="7.805"/>
			</g>
		</g>
		<rect x="214.988" y="199.694" fill="#E6E7E8" width="7.807" height="3.345"/>
		<rect x="75.042" y="235.378" fill="#E6E7E8" width="8.363" height="2.788"/>
		<g>
			<g>
				<path fill="#D1D3D4" d="M58.872,293.206c0,1.524,1.143,2.945,2.584,2.945H99.04c1.44,0,2.764-1.421,2.764-2.945v-6.533H58.872
					V293.206z"/>
				<path fill="#D1D3D4" d="M101.805,240.958c0-1.523-1.324-2.792-2.764-2.792H61.456c-1.441,0-2.584,1.269-2.584,2.792v6.687
					h42.933V240.958z"/>
				
					<rect x="58.872" y="247.645" fill="#BCBEC0" stroke="#231F20" stroke-width="3.2" stroke-linejoin="round" stroke-miterlimit="10" width="42.933" height="39.028"/>
			</g>
			
				<line fill="none" stroke="#231F20" stroke-width="3.2" stroke-linejoin="round" stroke-miterlimit="10" x1="74.484" y1="243.185" x2="80.617" y2="243.185"/>
			
				<line fill="none" stroke="#231F20" stroke-width="3.2" stroke-linejoin="round" stroke-miterlimit="10" x1="83.405" y1="243.185" x2="86.192" y2="243.185"/>
			<rect x="63.891" y="252.663" opacity="0.8" fill="#FFFFFF" enable-background="new    " width="32.337" height="16.169"/>
			<rect x="63.891" y="272.735" opacity="0.8" fill="#FFFFFF" enable-background="new    " width="32.337" height="9.476"/>
			
				<line fill="none" stroke="#231F20" stroke-width="3.2" stroke-linejoin="round" stroke-miterlimit="10" x1="68.351" y1="258.237" x2="74.484" y2="258.237"/>
			
				<line fill="none" stroke="#231F20" stroke-width="3.2" stroke-linejoin="round" stroke-miterlimit="10" x1="68.351" y1="277.195" x2="76.157" y2="277.195"/>
			
				<line fill="none" stroke="#231F20" stroke-width="3.2" stroke-linejoin="round" stroke-miterlimit="10" x1="83.962" y1="277.195" x2="92.326" y2="277.195"/>
			
				<line fill="none" stroke="#231F20" stroke-width="3.2" stroke-linejoin="round" stroke-miterlimit="10" x1="68.351" y1="262.698" x2="92.326" y2="262.698"/>
		</g>
		<g>
			<path fill="#D1D3D4" d="M146.923,164.569h5.105c0-9.479,9.267-15.591,9.267-15.591l-14.372-16.755l-14.371,16.794
				c0,0,9.265,6.072,9.265,15.552H146.923z"/>
			<g>
				
					<rect x="135.815" y="229.803" fill="#FFD248" stroke="#231F20" stroke-width="3.2" stroke-linejoin="round" stroke-miterlimit="10" width="21.187" height="11.709"/>
				<polygon fill="#154A8C" points="157.003,169.587 155.33,169.587 155.33,164.569 137.489,164.569 137.489,169.587 
					135.815,169.587 135.815,224.783 157.003,224.783 				"/>
				
					<rect x="135.815" y="224.783" fill="#A7A9AC" stroke="#231F20" stroke-width="3.2" stroke-linejoin="round" stroke-miterlimit="10" width="21.187" height="5.019"/>
			</g>
			
				<line fill="none" stroke="#231F20" stroke-width="3.2" stroke-linejoin="round" stroke-miterlimit="10" x1="136.931" y1="169.587" x2="149.196" y2="169.587"/>
			
				<line fill="none" stroke="#231F20" stroke-width="3.2" stroke-linejoin="round" stroke-miterlimit="10" x1="146.968" y1="132.229" x2="146.968" y2="147.284"/>
			
				<circle fill="#939598" stroke="#231F20" stroke-width="3.2" stroke-linejoin="round" stroke-miterlimit="10" cx="146.993" cy="150.844" r="3.247"/>
		</g>
		<g>
			<g>
				<rect x="164.808" y="149.514" fill="#FFCC04" width="17.842" height="90.882"/>
				
					<line fill="none" stroke="#231F20" stroke-width="3.2" stroke-linejoin="round" stroke-miterlimit="10" x1="174.845" y1="156.205" x2="165.366" y2="156.205"/>
				
					<line fill="none" stroke="#231F20" stroke-width="3.2" stroke-linejoin="round" stroke-miterlimit="10" x1="172.613" y1="162.895" x2="165.366" y2="162.895"/>
				
					<line fill="none" stroke="#231F20" stroke-width="3.2" stroke-linejoin="round" stroke-miterlimit="10" x1="174.845" y1="170.702" x2="165.366" y2="170.702"/>
				
					<line fill="none" stroke="#231F20" stroke-width="3.2" stroke-linejoin="round" stroke-miterlimit="10" x1="172.613" y1="179.065" x2="165.366" y2="179.065"/>
				
					<line fill="none" stroke="#231F20" stroke-width="3.2" stroke-linejoin="round" stroke-miterlimit="10" x1="174.845" y1="186.313" x2="165.366" y2="186.313"/>
				
					<line fill="none" stroke="#231F20" stroke-width="3.2" stroke-linejoin="round" stroke-miterlimit="10" x1="172.613" y1="195.234" x2="165.366" y2="195.234"/>
				
					<line fill="none" stroke="#231F20" stroke-width="3.2" stroke-linejoin="round" stroke-miterlimit="10" x1="174.845" y1="203.039" x2="165.366" y2="203.039"/>
				
					<line fill="none" stroke="#231F20" stroke-width="3.2" stroke-linejoin="round" stroke-miterlimit="10" x1="172.613" y1="210.846" x2="165.366" y2="210.846"/>
				
					<line fill="none" stroke="#231F20" stroke-width="3.2" stroke-linejoin="round" stroke-miterlimit="10" x1="174.845" y1="218.652" x2="165.366" y2="218.652"/>
				
					<line fill="none" stroke="#231F20" stroke-width="3.2" stroke-linejoin="round" stroke-miterlimit="10" x1="172.613" y1="225.899" x2="165.366" y2="225.899"/>
				
					<line fill="none" stroke="#231F20" stroke-width="3.2" stroke-linejoin="round" stroke-miterlimit="10" x1="174.845" y1="234.82" x2="165.366" y2="234.82"/>
			</g>
			
				<line fill="none" stroke="#231F20" stroke-width="3.2" stroke-linejoin="round" stroke-miterlimit="10" x1="164.808" y1="149.514" x2="164.808" y2="240.395"/>
		</g>
		<g>
			<g>
				<rect x="119.089" y="228.13" fill="#D1D3D4" width="11.151" height="2.787"/>
				<rect x="119.089" y="169.028" fill="#154A8C" width="11.151" height="59.102"/>
				
					<rect x="119.646" y="230.917" fill="#939598" stroke="#231F20" stroke-width="3.2" stroke-linejoin="round" stroke-miterlimit="10" width="10.036" height="10.595"/>
			</g>
			<polygon fill="#F1F2F2" stroke="#231F20" stroke-width="3.2" stroke-linejoin="round" stroke-miterlimit="10" points="
				124.905,158.256 119.752,169.028 130.058,169.028 			"/>
			
				<line fill="none" stroke="#231F20" stroke-width="3.2" stroke-linejoin="round" stroke-miterlimit="10" x1="124.106" y1="169.028" x2="124.106" y2="223.669"/>
		</g>
		<g>
			<path fill="#D1D3D4" d="M285.798,208.336c0-2.966-2.236-5.297-5.204-5.297H175.962c-2.967,0-5.577,2.331-5.577,5.297v76.665
				h115.414v-76.665H285.798z"/>
			<path fill="#F1F2F2" stroke="#231F20" stroke-width="3.2" stroke-linejoin="round" stroke-miterlimit="10" d="M162.02,285.001
				v5.307c0,2.964,2.612,5.286,6.026,5.286h120.462c3.416,0,6.209-2.322,6.209-5.286v-5.307H162.02z"/>
			<rect x="178.747" y="209.73" fill="#FFCC04" width="99.245" height="66.907"/>
			
				<line fill="none" stroke="#231F20" stroke-width="3.2" stroke-linejoin="round" stroke-miterlimit="10" x1="221.68" y1="290.575" x2="234.503" y2="290.575"/>
			<g opacity="0.3">
				<rect x="185.439" y="215.863" fill="#FFFFFF" width="86.977" height="17.842"/>
				<rect x="185.439" y="239.28" fill="#FFFFFF" width="57.428" height="15.613"/>
				<rect x="248.441" y="239.28" fill="#FFFFFF" width="23.417" height="15.613"/>
				<rect x="185.439" y="259.911" fill="#FFFFFF" width="86.42" height="8.921"/>
			</g>
		</g>
		<g>
			
				<rect x="227.255" y="183.525" fill="#FFFFFF" stroke="#231F20" stroke-width="3.2" stroke-linejoin="round" stroke-miterlimit="10" width="44.047" height="34.568"/>
			<rect x="232.272" y="186.871" fill="#154A8C" width="34.568" height="26.762"/>
			<polyline fill="none" stroke="#231F20" stroke-width="3.2" stroke-linejoin="round" stroke-miterlimit="10" points="
				230.728,204.884 245.66,197.128 260.264,205.545 			"/>
			<polyline fill="none" stroke="#231F20" stroke-width="3.2" stroke-linejoin="round" stroke-miterlimit="10" points="
				254.017,201.945 259.439,197.128 266.863,201.945 			"/>
			<circle fill="#FFFFFF" cx="252.096" cy="192.425" r="3.383"/>
		</g>
		
			<line fill="none" stroke="#231F20" stroke-width="3.2" stroke-linejoin="round" stroke-miterlimit="10" x1="190.457" y1="264.371" x2="196.589" y2="264.371"/>
		
			<line fill="none" stroke="#231F20" stroke-width="3.2" stroke-linejoin="round" stroke-miterlimit="10" x1="204.953" y1="264.371" x2="209.97" y2="264.371"/>
		
			<line fill="none" stroke="#231F20" stroke-width="3.2" stroke-linejoin="round" stroke-miterlimit="10" x1="218.334" y1="264.371" x2="224.466" y2="264.371"/>
		
			<line fill="none" stroke="#231F20" stroke-width="3.2" stroke-linejoin="round" stroke-miterlimit="10" x1="232.272" y1="264.371" x2="238.405" y2="264.371"/>
		
			<line fill="none" stroke="#231F20" stroke-width="3.2" stroke-linejoin="round" stroke-miterlimit="10" x1="218.334" y1="229.803" x2="221.122" y2="229.803"/>
		
			<line fill="none" stroke="#231F20" stroke-width="3.2" stroke-linejoin="round" stroke-miterlimit="10" x1="225.582" y1="229.803" x2="228.928" y2="229.803"/>
		
			<line fill="none" stroke="#231F20" stroke-width="3.2" stroke-linejoin="round" stroke-miterlimit="10" x1="233.387" y1="229.803" x2="236.176" y2="229.803"/>
		
			<line fill="none" stroke="#231F20" stroke-width="3.2" stroke-linejoin="round" stroke-miterlimit="10" x1="246.212" y1="264.371" x2="251.786" y2="264.371"/>
		
			<line fill="none" stroke="#231F20" stroke-width="3.2" stroke-linejoin="round" stroke-miterlimit="10" x1="259.593" y1="264.371" x2="265.727" y2="264.371"/>
		<polyline fill="none" stroke="#231F20" stroke-width="3.2" stroke-linejoin="round" stroke-miterlimit="10" points="
			185.439,239.28 185.439,254.894 242.867,254.894 		"/>
		<g>
			
				<line fill="none" stroke="#231F20" stroke-width="3.2" stroke-linejoin="round" stroke-miterlimit="10" x1="271.302" y1="252.663" x2="257.362" y2="252.663"/>
			
				<line fill="none" stroke="#231F20" stroke-width="3.2" stroke-linejoin="round" stroke-miterlimit="10" x1="254.017" y1="252.663" x2="248.999" y2="252.663"/>
			
				<line fill="none" stroke="#231F20" stroke-width="3.2" stroke-linejoin="round" stroke-miterlimit="10" x1="271.302" y1="247.645" x2="257.362" y2="247.645"/>
			
				<line fill="none" stroke="#231F20" stroke-width="3.2" stroke-linejoin="round" stroke-miterlimit="10" x1="254.017" y1="247.645" x2="248.999" y2="247.645"/>
			
				<line fill="none" stroke="#231F20" stroke-width="3.2" stroke-linejoin="round" stroke-miterlimit="10" x1="271.302" y1="240.395" x2="257.362" y2="240.395"/>
			
				<line fill="none" stroke="#231F20" stroke-width="3.2" stroke-linejoin="round" stroke-miterlimit="10" x1="254.017" y1="240.395" x2="248.999" y2="240.395"/>
		</g>
		<g>
			<polygon fill="#FFCC04" points="104.035,182.968 56.644,182.968 56.644,213.633 81.732,213.633 81.732,225.444 93.312,213.633 
				104.035,213.633 			"/>
			<polyline fill="none" stroke="#231F20" stroke-width="3.2" stroke-linejoin="round" stroke-miterlimit="10" points="
				71.393,192.413 66.065,197.742 71.544,203.222 			"/>
			<polyline fill="none" stroke="#231F20" stroke-width="3.2" stroke-linejoin="round" stroke-miterlimit="10" points="
				89.752,203.489 95.348,197.894 89.752,192.298 			"/>
			
				<line fill="none" stroke="#231F20" stroke-width="3.2" stroke-linejoin="round" stroke-miterlimit="10" x1="76.729" y1="207.555" x2="85.386" y2="188.08"/>
		</g>
		
			<line fill="none" stroke="#231F20" stroke-width="3.2" stroke-linejoin="round" stroke-miterlimit="10" x1="73.369" y1="166.798" x2="54.412" y2="166.798"/>
		
			<line fill="none" stroke="#231F20" stroke-width="3.2" stroke-linejoin="round" stroke-miterlimit="10" x1="71.14" y1="157.321" x2="44.933" y2="157.321"/>
		
			<line fill="none" stroke="#231F20" stroke-width="3.2" stroke-linejoin="round" stroke-miterlimit="10" x1="72.254" y1="146.727" x2="61.661" y2="146.727"/>
		<g>
			<polygon fill="#E6E7E8" points="302.525,232.59 262.38,232.59 262.38,259.911 283.01,259.911 283.01,269.896 293.32,259.911 
				302.525,259.911 			"/>
			
				<line fill="none" stroke="#231F20" stroke-width="3.2" stroke-linejoin="round" stroke-miterlimit="10" x1="267.398" y1="238.166" x2="275.204" y2="238.166"/>
			
				<line fill="none" stroke="#231F20" stroke-width="3.2" stroke-linejoin="round" stroke-miterlimit="10" x1="267.398" y1="244.299" x2="298.065" y2="244.299"/>
			
				<line fill="none" stroke="#231F20" stroke-width="3.2" stroke-linejoin="round" stroke-miterlimit="10" x1="267.398" y1="250.433" x2="298.065" y2="250.433"/>
			
				<line fill="none" stroke="#231F20" stroke-width="3.2" stroke-linejoin="round" stroke-miterlimit="10" x1="267.398" y1="255.449" x2="274.09" y2="255.449"/>
			
				<line fill="none" stroke="#231F20" stroke-width="3.2" stroke-linejoin="round" stroke-miterlimit="10" x1="278.55" y1="255.449" x2="286.913" y2="255.449"/>
			
				<line fill="none" stroke="#231F20" stroke-width="3.2" stroke-linejoin="round" stroke-miterlimit="10" x1="289.7" y1="255.449" x2="298.065" y2="255.449"/>
			
				<line fill="none" stroke="#231F20" stroke-width="3.2" stroke-linejoin="round" stroke-miterlimit="10" x1="279.107" y1="238.166" x2="298.065" y2="238.166"/>
		</g>
		<g>
			<polygon fill="#E6E7E8" points="34.34,196.907 61.661,196.907 61.661,179.065 47.164,179.065 47.164,172.474 40.573,179.065 
				34.34,179.065 			"/>
			
				<line fill="none" stroke="#231F20" stroke-width="3.2" stroke-linejoin="round" stroke-miterlimit="10" x1="37.685" y1="187.428" x2="42.146" y2="187.428"/>
			
				<line fill="none" stroke="#231F20" stroke-width="3.2" stroke-linejoin="round" stroke-miterlimit="10" x1="46.049" y1="187.428" x2="49.952" y2="187.428"/>
			
				<line fill="none" stroke="#231F20" stroke-width="3.2" stroke-linejoin="round" stroke-miterlimit="10" x1="53.855" y1="187.428" x2="57.758" y2="187.428"/>
		</g>
	</g>
</g>
</svg>
