<?xml version="1.0" encoding="utf-8"?>
<!-- Generator: Adobe Illustrator 17.0.0, SVG Export Plug-In . SVG Version: 6.00 Build 0)  -->
<!DOCTYPE svg PUBLIC "-//W3C//DTD SVG 1.1//EN" "http://www.w3.org/Graphics/SVG/1.1/DTD/svg11.dtd" [
	<!ENTITY ns_extend "http://ns.adobe.com/Extensibility/1.0/">
	<!ENTITY ns_ai "http://ns.adobe.com/AdobeIllustrator/10.0/">
	<!ENTITY ns_graphs "http://ns.adobe.com/Graphs/1.0/">
	<!ENTITY ns_vars "http://ns.adobe.com/Variables/1.0/">
	<!ENTITY ns_imrep "http://ns.adobe.com/ImageReplacement/1.0/">
	<!ENTITY ns_sfw "http://ns.adobe.com/SaveForWeb/1.0/">
	<!ENTITY ns_custom "http://ns.adobe.com/GenericCustomNamespace/1.0/">
	<!ENTITY ns_adobe_xpath "http://ns.adobe.com/XPath/1.0/">
]>
<svg version="1.1" id="Capa_1" xmlns:x="&ns_extend;" xmlns:i="&ns_ai;" xmlns:graph="&ns_graphs;"
	 xmlns="http://www.w3.org/2000/svg" xmlns:xlink="http://www.w3.org/1999/xlink" x="0px" y="0px" width="342.21px"
	 height="458.816px" viewBox="0 0 342.21 458.816" enable-background="new 0 0 342.21 458.816" xml:space="preserve">
<metadata>
	<sfw  xmlns="&ns_sfw;">
		<slices></slices>
		<sliceSourceBounds  width="342.21" height="458.817" x="511.395" y="521.091" bottomLeftOrigin="true"></sliceSourceBounds>
	</sfw>
</metadata>
<g>
	<g>
		<defs>
			<rect id="SVGID_1_" x="0" width="342.21" height="393.625"/>
		</defs>
		<clipPath id="SVGID_2_">
			<use xlink:href="#SVGID_1_"  overflow="visible"/>
		</clipPath>
		<g clip-path="url(#SVGID_2_)">
			<path fill="#878686" d="M160.296,354.68c18.083,11.194,78.218,22.501,102.862,17.144c0,0,15.001,49.289,4.286,64.29
				s-2.163,13.072-27.712,21.145c-21.063,6.656-69.939-8.428-74.225-37.357C161.222,390.971,160.296,354.68,160.296,354.68"/>
			<path fill="#878686" d="M160.296,354.68c18.083,11.194,78.218,22.501,102.862,17.144c0,0,15.001,49.289,4.286,64.29
				s-2.163,13.072-27.712,21.145c-21.063,6.656-19.267-51.73-48.51-51.287C155.864,406.507,160.296,354.68,160.296,354.68"/>
			<path fill="#CE8452" d="M72.409,191.851c0,0,4.521,8.201,5.651,12.65c1.133,4.446-9.359,8.763-10.571,5.704
				c-1.212-3.06-7.565-13.503-5.092-14.632C64.869,194.448,70.17,190.637,72.409,191.851"/>
			<path fill="none" stroke="#6B4429" stroke-miterlimit="10" d="M72.409,191.851c0,0,4.521,8.201,5.651,12.65
				c1.133,4.446-9.359,8.763-10.571,5.704c-1.212-3.06-7.565-13.503-5.092-14.632C64.869,194.448,70.17,190.637,72.409,191.851z"/>
			<path fill="#FFA96A" d="M126.704,300.53c-12.474-24.908-35.971-38.923-35.496-57.431c1.561-5.95,1.696-14.054-0.659-23.092
				c-2.356-9.037-2.216-11.155-4.382-12.828c-2.164-1.674-6.081-4.762-15.912-0.691c-9.831,4.072-21.534,10.904-18.933,20.883
				c2.601,9.98,9.306,22.865,13.91,26.84c9.023,7.787,25.676,66.618,35.126,75.69C109.807,338.974,139.176,325.436,126.704,300.53"
				/>
			<path fill="none" stroke="#6B4429" stroke-linecap="round" stroke-linejoin="round" stroke-miterlimit="10" d="M126.704,300.53
				c-12.474-24.908-35.971-38.923-35.496-57.431c1.561-5.95,1.696-14.054-0.659-23.092c-2.356-9.037-2.216-11.155-4.382-12.828
				c-2.164-1.674-6.081-4.762-15.912-0.691c-9.831,4.072-21.534,10.904-18.933,20.883c2.601,9.98,9.306,22.865,13.91,26.84
				c9.023,7.787,25.676,66.618,35.126,75.69C109.807,338.974,139.176,325.436,126.704,300.53z"/>
			<path fill="#FFA96A" d="M74.575,212.2c-1.272-4.882-1.389-14.139-1.233-16.773c0.175-2.956-0.97-8.674-7.27-6.977
				c-4.361,1.177-4.775,4.23-4.12,8.736c0.632,4.341,1.769,15.012,3.629,19.558c0.963-0.032,2.402-0.259,4.42-1.01
				C72.707,214.729,73.994,213.189,74.575,212.2"/>
			<path fill="none" stroke="#6B4429" stroke-linecap="round" stroke-linejoin="round" stroke-miterlimit="10" d="M74.575,212.2
				c-1.272-4.882-1.389-14.139-1.233-16.773c0.175-2.956-0.97-8.674-7.27-6.977c-4.361,1.177-4.775,4.23-4.12,8.736
				c0.632,4.341,1.769,15.012,3.629,19.558c0.963-0.032,2.402-0.259,4.42-1.01C72.707,214.729,73.994,213.189,74.575,212.2z"/>
			<path fill="#CE8452" d="M72.969,222.21c3.939-1.467,3.883-4.336,2.124-8.433c-0.191-0.444-0.362-0.98-0.517-1.577
				c-0.581,0.988-1.869,2.528-4.575,3.536c-2.018,0.749-3.457,0.976-4.42,1.008c0.069,0.173,0.141,0.339,0.212,0.494
				C67.782,221.453,69.029,223.676,72.969,222.21"/>
			<path fill="none" stroke="#6B4429" stroke-miterlimit="10" d="M72.969,222.21c3.939-1.467,3.883-4.336,2.124-8.433
				c-0.191-0.444-0.362-0.98-0.517-1.577c-0.581,0.988-1.869,2.528-4.575,3.536c-2.018,0.749-3.457,0.976-4.42,1.008
				c0.069,0.173,0.141,0.339,0.212,0.494C67.782,221.453,69.029,223.676,72.969,222.21z"/>
			<path fill="#FFA96A" d="M58.078,224.502c-1.892-3.521-3.559-10.877-3.874-13.025c-0.355-2.413-2.282-6.642-7.259-3.427
				c-3.445,2.227-3.273,4.787-1.961,8.191c1.263,3.278,4.023,11.463,6.348,14.542c0.799-0.31,1.964-0.917,3.524-2.11
				C56.945,227.071,57.76,225.462,58.078,224.502"/>
			<path fill="none" stroke="#6B4429" stroke-linecap="round" stroke-linejoin="round" stroke-miterlimit="10" d="M58.078,224.502
				c-1.892-3.521-3.559-10.877-3.874-13.025c-0.355-2.413-2.282-6.642-7.259-3.427c-3.445,2.227-3.273,4.787-1.961,8.191
				c1.263,3.278,4.023,11.463,6.348,14.542c0.799-0.31,1.964-0.917,3.524-2.11C56.945,227.071,57.76,225.462,58.078,224.502z"/>
			<path fill="#CE8452" d="M58.432,232.967c3.044-2.332,2.51-4.608,0.346-7.358c-0.236-0.3-0.469-0.675-0.7-1.105
				c-0.317,0.959-1.133,2.567-3.223,4.171c-1.56,1.193-2.724,1.799-3.523,2.11c0.088,0.115,0.175,0.228,0.262,0.33
				C53.969,233.893,55.388,235.298,58.432,232.967"/>
			<path fill="none" stroke="#6B4429" stroke-miterlimit="10" d="M58.432,232.967c3.044-2.332,2.51-4.608,0.346-7.358
				c-0.236-0.3-0.469-0.675-0.7-1.105c-0.317,0.959-1.133,2.567-3.223,4.171c-1.56,1.193-2.724,1.799-3.523,2.11
				c0.088,0.115,0.175,0.228,0.262,0.33C53.969,233.893,55.388,235.298,58.432,232.967z"/>
			<path fill="#FFA96A" d="M66.727,219.097c-1.935-4.561-3.99-16.145-4.202-18.774c-0.239-2.95-2.165-8.363-8.141-5.434
				c-4.137,2.027-4.119,5.12-2.845,9.434c1.229,4.155,4.484,16.932,6.952,21.043c0.945-0.223,2.333-0.732,4.218-1.874
				C65.238,221.959,66.291,220.186,66.727,219.097"/>
			<path fill="none" stroke="#6B4429" stroke-linecap="round" stroke-linejoin="round" stroke-miterlimit="10" d="M66.727,219.097
				c-1.935-4.561-3.99-16.145-4.202-18.774c-0.239-2.95-2.165-8.363-8.141-5.434c-4.137,2.027-4.119,5.12-2.845,9.434
				c1.229,4.155,4.484,16.932,6.952,21.043c0.945-0.223,2.333-0.732,4.218-1.874C65.238,221.959,66.291,220.186,66.727,219.097z"/>
			<path fill="#CE8452" d="M66.539,229.284c3.68-2.229,3.224-5.048,0.919-8.737c-0.252-0.4-0.495-0.894-0.731-1.45
				c-0.435,1.09-1.489,2.862-4.018,4.394c-1.885,1.143-3.272,1.652-4.218,1.875c0.093,0.156,0.186,0.307,0.28,0.443
				C61.32,229.572,62.858,231.515,66.539,229.284"/>
			<path fill="none" stroke="#6B4429" stroke-miterlimit="10" d="M66.539,229.284c3.68-2.229,3.224-5.048,0.919-8.737
				c-0.252-0.4-0.495-0.894-0.731-1.45c-0.435,1.09-1.489,2.862-4.018,4.394c-1.885,1.143-3.272,1.652-4.218,1.875
				c0.093,0.156,0.186,0.307,0.28,0.443C61.32,229.572,62.858,231.515,66.539,229.284z"/>
			<path fill="#CE8452" d="M79.172,236.326c0,0-2.549-1.771-2.638-3.782c-0.09-2.008-2.824,1.564-5.149,0.329
				c-2.325-1.236-4.543-4.945-4.543-4.945s11.327-4.697,15.348-0.521c4.02,4.176,4.435,5.765,4.435,5.765l-6.14,2.666
				L79.172,236.326z"/>
			<path fill="#FFA96A" d="M81.756,252.606c0,0,8.637-1.355,11.283-9.773c2.647-8.421,3.45-15.947,1.318-19.492
				c-2.135-3.544-12.254-7.214-15.337-7.099c-3.082,0.112-6.009,3.475-8.009,4.425c-2,0.949-7.376,0.885-8.451,2.73
				s2.357,9.039,7.064,8.524c4.707-0.512,5.803-3.605,9.593-2.328c0.858,0.289,1.618,0.606,2.281,0.927
				c2.259,1.094,3.375,2.203,3.375,2.203s-2.433-2.884-4.22-0.36c-1.786,2.523-3.729,6.345-3.595,10.838"/>
			<path fill="none" stroke="#6B4429" stroke-linecap="round" stroke-linejoin="round" stroke-miterlimit="10" d="M81.756,252.606
				c0,0,8.637-1.355,11.283-9.773c2.647-8.421,3.45-15.947,1.318-19.492c-2.135-3.544-12.254-7.214-15.337-7.099
				c-3.082,0.112-6.009,3.475-8.009,4.425c-2,0.949-7.376,0.885-8.451,2.73s2.357,9.039,7.064,8.524
				c4.707-0.512,5.803-3.605,9.593-2.328c0.858,0.289,1.618,0.606,2.281,0.927c2.259,1.094,3.375,2.203,3.375,2.203
				s-2.433-2.884-4.22-0.36c-1.786,2.523-3.729,6.345-3.595,10.838"/>
			<path fill="#E8AD85" d="M68.65,223.523c0.739,0.914,1.117,1.846,1.028,2.802c0,0-3.706,2.031-5.741-1.048"/>
			<path fill="none" stroke="#7C5337" stroke-linecap="round" stroke-linejoin="round" stroke-miterlimit="10" d="M68.65,223.523
				c0.739,0.914,1.117,1.846,1.028,2.802c0,0-3.706,2.031-5.741-1.048"/>
			<path fill="#FFA96A" d="M88.267,210.736c0,0-3.515-18.9-4.786-24.471c-1.272-5.574-12.407-29.961-14.637-33.664
				c-2.23-3.704-3.774,8.779-0.858,17.193c2.914,8.414,6.578,21.082,6.578,21.082s0.452,7.741,1.47,14.882"/>
			<path fill="none" stroke="#6B4429" stroke-linecap="round" stroke-linejoin="round" stroke-miterlimit="10" d="M88.267,210.736
				c0,0-3.515-18.9-4.786-24.471c-1.272-5.574-12.407-29.961-14.637-33.664c-2.23-3.704-3.774,8.779-0.858,17.193
				c2.914,8.414,6.578,21.082,6.578,21.082s0.452,7.741,1.47,14.882"/>
			<path fill="#CE8452" d="M67.986,169.795c2.915,8.414,6.578,21.082,6.578,21.082s0.452,7.741,1.47,14.882l1.455,0.593
				c0,0,0.503-11.222-0.698-16.24c-1.202-5.018-5.671-16.753-6.887-21.233c-1.217-4.481-1.593-9.285-1.593-9.285l-1.206-3.726
				C65.559,157.893,66.431,165.309,67.986,169.795"/>
			<path fill="#CE8452" d="M65.232,254.211c9.023,7.787,25.675,66.618,35.125,75.69c-8.343-15.348-19.597-51.123-21.388-52.732
				c-2.074-1.857-1.991-2.544-3.347-9.04c-1.357-6.498-4.399-13.819-6.377-18.915c-1.724-4.442-5.12-6.275-15.836-15.38
				C56.609,242.303,61.58,251.059,65.232,254.211"/>
			<path fill="#FFFFFF" d="M92.76,248.871c3.737,1.474,5.377,10.735,5.377,10.735s-7.497,15.831-21.083,17.171
				c-3.372-1.436-5.681-12.973-5.681-12.973C75.032,264.01,89.373,260.113,92.76,248.871"/>
			
				<path fill="none" stroke="#7788A1" stroke-width="0.691" stroke-linecap="round" stroke-linejoin="round" stroke-miterlimit="10" d="
				M92.76,248.871c3.737,1.474,5.377,10.735,5.377,10.735s-7.497,15.831-21.083,17.171c-3.372-1.436-5.681-12.973-5.681-12.973
				C75.032,264.01,89.373,260.113,92.76,248.871z"/>
			<path fill="#EDF2F9" d="M95.384,262.936c1.747-1.94,2.754-3.33,2.754-3.33s-1.606-9.169-5.318-10.709l-0.095,0.079
				c-0.497,1.605-1.219,3.018-2.099,4.265C94.065,256.162,95.713,258.433,95.384,262.936"/>
			<path fill="#C7D7EE" d="M71.398,264.022c0,0,2.287,11.35,5.656,12.756c1.033-0.103,2.03-0.32,2.996-0.613
				c-1.936-1.43-2.037-2.345-3.999-8.223c-0.479-1.439-1.13-2.681-1.59-4.214C73.165,263.972,72.093,264.06,71.398,264.022"/>
			<path fill="#154A8C" d="M166.424,206.027c-1.156-0.454-1.874-1.282-2.235-2.227c-0.297-0.188-0.571-0.41-0.814-0.659
				c-6.65,9.938-12.67,22.82-17.038,33.394c-2.925,7.079-19.245,45.273-22.63,54.992c-4.966-9.719-26.872-43.924-26.872-43.924
				c0,10.533-24.946,22.72-24.946,22.72s16.681,48.57,32.299,66.651c11.825,13.686,21.778,11.662,33.29,4.667
				c8.656-5.26,48.042-64.534,50.922-79.166c1.132-5.749,1.435-19.298,0.681-33.261
				C184.541,219.069,177.701,210.445,166.424,206.027"/>
			<path fill="none" stroke="#2F4A56" stroke-linecap="round" stroke-linejoin="round" stroke-miterlimit="10" d="M166.424,206.027
				c-1.156-0.454-1.874-1.282-2.235-2.227c-0.297-0.188-0.571-0.41-0.814-0.659c-6.65,9.938-12.67,22.82-17.038,33.394
				c-2.925,7.079-19.245,45.273-22.63,54.992c-4.966-9.719-26.872-43.924-26.872-43.924c0,10.533-24.946,22.72-24.946,22.72
				s16.681,48.57,32.299,66.651c11.825,13.686,21.778,11.662,33.29,4.667c8.656-5.26,48.042-64.534,50.922-79.166
				c1.132-5.749,1.435-19.298,0.681-33.261C184.541,219.069,177.701,210.445,166.424,206.027z"/>
			<path fill="#0E3C66" d="M164.181,203.775c-0.12-0.077-0.245-0.143-0.356-0.23c-6.827,10.026-13.021,23.25-17.487,34.059
				c-2.925,7.079-19.244,45.274-22.63,54.993c-4.966-9.719-26.873-43.925-26.873-43.925c0,1.453-0.487,2.935-1.302,4.412
				c0.162,0.575,0.269,1.201,0.313,1.893c0.351,5.695,9.691,15.477,15.447,25.635c5.756,10.158,9.481,12.092,11.851,18.065
				c2.37,5.977,3.724,7.329,3.047,10.378c0,0,2.042-7.457,0.514-10.67c-1.529-3.213,1.518-7.615,6.935-18.45
				c5.418-10.835,19.639-52.684,24.717-59.185c3.145-4.025,5.036-9.786,7.648-14.941
				C165.088,205.331,164.492,204.604,164.181,203.775"/>
			<g>
				<g opacity="0.4">
					<g>
						<defs>
							<rect id="SVGID_3_" x="71.888" y="254.347" width="117.36" height="92.072"/>
						</defs>
						<clipPath id="SVGID_4_">
							<use xlink:href="#SVGID_3_"  overflow="visible"/>
						</clipPath>
						<path clip-path="url(#SVGID_4_)" fill="#545454" d="M104.187,336.298c11.825,13.689,21.778,11.662,33.29,4.667
							c8.656-5.262,48.042-63.855,50.922-78.49c0.378-1.925,0.665-4.73,0.85-8.128c-2.828,2.63-5.176,4.772-6.598,5.983
							c-6.855,5.846-25.649,43.931-34.452,56.797c-8.804,12.865-13.882,17.969-23.025,23.385
							c-9.141,5.418-13.869-0.339-21.319-8.465c-7.449-8.126-25.888-59.661-28.211-61.723c-0.531-0.471-0.93-0.873-1.257-1.301
							c-1.535,0.828-2.498,1.3-2.498,1.3S88.569,318.217,104.187,336.298"/>
					</g>
				</g>
				<path fill="#FFFFFF" d="M259.408,172.526l-49.1,54.978c0,0-7.6,134.613-5.546,149.677c13.929,8.572,66.781,9.397,66.781,9.397
					l13.045-183.515L259.408,172.526z"/>
				<path fill="none" stroke="#575A5B" stroke-miterlimit="10" d="M259.408,172.526l-49.1,54.978c0,0-7.6,134.613-5.546,149.677
					c13.929,8.572,66.781,9.397,66.781,9.397l13.045-183.515L259.408,172.526z"/>
				<path fill="#FFFFFF" d="M203.691,184.313l6.617,43.191c0,0-7.6,134.613-5.546,149.677c-22.501,0-33.216-15.001-33.216-15.001
					s-11.25-153.223-3.214-159.116C176.368,197.171,203.691,184.313,203.691,184.313"/>
				<path fill="none" stroke="#575A5B" stroke-miterlimit="10" d="M203.691,184.313l6.617,43.191c0,0-7.6,134.613-5.546,149.677
					c-22.501,0-33.216-15.001-33.216-15.001s-11.25-153.223-3.214-159.116C176.368,197.171,203.691,184.313,203.691,184.313z"/>
				<path fill="#154A8C" d="M265.479,174.311c1.284,5.271,41.253,30.719,50.325,40.075c1.646,9.052-9.026,47.505-11.4,64.356
					c-0.744,5.288-13.088,54.329-16.602,83.438c-4.999,41.431,13.572,54.288,17.144,77.861
					c3.027,19.976-57.146,14.287-57.146,14.287c-8.572-50.718-31.43-52.146-30.266-63.319c-2.807-9.307,9.488-84.044,13.104-108.896
					C234.254,257.26,256.572,189.713,265.479,174.311"/>
				<path fill="none" stroke="#2F4A56" stroke-linecap="round" stroke-linejoin="round" stroke-miterlimit="10" d="M265.479,174.311
					c1.284,5.271,41.253,30.719,50.325,40.075c1.646,9.052-9.026,47.505-11.4,64.356c-0.744,5.288-13.088,54.329-16.602,83.438
					c-4.999,41.431,13.572,54.288,17.144,77.861c3.027,19.976-57.146,14.287-57.146,14.287
					c-8.572-50.718-31.43-52.146-30.266-63.319c-2.807-9.307,9.488-84.044,13.104-108.896
					C234.254,257.26,256.572,189.713,265.479,174.311z"/>
				<g>
					<g opacity="0.4">
						<g>
							<defs>
								<rect id="SVGID_5_" x="217.533" y="171.097" width="61.226" height="203.561"/>
							</defs>
							<clipPath id="SVGID_6_">
								<use xlink:href="#SVGID_5_"  overflow="visible"/>
							</clipPath>
							<path clip-path="url(#SVGID_6_)" fill="#0E3C66" d="M263.337,171.097c1.284,5.27,5.893,6.074,14.964,15.43
								c1.646,9.053-1.525,27.146-3.898,43.998c-0.745,5.288-17.417,9.113-17.417,9.113l15.61,14.835
								c-18.075,26.66-49.684,88.626-53.255,119.341c-0.281,2.411-1.86-0.887-1.807-3.163c0.226-9.72,14.846-87.258,18.461-112.111
								C239.612,233.688,254.429,186.499,263.337,171.097"/>
						</g>
					</g>
					<path fill="#154A8C" d="M260.123,164.668c1.284,5.27,5.894,6.073,14.965,15.431c1.646,9.052-2.597,32.503-4.97,49.354
						c-0.744,5.288-17.416,9.112-17.416,9.112l15.609,14.836c-18.075,26.66-45.48,86.938-49.051,117.651
						c-0.279,2.411-0.56-1.342-0.654-4.688c-0.277-9.719,9.489-84.044,13.104-108.897
						C235.325,232.615,251.215,180.07,260.123,164.668"/>
					<path fill="none" stroke="#2F4A56" stroke-linecap="round" stroke-linejoin="round" stroke-miterlimit="10" d="
						M260.123,164.668c1.284,5.27,5.894,6.073,14.965,15.431c1.646,9.052-2.597,32.503-4.97,49.354
						c-0.744,5.288-17.416,9.112-17.416,9.112l15.609,14.836c-18.075,26.66-45.48,86.938-49.051,117.651
						c-0.279,2.411-0.56-1.342-0.654-4.688c-0.277-9.719,9.489-84.044,13.104-108.897
						C235.325,232.615,251.215,180.07,260.123,164.668z"/>
					<g>
						<g opacity="0.4">
							<g>
								<defs>
									<rect id="SVGID_7_" x="150.039" y="189.134" width="50.438" height="199.946"/>
								</defs>
								<clipPath id="SVGID_8_">
									<use xlink:href="#SVGID_7_"  overflow="visible"/>
								</clipPath>
								<path clip-path="url(#SVGID_8_)" fill="#545454" d="M171.011,203.064c-6.363,1.415-6.965,5.358-6.429,10.181
									c0.536,4.82,2.143,36.967-2.143,58.396c-4.286,21.428,2.679,62.681-2.143,79.289c-4.822,16.607-10.257,37.401-10.257,37.401
									s9.806,1.4,14.438,0.37c6.413-1.425,5.635-10.838,13.641-18.529c9.335-8.969,11.499-41.706,14.177-65.279
									c2.679-23.572,8.182-115.759,8.182-115.759S180.654,200.922,171.011,203.064"/>
							</g>
						</g>
						<path fill="#154A8C" d="M167.796,200.922c-6.363,1.412-6.965,5.356-6.429,10.179s2.143,36.966-2.143,58.395
							c-4.286,21.431,2.679,62.682-2.144,79.291c-4.821,16.607-7.288,39.683-7.288,39.683s6.837-0.882,11.47-1.911
							c6.413-1.424,5.635-10.839,13.641-18.528c9.334-8.971,9.501-40.138,12.18-63.71c2.678-23.573,10.179-117.328,10.179-117.328
							S177.44,198.777,167.796,200.922"/>
						<path fill="none" stroke="#2F4A56" stroke-linecap="round" stroke-linejoin="round" stroke-miterlimit="10" d="
							M167.796,200.922c-6.363,1.412-6.965,5.356-6.429,10.179s2.143,36.966-2.143,58.395c-4.286,21.431,2.679,62.682-2.144,79.291
							c-4.821,16.607-7.288,39.683-7.288,39.683s6.837-0.882,11.47-1.911c6.413-1.424,5.635-10.839,13.641-18.528
							c9.334-8.971,9.501-40.138,12.18-63.71c2.678-23.573,10.179-117.328,10.179-117.328S177.44,198.777,167.796,200.922z"/>
						<g>
							<g opacity="0.4">
								<g>
									<defs>
										<rect id="SVGID_9_" x="279.558" y="226.822" width="25.104" height="221.49"/>
									</defs>
									<clipPath id="SVGID_10_">
										<use xlink:href="#SVGID_9_"  overflow="visible"/>
									</clipPath>
									<path clip-path="url(#SVGID_10_)" fill="#0E3C66" d="M304.316,436.689c-4.696-21.528-21.271-35.088-16.513-74.509
										c1.61-13.349,5.079-30.889,8.435-46.478c-2.286-33.4-4.133-60.097-4.133-60.097c0.073-11.385-3.671-23.468,0.439-28.783
										l-0.854,0.317c0,0-11.015,18.107-11.015,43.108c0.191,12.208,1.625,78.935-0.876,105.721
										c-2.499,26.788,15.027,75.834,21.43,72.146c0.38-0.218,0.717-0.361,1.022-0.514c0.661-0.621,1.215-1.291,1.654-2.015
										c0.257-0.69,0.503-1.637,0.755-2.987C304.58,441.089,304.461,439.088,304.316,436.689"/>
								</g>
							</g>
							<path fill="#154A8C" d="M201.548,178.955c0,0-25.18,32.146-23.573,36.969l12.322,10.713l-19.431,9.964
								c-0.667,0.304-1.295,1.494-0.746,2.731c4.14,9.331,17.079,53.361,9.998,106.24c0,0,10.179-28.931,12.858-64.825
								C195.655,244.852,196.191,190.206,201.548,178.955"/>
							<path fill="none" stroke="#2F4A56" stroke-linecap="round" stroke-linejoin="round" stroke-miterlimit="10" d="
								M201.548,178.955c0,0-25.18,32.146-23.573,36.969l12.322,10.713l-19.431,9.964c-0.667,0.304-1.295,1.494-0.746,2.731
								c4.14,9.331,17.079,53.361,9.998,106.24c0,0,10.179-28.931,12.858-64.825C195.655,244.852,196.191,190.206,201.548,178.955z"
								/>
							<g>
								<g opacity="0.4">
									<g>
										<defs>
											<rect id="SVGID_11_" x="170.112" y="262.757" width="85.563" height="84.31"/>
										</defs>
										<defs>
											<rect id="SVGID_12_" x="170.112" y="262.757" width="85.563" height="84.31"/>
										</defs>
										<defs>
											<rect id="SVGID_13_" x="170.112" y="262.757" width="85.563" height="84.31"/>
										</defs>
										<defs>
											<rect id="SVGID_14_" x="170.112" y="262.757" width="85.563" height="84.31"/>
										</defs>
										<defs>
											<rect id="SVGID_15_" x="170.112" y="262.757" width="85.563" height="84.31"/>
										</defs>
										<defs>
											<rect id="SVGID_16_" x="170.112" y="262.757" width="85.563" height="84.31"/>
										</defs>
										<clipPath id="SVGID_17_">
											<use xlink:href="#SVGID_11_"  overflow="visible"/>
										</clipPath>
										<clipPath id="SVGID_18_" clip-path="url(#SVGID_17_)">
											<use xlink:href="#SVGID_12_"  overflow="visible"/>
										</clipPath>
										<clipPath id="SVGID_19_" clip-path="url(#SVGID_18_)">
											<use xlink:href="#SVGID_13_"  overflow="visible"/>
										</clipPath>
										<clipPath id="SVGID_20_" clip-path="url(#SVGID_19_)">
											<use xlink:href="#SVGID_14_"  overflow="visible"/>
										</clipPath>
										<clipPath id="SVGID_21_" clip-path="url(#SVGID_20_)">
											<use xlink:href="#SVGID_15_"  overflow="visible"/>
										</clipPath>
										<clipPath id="SVGID_22_" clip-path="url(#SVGID_21_)">
											<use xlink:href="#SVGID_16_"  overflow="visible"/>
										</clipPath>
										<path clip-path="url(#SVGID_22_)" fill="#545454" d="M253.531,331.322c0,0-6.429,1.431-11.787,1.788
											c-5.357,0.354-12.38-3.176-21.308-2.817c-8.929,0.356-9.05-6.473-12.98-18.257c-3.929-11.788-1.25-22.321,6.964-23.036
											c8.215-0.715,15.18-0.894,25.181,8.034c10,8.93,16.072,8.216,16.072,8.216L253.531,331.322z"/>
										<path clip-path="url(#SVGID_22_)" fill="#545454" d="M220.673,289.179c-6.822-0.091-28.06-1.919-30.565,1.019
											c-2.507,2.94-14.112,10.233-19.484,15.673c-2.86,2.898,7.028,4.432,11.183,2.765c4.154-1.665,10.898-6.978,14.571-7.622
											c3.674-0.643,14.398-0.091,14.398-0.091"/>
										<path clip-path="url(#SVGID_22_)" fill="#545454" d="M211.65,299.65c-8.495,1.697-20.093,4.438-21.522,6.829
											c-1.982,3.315-12.208,12.44-16.6,18.698c-2.34,3.334,7.666,3.199,11.485,0.863c3.817-2.335,9.583-8.695,13.098-9.942
											c2.431-0.86,8.28-1.721,11.657-2.168"/>
										<path clip-path="url(#SVGID_22_)" fill="#545454" d="M213.633,306.95c-7.642,2.166-16.664,5.191-17.779,7.406
											c-1.643,3.264-10.905,14.579-14.616,20.782c-1.977,3.304,7.449,2.49,10.891,0.027c3.441-2.46,8.682-10.867,11.912-12.284
											c1.615-0.706,8.031-2.216,10.927-2.866"/>
										<path clip-path="url(#SVGID_22_)" fill="#545454" d="M215.387,319.888c-6.358,2.057-13.254,4.697-14.121,6.546
											c-1.373,2.931-9.288,13.182-12.419,18.764c-1.668,2.977,6.657,2.02,9.644-0.244c2.985-2.267,7.414-9.842,10.237-11.176
											c2.824-1.334,11.605-3.264,11.605-3.264"/>
										<path clip-path="url(#SVGID_22_)" fill="#545454" d="M243.625,300.511c-5.709-3.372-3.309-16.334-8.666-19.904
											c-5.358-3.571-9.644-2.143-19.288-15.001c-7.272-9.699-9.643,7.857-1.786,15.717c3.856,3.853,8.572,7.856,8.572,7.856"/>
									</g>
								</g>
								<path fill="#154A8C" d="M316.002,214.715c0,0,17.159,118.264,16.545,129.907c-0.613,11.642-26.962,8.89-26.962,8.89
									s-14.094,3.369-16.544-6.436c-2.451-9.804-6.129-94.37-6.129-94.37c0.118-18.307,14.135-30.923,14.135-30.923"/>
								<path fill="none" stroke="#2F4A56" stroke-miterlimit="10" d="M316.002,214.715c0,0,17.159,118.264,16.545,129.907
									c-0.613,11.642-26.962,8.89-26.962,8.89s-14.094,3.369-16.544-6.436c-2.451-9.804-6.129-94.37-6.129-94.37
									c0.118-18.307,14.135-30.923,14.135-30.923"/>
								<g>
									<g opacity="0.4">
										<g>
											<defs>
												<rect id="SVGID_23_" x="242.187" y="300.166" width="51.006" height="59.574"/>
											</defs>
											<clipPath id="SVGID_24_">
												<use xlink:href="#SVGID_23_"  overflow="visible"/>
											</clipPath>
											<path clip-path="url(#SVGID_24_)" fill="#0E3C66" d="M249.497,347.376c-7.071-7.346-7.813-14.869-7.088-22.111
												c0.724-7.243,4.221-26.275,9.503-25.043c3.563-0.208,29.342,2.975,38.203,3.496c1.059,0.061,2.079,0.174,3.078,0.315
												c-3.035,16.005-5.036,30.361-4.81,38.685c0.117,4.351,0.275,8.64,0.456,17.022
												C282.694,359.74,250.509,348.428,249.497,347.376"/>
										</g>
									</g>
									<path fill="#273F49" d="M245.635,320.991c0.726-7.245,2.919-23.072,8.2-21.839c9.576,3.53,10.66,17.76,10.369,27.256
										c-0.445,14.559-4.429,15.643-10.145,16.954c-1.25,0.288-2.966-1.28-3.98-2.332
										C243.009,333.685,244.912,328.234,245.635,320.991"/>
									<path fill="none" stroke="#2F4A56" stroke-linecap="round" stroke-linejoin="round" stroke-miterlimit="10" d="
										M245.635,320.991c0.726-7.245,2.919-23.072,8.2-21.839c9.576,3.53,10.66,17.76,10.369,27.256
										c-0.445,14.559-4.429,15.643-10.145,16.954c-1.25,0.288-2.966-1.28-3.98-2.332
										C243.009,333.685,244.912,328.234,245.635,320.991z"/>
									<path fill="#FFA96A" d="M252.459,329.181c0,0-6.429,1.428-11.786,1.786c-5.358,0.355-12.38-3.174-21.309-2.816
										c-8.929,0.355-9.051-6.472-12.979-18.259c-3.929-11.784-1.25-22.32,6.965-23.036c8.215-0.713,15.181-0.891,25.18,8.037
										c10,8.93,16.073,8.216,16.073,8.216L252.459,329.181z"/>
									<path fill="none" stroke="#6B4429" stroke-linecap="round" stroke-linejoin="round" stroke-miterlimit="10" d="
										M252.459,329.181c0,0-6.429,1.428-11.786,1.786c-5.358,0.355-12.38-3.174-21.309-2.816
										c-8.929,0.355-9.051-6.472-12.979-18.259c-3.929-11.784-1.25-22.32,6.965-23.036c8.215-0.713,15.181-0.891,25.18,8.037
										c10,8.93,16.073,8.216,16.073,8.216L252.459,329.181z"/>
									<path fill="#FFA96A" d="M219.601,287.035c-6.822-0.09-28.059-1.919-30.564,1.02c-2.507,2.939-14.112,10.232-19.485,15.673
										c-2.861,2.9,7.029,4.432,11.183,2.765c4.154-1.666,10.898-6.978,14.57-7.623c3.675-0.641,14.399-0.088,14.399-0.088"/>
									<path fill="none" stroke="#6B4429" stroke-linecap="round" stroke-linejoin="round" stroke-miterlimit="10" d="
										M219.601,287.035c-6.822-0.09-28.059-1.919-30.564,1.02c-2.507,2.939-14.112,10.232-19.485,15.673
										c-2.861,2.9,7.029,4.432,11.183,2.765c4.154-1.666,10.898-6.978,14.57-7.623c3.675-0.641,14.399-0.088,14.399-0.088"/>
									<path fill="#FFA96A" d="M210.58,297.508c-8.495,1.698-20.094,4.438-21.521,6.828c-1.983,3.316-12.211,12.439-16.601,18.697
										c-2.34,3.336,7.667,3.199,11.486,0.866c3.817-2.336,9.582-8.697,13.098-9.942c2.431-0.862,8.28-1.723,11.657-2.171"/>
									<path fill="none" stroke="#6B4429" stroke-linecap="round" stroke-linejoin="round" stroke-miterlimit="10" d="
										M210.58,297.508c-8.495,1.698-20.094,4.438-21.521,6.828c-1.983,3.316-12.211,12.439-16.601,18.697
										c-2.34,3.336,7.667,3.199,11.486,0.866c3.817-2.336,9.582-8.697,13.098-9.942c2.431-0.862,8.28-1.723,11.657-2.171"/>
									<path fill="#FFA96A" d="M212.562,304.807c-7.643,2.166-16.665,5.191-17.78,7.406c-1.642,3.263-10.904,14.58-14.615,20.782
										c-1.979,3.303,7.449,2.491,10.891,0.029c3.441-2.463,8.681-10.867,11.912-12.284c1.614-0.708,8.031-2.216,10.927-2.868"/>
									<path fill="none" stroke="#6B4429" stroke-linecap="round" stroke-linejoin="round" stroke-miterlimit="10" d="
										M212.562,304.807c-7.643,2.166-16.665,5.191-17.78,7.406c-1.642,3.263-10.904,14.58-14.615,20.782
										c-1.979,3.303,7.449,2.491,10.891,0.029c3.441-2.463,8.681-10.867,11.912-12.284c1.614-0.708,8.031-2.216,10.927-2.868"/>
									<path fill="#FFA96A" d="M214.316,317.745c-6.359,2.056-13.254,4.696-14.122,6.546c-1.373,2.931-9.288,13.182-12.419,18.764
										c-1.668,2.976,6.657,2.019,9.643-0.245c2.986-2.267,7.414-9.843,10.237-11.176c2.826-1.333,11.607-3.265,11.607-3.265"/>
									<path fill="none" stroke="#6B4429" stroke-linecap="round" stroke-linejoin="round" stroke-miterlimit="10" d="
										M214.316,317.745c-6.359,2.056-13.254,4.696-14.122,6.546c-1.373,2.931-9.288,13.182-12.419,18.764
										c-1.668,2.976,6.657,2.019,9.643-0.245c2.986-2.267,7.414-9.843,10.237-11.176c2.826-1.333,11.607-3.265,11.607-3.265"/>
									<path fill="#FFA96A" d="M242.554,298.367c-5.226-3.083-3.682-13.307-8.583-16.576c-4.901-3.268-8.167-3.593-16.989-15.356
										c-6.655-8.875-8.824,7.188-1.635,14.377c3.526,3.526,5.699,7.19,5.699,7.19"/>
									
										<path fill="none" stroke="#6B4429" stroke-width="0.915" stroke-linecap="round" stroke-linejoin="round" stroke-miterlimit="10" d="
										M242.554,298.367c-5.226-3.083-3.682-13.307-8.583-16.576c-4.901-3.268-8.167-3.593-16.989-15.356
										c-6.655-8.875-8.824,7.188-1.635,14.377c3.526,3.526,5.699,7.19,5.699,7.19"/>
									<path fill="#FFFFFF" d="M287.807,304.435c0,0-27.898-2.855-31.521-1.767c-3.622,1.085-6.908-0.754-6.908-0.754
										s4.372,5.574,2.436,16.57c-1.312,7.46-3.725,11.558-8.072,12.282c-4.346,0.727,0.476,2.189,4.098,4.001
										c3.622,1.809,41.598,10.08,52.282,8.269C310.806,341.227,287.807,304.435,287.807,304.435"/>
									<path fill="none" stroke="#575A5B" stroke-miterlimit="10" d="M287.807,304.435c0,0-27.898-2.855-31.521-1.767
										c-3.622,1.085-6.908-0.754-6.908-0.754s4.372,5.574,2.436,16.57c-1.312,7.46-3.725,11.558-8.072,12.282
										c-4.346,0.727,0.476,2.189,4.098,4.001c3.622,1.809,41.598,10.08,52.282,8.269
										C310.806,341.227,287.807,304.435,287.807,304.435z"/>
									<path fill="#154A8C" d="M329.483,350.136c0,0-4.289,6.74-11.029,8.579c-6.634,1.81-53.09-6.625-64.395-15.352
										c5.716-1.313,9.7-3.467,10.145-18.028c0.291-9.495-0.795-22.652-10.369-26.183c3.565-0.209,30.632,2.973,39.495,3.493
										c20.834,1.225,30.026,18.383,30.026,18.383"/>
									<path fill="none" stroke="#2F4A56" stroke-linecap="round" stroke-linejoin="round" stroke-miterlimit="10" d="
										M329.483,350.136c0,0-4.289,6.74-11.029,8.579c-6.634,1.81-53.09-6.625-64.395-15.352c5.716-1.313,9.7-3.467,10.145-18.028
										c0.291-9.495-0.795-22.652-10.369-26.183c3.565-0.209,30.632,2.973,39.495,3.493c20.834,1.225,30.026,18.383,30.026,18.383
										"/>
									<path fill="#0E3C66" d="M310.645,220.071l5.358-5.357c0,0,17.159,118.264,16.545,129.907
										c-0.185,3.53-2.744,6.326-6.213,8.511c0.493-0.979,0.324-2.16,0.856-3.153
										C332.797,339.488,312.402,220.477,310.645,220.071"/>
									<path fill="#0E3C66" d="M298.747,306.548c-8.724-1.745-38.232-5.527-41.912-5.709c-0.73-0.57-1.529-1.054-2.402-1.435
										l-0.064-0.28c3.586-0.184,30.526,3.025,38.961,3.522c20.835,1.225,30.027,18.383,30.027,18.383
										c0.346-0.41,1.898,1.931,2.353,5.563c0.224,1.786-1.929-2.155-1.929-2.155S310.629,308.924,298.747,306.548"/>
									<path fill="#FFA96A" d="M257.656,125.596c0,0-5.212,50.145-1.109,59.128c-0.084,3.875-42.294,30.12-47.262,42.309
										c-5.975-13.638-3.774-22.094-3.774-28.216l0.713-43.574L257.656,125.596z"/>
									<path fill="none" stroke="#6B4429" stroke-miterlimit="10" d="M257.656,125.596c0,0-5.212,50.145-1.109,59.128
										c-0.084,3.875-42.294,30.12-47.262,42.309c-5.975-13.638-3.774-22.094-3.774-28.216l0.713-43.574L257.656,125.596z"/>
									<path fill="#CE8452" d="M257.656,125.596c0.681-5.752-51.432,29.646-51.432,29.646l-0.156,9.596
										c3.258,3.326,19.213,6.066,22.204,6.26c8.464,0.547,10.443-4.396,16.493-12.857
										C252.622,147.248,257.656,125.596,257.656,125.596"/>
									<path fill="#C6C6C6" d="M229.801,200.922c-11.109,9.036-20.574,28.214-20.574,28.214
										c12.858-15.356,32.298-20.107,32.298-20.107S240.909,191.882,229.801,200.922"/>
									<path fill="none" stroke="#575A5B" stroke-linecap="round" stroke-linejoin="round" stroke-miterlimit="10" d="
										M229.801,200.922c-11.109,9.036-20.574,28.214-20.574,28.214c12.858-15.356,32.298-20.107,32.298-20.107
										S240.909,191.882,229.801,200.922z"/>
									<path fill="#FFA96A" d="M231.462,24.964c-14.354-0.736-42.885,13.981-42.599,32.093c0.288,18.11,3.085,37.554,3.085,37.554
										s-5.698,10.505-5.411,16.543c0.288,6.036,1.74,37.162,6.117,47.198c2.823,6.47,34.23,11.317,39.096,8.335
										c2.413-1.479,20.123-22.134,24.434-37.37c4.313-15.237,15.236-59.507,8.623-74.743
										C258.196,39.337,253.885,26.111,231.462,24.964"/>
									<path fill="none" stroke="#6B4429" stroke-miterlimit="10" d="M231.462,24.964c-14.354-0.736-42.885,13.981-42.599,32.093
										c0.288,18.11,3.085,37.554,3.085,37.554s-5.698,10.505-5.411,16.543c0.288,6.036,1.74,37.162,6.117,47.198
										c2.823,6.47,34.23,11.317,39.096,8.335c2.413-1.479,20.123-22.134,24.434-37.37c4.313-15.237,15.236-59.507,8.623-74.743
										C258.196,39.337,253.885,26.111,231.462,24.964z"/>
									<path fill="#FCBD92" d="M192.262,80.057c-1.298-7.301,1.32-9.781,1.226-15.752c-0.104-6.589-3.578-9.743,1.64-16.072
										c8.506-10.324,27.601-22.033,37.543-23.185c-0.401-0.027-0.795-0.063-1.209-0.083
										c-14.354-0.736-42.885,13.981-42.599,32.093c0.288,18.11,3.084,37.554,3.084,37.554S192.912,83.722,192.262,80.057"/>
									<path fill="#FCBD92" d="M195.128,156.367c-4.377-10.033-5.088-39.178-5.377-45.214c-0.287-6.04,2.196-16.543,2.196-16.543
										s-5.697,10.503-5.41,16.543c0.288,6.036,1.74,37.162,6.117,47.198c1.088,2.495,6.427,4.75,12.855,6.404
										C213.953,166.93,197.391,161.564,195.128,156.367"/>
									<path fill="#CE8452" d="M228.536,166.686c-0.522,0.321-1.366,0.545-2.434,0.691c2.653,0.1,4.687-0.102,5.648-0.691
										c2.413-1.479,20.122-22.134,24.434-37.37c0.354-1.253,0.754-2.698,1.183-4.311
										C248.217,145.844,230.948,165.208,228.536,166.686"/>
									<g>
										<g opacity="0.4">
											<g>
												<defs>
													<rect id="SVGID_25_" x="213.643" y="39.506" width="43.702" height="40.315"/>
												</defs>
												<clipPath id="SVGID_26_">
													<use xlink:href="#SVGID_25_"  overflow="visible"/>
												</clipPath>
												<path clip-path="url(#SVGID_26_)" fill="#3F4142" d="M213.645,44.431c7.327-3.945,17.074-6.578,28.389-3.728
													c11.319,2.85,25.43,20.187,4.721,39.118c0,0-0.416-1.381,0.347-4.003c0.761-2.623,11.223-27.54-7.926-29.983
													C220.03,43.393,213.645,44.431,213.645,44.431"/>
											</g>
										</g>
										<path fill="#564F4C" d="M226.746,73.023c-1.201-2.64,8.462-3.274,10.646-3.002c2.184,0.271,2.456,3.002,5.732,3.549
											c3.277,0.546,3.823,2.73,3.004,3.549c-0.821,0.819-6.281,0.273-9.829-2.184C232.75,72.478,228.11,76.027,226.746,73.023"
											/>
										<path fill="none" stroke="#473F3D" stroke-miterlimit="10" d="M226.746,73.023c-1.201-2.64,8.462-3.274,10.646-3.002
											c2.184,0.271,2.456,3.002,5.732,3.549c3.277,0.546,3.823,2.73,3.004,3.549c-0.821,0.819-6.281,0.273-9.829-2.184
											C232.75,72.478,228.11,76.027,226.746,73.023z"/>
										<path fill="#CE8452" d="M199.242,119.297c-0.02,1.729,0.378,6.57,6.689,7.361c3.865,0.485,6.923-1.059,8.944-2.616"/>
										<path fill="#FFA96A" d="M214.048,89.843c-0.556,3.995-2.925,12.318-8.542,17.742c-5.617,5.423-10.021,10.268-5.439,13.987
											c4.578,3.721,8.542,3.598,12.354,2.676c2.733-0.659,3.386-1.246,3.386-1.246"/>
										<path fill="none" stroke="#6B4429" stroke-linecap="round" stroke-linejoin="round" stroke-miterlimit="10" d="
											M214.048,89.843c-0.556,3.995-2.925,12.318-8.542,17.742c-5.617,5.423-10.021,10.268-5.439,13.987
											c4.578,3.721,8.542,3.598,12.354,2.676c2.733-0.659,3.386-1.246,3.386-1.246"/>
										<path fill="#CE8452" d="M219.441,150.6c-3.037-1.607-9.644-5-15.537-2.321"/>
										<path fill="#564F4C" d="M195.152,40.657c0,0-5.926,9.361-8.605,10.696c-2.679,1.334-3.86,5.476-1.092,12.06
											c3.386,8.059,6.493,31.197,6.493,31.197c0.051-1.366,0.273-5.999-0.043-7.182c-1.428-5.357-2.383-13.71-0.894-20.087
											c1.6-6.852-2.856-7.054-0.714-15.357C192.154,44.786,198.277,42.085,195.152,40.657"/>
										<path fill="none" stroke="#473F3D" stroke-linecap="round" stroke-linejoin="round" stroke-miterlimit="10" d="
											M195.152,40.657c0,0-5.926,9.361-8.605,10.696c-2.679,1.334-3.86,5.476-1.092,12.06
											c3.386,8.059,6.493,31.197,6.493,31.197c0.051-1.366,0.273-5.999-0.043-7.182c-1.428-5.357-2.383-13.71-0.894-20.087
											c1.6-6.852-2.856-7.054-0.714-15.357C192.154,44.786,198.277,42.085,195.152,40.657z"/>
										<path fill="#564F4C" d="M281.384,61.241c1.17,7.945-2.428,24.286-6.619,30.069c-4.191,5.785-10.857,20.141-10.857,20.141
											s-4.286,4.65-4.144-0.894c0.536-20.827-2.064-27.991-3.684-35.504c-1.485-6.877,6.717-10.127,4.438-18.394
											C258.542,49.495,280.613,56.025,281.384,61.241"/>
										<path fill="none" stroke="#473F3D" stroke-miterlimit="10" d="M281.384,61.241c1.17,7.945-2.428,24.286-6.619,30.069
											c-4.191,5.785-10.857,20.141-10.857,20.141s-4.286,4.65-4.144-0.894c0.536-20.827-2.064-27.991-3.684-35.504
											c-1.485-6.877,6.717-10.127,4.438-18.394C258.542,49.495,280.613,56.025,281.384,61.241z"/>
										<path fill="#564F4C" d="M256.676,44.985c-1.494-1.967,10.409-9.382,13.983-9.432c3.574-0.051,11.893,18.35,11.894,25.002
											c0.007,17.202-10.014,22.924-14.929,17.202C260.396,69.345,258.169,46.953,256.676,44.985"/>
										<path fill="none" stroke="#473F3D" stroke-linecap="round" stroke-linejoin="round" stroke-miterlimit="10" d="
											M256.676,44.985c-1.494-1.967,10.409-9.382,13.983-9.432c3.574-0.051,11.893,18.35,11.894,25.002
											c0.007,17.202-10.014,22.924-14.929,17.202C260.396,69.345,258.169,46.953,256.676,44.985z"/>
										<path fill="#564F4C" d="M189.912,49.06c0,0-1.366-20.552,14.298-28.093c15.667-7.542,28.993-9.654,48.408,0.919
											c19.411,10.577,18.056,8.679,18.765,11.877c0.708,3.197-11.298,8.823-16.38,6.968c-5.081-1.854-19.584-6.473-34.91-1.035
											C204.765,45.129,194.905,53.666,189.912,49.06"/>
										
											<path fill="none" stroke="#473F3D" stroke-width="1.034" stroke-linecap="round" stroke-linejoin="round" stroke-miterlimit="10" d="
											M189.912,49.06c0,0-1.366-20.552,14.298-28.093c15.667-7.542,28.993-9.654,48.408,0.919
											c19.411,10.577,18.056,8.679,18.765,11.877c0.708,3.197-11.298,8.823-16.38,6.968c-5.081-1.854-19.584-6.473-34.91-1.035
											C204.765,45.129,194.905,53.666,189.912,49.06z"/>
										<path fill="#726A67" d="M208.321,44.356c3.372-1.663,7.158-3.419,11.394-4.924c3.701-1.311,7.347-1.931,10.819-2.094
											c0.027-0.033,0.051-0.064,0.075-0.097c8.297-10.969,23.77-11.037,34.741-8.643c-1.939-1.481-4.97-2.38-10.354-5.391
											C239.985,24.204,212.296,27.657,208.321,44.356"/>
										<path fill="#726A67" d="M202.982,46.518c0,0-3.99-14.71,11.653-21.616c9.277-4.096,21.999-5.921,33.092-5.468
											c-1.818-0.829-3.583-1.55-5.307-2.153c-17.257-0.33-34.574,3.111-39.724,8.721c-7.602,8.277-6.173,19.114-4.516,23.212
											c1.463-0.573,3.065-1.331,4.815-2.194C202.985,46.703,202.982,46.518,202.982,46.518"/>
										<path fill="#564F4C" d="M202.982,46.518c0,0,0.002,0.185,0.014,0.501c1.643-0.814,3.418-1.722,5.325-2.662
											c3.976-16.699,31.664-20.152,46.674-21.147c-1.118-0.626-1.063-0.604-2.377-1.322c-1.675-0.91-3.302-1.721-4.891-2.453
											c-11.093-0.453-23.814,1.372-33.092,5.468C198.993,31.808,202.982,46.518,202.982,46.518"/>
										<path fill="#726A67" d="M214.332,43.981c7.329-3.943,16.571-8.263,27.886-5.413c11.316,2.85,25.429,20.188,4.723,39.119
											c0,0-0.419-1.379,0.343-4.004c0.761-2.624,11.407-29.674-7.743-32.118C220.394,39.123,214.332,43.981,214.332,43.981"/>
										<path fill="none" stroke="#473F3D" stroke-linecap="round" stroke-linejoin="round" stroke-miterlimit="10" d="
											M214.332,43.981c7.329-3.943,16.571-8.263,27.886-5.413c11.316,2.85,25.429,20.188,4.723,39.119
											c0,0-0.419-1.379,0.343-4.004c0.761-2.624,11.407-29.674-7.743-32.118C220.394,39.123,214.332,43.981,214.332,43.981z"/>
										<path fill="#564F4C" d="M211.04,44.774c0,0,15.17-10.801,33.298-8.982c18.125,1.818,23.093,9.77,21.929,23.383
											c-1.165,13.612-11.724,20.774-11.724,20.774s9.175-25.564-1.595-34.817C242.181,35.878,220.28,40.456,211.04,44.774"/>
										<path fill="none" stroke="#473F3D" stroke-linecap="round" stroke-linejoin="round" stroke-miterlimit="10" d="
											M211.04,44.774c0,0,15.17-10.801,33.298-8.982c18.125,1.818,23.093,9.77,21.929,23.383
											c-1.165,13.612-11.724,20.774-11.724,20.774s9.175-25.564-1.595-34.817C242.181,35.878,220.28,40.456,211.04,44.774z"/>
										<path fill="#564F4C" d="M213.834,72.443c0,0-1.981-3.836-9.904-4.308c-7.922-0.473-10.255,6.934-10.255,6.934
											s1.285,0.716,3.59-0.088c2.308-0.803,9.153-2.67,11.792-1.78C211.694,74.094,213.834,72.443,213.834,72.443"/>
										<path fill="none" stroke="#473F3D" stroke-miterlimit="10" d="M213.834,72.443c0,0-1.981-3.836-9.904-4.308
											c-7.922-0.473-10.255,6.934-10.255,6.934s1.285,0.716,3.59-0.088c2.308-0.803,9.153-2.67,11.792-1.78
											C211.694,74.094,213.834,72.443,213.834,72.443z"/>
										<path fill="#FFA96A" d="M196.37,134.488c3.572,3.216,18.174,8.215,29.802,0.713"/>
										
											<path fill="none" stroke="#6B4429" stroke-width="0.898" stroke-linecap="round" stroke-linejoin="round" stroke-miterlimit="10" d="
											M196.37,134.488c3.572,3.216,18.174,8.215,29.802,0.713"/>
										<path fill="#FFA96A" d="M259.358,102.232c0,0,7.765-9.262,12.607-4.574c4.841,4.688-1.624,23.894-7.577,28.875
											c-5.951,4.98-7.592-1.928-7.592-1.928"/>
										<path fill="none" stroke="#6B4429" stroke-width="0.74" stroke-miterlimit="10" d="M259.358,102.232
											c0,0,7.765-9.262,12.607-4.574c4.841,4.688-1.624,23.894-7.577,28.875c-5.951,4.98-7.592-1.928-7.592-1.928"/>
										<path fill="#FFA96A" d="M265.487,105.646c3.987-0.847,2.049,7.399-1.094,8.923c-3.142,1.525-2.319,5.806-2.181,7.625"/>
										<path fill="none" stroke="#6B4429" stroke-width="0.74" stroke-miterlimit="10" d="M265.487,105.646
											c3.987-0.847,2.049,7.399-1.094,8.923c-3.142,1.525-2.319,5.806-2.181,7.625"/>
										<path fill="#FFFFFF" d="M255.301,160.025c0,0,1.25,1.684-2.499,8.432c-3.75,6.747-22.858,31.57-22.858,31.57
											s-1.072,1.607,2.678,1.786c3.751,0.179,10.714,9.822,15.18,13.929c4.465,4.107,11.43,7.799,14.823,6.848
											c3.393-0.954-4.822-6.666-4.465-15.239s0.179-20.539,2.322-27.503C262.624,172.882,262.978,160.383,255.301,160.025"/>
										<path fill="none" stroke="#575A5B" stroke-linecap="round" stroke-linejoin="round" stroke-miterlimit="10" d="
											M255.301,160.025c0,0,1.25,1.684-2.499,8.432c-3.75,6.747-22.858,31.57-22.858,31.57s-1.072,1.607,2.678,1.786
											c3.751,0.179,10.714,9.822,15.18,13.929c4.465,4.107,11.43,7.799,14.823,6.848c3.393-0.954-4.822-6.666-4.465-15.239
											s0.179-20.539,2.322-27.503C262.624,172.882,262.978,160.383,255.301,160.025z"/>
										<path fill="#C6C6C6" d="M200.799,200.563c1.964,4.822,0.748,12.145,2.892,16.967c2.143,4.82,5.537,8.393,5.536,11.608
											c0,3.215,0.535-11.686-1.608-17.183c-2.143-5.499-1.428-43.5-1.428-43.5s-5,9-5,15.196S198.835,195.742,200.799,200.563"
											/>
										<path fill="none" stroke="#575A5B" stroke-linecap="round" stroke-linejoin="round" stroke-miterlimit="10" d="
											M200.799,200.563c1.964,4.822,0.748,12.145,2.892,16.967c2.143,4.82,5.537,8.393,5.536,11.608
											c0,3.215,0.535-11.686-1.608-17.183c-2.143-5.499-1.428-43.5-1.428-43.5s-5,9-5,15.196S198.835,195.742,200.799,200.563z"
											/>
										<path fill="#FFFFFF" d="M206.191,168.455c0,0-6.964,13.715-11.071,17.285c-4.109,3.572-10.536,30.372-6.964,40.01
											c0,0,0.536-8.477,4.285-13.795c3.751-5.321,8.75-12.642,9.285-16.213C202.26,192.168,201.905,179.745,206.191,168.455"/>
										<path fill="none" stroke="#575A5B" stroke-miterlimit="10" d="M206.191,168.455c0,0-6.964,13.715-11.071,17.285
											c-4.109,3.572-10.536,30.372-6.964,40.01c0,0,0.536-8.477,4.285-13.795c3.751-5.321,8.75-12.642,9.285-16.213
											C202.26,192.168,201.905,179.745,206.191,168.455z"/>
										<path fill="none" d="M223.886,96.911c-0.582,2.363,12.756,5.154,21.27,2.515c0,0,0.215-6.959-7.009-7.51
											c-1.286-0.098-2.546-0.156-3.755-0.156C228.806,91.76,224.349,92.971,223.886,96.911"/>
										<path fill="none" d="M192.085,94.018c7.012,3.646,19.09,3.313,18.954,1.161c0.267-4.271-5.261-5.948-11.652-6.607
											c-0.328-0.035-0.64-0.051-0.939-0.051C192.905,88.521,192.085,94.018,192.085,94.018"/>
										<path fill="#619BBC" d="M304.947,440.041c-0.174-1.143-0.391-2.256-0.632-3.352c0.148,2.399,0.264,4.4,0.345,5.911
											c-0.253,1.349-0.499,2.297-0.755,2.99C304.869,444.005,305.27,442.169,304.947,440.041"/>
										<path fill="none" stroke="#2F4A56" stroke-linecap="round" stroke-linejoin="round" stroke-miterlimit="10" d="
											M304.947,440.041c-0.174-1.143-0.391-2.256-0.632-3.352c0.148,2.399,0.264,4.4,0.345,5.911
											c-0.253,1.349-0.499,2.297-0.755,2.99C304.869,444.005,305.27,442.169,304.947,440.041z"/>
										<g>
											<g opacity="0.4">
												<g>
													<defs>
														<rect id="SVGID_27_" x="302.251" y="445.587" width="1.654" height="2.013"/>
													</defs>
													<clipPath id="SVGID_28_">
														<use xlink:href="#SVGID_27_"  overflow="visible"/>
													</clipPath>
													<path clip-path="url(#SVGID_28_)" fill="#545454" d="M303.906,445.59c-0.439,0.721-0.994,1.391-1.655,2.012
														C302.911,447.27,303.427,446.883,303.906,445.59"/>
												</g>
											</g>
										</g>
									</g>
									<g>
										<path d="M108.376,32.118l2.102,0.666c-0.322,1.172-0.858,2.042-1.607,2.611c-0.75,0.568-1.701,0.854-2.853,0.854
											c-1.426,0-2.598-0.487-3.516-1.462c-0.918-0.974-1.377-2.306-1.377-3.995c0-1.787,0.461-3.175,1.384-4.164
											c0.923-0.988,2.136-1.482,3.64-1.482c1.313,0,2.38,0.388,3.201,1.164c0.488,0.459,0.854,1.118,1.099,1.978l-2.146,0.513
											c-0.127-0.557-0.392-0.996-0.794-1.318C107.106,27.161,106.616,27,106.04,27c-0.796,0-1.442,0.286-1.938,0.856
											c-0.496,0.572-0.743,1.497-0.743,2.776c0,1.357,0.244,2.324,0.732,2.9s1.123,0.864,1.904,0.864
											c0.576,0,1.072-0.184,1.487-0.549C107.897,33.479,108.195,32.904,108.376,32.118z"/>
										<path d="M111.287,36.065V25.416h2.168v8.841h5.391v1.809h-7.559V36.065z"/>
										<path d="M119.215,36.065V25.328h2.168v10.737H119.215z"/>
										<path d="M122.338,36.065V25.328h7.961v1.816h-5.793v2.38h5.391v1.81h-5.391v2.923h5.999v1.809L122.338,36.065
											L122.338,36.065z"/>
										<path d="M131.255,36.065V25.328h2.109l4.395,7.171v-7.171h2.014v10.737h-2.175l-4.329-7.002v7.002
											C133.269,36.065,131.255,36.065,131.255,36.065z"/>
										<path d="M143.373,36.065v-8.921h-3.186v-1.816h8.533v1.816h-3.179v8.921H143.373z"/>
										<path d="M149.008,36.065V25.328h7.961v1.816h-5.793v2.38h5.391v1.81h-5.391v2.923h5.999v1.809L149.008,36.065
											L149.008,36.065z"/>
										<path d="M66.234,50.571l2.109-0.205c0.127,0.709,0.385,1.229,0.772,1.561c0.389,0.332,0.912,0.498,1.571,0.498
											c0.698,0,1.224-0.147,1.578-0.443c0.354-0.295,0.531-0.641,0.531-1.036c0-0.254-0.075-0.47-0.224-0.648
											c-0.149-0.178-0.409-0.333-0.78-0.465c-0.254-0.088-0.833-0.244-1.736-0.469c-1.162-0.288-1.978-0.642-2.446-1.062
											c-0.659-0.591-0.989-1.312-0.989-2.161c0-0.547,0.155-1.059,0.465-1.534c0.31-0.477,0.756-0.839,1.34-1.088
											s1.288-0.373,2.113-0.373c1.348,0,2.362,0.295,3.043,0.886c0.682,0.591,1.039,1.38,1.073,2.366l-2.168,0.095
											c-0.093-0.552-0.292-0.948-0.597-1.19c-0.306-0.241-0.763-0.362-1.374-0.362c-0.63,0-1.123,0.13-1.479,0.388
											c-0.229,0.167-0.344,0.389-0.344,0.667c0,0.254,0.107,0.472,0.322,0.651c0.273,0.23,0.938,0.469,1.992,0.719
											c1.055,0.248,1.835,0.506,2.34,0.772c0.506,0.266,0.901,0.63,1.187,1.091c0.286,0.462,0.429,1.032,0.429,1.711
											c0,0.615-0.171,1.191-0.513,1.729s-0.825,0.936-1.45,1.197c-0.625,0.261-1.404,0.392-2.336,0.392
											c-1.357,0-2.4-0.313-3.127-0.941C66.81,52.688,66.375,51.772,66.234,50.571z"/>
										<path d="M75.239,48.763c0-1.094,0.164-2.012,0.491-2.754c0.244-0.547,0.577-1.037,1-1.473
											c0.422-0.434,0.885-0.756,1.388-0.967c0.669-0.282,1.44-0.424,2.314-0.424c1.582,0,2.848,0.49,3.798,1.472
											c0.949,0.981,1.424,2.347,1.424,4.095c0,1.733-0.471,3.089-1.414,4.068c-0.942,0.979-2.202,1.469-3.779,1.469
											c-1.597,0-2.866-0.487-3.809-1.462C75.71,51.813,75.239,50.472,75.239,48.763z M77.473,48.689
											c0,1.216,0.281,2.138,0.842,2.765c0.562,0.628,1.274,0.941,2.139,0.941s1.573-0.312,2.127-0.934
											c0.554-0.623,0.832-1.557,0.832-2.802c0-1.23-0.27-2.148-0.809-2.754c-0.54-0.605-1.256-0.908-2.15-0.908
											s-1.614,0.307-2.161,0.919C77.746,46.53,77.473,47.454,77.473,48.689z"/>
										<path d="M86.294,54.065V43.416h2.168v8.841h5.391v1.809h-7.559V54.065z"/>
										<path d="M94.222,54.065V43.328h2.168v10.737H94.222z"/>
										<path d="M104.216,50.118l2.102,0.666c-0.322,1.172-0.858,2.042-1.607,2.611c-0.75,0.568-1.701,0.854-2.853,0.854
											c-1.426,0-2.598-0.487-3.516-1.462c-0.918-0.974-1.377-2.306-1.377-3.995c0-1.787,0.461-3.175,1.384-4.164
											c0.923-0.988,2.136-1.482,3.64-1.482c1.313,0,2.38,0.388,3.201,1.164c0.488,0.459,0.854,1.118,1.099,1.978l-2.146,0.513
											c-0.127-0.557-0.392-0.996-0.794-1.318C102.946,45.161,102.456,45,101.88,45c-0.796,0-1.442,0.286-1.938,0.856
											c-0.496,0.572-0.743,1.497-0.743,2.776c0,1.357,0.244,2.324,0.732,2.9s1.123,0.864,1.904,0.864
											c0.576,0,1.072-0.184,1.487-0.549C103.737,51.479,104.035,50.904,104.216,50.118z"/>
										<path d="M107.002,54.065V43.328h2.168v10.737H107.002z"/>
										<path d="M112.542,54.065v-8.921h-3.186v-1.816h8.533v1.816h-3.179v8.921C114.71,54.065,112.542,54.065,112.542,54.065z"/>
										<path d="M127.861,54.065h-2.358l-0.938-2.439h-4.292l-0.886,2.439h-2.3l4.182-10.737h2.292L127.861,54.065z
											 M123.869,49.817l-1.479-3.984l-1.45,3.984H123.869z"/>
										<path d="M127.923,54.065V43.328h2.109l4.395,7.171v-7.171h2.014v10.737h-2.175l-4.329-7.002v7.002H127.923z"/>
										<path d="M137.616,43.328h3.962c0.894,0,1.575,0.068,2.043,0.205c0.63,0.186,1.169,0.516,1.619,0.989
											s0.791,1.053,1.025,1.739c0.234,0.686,0.352,1.532,0.352,2.538c0,0.884-0.11,1.646-0.33,2.285
											c-0.269,0.781-0.652,1.413-1.15,1.896c-0.376,0.366-0.884,0.652-1.523,0.857c-0.479,0.151-1.118,0.227-1.919,0.227h-4.08
											L137.616,43.328L137.616,43.328z M139.784,45.145v7.112h1.619c0.605,0,1.042-0.034,1.311-0.104
											c0.352-0.088,0.643-0.236,0.875-0.446s0.421-0.556,0.568-1.036c0.146-0.481,0.22-1.137,0.22-1.967
											s-0.073-1.467-0.22-1.912c-0.146-0.443-0.352-0.791-0.615-1.039c-0.264-0.25-0.598-0.418-1.003-0.506
											c-0.303-0.068-0.896-0.103-1.78-0.103L139.784,45.145L139.784,45.145z"/>
										<path d="M146.906,48.763c0-1.094,0.164-2.012,0.491-2.754c0.244-0.547,0.577-1.037,1-1.473
											c0.422-0.434,0.885-0.756,1.388-0.967c0.669-0.282,1.44-0.424,2.314-0.424c1.582,0,2.848,0.49,3.798,1.472
											c0.949,0.981,1.424,2.347,1.424,4.095c0,1.733-0.471,3.089-1.414,4.068c-0.942,0.979-2.202,1.469-3.779,1.469
											c-1.597,0-2.866-0.487-3.809-1.462C147.377,51.813,146.906,50.472,146.906,48.763z M149.14,48.689
											c0,1.216,0.281,2.138,0.842,2.765c0.562,0.628,1.274,0.941,2.139,0.941s1.573-0.312,2.127-0.934
											c0.554-0.623,0.832-1.557,0.832-2.802c0-1.23-0.27-2.148-0.809-2.754c-0.54-0.605-1.256-0.908-2.15-0.908
											s-1.614,0.307-2.161,0.919C149.414,46.53,149.14,47.454,149.14,48.689z"/>
										<path d="M80.409,68.571l2.109-0.205c0.127,0.709,0.385,1.229,0.772,1.561c0.389,0.332,0.912,0.498,1.571,0.498
											c0.698,0,1.224-0.147,1.578-0.443c0.354-0.295,0.531-0.641,0.531-1.036c0-0.254-0.075-0.47-0.224-0.648
											s-0.409-0.333-0.78-0.465c-0.254-0.088-0.833-0.244-1.736-0.469c-1.162-0.288-1.978-0.642-2.446-1.062
											c-0.659-0.591-0.989-1.312-0.989-2.161c0-0.547,0.155-1.059,0.465-1.534c0.31-0.477,0.756-0.839,1.34-1.088
											s1.288-0.373,2.113-0.373c1.348,0,2.362,0.295,3.043,0.886c0.682,0.591,1.039,1.38,1.073,2.366l-2.168,0.095
											c-0.093-0.552-0.292-0.948-0.597-1.19c-0.306-0.241-0.763-0.362-1.374-0.362c-0.63,0-1.123,0.13-1.479,0.388
											c-0.229,0.167-0.344,0.389-0.344,0.667c0,0.254,0.107,0.472,0.322,0.651c0.273,0.23,0.938,0.469,1.992,0.719
											c1.055,0.248,1.835,0.506,2.34,0.772c0.506,0.266,0.901,0.63,1.187,1.091c0.286,0.462,0.429,1.032,0.429,1.711
											c0,0.615-0.171,1.191-0.513,1.729s-0.825,0.936-1.45,1.197s-1.404,0.392-2.336,0.392c-1.357,0-2.4-0.313-3.127-0.941
											C80.985,70.688,80.55,69.772,80.409,68.571z"/>
										<path d="M89.414,66.763c0-1.094,0.164-2.012,0.491-2.754c0.244-0.547,0.577-1.037,1-1.473
											c0.422-0.434,0.885-0.756,1.388-0.967c0.669-0.282,1.44-0.424,2.314-0.424c1.582,0,2.848,0.49,3.798,1.472
											c0.949,0.981,1.424,2.347,1.424,4.095c0,1.733-0.471,3.089-1.414,4.068c-0.942,0.979-2.202,1.469-3.779,1.469
											c-1.597,0-2.866-0.487-3.809-1.462C89.885,69.813,89.414,68.472,89.414,66.763z M91.647,66.689
											c0,1.216,0.281,2.138,0.842,2.765c0.562,0.628,1.274,0.941,2.139,0.941s1.573-0.312,2.127-0.934
											c0.554-0.623,0.832-1.557,0.832-2.802c0-1.23-0.27-2.148-0.809-2.754c-0.54-0.605-1.256-0.908-2.15-0.908
											s-1.614,0.307-2.161,0.919C91.921,64.53,91.647,65.454,91.647,66.689z"/>
										<path d="M100.425,72.065V61.328h7.361v1.816h-5.193v2.542h4.482v1.816h-4.482v4.563H100.425z"/>
										<path d="M110.88,72.065v-8.921h-3.186v-1.816h8.533v1.816h-3.179v8.921H110.88z"/>
										<path d="M118.039,72.065l-2.563-10.737h2.219l1.619,7.376l1.963-7.376h2.578l1.882,7.5l1.648-7.5h2.183l-2.607,10.737
											h-2.3l-2.139-8.027l-2.131,8.027H118.039z"/>
										<path d="M139.246,72.065h-2.358l-0.938-2.439h-4.292l-0.886,2.439h-2.3l4.182-10.737h2.292L139.246,72.065z
											 M135.254,67.817l-1.479-3.984l-1.45,3.984H135.254z"/>
										<path d="M139.293,72.065V61.328h4.563c1.147,0,1.981,0.097,2.501,0.289c0.52,0.193,0.936,0.536,1.249,1.029
											s0.469,1.058,0.469,1.692c0,0.805-0.237,1.471-0.71,1.995c-0.474,0.525-1.182,0.856-2.124,0.993
											c0.469,0.273,0.855,0.573,1.161,0.9c0.305,0.327,0.716,0.908,1.234,1.743l1.311,2.095h-2.593l-1.567-2.336
											c-0.557-0.836-0.938-1.361-1.143-1.579c-0.205-0.217-0.422-0.366-0.652-0.446c-0.229-0.081-0.593-0.121-1.091-0.121
											h-0.439v4.482h-2.169V72.065z M141.461,65.869h1.604c1.04,0,1.689-0.044,1.948-0.132s0.461-0.239,0.608-0.454
											s0.22-0.483,0.22-0.806c0-0.361-0.097-0.653-0.289-0.875c-0.193-0.223-0.465-0.363-0.817-0.422
											c-0.176-0.023-0.703-0.036-1.582-0.036h-1.692V65.869z"/>
										<path d="M149.008,72.065V61.328h7.961v1.816h-5.793v2.38h5.391v1.81h-5.391v2.923h5.999v1.809L149.008,72.065
											L149.008,72.065z"/>
									</g>
									
										<line fill="none" stroke="#231F20" stroke-width="3.2" stroke-linejoin="round" stroke-miterlimit="10" x1="168.369" y1="22.582" x2="168.369" y2="77.345"/>
								</g>
							</g>
						</g>
					</g>
				</g>
			</g>
		</g>
	</g>
</g>
</svg>
