<!-- Generator: Adobe Illustrator 17.0.0, SVG Export Plug-In  -->
<svg version="1.1"
	 xmlns="http://www.w3.org/2000/svg" xmlns:xlink="http://www.w3.org/1999/xlink" xmlns:a="http://ns.adobe.com/AdobeSVGViewerExtensions/3.0/"
	 x="0px" y="0px" width="56.505px" height="14.83px" viewBox="0 0 56.505 14.83" enable-background="new 0 0 56.505 14.83"
	 xml:space="preserve">
<defs>
</defs>
<g>
	<g>
		<g>
			<path fill="#FFFFFF" d="M18.038,5.551c1.378,1.987,1.75,4.2-0.552,6.079c-4.673,3.814-14.283,4.98-17.01-1.833
				C-1.156,5.72,1.632,2.104,5.376,0.819C10.333-0.883,15.037,1.222,18.038,5.551z"/>
		</g>
		<g>
			<path fill="#FFFFFF" d="M38.337,6.489c-1.158,2.123-1.292,4.363,1.197,5.985c5.053,3.294,14.732,3.428,16.718-3.636
				c1.188-4.228-1.969-7.526-5.828-8.405C45.312-0.73,40.859,1.864,38.337,6.489z"/>
		</g>
	</g>
	<g>
		<circle fill="#574A35" cx="9.56" cy="8.056" r="4.68"/>
		<circle fill="#343432" cx="9.56" cy="8.056" r="2.077"/>
		<circle fill="#FFFFFF" cx="7.387" cy="5.507" r="2.205"/>
	</g>
	<g>
		<circle fill="#574A35" cx="46.204" cy="7.982" r="4.68"/>
		<circle fill="#343432" cx="46.204" cy="7.982" r="2.077"/>
		<circle fill="#FFFFFF" cx="44.975" cy="4.866" r="2.205"/>
	</g>
	<path fill="#343432" d="M0.008,7.147c0,0,0.585-4.904,7.936-5.319c7.351-0.415,11.181,6.231,11.181,6.231S17.28-0.838,8.437,0.066
		C-0.406,0.97,0.008,7.147,0.008,7.147z"/>
	<path fill="#343432" d="M56.341,6.142c0,0-0.987-4.383-8.34-4.012c-7.353,0.371-10.57,6.957-10.57,6.957S38.316,0.044,47.205,0
		C56.094-0.044,56.341,6.142,56.341,6.142z"/>
	<g>
		<path fill="#343432" d="M3.314,13.3c0,0,0.187,0.11,0.526,0.268c0.342,0.156,0.845,0.34,1.459,0.514
			c0.311,0.071,0.644,0.17,1.007,0.218c0.36,0.067,0.742,0.106,1.139,0.139c0.395,0.054,0.808,0.026,1.225,0.044
			c0.417-0.027,0.842-0.04,1.262-0.094c0.419-0.066,0.846-0.088,1.253-0.187c0.407-0.098,0.817-0.158,1.197-0.281
			c0.384-0.113,0.755-0.222,1.106-0.325c0.344-0.129,0.669-0.252,0.969-0.365c0.609-0.209,1.084-0.462,1.432-0.606
			c0.347-0.15,0.545-0.235,0.545-0.235s-0.186,0.109-0.511,0.299c-0.336,0.17-0.78,0.491-1.383,0.734
			c-0.297,0.132-0.618,0.276-0.959,0.427c-0.353,0.121-0.725,0.249-1.11,0.381c-0.386,0.132-0.803,0.203-1.218,0.311
			c-0.415,0.109-0.852,0.142-1.282,0.217c-0.433,0.046-0.871,0.052-1.299,0.071c-0.429-0.026-0.853-0.008-1.259-0.07
			c-0.408-0.035-0.797-0.106-1.162-0.195c-0.368-0.071-0.703-0.192-1.015-0.283C3.999,13.851,3.314,13.3,3.314,13.3z"/>
	</g>
	<g>
		<path fill="#343432" d="M53.801,12.623c0,0-0.622,0.621-1.808,1.181c-0.3,0.124-0.621,0.281-0.979,0.39
			c-0.353,0.127-0.732,0.239-1.134,0.318c-0.397,0.105-0.82,0.132-1.244,0.204c-0.428,0.027-0.864,0.068-1.299,0.068
			c-0.435-0.028-0.873-0.014-1.297-0.079c-0.424-0.063-0.846-0.089-1.244-0.179c-0.397-0.09-0.78-0.177-1.144-0.26
			c-0.354-0.114-0.689-0.223-0.999-0.323c-0.625-0.177-1.102-0.449-1.453-0.582c-0.344-0.155-0.54-0.243-0.54-0.243
			s0.206,0.064,0.567,0.176c0.362,0.105,0.861,0.307,1.488,0.449c0.31,0.08,0.647,0.167,1.003,0.259
			c0.361,0.065,0.741,0.134,1.135,0.206c0.391,0.081,0.805,0.098,1.22,0.152c0.416,0.055,0.842,0.032,1.266,0.053
			c0.424,0.008,0.848-0.024,1.265-0.041c0.412-0.062,0.826-0.079,1.213-0.175c0.391-0.075,0.767-0.155,1.117-0.26
			c0.356-0.086,0.676-0.22,0.978-0.324c0.592-0.239,1.073-0.476,1.396-0.667C53.627,12.752,53.801,12.623,53.801,12.623z"/>
	</g>
</g>
</svg>