<?xml version="1.0" encoding="utf-8"?>
<!-- Generator: Adobe Illustrator 17.0.0, SVG Export Plug-In . SVG Version: 6.00 Build 0)  -->
<!DOCTYPE svg PUBLIC "-//W3C//DTD SVG 1.1//EN" "http://www.w3.org/Graphics/SVG/1.1/DTD/svg11.dtd" [
	<!ENTITY ns_extend "http://ns.adobe.com/Extensibility/1.0/">
	<!ENTITY ns_ai "http://ns.adobe.com/AdobeIllustrator/10.0/">
	<!ENTITY ns_graphs "http://ns.adobe.com/Graphs/1.0/">
	<!ENTITY ns_vars "http://ns.adobe.com/Variables/1.0/">
	<!ENTITY ns_imrep "http://ns.adobe.com/ImageReplacement/1.0/">
	<!ENTITY ns_sfw "http://ns.adobe.com/SaveForWeb/1.0/">
	<!ENTITY ns_custom "http://ns.adobe.com/GenericCustomNamespace/1.0/">
	<!ENTITY ns_adobe_xpath "http://ns.adobe.com/XPath/1.0/">
]>
<svg version="1.1" id="Capa_1" xmlns:x="&ns_extend;" xmlns:i="&ns_ai;" xmlns:graph="&ns_graphs;"
	 xmlns="http://www.w3.org/2000/svg" xmlns:xlink="http://www.w3.org/1999/xlink" x="0px" y="0px" width="458.02px"
	 height="36.354px" viewBox="0 0 458.02 36.354" enable-background="new 0 0 458.02 36.354" xml:space="preserve">
<metadata>
	<sfw  xmlns="&ns_sfw;">
		<slices></slices>
		<sliceSourceBounds  width="458.02" height="35.557" x="238.49" y="663.12" bottomLeftOrigin="true"></sliceSourceBounds>
	</sfw>
</metadata>
<g>
	<rect x="0" y="0" fill="#C7C6C6" width="37.776" height="35.557"/>
	<g>
		<g>
			<rect x="38.277" y="0.5" fill="#FFCD07" width="419.243" height="34.557"/>
			<path fill="#000101" d="M457.02,1v33.557H38.776V1H457.02 M458.02,0H37.776v35.557H458.02V0L458.02,0z"/>
		</g>
	</g>
</g>
<g>
	<g>
		<rect x="394.137" y="23.701" fill="#154A8B" width="3.615" height="3.796"/>
		<rect x="385.574" y="23.701" fill="#154A8B" width="3.618" height="3.796"/>
		<rect x="377.013" y="23.701" fill="#154A8B" width="3.616" height="3.796"/>
		<rect x="368.449" y="23.701" fill="#154A8B" width="3.617" height="3.796"/>
		<rect x="444.638" y="23.701" fill="#154A8B" width="3.616" height="3.796"/>
		<rect x="436.075" y="23.701" fill="#154A8B" width="3.617" height="3.796"/>
		<rect x="427.515" y="23.701" fill="#154A8B" width="3.616" height="3.796"/>
		<rect x="418.953" y="23.701" fill="#154A8B" width="3.616" height="3.796"/>
		<rect x="410.392" y="23.701" fill="#154A8B" width="3.615" height="3.796"/>
		<rect x="401.829" y="23.701" fill="#154A8B" width="3.62" height="3.796"/>
	</g>
</g>
<g>
	<g>
		<path fill="#000101" d="M46.77,26.348V5.342h11.822v1.803H48.66v7.807h8.041v1.803H48.66v7.793h9.932v1.801H46.77V26.348z"/>
		<path fill="#000101" d="M63.652,29.651c-0.229,0.532-0.545,0.999-0.945,1.399s-0.869,0.717-1.406,0.951s-1.107,0.352-1.713,0.352
			V30.64c0.361,0,0.7-0.068,1.018-0.205s0.594-0.322,0.828-0.557s0.42-0.511,0.557-0.828s0.205-0.656,0.205-1.018V11.348h1.801
			v16.598C63.996,28.551,63.882,29.119,63.652,29.651z M62.049,7.744V5.342h2.094v2.402C64.143,7.744,62.049,7.744,62.049,7.744z"/>
		<path fill="#000101" d="M77.876,23.945c-0.229,0.537-0.544,1.006-0.944,1.406s-0.869,0.716-1.406,0.945s-1.109,0.344-1.715,0.344
			H72.61c-0.605,0-1.176-0.114-1.713-0.344s-1.006-0.545-1.406-0.945s-0.716-0.869-0.945-1.406s-0.344-1.107-0.344-1.713v-6.768
			c0-0.605,0.114-1.178,0.344-1.715s0.545-1.006,0.945-1.406s0.869-0.715,1.406-0.944s1.107-0.345,1.713-0.345h1.201
			c0.605,0,1.178,0.115,1.715,0.345s1.006,0.544,1.406,0.944c0.4,0.4,0.715,0.869,0.944,1.406s0.345,1.109,0.345,1.715v3.529h-8.219
			v3.34c0,0.361,0.068,0.701,0.205,1.019s0.322,0.593,0.557,0.827s0.511,0.42,0.828,0.557s0.656,0.205,1.018,0.205h1.201
			c0.361,0,0.701-0.068,1.019-0.205s0.593-0.322,0.827-0.557s0.42-0.51,0.557-0.827s0.205-0.657,0.205-1.019v-0.996l1.803,0.293
			v0.602C78.221,22.838,78.106,23.408,77.876,23.945z M76.418,15.361c0-0.361-0.068-0.7-0.205-1.018s-0.322-0.594-0.557-0.828
			s-0.51-0.42-0.827-0.557s-0.657-0.205-1.019-0.205h-1.201c-0.361,0-0.7,0.068-1.018,0.205s-0.594,0.322-0.828,0.557
			s-0.42,0.511-0.557,0.828S70.002,15,70.002,15.361v2.227h6.416V15.361z"/>
		<path fill="#000101" d="M97.658,26.348V15.361c0-0.361-0.068-0.7-0.205-1.018s-0.322-0.594-0.557-0.828s-0.51-0.42-0.827-0.557
			s-0.657-0.205-1.019-0.205h-0.893c-0.361,0-0.701,0.068-1.019,0.205s-0.596,0.322-0.835,0.557s-0.428,0.511-0.564,0.828
			S91.535,15,91.535,15.361v10.986h-1.787V15.361c0-0.361-0.068-0.7-0.205-1.018s-0.324-0.594-0.563-0.828s-0.518-0.42-0.835-0.557
			s-0.656-0.205-1.018-0.205h-0.895c-0.361,0-0.7,0.068-1.018,0.205s-0.594,0.322-0.828,0.557s-0.42,0.511-0.557,0.828
			S83.625,15,83.625,15.361v10.986h-1.801v-15h0.6l0.982,1.523c0.41-0.557,0.925-0.998,1.545-1.325s1.297-0.491,2.029-0.491h0.146
			c0.85,0,1.615,0.211,2.299,0.631c0.684,0.42,1.211,0.977,1.582,1.67c0.186-0.342,0.416-0.654,0.689-0.938s0.576-0.525,0.908-0.726
			s0.693-0.356,1.084-0.469s0.795-0.169,1.215-0.169h0.146c0.605,0,1.178,0.115,1.715,0.345s1.006,0.544,1.406,0.944
			c0.4,0.4,0.715,0.869,0.944,1.406s0.345,1.109,0.345,1.715v10.883h-1.801V26.348z"/>
		<path fill="#000101" d="M112.739,23.945c-0.229,0.537-0.544,1.006-0.944,1.406s-0.869,0.716-1.406,0.945s-1.109,0.344-1.715,0.344
			h-0.453c-0.674,0-1.299-0.137-1.875-0.41s-1.07-0.654-1.48-1.143v7.266h-1.801V11.348h0.6l0.982,1.523
			c0.41-0.557,0.925-0.998,1.545-1.325s1.297-0.491,2.029-0.491h0.453c0.605,0,1.178,0.115,1.715,0.345s1.006,0.544,1.406,0.944
			s0.715,0.869,0.944,1.406s0.345,1.109,0.345,1.715v6.768C113.084,22.838,112.969,23.408,112.739,23.945z M111.281,15.361
			c0-0.361-0.068-0.7-0.205-1.018s-0.322-0.594-0.557-0.828s-0.51-0.42-0.827-0.557s-0.657-0.205-1.019-0.205h-1.201
			c-0.361,0-0.7,0.068-1.018,0.205s-0.594,0.322-0.828,0.557s-0.42,0.511-0.557,0.828s-0.205,0.656-0.205,1.018v6.973
			c0,0.361,0.068,0.701,0.205,1.019s0.322,0.593,0.557,0.827s0.511,0.42,0.828,0.557s0.656,0.205,1.018,0.205h1.201
			c0.361,0,0.701-0.068,1.019-0.205s0.593-0.322,0.827-0.557s0.42-0.51,0.557-0.827s0.205-0.657,0.205-1.019V15.361z"/>
		<path fill="#000101" d="M117.287,26.348V5.342h1.803v21.006H117.287z"/>
		<path fill="#000101" d="M132.969,23.945c-0.229,0.537-0.545,1.006-0.945,1.406s-0.869,0.716-1.406,0.945s-1.107,0.344-1.713,0.344
			h-1.201c-0.605,0-1.178-0.114-1.715-0.344s-1.006-0.545-1.406-0.945s-0.715-0.869-0.944-1.406s-0.345-1.107-0.345-1.713v-6.768
			c0-0.605,0.115-1.178,0.345-1.715s0.544-1.006,0.944-1.406s0.869-0.715,1.406-0.944s1.109-0.345,1.715-0.345h1.201
			c0.605,0,1.176,0.115,1.713,0.345s1.006,0.544,1.406,0.944c0.4,0.4,0.716,0.869,0.945,1.406s0.344,1.109,0.344,1.715v6.768
			C133.313,22.838,133.198,23.408,132.969,23.945z M131.512,15.361c0-0.361-0.068-0.7-0.205-1.018s-0.322-0.594-0.557-0.828
			s-0.511-0.42-0.828-0.557s-0.656-0.205-1.018-0.205h-1.201c-0.361,0-0.701,0.068-1.019,0.205s-0.593,0.322-0.827,0.557
			s-0.42,0.511-0.557,0.828s-0.205,0.656-0.205,1.018v6.973c0,0.361,0.068,0.701,0.205,1.019s0.322,0.593,0.557,0.827
			s0.51,0.42,0.827,0.557s0.657,0.205,1.019,0.205h1.201c0.361,0,0.7-0.068,1.018-0.205s0.594-0.322,0.828-0.557
			s0.42-0.51,0.557-0.827s0.205-0.657,0.205-1.019V15.361z"/>
		<path fill="#000101" d="M147.229,22.539c0,0.605-0.121,1.16-0.365,1.663s-0.576,0.935-0.996,1.296s-0.906,0.643-1.458,0.843
			s-1.13,0.3-1.735,0.3h-1.201c-0.605,0-1.185-0.114-1.736-0.344s-1.035-0.545-1.45-0.945s-0.747-0.869-0.996-1.406
			s-0.374-1.107-0.374-1.713v-0.602l1.803-0.293v0.996c0,0.361,0.075,0.701,0.227,1.019s0.354,0.593,0.607,0.827
			s0.547,0.42,0.879,0.557s0.68,0.205,1.041,0.205h1.201c0.361,0,0.707-0.053,1.039-0.16s0.628-0.262,0.887-0.462
			s0.464-0.442,0.615-0.726s0.227-0.605,0.227-0.967c0-0.537-0.117-0.977-0.352-1.318s-0.544-0.627-0.93-0.856
			s-0.825-0.42-1.318-0.571s-0.998-0.303-1.516-0.454s-1.023-0.325-1.517-0.521s-0.933-0.451-1.318-0.769s-0.696-0.716-0.931-1.194
			s-0.352-1.074-0.352-1.787c0-0.605,0.117-1.159,0.352-1.662s0.553-0.936,0.953-1.297c0.4-0.361,0.866-0.642,1.398-0.842
			s1.102-0.301,1.707-0.301h1.055c0.605,0,1.176,0.115,1.713,0.345s1.006,0.544,1.406,0.944c0.4,0.4,0.716,0.869,0.945,1.406
			s0.344,1.109,0.344,1.715v0.059l-1.801,0.293v-0.455c0-0.361-0.068-0.7-0.205-1.018s-0.322-0.594-0.557-0.828
			s-0.511-0.42-0.828-0.557s-0.656-0.205-1.018-0.205h-1.055c-0.361,0-0.701,0.055-1.019,0.162s-0.593,0.261-0.827,0.461
			s-0.42,0.441-0.557,0.725s-0.205,0.605-0.205,0.967c0,0.518,0.117,0.94,0.352,1.268s0.544,0.604,0.93,0.828
			s0.825,0.412,1.318,0.563s0.996,0.308,1.509,0.469s1.016,0.345,1.509,0.55s0.933,0.469,1.318,0.791s0.695,0.725,0.93,1.208
			S147.229,21.826,147.229,22.539z"/>
		<path fill="#000101" d="M167.004,26.348l-0.996-1.523c-0.41,0.557-0.922,0.999-1.537,1.326s-1.289,0.49-2.021,0.49h-0.455
			c-0.605,0-1.176-0.114-1.713-0.344s-1.006-0.545-1.406-0.945s-0.716-0.869-0.945-1.406s-0.344-1.107-0.344-1.713v-6.768
			c0-0.605,0.114-1.178,0.344-1.715s0.545-1.006,0.945-1.406c0.4-0.4,0.869-0.715,1.406-0.944s1.107-0.345,1.713-0.345h0.455
			c0.674,0,1.299,0.137,1.875,0.41s1.068,0.654,1.479,1.143V5.342h1.803v21.006H167.004z M165.803,15.361
			c0-0.361-0.068-0.7-0.205-1.018s-0.322-0.594-0.557-0.828s-0.51-0.42-0.827-0.557s-0.657-0.205-1.019-0.205h-1.201
			c-0.361,0-0.7,0.068-1.018,0.205s-0.594,0.322-0.828,0.557s-0.42,0.511-0.557,0.828s-0.205,0.656-0.205,1.018v6.973
			c0,0.361,0.068,0.701,0.205,1.019s0.322,0.593,0.557,0.827s0.511,0.42,0.828,0.557s0.656,0.205,1.018,0.205h1.201
			c0.361,0,0.701-0.068,1.019-0.205s0.593-0.322,0.827-0.557s0.42-0.51,0.557-0.827s0.205-0.657,0.205-1.019V15.361z"/>
		<path fill="#000101" d="M180.884,23.945c-0.229,0.537-0.544,1.006-0.944,1.406s-0.869,0.716-1.406,0.945s-1.109,0.344-1.715,0.344
			h-1.201c-0.605,0-1.176-0.114-1.713-0.344s-1.006-0.545-1.406-0.945s-0.716-0.869-0.945-1.406s-0.344-1.107-0.344-1.713v-6.768
			c0-0.605,0.114-1.178,0.344-1.715s0.545-1.006,0.945-1.406c0.4-0.4,0.869-0.715,1.406-0.944s1.107-0.345,1.713-0.345h1.201
			c0.605,0,1.178,0.115,1.715,0.345s1.006,0.544,1.406,0.944c0.4,0.4,0.715,0.869,0.944,1.406s0.345,1.109,0.345,1.715v3.529h-8.219
			v3.34c0,0.361,0.068,0.701,0.205,1.019s0.322,0.593,0.557,0.827s0.511,0.42,0.828,0.557s0.656,0.205,1.018,0.205h1.201
			c0.361,0,0.701-0.068,1.019-0.205s0.593-0.322,0.827-0.557s0.42-0.51,0.557-0.827s0.205-0.657,0.205-1.019v-0.996l1.803,0.293
			v0.602C181.229,22.838,181.113,23.408,180.884,23.945z M179.426,15.361c0-0.361-0.068-0.7-0.205-1.018s-0.322-0.594-0.557-0.828
			s-0.51-0.42-0.827-0.557s-0.657-0.205-1.019-0.205h-1.201c-0.361,0-0.7,0.068-1.018,0.205s-0.594,0.322-0.828,0.557
			s-0.42,0.511-0.557,0.828S173.01,15,173.01,15.361v2.227h6.416V15.361z"/>
		<path fill="#000101" d="M196.141,13.063c-0.361,0-0.701,0.068-1.019,0.205s-0.593,0.322-0.827,0.557s-0.42,0.51-0.557,0.827
			s-0.205,0.657-0.205,1.019v10.678h-1.803v-15h0.602l0.98,1.523c0.41-0.557,0.926-0.998,1.546-1.325s1.296-0.491,2.028-0.491h1.055
			v2.008L196.141,13.063L196.141,13.063z"/>
		<path fill="#000101" d="M210.02,23.945c-0.229,0.537-0.545,1.006-0.945,1.406s-0.869,0.716-1.406,0.945s-1.107,0.344-1.713,0.344
			h-1.201c-0.605,0-1.178-0.114-1.715-0.344s-1.006-0.545-1.406-0.945s-0.715-0.869-0.944-1.406s-0.345-1.107-0.345-1.713v-6.768
			c0-0.605,0.115-1.178,0.345-1.715s0.544-1.006,0.944-1.406s0.869-0.715,1.406-0.944s1.109-0.345,1.715-0.345h1.201
			c0.605,0,1.176,0.115,1.713,0.345s1.006,0.544,1.406,0.944c0.4,0.4,0.716,0.869,0.945,1.406s0.344,1.109,0.344,1.715v3.529h-8.217
			v3.34c0,0.361,0.068,0.701,0.205,1.019s0.322,0.593,0.557,0.827s0.51,0.42,0.827,0.557s0.657,0.205,1.019,0.205h1.201
			c0.361,0,0.7-0.068,1.018-0.205s0.594-0.322,0.828-0.557s0.42-0.51,0.557-0.827s0.205-0.657,0.205-1.019v-0.996l1.801,0.293v0.602
			C210.363,22.838,210.249,23.408,210.02,23.945z M208.563,15.361c0-0.361-0.068-0.7-0.205-1.018s-0.322-0.594-0.557-0.828
			s-0.511-0.42-0.828-0.557s-0.656-0.205-1.018-0.205h-1.201c-0.361,0-0.701,0.068-1.019,0.205s-0.593,0.322-0.827,0.557
			s-0.42,0.511-0.557,0.828s-0.205,0.656-0.205,1.018v2.227h6.416v-2.227H208.563z"/>
		<path fill="#000101" d="M222.186,32.354v-7.266c-0.41,0.488-0.904,0.869-1.48,1.143s-1.201,0.41-1.875,0.41h-0.453
			c-0.605,0-1.178-0.114-1.715-0.344s-1.006-0.545-1.406-0.945s-0.715-0.869-0.944-1.406s-0.345-1.107-0.345-1.713v-6.768
			c0-0.605,0.115-1.178,0.345-1.715s0.544-1.006,0.944-1.406s0.869-0.715,1.406-0.944s1.109-0.345,1.715-0.345h0.453
			c0.732,0,1.406,0.164,2.021,0.491s1.129,0.769,1.539,1.325l0.996-1.523h0.6v21.006C223.987,32.354,222.186,32.354,222.186,32.354z
			 M222.186,15.361c0-0.361-0.068-0.7-0.205-1.018s-0.322-0.594-0.557-0.828s-0.511-0.42-0.828-0.557s-0.656-0.205-1.018-0.205
			h-1.201c-0.361,0-0.701,0.068-1.019,0.205s-0.593,0.322-0.827,0.557s-0.42,0.511-0.557,0.828S215.77,15,215.77,15.361v6.973
			c0,0.361,0.068,0.701,0.205,1.019s0.322,0.593,0.557,0.827s0.51,0.42,0.827,0.557s0.657,0.205,1.019,0.205h1.201
			c0.361,0,0.7-0.068,1.018-0.205s0.594-0.322,0.828-0.557s0.42-0.51,0.557-0.827s0.205-0.657,0.205-1.019v-6.973H222.186z"/>
		<path fill="#000101" d="M237.01,26.348l-0.996-1.523c-0.41,0.557-0.924,0.999-1.539,1.326s-1.289,0.49-2.021,0.49H232
			c-0.605,0-1.178-0.114-1.715-0.344s-1.006-0.545-1.406-0.945s-0.715-0.869-0.944-1.406s-0.345-1.107-0.345-1.713V11.348h1.803
			v10.986c0,0.361,0.068,0.701,0.205,1.019s0.322,0.593,0.557,0.827s0.51,0.42,0.827,0.557s0.657,0.205,1.019,0.205h1.201
			c0.361,0,0.7-0.068,1.018-0.205s0.594-0.322,0.828-0.557s0.42-0.51,0.557-0.827s0.205-0.657,0.205-1.019V11.348h1.801v15H237.01z"
			/>
		<path fill="#000101" d="M250.889,23.945c-0.229,0.537-0.545,1.006-0.945,1.406s-0.869,0.716-1.406,0.945s-1.107,0.344-1.713,0.344
			h-1.201c-0.605,0-1.178-0.114-1.715-0.344s-1.006-0.545-1.406-0.945s-0.715-0.869-0.944-1.406s-0.345-1.107-0.345-1.713v-6.768
			c0-0.605,0.115-1.178,0.345-1.715s0.544-1.006,0.944-1.406s0.869-0.715,1.406-0.944s1.109-0.345,1.715-0.345h1.201
			c0.605,0,1.176,0.115,1.713,0.345s1.006,0.544,1.406,0.944c0.4,0.4,0.716,0.869,0.945,1.406s0.344,1.109,0.344,1.715v3.529h-8.217
			v3.34c0,0.361,0.068,0.701,0.205,1.019s0.322,0.593,0.557,0.827s0.51,0.42,0.827,0.557s0.657,0.205,1.019,0.205h1.201
			c0.361,0,0.7-0.068,1.018-0.205s0.594-0.322,0.828-0.557s0.42-0.51,0.557-0.827s0.205-0.657,0.205-1.019v-0.996l1.801,0.293v0.602
			C251.232,22.838,251.118,23.408,250.889,23.945z M249.432,15.361c0-0.361-0.068-0.7-0.205-1.018s-0.322-0.594-0.557-0.828
			s-0.511-0.42-0.828-0.557s-0.656-0.205-1.018-0.205h-1.201c-0.361,0-0.701,0.068-1.019,0.205s-0.593,0.322-0.827,0.557
			s-0.42,0.511-0.557,0.828s-0.205,0.656-0.205,1.018v2.227h6.416v-2.227H249.432z"/>
		<path fill="#000101" d="M259.246,13.063c-0.361,0-0.701,0.068-1.019,0.205s-0.593,0.322-0.827,0.557s-0.42,0.51-0.557,0.827
			s-0.205,0.657-0.205,1.019v10.678h-1.803v-15h0.602l0.98,1.523c0.41-0.557,0.926-0.998,1.546-1.325s1.296-0.491,2.028-0.491h1.055
			v2.008L259.246,13.063L259.246,13.063z"/>
		<path fill="#000101" d="M263.904,7.744V5.342h2.094v2.402C265.998,7.744,263.904,7.744,263.904,7.744z M264.051,26.348v-15h1.801
			v15H264.051z"/>
		<path fill="#000101" d="M285.891,26.348V15.361c0-0.361-0.068-0.7-0.205-1.018s-0.322-0.594-0.557-0.828s-0.51-0.42-0.827-0.557
			s-0.657-0.205-1.019-0.205h-0.893c-0.361,0-0.701,0.068-1.019,0.205s-0.596,0.322-0.835,0.557s-0.428,0.511-0.564,0.828
			s-0.205,0.656-0.205,1.018v10.986h-1.787V15.361c0-0.361-0.068-0.7-0.205-1.018s-0.324-0.594-0.563-0.828s-0.518-0.42-0.835-0.557
			s-0.656-0.205-1.018-0.205h-0.895c-0.361,0-0.7,0.068-1.018,0.205s-0.594,0.322-0.828,0.557s-0.42,0.511-0.557,0.828
			s-0.205,0.656-0.205,1.018v10.986h-1.801v-15h0.6l0.982,1.523c0.41-0.557,0.925-0.998,1.545-1.325s1.297-0.491,2.029-0.491h0.146
			c0.85,0,1.615,0.211,2.299,0.631c0.684,0.42,1.211,0.977,1.582,1.67c0.186-0.342,0.416-0.654,0.689-0.938s0.576-0.525,0.908-0.726
			s0.693-0.356,1.084-0.469s0.795-0.169,1.215-0.169h0.146c0.605,0,1.178,0.115,1.715,0.345s1.006,0.544,1.406,0.944
			c0.4,0.4,0.715,0.869,0.944,1.406s0.345,1.109,0.345,1.715v10.883h-1.799V26.348z"/>
		<path fill="#000101" d="M291.75,7.744V5.342h2.096v2.402C293.846,7.744,291.75,7.744,291.75,7.744z M291.897,26.348v-15h1.803v15
			H291.897z"/>
		<path fill="#000101" d="M307.578,23.945c-0.229,0.537-0.545,1.006-0.945,1.406s-0.869,0.716-1.406,0.945s-1.107,0.344-1.713,0.344
			h-1.201c-0.605,0-1.178-0.114-1.715-0.344s-1.006-0.545-1.406-0.945s-0.715-0.869-0.944-1.406s-0.345-1.107-0.345-1.713v-6.768
			c0-0.605,0.115-1.178,0.345-1.715s0.544-1.006,0.944-1.406s0.869-0.715,1.406-0.944s1.109-0.345,1.715-0.345h1.201
			c0.605,0,1.176,0.115,1.713,0.345s1.006,0.544,1.406,0.944c0.4,0.4,0.716,0.869,0.945,1.406s0.344,1.109,0.344,1.715v3.529h-8.217
			v3.34c0,0.361,0.068,0.701,0.205,1.019s0.322,0.593,0.557,0.827s0.51,0.42,0.827,0.557s0.657,0.205,1.019,0.205h1.201
			c0.361,0,0.7-0.068,1.018-0.205s0.594-0.322,0.828-0.557s0.42-0.51,0.557-0.827s0.205-0.657,0.205-1.019v-0.996l1.801,0.293v0.602
			C307.922,22.838,307.808,23.408,307.578,23.945z M306.121,15.361c0-0.361-0.068-0.7-0.205-1.018s-0.322-0.594-0.557-0.828
			s-0.511-0.42-0.828-0.557s-0.656-0.205-1.018-0.205h-1.201c-0.361,0-0.701,0.068-1.019,0.205s-0.593,0.322-0.827,0.557
			s-0.42,0.511-0.557,0.828s-0.205,0.656-0.205,1.018v2.227h6.416v-2.227H306.121z"/>
		<path fill="#000101" d="M319.744,26.348V15.361c0-0.361-0.068-0.7-0.205-1.018s-0.322-0.594-0.557-0.828s-0.511-0.42-0.828-0.557
			s-0.656-0.205-1.018-0.205h-1.201c-0.361,0-0.701,0.068-1.019,0.205s-0.593,0.322-0.827,0.557s-0.42,0.511-0.557,0.828
			s-0.205,0.656-0.205,1.018v10.986h-1.803v-15h0.602l0.98,1.523c0.41-0.557,0.926-0.998,1.546-1.325s1.296-0.491,2.028-0.491h0.455
			c0.605,0,1.176,0.115,1.713,0.345s1.006,0.544,1.406,0.944s0.716,0.869,0.945,1.406s0.344,1.109,0.344,1.715v10.883
			L319.744,26.348L319.744,26.348z"/>
		<path fill="#000101" d="M330.613,26.348c-0.547,0-1.063-0.102-1.546-0.307s-0.903-0.488-1.26-0.85s-0.64-0.781-0.85-1.26
			s-0.315-0.992-0.315-1.539v-9.33h-2.695v-1.715h2.695V7.743l1.803-0.293v3.896h3.809v1.715h-3.809v9.418
			c0,0.303,0.056,0.584,0.168,0.843s0.266,0.485,0.461,0.681s0.426,0.35,0.689,0.462s0.547,0.169,0.85,0.169h1.641v1.713
			L330.613,26.348L330.613,26.348z"/>
		<path fill="#000101" d="M345.239,23.945c-0.23,0.537-0.545,1.006-0.945,1.406s-0.869,0.716-1.405,0.945
			c-0.537,0.229-1.109,0.344-1.715,0.344h-1.201c-0.605,0-1.176-0.114-1.713-0.344s-1.006-0.545-1.406-0.945
			s-0.716-0.869-0.945-1.406s-0.344-1.107-0.344-1.713v-6.768c0-0.605,0.114-1.178,0.344-1.715s0.545-1.006,0.945-1.406
			s0.869-0.715,1.406-0.944s1.107-0.345,1.713-0.345h1.201c0.605,0,1.178,0.115,1.715,0.345c0.536,0.229,1.005,0.544,1.405,0.944
			c0.4,0.4,0.715,0.869,0.945,1.406c0.229,0.537,0.344,1.109,0.344,1.715v6.768C345.583,22.838,345.468,23.408,345.239,23.945z
			 M343.782,15.361c0-0.361-0.068-0.7-0.205-1.018s-0.322-0.594-0.558-0.828c-0.234-0.234-0.51-0.42-0.827-0.557
			s-0.657-0.205-1.019-0.205h-1.201c-0.361,0-0.7,0.068-1.018,0.205s-0.594,0.322-0.828,0.557s-0.42,0.511-0.557,0.828
			s-0.205,0.656-0.205,1.018v6.973c0,0.361,0.068,0.701,0.205,1.019s0.322,0.593,0.557,0.827s0.511,0.42,0.828,0.557
			s0.656,0.205,1.018,0.205h1.201c0.361,0,0.701-0.068,1.019-0.205s0.593-0.322,0.827-0.557c0.235-0.234,0.421-0.51,0.558-0.827
			s0.205-0.657,0.205-1.019V15.361z"/>
		<path fill="#000101" d="M359.5,22.539c0,0.605-0.122,1.16-0.366,1.663s-0.576,0.935-0.996,1.296s-0.906,0.643-1.457,0.843
			c-0.553,0.2-1.131,0.3-1.736,0.3h-1.201c-0.605,0-1.185-0.114-1.736-0.344s-1.035-0.545-1.449-0.945
			c-0.416-0.4-0.748-0.869-0.996-1.406c-0.25-0.537-0.374-1.107-0.374-1.713v-0.602l1.802-0.293v0.996
			c0,0.361,0.075,0.701,0.227,1.019s0.354,0.593,0.608,0.827s0.547,0.42,0.879,0.557s0.679,0.205,1.04,0.205h1.201
			c0.361,0,0.708-0.053,1.04-0.16s0.627-0.262,0.886-0.462s0.464-0.442,0.615-0.726s0.228-0.605,0.228-0.967
			c0-0.537-0.117-0.977-0.352-1.318s-0.545-0.627-0.931-0.856s-0.825-0.42-1.318-0.571s-0.998-0.303-1.516-0.454
			s-1.023-0.325-1.516-0.521c-0.494-0.195-0.934-0.451-1.318-0.769c-0.387-0.317-0.696-0.716-0.931-1.194s-0.352-1.074-0.352-1.787
			c0-0.605,0.117-1.159,0.352-1.662s0.552-0.936,0.952-1.297s0.866-0.642,1.398-0.842s1.102-0.301,1.707-0.301h1.055
			c0.605,0,1.177,0.115,1.714,0.345s1.006,0.544,1.406,0.944s0.715,0.869,0.944,1.406s0.345,1.109,0.345,1.715v0.059l-1.802,0.293
			v-0.455c0-0.361-0.068-0.7-0.205-1.018s-0.322-0.594-0.557-0.828s-0.511-0.42-0.828-0.557s-0.656-0.205-1.018-0.205h-1.055
			c-0.361,0-0.701,0.055-1.018,0.162c-0.318,0.107-0.594,0.261-0.828,0.461s-0.42,0.441-0.557,0.725s-0.205,0.605-0.205,0.967
			c0,0.518,0.117,0.94,0.352,1.268s0.544,0.604,0.93,0.828s0.825,0.412,1.318,0.563s0.996,0.308,1.51,0.469
			c0.512,0.161,1.015,0.345,1.508,0.55s0.933,0.469,1.318,0.791s0.696,0.725,0.931,1.208S359.5,21.826,359.5,22.539z"/>
	</g>
</g>
<g id="XMLID_1_">
	<path id="XMLID_8_" fill="#154A8B" stroke="#000101" stroke-width="0.5" stroke-miterlimit="10" d="M30.803,30.298l-2.445-2.445
		c0.503-0.793,0.791-1.799,0.791-2.807c0-2.879-2.373-5.252-5.252-5.252c-2.877,0-5.253,2.373-5.253,5.252s2.376,5.252,5.253,5.252
		c1.008,0,2.016-0.287,2.807-0.791l2.445,2.447c0.217,0.215,0.504,0.359,0.793,0.359s0.574-0.145,0.791-0.359
		C31.236,31.45,31.236,30.729,30.803,30.298L30.803,30.298z M23.896,28.644c-2.014,0-3.598-1.584-3.598-3.598
		s1.584-3.598,3.598-3.598c2.016,0,3.597,1.584,3.597,3.598C27.493,26.987,25.912,28.644,23.896,28.644L23.896,28.644z"/>
	<path id="XMLID_7_" fill="#154A8B" stroke="#000101" stroke-width="0.5" stroke-miterlimit="10" d="M19.58,20.728h-6.188
		c-0.217,0-0.358,0.145-0.358,0.361v0.359c0,0.217,0.142,0.359,0.358,0.359h5.325C19.004,21.448,19.29,21.089,19.58,20.728
		L19.58,20.728z"/>
	<path id="XMLID_6_" fill="#154A8B" stroke="#000101" stroke-width="0.5" stroke-miterlimit="10" d="M16.055,9.792h4.893
		c0.646,0,1.15-0.504,1.15-1.152l0,0c0-0.647-0.504-1.148-1.15-1.148H20.37c-0.285,0-0.575-0.289-0.575-0.576l0,0
		c0-0.721-0.573-1.297-1.294-1.297l0,0c-0.719,0-1.295,0.576-1.295,1.297l0,0c0,0.359-0.287,0.576-0.576,0.576h-0.574
		c-0.649,0-1.152,0.502-1.152,1.148l0,0C14.902,9.288,15.405,9.792,16.055,9.792L16.055,9.792z M18.5,6.409
		c0.289,0,0.576,0.289,0.576,0.576c0,0.289-0.287,0.506-0.576,0.506c-0.287,0-0.576-0.289-0.576-0.576
		C17.924,6.626,18.213,6.409,18.5,6.409L18.5,6.409z"/>
	<path id="XMLID_5_" fill="#154A8B" stroke="#000101" stroke-width="0.5" stroke-miterlimit="10" d="M13.392,24.11
		c-0.217,0-0.358,0.142-0.358,0.359v0.359c0,0.217,0.142,0.361,0.358,0.361h4.462c0-0.072,0-0.144,0-0.217
		c0-0.287,0-0.576,0.07-0.936h-4.532V24.11z"/>
	<path id="XMLID_4_" fill="#154A8B" stroke="#000101" stroke-width="0.5" stroke-miterlimit="10" d="M23.971,18.497v-0.359
		c0-0.215-0.146-0.359-0.363-0.359H13.392c-0.217,0-0.358,0.145-0.358,0.359v0.359c0,0.217,0.142,0.361,0.358,0.361h10.216
		C23.824,18.858,23.971,18.642,23.971,18.497L23.971,18.497z"/>
	<path id="XMLID_3_" fill="#154A8B" stroke="#000101" stroke-width="0.5" stroke-miterlimit="10" d="M11.881,27.491V12.382h13.238
		v6.691c0.648,0.145,1.295,0.361,1.87,0.721v-9.642c0-0.719-0.575-1.295-1.294-1.295h-2.877c-0.072,1.008-0.865,1.727-1.871,1.727
		h-4.965c-1.007,0-1.799-0.791-1.871-1.727h-2.877c-0.719,0-1.295,0.576-1.295,1.295v17.916c0,0.719,0.576,1.295,1.295,1.295h8.418
		c-0.576-0.504-1.009-1.15-1.369-1.871h-6.402V27.491z"/>
	<path id="XMLID_2_" fill="#154A8B" stroke="#000101" stroke-width="0.5" stroke-miterlimit="10" d="M23.971,14.685
		c0-0.217-0.146-0.359-0.363-0.359H13.392c-0.217,0-0.358,0.143-0.358,0.359v0.361c0,0.215,0.142,0.359,0.358,0.359h10.216
		c0.217,0,0.363-0.145,0.363-0.359V14.685z"/>
</g>
</svg>
