<!-- Generator: Adobe Illustrator 17.0.0, SVG Export Plug-In  -->
<svg version="1.1"
	 xmlns="http://www.w3.org/2000/svg" xmlns:xlink="http://www.w3.org/1999/xlink" xmlns:a="http://ns.adobe.com/AdobeSVGViewerExtensions/3.0/"
	 x="0px" y="0px" width="517.896px" height="383.313px" viewBox="0 0 517.896 383.313" enable-background="new 0 0 517.896 383.313"
	 xml:space="preserve">
<defs>
</defs>
<g>
	<path fill="#FFCD07" d="M2.258,155.586v-26.477h19.631v4.479H7.604v5.869h13.292v4.461H7.604v7.206h14.791v4.461H2.258z"/>
	<path fill="#FFCD07" d="M31.857,136.406v18.584c0,2.443-0.159,4.169-0.479,5.174s-0.933,1.791-1.842,2.357
		c-0.909,0.565-2.068,0.849-3.477,0.849c-0.506,0-1.051-0.045-1.635-0.136c-0.584-0.09-1.213-0.226-1.887-0.406l0.885-4.335
		c0.241,0.049,0.467,0.088,0.677,0.118c0.211,0.029,0.406,0.045,0.587,0.045c0.518,0,0.942-0.111,1.273-0.334
		s0.551-0.491,0.659-0.804c0.108-0.313,0.163-1.253,0.163-2.817v-18.295H31.857z M26.783,133.806v-4.696h5.074v4.696H26.783z"/>
	<path fill="#FFCD07" d="M48.274,149.481l5.057,0.849c-0.649,1.854-1.677,3.267-3.079,4.235c-1.402,0.97-3.157,1.454-5.265,1.454
		c-3.335,0-5.804-1.09-7.404-3.27c-1.265-1.745-1.896-3.948-1.896-6.609c0-3.179,0.831-5.668,2.492-7.468
		c1.662-1.8,3.763-2.7,6.303-2.7c2.854,0,5.105,0.942,6.755,2.826c1.649,1.885,2.438,4.771,2.366,8.66H40.888
		c0.036,1.505,0.445,2.676,1.229,3.513c0.782,0.837,1.758,1.255,2.926,1.255c0.795,0,1.463-0.217,2.005-0.65
		C47.588,151.144,47.997,150.445,48.274,149.481z M48.563,144.353c-0.036-1.469-0.415-2.586-1.138-3.351
		c-0.723-0.764-1.602-1.146-2.637-1.146c-1.108,0-2.022,0.403-2.745,1.21s-1.078,1.902-1.065,3.287H48.563z"/>
	<path fill="#FFCD07" d="M57.358,136.406h4.678v2.618c1.674-2.034,3.666-3.052,5.978-3.052c1.229,0,2.294,0.253,3.197,0.759
		c0.903,0.505,1.644,1.271,2.222,2.293c0.842-1.022,1.751-1.788,2.727-2.293c0.976-0.506,2.017-0.759,3.124-0.759
		c1.409,0,2.602,0.286,3.576,0.857c0.976,0.572,1.704,1.412,2.186,2.52c0.349,0.819,0.523,2.144,0.523,3.974v12.263h-5.074v-10.963
		c0-1.902-0.175-3.13-0.524-3.684c-0.47-0.723-1.191-1.084-2.167-1.084c-0.711,0-1.379,0.217-2.005,0.65s-1.077,1.068-1.354,1.905
		s-0.415,2.158-0.415,3.964v9.211h-5.075v-10.511c0-1.866-0.09-3.07-0.271-3.612s-0.461-0.945-0.84-1.21
		c-0.38-0.265-0.895-0.397-1.544-0.397c-0.783,0-1.487,0.211-2.113,0.632c-0.626,0.422-1.075,1.029-1.346,1.824
		s-0.406,2.113-0.406,3.955v9.319h-5.075V136.406z"/>
	<path fill="#FFCD07" d="M90.481,136.406h4.731v2.817c0.614-0.963,1.444-1.746,2.492-2.348c1.048-0.603,2.209-0.903,3.485-0.903
		c2.228,0,4.118,0.873,5.671,2.618c1.554,1.746,2.33,4.179,2.33,7.297c0,3.203-0.783,5.692-2.348,7.468
		c-1.565,1.776-3.462,2.664-5.689,2.664c-1.06,0-2.02-0.211-2.88-0.632c-0.861-0.422-1.768-1.145-2.719-2.168v9.662h-5.074V136.406z
		 M95.502,145.671c0,2.155,0.427,3.747,1.282,4.777c0.854,1.029,1.896,1.544,3.124,1.544c1.18,0,2.161-0.473,2.944-1.418
		c0.782-0.945,1.174-2.495,1.174-4.65c0-2.011-0.403-3.504-1.21-4.479c-0.807-0.975-1.807-1.463-2.998-1.463
		c-1.24,0-2.27,0.479-3.089,1.437C95.911,142.375,95.502,143.793,95.502,145.671z"/>
	<path fill="#FFCD07" d="M113.22,155.586v-26.477h5.074v26.477H113.22z"/>
	<path fill="#FFCD07" d="M122.321,145.725c0-1.686,0.416-3.316,1.247-4.894c0.83-1.577,2.007-2.781,3.53-3.612
		s3.224-1.246,5.103-1.246c2.901,0,5.279,0.942,7.133,2.826c1.854,1.885,2.782,4.266,2.782,7.143c0,2.902-0.937,5.308-2.809,7.216
		c-1.873,1.908-4.229,2.862-7.071,2.862c-1.758,0-3.434-0.397-5.029-1.192c-1.596-0.794-2.809-1.959-3.639-3.494
		C122.737,149.798,122.321,147.929,122.321,145.725z M127.523,145.996c0,1.902,0.451,3.359,1.354,4.37
		c0.902,1.012,2.017,1.518,3.341,1.518s2.435-0.506,3.332-1.518c0.896-1.011,1.346-2.479,1.346-4.406
		c0-1.878-0.449-3.323-1.346-4.335c-0.897-1.011-2.008-1.517-3.332-1.517s-2.438,0.506-3.341,1.517
		C127.975,142.637,127.523,144.094,127.523,145.996z"/>
	<path fill="#FFCD07" d="M168.268,155.586h-5.075V136.46c-1.854,1.734-4.039,3.017-6.556,3.847v-4.605
		c1.324-0.433,2.763-1.255,4.316-2.465c1.553-1.21,2.619-2.621,3.196-4.235h4.118V155.586z"/>
	<path fill="#FFCD07" d="M176.937,155.586v-5.075h5.074v5.075H176.937z"/>
	<path fill="#FFCD07" d="M2.239,173.494h9.771c2.203,0,3.883,0.169,5.039,0.506c1.553,0.458,2.883,1.271,3.991,2.438
		c1.107,1.168,1.95,2.598,2.528,4.289s0.867,3.777,0.867,6.258c0,2.18-0.271,4.058-0.813,5.635
		c-0.663,1.927-1.607,3.485-2.836,4.678c-0.928,0.903-2.18,1.607-3.757,2.113c-1.18,0.373-2.757,0.56-4.731,0.56H2.239V173.494z
		 M7.585,177.974v17.536h3.991c1.493,0,2.57-0.084,3.233-0.253c0.866-0.217,1.586-0.584,2.158-1.102
		c0.571-0.518,1.038-1.369,1.399-2.556c0.361-1.186,0.542-2.802,0.542-4.849s-0.181-3.618-0.542-4.714s-0.867-1.951-1.518-2.564
		c-0.649-0.614-1.475-1.029-2.474-1.246c-0.747-0.169-2.21-0.253-4.389-0.253H7.585z"/>
	<path fill="#FFCD07" d="M40.039,193.866l5.057,0.849c-0.649,1.854-1.677,3.267-3.079,4.235c-1.402,0.97-3.157,1.454-5.265,1.454
		c-3.335,0-5.804-1.09-7.404-3.27c-1.265-1.745-1.896-3.948-1.896-6.609c0-3.179,0.831-5.668,2.492-7.468
		c1.662-1.8,3.763-2.7,6.303-2.7c2.854,0,5.105,0.942,6.755,2.826c1.649,1.885,2.438,4.771,2.366,8.66H32.652
		c0.036,1.505,0.445,2.676,1.229,3.513c0.782,0.837,1.758,1.255,2.926,1.255c0.795,0,1.463-0.217,2.005-0.65
		C39.353,195.528,39.762,194.83,40.039,193.866z M40.328,188.737c-0.036-1.469-0.415-2.586-1.138-3.351
		c-0.723-0.764-1.602-1.146-2.637-1.146c-1.108,0-2.022,0.403-2.745,1.21s-1.078,1.902-1.065,3.287H40.328z"/>
	<path fill="#FFCD07" d="M64.637,199.971h-5.074v-19.18h4.713v2.727c0.807-1.288,1.532-2.137,2.177-2.546
		c0.644-0.409,1.375-0.614,2.194-0.614c1.156,0,2.27,0.319,3.341,0.957l-1.571,4.425c-0.854-0.554-1.649-0.831-2.384-0.831
		c-0.71,0-1.313,0.196-1.806,0.587c-0.494,0.392-0.883,1.1-1.165,2.122c-0.283,1.023-0.425,3.167-0.425,6.43V199.971z"/>
	<path fill="#FFCD07" d="M85.279,193.866l5.057,0.849c-0.649,1.854-1.677,3.267-3.079,4.235c-1.402,0.97-3.157,1.454-5.265,1.454
		c-3.335,0-5.804-1.09-7.404-3.27c-1.265-1.745-1.896-3.948-1.896-6.609c0-3.179,0.831-5.668,2.492-7.468
		c1.662-1.8,3.763-2.7,6.303-2.7c2.854,0,5.105,0.942,6.755,2.826c1.649,1.885,2.438,4.771,2.366,8.66H77.893
		c0.036,1.505,0.445,2.676,1.229,3.513c0.782,0.837,1.758,1.255,2.926,1.255c0.795,0,1.463-0.217,2.005-0.65
		C84.593,195.528,85.002,194.83,85.279,193.866z M85.568,188.737c-0.036-1.469-0.415-2.586-1.138-3.351
		c-0.723-0.764-1.602-1.146-2.637-1.146c-1.108,0-2.022,0.403-2.745,1.21s-1.078,1.902-1.065,3.287H85.568z"/>
	<path fill="#FFCD07" d="M107.276,207.267v-9.644c-0.662,0.854-1.487,1.532-2.474,2.031c-0.988,0.5-2.054,0.75-3.197,0.75
		c-2.18,0-3.973-0.818-5.382-2.456c-1.661-1.915-2.492-4.509-2.492-7.784c0-3.082,0.779-5.487,2.339-7.215
		c1.559-1.728,3.494-2.592,5.807-2.592c1.275,0,2.381,0.271,3.313,0.813s1.761,1.36,2.483,2.456v-2.835h4.678v26.476H107.276z
		 M107.439,190.146c0-1.962-0.4-3.422-1.201-4.379s-1.804-1.436-3.007-1.436c-1.229,0-2.255,0.487-3.08,1.462
		c-0.824,0.976-1.236,2.523-1.236,4.642c0,2.107,0.396,3.628,1.191,4.561c0.795,0.934,1.776,1.399,2.944,1.399
		c1.167,0,2.19-0.523,3.07-1.571C106.999,193.776,107.439,192.217,107.439,190.146z"/>
	<path fill="#FFCD07" d="M129.961,199.971V197.1c-0.699,1.023-1.617,1.83-2.755,2.42s-2.339,0.885-3.603,0.885
		c-1.289,0-2.444-0.283-3.468-0.849c-1.023-0.566-1.764-1.36-2.222-2.385c-0.457-1.022-0.686-2.438-0.686-4.244v-12.136h5.074v8.813
		c0,2.697,0.094,4.35,0.28,4.957c0.187,0.608,0.526,1.09,1.021,1.445c0.493,0.354,1.119,0.532,1.878,0.532
		c0.867,0,1.644-0.237,2.33-0.713s1.155-1.065,1.408-1.771c0.253-0.704,0.38-2.429,0.38-5.174v-8.091h5.074v19.18H129.961z"/>
	<path fill="#FFCD07" d="M151.037,193.866l5.057,0.849c-0.649,1.854-1.677,3.267-3.079,4.235c-1.402,0.97-3.157,1.454-5.265,1.454
		c-3.335,0-5.804-1.09-7.404-3.27c-1.265-1.745-1.896-3.948-1.896-6.609c0-3.179,0.831-5.668,2.492-7.468
		c1.662-1.8,3.763-2.7,6.303-2.7c2.854,0,5.105,0.942,6.755,2.826c1.649,1.885,2.438,4.771,2.366,8.66H143.65
		c0.036,1.505,0.445,2.676,1.229,3.513c0.782,0.837,1.758,1.255,2.926,1.255c0.795,0,1.463-0.217,2.005-0.65
		C150.351,195.528,150.76,194.83,151.037,193.866z M151.326,188.737c-0.036-1.469-0.415-2.586-1.138-3.351
		c-0.723-0.764-1.602-1.146-2.637-1.146c-1.108,0-2.022,0.403-2.745,1.21s-1.078,1.902-1.065,3.287H151.326z"/>
	<path fill="#FFCD07" d="M165.358,199.971h-5.074v-19.18h4.713v2.727c0.807-1.288,1.532-2.137,2.177-2.546
		c0.644-0.409,1.375-0.614,2.194-0.614c1.156,0,2.27,0.319,3.341,0.957l-1.571,4.425c-0.854-0.554-1.649-0.831-2.384-0.831
		c-0.71,0-1.313,0.196-1.806,0.587c-0.494,0.392-0.883,1.1-1.165,2.122c-0.283,1.023-0.425,3.167-0.425,6.43V199.971z"/>
	<path fill="#FFCD07" d="M174.895,178.19v-4.696h5.074v4.696H174.895z M174.895,199.971v-19.18h5.074v19.18H174.895z"/>
	<path fill="#FFCD07" d="M184.791,180.791h4.678v2.618c1.674-2.034,3.666-3.052,5.978-3.052c1.229,0,2.294,0.253,3.197,0.759
		c0.903,0.505,1.644,1.271,2.222,2.293c0.842-1.022,1.751-1.788,2.727-2.293c0.976-0.506,2.017-0.759,3.124-0.759
		c1.409,0,2.602,0.286,3.576,0.857c0.976,0.572,1.704,1.412,2.186,2.52c0.349,0.819,0.523,2.144,0.523,3.974v12.263h-5.074v-10.963
		c0-1.902-0.175-3.13-0.524-3.684c-0.47-0.723-1.191-1.084-2.167-1.084c-0.711,0-1.379,0.217-2.005,0.65s-1.077,1.068-1.354,1.905
		s-0.415,2.158-0.415,3.964v9.211h-5.075V189.46c0-1.866-0.09-3.07-0.271-3.612s-0.461-0.945-0.84-1.21
		c-0.38-0.265-0.895-0.397-1.544-0.397c-0.783,0-1.487,0.211-2.113,0.632c-0.626,0.422-1.075,1.029-1.346,1.824
		s-0.406,2.113-0.406,3.955v9.319h-5.075V180.791z"/>
	<path fill="#FFCD07" d="M218.059,178.19v-4.696h5.074v4.696H218.059z M218.059,199.971v-19.18h5.074v19.18H218.059z"/>
	<path fill="#FFCD07" d="M239.441,193.866l5.057,0.849c-0.649,1.854-1.677,3.267-3.079,4.235c-1.402,0.97-3.157,1.454-5.265,1.454
		c-3.335,0-5.804-1.09-7.404-3.27c-1.265-1.745-1.896-3.948-1.896-6.609c0-3.179,0.831-5.668,2.492-7.468
		c1.662-1.8,3.763-2.7,6.303-2.7c2.854,0,5.105,0.942,6.755,2.826c1.649,1.885,2.438,4.771,2.366,8.66h-12.715
		c0.036,1.505,0.445,2.676,1.229,3.513c0.782,0.837,1.758,1.255,2.926,1.255c0.795,0,1.463-0.217,2.005-0.65
		C238.755,195.528,239.164,194.83,239.441,193.866z M239.73,188.737c-0.036-1.469-0.415-2.586-1.138-3.351
		c-0.723-0.764-1.602-1.146-2.637-1.146c-1.108,0-2.022,0.403-2.745,1.21s-1.078,1.902-1.065,3.287H239.73z"/>
	<path fill="#FFCD07" d="M266.351,199.971h-5.074v-9.789c0-2.07-0.108-3.41-0.325-4.018c-0.217-0.608-0.569-1.081-1.057-1.418
		s-1.074-0.506-1.761-0.506c-0.879,0-1.668,0.241-2.366,0.723s-1.177,1.119-1.436,1.914s-0.389,2.264-0.389,4.407v8.687h-5.074
		v-19.18h4.713v2.817c1.674-2.167,3.781-3.251,6.321-3.251c1.12,0,2.144,0.202,3.07,0.604c0.927,0.404,1.628,0.919,2.104,1.545
		c0.476,0.626,0.806,1.336,0.993,2.131c0.187,0.795,0.279,1.933,0.279,3.413V199.971z"/>
	<path fill="#FFCD07" d="M280.294,180.791v4.045h-3.468v7.73c0,1.564,0.033,2.477,0.1,2.735c0.066,0.26,0.217,0.473,0.451,0.642
		c0.235,0.169,0.521,0.253,0.858,0.253c0.47,0,1.149-0.163,2.04-0.487l0.434,3.937c-1.18,0.506-2.517,0.759-4.009,0.759
		c-0.915,0-1.74-0.153-2.475-0.461c-0.734-0.307-1.273-0.704-1.616-1.191c-0.343-0.488-0.581-1.147-0.714-1.978
		c-0.108-0.59-0.162-1.782-0.162-3.576v-8.362h-2.33v-4.045h2.33v-3.811l5.093-2.962v6.772H280.294z"/>
	<path fill="#FFCD07" d="M282.642,190.109c0-1.686,0.416-3.316,1.247-4.894c0.83-1.577,2.007-2.781,3.53-3.612
		s3.224-1.246,5.103-1.246c2.901,0,5.279,0.942,7.133,2.826c1.854,1.885,2.782,4.266,2.782,7.143c0,2.902-0.937,5.308-2.809,7.216
		c-1.873,1.908-4.229,2.862-7.071,2.862c-1.758,0-3.434-0.397-5.029-1.192c-1.596-0.794-2.809-1.959-3.639-3.494
		C283.058,194.183,282.642,192.313,282.642,190.109z M287.844,190.381c0,1.902,0.451,3.359,1.354,4.37
		c0.902,1.012,2.017,1.518,3.341,1.518s2.435-0.506,3.332-1.518c0.896-1.011,1.346-2.479,1.346-4.406
		c0-1.878-0.449-3.323-1.346-4.335c-0.897-1.011-2.008-1.517-3.332-1.517s-2.438,0.506-3.341,1.517
		C288.295,187.021,287.844,188.479,287.844,190.381z"/>
	<path fill="#FFCD07" d="M304.622,194.498l5.093-0.776c0.217,0.987,0.656,1.737,1.318,2.249s1.589,0.768,2.781,0.768
		c1.313,0,2.3-0.241,2.962-0.723c0.445-0.337,0.668-0.788,0.668-1.354c0-0.386-0.12-0.704-0.361-0.957
		c-0.253-0.241-0.818-0.464-1.697-0.669c-4.094-0.902-6.688-1.728-7.784-2.474c-1.517-1.035-2.275-2.475-2.275-4.316
		c0-1.662,0.656-3.059,1.969-4.19c1.312-1.131,3.347-1.697,6.104-1.697c2.624,0,4.575,0.428,5.852,1.282
		c1.275,0.855,2.154,2.119,2.637,3.793l-4.786,0.885c-0.205-0.747-0.594-1.318-1.165-1.716c-0.572-0.397-1.388-0.596-2.447-0.596
		c-1.336,0-2.294,0.187-2.871,0.56c-0.386,0.265-0.578,0.608-0.578,1.029c0,0.361,0.168,0.668,0.506,0.921
		c0.457,0.338,2.037,0.813,4.74,1.427s4.59,1.367,5.662,2.258c1.06,0.903,1.589,2.161,1.589,3.774c0,1.758-0.734,3.269-2.203,4.533
		s-3.642,1.896-6.52,1.896c-2.613,0-4.681-0.53-6.204-1.59C306.088,197.756,305.092,196.316,304.622,194.498z"/>
	<path fill="#FFCD07" d="M0,225.176h2.817v-1.445c0-1.613,0.172-2.817,0.515-3.611c0.343-0.795,0.976-1.442,1.896-1.942
		c0.921-0.499,2.086-0.749,3.494-0.749c1.445,0,2.859,0.217,4.244,0.65l-0.686,3.54c-0.808-0.193-1.584-0.289-2.33-0.289
		c-0.734,0-1.262,0.171-1.58,0.515c-0.319,0.343-0.479,1.002-0.479,1.978v1.354h3.792v3.991H7.893v15.188H2.817v-15.188H0V225.176z"
		/>
	<path fill="#FFCD07" d="M27.163,244.355v-2.871c-0.699,1.023-1.617,1.83-2.755,2.42s-2.339,0.885-3.603,0.885
		c-1.289,0-2.444-0.283-3.468-0.849c-1.023-0.566-1.764-1.36-2.222-2.385c-0.457-1.022-0.686-2.438-0.686-4.244v-12.136h5.074v8.813
		c0,2.697,0.094,4.35,0.28,4.957c0.187,0.608,0.526,1.09,1.021,1.445c0.493,0.354,1.119,0.532,1.878,0.532
		c0.867,0,1.644-0.237,2.33-0.713s1.155-1.065,1.408-1.771c0.253-0.704,0.38-2.429,0.38-5.174v-8.091h5.074v19.18H27.163z"/>
	<path fill="#FFCD07" d="M54.578,244.355h-5.074v-9.789c0-2.07-0.108-3.41-0.325-4.018c-0.217-0.608-0.569-1.081-1.057-1.418
		s-1.074-0.506-1.761-0.506c-0.879,0-1.668,0.241-2.366,0.723s-1.177,1.119-1.436,1.914s-0.389,2.264-0.389,4.407v8.687h-5.074
		v-19.18h4.713v2.817c1.674-2.167,3.781-3.251,6.321-3.251c1.12,0,2.144,0.202,3.07,0.604c0.927,0.404,1.628,0.919,2.104,1.545
		c0.476,0.626,0.806,1.336,0.993,2.131c0.187,0.795,0.279,1.933,0.279,3.413V244.355z"/>
	<path fill="#FFCD07" d="M76.45,230.847l-5.003,0.902c-0.169-0.999-0.551-1.751-1.146-2.257c-0.597-0.506-1.37-0.759-2.321-0.759
		c-1.264,0-2.272,0.437-3.025,1.31c-0.752,0.873-1.128,2.333-1.128,4.379c0,2.276,0.382,3.884,1.146,4.822
		c0.765,0.939,1.791,1.409,3.079,1.409c0.963,0,1.752-0.273,2.366-0.822c0.614-0.548,1.047-1.489,1.3-2.826l4.985,0.849
		c-0.519,2.288-1.512,4.016-2.98,5.184s-3.438,1.752-5.905,1.752c-2.806,0-5.042-0.885-6.71-2.655
		c-1.667-1.77-2.501-4.22-2.501-7.351c0-3.166,0.837-5.631,2.511-7.396c1.673-1.764,3.937-2.646,6.79-2.646
		c2.336,0,4.193,0.503,5.571,1.508C74.857,227.256,75.848,228.787,76.45,230.847z"/>
	<path fill="#FFCD07" d="M80.297,222.575v-4.696h5.074v4.696H80.297z M80.297,244.355v-19.18h5.074v19.18H80.297z"/>
	<path fill="#FFCD07" d="M89.398,234.494c0-1.686,0.416-3.316,1.247-4.894c0.83-1.577,2.007-2.781,3.53-3.612
		s3.224-1.246,5.103-1.246c2.901,0,5.279,0.942,7.133,2.826c1.854,1.885,2.782,4.266,2.782,7.143c0,2.902-0.937,5.308-2.809,7.216
		c-1.873,1.908-4.229,2.862-7.071,2.862c-1.758,0-3.434-0.397-5.029-1.192c-1.596-0.794-2.809-1.959-3.639-3.494
		C89.814,238.567,89.398,236.698,89.398,234.494z M94.601,234.766c0,1.902,0.451,3.359,1.354,4.37
		c0.902,1.012,2.017,1.518,3.341,1.518s2.435-0.506,3.332-1.518c0.896-1.011,1.346-2.479,1.346-4.406
		c0-1.878-0.449-3.323-1.346-4.335c-0.897-1.011-2.008-1.517-3.332-1.517s-2.438,0.506-3.341,1.517
		C95.052,231.406,94.601,232.863,94.601,234.766z"/>
	<path fill="#FFCD07" d="M130.612,244.355h-5.074v-9.789c0-2.07-0.108-3.41-0.325-4.018c-0.217-0.608-0.569-1.081-1.057-1.418
		s-1.074-0.506-1.761-0.506c-0.879,0-1.668,0.241-2.366,0.723s-1.177,1.119-1.436,1.914s-0.389,2.264-0.389,4.407v8.687h-5.074
		v-19.18h4.713v2.817c1.674-2.167,3.781-3.251,6.321-3.251c1.12,0,2.144,0.202,3.07,0.604c0.927,0.404,1.628,0.919,2.104,1.545
		c0.476,0.626,0.806,1.336,0.993,2.131c0.187,0.795,0.279,1.933,0.279,3.413V244.355z"/>
	<path fill="#FFCD07" d="M139.553,231.027l-4.605-0.831c0.518-1.854,1.409-3.227,2.673-4.118c1.265-0.891,3.143-1.336,5.635-1.336
		c2.264,0,3.949,0.268,5.058,0.804c1.107,0.536,1.887,1.216,2.339,2.041c0.451,0.824,0.677,2.339,0.677,4.542l-0.054,5.924
		c0,1.686,0.081,2.929,0.243,3.729c0.163,0.801,0.467,1.658,0.912,2.573h-5.021c-0.133-0.337-0.295-0.837-0.487-1.499
		c-0.085-0.301-0.145-0.499-0.181-0.596c-0.867,0.843-1.795,1.475-2.781,1.896c-0.987,0.421-2.041,0.632-3.161,0.632
		c-1.975,0-3.53-0.536-4.668-1.607s-1.707-2.426-1.707-4.063c0-1.084,0.259-2.05,0.776-2.898c0.518-0.85,1.243-1.499,2.177-1.951
		c0.933-0.451,2.278-0.846,4.036-1.183c2.372-0.445,4.016-0.86,4.931-1.246v-0.506c0-0.976-0.241-1.671-0.723-2.086
		s-1.391-0.623-2.727-0.623c-0.903,0-1.607,0.178-2.113,0.533C140.275,229.513,139.866,230.136,139.553,231.027z M146.344,235.145
		c-0.65,0.217-1.68,0.476-3.089,0.776c-1.408,0.302-2.329,0.597-2.763,0.886c-0.662,0.469-0.993,1.065-0.993,1.788
		c0,0.71,0.265,1.324,0.794,1.842c0.53,0.518,1.204,0.776,2.023,0.776c0.915,0,1.788-0.301,2.618-0.903
		c0.614-0.457,1.018-1.017,1.21-1.679c0.133-0.434,0.199-1.259,0.199-2.475V235.145z"/>
	<path fill="#FFCD07" d="M156.331,244.355v-26.477h5.074v26.477H156.331z"/>
	<path fill="#FFCD07" d="M177.714,238.251l5.057,0.849c-0.649,1.854-1.677,3.267-3.079,4.235c-1.402,0.97-3.157,1.454-5.265,1.454
		c-3.335,0-5.804-1.09-7.404-3.27c-1.265-1.745-1.896-3.948-1.896-6.609c0-3.179,0.831-5.668,2.492-7.468
		c1.662-1.8,3.763-2.7,6.303-2.7c2.854,0,5.105,0.942,6.755,2.826c1.649,1.885,2.438,4.771,2.366,8.66h-12.715
		c0.036,1.505,0.445,2.676,1.229,3.513c0.782,0.837,1.758,1.255,2.926,1.255c0.795,0,1.463-0.217,2.005-0.65
		C177.027,239.913,177.437,239.215,177.714,238.251z M178.003,233.122c-0.036-1.469-0.415-2.586-1.138-3.351
		c-0.723-0.764-1.602-1.146-2.637-1.146c-1.108,0-2.022,0.403-2.745,1.21s-1.078,1.902-1.065,3.287H178.003z"/>
	<path fill="#FFCD07" d="M185.39,238.883l5.093-0.776c0.217,0.987,0.656,1.737,1.318,2.249s1.589,0.768,2.781,0.768
		c1.313,0,2.3-0.241,2.962-0.723c0.445-0.337,0.668-0.788,0.668-1.354c0-0.386-0.12-0.704-0.361-0.957
		c-0.253-0.241-0.818-0.464-1.697-0.669c-4.094-0.902-6.688-1.728-7.784-2.474c-1.517-1.035-2.275-2.475-2.275-4.316
		c0-1.662,0.656-3.059,1.969-4.19c1.312-1.131,3.347-1.697,6.104-1.697c2.624,0,4.575,0.428,5.852,1.282
		c1.275,0.855,2.154,2.119,2.637,3.793l-4.786,0.885c-0.205-0.747-0.594-1.318-1.165-1.716c-0.572-0.397-1.388-0.596-2.447-0.596
		c-1.336,0-2.294,0.187-2.871,0.56c-0.386,0.265-0.578,0.608-0.578,1.029c0,0.361,0.168,0.668,0.506,0.921
		c0.457,0.338,2.037,0.813,4.74,1.427s4.59,1.367,5.662,2.258c1.06,0.903,1.589,2.161,1.589,3.774c0,1.758-0.734,3.269-2.203,4.533
		s-3.642,1.896-6.52,1.896c-2.613,0-4.681-0.53-6.204-1.59C186.855,242.141,185.859,240.701,185.39,238.883z"/>
	<path fill="#FFCD07" d="M215.622,225.176h5.4l4.587,13.617l4.479-13.617h5.256l-6.772,18.457l-1.21,3.342
		c-0.445,1.119-0.87,1.974-1.273,2.564c-0.403,0.59-0.867,1.068-1.391,1.436s-1.168,0.653-1.933,0.857
		c-0.765,0.205-1.628,0.308-2.592,0.308c-0.975,0-1.933-0.103-2.871-0.308l-0.452-3.973c0.795,0.156,1.512,0.234,2.149,0.234
		c1.18,0,2.053-0.346,2.619-1.038c0.565-0.692,0.999-1.574,1.3-2.646L215.622,225.176z"/>
	<path fill="#FFCD07" d="M266.316,244.355h-5.074v-9.789c0-2.07-0.108-3.41-0.325-4.018c-0.217-0.608-0.569-1.081-1.057-1.418
		s-1.074-0.506-1.761-0.506c-0.879,0-1.668,0.241-2.366,0.723s-1.177,1.119-1.436,1.914s-0.389,2.264-0.389,4.407v8.687h-5.074
		v-19.18h4.713v2.817c1.674-2.167,3.781-3.251,6.321-3.251c1.12,0,2.144,0.202,3.07,0.604c0.927,0.404,1.628,0.919,2.104,1.545
		c0.476,0.626,0.806,1.336,0.993,2.131c0.187,0.795,0.279,1.933,0.279,3.413V244.355z"/>
	<path fill="#FFCD07" d="M270.29,234.494c0-1.686,0.416-3.316,1.247-4.894c0.83-1.577,2.007-2.781,3.53-3.612
		s3.224-1.246,5.103-1.246c2.901,0,5.279,0.942,7.133,2.826c1.854,1.885,2.782,4.266,2.782,7.143c0,2.902-0.937,5.308-2.809,7.216
		c-1.873,1.908-4.229,2.862-7.071,2.862c-1.758,0-3.434-0.397-5.029-1.192c-1.596-0.794-2.809-1.959-3.639-3.494
		C270.706,238.567,270.29,236.698,270.29,234.494z M275.492,234.766c0,1.902,0.451,3.359,1.354,4.37
		c0.902,1.012,2.017,1.518,3.341,1.518s2.435-0.506,3.332-1.518c0.896-1.011,1.346-2.479,1.346-4.406
		c0-1.878-0.449-3.323-1.346-4.335c-0.897-1.011-2.008-1.517-3.332-1.517s-2.438,0.506-3.341,1.517
		C275.943,231.406,275.492,232.863,275.492,234.766z"/>
	<path fill="#FFCD07" d="M302.113,225.176h2.817v-1.445c0-1.613,0.172-2.817,0.515-3.611c0.343-0.795,0.976-1.442,1.896-1.942
		c0.921-0.499,2.086-0.749,3.494-0.749c1.445,0,2.859,0.217,4.244,0.65l-0.686,3.54c-0.808-0.193-1.584-0.289-2.33-0.289
		c-0.734,0-1.262,0.171-1.58,0.515c-0.319,0.343-0.479,1.002-0.479,1.978v1.354h3.792v3.991h-3.792v15.188h-5.075v-15.188h-2.817
		V225.176z"/>
	<path fill="#FFCD07" d="M329.276,244.355v-2.871c-0.699,1.023-1.617,1.83-2.755,2.42s-2.339,0.885-3.603,0.885
		c-1.289,0-2.444-0.283-3.468-0.849c-1.023-0.566-1.764-1.36-2.222-2.385c-0.457-1.022-0.686-2.438-0.686-4.244v-12.136h5.074v8.813
		c0,2.697,0.094,4.35,0.28,4.957c0.187,0.608,0.526,1.09,1.021,1.445c0.493,0.354,1.119,0.532,1.878,0.532
		c0.867,0,1.644-0.237,2.33-0.713s1.155-1.065,1.408-1.771c0.253-0.704,0.38-2.429,0.38-5.174v-8.091h5.074v19.18H329.276z"/>
	<path fill="#FFCD07" d="M356.691,244.355h-5.074v-9.789c0-2.07-0.108-3.41-0.325-4.018c-0.217-0.608-0.569-1.081-1.057-1.418
		s-1.074-0.506-1.761-0.506c-0.879,0-1.668,0.241-2.366,0.723s-1.177,1.119-1.436,1.914s-0.389,2.264-0.389,4.407v8.687h-5.074
		v-19.18h4.713v2.817c1.674-2.167,3.781-3.251,6.321-3.251c1.12,0,2.144,0.202,3.07,0.604c0.927,0.404,1.628,0.919,2.104,1.545
		c0.476,0.626,0.806,1.336,0.993,2.131c0.187,0.795,0.279,1.933,0.279,3.413V244.355z"/>
	<path fill="#FFCD07" d="M378.563,230.847l-5.003,0.902c-0.169-0.999-0.551-1.751-1.146-2.257c-0.597-0.506-1.37-0.759-2.321-0.759
		c-1.264,0-2.272,0.437-3.025,1.31c-0.752,0.873-1.128,2.333-1.128,4.379c0,2.276,0.382,3.884,1.146,4.822
		c0.765,0.939,1.791,1.409,3.079,1.409c0.963,0,1.752-0.273,2.366-0.822c0.614-0.548,1.047-1.489,1.3-2.826l4.985,0.849
		c-0.519,2.288-1.512,4.016-2.98,5.184s-3.438,1.752-5.905,1.752c-2.806,0-5.042-0.885-6.71-2.655
		c-1.667-1.77-2.501-4.22-2.501-7.351c0-3.166,0.837-5.631,2.511-7.396c1.673-1.764,3.937-2.646,6.79-2.646
		c2.336,0,4.193,0.503,5.571,1.508C376.971,227.256,377.961,228.787,378.563,230.847z"/>
	<path fill="#FFCD07" d="M382.41,222.575v-4.696h5.074v4.696H382.41z M382.41,244.355v-19.18h5.074v19.18H382.41z"/>
	<path fill="#FFCD07" d="M391.512,234.494c0-1.686,0.416-3.316,1.247-4.894c0.83-1.577,2.007-2.781,3.53-3.612
		s3.224-1.246,5.103-1.246c2.901,0,5.279,0.942,7.133,2.826c1.854,1.885,2.782,4.266,2.782,7.143c0,2.902-0.937,5.308-2.809,7.216
		c-1.873,1.908-4.229,2.862-7.071,2.862c-1.758,0-3.434-0.397-5.029-1.192c-1.596-0.794-2.809-1.959-3.639-3.494
		C391.928,238.567,391.512,236.698,391.512,234.494z M396.714,234.766c0,1.902,0.451,3.359,1.354,4.37
		c0.902,1.012,2.017,1.518,3.341,1.518s2.435-0.506,3.332-1.518c0.896-1.011,1.346-2.479,1.346-4.406
		c0-1.878-0.449-3.323-1.346-4.335c-0.897-1.011-2.008-1.517-3.332-1.517s-2.438,0.506-3.341,1.517
		C397.165,231.406,396.714,232.863,396.714,234.766z"/>
	<path fill="#FFCD07" d="M432.726,244.355h-5.074v-9.789c0-2.07-0.108-3.41-0.325-4.018c-0.217-0.608-0.569-1.081-1.057-1.418
		s-1.074-0.506-1.761-0.506c-0.879,0-1.668,0.241-2.366,0.723s-1.177,1.119-1.436,1.914s-0.389,2.264-0.389,4.407v8.687h-5.074
		v-19.18h4.713v2.817c1.674-2.167,3.781-3.251,6.321-3.251c1.12,0,2.144,0.202,3.07,0.604c0.927,0.404,1.628,0.919,2.104,1.545
		c0.476,0.626,0.806,1.336,0.993,2.131c0.187,0.795,0.279,1.933,0.279,3.413V244.355z"/>
	<path fill="#FFCD07" d="M441.666,231.027l-4.605-0.831c0.518-1.854,1.409-3.227,2.673-4.118c1.265-0.891,3.143-1.336,5.635-1.336
		c2.264,0,3.949,0.268,5.058,0.804c1.107,0.536,1.887,1.216,2.339,2.041c0.451,0.824,0.677,2.339,0.677,4.542l-0.054,5.924
		c0,1.686,0.081,2.929,0.243,3.729c0.163,0.801,0.467,1.658,0.912,2.573h-5.021c-0.133-0.337-0.295-0.837-0.487-1.499
		c-0.085-0.301-0.145-0.499-0.181-0.596c-0.867,0.843-1.795,1.475-2.781,1.896c-0.987,0.421-2.041,0.632-3.161,0.632
		c-1.975,0-3.53-0.536-4.668-1.607s-1.707-2.426-1.707-4.063c0-1.084,0.259-2.05,0.776-2.898c0.518-0.85,1.243-1.499,2.177-1.951
		c0.933-0.451,2.278-0.846,4.036-1.183c2.372-0.445,4.016-0.86,4.931-1.246v-0.506c0-0.976-0.241-1.671-0.723-2.086
		s-1.391-0.623-2.727-0.623c-0.903,0-1.607,0.178-2.113,0.533C442.389,229.513,441.979,230.136,441.666,231.027z M448.457,235.145
		c-0.65,0.217-1.68,0.476-3.089,0.776c-1.408,0.302-2.329,0.597-2.763,0.886c-0.662,0.469-0.993,1.065-0.993,1.788
		c0,0.71,0.265,1.324,0.794,1.842c0.53,0.518,1.204,0.776,2.023,0.776c0.915,0,1.788-0.301,2.618-0.903
		c0.614-0.457,1.018-1.017,1.21-1.679c0.133-0.434,0.199-1.259,0.199-2.475V235.145z"/>
	<path fill="#FFCD07" d="M458.444,244.355v-26.477h5.074v26.477H458.444z"/>
	<path fill="#FFCD07" d="M479.827,238.251l5.057,0.849c-0.649,1.854-1.677,3.267-3.079,4.235c-1.402,0.97-3.157,1.454-5.265,1.454
		c-3.335,0-5.804-1.09-7.404-3.27c-1.265-1.745-1.896-3.948-1.896-6.609c0-3.179,0.831-5.668,2.492-7.468
		c1.662-1.8,3.763-2.7,6.303-2.7c2.854,0,5.105,0.942,6.755,2.826c1.649,1.885,2.438,4.771,2.366,8.66H472.44
		c0.036,1.505,0.445,2.676,1.229,3.513c0.782,0.837,1.758,1.255,2.926,1.255c0.795,0,1.463-0.217,2.005-0.65
		C479.141,239.913,479.55,239.215,479.827,238.251z M480.116,233.122c-0.036-1.469-0.415-2.586-1.138-3.351
		c-0.723-0.764-1.602-1.146-2.637-1.146c-1.108,0-2.022,0.403-2.745,1.21s-1.078,1.902-1.065,3.287H480.116z"/>
	<path fill="#FFCD07" d="M487.503,238.883l5.093-0.776c0.217,0.987,0.656,1.737,1.318,2.249s1.589,0.768,2.781,0.768
		c1.313,0,2.3-0.241,2.962-0.723c0.445-0.337,0.668-0.788,0.668-1.354c0-0.386-0.12-0.704-0.361-0.957
		c-0.253-0.241-0.818-0.464-1.697-0.669c-4.094-0.902-6.688-1.728-7.784-2.474c-1.517-1.035-2.275-2.475-2.275-4.316
		c0-1.662,0.656-3.059,1.969-4.19c1.312-1.131,3.347-1.697,6.104-1.697c2.624,0,4.575,0.428,5.852,1.282
		c1.275,0.855,2.154,2.119,2.637,3.793l-4.786,0.885c-0.205-0.747-0.594-1.318-1.165-1.716c-0.572-0.397-1.388-0.596-2.447-0.596
		c-1.336,0-2.294,0.187-2.871,0.56c-0.386,0.265-0.578,0.608-0.578,1.029c0,0.361,0.168,0.668,0.506,0.921
		c0.457,0.338,2.037,0.813,4.74,1.427s4.59,1.367,5.662,2.258c1.06,0.903,1.589,2.161,1.589,3.774c0,1.758-0.734,3.269-2.203,4.533
		s-3.642,1.896-6.52,1.896c-2.613,0-4.681-0.53-6.204-1.59C488.969,242.141,487.973,240.701,487.503,238.883z"/>
</g>
<g>
	<g>
		<line fill="none" stroke="#FFCD09" stroke-miterlimit="10" x1="517.396" y1="0" x2="517.396" y2="2"/>
		
			<line fill="none" stroke="#FFCD09" stroke-miterlimit="10" stroke-dasharray="3.9928,3.9928" x1="517.396" y1="5.993" x2="517.396" y2="379.316"/>
		<line fill="none" stroke="#FFCD09" stroke-miterlimit="10" x1="517.396" y1="381.313" x2="517.396" y2="383.313"/>
	</g>
</g>
</svg>