<?xml version="1.0" encoding="utf-8"?>
<!-- Generator: Adobe Illustrator 17.0.0, SVG Export Plug-In . SVG Version: 6.00 Build 0)  -->
<!DOCTYPE svg PUBLIC "-//W3C//DTD SVG 1.1//EN" "http://www.w3.org/Graphics/SVG/1.1/DTD/svg11.dtd" [
	<!ENTITY ns_extend "http://ns.adobe.com/Extensibility/1.0/">
	<!ENTITY ns_ai "http://ns.adobe.com/AdobeIllustrator/10.0/">
	<!ENTITY ns_graphs "http://ns.adobe.com/Graphs/1.0/">
	<!ENTITY ns_vars "http://ns.adobe.com/Variables/1.0/">
	<!ENTITY ns_imrep "http://ns.adobe.com/ImageReplacement/1.0/">
	<!ENTITY ns_sfw "http://ns.adobe.com/SaveForWeb/1.0/">
	<!ENTITY ns_custom "http://ns.adobe.com/GenericCustomNamespace/1.0/">
	<!ENTITY ns_adobe_xpath "http://ns.adobe.com/XPath/1.0/">
]>
<svg version="1.1" id="Capa_1" xmlns:x="&ns_extend;" xmlns:i="&ns_ai;" xmlns:graph="&ns_graphs;"
	 xmlns="http://www.w3.org/2000/svg" xmlns:xlink="http://www.w3.org/1999/xlink" x="0px" y="0px" width="1523.112px"
	 height="896.783px" viewBox="0 0 1523.112 896.783" enable-background="new 0 0 1523.112 896.783" xml:space="preserve">
<metadata>
	<sfw  xmlns="&ns_sfw;">
		<slices></slices>
		<sliceSourceBounds  width="1523.112" height="896.783" y="-1299.021" x="-77.731" bottomLeftOrigin="true"></sliceSourceBounds>
	</sfw>
</metadata>
<g>
	<g>
		<rect x="0.547" y="634.058" fill="#CDCCCA" width="1522.565" height="262.726"/>
		<rect x="0.547" y="606.024" fill="#578C9F" width="1522.565" height="28.033"/>
		<rect x="0" y="0" fill="#F3F2F2" width="1520.917" height="606.479"/>
	</g>
	<g>
		<g>
			<path fill="#333333" d="M541.685,641.394V524.808c0-10.346,6.599-18.763,14.71-18.763h74.147c8.11,0,14.709,8.417,14.709,18.763
				v116.587h4.299V524.808c0-13.412-8.528-24.324-19.008-24.324h-74.147c-10.481,0-19.009,10.912-19.009,24.324v116.587H541.685z"/>
			<path fill="#333333" d="M532.441,643.551V525.774c0-10.45,7.778-18.954,17.336-18.954h87.382c9.558,0,17.336,8.504,17.336,18.954
				v117.776h5.066V525.774c0-13.548-10.05-24.57-22.402-24.57h-87.382c-12.353,0-22.402,11.022-22.402,24.57v117.776H532.441z"/>
			<rect x="588.934" y="387.879" fill="#333333" width="13.331" height="124.72"/>
			<path fill="#B2A04C" d="M530.187,493.912c0,0,92.799-14.134,118.468,4.512C637.993,515.821,543.218,515.821,530.187,493.912z"/>
			<g>
				<path fill="#CAB558" d="M642.154,336.861c0-1.602-1.723-2.535-3.729-2.9c-17.08-3.111-75.258-3.111-92.337,0
					c-2.005,0.365-3.73,1.299-3.73,2.9c0,0-22.385,39.172-3.264,69.278c0.912,1.437,1.829,2.284,3.731,2.901
					c15.979,5.201,82.885,5.201,98.864,0c1.898-0.617,2.818-1.465,3.73-2.901C664.54,376.033,642.154,336.861,642.154,336.861z"/>
				<path opacity="0.1" d="M642.154,336.861c0-1.602-1.723-2.535-3.729-2.9c-8.599-1.566-27.621-2.344-46.567-2.332
					c15.708,2.482,30.205,6.146,34.806,12.129c17.898,23.283,14.469,48.07-4.1,68.147c8.394-0.65,15.257-1.606,19.125-2.864
					c1.898-0.617,2.818-1.465,3.73-2.901C664.54,376.033,642.154,336.861,642.154,336.861z"/>
			</g>
			<path fill="#CAB558" d="M674.322,504.34c0,5.846-8.492,10.582-18.967,10.582H530.594c-10.475,0-18.967-4.736-18.967-10.582
				v-2.824c0-5.842,8.492-10.58,18.967-10.58c0,0,22.34,3.765,62.381,3.765c41.727,0,62.381-3.765,62.381-3.765
				c10.474,0,18.967,4.738,18.967,10.58V504.34z"/>
			<path opacity="0.1" d="M655.355,509.415H530.594c-9.658,0-17.612-4.032-18.797-9.239c-0.1,0.438-0.17,0.888-0.17,1.34v2.824
				c0,5.846,8.492,10.582,18.967,10.582h124.761c10.474,0,18.967-4.736,18.967-10.582v-2.824c0-0.452-0.069-0.902-0.17-1.34
				C672.968,505.383,665.013,509.415,655.355,509.415z"/>
		</g>
		<path opacity="0.1" d="M658.359,643.48c0,2.339-28.86,4.236-64.461,4.236c-35.601,0-64.461-1.898-64.461-4.236
			c0-2.344,28.86-4.243,64.461-4.243C629.498,639.237,658.359,641.137,658.359,643.48z"/>
	</g>
	<g>
		<rect x="796.535" y="98.337" fill="#578C9F" width="269.546" height="278.173"/>
		<rect x="810.346" y="112.59" fill="#ACD6F2" width="241.924" height="249.666"/>
		<g>
			<g>
				<polygon fill="#5DA9CE" points="983.149,362.983 960.509,362.983 966.977,210.616 976.68,210.256 				"/>
				<path fill="#5DA9CE" d="M887.919,226.428v136.195h64.685V226.428H887.919z M901.395,300.994h-7.185v-7.189h7.185V300.994z
					 M903.013,245.472h-7.188v-7.185h7.188V245.472z M914.513,345.733h-7.188v-7.187h7.188V345.733z M922.418,277.455h-7.186v-7.188
					h7.186V277.455z M937.153,312.674h-7.188v-7.188h7.188V312.674z M943.98,253.378h-7.188v-7.186h7.188V253.378z"/>
				<rect x="965.902" y="206.301" fill="#5DA9CE" width="14.733" height="5.033"/>
				<path fill="#5DA9CE" d="M1034.732,288.957l-24.067-40.967l-21.508,40.967h-6.366v13.655h7.905v59.653h43.844v-59.653h4.312
					v-13.655H1034.732z M1026.634,357.955h-29.826v-2.517h29.826V357.955z M1026.634,342.141h-29.826v-2.516h29.826V342.141z
					 M1026.634,326.332h-29.826v-2.518h29.826V326.332z M1026.634,310.518h-29.826v-2.515h29.826V310.518z"/>
				<rect x="883.607" y="219.959" fill="#5DA9CE" width="73.31" height="10.063"/>
			</g>
			<g>
				<path fill="#6AA593" d="M881.963,313.531c0.596-1.426,0.926-2.99,0.926-4.631c0-6.331-4.892-11.508-11.1-11.99
					c1.106-1.597,1.757-3.529,1.757-5.619c0-5.268-4.128-9.561-9.326-9.853c-1.872-1.794-4.407-2.901-7.205-2.901
					c-1.503,0-2.926,0.324-4.217,0.895c-1.356-7.457-7.879-13.115-15.728-13.115c-6.672,0-12.387,4.088-14.784,9.895
					c-3.805,3.098-6.237,7.817-6.237,13.103c0,0.426,0.021,0.845,0.05,1.26c-4.203,3.526-6.879,8.816-6.879,14.736
					c0,3.721,1.061,7.194,2.893,10.136c-0.705,1.815-1.096,3.789-1.096,5.853c0,8.932,7.24,16.17,16.171,16.17
					c0.441,0,0.875-0.021,1.307-0.058c2.911,3.956,7.599,6.527,12.887,6.527c4.962,0,9.397-2.26,12.331-5.809
					c0.377,0.04,0.759,0.061,1.146,0.061c4.898,0,9.047-3.166,10.54-7.558c1.733,0.92,3.71,1.447,5.81,1.447
					c6.849,0,12.398-5.549,12.398-12.398C883.607,317.439,883.004,315.344,881.963,313.531z M861.178,301.756
					c-0.066-0.284-0.137-0.568-0.214-0.848c0.032-0.028,0.067-0.057,0.099-0.091c0.24,0.064,0.479,0.128,0.726,0.177
					C861.574,301.24,861.372,301.493,861.178,301.756z M860.025,314.142c0.017,0.035,0.034,0.074,0.053,0.11
					c-0.391,0.795-0.697,1.642-0.909,2.522c-0.145-0.06-0.297-0.107-0.444-0.163C859.214,315.823,859.648,314.997,860.025,314.142z"
					/>
				<polygon fill="#7C702F" points="841.203,362.266 848.031,362.266 848.031,330.194 866.494,314.6 863.71,311.304 
					848.031,324.549 848.031,313.392 841.203,313.392 841.203,337.05 831.76,324.84 828.35,327.477 841.203,344.1 				"/>
			</g>
		</g>
		<g opacity="0.2">
			<polygon fill="#F3F2F2" points="810.345,224.098 810.345,338.897 1052.27,185.241 1052.27,112.59 983.034,112.59 			"/>
			<polygon fill="#F3F2F2" points="1052.27,281.525 1052.27,228.477 865.178,362.256 931.601,362.256 			"/>
		</g>
		<path fill="#528293" d="M1078.286,383.108c0,1.191-0.965,2.157-2.157,2.157H786.487c-1.192,0-2.157-0.966-2.157-2.157v-3.592
			c0-1.192,0.965-2.157,2.157-2.157h289.642c1.192,0,2.157,0.965,2.157,2.157V383.108z"/>
		<rect x="787.204" y="93.466" fill="#CDCCCA" width="288.207" height="10.783"/>
		<g>
			<g>
				<polygon fill="#E1E1E1" points="1056.714,101.467 997.733,101.467 865.691,101.467 806.709,101.467 802.935,108.917 
					869.461,108.917 993.959,108.917 1060.487,108.917 				"/>
				<polygon fill="#A4A5A4" points="1056.714,109.977 997.733,109.977 865.691,109.977 806.709,109.977 802.935,108.917 
					869.461,108.917 993.959,108.917 1060.487,108.917 				"/>
			</g>
			<g>
				<polygon fill="#E1E1E1" points="1056.714,109.977 997.733,109.977 865.691,109.977 806.709,109.977 802.935,117.428 
					869.461,117.428 993.959,117.428 1060.487,117.428 				"/>
				<polygon fill="#A4A5A4" points="1056.714,118.484 997.733,118.484 865.691,118.484 806.709,118.484 802.935,117.428 
					869.461,117.428 993.959,117.428 1060.487,117.428 				"/>
			</g>
			<g>
				<polygon fill="#E1E1E1" points="1056.714,118.484 997.733,118.484 865.691,118.484 806.709,118.484 802.935,125.937 
					869.461,125.937 993.959,125.937 1060.487,125.937 				"/>
				<polygon fill="#A4A5A4" points="1056.714,126.994 997.733,126.994 865.691,126.994 806.709,126.994 802.935,125.937 
					869.461,125.937 993.959,125.937 1060.487,125.937 				"/>
			</g>
			<g>
				<polygon fill="#E1E1E1" points="1056.714,126.994 997.733,126.994 865.691,126.994 806.709,126.994 802.935,134.444 
					869.461,134.444 993.959,134.444 1060.487,134.444 				"/>
				<polygon fill="#A4A5A4" points="1056.714,135.502 997.733,135.502 865.691,135.502 806.709,135.502 802.935,134.444 
					869.461,134.444 993.959,134.444 1060.487,134.444 				"/>
			</g>
			<g>
				<polygon fill="#E1E1E1" points="1056.714,135.502 997.733,135.502 865.691,135.502 806.709,135.502 802.935,142.956 
					869.461,142.956 993.959,142.956 1060.487,142.956 				"/>
				<polygon fill="#A4A5A4" points="1056.714,144.014 997.733,144.014 865.691,144.014 806.709,144.014 802.935,142.956 
					869.461,142.956 993.959,142.956 1060.487,142.956 				"/>
			</g>
			<g>
				<polygon fill="#E1E1E1" points="1056.714,144.014 997.733,144.014 865.691,144.014 806.709,144.014 802.935,151.464 
					869.461,151.464 993.959,151.464 1060.487,151.464 				"/>
				<polygon fill="#A4A5A4" points="1056.714,152.521 997.733,152.521 865.691,152.521 806.709,152.521 802.935,151.464 
					869.461,151.464 993.959,151.464 1060.487,151.464 				"/>
			</g>
			<g>
				<polygon fill="#E1E1E1" points="1055.91,152.521 996.926,152.521 864.885,152.521 805.903,152.521 802.13,159.972 
					868.658,159.972 993.155,159.972 1059.682,159.972 				"/>
				<polygon fill="#A4A5A4" points="1055.91,161.031 996.926,161.031 864.885,161.031 805.903,161.031 802.13,159.972 
					868.658,159.972 993.155,159.972 1059.682,159.972 				"/>
			</g>
			<g>
				<polygon fill="#E1E1E1" points="1055.91,161.031 996.926,161.031 864.885,161.031 805.903,161.031 802.13,168.482 
					868.658,168.482 993.155,168.482 1059.682,168.482 				"/>
				<polygon fill="#A4A5A4" points="1055.91,169.543 996.926,169.543 864.885,169.543 805.903,169.543 802.13,168.482 
					868.658,168.482 993.155,168.482 1059.682,168.482 				"/>
			</g>
			<g>
				<polygon fill="#E1E1E1" points="1055.91,169.543 996.926,169.543 864.885,169.543 805.903,169.543 802.13,176.991 
					868.658,176.991 993.155,176.991 1059.682,176.991 				"/>
				<polygon fill="#A4A5A4" points="1055.91,178.049 996.926,178.049 864.885,178.049 805.903,178.049 802.13,176.991 
					868.658,176.991 993.155,176.991 1059.682,176.991 				"/>
			</g>
			<g>
				<polygon fill="#E1E1E1" points="1055.91,178.049 996.926,178.049 864.885,178.049 805.903,178.049 802.13,185.5 868.658,185.5 
					993.155,185.5 1059.682,185.5 				"/>
				<polygon fill="#A4A5A4" points="1055.91,186.561 996.926,186.561 864.885,186.561 805.903,186.561 802.13,185.5 868.658,185.5 
					993.155,185.5 1059.682,185.5 				"/>
			</g>
			<g>
				<rect x="1014.98" y="100.821" fill="#B2B2B3" width="3.261" height="97.536"/>
			</g>
			<g>
				<rect x="835.3" y="100.821" fill="#B2B2B3" width="3.261" height="97.536"/>
			</g>
			<path fill="#808080" d="M824.037,302.572V102.066h-4.336v200.566c-2.086,0.915-3.55,3.065-3.55,5.568v17.122
				c0,3.335,2.596,6.039,5.798,6.039c3.203,0,5.798-2.704,5.798-6.039v-17.122C827.747,305.636,826.206,303.448,824.037,302.572z"/>
		</g>
		<polygon opacity="0.1" points="1079.129,411.778 786.487,385.266 1079.129,385.266 		"/>
	</g>
	<g>
		<g>
			<rect x="357.006" y="307.912" fill="#989897" width="24.916" height="105.893"/>
			<rect x="361.079" y="367.807" fill="#EBCF66" width="16.77" height="2.395"/>
			<rect x="361.079" y="373.316" fill="#EBCF66" width="16.77" height="2.394"/>
			<rect x="361.079" y="378.824" fill="#F3F2F2" width="16.77" height="2.397"/>
			<circle fill="#F3F2F2" cx="369.464" cy="400.026" r="7.307"/>
		</g>
		<g>
			<rect x="386.234" y="307.912" fill="#7B7B7B" width="24.915" height="105.893"/>
			<rect x="390.307" y="367.807" fill="#EF5686" width="16.771" height="2.395"/>
			<rect x="390.307" y="373.316" fill="#EF5686" width="16.771" height="2.394"/>
			<rect x="390.307" y="378.824" fill="#EF5686" width="16.771" height="2.397"/>
			<circle fill="#EF5686" cx="398.692" cy="400.026" r="7.307"/>
		</g>
		<path fill="#CAB558" d="M420.916,413.563l-25.667-86.006c-0.452-1.518-2.116-2.755-3.697-2.755h-40.728
			c-1.582,0-2.875,1.29-2.875,2.872v85.769c0,1.583,1.292,2.877,2.875,2.877h68.038
			C420.445,416.319,421.368,415.078,420.916,413.563z M359.091,341.691h28.748c1.323,0,2.395,1.07,2.395,2.396
			c0,1.323-1.072,2.396-2.395,2.396h-28.748c-1.323,0-2.397-1.073-2.397-2.396C356.694,342.762,357.767,341.691,359.091,341.691z
			 M359.091,360.02h32.103c1.323,0,2.395,1.07,2.395,2.395c0,1.323-1.072,2.396-2.395,2.396h-32.103
			c-1.323,0-2.397-1.072-2.397-2.396C356.694,361.09,357.767,360.02,359.091,360.02z M359.091,378.346h37.853
			c1.323,0,2.396,1.072,2.396,2.396c0,1.324-1.073,2.393-2.396,2.393h-37.853c-1.323,0-2.397-1.069-2.397-2.393
			C356.694,379.418,357.767,378.346,359.091,378.346z M404.369,401.463h-45.278c-1.323,0-2.397-1.069-2.397-2.393
			c0-1.325,1.074-2.398,2.397-2.398h45.278c1.323,0,2.396,1.073,2.396,2.398C406.765,400.393,405.692,401.463,404.369,401.463z"/>
	</g>
	<g>
		<g>
			<rect x="474.565" y="326.838" fill="#C6A22C" width="0.958" height="67.56"/>
			<polygon fill="#A6D285" points="486.604,356.921 484.402,356.921 484.402,353.102 486.604,352.249 			"/>
			<rect x="478.996" y="347.682" fill="#989897" width="1.917" height="35.816"/>
			<g>
				
					<rect x="464.023" y="335.104" transform="matrix(0.9806 -0.1962 0.1962 0.9806 -61.9687 98.938)" fill="#666667" width="8.505" height="54.142"/>
				
					<rect x="464.756" y="338.43" transform="matrix(0.9803 -0.1974 0.1974 0.9803 -57.6845 98.6712)" fill="#B2B2B3" width="2.637" height="0.481"/>
				
					<rect x="465.086" y="340.076" transform="matrix(0.9806 -0.1961 0.1961 0.9806 -57.6697 98.0467)" fill="#B2B2B3" width="2.635" height="0.479"/>
				
					<rect x="465.415" y="341.72" transform="matrix(0.9805 -0.1964 0.1964 0.9805 -58.0728 98.3307)" fill="#B2B2B3" width="2.635" height="0.48"/>
				
					<rect x="465.744" y="343.366" transform="matrix(0.9806 -0.196 0.196 0.9806 -58.2908 98.2163)" fill="#B2B2B3" width="2.636" height="0.477"/>
				
					<rect x="466.074" y="345.009" transform="matrix(0.9805 -0.1968 0.1968 0.9805 -58.7938 98.712)" fill="#B2B2B3" width="2.636" height="0.477"/>
				
					<rect x="466.403" y="346.653" transform="matrix(0.9805 -0.1964 0.1964 0.9805 -59.0243 98.6247)" fill="#B2B2B3" width="2.635" height="0.481"/>
				
					<rect x="466.732" y="348.297" transform="matrix(0.9805 -0.1967 0.1967 0.9805 -59.415 98.8783)" fill="#B2B2B3" width="2.636" height="0.48"/>
				
					<rect x="467.061" y="349.941" transform="matrix(0.9805 -0.1964 0.1964 0.9805 -59.6648 98.834)" fill="#B2B2B3" width="2.635" height="0.478"/>
				
					<rect x="467.39" y="351.585" transform="matrix(0.9807 -0.1956 0.1956 0.9807 -59.7702 98.4899)" fill="#B2B2B3" width="2.636" height="0.478"/>
				
					<rect x="467.72" y="353.231" transform="matrix(0.9807 -0.1956 0.1956 0.9807 -60.0894 98.5939)" fill="#B2B2B3" width="2.635" height="0.477"/>
				
					<rect x="468.048" y="354.873" transform="matrix(0.9806 -0.196 0.196 0.9806 -60.4923 98.8715)" fill="#B2B2B3" width="2.636" height="0.48"/>
				
					<rect x="468.378" y="356.515" transform="matrix(0.9804 -0.1968 0.1968 0.9804 -61.0227 99.41)" fill="#B2B2B3" width="2.635" height="0.481"/>
				
					<rect x="468.707" y="358.159" transform="matrix(0.9805 -0.1964 0.1964 0.9805 -61.2336 99.2895)" fill="#B2B2B3" width="2.636" height="0.48"/>
				
					<rect x="469.035" y="359.807" transform="matrix(0.9806 -0.196 0.196 0.9806 -61.4476 99.1763)" fill="#B2B2B3" width="2.636" height="0.475"/>
				
					<rect x="469.365" y="361.45" transform="matrix(0.9806 -0.196 0.196 0.9806 -61.7636 99.2729)" fill="#B2B2B3" width="2.636" height="0.48"/>
				
					<rect x="469.694" y="363.095" transform="matrix(0.9807 -0.1953 0.1953 0.9807 -61.8926 98.9924)" fill="#B2B2B3" width="2.635" height="0.476"/>
				
					<rect x="470.023" y="364.738" transform="matrix(0.9807 -0.1957 0.1957 0.9807 -62.3004 99.275)" fill="#B2B2B3" width="2.636" height="0.48"/>
				
					<rect x="470.352" y="366.383" transform="matrix(0.9805 -0.1964 0.1964 0.9805 -62.8166 99.7731)" fill="#B2B2B3" width="2.636" height="0.478"/>
				
					<rect x="470.682" y="368.027" transform="matrix(0.9807 -0.1956 0.1956 0.9807 -62.9271 99.4594)" fill="#B2B2B3" width="2.635" height="0.477"/>
				
					<rect x="471.01" y="369.672" transform="matrix(0.9803 -0.1974 0.1974 0.9803 -63.7263 100.5162)" fill="#B2B2B3" width="2.637" height="0.479"/>
				
					<rect x="471.34" y="371.318" transform="matrix(0.9807 -0.1957 0.1957 0.9807 -63.5681 99.6717)" fill="#B2B2B3" width="2.635" height="0.477"/>
			</g>
			<rect x="478.996" y="346.605" fill="#666667" width="1.977" height="1.975"/>
			<ellipse fill="#989897" cx="485.553" cy="358.552" rx="3.563" ry="3.503"/>
			<rect x="481.991" y="358.461" fill="#A6D285" width="7.186" height="19.407"/>
		</g>
		<rect x="459.472" y="375.47" fill="#C9C9C7" width="30.186" height="38.812"/>
		<rect x="481.273" y="375.47" opacity="0.1" width="8.385" height="38.812"/>
	</g>
	<g>
		<path fill="#949494" d="M673.502,372.48c0,3.012-2.441,5.451-5.453,5.451h-141.17c-3.012,0-5.453-2.439-5.453-5.451v-99.366
			c0-3.01,2.441-5.452,5.453-5.452h141.17c3.012,0,5.453,2.442,5.453,5.452V372.48z"/>
		<rect x="615.64" y="368.237" fill="#7C7D7D" width="35.949" height="6.666"/>
		<path fill="#7C7D7D" d="M669.261,343.398c0,3.011-2.441,5.451-5.453,5.451H532.029c-3.012,0-5.452-2.441-5.452-5.451v-44.533
			c0-3.01,2.44-5.451,5.452-5.451h131.779c3.012,0,5.453,2.441,5.453,5.451V343.398z"/>
		<polygon fill="#333333" points="587.063,322.897 587.063,324.92 587.063,326.939 587.063,328.959 587.063,330.978 587.063,333 
			587.063,335.017 587.063,337.035 587.063,339.055 587.063,341.076 587.063,343.097 587.063,345.116 587.063,347.135 
			587.063,349.154 587.063,351.174 587.063,353.193 587.063,355.213 587.063,357.232 587.063,359.254 587.063,361.272 
			587.063,363.288 587.063,365.313 587.063,367.33 587.063,369.35 587.063,371.369 587.063,373.389 587.063,375.408 
			587.063,377.428 587.063,379.447 587.063,381.468 587.063,383.486 587.063,385.506 587.063,387.524 587.063,389.542 
			587.063,391.563 587.063,393.583 587.063,395.601 587.063,397.62 587.063,399.64 587.063,401.66 587.063,403.68 587.063,405.698 
			587.063,407.718 587.063,409.543 587.063,409.739 607.26,409.739 607.26,409.543 607.26,407.718 607.26,405.698 607.26,403.68 
			607.26,401.66 607.26,399.64 607.26,397.62 607.26,395.601 607.26,393.583 607.26,391.563 607.26,389.542 607.26,387.524 
			607.26,385.506 607.26,383.486 607.26,381.468 607.26,379.447 607.26,377.428 607.26,375.408 607.26,373.389 607.26,371.369 
			607.26,369.35 607.26,367.33 607.26,365.313 607.26,363.288 607.26,361.272 607.26,359.254 607.26,357.232 607.26,355.213 
			607.26,353.193 607.26,351.174 607.26,349.154 607.26,347.135 607.26,345.116 607.26,343.097 607.26,341.076 607.26,339.055 
			607.26,337.035 607.26,335.017 607.26,333 607.26,330.978 607.26,328.959 607.26,326.939 607.26,324.92 607.26,322.897 		"/>
		<polygon opacity="0.2" points="613.521,377.026 606.855,377.026 606.855,323.505 		"/>
		<path fill="#7C7D7D" d="M548.085,374.903c0,0.335,0.271,0.605,0.605,0.605l0,0c0.335,0,0.607-0.27,0.607-0.605v-19.996
			c0-0.333-0.271-0.604-0.607-0.604l0,0c-0.334,0-0.605,0.271-0.605,0.604V374.903z"/>
		<path fill="#7C7D7D" d="M550.66,374.903c0,0.335,0.27,0.605,0.607,0.605l0,0c0.332,0,0.604-0.27,0.604-0.605v-19.996
			c0-0.333-0.272-0.604-0.604-0.604l0,0c-0.337,0-0.607,0.271-0.607,0.604V374.903z"/>
		<path fill="#7C7D7D" d="M553.235,374.903c0,0.335,0.271,0.605,0.606,0.605l0,0c0.333,0,0.606-0.27,0.606-0.605v-19.996
			c0-0.333-0.273-0.604-0.606-0.604l0,0c-0.335,0-0.606,0.271-0.606,0.604V374.903z"/>
		<path fill="#7C7D7D" d="M555.81,374.903c0,0.335,0.271,0.605,0.606,0.605l0,0c0.335,0,0.605-0.27,0.605-0.605v-19.996
			c0-0.333-0.27-0.604-0.605-0.604l0,0c-0.335,0-0.606,0.271-0.606,0.604V374.903z"/>
		<path fill="#7C7D7D" d="M558.384,374.903c0,0.335,0.272,0.605,0.607,0.605l0,0c0.334,0,0.605-0.27,0.605-0.605v-19.996
			c0-0.333-0.271-0.604-0.605-0.604l0,0c-0.335,0-0.607,0.271-0.607,0.604V374.903z"/>
		<path fill="#7C7D7D" d="M560.96,374.903c0,0.335,0.271,0.605,0.606,0.605l0,0c0.335,0,0.606-0.27,0.606-0.605v-19.996
			c0-0.333-0.271-0.604-0.606-0.604l0,0c-0.334,0-0.606,0.271-0.606,0.604V374.903z"/>
		<path fill="#7C7D7D" d="M563.535,374.903c0,0.335,0.271,0.605,0.606,0.605l0,0c0.335,0,0.605-0.27,0.605-0.605v-19.996
			c0-0.333-0.27-0.604-0.605-0.604l0,0c-0.335,0-0.606,0.271-0.606,0.604V374.903z"/>
		<path fill="#7C7D7D" d="M566.11,374.903c0,0.335,0.271,0.605,0.606,0.605l0,0c0.334,0,0.605-0.27,0.605-0.605v-19.996
			c0-0.333-0.271-0.604-0.605-0.604l0,0c-0.336,0-0.606,0.271-0.606,0.604V374.903z"/>
		<path fill="#7C7D7D" d="M568.685,374.903c0,0.335,0.271,0.605,0.605,0.605l0,0c0.333,0,0.606-0.27,0.606-0.605v-19.996
			c0-0.333-0.272-0.604-0.606-0.604l0,0c-0.335,0-0.605,0.271-0.605,0.604V374.903z"/>
		<rect x="578.783" y="317.951" fill="#4D4E4E" width="37.363" height="11.915"/>
		<g>
			<g>
				<rect x="626.308" y="375.855" fill="#4377AE" width="1.427" height="3.249"/>
				<rect x="632.095" y="375.855" fill="#4377AE" width="1.426" height="3.249"/>
			</g>
			<rect x="625.161" y="370.151" fill="#508AC8" width="9.508" height="5.86"/>
			<g>
				<path fill="#636666" d="M611.038,429.733h-1.903v-14.576c0-4.87,4.545-6.667,8.938-8.405
					c5.188-2.053,10.554-4.173,10.554-11.089v-19.491h1.902v19.491c0,8.21-6.519,10.785-11.757,12.858
					c-4.151,1.641-7.734,3.058-7.734,6.636V429.733z"/>
			</g>
		</g>
		<path fill="#636363" d="M607.452,400.148h-10.29h-10.293c-6.062,3.463-16.64,5.858-28.888,6.21v8.733h39.182h39.179v-8.733
			C624.094,406.007,613.516,403.611,607.452,400.148z"/>
		<rect x="558.182" y="409.639" fill="#7C7D7D" width="78.159" height="5.453"/>
		<path opacity="0.1" d="M557.302,267.662h-30.423c-3.012,0-5.453,2.442-5.453,5.452v99.366c0,3.012,2.441,5.451,5.453,5.451H664.23
			L557.302,267.662z"/>
	</g>
	<g>
		<rect x="469.954" y="429.077" fill="#B7B8B9" width="275.643" height="19.046"/>
		<ellipse opacity="0.1" cx="533.088" cy="655.571" rx="169.834" ry="7.99"/>
		<g>
			<g>
				<rect x="340.056" y="429.077" fill="#326E89" width="140.705" height="206.982"/>
				<g>
					<g>
						<rect x="325.107" y="424.766" fill="#E5E5E5" width="14.61" height="233.882"/>
						<rect x="331.656" y="419.675" opacity="0.1" width="8.06" height="238.973"/>
					</g>
					<rect x="311.267" y="652.896" fill="#1F5E80" width="42.291" height="6.469"/>
				</g>
			</g>
			<g>
				<g>
					<rect x="732.632" y="427.22" fill="#E5E5E5" width="14.61" height="231.428"/>
					<rect x="739.181" y="427.22" opacity="0.1" width="8.06" height="231.428"/>
				</g>
				<rect x="718.791" y="652.896" fill="#1F5E80" width="42.29" height="6.469"/>
			</g>
			<rect x="324.167" y="431.53" opacity="0.1" width="421.366" height="7.187"/>
		</g>
		<path fill="#E5E5E5" d="M764.927,424.703c0,3.374-2.927,6.11-6.535,6.11H313.958c-3.61,0-6.536-2.736-6.536-6.11l0,0
			c0-3.372,2.926-6.109,6.536-6.109h444.434C762,418.594,764.927,421.331,764.927,424.703L764.927,424.703z"/>
		<rect x="293.966" y="414.281" fill="#1F5E80" width="484.416" height="7.188"/>
	</g>
	<g>
		<rect x="145.478" y="0" fill="#808080" width="5.751" height="19.498"/>
		<circle fill="#E7D3A9" cx="147.395" cy="31.957" r="17.728"/>
		<path fill="#326E89" d="M202.018,20.537c0,0.485-0.966,0.88-2.157,0.88H97.804c-1.191,0-2.157-0.395-2.157-0.88v-8.781
			c0-0.486,0.965-0.881,2.157-0.881h102.057c1.191,0,2.157,0.394,2.157,0.881V20.537z"/>
	</g>
	<g>
		<rect x="1340.085" y="0" fill="#808080" width="5.75" height="19.498"/>
		<circle fill="#E7D3A9" cx="1342.001" cy="31.957" r="17.728"/>
		<path fill="#326E89" d="M1396.624,20.537c0,0.485-0.966,0.88-2.156,0.88H1292.41c-1.19,0-2.156-0.395-2.156-0.88v-8.781
			c0-0.486,0.966-0.881,2.156-0.881h102.058c1.19,0,2.156,0.394,2.156,0.881V20.537z"/>
	</g>
	<g>
		<rect x="231.851" y="92.303" fill="#B2B2B3" width="81.2" height="81.198"/>
		<rect x="239.069" y="99.519" fill="#F3F2F2" width="66.766" height="66.763"/>
		<g>
			<rect x="272.899" y="155.942" fill="#B2B2B3" width="1.168" height="8.638"/>
			<rect x="272.899" y="101.23" fill="#B2B2B3" width="1.168" height="8.636"/>
		</g>
		<g>
			<rect x="240.777" y="132.318" fill="#B2B2B3" width="8.635" height="1.17"/>
			<rect x="295.491" y="132.318" fill="#B2B2B3" width="8.635" height="1.17"/>
		</g>
		<polygon fill="#666667" points="272.323,109.749 272.323,132.049 252.602,132.049 252.602,134.239 272.323,134.239 
			274.513,134.239 274.513,132.049 274.513,109.749 		"/>
		<circle fill="#F48B7E" cx="273.612" cy="133.207" r="2.32"/>
		
			<rect x="261.881" y="126.585" transform="matrix(-0.5969 -0.8023 0.8023 -0.5969 305.0424 436.3395)" fill="#F48B7E" width="0.517" height="29.902"/>
		<circle fill="#F3F2F2" cx="273.612" cy="133.207" r="1.289"/>
	</g>
	<g>
		<rect x="416.762" y="108.199" fill="#B2B2B3" width="244.854" height="11.76"/>
		<path fill="#E5E5E5" d="M673.033,111.064c0,1.203-0.975,2.178-2.178,2.178H407.523c-1.202,0-2.177-0.975-2.177-2.178V43.599
			c0-1.202,0.975-2.176,2.177-2.176h263.332c1.203,0,2.178,0.974,2.178,2.176V111.064z"/>
		<path fill="#B2B2B3" d="M670.855,41.423H407.523c-1.202,0-2.177,0.974-2.177,2.176v11.341c0-1.201,0.975-2.179,2.177-2.179
			h263.332c1.203,0,2.178,0.978,2.178,2.179V43.599C673.033,42.396,672.058,41.423,670.855,41.423z"/>
		<g>
			<g>
				<rect x="419.023" y="55.6" fill="#C5C6C6" width="52.288" height="3.151"/>
				<rect x="419.023" y="61.901" fill="#C5C6C6" width="52.288" height="3.148"/>
				<rect x="477.611" y="55.6" fill="#C5C6C6" width="52.288" height="3.151"/>
				<rect x="477.611" y="61.901" fill="#C5C6C6" width="52.288" height="3.148"/>
			</g>
			<g>
				<rect x="548.478" y="55.6" fill="#C5C6C6" width="52.29" height="3.151"/>
				<rect x="548.478" y="61.901" fill="#C5C6C6" width="52.29" height="3.148"/>
				<rect x="607.066" y="55.6" fill="#C5C6C6" width="52.289" height="3.151"/>
				<rect x="607.066" y="61.901" fill="#C5C6C6" width="52.289" height="3.148"/>
			</g>
		</g>
		<circle fill="#96BDE4" cx="666.729" cy="107.571" r="2.835"/>
		<path fill="#CCCECD" d="M419.649,99.064v13.231h239.079V99.064H419.649z M423.996,111.649l6.21-9.843h214.239l9.935,9.843H423.996
			z"/>
	</g>
	<g>
		<g>
			<g>
				<path fill="#565757" d="M61.595,640.4c0,6.08-4.927,11.006-11.006,11.006c-6.078,0-11.006-4.926-11.006-11.006
					c0-6.081,4.928-11.006,11.006-11.006C56.668,629.394,61.595,634.319,61.595,640.4z"/>
				<path fill="#565757" d="M252.223,640.4c0,6.08-4.927,11.006-11.006,11.006c-6.078,0-11.006-4.926-11.006-11.006
					c0-6.081,4.927-11.006,11.006-11.006C247.296,629.394,252.223,634.319,252.223,640.4z"/>
			</g>
			<g>
				<path fill="#D5D6D5" d="M261.121,627.248c0,1.143-1.075,2.067-2.4,2.067H33.085c-1.325,0-2.4-0.925-2.4-2.067V398.957
					c0-1.143,1.075-2.067,2.4-2.067h225.636c1.325,0,2.4,0.925,2.4,2.067V627.248z"/>
				<g>
					<rect x="35.48" y="516.102" fill="#F0EFEF" width="220.847" height="49.838"/>
					<rect x="35.48" y="556.524" fill="#BCBCBC" width="220.847" height="1.659"/>
					<rect x="118.897" y="544.757" fill="#BCBCBC" width="54.012" height="12.043"/>
					<rect x="118.897" y="552.234" fill="#A1A2A3" width="54.012" height="4.565"/>
				</g>
				<g>
					<rect x="35.48" y="570.283" fill="#F0EFEF" width="220.847" height="49.838"/>
					<rect x="35.48" y="610.705" fill="#BCBCBC" width="220.847" height="1.662"/>
					<rect x="118.897" y="598.938" fill="#BCBCBC" width="54.012" height="12.044"/>
					<rect x="118.897" y="606.416" fill="#A1A2A3" width="54.012" height="4.566"/>
				</g>
				<g>
					<rect x="35.48" y="461.92" fill="#F0EFEF" width="220.847" height="49.837"/>
					<rect x="35.48" y="502.344" fill="#BCBCBC" width="220.847" height="1.66"/>
					<rect x="118.897" y="490.576" fill="#BCBCBC" width="54.012" height="12.045"/>
					<rect x="118.897" y="498.051" fill="#A1A2A3" width="54.012" height="4.57"/>
				</g>
				<g>
					<rect x="35.48" y="407.739" fill="#F0EFEF" width="220.847" height="49.835"/>
					<rect x="35.48" y="448.161" fill="#BCBCBC" width="220.847" height="1.664"/>
					<rect x="118.897" y="436.392" fill="#BCBCBC" width="54.012" height="12.048"/>
					<rect x="118.897" y="443.869" fill="#A1A2A3" width="54.012" height="4.57"/>
				</g>
				<rect x="25.879" y="620.951" fill="#898989" width="240.05" height="15.506"/>
			</g>
			<rect x="22.216" y="389.075" fill="#898989" width="245.084" height="12.939"/>
		</g>
		<ellipse opacity="0.1" cx="147.273" cy="652.486" rx="83.371" ry="3.236"/>
	</g>
	<g>
		<rect x="107.153" y="314.783" fill="#666667" width="89.157" height="26.079"/>
		<rect x="112.569" y="310.844" fill="#333333" width="78.661" height="15.908"/>
		<g>
			<path fill="#666667" d="M218.647,386.454c0,2.043-1.655,3.695-3.695,3.695H89.099c-2.041,0-3.695-1.652-3.695-3.695v-57.258
				c0-2.041,1.654-3.695,3.695-3.695h125.853c2.041,0,3.695,1.654,3.695,3.695V386.454z"/>
			<path fill="#4D4E4E" d="M191.378,357.828h-78.704c-2.041,0-3.695,1.654-3.695,3.695v28.626h86.093v-28.626
				C195.072,359.482,193.419,357.828,191.378,357.828z"/>
			<path fill="#666667" d="M182.029,376.76h-60.007c-1.555,0-2.817,1.262-2.817,2.819v9.504h65.639v-9.504
				C184.845,378.022,183.585,376.76,182.029,376.76z"/>
			<rect x="121.116" y="374.229" fill="#4D4E4E" width="60.958" height="17.131"/>
			<rect x="121.116" y="374.229" fill="#989897" width="60.958" height="12.851"/>
			<rect x="132.89" y="326.752" fill="#333333" width="36.944" height="11.494"/>
			<rect x="137.507" y="328.187" fill="#666667" width="27.709" height="3.566"/>
			<rect x="92.558" y="328.188" fill="#DFE0E0" width="10.947" height="1.025"/>
		</g>
		<rect x="125.149" y="282.104" fill="#CCCDCE" width="54.889" height="43.397"/>
		<rect x="125.149" y="318.797" fill="#B2B4B5" width="54.889" height="6.704"/>
	</g>
</g>
</svg>
