<!-- Generator: Adobe Illustrator 17.0.0, SVG Export Plug-In  -->
<svg version="1.1"
	 xmlns="http://www.w3.org/2000/svg" xmlns:xlink="http://www.w3.org/1999/xlink" xmlns:a="http://ns.adobe.com/AdobeSVGViewerExtensions/3.0/"
	 x="0px" y="0px" width="393.834px" height="224.925px" viewBox="0 0 393.834 224.925" enable-background="new 0 0 393.834 224.925"
	 xml:space="preserve">
<defs>
</defs>
<g>
	<g>
		<g>
			<path fill="#FFFFFF" d="M12.929,164.714h-2.83l-1.125-2.927h-5.15l-1.063,2.927H0l5.019-12.885H7.77L12.929,164.714z
				 M8.139,159.616l-1.775-4.781l-1.74,4.781H8.139z"/>
			<path fill="#FFFFFF" d="M45.877,158.14l-2.435,0.439c-0.082-0.486-0.268-0.853-0.559-1.099c-0.289-0.246-0.666-0.369-1.129-0.369
				c-0.615,0-1.106,0.213-1.473,0.638s-0.549,1.135-0.549,2.131c0,1.107,0.186,1.89,0.559,2.347
				c0.371,0.457,0.871,0.686,1.498,0.686c0.469,0,0.853-0.133,1.151-0.399s0.51-0.726,0.633-1.376L46,161.55
				c-0.252,1.113-0.735,1.954-1.45,2.522s-1.673,0.853-2.874,0.853c-1.365,0-2.454-0.431-3.265-1.292
				c-0.813-0.861-1.218-2.054-1.218-3.577c0-1.541,0.407-2.74,1.222-3.6c0.814-0.857,1.916-1.287,3.305-1.287
				c1.137,0,2.04,0.245,2.711,0.734S45.584,157.138,45.877,158.14z"/>
			<path fill="#FFFFFF" d="M47.178,159.915c0-0.82,0.202-1.614,0.606-2.382s0.977-1.354,1.718-1.758s1.569-0.606,2.483-0.606
				c1.412,0,2.569,0.459,3.472,1.375c0.902,0.918,1.354,2.076,1.354,3.477c0,1.412-0.456,2.583-1.367,3.512s-2.058,1.393-3.44,1.393
				c-0.855,0-1.672-0.193-2.448-0.58s-1.366-0.953-1.771-1.701C47.38,161.897,47.178,160.987,47.178,159.915z M49.709,160.047
				c0,0.926,0.22,1.635,0.659,2.127s0.981,0.738,1.626,0.738s1.185-0.246,1.621-0.738s0.655-1.207,0.655-2.145
				c0-0.914-0.219-1.617-0.655-2.109s-0.977-0.738-1.621-0.738s-1.187,0.246-1.626,0.738S49.709,159.121,49.709,160.047z"/>
			<path fill="#FFFFFF" d="M67.234,164.714h-2.47v-4.764c0-1.008-0.053-1.659-0.158-1.955s-0.277-0.526-0.514-0.69
				c-0.238-0.164-0.523-0.246-0.857-0.246c-0.428,0-0.812,0.117-1.151,0.352s-0.573,0.545-0.698,0.932
				c-0.127,0.387-0.189,1.102-0.189,2.145v4.228h-2.47v-9.334h2.294v1.371c0.814-1.055,1.84-1.582,3.076-1.582
				c0.545,0,1.043,0.099,1.494,0.295s0.792,0.446,1.023,0.751s0.393,0.65,0.484,1.037c0.09,0.387,0.136,0.94,0.136,1.661V164.714z"
				/>
			<path fill="#FFFFFF" d="M74.02,155.38v1.969h-1.688v3.762c0,0.762,0.016,1.206,0.049,1.332c0.031,0.126,0.105,0.229,0.219,0.312
				c0.115,0.082,0.254,0.123,0.418,0.123c0.229,0,0.56-0.079,0.993-0.237l0.211,1.916c-0.574,0.246-1.225,0.369-1.951,0.369
				c-0.445,0-0.847-0.074-1.204-0.225c-0.357-0.148-0.619-0.342-0.787-0.58c-0.166-0.236-0.282-0.558-0.347-0.962
				c-0.053-0.287-0.079-0.867-0.079-1.74v-4.069H68.72v-1.969h1.134v-1.854l2.479-1.441v3.296H74.02z"/>
			<path fill="#FFFFFF" d="M75.733,154.114v-2.285h2.47v2.285H75.733z M75.733,164.714v-9.334h2.47v9.334H75.733z"/>
			<path fill="#FFFFFF" d="M89.225,164.714h-2.47v-4.764c0-1.008-0.053-1.659-0.158-1.955s-0.277-0.526-0.514-0.69
				c-0.238-0.164-0.523-0.246-0.857-0.246c-0.428,0-0.812,0.117-1.151,0.352s-0.573,0.545-0.698,0.932
				c-0.127,0.387-0.189,1.102-0.189,2.145v4.228h-2.47v-9.334h2.294v1.371c0.814-1.055,1.84-1.582,3.076-1.582
				c0.545,0,1.043,0.099,1.494,0.295s0.792,0.446,1.023,0.751s0.393,0.65,0.484,1.037c0.09,0.387,0.136,0.94,0.136,1.661V164.714z"
				/>
			<path fill="#FFFFFF" d="M97.873,164.714v-1.397c-0.34,0.498-0.787,0.891-1.34,1.178c-0.555,0.287-1.139,0.431-1.754,0.431
				c-0.627,0-1.189-0.138-1.688-0.413s-0.858-0.662-1.081-1.16s-0.334-1.187-0.334-2.065v-5.906h2.47v4.289
				c0,1.313,0.045,2.117,0.137,2.412c0.09,0.297,0.256,0.531,0.496,0.703c0.24,0.174,0.545,0.26,0.914,0.26
				c0.422,0,0.8-0.115,1.134-0.348c0.334-0.23,0.563-0.518,0.686-0.861c0.123-0.342,0.185-1.182,0.185-2.518v-3.938h2.47v9.334
				H97.873z"/>
			<path fill="#FFFFFF" d="M104.57,158.228l-2.241-0.404c0.252-0.902,0.686-1.57,1.301-2.004s1.529-0.65,2.742-0.65
				c1.102,0,1.922,0.131,2.461,0.391c0.539,0.262,0.918,0.593,1.139,0.994c0.219,0.401,0.329,1.138,0.329,2.21l-0.026,2.883
				c0,0.82,0.039,1.426,0.119,1.815c0.078,0.39,0.227,0.807,0.443,1.252h-2.443c-0.064-0.164-0.144-0.407-0.237-0.729
				c-0.041-0.146-0.07-0.243-0.088-0.29c-0.422,0.41-0.873,0.718-1.354,0.923s-0.993,0.308-1.538,0.308
				c-0.961,0-1.719-0.261-2.271-0.782c-0.555-0.521-0.831-1.181-0.831-1.978c0-0.527,0.126-0.998,0.378-1.41
				c0.252-0.414,0.604-0.73,1.059-0.949c0.454-0.221,1.109-0.412,1.965-0.576c1.154-0.217,1.954-0.419,2.399-0.606v-0.246
				c0-0.475-0.117-0.813-0.352-1.015c-0.234-0.203-0.677-0.304-1.327-0.304c-0.439,0-0.782,0.087-1.028,0.259
				C104.922,157.491,104.723,157.794,104.57,158.228z M107.875,160.231c-0.316,0.105-0.817,0.231-1.503,0.378
				s-1.134,0.29-1.345,0.431c-0.322,0.229-0.483,0.519-0.483,0.87c0,0.346,0.129,0.645,0.387,0.896s0.586,0.378,0.984,0.378
				c0.445,0,0.87-0.146,1.274-0.439c0.299-0.223,0.495-0.495,0.589-0.817c0.064-0.211,0.097-0.612,0.097-1.204V160.231z"/>
			<path fill="#FFFFFF" d="M120.874,158.14l-2.435,0.439c-0.082-0.486-0.268-0.853-0.559-1.099
				c-0.289-0.246-0.666-0.369-1.129-0.369c-0.615,0-1.106,0.213-1.473,0.638s-0.549,1.135-0.549,2.131
				c0,1.107,0.186,1.89,0.559,2.347c0.371,0.457,0.871,0.686,1.498,0.686c0.469,0,0.853-0.133,1.151-0.399s0.51-0.726,0.633-1.376
				l2.426,0.413c-0.252,1.113-0.735,1.954-1.45,2.522s-1.673,0.853-2.874,0.853c-1.365,0-2.454-0.431-3.265-1.292
				c-0.813-0.861-1.218-2.054-1.218-3.577c0-1.541,0.407-2.74,1.222-3.6c0.814-0.857,1.916-1.287,3.305-1.287
				c1.137,0,2.04,0.245,2.711,0.734S120.581,157.138,120.874,158.14z"/>
			<path fill="#FFFFFF" d="M122.746,154.114v-2.285h2.47v2.285H122.746z M122.746,164.714v-9.334h2.47v9.334H122.746z"/>
			<path fill="#FFFFFF" d="M127.176,159.915c0-0.82,0.202-1.614,0.606-2.382s0.977-1.354,1.718-1.758s1.569-0.606,2.483-0.606
				c1.412,0,2.569,0.459,3.472,1.375c0.902,0.918,1.354,2.076,1.354,3.477c0,1.412-0.456,2.583-1.367,3.512s-2.058,1.393-3.44,1.393
				c-0.855,0-1.672-0.193-2.448-0.58s-1.366-0.953-1.771-1.701C127.378,161.897,127.176,160.987,127.176,159.915z M129.707,160.047
				c0,0.926,0.22,1.635,0.659,2.127s0.981,0.738,1.626,0.738s1.185-0.246,1.621-0.738s0.655-1.207,0.655-2.145
				c0-0.914-0.219-1.617-0.655-2.109s-0.977-0.738-1.621-0.738s-1.187,0.246-1.626,0.738S129.707,159.121,129.707,160.047z
				 M130.744,154.237l1.213-2.628h2.769l-2.417,2.628H130.744z"/>
			<path fill="#FFFFFF" d="M147.232,164.714h-2.47v-4.764c0-1.008-0.053-1.659-0.158-1.955s-0.277-0.526-0.514-0.69
				c-0.238-0.164-0.523-0.246-0.857-0.246c-0.428,0-0.812,0.117-1.151,0.352s-0.573,0.545-0.698,0.932
				c-0.127,0.387-0.189,1.102-0.189,2.145v4.228h-2.47v-9.334h2.294v1.371c0.814-1.055,1.84-1.582,3.076-1.582
				c0.545,0,1.043,0.099,1.494,0.295s0.792,0.446,1.023,0.751s0.393,0.65,0.484,1.037c0.09,0.387,0.136,0.94,0.136,1.661V164.714z"
				/>
			<path fill="#FFFFFF" d="M179.258,161.743l2.461,0.413c-0.316,0.902-0.816,1.59-1.498,2.062c-0.684,0.472-1.537,0.707-2.563,0.707
				c-1.623,0-2.824-0.53-3.604-1.591c-0.615-0.85-0.923-1.922-0.923-3.217c0-1.547,0.404-2.758,1.213-3.634s1.831-1.314,3.067-1.314
				c1.389,0,2.484,0.459,3.287,1.375c0.803,0.918,1.187,2.322,1.151,4.215h-6.188c0.018,0.732,0.217,1.303,0.598,1.709
				c0.381,0.408,0.855,0.611,1.424,0.611c0.387,0,0.712-0.105,0.976-0.316S179.123,162.212,179.258,161.743z M179.398,159.247
				c-0.018-0.715-0.202-1.258-0.554-1.631c-0.352-0.371-0.779-0.558-1.283-0.558c-0.539,0-0.984,0.196-1.336,0.589
				s-0.524,0.926-0.519,1.6H179.398z"/>
			<path fill="#FFFFFF" d="M183.863,164.714v-12.885h2.47v12.885H183.863z"/>
			<path fill="#FFFFFF" d="M221.541,164.714h-2.294v-1.371c-0.381,0.533-0.83,0.931-1.35,1.191c-0.518,0.26-1.041,0.391-1.568,0.391
				c-1.072,0-1.99-0.432-2.756-1.297c-0.764-0.863-1.146-2.069-1.146-3.616c0-1.582,0.372-2.784,1.116-3.608
				c0.744-0.822,1.685-1.234,2.821-1.234c1.043,0,1.945,0.434,2.707,1.301v-4.641h2.47V164.714z M214.949,159.845
				c0,0.996,0.138,1.717,0.413,2.162c0.398,0.645,0.955,0.967,1.67,0.967c0.568,0,1.052-0.242,1.45-0.725
				c0.398-0.484,0.598-1.206,0.598-2.167c0-1.072-0.193-1.844-0.58-2.315s-0.882-0.708-1.485-0.708
				c-0.586,0-1.076,0.233-1.473,0.698C215.147,158.224,214.949,158.919,214.949,159.845z"/>
			<path fill="#FFFFFF" d="M223.976,154.114v-2.285h2.47v2.285H223.976z M223.976,164.714v-9.334h2.47v9.334H223.976z"/>
			<path fill="#FFFFFF" d="M230.822,158.228l-2.241-0.404c0.252-0.902,0.686-1.57,1.301-2.004s1.529-0.65,2.742-0.65
				c1.102,0,1.922,0.131,2.461,0.391c0.539,0.262,0.918,0.593,1.139,0.994c0.219,0.401,0.329,1.138,0.329,2.21l-0.026,2.883
				c0,0.82,0.039,1.426,0.119,1.815c0.078,0.39,0.227,0.807,0.443,1.252h-2.443c-0.064-0.164-0.144-0.407-0.237-0.729
				c-0.041-0.146-0.07-0.243-0.088-0.29c-0.422,0.41-0.873,0.718-1.354,0.923s-0.993,0.308-1.538,0.308
				c-0.961,0-1.719-0.261-2.271-0.782c-0.555-0.521-0.831-1.181-0.831-1.978c0-0.527,0.126-0.998,0.378-1.41
				c0.252-0.414,0.604-0.73,1.059-0.949c0.454-0.221,1.109-0.412,1.965-0.576c1.154-0.217,1.954-0.419,2.399-0.606v-0.246
				c0-0.475-0.117-0.813-0.352-1.015c-0.234-0.203-0.677-0.304-1.327-0.304c-0.439,0-0.782,0.087-1.028,0.259
				C231.174,157.491,230.975,157.794,230.822,158.228z M234.127,160.231c-0.316,0.105-0.817,0.231-1.503,0.378
				s-1.134,0.29-1.345,0.431c-0.322,0.229-0.483,0.519-0.483,0.87c0,0.346,0.129,0.645,0.387,0.896s0.586,0.378,0.984,0.378
				c0.445,0,0.87-0.146,1.274-0.439c0.299-0.223,0.495-0.495,0.589-0.817c0.064-0.211,0.097-0.612,0.097-1.204V160.231z
				 M231.455,154.237l1.213-2.628h2.769l-2.417,2.628H231.455z"/>
			<path fill="#FFFFFF" d="M238.987,164.714v-12.885h2.47v12.885H238.987z"/>
			<path fill="#FFFFFF" d="M243.417,159.915c0-0.82,0.202-1.614,0.606-2.382s0.977-1.354,1.718-1.758s1.569-0.606,2.483-0.606
				c1.412,0,2.569,0.459,3.472,1.375c0.902,0.918,1.354,2.076,1.354,3.477c0,1.412-0.456,2.583-1.367,3.512s-2.058,1.393-3.44,1.393
				c-0.855,0-1.672-0.193-2.448-0.58s-1.366-0.953-1.771-1.701C243.619,161.897,243.417,160.987,243.417,159.915z M245.948,160.047
				c0,0.926,0.22,1.635,0.659,2.127s0.981,0.738,1.626,0.738s1.185-0.246,1.621-0.738s0.655-1.207,0.655-2.145
				c0-0.914-0.219-1.617-0.655-2.109s-0.977-0.738-1.621-0.738s-1.187,0.246-1.626,0.738S245.948,159.121,245.948,160.047z"/>
			<path fill="#FFFFFF" d="M254.755,165.329l2.821,0.343c0.047,0.328,0.155,0.554,0.325,0.677c0.234,0.176,0.604,0.264,1.107,0.264
				c0.645,0,1.128-0.097,1.45-0.29c0.217-0.129,0.381-0.337,0.492-0.624c0.076-0.205,0.114-0.583,0.114-1.134v-1.362
				c-0.738,1.008-1.67,1.512-2.795,1.512c-1.254,0-2.247-0.53-2.979-1.591c-0.574-0.838-0.861-1.881-0.861-3.129
				c0-1.564,0.376-2.76,1.129-3.586s1.689-1.239,2.809-1.239c1.154,0,2.106,0.507,2.856,1.521v-1.31h2.312v8.376
				c0,1.102-0.091,1.925-0.272,2.47s-0.437,0.973-0.765,1.283s-0.767,0.554-1.314,0.729s-1.24,0.264-2.078,0.264
				c-1.582,0-2.704-0.271-3.366-0.813s-0.993-1.229-0.993-2.061C254.746,165.546,254.749,165.446,254.755,165.329z M256.961,159.854
				c0,0.99,0.191,1.716,0.576,2.175c0.383,0.461,0.856,0.69,1.419,0.69c0.604,0,1.113-0.235,1.529-0.708
				c0.416-0.471,0.624-1.17,0.624-2.096c0-0.967-0.199-1.685-0.598-2.153s-0.902-0.703-1.512-0.703c-0.592,0-1.08,0.23-1.463,0.69
				C257.152,158.209,256.961,158.91,256.961,159.854z"/>
			<path fill="#FFFFFF" d="M265.407,159.915c0-0.82,0.202-1.614,0.606-2.382s0.977-1.354,1.718-1.758s1.569-0.606,2.483-0.606
				c1.412,0,2.569,0.459,3.472,1.375c0.902,0.918,1.354,2.076,1.354,3.477c0,1.412-0.456,2.583-1.367,3.512s-2.058,1.393-3.44,1.393
				c-0.855,0-1.672-0.193-2.448-0.58s-1.366-0.953-1.771-1.701C265.609,161.897,265.407,160.987,265.407,159.915z M267.938,160.047
				c0,0.926,0.22,1.635,0.659,2.127s0.981,0.738,1.626,0.738s1.185-0.246,1.621-0.738s0.655-1.207,0.655-2.145
				c0-0.914-0.219-1.617-0.655-2.109s-0.977-0.738-1.621-0.738s-1.187,0.246-1.626,0.738S267.938,159.121,267.938,160.047z"/>
			<path fill="#FFFFFF" d="M306.494,161.743l2.461,0.413c-0.316,0.902-0.816,1.59-1.498,2.062c-0.684,0.472-1.537,0.707-2.563,0.707
				c-1.623,0-2.824-0.53-3.604-1.591c-0.615-0.85-0.923-1.922-0.923-3.217c0-1.547,0.404-2.758,1.213-3.634s1.831-1.314,3.067-1.314
				c1.389,0,2.484,0.459,3.287,1.375c0.803,0.918,1.187,2.322,1.151,4.215h-6.188c0.018,0.732,0.217,1.303,0.598,1.709
				c0.381,0.408,0.855,0.611,1.424,0.611c0.387,0,0.712-0.105,0.976-0.316S306.359,162.212,306.494,161.743z M306.635,159.247
				c-0.018-0.715-0.202-1.258-0.554-1.631c-0.352-0.371-0.779-0.558-1.283-0.558c-0.539,0-0.984,0.196-1.336,0.589
				s-0.524,0.926-0.519,1.6H306.635z"/>
			<path fill="#FFFFFF" d="M319.59,164.714h-2.47v-4.764c0-1.008-0.053-1.659-0.158-1.955s-0.277-0.526-0.514-0.69
				c-0.238-0.164-0.523-0.246-0.857-0.246c-0.428,0-0.812,0.117-1.151,0.352s-0.573,0.545-0.698,0.932
				c-0.127,0.387-0.189,1.102-0.189,2.145v4.228h-2.47v-9.334h2.294v1.371c0.814-1.055,1.84-1.582,3.076-1.582
				c0.545,0,1.043,0.099,1.494,0.295s0.792,0.446,1.023,0.751s0.393,0.65,0.484,1.037c0.09,0.387,0.136,0.94,0.136,1.661V164.714z"
				/>
			<path fill="#FFFFFF" d="M326.375,155.38v1.969h-1.688v3.762c0,0.762,0.016,1.206,0.049,1.332
				c0.031,0.126,0.105,0.229,0.219,0.312c0.115,0.082,0.254,0.123,0.418,0.123c0.229,0,0.56-0.079,0.993-0.237l0.211,1.916
				c-0.574,0.246-1.225,0.369-1.951,0.369c-0.445,0-0.847-0.074-1.204-0.225c-0.357-0.148-0.619-0.342-0.787-0.58
				c-0.166-0.236-0.282-0.558-0.347-0.962c-0.053-0.287-0.079-0.867-0.079-1.74v-4.069h-1.134v-1.969h1.134v-1.854l2.479-1.441
				v3.296H326.375z"/>
			<path fill="#FFFFFF" d="M330.453,164.714h-2.47v-9.334h2.294v1.327c0.393-0.627,0.745-1.04,1.059-1.239s0.67-0.299,1.068-0.299
				c0.563,0,1.104,0.155,1.626,0.466l-0.765,2.153c-0.416-0.27-0.803-0.404-1.16-0.404c-0.346,0-0.639,0.096-0.879,0.285
				c-0.24,0.191-0.43,0.535-0.566,1.033c-0.139,0.498-0.207,1.541-0.207,3.129V164.714z"/>
			<path fill="#FFFFFF" d="M340.499,161.743l2.461,0.413c-0.316,0.902-0.816,1.59-1.498,2.062c-0.684,0.472-1.537,0.707-2.563,0.707
				c-1.623,0-2.824-0.53-3.604-1.591c-0.615-0.85-0.923-1.922-0.923-3.217c0-1.547,0.404-2.758,1.213-3.634s1.831-1.314,3.067-1.314
				c1.389,0,2.484,0.459,3.287,1.375c0.803,0.918,1.187,2.322,1.151,4.215h-6.188c0.018,0.732,0.217,1.303,0.598,1.709
				c0.381,0.408,0.855,0.611,1.424,0.611c0.387,0,0.712-0.105,0.976-0.316S340.364,162.212,340.499,161.743z M340.64,159.247
				c-0.018-0.715-0.202-1.258-0.554-1.631c-0.352-0.371-0.779-0.558-1.283-0.558c-0.539,0-0.984,0.196-1.336,0.589
				s-0.524,0.926-0.519,1.6H340.64z"/>
			<path fill="#FFFFFF" d="M375.363,164.714v-1.397c-0.34,0.498-0.787,0.891-1.34,1.178c-0.555,0.287-1.139,0.431-1.754,0.431
				c-0.627,0-1.189-0.138-1.688-0.413s-0.858-0.662-1.081-1.16s-0.334-1.187-0.334-2.065v-5.906h2.47v4.289
				c0,1.313,0.045,2.117,0.137,2.412c0.09,0.297,0.256,0.531,0.496,0.703c0.24,0.174,0.545,0.26,0.914,0.26
				c0.422,0,0.8-0.115,1.134-0.348c0.334-0.23,0.563-0.518,0.686-0.861c0.123-0.342,0.185-1.182,0.185-2.518v-3.938h2.47v9.334
				H375.363z"/>
			<path fill="#FFFFFF" d="M388.705,164.714h-2.47v-4.764c0-1.008-0.053-1.659-0.158-1.955s-0.277-0.526-0.514-0.69
				c-0.238-0.164-0.523-0.246-0.857-0.246c-0.428,0-0.812,0.117-1.151,0.352s-0.573,0.545-0.698,0.932
				c-0.127,0.387-0.189,1.102-0.189,2.145v4.228h-2.47v-9.334h2.294v1.371c0.814-1.055,1.84-1.582,3.076-1.582
				c0.545,0,1.043,0.099,1.494,0.295s0.792,0.446,1.023,0.751s0.393,0.65,0.484,1.037c0.09,0.387,0.136,0.94,0.136,1.661V164.714z"
				/>
			<path fill="#FFFFFF" d="M9.853,184.714H7.559v-1.371c-0.381,0.533-0.83,0.931-1.35,1.191c-0.518,0.26-1.041,0.391-1.568,0.391
				c-1.072,0-1.99-0.432-2.756-1.297c-0.764-0.863-1.146-2.069-1.146-3.616c0-1.582,0.372-2.784,1.116-3.608
				c0.744-0.822,1.685-1.234,2.821-1.234c1.043,0,1.945,0.434,2.707,1.301v-4.641h2.47V184.714z M3.261,179.845
				c0,0.996,0.138,1.717,0.413,2.162c0.398,0.645,0.955,0.967,1.67,0.967c0.568,0,1.052-0.242,1.45-0.725
				c0.398-0.484,0.598-1.206,0.598-2.167c0-1.072-0.193-1.844-0.58-2.315s-0.882-0.708-1.485-0.708
				c-0.586,0-1.076,0.233-1.473,0.698C3.459,178.224,3.261,178.919,3.261,179.845z"/>
			<path fill="#FFFFFF" d="M17.692,181.743l2.461,0.413c-0.316,0.902-0.816,1.59-1.498,2.062c-0.684,0.472-1.537,0.707-2.563,0.707
				c-1.623,0-2.824-0.53-3.604-1.591c-0.615-0.85-0.923-1.922-0.923-3.217c0-1.547,0.404-2.758,1.213-3.634s1.831-1.314,3.067-1.314
				c1.389,0,2.484,0.459,3.287,1.375c0.803,0.918,1.187,2.322,1.151,4.215h-6.188c0.018,0.732,0.217,1.303,0.598,1.709
				c0.381,0.408,0.855,0.611,1.424,0.611c0.387,0,0.712-0.105,0.976-0.316S17.558,182.212,17.692,181.743z M17.833,179.247
				c-0.018-0.715-0.202-1.258-0.554-1.631c-0.352-0.371-0.779-0.558-1.283-0.558c-0.539,0-0.984,0.196-1.336,0.589
				s-0.524,0.926-0.519,1.6H17.833z"/>
			<path fill="#FFFFFF" d="M21.428,182.051l2.479-0.378c0.105,0.48,0.319,0.846,0.642,1.094c0.322,0.25,0.773,0.374,1.354,0.374
				c0.639,0,1.119-0.117,1.441-0.352c0.217-0.164,0.325-0.384,0.325-0.659c0-0.188-0.059-0.343-0.176-0.466
				c-0.123-0.117-0.398-0.226-0.826-0.325c-1.992-0.439-3.255-0.841-3.788-1.204c-0.738-0.504-1.107-1.204-1.107-2.101
				c0-0.809,0.319-1.488,0.958-2.039s1.629-0.826,2.971-0.826c1.277,0,2.227,0.208,2.848,0.624s1.049,1.031,1.283,1.846
				l-2.329,0.431c-0.1-0.363-0.289-0.642-0.567-0.835s-0.675-0.29-1.19-0.29c-0.65,0-1.116,0.091-1.397,0.272
				c-0.188,0.129-0.281,0.296-0.281,0.501c0,0.176,0.082,0.325,0.246,0.448c0.223,0.164,0.991,0.396,2.307,0.694
				s2.234,0.665,2.756,1.099c0.516,0.439,0.773,1.052,0.773,1.837c0,0.855-0.357,1.591-1.072,2.206s-1.772,0.923-3.173,0.923
				c-1.271,0-2.278-0.258-3.019-0.773C22.141,183.636,21.656,182.936,21.428,182.051z"/>
			<path fill="#FFFFFF" d="M34.154,178.228l-2.241-0.404c0.252-0.902,0.686-1.57,1.301-2.004s1.529-0.65,2.742-0.65
				c1.102,0,1.922,0.131,2.461,0.391c0.539,0.262,0.918,0.593,1.139,0.994c0.219,0.401,0.329,1.138,0.329,2.21l-0.026,2.883
				c0,0.82,0.039,1.426,0.119,1.815c0.078,0.39,0.227,0.807,0.443,1.252h-2.443c-0.064-0.164-0.144-0.407-0.237-0.729
				c-0.041-0.146-0.07-0.243-0.088-0.29c-0.422,0.41-0.873,0.718-1.354,0.923s-0.993,0.308-1.538,0.308
				c-0.961,0-1.719-0.261-2.271-0.782c-0.555-0.521-0.831-1.181-0.831-1.978c0-0.527,0.126-0.998,0.378-1.41
				c0.252-0.414,0.604-0.73,1.059-0.949c0.454-0.221,1.109-0.412,1.965-0.576c1.154-0.217,1.954-0.419,2.399-0.606v-0.246
				c0-0.475-0.117-0.813-0.352-1.015c-0.234-0.203-0.677-0.304-1.327-0.304c-0.439,0-0.782,0.087-1.028,0.259
				C34.506,177.491,34.307,177.794,34.154,178.228z M37.459,180.231c-0.316,0.105-0.817,0.231-1.503,0.378s-1.134,0.29-1.345,0.431
				c-0.322,0.229-0.483,0.519-0.483,0.87c0,0.346,0.129,0.645,0.387,0.896s0.586,0.378,0.984,0.378c0.445,0,0.87-0.146,1.274-0.439
				c0.299-0.223,0.495-0.495,0.589-0.817c0.064-0.211,0.097-0.612,0.097-1.204V180.231z"/>
			<path fill="#FFFFFF" d="M44.684,184.714h-2.47v-9.334h2.294v1.327c0.393-0.627,0.745-1.04,1.059-1.239s0.67-0.299,1.068-0.299
				c0.563,0,1.104,0.155,1.626,0.466l-0.765,2.153c-0.416-0.27-0.803-0.404-1.16-0.404c-0.346,0-0.639,0.096-0.879,0.285
				c-0.24,0.191-0.43,0.535-0.566,1.033c-0.139,0.498-0.207,1.541-0.207,3.129V184.714z"/>
			<path fill="#FFFFFF" d="M51.688,184.714h-2.47v-9.334h2.294v1.327c0.393-0.627,0.745-1.04,1.059-1.239s0.67-0.299,1.068-0.299
				c0.563,0,1.104,0.155,1.626,0.466l-0.765,2.153c-0.416-0.27-0.803-0.404-1.16-0.404c-0.346,0-0.639,0.096-0.879,0.285
				c-0.24,0.191-0.43,0.535-0.566,1.033c-0.139,0.498-0.207,1.541-0.207,3.129V184.714z"/>
			<path fill="#FFFFFF" d="M55.758,179.915c0-0.82,0.202-1.614,0.606-2.382s0.977-1.354,1.718-1.758s1.569-0.606,2.483-0.606
				c1.412,0,2.569,0.459,3.472,1.375c0.902,0.918,1.354,2.076,1.354,3.477c0,1.412-0.456,2.583-1.367,3.512s-2.058,1.393-3.44,1.393
				c-0.855,0-1.672-0.193-2.448-0.58s-1.366-0.953-1.771-1.701C55.96,181.897,55.758,180.987,55.758,179.915z M58.289,180.047
				c0,0.926,0.22,1.635,0.659,2.127s0.981,0.738,1.626,0.738s1.185-0.246,1.621-0.738s0.655-1.207,0.655-2.145
				c0-0.914-0.219-1.617-0.655-2.109s-0.977-0.738-1.621-0.738s-1.187,0.246-1.626,0.738S58.289,179.121,58.289,180.047z"/>
			<path fill="#FFFFFF" d="M67.324,184.714v-12.885h2.47v12.885H67.324z"/>
			<path fill="#FFFFFF" d="M72.325,184.714v-12.885h2.47v12.885H72.325z"/>
			<path fill="#FFFFFF" d="M79.172,178.228l-2.241-0.404c0.252-0.902,0.686-1.57,1.301-2.004s1.529-0.65,2.742-0.65
				c1.102,0,1.922,0.131,2.461,0.391c0.539,0.262,0.918,0.593,1.139,0.994c0.219,0.401,0.329,1.138,0.329,2.21l-0.026,2.883
				c0,0.82,0.039,1.426,0.119,1.815c0.078,0.39,0.227,0.807,0.443,1.252h-2.443c-0.064-0.164-0.144-0.407-0.237-0.729
				c-0.041-0.146-0.07-0.243-0.088-0.29c-0.422,0.41-0.873,0.718-1.354,0.923s-0.993,0.308-1.538,0.308
				c-0.961,0-1.719-0.261-2.271-0.782c-0.555-0.521-0.831-1.181-0.831-1.978c0-0.527,0.126-0.998,0.378-1.41
				c0.252-0.414,0.604-0.73,1.059-0.949c0.454-0.221,1.109-0.412,1.965-0.576c1.154-0.217,1.954-0.419,2.399-0.606v-0.246
				c0-0.475-0.117-0.813-0.352-1.015c-0.234-0.203-0.677-0.304-1.327-0.304c-0.439,0-0.782,0.087-1.028,0.259
				C79.523,177.491,79.324,177.794,79.172,178.228z M82.477,180.231c-0.316,0.105-0.817,0.231-1.503,0.378s-1.134,0.29-1.345,0.431
				c-0.322,0.229-0.483,0.519-0.483,0.87c0,0.346,0.129,0.645,0.387,0.896s0.586,0.378,0.984,0.378c0.445,0,0.87-0.146,1.274-0.439
				c0.299-0.223,0.495-0.495,0.589-0.817c0.064-0.211,0.097-0.612,0.097-1.204V180.231z"/>
			<path fill="#FFFFFF" d="M95.897,184.714h-2.294v-1.371c-0.381,0.533-0.83,0.931-1.35,1.191c-0.518,0.26-1.041,0.391-1.568,0.391
				c-1.072,0-1.99-0.432-2.756-1.297c-0.764-0.863-1.146-2.069-1.146-3.616c0-1.582,0.372-2.784,1.116-3.608
				c0.744-0.822,1.685-1.234,2.821-1.234c1.043,0,1.945,0.434,2.707,1.301v-4.641h2.47V184.714z M89.306,179.845
				c0,0.996,0.138,1.717,0.413,2.162c0.398,0.645,0.955,0.967,1.67,0.967c0.568,0,1.052-0.242,1.45-0.725
				c0.398-0.484,0.598-1.206,0.598-2.167c0-1.072-0.193-1.844-0.58-2.315s-0.882-0.708-1.485-0.708
				c-0.586,0-1.076,0.233-1.473,0.698C89.504,178.224,89.306,178.919,89.306,179.845z"/>
			<path fill="#FFFFFF" d="M97.761,179.915c0-0.82,0.202-1.614,0.606-2.382s0.977-1.354,1.718-1.758s1.569-0.606,2.483-0.606
				c1.412,0,2.569,0.459,3.472,1.375c0.902,0.918,1.354,2.076,1.354,3.477c0,1.412-0.456,2.583-1.367,3.512s-2.058,1.393-3.44,1.393
				c-0.855,0-1.672-0.193-2.448-0.58s-1.366-0.953-1.771-1.701C97.963,181.897,97.761,180.987,97.761,179.915z M100.292,180.047
				c0,0.926,0.22,1.635,0.659,2.127s0.981,0.738,1.626,0.738s1.185-0.246,1.621-0.738s0.655-1.207,0.655-2.145
				c0-0.914-0.219-1.617-0.655-2.109s-0.977-0.738-1.621-0.738s-1.187,0.246-1.626,0.738S100.292,179.121,100.292,180.047z"/>
			<path fill="#FFFFFF" d="M111.691,184.714h-2.47v-9.334h2.294v1.327c0.393-0.627,0.745-1.04,1.059-1.239s0.67-0.299,1.068-0.299
				c0.563,0,1.104,0.155,1.626,0.466l-0.765,2.153c-0.416-0.27-0.803-0.404-1.16-0.404c-0.346,0-0.639,0.096-0.879,0.285
				c-0.24,0.191-0.43,0.535-0.566,1.033c-0.139,0.498-0.207,1.541-0.207,3.129V184.714z"/>
			<path fill="#FFFFFF" d="M139.031,184.714h-2.294v-1.371c-0.381,0.533-0.83,0.931-1.35,1.191c-0.518,0.26-1.041,0.391-1.568,0.391
				c-1.072,0-1.99-0.432-2.756-1.297c-0.764-0.863-1.146-2.069-1.146-3.616c0-1.582,0.372-2.784,1.116-3.608
				c0.744-0.822,1.685-1.234,2.821-1.234c1.043,0,1.945,0.434,2.707,1.301v-4.641h2.47V184.714z M132.439,179.845
				c0,0.996,0.138,1.717,0.413,2.162c0.398,0.645,0.955,0.967,1.67,0.967c0.568,0,1.052-0.242,1.45-0.725
				c0.398-0.484,0.598-1.206,0.598-2.167c0-1.072-0.193-1.844-0.58-2.315s-0.882-0.708-1.485-0.708
				c-0.586,0-1.076,0.233-1.473,0.698C132.638,178.224,132.439,178.919,132.439,179.845z"/>
			<path fill="#FFFFFF" d="M146.871,181.743l2.461,0.413c-0.316,0.902-0.816,1.59-1.498,2.062c-0.684,0.472-1.537,0.707-2.563,0.707
				c-1.623,0-2.824-0.53-3.604-1.591c-0.615-0.85-0.923-1.922-0.923-3.217c0-1.547,0.404-2.758,1.213-3.634s1.831-1.314,3.067-1.314
				c1.389,0,2.484,0.459,3.287,1.375c0.803,0.918,1.187,2.322,1.151,4.215h-6.188c0.018,0.732,0.217,1.303,0.598,1.709
				c0.381,0.408,0.855,0.611,1.424,0.611c0.387,0,0.712-0.105,0.976-0.316S146.736,182.212,146.871,181.743z M147.012,179.247
				c-0.018-0.715-0.202-1.258-0.554-1.631c-0.352-0.371-0.779-0.558-1.283-0.558c-0.539,0-0.984,0.196-1.336,0.589
				s-0.524,0.926-0.519,1.6H147.012z"/>
			<path fill="#FFFFFF" d="M164.745,182.051l2.479-0.378c0.105,0.48,0.319,0.846,0.642,1.094c0.322,0.25,0.773,0.374,1.354,0.374
				c0.639,0,1.119-0.117,1.441-0.352c0.217-0.164,0.325-0.384,0.325-0.659c0-0.188-0.059-0.343-0.176-0.466
				c-0.123-0.117-0.398-0.226-0.826-0.325c-1.992-0.439-3.255-0.841-3.788-1.204c-0.738-0.504-1.107-1.204-1.107-2.101
				c0-0.809,0.319-1.488,0.958-2.039s1.629-0.826,2.971-0.826c1.277,0,2.227,0.208,2.848,0.624s1.049,1.031,1.283,1.846
				l-2.329,0.431c-0.1-0.363-0.289-0.642-0.567-0.835s-0.675-0.29-1.19-0.29c-0.65,0-1.116,0.091-1.397,0.272
				c-0.188,0.129-0.281,0.296-0.281,0.501c0,0.176,0.082,0.325,0.246,0.448c0.223,0.164,0.991,0.396,2.307,0.694
				s2.234,0.665,2.756,1.099c0.516,0.439,0.773,1.052,0.773,1.837c0,0.855-0.357,1.591-1.072,2.206s-1.772,0.923-3.173,0.923
				c-1.271,0-2.278-0.258-3.019-0.773C165.458,183.636,164.974,182.936,164.745,182.051z"/>
			<path fill="#FFFFFF" d="M175.055,179.915c0-0.82,0.202-1.614,0.606-2.382s0.977-1.354,1.718-1.758s1.569-0.606,2.483-0.606
				c1.412,0,2.569,0.459,3.472,1.375c0.902,0.918,1.354,2.076,1.354,3.477c0,1.412-0.456,2.583-1.367,3.512s-2.058,1.393-3.44,1.393
				c-0.855,0-1.672-0.193-2.448-0.58s-1.366-0.953-1.771-1.701C175.257,181.897,175.055,180.987,175.055,179.915z M177.586,180.047
				c0,0.926,0.22,1.635,0.659,2.127s0.981,0.738,1.626,0.738s1.185-0.246,1.621-0.738s0.655-1.207,0.655-2.145
				c0-0.914-0.219-1.617-0.655-2.109s-0.977-0.738-1.621-0.738s-1.187,0.246-1.626,0.738S177.586,179.121,177.586,180.047z"/>
			<path fill="#FFFFFF" d="M185.54,175.38h1.371v-0.703c0-0.785,0.084-1.371,0.25-1.758c0.168-0.387,0.475-0.701,0.924-0.945
				c0.447-0.242,1.015-0.364,1.7-0.364c0.703,0,1.392,0.105,2.065,0.316l-0.334,1.723c-0.393-0.094-0.771-0.141-1.134-0.141
				c-0.357,0-0.614,0.083-0.769,0.251c-0.156,0.166-0.233,0.487-0.233,0.962v0.659h1.846v1.942h-1.846v7.392h-2.47v-7.392h-1.371
				V175.38z"/>
			<path fill="#FFFFFF" d="M196.896,175.38v1.969h-1.688v3.762c0,0.762,0.016,1.206,0.049,1.332
				c0.031,0.126,0.105,0.229,0.219,0.312c0.115,0.082,0.254,0.123,0.418,0.123c0.229,0,0.56-0.079,0.993-0.237l0.211,1.916
				c-0.574,0.246-1.225,0.369-1.951,0.369c-0.445,0-0.847-0.074-1.204-0.225c-0.357-0.148-0.619-0.342-0.787-0.58
				c-0.166-0.236-0.282-0.558-0.347-0.962c-0.053-0.287-0.079-0.867-0.079-1.74v-4.069h-1.134v-1.969h1.134v-1.854l2.479-1.441
				v3.296H196.896z"/>
			<path fill="#FFFFFF" d="M200.35,184.714l-2.953-9.334h2.399l1.749,6.117l1.608-6.117h2.382l1.556,6.117l1.784-6.117h2.435
				l-2.997,9.334h-2.373l-1.608-6.003l-1.582,6.003H200.35z"/>
			<path fill="#FFFFFF" d="M214.456,178.228l-2.241-0.404c0.252-0.902,0.686-1.57,1.301-2.004s1.529-0.65,2.742-0.65
				c1.102,0,1.922,0.131,2.461,0.391c0.539,0.262,0.918,0.593,1.139,0.994c0.219,0.401,0.329,1.138,0.329,2.21l-0.026,2.883
				c0,0.82,0.039,1.426,0.119,1.815c0.078,0.39,0.227,0.807,0.443,1.252h-2.443c-0.064-0.164-0.144-0.407-0.237-0.729
				c-0.041-0.146-0.07-0.243-0.088-0.29c-0.422,0.41-0.873,0.718-1.354,0.923s-0.993,0.308-1.538,0.308
				c-0.961,0-1.719-0.261-2.271-0.782c-0.555-0.521-0.831-1.181-0.831-1.978c0-0.527,0.126-0.998,0.378-1.41
				c0.252-0.414,0.604-0.73,1.059-0.949c0.454-0.221,1.109-0.412,1.965-0.576c1.154-0.217,1.954-0.419,2.399-0.606v-0.246
				c0-0.475-0.117-0.813-0.352-1.015c-0.234-0.203-0.677-0.304-1.327-0.304c-0.439,0-0.782,0.087-1.028,0.259
				C214.808,177.491,214.608,177.794,214.456,178.228z M217.761,180.231c-0.316,0.105-0.817,0.231-1.503,0.378
				s-1.134,0.29-1.345,0.431c-0.322,0.229-0.483,0.519-0.483,0.87c0,0.346,0.129,0.645,0.387,0.896s0.586,0.378,0.984,0.378
				c0.445,0,0.87-0.146,1.274-0.439c0.299-0.223,0.495-0.495,0.589-0.817c0.064-0.211,0.097-0.612,0.097-1.204V180.231z"/>
			<path fill="#FFFFFF" d="M224.985,184.714h-2.47v-9.334h2.294v1.327c0.393-0.627,0.745-1.04,1.059-1.239s0.67-0.299,1.068-0.299
				c0.563,0,1.104,0.155,1.626,0.466l-0.765,2.153c-0.416-0.27-0.803-0.404-1.16-0.404c-0.346,0-0.639,0.096-0.879,0.285
				c-0.24,0.191-0.43,0.535-0.566,1.033c-0.139,0.498-0.207,1.541-0.207,3.129V184.714z"/>
			<path fill="#FFFFFF" d="M235.031,181.743l2.461,0.413c-0.316,0.902-0.816,1.59-1.498,2.062c-0.684,0.472-1.537,0.707-2.563,0.707
				c-1.623,0-2.824-0.53-3.604-1.591c-0.615-0.85-0.923-1.922-0.923-3.217c0-1.547,0.404-2.758,1.213-3.634s1.831-1.314,3.067-1.314
				c1.389,0,2.484,0.459,3.287,1.375c0.803,0.918,1.187,2.322,1.151,4.215h-6.188c0.018,0.732,0.217,1.303,0.598,1.709
				c0.381,0.408,0.855,0.611,1.424,0.611c0.387,0,0.712-0.105,0.976-0.316S234.896,182.212,235.031,181.743z M235.172,179.247
				c-0.018-0.715-0.202-1.258-0.554-1.631c-0.352-0.371-0.779-0.558-1.283-0.558c-0.539,0-0.984,0.196-1.336,0.589
				s-0.524,0.926-0.519,1.6H235.172z"/>
			<path fill="#FFFFFF" d="M266.745,175.38h2.628l2.232,6.627l2.18-6.627h2.558l-3.296,8.982l-0.589,1.626
				c-0.217,0.545-0.424,0.961-0.619,1.248c-0.197,0.287-0.422,0.52-0.678,0.698c-0.254,0.179-0.568,0.318-0.939,0.418
				c-0.373,0.1-0.793,0.149-1.262,0.149c-0.475,0-0.94-0.05-1.397-0.149l-0.22-1.934c0.387,0.076,0.735,0.114,1.046,0.114
				c0.574,0,0.999-0.169,1.274-0.505c0.275-0.338,0.486-0.767,0.633-1.288L266.745,175.38z"/>
			<path fill="#FFFFFF" d="M298.207,184.714v-1.397c-0.34,0.498-0.787,0.891-1.34,1.178c-0.555,0.287-1.139,0.431-1.754,0.431
				c-0.627,0-1.189-0.138-1.688-0.413s-0.858-0.662-1.081-1.16s-0.334-1.187-0.334-2.065v-5.906h2.47v4.289
				c0,1.313,0.045,2.117,0.137,2.412c0.09,0.297,0.256,0.531,0.496,0.703c0.24,0.174,0.545,0.26,0.914,0.26
				c0.422,0,0.8-0.115,1.134-0.348c0.334-0.23,0.563-0.518,0.686-0.861c0.123-0.342,0.185-1.182,0.185-2.518v-3.938h2.47v9.334
				H298.207z"/>
			<path fill="#FFFFFF" d="M311.549,184.714h-2.47v-4.764c0-1.008-0.053-1.659-0.158-1.955s-0.277-0.526-0.514-0.69
				c-0.238-0.164-0.523-0.246-0.857-0.246c-0.428,0-0.812,0.117-1.151,0.352s-0.573,0.545-0.698,0.932
				c-0.127,0.387-0.189,1.102-0.189,2.145v4.228h-2.47v-9.334h2.294v1.371c0.814-1.055,1.84-1.582,3.076-1.582
				c0.545,0,1.043,0.099,1.494,0.295s0.792,0.446,1.023,0.751s0.393,0.65,0.484,1.037c0.09,0.387,0.136,0.94,0.136,1.661V184.714z"
				/>
			<path fill="#FFFFFF" d="M328.008,175.38h2.276v1.274c0.814-0.99,1.784-1.485,2.909-1.485c0.598,0,1.116,0.123,1.556,0.369
				s0.8,0.618,1.081,1.116c0.41-0.498,0.853-0.87,1.327-1.116s0.981-0.369,1.521-0.369c0.686,0,1.266,0.14,1.74,0.418
				s0.829,0.687,1.063,1.226c0.17,0.398,0.255,1.043,0.255,1.934v5.968h-2.47v-5.335c0-0.926-0.085-1.523-0.255-1.793
				c-0.229-0.352-0.58-0.527-1.055-0.527c-0.346,0-0.671,0.105-0.976,0.316s-0.524,0.521-0.659,0.927
				c-0.135,0.408-0.202,1.051-0.202,1.93v4.482h-2.47v-5.115c0-0.908-0.044-1.494-0.132-1.758s-0.224-0.46-0.409-0.589
				c-0.184-0.129-0.435-0.193-0.751-0.193c-0.381,0-0.724,0.103-1.028,0.308s-0.523,0.501-0.654,0.888
				c-0.133,0.387-0.198,1.028-0.198,1.925v4.535h-2.47V175.38z"/>
			<path fill="#FFFFFF" d="M349.603,181.743l2.461,0.413c-0.316,0.902-0.816,1.59-1.498,2.062c-0.684,0.472-1.537,0.707-2.563,0.707
				c-1.623,0-2.824-0.53-3.604-1.591c-0.615-0.85-0.923-1.922-0.923-3.217c0-1.547,0.404-2.758,1.213-3.634s1.831-1.314,3.067-1.314
				c1.389,0,2.484,0.459,3.287,1.375c0.803,0.918,1.187,2.322,1.151,4.215h-6.188c0.018,0.732,0.217,1.303,0.598,1.709
				c0.381,0.408,0.855,0.611,1.424,0.611c0.387,0,0.712-0.105,0.976-0.316S349.468,182.212,349.603,181.743z M349.743,179.247
				c-0.018-0.715-0.202-1.258-0.554-1.631c-0.352-0.371-0.779-0.558-1.283-0.558c-0.539,0-0.984,0.196-1.336,0.589
				s-0.524,0.926-0.519,1.6H349.743z M346.588,174.237l1.213-2.628h2.769l-2.417,2.628H346.588z"/>
			<path fill="#FFFFFF" d="M362.769,184.714h-2.294v-1.371c-0.381,0.533-0.83,0.931-1.35,1.191c-0.518,0.26-1.041,0.391-1.568,0.391
				c-1.072,0-1.99-0.432-2.756-1.297c-0.764-0.863-1.146-2.069-1.146-3.616c0-1.582,0.372-2.784,1.116-3.608
				c0.744-0.822,1.685-1.234,2.821-1.234c1.043,0,1.945,0.434,2.707,1.301v-4.641h2.47V184.714z M356.177,179.845
				c0,0.996,0.138,1.717,0.413,2.162c0.398,0.645,0.955,0.967,1.67,0.967c0.568,0,1.052-0.242,1.45-0.725
				c0.398-0.484,0.598-1.206,0.598-2.167c0-1.072-0.193-1.844-0.58-2.315s-0.882-0.708-1.485-0.708
				c-0.586,0-1.076,0.233-1.473,0.698C356.375,178.224,356.177,178.919,356.177,179.845z"/>
			<path fill="#FFFFFF" d="M365.203,174.114v-2.285h2.47v2.285H365.203z M365.203,184.714v-9.334h2.47v9.334H365.203z"/>
			<path fill="#FFFFFF" d="M378.343,178.14l-2.435,0.439c-0.082-0.486-0.268-0.853-0.559-1.099
				c-0.289-0.246-0.666-0.369-1.129-0.369c-0.615,0-1.106,0.213-1.473,0.638s-0.549,1.135-0.549,2.131
				c0,1.107,0.186,1.89,0.559,2.347c0.371,0.457,0.871,0.686,1.498,0.686c0.469,0,0.853-0.133,1.151-0.399s0.51-0.726,0.633-1.376
				l2.426,0.413c-0.252,1.113-0.735,1.954-1.45,2.522s-1.673,0.853-2.874,0.853c-1.365,0-2.454-0.431-3.265-1.292
				c-0.813-0.861-1.218-2.054-1.218-3.577c0-1.541,0.407-2.74,1.222-3.6c0.814-0.857,1.916-1.287,3.305-1.287
				c1.137,0,2.04,0.245,2.711,0.734S378.05,177.138,378.343,178.14z"/>
			<path fill="#FFFFFF" d="M379.644,179.915c0-0.82,0.202-1.614,0.606-2.382s0.977-1.354,1.718-1.758s1.569-0.606,2.483-0.606
				c1.412,0,2.569,0.459,3.472,1.375c0.902,0.918,1.354,2.076,1.354,3.477c0,1.412-0.456,2.583-1.367,3.512s-2.058,1.393-3.44,1.393
				c-0.855,0-1.672-0.193-2.448-0.58s-1.366-0.953-1.771-1.701C379.846,181.897,379.644,180.987,379.644,179.915z M382.175,180.047
				c0,0.926,0.22,1.635,0.659,2.127s0.981,0.738,1.626,0.738s1.185-0.246,1.621-0.738s0.655-1.207,0.655-2.145
				c0-0.914-0.219-1.617-0.655-2.109s-0.977-0.738-1.621-0.738s-1.187,0.246-1.626,0.738S382.175,179.121,382.175,180.047z"/>
			<path fill="#FFFFFF" d="M1.292,194.114v-2.285h2.47v2.285H1.292z M1.292,204.714v-9.334h2.47v9.334H1.292z"/>
			<path fill="#FFFFFF" d="M14.783,204.714h-2.47v-4.764c0-1.008-0.053-1.659-0.158-1.955s-0.277-0.526-0.514-0.69
				c-0.238-0.164-0.523-0.246-0.857-0.246c-0.428,0-0.812,0.117-1.151,0.352s-0.573,0.545-0.698,0.932
				c-0.127,0.387-0.189,1.102-0.189,2.145v4.228h-2.47v-9.334h2.294v1.371c0.814-1.055,1.84-1.582,3.076-1.582
				c0.545,0,1.043,0.099,1.494,0.295s0.792,0.446,1.023,0.751s0.393,0.65,0.484,1.037c0.09,0.387,0.136,0.94,0.136,1.661V204.714z"
				/>
			<path fill="#FFFFFF" d="M21.568,195.38v1.969h-1.688v3.762c0,0.762,0.016,1.206,0.049,1.332c0.031,0.126,0.105,0.229,0.219,0.312
				c0.115,0.082,0.254,0.123,0.418,0.123c0.229,0,0.56-0.079,0.993-0.237l0.211,1.916c-0.574,0.246-1.225,0.369-1.951,0.369
				c-0.445,0-0.847-0.074-1.204-0.225c-0.357-0.148-0.619-0.342-0.787-0.58c-0.166-0.236-0.282-0.558-0.347-0.962
				c-0.053-0.287-0.079-0.867-0.079-1.74v-4.069h-1.134v-1.969h1.134v-1.854l2.479-1.441v3.296H21.568z"/>
			<path fill="#FFFFFF" d="M28.688,201.743l2.461,0.413c-0.316,0.902-0.816,1.59-1.498,2.062c-0.684,0.472-1.537,0.707-2.563,0.707
				c-1.623,0-2.824-0.53-3.604-1.591c-0.615-0.85-0.923-1.922-0.923-3.217c0-1.547,0.404-2.758,1.213-3.634s1.831-1.314,3.067-1.314
				c1.389,0,2.484,0.459,3.287,1.375c0.803,0.918,1.187,2.322,1.151,4.215h-6.188c0.018,0.732,0.217,1.303,0.598,1.709
				c0.381,0.408,0.855,0.611,1.424,0.611c0.387,0,0.712-0.105,0.976-0.316S28.553,202.212,28.688,201.743z M28.828,199.247
				c-0.018-0.715-0.202-1.258-0.554-1.631c-0.352-0.371-0.779-0.558-1.283-0.558c-0.539,0-0.984,0.196-1.336,0.589
				s-0.524,0.926-0.519,1.6H28.828z"/>
			<path fill="#FFFFFF" d="M35.657,204.714h-2.47v-9.334h2.294v1.327c0.393-0.627,0.745-1.04,1.059-1.239s0.67-0.299,1.068-0.299
				c0.563,0,1.104,0.155,1.626,0.466l-0.765,2.153c-0.416-0.27-0.803-0.404-1.16-0.404c-0.346,0-0.639,0.096-0.879,0.285
				c-0.24,0.191-0.43,0.535-0.566,1.033c-0.139,0.498-0.207,1.541-0.207,3.129V204.714z"/>
			<path fill="#FFFFFF" d="M45.703,201.743l2.461,0.413c-0.316,0.902-0.816,1.59-1.498,2.062c-0.684,0.472-1.537,0.707-2.563,0.707
				c-1.623,0-2.824-0.53-3.604-1.591c-0.615-0.85-0.923-1.922-0.923-3.217c0-1.547,0.404-2.758,1.213-3.634s1.831-1.314,3.067-1.314
				c1.389,0,2.484,0.459,3.287,1.375c0.803,0.918,1.187,2.322,1.151,4.215h-6.188c0.018,0.732,0.217,1.303,0.598,1.709
				c0.381,0.408,0.855,0.611,1.424,0.611c0.387,0,0.712-0.105,0.976-0.316S45.568,202.212,45.703,201.743z M45.844,199.247
				c-0.018-0.715-0.202-1.258-0.554-1.631c-0.352-0.371-0.779-0.558-1.283-0.558c-0.539,0-0.984,0.196-1.336,0.589
				s-0.524,0.926-0.519,1.6H45.844z"/>
			<path fill="#FFFFFF" d="M49.438,202.051l2.479-0.378c0.105,0.48,0.319,0.846,0.642,1.094c0.322,0.25,0.773,0.374,1.354,0.374
				c0.639,0,1.119-0.117,1.441-0.352c0.217-0.164,0.325-0.384,0.325-0.659c0-0.188-0.059-0.343-0.176-0.466
				c-0.123-0.117-0.398-0.226-0.826-0.325c-1.992-0.439-3.255-0.841-3.788-1.204c-0.738-0.504-1.107-1.204-1.107-2.101
				c0-0.809,0.319-1.488,0.958-2.039s1.629-0.826,2.971-0.826c1.277,0,2.227,0.208,2.848,0.624s1.049,1.031,1.283,1.846
				l-2.329,0.431c-0.1-0.363-0.289-0.642-0.567-0.835s-0.675-0.29-1.19-0.29c-0.65,0-1.116,0.091-1.397,0.272
				c-0.188,0.129-0.281,0.296-0.281,0.501c0,0.176,0.082,0.325,0.246,0.448c0.223,0.164,0.991,0.396,2.307,0.694
				s2.234,0.665,2.756,1.099c0.516,0.439,0.773,1.052,0.773,1.837c0,0.855-0.357,1.591-1.072,2.206s-1.772,0.923-3.173,0.923
				c-1.271,0-2.278-0.258-3.019-0.773C50.151,203.636,49.667,202.936,49.438,202.051z"/>
			<path fill="#FFFFFF" d="M62.165,198.228l-2.241-0.404c0.252-0.902,0.686-1.57,1.301-2.004s1.529-0.65,2.742-0.65
				c1.102,0,1.922,0.131,2.461,0.391c0.539,0.262,0.918,0.593,1.139,0.994c0.219,0.401,0.329,1.138,0.329,2.21l-0.026,2.883
				c0,0.82,0.039,1.426,0.119,1.815c0.078,0.39,0.227,0.807,0.443,1.252h-2.443c-0.064-0.164-0.144-0.407-0.237-0.729
				c-0.041-0.146-0.07-0.243-0.088-0.29c-0.422,0.41-0.873,0.718-1.354,0.923s-0.993,0.308-1.538,0.308
				c-0.961,0-1.719-0.261-2.271-0.782c-0.555-0.521-0.831-1.181-0.831-1.978c0-0.527,0.126-0.998,0.378-1.41
				c0.252-0.414,0.604-0.73,1.059-0.949c0.454-0.221,1.109-0.412,1.965-0.576c1.154-0.217,1.954-0.419,2.399-0.606v-0.246
				c0-0.475-0.117-0.813-0.352-1.015c-0.234-0.203-0.677-0.304-1.327-0.304c-0.439,0-0.782,0.087-1.028,0.259
				C62.517,197.491,62.317,197.794,62.165,198.228z M65.47,200.231c-0.316,0.105-0.817,0.231-1.503,0.378s-1.134,0.29-1.345,0.431
				c-0.322,0.229-0.483,0.519-0.483,0.87c0,0.346,0.129,0.645,0.387,0.896s0.586,0.378,0.984,0.378c0.445,0,0.87-0.146,1.274-0.439
				c0.299-0.223,0.495-0.495,0.589-0.817c0.064-0.211,0.097-0.612,0.097-1.204V200.231z"/>
			<path fill="#FFFFFF" d="M78.891,204.714h-2.294v-1.371c-0.381,0.533-0.83,0.931-1.35,1.191c-0.518,0.26-1.041,0.391-1.568,0.391
				c-1.072,0-1.99-0.432-2.756-1.297c-0.764-0.863-1.146-2.069-1.146-3.616c0-1.582,0.372-2.784,1.116-3.608
				c0.744-0.822,1.685-1.234,2.821-1.234c1.043,0,1.945,0.434,2.707,1.301v-4.641h2.47V204.714z M72.299,199.845
				c0,0.996,0.138,1.717,0.413,2.162c0.398,0.645,0.955,0.967,1.67,0.967c0.568,0,1.052-0.242,1.45-0.725
				c0.398-0.484,0.598-1.206,0.598-2.167c0-1.072-0.193-1.844-0.58-2.315s-0.882-0.708-1.485-0.708
				c-0.586,0-1.076,0.233-1.473,0.698C72.497,198.224,72.299,198.919,72.299,199.845z"/>
			<path fill="#FFFFFF" d="M80.754,199.915c0-0.82,0.202-1.614,0.606-2.382s0.977-1.354,1.718-1.758s1.569-0.606,2.483-0.606
				c1.412,0,2.569,0.459,3.472,1.375c0.902,0.918,1.354,2.076,1.354,3.477c0,1.412-0.456,2.583-1.367,3.512s-2.058,1.393-3.44,1.393
				c-0.855,0-1.672-0.193-2.448-0.58s-1.366-0.953-1.771-1.701C80.956,201.897,80.754,200.987,80.754,199.915z M83.285,200.047
				c0,0.926,0.22,1.635,0.659,2.127s0.981,0.738,1.626,0.738s1.185-0.246,1.621-0.738s0.655-1.207,0.655-2.145
				c0-0.914-0.219-1.617-0.655-2.109s-0.977-0.738-1.621-0.738s-1.187,0.246-1.626,0.738S83.285,199.121,83.285,200.047z"/>
			<path fill="#FFFFFF" d="M112.883,201.743l2.461,0.413c-0.316,0.902-0.816,1.59-1.498,2.062c-0.684,0.472-1.537,0.707-2.563,0.707
				c-1.623,0-2.824-0.53-3.604-1.591c-0.615-0.85-0.923-1.922-0.923-3.217c0-1.547,0.404-2.758,1.213-3.634s1.831-1.314,3.067-1.314
				c1.389,0,2.484,0.459,3.287,1.375c0.803,0.918,1.187,2.322,1.151,4.215h-6.188c0.018,0.732,0.217,1.303,0.598,1.709
				c0.381,0.408,0.855,0.611,1.424,0.611c0.387,0,0.712-0.105,0.976-0.316S112.748,202.212,112.883,201.743z M113.023,199.247
				c-0.018-0.715-0.202-1.258-0.554-1.631c-0.352-0.371-0.779-0.558-1.283-0.558c-0.539,0-0.984,0.196-1.336,0.589
				s-0.524,0.926-0.519,1.6H113.023z"/>
			<path fill="#FFFFFF" d="M125.979,204.714h-2.47v-4.764c0-1.008-0.053-1.659-0.158-1.955s-0.277-0.526-0.514-0.69
				c-0.238-0.164-0.523-0.246-0.857-0.246c-0.428,0-0.812,0.117-1.151,0.352s-0.573,0.545-0.698,0.932
				c-0.127,0.387-0.189,1.102-0.189,2.145v4.228h-2.47v-9.334h2.294v1.371c0.814-1.055,1.84-1.582,3.076-1.582
				c0.545,0,1.043,0.099,1.494,0.295s0.792,0.446,1.023,0.751s0.393,0.65,0.484,1.037c0.09,0.387,0.136,0.94,0.136,1.661V204.714z"
				/>
			<path fill="#FFFFFF" d="M143.457,195.38h2.276v1.274c0.814-0.99,1.784-1.485,2.909-1.485c0.598,0,1.116,0.123,1.556,0.369
				s0.8,0.618,1.081,1.116c0.41-0.498,0.853-0.87,1.327-1.116s0.981-0.369,1.521-0.369c0.686,0,1.266,0.14,1.74,0.418
				s0.829,0.687,1.063,1.226c0.17,0.398,0.255,1.043,0.255,1.934v5.968h-2.47v-5.335c0-0.926-0.085-1.523-0.255-1.793
				c-0.229-0.352-0.58-0.527-1.055-0.527c-0.346,0-0.671,0.105-0.976,0.316s-0.524,0.521-0.659,0.927
				c-0.135,0.408-0.202,1.051-0.202,1.93v4.482h-2.47v-5.115c0-0.908-0.044-1.494-0.132-1.758s-0.224-0.46-0.409-0.589
				c-0.184-0.129-0.435-0.193-0.751-0.193c-0.381,0-0.724,0.103-1.028,0.308s-0.523,0.501-0.654,0.888
				c-0.133,0.387-0.198,1.028-0.198,1.925v4.535h-2.47V195.38z"/>
			<path fill="#FFFFFF" d="M165.052,201.743l2.461,0.413c-0.316,0.902-0.816,1.59-1.498,2.062c-0.684,0.472-1.537,0.707-2.563,0.707
				c-1.623,0-2.824-0.53-3.604-1.591c-0.615-0.85-0.923-1.922-0.923-3.217c0-1.547,0.404-2.758,1.213-3.634s1.831-1.314,3.067-1.314
				c1.389,0,2.484,0.459,3.287,1.375c0.803,0.918,1.187,2.322,1.151,4.215h-6.188c0.018,0.732,0.217,1.303,0.598,1.709
				c0.381,0.408,0.855,0.611,1.424,0.611c0.387,0,0.712-0.105,0.976-0.316S164.917,202.212,165.052,201.743z M165.192,199.247
				c-0.018-0.715-0.202-1.258-0.554-1.631c-0.352-0.371-0.779-0.558-1.283-0.558c-0.539,0-0.984,0.196-1.336,0.589
				s-0.524,0.926-0.519,1.6H165.192z"/>
			<path fill="#FFFFFF" d="M172.074,195.38v9.044c0,1.189-0.078,2.028-0.232,2.519c-0.156,0.488-0.455,0.871-0.896,1.146
				c-0.443,0.275-1.007,0.413-1.692,0.413c-0.246,0-0.512-0.022-0.796-0.065c-0.283-0.045-0.59-0.11-0.918-0.198l0.431-2.109
				c0.117,0.023,0.228,0.042,0.329,0.058c0.103,0.014,0.198,0.021,0.286,0.021c0.252,0,0.458-0.055,0.62-0.162
				c0.16-0.109,0.268-0.239,0.32-0.392s0.079-0.609,0.079-1.371v-8.903H172.074z M169.604,194.114v-2.285h2.47v2.285H169.604z"/>
			<path fill="#FFFFFF" d="M174.087,199.915c0-0.82,0.202-1.614,0.606-2.382s0.977-1.354,1.718-1.758s1.569-0.606,2.483-0.606
				c1.412,0,2.569,0.459,3.472,1.375c0.902,0.918,1.354,2.076,1.354,3.477c0,1.412-0.456,2.583-1.367,3.512s-2.058,1.393-3.44,1.393
				c-0.855,0-1.672-0.193-2.448-0.58s-1.366-0.953-1.771-1.701C174.289,201.897,174.087,200.987,174.087,199.915z M176.618,200.047
				c0,0.926,0.22,1.635,0.659,2.127s0.981,0.738,1.626,0.738s1.185-0.246,1.621-0.738s0.655-1.207,0.655-2.145
				c0-0.914-0.219-1.617-0.655-2.109s-0.977-0.738-1.621-0.738s-1.187,0.246-1.626,0.738S176.618,199.121,176.618,200.047z"/>
			<path fill="#FFFFFF" d="M188.018,204.714h-2.47v-9.334h2.294v1.327c0.393-0.627,0.745-1.04,1.059-1.239s0.67-0.299,1.068-0.299
				c0.563,0,1.104,0.155,1.626,0.466l-0.765,2.153c-0.416-0.27-0.803-0.404-1.16-0.404c-0.346,0-0.639,0.096-0.879,0.285
				c-0.24,0.191-0.43,0.535-0.566,1.033c-0.139,0.498-0.207,1.541-0.207,3.129V204.714z"/>
			<path fill="#FFFFFF" d="M194.504,198.228l-2.241-0.404c0.252-0.902,0.686-1.57,1.301-2.004s1.529-0.65,2.742-0.65
				c1.102,0,1.922,0.131,2.461,0.391c0.539,0.262,0.918,0.593,1.139,0.994c0.219,0.401,0.329,1.138,0.329,2.21l-0.026,2.883
				c0,0.82,0.039,1.426,0.119,1.815c0.078,0.39,0.227,0.807,0.443,1.252h-2.443c-0.064-0.164-0.144-0.407-0.237-0.729
				c-0.041-0.146-0.07-0.243-0.088-0.29c-0.422,0.41-0.873,0.718-1.354,0.923s-0.993,0.308-1.538,0.308
				c-0.961,0-1.719-0.261-2.271-0.782c-0.555-0.521-0.831-1.181-0.831-1.978c0-0.527,0.126-0.998,0.378-1.41
				c0.252-0.414,0.604-0.73,1.059-0.949c0.454-0.221,1.109-0.412,1.965-0.576c1.154-0.217,1.954-0.419,2.399-0.606v-0.246
				c0-0.475-0.117-0.813-0.352-1.015c-0.234-0.203-0.677-0.304-1.327-0.304c-0.439,0-0.782,0.087-1.028,0.259
				C194.855,197.491,194.656,197.794,194.504,198.228z M197.809,200.231c-0.316,0.105-0.817,0.231-1.503,0.378
				s-1.134,0.29-1.345,0.431c-0.322,0.229-0.483,0.519-0.483,0.87c0,0.346,0.129,0.645,0.387,0.896s0.586,0.378,0.984,0.378
				c0.445,0,0.87-0.146,1.274-0.439c0.299-0.223,0.495-0.495,0.589-0.817c0.064-0.211,0.097-0.612,0.097-1.204V200.231z"/>
			<path fill="#FFFFFF" d="M205.033,204.714h-2.47v-9.334h2.294v1.327c0.393-0.627,0.745-1.04,1.059-1.239s0.67-0.299,1.068-0.299
				c0.563,0,1.104,0.155,1.626,0.466l-0.765,2.153c-0.416-0.27-0.803-0.404-1.16-0.404c-0.346,0-0.639,0.096-0.879,0.285
				c-0.24,0.191-0.43,0.535-0.566,1.033c-0.139,0.498-0.207,1.541-0.207,3.129V204.714z"/>
			<path fill="#FFFFFF" d="M224.831,204.714v-12.885h2.47v12.885H224.831z"/>
			<path fill="#FFFFFF" d="M229.261,199.915c0-0.82,0.202-1.614,0.606-2.382s0.977-1.354,1.718-1.758s1.569-0.606,2.483-0.606
				c1.412,0,2.569,0.459,3.472,1.375c0.902,0.918,1.354,2.076,1.354,3.477c0,1.412-0.456,2.583-1.367,3.512s-2.058,1.393-3.44,1.393
				c-0.855,0-1.672-0.193-2.448-0.58s-1.366-0.953-1.771-1.701C229.463,201.897,229.261,200.987,229.261,199.915z M231.792,200.047
				c0,0.926,0.22,1.635,0.659,2.127s0.981,0.738,1.626,0.738s1.185-0.246,1.621-0.738s0.655-1.207,0.655-2.145
				c0-0.914-0.219-1.617-0.655-2.109s-0.977-0.738-1.621-0.738s-1.187,0.246-1.626,0.738S231.792,199.121,231.792,200.047z"/>
			<path fill="#FFFFFF" d="M239.957,202.051l2.479-0.378c0.105,0.48,0.319,0.846,0.642,1.094c0.322,0.25,0.773,0.374,1.354,0.374
				c0.639,0,1.119-0.117,1.441-0.352c0.217-0.164,0.325-0.384,0.325-0.659c0-0.188-0.059-0.343-0.176-0.466
				c-0.123-0.117-0.398-0.226-0.826-0.325c-1.992-0.439-3.255-0.841-3.788-1.204c-0.738-0.504-1.107-1.204-1.107-2.101
				c0-0.809,0.319-1.488,0.958-2.039s1.629-0.826,2.971-0.826c1.277,0,2.227,0.208,2.848,0.624s1.049,1.031,1.283,1.846
				l-2.329,0.431c-0.1-0.363-0.289-0.642-0.567-0.835s-0.675-0.29-1.19-0.29c-0.65,0-1.116,0.091-1.397,0.272
				c-0.188,0.129-0.281,0.296-0.281,0.501c0,0.176,0.082,0.325,0.246,0.448c0.223,0.164,0.991,0.396,2.307,0.694
				s2.234,0.665,2.756,1.099c0.516,0.439,0.773,1.052,0.773,1.837c0,0.855-0.357,1.591-1.072,2.206s-1.772,0.923-3.173,0.923
				c-1.271,0-2.278-0.258-3.019-0.773C240.67,203.636,240.186,202.936,239.957,202.051z"/>
			<path fill="#FFFFFF" d="M265.126,202.051l2.479-0.378c0.105,0.48,0.319,0.846,0.642,1.094c0.322,0.25,0.773,0.374,1.354,0.374
				c0.639,0,1.119-0.117,1.441-0.352c0.217-0.164,0.325-0.384,0.325-0.659c0-0.188-0.059-0.343-0.176-0.466
				c-0.123-0.117-0.398-0.226-0.826-0.325c-1.992-0.439-3.255-0.841-3.788-1.204c-0.738-0.504-1.107-1.204-1.107-2.101
				c0-0.809,0.319-1.488,0.958-2.039s1.629-0.826,2.971-0.826c1.277,0,2.227,0.208,2.848,0.624s1.049,1.031,1.283,1.846
				l-2.329,0.431c-0.1-0.363-0.289-0.642-0.567-0.835s-0.675-0.29-1.19-0.29c-0.65,0-1.116,0.091-1.397,0.272
				c-0.188,0.129-0.281,0.296-0.281,0.501c0,0.176,0.082,0.325,0.246,0.448c0.223,0.164,0.991,0.396,2.307,0.694
				s2.234,0.665,2.756,1.099c0.516,0.439,0.773,1.052,0.773,1.837c0,0.855-0.357,1.591-1.072,2.206s-1.772,0.923-3.173,0.923
				c-1.271,0-2.278-0.258-3.019-0.773C265.839,203.636,265.354,202.936,265.126,202.051z"/>
			<path fill="#FFFFFF" d="M281.412,201.743l2.461,0.413c-0.316,0.902-0.816,1.59-1.498,2.062c-0.684,0.472-1.537,0.707-2.563,0.707
				c-1.623,0-2.824-0.53-3.604-1.591c-0.615-0.85-0.923-1.922-0.923-3.217c0-1.547,0.404-2.758,1.213-3.634s1.831-1.314,3.067-1.314
				c1.389,0,2.484,0.459,3.287,1.375c0.803,0.918,1.187,2.322,1.151,4.215h-6.188c0.018,0.732,0.217,1.303,0.598,1.709
				c0.381,0.408,0.855,0.611,1.424,0.611c0.387,0,0.712-0.105,0.976-0.316S281.277,202.212,281.412,201.743z M281.553,199.247
				c-0.018-0.715-0.202-1.258-0.554-1.631c-0.352-0.371-0.779-0.558-1.283-0.558c-0.539,0-0.984,0.196-1.336,0.589
				s-0.524,0.926-0.519,1.6H281.553z"/>
			<path fill="#FFFFFF" d="M288.382,204.714h-2.47v-9.334h2.294v1.327c0.393-0.627,0.745-1.04,1.059-1.239s0.67-0.299,1.068-0.299
				c0.563,0,1.104,0.155,1.626,0.466l-0.765,2.153c-0.416-0.27-0.803-0.404-1.16-0.404c-0.346,0-0.639,0.096-0.879,0.285
				c-0.24,0.191-0.43,0.535-0.566,1.033c-0.139,0.498-0.207,1.541-0.207,3.129V204.714z"/>
			<path fill="#FFFFFF" d="M295.589,204.714l-3.762-9.334h2.593l1.758,4.764l0.51,1.591c0.135-0.404,0.22-0.671,0.255-0.8
				c0.082-0.264,0.17-0.527,0.264-0.791l1.775-4.764h2.54l-3.709,9.334H295.589z"/>
			<path fill="#FFFFFF" d="M303.033,194.114v-2.285h2.47v2.285H303.033z M303.033,204.714v-9.334h2.47v9.334H303.033z"/>
			<path fill="#FFFFFF" d="M316.173,198.14l-2.435,0.439c-0.082-0.486-0.268-0.853-0.559-1.099
				c-0.289-0.246-0.666-0.369-1.129-0.369c-0.615,0-1.106,0.213-1.473,0.638s-0.549,1.135-0.549,2.131
				c0,1.107,0.186,1.89,0.559,2.347c0.371,0.457,0.871,0.686,1.498,0.686c0.469,0,0.853-0.133,1.151-0.399s0.51-0.726,0.633-1.376
				l2.426,0.413c-0.252,1.113-0.735,1.954-1.45,2.522s-1.673,0.853-2.874,0.853c-1.365,0-2.454-0.431-3.265-1.292
				c-0.813-0.861-1.218-2.054-1.218-3.577c0-1.541,0.407-2.74,1.222-3.6c0.814-0.857,1.916-1.287,3.305-1.287
				c1.137,0,2.04,0.245,2.711,0.734S315.88,197.138,316.173,198.14z"/>
			<path fill="#FFFFFF" d="M318.045,194.114v-2.285h2.47v2.285H318.045z M318.045,204.714v-9.334h2.47v9.334H318.045z"/>
			<path fill="#FFFFFF" d="M322.475,199.915c0-0.82,0.202-1.614,0.606-2.382s0.977-1.354,1.718-1.758s1.569-0.606,2.483-0.606
				c1.412,0,2.569,0.459,3.472,1.375c0.902,0.918,1.354,2.076,1.354,3.477c0,1.412-0.456,2.583-1.367,3.512s-2.058,1.393-3.44,1.393
				c-0.855,0-1.672-0.193-2.448-0.58s-1.366-0.953-1.771-1.701C322.677,201.897,322.475,200.987,322.475,199.915z M325.006,200.047
				c0,0.926,0.22,1.635,0.659,2.127s0.981,0.738,1.626,0.738s1.185-0.246,1.621-0.738s0.655-1.207,0.655-2.145
				c0-0.914-0.219-1.617-0.655-2.109s-0.977-0.738-1.621-0.738s-1.187,0.246-1.626,0.738S325.006,199.121,325.006,200.047z"/>
			<path fill="#FFFFFF" d="M333.171,202.051l2.479-0.378c0.105,0.48,0.319,0.846,0.642,1.094c0.322,0.25,0.773,0.374,1.354,0.374
				c0.639,0,1.119-0.117,1.441-0.352c0.217-0.164,0.325-0.384,0.325-0.659c0-0.188-0.059-0.343-0.176-0.466
				c-0.123-0.117-0.398-0.226-0.826-0.325c-1.992-0.439-3.255-0.841-3.788-1.204c-0.738-0.504-1.107-1.204-1.107-2.101
				c0-0.809,0.319-1.488,0.958-2.039s1.629-0.826,2.971-0.826c1.277,0,2.227,0.208,2.848,0.624s1.049,1.031,1.283,1.846
				l-2.329,0.431c-0.1-0.363-0.289-0.642-0.567-0.835s-0.675-0.29-1.19-0.29c-0.65,0-1.116,0.091-1.397,0.272
				c-0.188,0.129-0.281,0.296-0.281,0.501c0,0.176,0.082,0.325,0.246,0.448c0.223,0.164,0.991,0.396,2.307,0.694
				s2.234,0.665,2.756,1.099c0.516,0.439,0.773,1.052,0.773,1.837c0,0.855-0.357,1.591-1.072,2.206s-1.772,0.923-3.173,0.923
				c-1.271,0-2.278-0.258-3.019-0.773C333.884,203.636,333.399,202.936,333.171,202.051z"/>
			<path fill="#FFFFFF" d="M365.309,208.265v-4.693c-0.322,0.416-0.724,0.746-1.204,0.988c-0.48,0.243-0.999,0.365-1.556,0.365
				c-1.061,0-1.934-0.398-2.619-1.195c-0.809-0.932-1.213-2.194-1.213-3.788c0-1.5,0.379-2.67,1.138-3.511s1.701-1.262,2.826-1.262
				c0.621,0,1.158,0.132,1.613,0.396c0.453,0.264,0.856,0.662,1.208,1.195v-1.38h2.276v12.885H365.309z M365.388,199.933
				c0-0.955-0.195-1.666-0.584-2.131c-0.391-0.467-0.878-0.699-1.464-0.699c-0.598,0-1.098,0.237-1.499,0.712
				s-0.602,1.228-0.602,2.259c0,1.025,0.193,1.766,0.58,2.219c0.387,0.455,0.864,0.682,1.433,0.682s1.066-0.255,1.494-0.765
				S365.388,200.94,365.388,199.933z"/>
			<path fill="#FFFFFF" d="M376.348,204.714v-1.397c-0.34,0.498-0.787,0.891-1.34,1.178c-0.555,0.287-1.139,0.431-1.754,0.431
				c-0.627,0-1.189-0.138-1.688-0.413s-0.858-0.662-1.081-1.16s-0.334-1.187-0.334-2.065v-5.906h2.47v4.289
				c0,1.313,0.045,2.117,0.137,2.412c0.09,0.297,0.256,0.531,0.496,0.703c0.24,0.174,0.545,0.26,0.914,0.26
				c0.422,0,0.8-0.115,1.134-0.348c0.334-0.23,0.563-0.518,0.686-0.861c0.123-0.342,0.185-1.182,0.185-2.518v-3.938h2.47v9.334
				H376.348z"/>
			<path fill="#FFFFFF" d="M386.604,201.743l2.461,0.413c-0.316,0.902-0.816,1.59-1.498,2.062c-0.684,0.472-1.537,0.707-2.563,0.707
				c-1.623,0-2.824-0.53-3.604-1.591c-0.615-0.85-0.923-1.922-0.923-3.217c0-1.547,0.404-2.758,1.213-3.634s1.831-1.314,3.067-1.314
				c1.389,0,2.484,0.459,3.287,1.375c0.803,0.918,1.187,2.322,1.151,4.215h-6.188c0.018,0.732,0.217,1.303,0.598,1.709
				c0.381,0.408,0.855,0.611,1.424,0.611c0.387,0,0.712-0.105,0.976-0.316S386.47,202.212,386.604,201.743z M386.745,199.247
				c-0.018-0.715-0.202-1.258-0.554-1.631c-0.352-0.371-0.779-0.558-1.283-0.558c-0.539,0-0.984,0.196-1.336,0.589
				s-0.524,0.926-0.519,1.6H386.745z"/>
			<path fill="#FFFFFF" d="M0.721,219.915c0-0.82,0.202-1.614,0.606-2.382s0.977-1.354,1.718-1.758s1.569-0.606,2.483-0.606
				c1.412,0,2.569,0.459,3.472,1.375c0.902,0.918,1.354,2.076,1.354,3.477c0,1.412-0.456,2.583-1.367,3.512s-2.058,1.393-3.44,1.393
				c-0.855,0-1.672-0.193-2.448-0.58s-1.366-0.953-1.771-1.701C0.923,221.897,0.721,220.987,0.721,219.915z M3.252,220.047
				c0,0.926,0.22,1.635,0.659,2.127s0.981,0.738,1.626,0.738s1.185-0.246,1.621-0.738s0.655-1.207,0.655-2.145
				c0-0.914-0.219-1.617-0.655-2.109s-0.977-0.738-1.621-0.738s-1.187,0.246-1.626,0.738S3.252,219.121,3.252,220.047z"/>
			<path fill="#FFFFFF" d="M11.206,215.38h1.371v-0.703c0-0.785,0.084-1.371,0.25-1.758c0.168-0.387,0.475-0.701,0.924-0.945
				c0.447-0.242,1.015-0.364,1.7-0.364c0.703,0,1.392,0.105,2.065,0.316l-0.334,1.723c-0.393-0.094-0.771-0.141-1.134-0.141
				c-0.357,0-0.614,0.083-0.769,0.251c-0.156,0.166-0.233,0.487-0.233,0.962v0.659h1.846v1.942h-1.846v7.392h-2.47v-7.392h-1.371
				V215.38z"/>
			<path fill="#FFFFFF" d="M20.646,224.714h-2.47v-9.334h2.294v1.327c0.393-0.627,0.745-1.04,1.059-1.239s0.67-0.299,1.068-0.299
				c0.563,0,1.104,0.155,1.626,0.466l-0.765,2.153c-0.416-0.27-0.803-0.404-1.16-0.404c-0.346,0-0.639,0.096-0.879,0.285
				c-0.24,0.191-0.43,0.535-0.566,1.033c-0.139,0.498-0.207,1.541-0.207,3.129V224.714z"/>
			<path fill="#FFFFFF" d="M30.691,221.743l2.461,0.413c-0.316,0.902-0.816,1.59-1.498,2.062c-0.684,0.472-1.537,0.707-2.563,0.707
				c-1.623,0-2.824-0.53-3.604-1.591c-0.615-0.85-0.923-1.922-0.923-3.217c0-1.547,0.404-2.758,1.213-3.634s1.831-1.314,3.067-1.314
				c1.389,0,2.484,0.459,3.287,1.375c0.803,0.918,1.187,2.322,1.151,4.215h-6.188c0.018,0.732,0.217,1.303,0.598,1.709
				c0.381,0.408,0.855,0.611,1.424,0.611c0.387,0,0.712-0.105,0.976-0.316S30.557,222.212,30.691,221.743z M30.832,219.247
				c-0.018-0.715-0.202-1.258-0.554-1.631c-0.352-0.371-0.779-0.558-1.283-0.558c-0.539,0-0.984,0.196-1.336,0.589
				s-0.524,0.926-0.519,1.6H30.832z"/>
			<path fill="#FFFFFF" d="M43.436,218.14l-2.435,0.439c-0.082-0.486-0.268-0.853-0.559-1.099c-0.289-0.246-0.666-0.369-1.129-0.369
				c-0.615,0-1.106,0.213-1.473,0.638s-0.549,1.135-0.549,2.131c0,1.107,0.186,1.89,0.559,2.347
				c0.371,0.457,0.871,0.686,1.498,0.686c0.469,0,0.853-0.133,1.151-0.399s0.51-0.726,0.633-1.376l2.426,0.413
				c-0.252,1.113-0.735,1.954-1.45,2.522s-1.673,0.853-2.874,0.853c-1.365,0-2.454-0.431-3.265-1.292
				c-0.813-0.861-1.218-2.054-1.218-3.577c0-1.541,0.407-2.74,1.222-3.6c0.814-0.857,1.916-1.287,3.305-1.287
				c1.137,0,2.04,0.245,2.711,0.734S43.143,217.138,43.436,218.14z"/>
			<path fill="#FFFFFF" d="M50.713,221.743l2.461,0.413c-0.316,0.902-0.816,1.59-1.498,2.062c-0.684,0.472-1.537,0.707-2.563,0.707
				c-1.623,0-2.824-0.53-3.604-1.591c-0.615-0.85-0.923-1.922-0.923-3.217c0-1.547,0.404-2.758,1.213-3.634s1.831-1.314,3.067-1.314
				c1.389,0,2.484,0.459,3.287,1.375c0.803,0.918,1.187,2.322,1.151,4.215h-6.188c0.018,0.732,0.217,1.303,0.598,1.709
				c0.381,0.408,0.855,0.611,1.424,0.611c0.387,0,0.712-0.105,0.976-0.316S50.578,222.212,50.713,221.743z M50.854,219.247
				c-0.018-0.715-0.202-1.258-0.554-1.631c-0.352-0.371-0.779-0.558-1.283-0.558c-0.539,0-0.984,0.196-1.336,0.589
				s-0.524,0.926-0.519,1.6H50.854z"/>
			<path fill="#FFFFFF" d="M59.449,222.051l2.479-0.378c0.105,0.48,0.319,0.846,0.642,1.094c0.322,0.25,0.773,0.374,1.354,0.374
				c0.639,0,1.119-0.117,1.441-0.352c0.217-0.164,0.325-0.384,0.325-0.659c0-0.188-0.059-0.343-0.176-0.466
				c-0.123-0.117-0.398-0.226-0.826-0.325c-1.992-0.439-3.255-0.841-3.788-1.204c-0.738-0.504-1.107-1.204-1.107-2.101
				c0-0.809,0.319-1.488,0.958-2.039s1.629-0.826,2.971-0.826c1.277,0,2.227,0.208,2.848,0.624s1.049,1.031,1.283,1.846
				l-2.329,0.431c-0.1-0.363-0.289-0.642-0.567-0.835s-0.675-0.29-1.19-0.29c-0.65,0-1.116,0.091-1.397,0.272
				c-0.188,0.129-0.281,0.296-0.281,0.501c0,0.176,0.082,0.325,0.246,0.448c0.223,0.164,0.991,0.396,2.307,0.694
				s2.234,0.665,2.756,1.099c0.516,0.439,0.773,1.052,0.773,1.837c0,0.855-0.357,1.591-1.072,2.206s-1.772,0.923-3.173,0.923
				c-1.271,0-2.278-0.258-3.019-0.773C60.162,223.636,59.678,222.936,59.449,222.051z"/>
			<path fill="#FFFFFF" d="M76.474,224.714v-1.397c-0.34,0.498-0.787,0.891-1.34,1.178c-0.555,0.287-1.139,0.431-1.754,0.431
				c-0.627,0-1.189-0.138-1.688-0.413s-0.858-0.662-1.081-1.16s-0.334-1.187-0.334-2.065v-5.906h2.47v4.289
				c0,1.313,0.045,2.117,0.137,2.412c0.09,0.297,0.256,0.531,0.496,0.703c0.24,0.174,0.545,0.26,0.914,0.26
				c0.422,0,0.8-0.115,1.134-0.348c0.334-0.23,0.563-0.518,0.686-0.861c0.123-0.342,0.185-1.182,0.185-2.518v-3.938h2.47v9.334
				H76.474z"/>
			<path fill="#FFFFFF" d="M94.465,218.14l-2.435,0.439c-0.082-0.486-0.268-0.853-0.559-1.099c-0.289-0.246-0.666-0.369-1.129-0.369
				c-0.615,0-1.106,0.213-1.473,0.638s-0.549,1.135-0.549,2.131c0,1.107,0.186,1.89,0.559,2.347
				c0.371,0.457,0.871,0.686,1.498,0.686c0.469,0,0.853-0.133,1.151-0.399s0.51-0.726,0.633-1.376l2.426,0.413
				c-0.252,1.113-0.735,1.954-1.45,2.522s-1.673,0.853-2.874,0.853c-1.365,0-2.454-0.431-3.265-1.292
				c-0.813-0.861-1.218-2.054-1.218-3.577c0-1.541,0.407-2.74,1.222-3.6c0.814-0.857,1.916-1.287,3.305-1.287
				c1.137,0,2.04,0.245,2.711,0.734S94.172,217.138,94.465,218.14z"/>
			<path fill="#FFFFFF" d="M95.766,219.915c0-0.82,0.202-1.614,0.606-2.382s0.977-1.354,1.718-1.758s1.569-0.606,2.483-0.606
				c1.412,0,2.569,0.459,3.472,1.375c0.902,0.918,1.354,2.076,1.354,3.477c0,1.412-0.456,2.583-1.367,3.512s-2.058,1.393-3.44,1.393
				c-0.855,0-1.672-0.193-2.448-0.58s-1.366-0.953-1.771-1.701C95.968,221.897,95.766,220.987,95.766,219.915z M98.297,220.047
				c0,0.926,0.22,1.635,0.659,2.127s0.981,0.738,1.626,0.738s1.185-0.246,1.621-0.738s0.655-1.207,0.655-2.145
				c0-0.914-0.219-1.617-0.655-2.109s-0.977-0.738-1.621-0.738s-1.187,0.246-1.626,0.738S98.297,219.121,98.297,220.047z"/>
			<path fill="#FFFFFF" d="M115.822,224.714h-2.47v-4.764c0-1.008-0.053-1.659-0.158-1.955s-0.277-0.526-0.514-0.69
				c-0.238-0.164-0.523-0.246-0.857-0.246c-0.428,0-0.812,0.117-1.151,0.352s-0.573,0.545-0.698,0.932
				c-0.127,0.387-0.189,1.102-0.189,2.145v4.228h-2.47v-9.334h2.294v1.371c0.814-1.055,1.84-1.582,3.076-1.582
				c0.545,0,1.043,0.099,1.494,0.295s0.792,0.446,1.023,0.751s0.393,0.65,0.484,1.037c0.09,0.387,0.136,0.94,0.136,1.661V224.714z"
				/>
			<path fill="#FFFFFF" d="M117.457,222.051l2.479-0.378c0.105,0.48,0.319,0.846,0.642,1.094c0.322,0.25,0.773,0.374,1.354,0.374
				c0.639,0,1.119-0.117,1.441-0.352c0.217-0.164,0.325-0.384,0.325-0.659c0-0.188-0.059-0.343-0.176-0.466
				c-0.123-0.117-0.398-0.226-0.826-0.325c-1.992-0.439-3.255-0.841-3.788-1.204c-0.738-0.504-1.107-1.204-1.107-2.101
				c0-0.809,0.319-1.488,0.958-2.039s1.629-0.826,2.971-0.826c1.277,0,2.227,0.208,2.848,0.624s1.049,1.031,1.283,1.846
				l-2.329,0.431c-0.1-0.363-0.289-0.642-0.567-0.835s-0.675-0.29-1.19-0.29c-0.65,0-1.116,0.091-1.397,0.272
				c-0.188,0.129-0.281,0.296-0.281,0.501c0,0.176,0.082,0.325,0.246,0.448c0.223,0.164,0.991,0.396,2.307,0.694
				s2.234,0.665,2.756,1.099c0.516,0.439,0.773,1.052,0.773,1.837c0,0.855-0.357,1.591-1.072,2.206s-1.772,0.923-3.173,0.923
				c-1.271,0-2.278-0.258-3.019-0.773C118.17,223.636,117.686,222.936,117.457,222.051z"/>
			<path fill="#FFFFFF" d="M134.481,224.714v-1.397c-0.34,0.498-0.787,0.891-1.34,1.178c-0.555,0.287-1.139,0.431-1.754,0.431
				c-0.627,0-1.189-0.138-1.688-0.413s-0.858-0.662-1.081-1.16s-0.334-1.187-0.334-2.065v-5.906h2.47v4.289
				c0,1.313,0.045,2.117,0.137,2.412c0.09,0.297,0.256,0.531,0.496,0.703c0.24,0.174,0.545,0.26,0.914,0.26
				c0.422,0,0.8-0.115,1.134-0.348c0.334-0.23,0.563-0.518,0.686-0.861c0.123-0.342,0.185-1.182,0.185-2.518v-3.938h2.47v9.334
				H134.481z"/>
			<path fill="#FFFFFF" d="M139.333,224.714v-12.885h2.47v12.885H139.333z"/>
			<path fill="#FFFFFF" d="M148.614,215.38v1.969h-1.688v3.762c0,0.762,0.016,1.206,0.049,1.332
				c0.031,0.126,0.105,0.229,0.219,0.312c0.115,0.082,0.254,0.123,0.418,0.123c0.229,0,0.56-0.079,0.993-0.237l0.211,1.916
				c-0.574,0.246-1.225,0.369-1.951,0.369c-0.445,0-0.847-0.074-1.204-0.225c-0.357-0.148-0.619-0.342-0.787-0.58
				c-0.166-0.236-0.282-0.558-0.347-0.962c-0.053-0.287-0.079-0.867-0.079-1.74v-4.069h-1.134v-1.969h1.134v-1.854l2.479-1.441
				v3.296H148.614z"/>
			<path fill="#FFFFFF" d="M149.757,219.915c0-0.82,0.202-1.614,0.606-2.382s0.977-1.354,1.718-1.758s1.569-0.606,2.483-0.606
				c1.412,0,2.569,0.459,3.472,1.375c0.902,0.918,1.354,2.076,1.354,3.477c0,1.412-0.456,2.583-1.367,3.512s-2.058,1.393-3.44,1.393
				c-0.855,0-1.672-0.193-2.448-0.58s-1.366-0.953-1.771-1.701C149.959,221.897,149.757,220.987,149.757,219.915z M152.288,220.047
				c0,0.926,0.22,1.635,0.659,2.127s0.981,0.738,1.626,0.738s1.185-0.246,1.621-0.738s0.655-1.207,0.655-2.145
				c0-0.914-0.219-1.617-0.655-2.109s-0.977-0.738-1.621-0.738s-1.187,0.246-1.626,0.738S152.288,219.121,152.288,220.047z"/>
			<path fill="#FFFFFF" d="M163.688,224.714h-2.47v-9.334h2.294v1.327c0.393-0.627,0.745-1.04,1.059-1.239s0.67-0.299,1.068-0.299
				c0.563,0,1.104,0.155,1.626,0.466l-0.765,2.153c-0.416-0.27-0.803-0.404-1.16-0.404c-0.346,0-0.639,0.096-0.879,0.285
				c-0.24,0.191-0.43,0.535-0.566,1.033c-0.139,0.498-0.207,1.541-0.207,3.129V224.714z"/>
			<path fill="#FFFFFF" d="M168.328,214.114v-2.285h2.47v2.285H168.328z M168.328,224.714v-9.334h2.47v9.334H168.328z"/>
			<path fill="#FFFFFF" d="M172.758,219.915c0-0.82,0.202-1.614,0.606-2.382s0.977-1.354,1.718-1.758s1.569-0.606,2.483-0.606
				c1.412,0,2.569,0.459,3.472,1.375c0.902,0.918,1.354,2.076,1.354,3.477c0,1.412-0.456,2.583-1.367,3.512s-2.058,1.393-3.44,1.393
				c-0.855,0-1.672-0.193-2.448-0.58s-1.366-0.953-1.771-1.701C172.96,221.897,172.758,220.987,172.758,219.915z M175.289,220.047
				c0,0.926,0.22,1.635,0.659,2.127s0.981,0.738,1.626,0.738s1.185-0.246,1.621-0.738s0.655-1.207,0.655-2.145
				c0-0.914-0.219-1.617-0.655-2.109s-0.977-0.738-1.621-0.738s-1.187,0.246-1.626,0.738S175.289,219.121,175.289,220.047z"/>
			<path fill="#FFFFFF" d="M184.324,224.714v-2.47h2.47v2.47H184.324z"/>
		</g>
	</g>
</g>
<g>
	<path fill="#FFCD07" d="M1.238,26.585V0.108h19.631v4.479H6.584v5.869h13.292v4.461H6.584v7.206h14.791v4.461H1.238z"/>
	<path fill="#FFCD07" d="M30.838,7.405v18.584c0,2.443-0.159,4.169-0.479,5.174s-0.933,1.791-1.842,2.357
		c-0.909,0.565-2.068,0.849-3.477,0.849c-0.506,0-1.051-0.045-1.635-0.136c-0.584-0.09-1.213-0.226-1.887-0.406l0.885-4.335
		c0.241,0.049,0.467,0.088,0.677,0.118c0.211,0.029,0.406,0.045,0.587,0.045c0.518,0,0.942-0.111,1.273-0.334
		s0.551-0.491,0.659-0.804c0.108-0.313,0.163-1.253,0.163-2.817V7.405H30.838z M25.764,4.805V0.108h5.074v4.696H25.764z"/>
	<path fill="#FFCD07" d="M47.255,20.48l5.057,0.849c-0.649,1.854-1.677,3.267-3.079,4.235c-1.402,0.97-3.157,1.454-5.265,1.454
		c-3.335,0-5.804-1.09-7.404-3.27c-1.265-1.745-1.896-3.948-1.896-6.609c0-3.179,0.831-5.668,2.492-7.468
		c1.662-1.8,3.763-2.7,6.303-2.7c2.854,0,5.105,0.942,6.755,2.826c1.649,1.885,2.438,4.771,2.366,8.66H39.868
		c0.036,1.505,0.445,2.676,1.229,3.513c0.782,0.837,1.758,1.255,2.926,1.255c0.795,0,1.463-0.217,2.005-0.65
		C46.568,22.143,46.978,21.444,47.255,20.48z M47.544,15.352c-0.036-1.469-0.415-2.586-1.138-3.351
		c-0.723-0.764-1.602-1.146-2.637-1.146c-1.108,0-2.022,0.403-2.745,1.21s-1.078,1.902-1.065,3.287H47.544z"/>
	<path fill="#FFCD07" d="M56.339,7.405h4.678v2.618c1.674-2.034,3.666-3.052,5.978-3.052c1.229,0,2.294,0.253,3.197,0.759
		c0.903,0.505,1.644,1.271,2.222,2.293c0.842-1.022,1.751-1.788,2.727-2.293c0.976-0.506,2.017-0.759,3.124-0.759
		c1.409,0,2.602,0.286,3.576,0.857c0.976,0.572,1.704,1.412,2.186,2.52c0.349,0.819,0.523,2.144,0.523,3.974v12.263h-5.074V15.622
		c0-1.902-0.175-3.13-0.524-3.684c-0.47-0.723-1.191-1.084-2.167-1.084c-0.711,0-1.379,0.217-2.005,0.65s-1.077,1.068-1.354,1.905
		s-0.415,2.158-0.415,3.964v9.211h-5.075V16.074c0-1.866-0.09-3.07-0.271-3.612s-0.461-0.945-0.84-1.21
		c-0.38-0.265-0.895-0.397-1.544-0.397c-0.783,0-1.487,0.211-2.113,0.632c-0.626,0.422-1.075,1.029-1.346,1.824
		s-0.406,2.113-0.406,3.955v9.319h-5.075V7.405z"/>
	<path fill="#FFCD07" d="M89.462,7.405h4.731v2.817c0.614-0.963,1.444-1.746,2.492-2.348c1.048-0.603,2.209-0.903,3.485-0.903
		c2.228,0,4.118,0.873,5.671,2.618c1.554,1.746,2.33,4.179,2.33,7.297c0,3.203-0.783,5.692-2.348,7.468
		c-1.565,1.776-3.462,2.664-5.689,2.664c-1.06,0-2.02-0.211-2.88-0.632c-0.861-0.422-1.768-1.145-2.719-2.168v9.662h-5.074V7.405z
		 M94.482,16.67c0,2.155,0.427,3.747,1.282,4.777c0.854,1.029,1.896,1.544,3.124,1.544c1.18,0,2.161-0.473,2.944-1.418
		c0.782-0.945,1.174-2.495,1.174-4.65c0-2.011-0.403-3.504-1.21-4.479c-0.807-0.975-1.807-1.463-2.998-1.463
		c-1.24,0-2.27,0.479-3.089,1.437C94.892,13.374,94.482,14.792,94.482,16.67z"/>
	<path fill="#FFCD07" d="M112.2,26.585V0.108h5.074v26.477H112.2z"/>
	<path fill="#FFCD07" d="M121.302,16.724c0-1.686,0.416-3.316,1.247-4.894c0.83-1.577,2.007-2.781,3.53-3.612
		s3.224-1.246,5.103-1.246c2.901,0,5.279,0.942,7.133,2.826c1.854,1.885,2.782,4.266,2.782,7.143c0,2.902-0.937,5.308-2.809,7.216
		c-1.873,1.908-4.229,2.862-7.071,2.862c-1.758,0-3.434-0.397-5.029-1.192c-1.596-0.794-2.809-1.959-3.639-3.494
		C121.718,20.797,121.302,18.928,121.302,16.724z M126.504,16.995c0,1.902,0.451,3.359,1.354,4.37
		c0.902,1.012,2.017,1.518,3.341,1.518s2.435-0.506,3.332-1.518c0.896-1.011,1.346-2.479,1.346-4.406
		c0-1.878-0.449-3.323-1.346-4.335c-0.897-1.011-2.008-1.517-3.332-1.517s-2.438,0.506-3.341,1.517
		C126.955,13.636,126.504,15.093,126.504,16.995z"/>
	<path fill="#FFCD07" d="M154.082,19.56l4.912-0.596c0.156,1.252,0.578,2.209,1.265,2.871s1.517,0.993,2.492,0.993
		c1.048,0,1.93-0.397,2.646-1.191c0.717-0.795,1.075-1.866,1.075-3.215c0-1.276-0.344-2.287-1.029-3.034
		c-0.687-0.746-1.523-1.12-2.511-1.12c-0.65,0-1.427,0.127-2.33,0.38l0.561-4.136c1.372,0.036,2.42-0.263,3.142-0.895
		c0.723-0.632,1.084-1.472,1.084-2.52c0-0.891-0.265-1.601-0.795-2.131c-0.529-0.529-1.234-0.795-2.112-0.795
		c-0.867,0-1.607,0.302-2.222,0.903c-0.614,0.603-0.987,1.481-1.12,2.637l-4.678-0.795c0.325-1.601,0.815-2.88,1.473-3.837
		c0.655-0.958,1.571-1.71,2.745-2.258S161.168,0,162.625,0c2.492,0,4.49,0.795,5.995,2.385c1.24,1.3,1.86,2.769,1.86,4.406
		c0,2.324-1.271,4.178-3.811,5.563c1.518,0.325,2.73,1.054,3.64,2.186c0.908,1.132,1.363,2.498,1.363,4.1
		c0,2.323-0.849,4.305-2.547,5.941c-1.697,1.638-3.811,2.456-6.339,2.456c-2.396,0-4.383-0.688-5.96-2.067
		S154.335,21.787,154.082,19.56z"/>
	<path fill="#FFCD07" d="M175.917,26.585V21.51h5.074v5.075H175.917z"/>
	<path fill="#FFCD07" d="M1.256,70.97V44.493h11.252c2.829,0,4.885,0.238,6.167,0.714s2.309,1.321,3.079,2.537
		c0.771,1.217,1.156,2.607,1.156,4.172c0,1.987-0.584,3.628-1.752,4.922s-2.914,2.11-5.237,2.447
		c1.155,0.674,2.109,1.414,2.862,2.221s1.767,2.24,3.043,4.299l3.233,5.165h-6.394l-3.865-5.761
		c-1.372-2.06-2.312-3.356-2.817-3.893c-0.506-0.535-1.041-0.903-1.607-1.102c-0.565-0.198-1.463-0.298-2.69-0.298H6.602V70.97
		H1.256z M6.602,55.69h3.955c2.564,0,4.166-0.108,4.805-0.325c0.638-0.216,1.138-0.589,1.499-1.119
		c0.36-0.529,0.541-1.192,0.541-1.986c0-0.892-0.237-1.61-0.713-2.158s-1.146-0.895-2.014-1.039c-0.434-0.06-1.734-0.09-3.901-0.09
		H6.602V55.69z"/>
	<path fill="#FFCD07" d="M39.02,64.865l5.057,0.849c-0.649,1.854-1.677,3.267-3.079,4.235c-1.402,0.97-3.157,1.454-5.265,1.454
		c-3.335,0-5.804-1.09-7.404-3.27c-1.265-1.745-1.896-3.948-1.896-6.609c0-3.179,0.831-5.668,2.492-7.468
		c1.662-1.8,3.763-2.7,6.303-2.7c2.854,0,5.105,0.942,6.755,2.826c1.649,1.885,2.438,4.771,2.366,8.66H31.633
		c0.036,1.505,0.445,2.676,1.229,3.513c0.782,0.837,1.758,1.255,2.926,1.255c0.795,0,1.463-0.217,2.005-0.65
		C38.333,66.527,38.742,65.829,39.02,64.865z M39.309,59.736c-0.036-1.469-0.415-2.586-1.138-3.351
		c-0.723-0.764-1.602-1.146-2.637-1.146c-1.108,0-2.022,0.403-2.745,1.21s-1.078,1.902-1.065,3.287H39.309z"/>
	<path fill="#FFCD07" d="M61.017,78.266v-9.644c-0.662,0.854-1.487,1.532-2.474,2.031c-0.988,0.5-2.054,0.75-3.197,0.75
		c-2.18,0-3.973-0.818-5.382-2.456c-1.661-1.915-2.492-4.509-2.492-7.784c0-3.082,0.779-5.487,2.339-7.215
		c1.559-1.728,3.494-2.592,5.807-2.592c1.275,0,2.381,0.271,3.313,0.813s1.761,1.36,2.483,2.456V51.79h4.678v26.476H61.017z
		 M61.18,61.145c0-1.962-0.4-3.422-1.201-4.379s-1.804-1.436-3.007-1.436c-1.229,0-2.255,0.487-3.08,1.462
		c-0.824,0.976-1.236,2.523-1.236,4.642c0,2.107,0.396,3.628,1.191,4.561c0.795,0.934,1.776,1.399,2.944,1.399
		c1.167,0,2.19-0.523,3.07-1.571C60.739,64.775,61.18,63.216,61.18,61.145z"/>
	<path fill="#FFCD07" d="M83.701,70.97v-2.871c-0.699,1.023-1.617,1.83-2.755,2.42s-2.339,0.885-3.603,0.885
		c-1.289,0-2.444-0.283-3.468-0.849c-1.023-0.566-1.764-1.36-2.222-2.385c-0.457-1.022-0.686-2.438-0.686-4.244V51.79h5.074v8.813
		c0,2.697,0.094,4.35,0.28,4.957c0.187,0.608,0.526,1.09,1.021,1.445c0.493,0.354,1.119,0.532,1.878,0.532
		c0.867,0,1.644-0.237,2.33-0.713s1.155-1.065,1.408-1.771c0.253-0.704,0.38-2.429,0.38-5.174V51.79h5.074v19.18H83.701z"/>
	<path fill="#FFCD07" d="M104.777,64.865l5.057,0.849c-0.649,1.854-1.677,3.267-3.079,4.235c-1.402,0.97-3.157,1.454-5.265,1.454
		c-3.335,0-5.804-1.09-7.404-3.27c-1.265-1.745-1.896-3.948-1.896-6.609c0-3.179,0.831-5.668,2.492-7.468
		c1.662-1.8,3.763-2.7,6.303-2.7c2.854,0,5.105,0.942,6.755,2.826c1.649,1.885,2.438,4.771,2.366,8.66H97.391
		c0.036,1.505,0.445,2.676,1.229,3.513c0.782,0.837,1.758,1.255,2.926,1.255c0.795,0,1.463-0.217,2.005-0.65
		C104.091,66.527,104.5,65.829,104.777,64.865z M105.066,59.736c-0.036-1.469-0.415-2.586-1.138-3.351
		c-0.723-0.764-1.602-1.146-2.637-1.146c-1.108,0-2.022,0.403-2.745,1.21s-1.078,1.902-1.065,3.287H105.066z"/>
	<path fill="#FFCD07" d="M119.099,70.97h-5.074V51.79h4.713v2.727c0.807-1.288,1.532-2.137,2.177-2.546
		c0.644-0.409,1.375-0.614,2.194-0.614c1.156,0,2.27,0.319,3.341,0.957l-1.571,4.425c-0.854-0.554-1.649-0.831-2.384-0.831
		c-0.71,0-1.313,0.196-1.806,0.587c-0.494,0.392-0.883,1.1-1.165,2.122c-0.283,1.023-0.425,3.167-0.425,6.43V70.97z"/>
	<path fill="#FFCD07" d="M128.635,49.189v-4.696h5.074v4.696H128.635z M128.635,70.97V51.79h5.074v19.18H128.635z"/>
	<path fill="#FFCD07" d="M138.531,51.79h4.678v2.618c1.674-2.034,3.666-3.052,5.978-3.052c1.229,0,2.294,0.253,3.197,0.759
		c0.903,0.505,1.644,1.271,2.222,2.293c0.842-1.022,1.751-1.788,2.727-2.293c0.976-0.506,2.017-0.759,3.124-0.759
		c1.409,0,2.602,0.286,3.576,0.857c0.976,0.572,1.704,1.412,2.186,2.52c0.349,0.819,0.523,2.144,0.523,3.974V70.97h-5.074V60.007
		c0-1.902-0.175-3.13-0.524-3.684c-0.47-0.723-1.191-1.084-2.167-1.084c-0.711,0-1.379,0.217-2.005,0.65s-1.077,1.068-1.354,1.905
		s-0.415,2.158-0.415,3.964v9.211h-5.075V60.459c0-1.866-0.09-3.07-0.271-3.612s-0.461-0.945-0.84-1.21
		c-0.38-0.265-0.895-0.397-1.544-0.397c-0.783,0-1.487,0.211-2.113,0.632c-0.626,0.422-1.075,1.029-1.346,1.824
		s-0.406,2.113-0.406,3.955v9.319h-5.075V51.79z"/>
	<path fill="#FFCD07" d="M171.799,49.189v-4.696h5.074v4.696H171.799z M171.799,70.97V51.79h5.074v19.18H171.799z"/>
	<path fill="#FFCD07" d="M193.182,64.865l5.057,0.849c-0.649,1.854-1.677,3.267-3.079,4.235c-1.402,0.97-3.157,1.454-5.265,1.454
		c-3.335,0-5.804-1.09-7.404-3.27c-1.265-1.745-1.896-3.948-1.896-6.609c0-3.179,0.831-5.668,2.492-7.468
		c1.662-1.8,3.763-2.7,6.303-2.7c2.854,0,5.105,0.942,6.755,2.826c1.649,1.885,2.438,4.771,2.366,8.66h-12.715
		c0.036,1.505,0.445,2.676,1.229,3.513c0.782,0.837,1.758,1.255,2.926,1.255c0.795,0,1.463-0.217,2.005-0.65
		C192.495,66.527,192.904,65.829,193.182,64.865z M193.471,59.736c-0.036-1.469-0.415-2.586-1.138-3.351
		c-0.723-0.764-1.602-1.146-2.637-1.146c-1.108,0-2.022,0.403-2.745,1.21s-1.078,1.902-1.065,3.287H193.471z"/>
	<path fill="#FFCD07" d="M220.091,70.97h-5.074v-9.789c0-2.07-0.108-3.41-0.325-4.018c-0.217-0.608-0.569-1.081-1.057-1.418
		s-1.074-0.506-1.761-0.506c-0.879,0-1.668,0.241-2.366,0.723s-1.177,1.119-1.436,1.914s-0.389,2.264-0.389,4.407v8.687h-5.074
		V51.79h4.713v2.817c1.674-2.167,3.781-3.251,6.321-3.251c1.12,0,2.144,0.202,3.07,0.604c0.927,0.404,1.628,0.919,2.104,1.545
		c0.476,0.626,0.806,1.336,0.993,2.131c0.187,0.795,0.279,1.933,0.279,3.413V70.97z"/>
	<path fill="#FFCD07" d="M234.034,51.79v4.045h-3.468v7.73c0,1.564,0.033,2.477,0.1,2.735c0.066,0.26,0.217,0.473,0.451,0.642
		c0.235,0.169,0.521,0.253,0.858,0.253c0.47,0,1.149-0.163,2.04-0.487l0.434,3.937c-1.18,0.506-2.517,0.759-4.009,0.759
		c-0.915,0-1.74-0.153-2.475-0.461c-0.734-0.307-1.273-0.704-1.616-1.191c-0.343-0.488-0.581-1.147-0.714-1.978
		c-0.108-0.59-0.162-1.782-0.162-3.576v-8.362h-2.33V51.79h2.33v-3.811l5.093-2.962v6.772H234.034z"/>
	<path fill="#FFCD07" d="M236.382,61.108c0-1.686,0.416-3.316,1.247-4.894c0.83-1.577,2.007-2.781,3.53-3.612
		s3.224-1.246,5.103-1.246c2.901,0,5.279,0.942,7.133,2.826c1.854,1.885,2.782,4.266,2.782,7.143c0,2.902-0.937,5.308-2.809,7.216
		c-1.873,1.908-4.229,2.862-7.071,2.862c-1.758,0-3.434-0.397-5.029-1.192c-1.596-0.794-2.809-1.959-3.639-3.494
		C236.798,65.182,236.382,63.313,236.382,61.108z M241.584,61.38c0,1.902,0.451,3.359,1.354,4.37
		c0.902,1.012,2.017,1.518,3.341,1.518s2.435-0.506,3.332-1.518c0.896-1.011,1.346-2.479,1.346-4.406
		c0-1.878-0.449-3.323-1.346-4.335c-0.897-1.011-2.008-1.517-3.332-1.517s-2.438,0.506-3.341,1.517
		C242.035,58.021,241.584,59.478,241.584,61.38z"/>
	<path fill="#FFCD07" d="M258.362,65.497l5.093-0.776c0.217,0.987,0.656,1.737,1.318,2.249s1.589,0.768,2.781,0.768
		c1.313,0,2.3-0.241,2.962-0.723c0.445-0.337,0.668-0.788,0.668-1.354c0-0.386-0.12-0.704-0.361-0.957
		c-0.253-0.241-0.818-0.464-1.697-0.669c-4.094-0.902-6.688-1.728-7.784-2.474c-1.517-1.035-2.275-2.475-2.275-4.316
		c0-1.662,0.656-3.059,1.969-4.19c1.312-1.131,3.347-1.697,6.104-1.697c2.624,0,4.575,0.428,5.852,1.282
		c1.275,0.855,2.154,2.119,2.637,3.793l-4.786,0.885c-0.205-0.747-0.594-1.318-1.165-1.716c-0.572-0.397-1.388-0.596-2.447-0.596
		c-1.336,0-2.294,0.187-2.871,0.56c-0.386,0.265-0.578,0.608-0.578,1.029c0,0.361,0.168,0.668,0.506,0.921
		c0.457,0.338,2.037,0.813,4.74,1.427s4.59,1.367,5.662,2.258c1.06,0.903,1.589,2.161,1.589,3.774c0,1.758-0.734,3.269-2.203,4.533
		s-3.642,1.896-6.52,1.896c-2.613,0-4.681-0.53-6.204-1.59C259.828,68.755,258.832,67.315,258.362,65.497z"/>
	<path fill="#FFCD07" d="M290.853,51.79h4.731v2.817c0.614-0.963,1.444-1.746,2.492-2.348c1.048-0.603,2.209-0.903,3.485-0.903
		c2.228,0,4.118,0.873,5.671,2.618c1.554,1.746,2.33,4.179,2.33,7.297c0,3.203-0.783,5.692-2.348,7.468
		c-1.565,1.776-3.462,2.664-5.689,2.664c-1.06,0-2.02-0.211-2.88-0.632c-0.861-0.422-1.768-1.145-2.719-2.168v9.662h-5.074V51.79z
		 M295.873,61.055c0,2.155,0.427,3.747,1.282,4.777c0.854,1.029,1.896,1.544,3.124,1.544c1.18,0,2.161-0.473,2.944-1.418
		c0.782-0.945,1.174-2.495,1.174-4.65c0-2.011-0.403-3.504-1.21-4.479c-0.807-0.975-1.807-1.463-2.998-1.463
		c-1.24,0-2.27,0.479-3.089,1.437C296.282,57.759,295.873,59.177,295.873,61.055z"/>
	<path fill="#FFCD07" d="M317.383,57.642l-4.605-0.831c0.518-1.854,1.409-3.227,2.673-4.118c1.265-0.891,3.143-1.336,5.635-1.336
		c2.264,0,3.949,0.268,5.058,0.804c1.107,0.536,1.887,1.216,2.339,2.041c0.451,0.824,0.677,2.339,0.677,4.542l-0.054,5.924
		c0,1.686,0.081,2.929,0.243,3.729c0.163,0.801,0.467,1.658,0.912,2.573h-5.021c-0.133-0.337-0.295-0.837-0.487-1.499
		c-0.085-0.301-0.145-0.499-0.181-0.596c-0.867,0.843-1.795,1.475-2.781,1.896c-0.987,0.421-2.041,0.632-3.161,0.632
		c-1.975,0-3.53-0.536-4.668-1.607s-1.707-2.426-1.707-4.063c0-1.084,0.259-2.05,0.776-2.898c0.518-0.85,1.243-1.499,2.177-1.951
		c0.933-0.451,2.278-0.846,4.036-1.183c2.372-0.445,4.016-0.86,4.931-1.246v-0.506c0-0.976-0.241-1.671-0.723-2.086
		s-1.391-0.623-2.727-0.623c-0.903,0-1.607,0.178-2.113,0.533C318.105,56.127,317.696,56.75,317.383,57.642z M324.174,61.759
		c-0.65,0.217-1.68,0.476-3.089,0.776c-1.408,0.302-2.329,0.597-2.763,0.886c-0.662,0.469-0.993,1.065-0.993,1.788
		c0,0.71,0.265,1.324,0.794,1.842c0.53,0.518,1.204,0.776,2.023,0.776c0.915,0,1.788-0.301,2.618-0.903
		c0.614-0.457,1.018-1.017,1.21-1.679c0.133-0.434,0.199-1.259,0.199-2.475V61.759z"/>
	<path fill="#FFCD07" d="M339.019,70.97h-5.074V51.79h4.713v2.727c0.807-1.288,1.532-2.137,2.177-2.546
		c0.644-0.409,1.375-0.614,2.194-0.614c1.156,0,2.27,0.319,3.341,0.957l-1.571,4.425c-0.854-0.554-1.649-0.831-2.384-0.831
		c-0.71,0-1.313,0.196-1.806,0.587c-0.494,0.392-0.883,1.1-1.165,2.122c-0.283,1.023-0.425,3.167-0.425,6.43V70.97z"/>
	<path fill="#FFCD07" d="M352.347,57.642l-4.605-0.831c0.518-1.854,1.409-3.227,2.673-4.118c1.265-0.891,3.143-1.336,5.635-1.336
		c2.264,0,3.949,0.268,5.058,0.804c1.107,0.536,1.887,1.216,2.339,2.041c0.451,0.824,0.677,2.339,0.677,4.542l-0.054,5.924
		c0,1.686,0.081,2.929,0.243,3.729c0.163,0.801,0.467,1.658,0.912,2.573h-5.021c-0.133-0.337-0.295-0.837-0.487-1.499
		c-0.085-0.301-0.145-0.499-0.181-0.596c-0.867,0.843-1.795,1.475-2.781,1.896c-0.987,0.421-2.041,0.632-3.161,0.632
		c-1.975,0-3.53-0.536-4.668-1.607s-1.707-2.426-1.707-4.063c0-1.084,0.259-2.05,0.776-2.898c0.518-0.85,1.243-1.499,2.177-1.951
		c0.933-0.451,2.278-0.846,4.036-1.183c2.372-0.445,4.016-0.86,4.931-1.246v-0.506c0-0.976-0.241-1.671-0.723-2.086
		s-1.391-0.623-2.727-0.623c-0.903,0-1.607,0.178-2.113,0.533C353.069,56.127,352.66,56.75,352.347,57.642z M359.138,61.759
		c-0.65,0.217-1.68,0.476-3.089,0.776c-1.408,0.302-2.329,0.597-2.763,0.886c-0.662,0.469-0.993,1.065-0.993,1.788
		c0,0.71,0.265,1.324,0.794,1.842c0.53,0.518,1.204,0.776,2.023,0.776c0.915,0,1.788-0.301,2.618-0.903
		c0.614-0.457,1.018-1.017,1.21-1.679c0.133-0.434,0.199-1.259,0.199-2.475V61.759z"/>
	<path fill="#FFCD07" d="M13.826,115.354v-2.871c-0.699,1.023-1.617,1.83-2.755,2.42s-2.339,0.885-3.603,0.885
		c-1.289,0-2.444-0.283-3.468-0.849c-1.023-0.566-1.764-1.36-2.222-2.385c-0.457-1.022-0.686-2.438-0.686-4.244V96.175h5.074v8.813
		c0,2.697,0.094,4.35,0.28,4.957c0.187,0.608,0.526,1.09,1.021,1.445c0.493,0.354,1.119,0.532,1.878,0.532
		c0.867,0,1.644-0.237,2.33-0.713s1.155-1.065,1.408-1.771c0.253-0.704,0.38-2.429,0.38-5.174v-8.091h5.074v19.18H13.826z"/>
	<path fill="#FFCD07" d="M41.241,115.354h-5.074v-9.789c0-2.07-0.108-3.41-0.325-4.018c-0.217-0.608-0.569-1.081-1.057-1.418
		s-1.074-0.506-1.761-0.506c-0.879,0-1.668,0.241-2.366,0.723s-1.177,1.119-1.436,1.914s-0.389,2.264-0.389,4.407v8.687H23.76
		v-19.18h4.713v2.817c1.674-2.167,3.781-3.251,6.321-3.251c1.12,0,2.144,0.202,3.07,0.604c0.927,0.404,1.628,0.919,2.104,1.545
		c0.476,0.626,0.806,1.336,0.993,2.131c0.187,0.795,0.279,1.933,0.279,3.413V115.354z"/>
	<path fill="#FFCD07" d="M73.39,101.846l-5.003,0.902c-0.169-0.999-0.551-1.751-1.146-2.257c-0.597-0.506-1.37-0.759-2.321-0.759
		c-1.264,0-2.272,0.437-3.025,1.31c-0.752,0.873-1.128,2.333-1.128,4.379c0,2.276,0.382,3.884,1.146,4.822
		c0.765,0.939,1.791,1.409,3.079,1.409c0.963,0,1.752-0.273,2.366-0.822c0.614-0.548,1.047-1.489,1.3-2.826l4.985,0.849
		c-0.519,2.288-1.512,4.016-2.98,5.184s-3.438,1.752-5.905,1.752c-2.806,0-5.042-0.885-6.71-2.655
		c-1.667-1.77-2.501-4.22-2.501-7.351c0-3.166,0.837-5.631,2.511-7.396c1.673-1.764,3.937-2.646,6.79-2.646
		c2.336,0,4.193,0.503,5.571,1.508C71.797,98.255,72.787,99.786,73.39,101.846z"/>
	<path fill="#FFCD07" d="M76.062,105.493c0-1.686,0.416-3.316,1.247-4.894c0.83-1.577,2.007-2.781,3.53-3.612
		s3.224-1.246,5.103-1.246c2.901,0,5.279,0.942,7.133,2.826c1.854,1.885,2.782,4.266,2.782,7.143c0,2.902-0.937,5.308-2.809,7.216
		c-1.873,1.908-4.229,2.862-7.071,2.862c-1.758,0-3.434-0.397-5.029-1.192c-1.596-0.794-2.809-1.959-3.639-3.494
		C76.478,109.566,76.062,107.697,76.062,105.493z M81.264,105.765c0,1.902,0.451,3.359,1.354,4.37
		c0.902,1.012,2.017,1.518,3.341,1.518s2.435-0.506,3.332-1.518c0.896-1.011,1.346-2.479,1.346-4.406
		c0-1.878-0.449-3.323-1.346-4.335c-0.897-1.011-2.008-1.517-3.332-1.517s-2.438,0.506-3.341,1.517
		C81.715,102.405,81.264,103.862,81.264,105.765z"/>
	<path fill="#FFCD07" d="M117.275,115.354h-5.074v-9.789c0-2.07-0.108-3.41-0.325-4.018c-0.217-0.608-0.569-1.081-1.057-1.418
		s-1.074-0.506-1.761-0.506c-0.879,0-1.668,0.241-2.366,0.723s-1.177,1.119-1.436,1.914s-0.389,2.264-0.389,4.407v8.687h-5.074
		v-19.18h4.713v2.817c1.674-2.167,3.781-3.251,6.321-3.251c1.12,0,2.144,0.202,3.07,0.604c0.927,0.404,1.628,0.919,2.104,1.545
		c0.476,0.626,0.806,1.336,0.993,2.131c0.187,0.795,0.279,1.933,0.279,3.413V115.354z"/>
	<path fill="#FFCD07" d="M120.636,109.882l5.093-0.776c0.217,0.987,0.656,1.737,1.318,2.249s1.589,0.768,2.781,0.768
		c1.313,0,2.3-0.241,2.962-0.723c0.445-0.337,0.668-0.788,0.668-1.354c0-0.386-0.12-0.704-0.361-0.957
		c-0.253-0.241-0.818-0.464-1.697-0.669c-4.094-0.902-6.688-1.728-7.784-2.474c-1.517-1.035-2.275-2.475-2.275-4.316
		c0-1.662,0.656-3.059,1.969-4.19c1.312-1.131,3.347-1.697,6.104-1.697c2.624,0,4.575,0.428,5.852,1.282
		c1.275,0.855,2.154,2.119,2.637,3.793l-4.786,0.885c-0.205-0.747-0.594-1.318-1.165-1.716c-0.572-0.397-1.388-0.596-2.447-0.596
		c-1.336,0-2.294,0.187-2.871,0.56c-0.386,0.265-0.578,0.608-0.578,1.029c0,0.361,0.168,0.668,0.506,0.921
		c0.457,0.338,2.037,0.813,4.74,1.427s4.59,1.367,5.662,2.258c1.06,0.903,1.589,2.161,1.589,3.774c0,1.758-0.734,3.269-2.203,4.533
		s-3.642,1.896-6.52,1.896c-2.613,0-4.681-0.53-6.204-1.59C122.102,113.14,121.105,111.7,120.636,109.882z"/>
	<path fill="#FFCD07" d="M155.618,115.354v-2.871c-0.699,1.023-1.617,1.83-2.755,2.42s-2.339,0.885-3.603,0.885
		c-1.289,0-2.444-0.283-3.468-0.849c-1.023-0.566-1.764-1.36-2.222-2.385c-0.457-1.022-0.686-2.438-0.686-4.244V96.175h5.074v8.813
		c0,2.697,0.094,4.35,0.28,4.957c0.187,0.608,0.526,1.09,1.021,1.445c0.493,0.354,1.119,0.532,1.878,0.532
		c0.867,0,1.644-0.237,2.33-0.713s1.155-1.065,1.408-1.771c0.253-0.704,0.38-2.429,0.38-5.174v-8.091h5.074v19.18H155.618z"/>
	<path fill="#FFCD07" d="M165.588,115.354V88.878h5.074v26.477H165.588z"/>
	<path fill="#FFCD07" d="M184.659,96.175v4.045h-3.468v7.73c0,1.564,0.033,2.477,0.1,2.735c0.066,0.26,0.217,0.473,0.451,0.642
		c0.235,0.169,0.521,0.253,0.858,0.253c0.47,0,1.149-0.163,2.04-0.487l0.434,3.937c-1.18,0.506-2.517,0.759-4.009,0.759
		c-0.915,0-1.74-0.153-2.475-0.461c-0.734-0.307-1.273-0.704-1.616-1.191c-0.343-0.488-0.581-1.147-0.714-1.978
		c-0.108-0.59-0.162-1.782-0.162-3.576v-8.362h-2.33v-4.045h2.33v-3.811l5.093-2.962v6.772H184.659z"/>
	<path fill="#FFCD07" d="M187.007,105.493c0-1.686,0.416-3.316,1.247-4.894c0.83-1.577,2.007-2.781,3.53-3.612
		s3.224-1.246,5.103-1.246c2.901,0,5.279,0.942,7.133,2.826c1.854,1.885,2.782,4.266,2.782,7.143c0,2.902-0.937,5.308-2.809,7.216
		c-1.873,1.908-4.229,2.862-7.071,2.862c-1.758,0-3.434-0.397-5.029-1.192c-1.596-0.794-2.809-1.959-3.639-3.494
		C187.423,109.566,187.007,107.697,187.007,105.493z M192.209,105.765c0,1.902,0.451,3.359,1.354,4.37
		c0.902,1.012,2.017,1.518,3.341,1.518s2.435-0.506,3.332-1.518c0.896-1.011,1.346-2.479,1.346-4.406
		c0-1.878-0.449-3.323-1.346-4.335c-0.897-1.011-2.008-1.517-3.332-1.517s-2.438,0.506-3.341,1.517
		C192.66,102.405,192.209,103.862,192.209,105.765z"/>
	<path fill="#FFCD07" d="M215.633,115.354h-5.074v-19.18h4.713v2.727c0.807-1.288,1.532-2.137,2.177-2.546
		c0.644-0.409,1.375-0.614,2.194-0.614c1.156,0,2.27,0.319,3.341,0.957l-1.571,4.425c-0.854-0.554-1.649-0.831-2.384-0.831
		c-0.71,0-1.313,0.196-1.806,0.587c-0.494,0.392-0.883,1.1-1.165,2.122c-0.283,1.023-0.425,3.167-0.425,6.43V115.354z"/>
	<path fill="#FFCD07" d="M225.169,93.574v-4.696h5.074v4.696H225.169z M225.169,115.354v-19.18h5.074v19.18H225.169z"/>
	<path fill="#FFCD07" d="M234.271,105.493c0-1.686,0.416-3.316,1.247-4.894c0.83-1.577,2.007-2.781,3.53-3.612
		s3.224-1.246,5.103-1.246c2.901,0,5.279,0.942,7.133,2.826c1.854,1.885,2.782,4.266,2.782,7.143c0,2.902-0.937,5.308-2.809,7.216
		c-1.873,1.908-4.229,2.862-7.071,2.862c-1.758,0-3.434-0.397-5.029-1.192c-1.596-0.794-2.809-1.959-3.639-3.494
		C234.687,109.566,234.271,107.697,234.271,105.493z M239.473,105.765c0,1.902,0.451,3.359,1.354,4.37
		c0.902,1.012,2.017,1.518,3.341,1.518s2.435-0.506,3.332-1.518c0.896-1.011,1.346-2.479,1.346-4.406
		c0-1.878-0.449-3.323-1.346-4.335c-0.897-1.011-2.008-1.517-3.332-1.517s-2.438,0.506-3.341,1.517
		C239.924,102.405,239.473,103.862,239.473,105.765z"/>
	<path fill="#FFCD07" d="M267.936,96.175h4.678v2.618c1.674-2.034,3.666-3.052,5.978-3.052c1.229,0,2.294,0.253,3.197,0.759
		c0.903,0.505,1.644,1.271,2.222,2.293c0.842-1.022,1.751-1.788,2.727-2.293c0.976-0.506,2.017-0.759,3.124-0.759
		c1.409,0,2.602,0.286,3.576,0.857c0.976,0.572,1.704,1.412,2.186,2.52c0.349,0.819,0.523,2.144,0.523,3.974v12.263h-5.074v-10.963
		c0-1.902-0.175-3.13-0.524-3.684c-0.47-0.723-1.191-1.084-2.167-1.084c-0.711,0-1.379,0.217-2.005,0.65s-1.077,1.068-1.354,1.905
		s-0.415,2.158-0.415,3.964v9.211h-5.075v-10.511c0-1.866-0.09-3.07-0.271-3.612s-0.461-0.945-0.84-1.21
		c-0.38-0.265-0.895-0.397-1.544-0.397c-0.783,0-1.487,0.211-2.113,0.632c-0.626,0.422-1.075,1.029-1.346,1.824
		s-0.406,2.113-0.406,3.955v9.319h-5.075V96.175z"/>
	<path fill="#FFCD07" d="M312.31,109.25l5.057,0.849c-0.649,1.854-1.677,3.267-3.079,4.235c-1.402,0.97-3.157,1.454-5.265,1.454
		c-3.335,0-5.804-1.09-7.404-3.27c-1.265-1.745-1.896-3.948-1.896-6.609c0-3.179,0.831-5.668,2.492-7.468
		c1.662-1.8,3.763-2.7,6.303-2.7c2.854,0,5.105,0.942,6.755,2.826c1.649,1.885,2.438,4.771,2.366,8.66h-12.715
		c0.036,1.505,0.445,2.676,1.229,3.513c0.782,0.837,1.758,1.255,2.926,1.255c0.795,0,1.463-0.217,2.005-0.65
		C311.623,110.912,312.032,110.214,312.31,109.25z M312.599,104.121c-0.036-1.469-0.415-2.586-1.138-3.351
		c-0.723-0.764-1.602-1.146-2.637-1.146c-1.108,0-2.022,0.403-2.745,1.21s-1.078,1.902-1.065,3.287H312.599z M306.115,93.827
		l2.492-5.4h5.688l-4.966,5.4H306.115z"/>
	<path fill="#FFCD07" d="M339.363,115.354h-4.713v-2.817c-0.783,1.096-1.707,1.911-2.772,2.447
		c-1.065,0.535-2.141,0.804-3.224,0.804c-2.204,0-4.091-0.888-5.662-2.664c-1.571-1.775-2.357-4.253-2.357-7.432
		c0-3.251,0.765-5.722,2.294-7.414c1.529-1.691,3.462-2.537,5.798-2.537c2.143,0,3.997,0.891,5.563,2.673v-9.536h5.074V115.354z
		 M325.818,105.35c0,2.047,0.283,3.527,0.849,4.442c0.819,1.324,1.963,1.986,3.432,1.986c1.168,0,2.161-0.496,2.98-1.489
		c0.818-0.994,1.228-2.478,1.228-4.452c0-2.203-0.397-3.79-1.191-4.759c-0.795-0.97-1.813-1.454-3.053-1.454
		c-1.204,0-2.212,0.479-3.025,1.436C326.225,102.017,325.818,103.447,325.818,105.35z"/>
	<path fill="#FFCD07" d="M344.367,93.574v-4.696h5.074v4.696H344.367z M344.367,115.354v-19.18h5.074v19.18H344.367z"/>
	<path fill="#FFCD07" d="M371.367,101.846l-5.003,0.902c-0.169-0.999-0.551-1.751-1.146-2.257c-0.597-0.506-1.37-0.759-2.321-0.759
		c-1.264,0-2.272,0.437-3.025,1.31c-0.752,0.873-1.128,2.333-1.128,4.379c0,2.276,0.382,3.884,1.146,4.822
		c0.765,0.939,1.791,1.409,3.079,1.409c0.963,0,1.752-0.273,2.366-0.822c0.614-0.548,1.047-1.489,1.3-2.826l4.985,0.849
		c-0.519,2.288-1.512,4.016-2.98,5.184s-3.438,1.752-5.905,1.752c-2.806,0-5.042-0.885-6.71-2.655
		c-1.667-1.77-2.501-4.22-2.501-7.351c0-3.166,0.837-5.631,2.511-7.396c1.673-1.764,3.937-2.646,6.79-2.646
		c2.336,0,4.193,0.503,5.571,1.508C369.774,98.255,370.765,99.786,371.367,101.846z"/>
	<path fill="#FFCD07" d="M374.039,105.493c0-1.686,0.416-3.316,1.247-4.894c0.83-1.577,2.007-2.781,3.53-3.612
		s3.224-1.246,5.103-1.246c2.901,0,5.279,0.942,7.133,2.826c1.854,1.885,2.782,4.266,2.782,7.143c0,2.902-0.937,5.308-2.809,7.216
		c-1.873,1.908-4.229,2.862-7.071,2.862c-1.758,0-3.434-0.397-5.029-1.192c-1.596-0.794-2.809-1.959-3.639-3.494
		C374.455,109.566,374.039,107.697,374.039,105.493z M379.241,105.765c0,1.902,0.451,3.359,1.354,4.37
		c0.902,1.012,2.017,1.518,3.341,1.518s2.435-0.506,3.332-1.518c0.896-1.011,1.346-2.479,1.346-4.406
		c0-1.878-0.449-3.323-1.346-4.335c-0.897-1.011-2.008-1.517-3.332-1.517s-2.438,0.506-3.341,1.517
		C379.692,102.405,379.241,103.862,379.241,105.765z"/>
</g>
</svg>