<!-- Generator: Adobe Illustrator 17.0.0, SVG Export Plug-In  -->
<svg version="1.1"
	 xmlns="http://www.w3.org/2000/svg" xmlns:xlink="http://www.w3.org/1999/xlink" xmlns:a="http://ns.adobe.com/AdobeSVGViewerExtensions/3.0/"
	 x="0px" y="0px" width="401.254px" height="65.155px" viewBox="0 0 401.254 65.155" enable-background="new 0 0 401.254 65.155"
	 xml:space="preserve">
<defs>
</defs>
<g>
	<rect x="0" y="2.624" fill="#D2D3D3" width="55.726" height="52.448"/>
	<g>
		<rect x="55.726" y="2.624" fill="#FFCD07" width="342.904" height="52.448"/>
		<path fill="#154A8B" d="M398.63,57.694H55.726c-1.447,0-2.623-1.173-2.623-2.622V2.624C53.103,1.176,54.278,0,55.726,0H398.63
			c1.45,0,2.624,1.176,2.624,2.624v52.448C401.254,56.521,400.08,57.694,398.63,57.694z M58.35,52.45h337.661V5.247H58.35V52.45z"/>
	</g>
	<path fill="#154A8B" stroke="#000101" stroke-width="0.5" stroke-miterlimit="10" d="M44.484,32.402
		c0-9.576-7.789-17.368-17.366-17.368c-9.577,0-17.368,7.792-17.368,17.368c0,8.943,6.794,16.323,15.49,17.264v15.239h5.246V49.438
		C38.456,47.864,44.484,40.827,44.484,32.402z M27.118,44.527c-6.685,0-12.125-5.439-12.125-12.125
		c0-6.686,5.44-12.123,12.125-12.123s12.123,5.438,12.123,12.123C39.241,39.088,33.803,44.527,27.118,44.527z"/>
</g>
<g>
	<path fill="#154A8B" d="M78.195,37.228V22.911h9.658v1.689H80.09v4.434h6.719v1.689H80.09v6.504H78.195z"/>
	<path fill="#154A8B" d="M98.229,22.911h1.895v8.271c0,1.438-0.162,2.581-0.488,3.428c-0.324,0.847-0.912,1.535-1.762,2.065
		s-1.965,0.796-3.346,0.796c-1.34,0-2.438-0.231-3.291-0.693c-0.852-0.462-1.461-1.131-1.826-2.007
		c-0.363-0.876-0.547-2.072-0.547-3.589v-8.271h1.895v8.262c0,1.243,0.115,2.16,0.348,2.749c0.23,0.589,0.627,1.043,1.191,1.362
		c0.563,0.319,1.252,0.479,2.064,0.479c1.395,0,2.387-0.315,2.979-0.947c0.594-0.632,0.889-1.846,0.889-3.643V22.911z"/>
	<path fill="#154A8B" d="M101.779,37.228V22.911h1.943l7.52,11.24v-11.24h1.816v14.316h-1.943l-7.52-11.25v11.25H101.779z"/>
	<path fill="#154A8B" d="M124.977,32.208l1.895,0.479c-0.398,1.556-1.111,2.742-2.145,3.56c-1.031,0.817-2.293,1.226-3.783,1.226
		c-1.543,0-2.799-0.314-3.766-0.942s-1.701-1.538-2.207-2.729c-0.504-1.191-0.756-2.471-0.756-3.838
		c0-1.491,0.285-2.791,0.854-3.901c0.57-1.11,1.381-1.953,2.432-2.529c1.053-0.576,2.209-0.864,3.473-0.864
		c1.432,0,2.637,0.364,3.613,1.094s1.656,1.755,2.041,3.076l-1.865,0.439c-0.332-1.042-0.814-1.8-1.445-2.275
		c-0.633-0.476-1.426-0.713-2.383-0.713c-1.102,0-2.02,0.264-2.76,0.791c-0.738,0.527-1.258,1.235-1.557,2.124
		c-0.301,0.889-0.449,1.805-0.449,2.749c0,1.218,0.178,2.28,0.531,3.188c0.355,0.908,0.906,1.587,1.656,2.036
		c0.748,0.449,1.559,0.674,2.432,0.674c1.061,0,1.959-0.306,2.695-0.918C124.217,34.32,124.715,33.412,124.977,32.208z"/>
	<path fill="#154A8B" d="M128.047,37.228V22.911h1.895v14.316H128.047z"/>
	<path fill="#154A8B" d="M131.225,30.255c0-2.376,0.639-4.236,1.914-5.581c1.277-1.345,2.924-2.017,4.941-2.017
		c1.322,0,2.514,0.315,3.574,0.947c1.063,0.632,1.871,1.512,2.428,2.642s0.834,2.41,0.834,3.843c0,1.452-0.293,2.751-0.879,3.896
		s-1.416,2.014-2.49,2.603s-2.232,0.884-3.477,0.884c-1.348,0-2.551-0.325-3.613-0.977c-1.061-0.651-1.865-1.54-2.412-2.666
		S131.225,31.512,131.225,30.255z M133.178,30.284c0,1.726,0.465,3.084,1.393,4.077s2.092,1.489,3.49,1.489
		c1.426,0,2.6-0.501,3.521-1.504c0.92-1.003,1.381-2.425,1.381-4.268c0-1.165-0.197-2.183-0.59-3.052
		c-0.395-0.869-0.971-1.543-1.729-2.021c-0.76-0.479-1.609-0.718-2.555-0.718c-1.34,0-2.494,0.461-3.461,1.382
		S133.178,28.129,133.178,30.284z"/>
	<path fill="#154A8B" d="M145.859,37.228V22.911h1.943l7.52,11.24v-11.24h1.816v14.316h-1.943l-7.52-11.25v11.25H145.859z"/>
	<path fill="#154A8B" d="M157.27,37.228l5.498-14.316h2.041l5.859,14.316h-2.158l-1.67-4.336h-5.986l-1.572,4.336H157.27z
		 M161.4,31.349h4.854l-1.494-3.965c-0.457-1.204-0.795-2.194-1.016-2.969c-0.184,0.918-0.439,1.829-0.771,2.734L161.4,31.349z"/>
	<path fill="#154A8B" d="M170.623,37.228V22.911h1.895v12.627h7.051v1.689H170.623z"/>
	<path fill="#154A8B" d="M180.383,37.228V22.911h10.352v1.689h-8.457v4.385h7.92v1.68h-7.92v4.873h8.789v1.689H180.383z"/>
	<path fill="#154A8B" d="M191.561,32.628l1.787-0.156c0.084,0.716,0.281,1.304,0.59,1.763c0.311,0.459,0.789,0.83,1.441,1.113
		c0.65,0.283,1.383,0.425,2.197,0.425c0.723,0,1.359-0.107,1.914-0.322c0.553-0.215,0.965-0.51,1.234-0.884
		c0.271-0.374,0.406-0.783,0.406-1.226c0-0.449-0.131-0.842-0.391-1.177c-0.262-0.335-0.691-0.617-1.289-0.845
		c-0.385-0.149-1.234-0.383-2.549-0.698c-1.316-0.315-2.236-0.613-2.764-0.894c-0.684-0.358-1.193-0.803-1.529-1.333
		c-0.334-0.53-0.502-1.125-0.502-1.782c0-0.723,0.205-1.398,0.615-2.026s1.008-1.105,1.797-1.431
		c0.787-0.325,1.662-0.488,2.627-0.488c1.061,0,1.996,0.171,2.807,0.513s1.434,0.845,1.871,1.509
		c0.436,0.664,0.67,1.416,0.703,2.256l-1.816,0.137c-0.098-0.905-0.428-1.589-0.992-2.051c-0.563-0.462-1.395-0.693-2.494-0.693
		c-1.146,0-1.98,0.21-2.506,0.63c-0.523,0.42-0.785,0.926-0.785,1.519c0,0.515,0.186,0.938,0.557,1.27
		c0.363,0.332,1.316,0.672,2.855,1.021c1.541,0.349,2.596,0.652,3.17,0.913c0.832,0.384,1.447,0.871,1.846,1.46
		c0.396,0.589,0.596,1.268,0.596,2.036c0,0.762-0.219,1.479-0.654,2.153c-0.438,0.674-1.063,1.198-1.881,1.572
		c-0.816,0.374-1.736,0.562-2.758,0.562c-1.297,0-2.381-0.188-3.258-0.566c-0.875-0.378-1.563-0.945-2.061-1.704
		S191.586,33.585,191.561,32.628z"/>
	<path fill="#154A8B" d="M212.174,37.228v-6.064l-5.518-8.252h2.305l2.822,4.316c0.521,0.808,1.006,1.614,1.455,2.422
		c0.43-0.749,0.951-1.592,1.563-2.529l2.773-4.209h2.207l-5.713,8.252v6.064H212.174z"/>
	<path fill="#154A8B" d="M224.059,37.228V22.911h1.943l7.52,11.24v-11.24h1.816v14.316h-1.943l-7.52-11.25v11.25H224.059z"/>
	<path fill="#154A8B" d="M236.465,30.255c0-2.376,0.637-4.236,1.914-5.581c1.275-1.345,2.922-2.017,4.941-2.017
		c1.32,0,2.512,0.315,3.574,0.947c1.061,0.632,1.869,1.512,2.426,2.642s0.836,2.41,0.836,3.843c0,1.452-0.293,2.751-0.879,3.896
		s-1.416,2.014-2.49,2.603s-2.234,0.884-3.477,0.884c-1.348,0-2.553-0.325-3.613-0.977c-1.063-0.651-1.865-1.54-2.412-2.666
		S236.465,31.512,236.465,30.255z M238.418,30.284c0,1.726,0.463,3.084,1.391,4.077s2.092,1.489,3.492,1.489
		c1.426,0,2.6-0.501,3.52-1.504c0.922-1.003,1.383-2.425,1.383-4.268c0-1.165-0.197-2.183-0.592-3.052
		c-0.393-0.869-0.969-1.543-1.729-2.021c-0.758-0.479-1.609-0.718-2.553-0.718c-1.342,0-2.496,0.461-3.463,1.382
		S238.418,28.129,238.418,30.284z"/>
	<path fill="#154A8B" d="M255.291,37.228V22.911h9.658v1.689h-7.764v4.434h6.719v1.689h-6.719v6.504H255.291z"/>
	<path fill="#154A8B" d="M275.326,22.911h1.895v8.271c0,1.438-0.164,2.581-0.488,3.428c-0.326,0.847-0.914,1.535-1.764,2.065
		s-1.965,0.796-3.344,0.796c-1.342,0-2.439-0.231-3.291-0.693c-0.854-0.462-1.463-1.131-1.826-2.007
		c-0.365-0.876-0.547-2.072-0.547-3.589v-8.271h1.895v8.262c0,1.243,0.115,2.16,0.346,2.749c0.232,0.589,0.629,1.043,1.191,1.362
		c0.564,0.319,1.252,0.479,2.066,0.479c1.393,0,2.385-0.315,2.979-0.947c0.592-0.632,0.889-1.846,0.889-3.643V22.911z"/>
	<path fill="#154A8B" d="M278.875,37.228V22.911h1.943l7.52,11.24v-11.24h1.816v14.316h-1.943l-7.52-11.25v11.25H278.875z"/>
	<path fill="#154A8B" d="M302.072,32.208l1.895,0.479c-0.396,1.556-1.111,2.742-2.143,3.56c-1.033,0.817-2.293,1.226-3.785,1.226
		c-1.543,0-2.797-0.314-3.764-0.942s-1.703-1.538-2.207-2.729c-0.506-1.191-0.758-2.471-0.758-3.838
		c0-1.491,0.285-2.791,0.855-3.901c0.568-1.11,1.379-1.953,2.432-2.529c1.051-0.576,2.209-0.864,3.471-0.864
		c1.434,0,2.637,0.364,3.613,1.094s1.658,1.755,2.041,3.076l-1.865,0.439c-0.332-1.042-0.813-1.8-1.445-2.275
		c-0.631-0.476-1.426-0.713-2.383-0.713c-1.1,0-2.02,0.264-2.758,0.791c-0.74,0.527-1.258,1.235-1.559,2.124
		c-0.299,0.889-0.449,1.805-0.449,2.749c0,1.218,0.178,2.28,0.533,3.188c0.354,0.908,0.906,1.587,1.654,2.036
		c0.75,0.449,1.561,0.674,2.432,0.674c1.063,0,1.961-0.306,2.695-0.918C301.314,34.32,301.813,33.412,302.072,32.208z"/>
	<path fill="#154A8B" d="M305.143,37.228V22.911h1.895v14.316H305.143z"/>
	<path fill="#154A8B" d="M308.322,30.255c0-2.376,0.637-4.236,1.914-5.581c1.275-1.345,2.922-2.017,4.941-2.017
		c1.32,0,2.512,0.315,3.574,0.947c1.061,0.632,1.869,1.512,2.426,2.642s0.836,2.41,0.836,3.843c0,1.452-0.293,2.751-0.879,3.896
		s-1.416,2.014-2.49,2.603s-2.234,0.884-3.477,0.884c-1.348,0-2.553-0.325-3.613-0.977c-1.063-0.651-1.865-1.54-2.412-2.666
		S308.322,31.512,308.322,30.255z M310.275,30.284c0,1.726,0.463,3.084,1.391,4.077s2.092,1.489,3.492,1.489
		c1.426,0,2.6-0.501,3.52-1.504c0.922-1.003,1.383-2.425,1.383-4.268c0-1.165-0.197-2.183-0.592-3.052
		c-0.393-0.869-0.969-1.543-1.729-2.021c-0.758-0.479-1.609-0.718-2.553-0.718c-1.342,0-2.496,0.461-3.463,1.382
		S310.275,28.129,310.275,30.284z"/>
	<path fill="#154A8B" d="M322.955,37.228V22.911h1.943l7.52,11.24v-11.24h1.816v14.316h-1.943l-7.52-11.25v11.25H322.955z"/>
	<path fill="#154A8B" d="M334.365,37.228l5.498-14.316h2.041l5.859,14.316h-2.158l-1.67-4.336h-5.986l-1.572,4.336H334.365z
		 M338.496,31.349h4.854l-1.494-3.965c-0.455-1.204-0.793-2.194-1.016-2.969c-0.182,0.918-0.439,1.829-0.771,2.734L338.496,31.349z"
		/>
	<path fill="#154A8B" d="M347.719,37.228V22.911h1.895v12.627h7.051v1.689H347.719z"/>
	<path fill="#154A8B" d="M357.479,37.228V22.911h10.352v1.689h-8.457v4.385h7.92v1.68h-7.92v4.873h8.789v1.689H357.479z"/>
	<path fill="#154A8B" d="M368.656,32.628l1.787-0.156c0.084,0.716,0.281,1.304,0.59,1.763c0.311,0.459,0.789,0.83,1.441,1.113
		c0.65,0.283,1.383,0.425,2.197,0.425c0.723,0,1.359-0.107,1.914-0.322c0.553-0.215,0.965-0.51,1.234-0.884
		c0.271-0.374,0.406-0.783,0.406-1.226c0-0.449-0.131-0.842-0.391-1.177c-0.262-0.335-0.691-0.617-1.289-0.845
		c-0.385-0.149-1.234-0.383-2.549-0.698c-1.316-0.315-2.236-0.613-2.764-0.894c-0.684-0.358-1.193-0.803-1.529-1.333
		c-0.334-0.53-0.502-1.125-0.502-1.782c0-0.723,0.205-1.398,0.615-2.026s1.008-1.105,1.797-1.431
		c0.787-0.325,1.662-0.488,2.627-0.488c1.061,0,1.996,0.171,2.807,0.513s1.434,0.845,1.871,1.509
		c0.436,0.664,0.67,1.416,0.703,2.256l-1.816,0.137c-0.098-0.905-0.428-1.589-0.992-2.051c-0.563-0.462-1.395-0.693-2.494-0.693
		c-1.146,0-1.98,0.21-2.506,0.63c-0.523,0.42-0.785,0.926-0.785,1.519c0,0.515,0.186,0.938,0.557,1.27
		c0.363,0.332,1.316,0.672,2.855,1.021c1.541,0.349,2.596,0.652,3.17,0.913c0.832,0.384,1.447,0.871,1.846,1.46
		c0.396,0.589,0.596,1.268,0.596,2.036c0,0.762-0.219,1.479-0.654,2.153c-0.438,0.674-1.063,1.198-1.881,1.572
		c-0.816,0.374-1.736,0.562-2.758,0.562c-1.297,0-2.381-0.188-3.258-0.566c-0.875-0.378-1.563-0.945-2.061-1.704
		S368.682,33.585,368.656,32.628z"/>
</g>
</svg>