<!-- Generator: Adobe Illustrator 17.0.0, SVG Export Plug-In  -->
<svg version="1.1"
	 xmlns="http://www.w3.org/2000/svg" xmlns:xlink="http://www.w3.org/1999/xlink" xmlns:a="http://ns.adobe.com/AdobeSVGViewerExtensions/3.0/"
	 x="0px" y="0px" width="313.782px" height="51.006px" viewBox="0 0 313.782 51.006" enable-background="new 0 0 313.782 51.006"
	 xml:space="preserve">
<defs>
</defs>
<g>
	<rect x="0" y="2.053" fill="#D2D3D3" width="43.577" height="41.014"/>
	<g>
		<rect x="43.577" y="2.053" fill="#FFCD07" width="268.154" height="41.014"/>
		<path fill="#154A8B" d="M311.731,45.117H43.577c-1.132,0-2.052-0.917-2.052-2.051V2.053C41.525,0.92,42.445,0,43.577,0h268.154
			c1.133,0,2.051,0.92,2.051,2.053v41.014C313.782,44.2,312.864,45.117,311.731,45.117z M45.629,41.017h264.053V4.103H45.629V41.017
			z"/>
	</g>
	<path fill="#154A8B" stroke="#000101" stroke-width="0.5" stroke-miterlimit="10" d="M34.787,25.339
		c0-7.488-6.092-13.582-13.581-13.582c-7.489,0-13.582,6.094-13.582,13.582c0,6.993,5.313,12.765,12.113,13.501v11.916h4.102V38.66
		C30.072,37.43,34.787,31.928,34.787,25.339z M21.206,34.82c-5.227,0-9.481-4.254-9.481-9.482c0-5.228,4.254-9.48,9.481-9.48
		c5.228,0,9.481,4.252,9.481,9.48C30.687,30.566,26.434,34.82,21.206,34.82z"/>
</g>
<g>
	<path fill="#154A8B" d="M72.304,29.112V18.477h4.716c0.948,0,1.669,0.096,2.162,0.287c0.493,0.19,0.888,0.527,1.183,1.012
		c0.295,0.483,0.442,1.018,0.442,1.604c0,0.754-0.244,1.391-0.732,1.908c-0.489,0.518-1.243,0.846-2.264,0.986
		c0.372,0.179,0.655,0.355,0.849,0.529c0.411,0.377,0.801,0.85,1.168,1.415l1.85,2.895h-1.77L78.5,26.899
		c-0.411-0.638-0.749-1.127-1.016-1.466c-0.266-0.338-0.504-0.575-0.714-0.711c-0.211-0.135-0.425-0.229-0.643-0.283
		c-0.159-0.033-0.421-0.051-0.783-0.051h-1.633v4.724H72.304z M73.712,23.17h3.025c0.644,0,1.146-0.066,1.509-0.199
		c0.363-0.133,0.639-0.346,0.827-0.639c0.189-0.292,0.283-0.609,0.283-0.953c0-0.504-0.183-0.917-0.548-1.24
		c-0.365-0.324-0.941-0.486-1.73-0.486h-3.366V23.17z"/>
	<path fill="#154A8B" d="M81.943,29.112V18.477h7.689v1.255H83.35v3.258h5.884v1.247H83.35v3.621h6.529v1.255H81.943z"/>
	<path fill="#154A8B" d="M98.784,27.973c0.653,0.45,1.256,0.779,1.807,0.987l-0.413,0.979c-0.765-0.275-1.526-0.711-2.285-1.307
		c-0.789,0.441-1.659,0.66-2.612,0.66c-0.962,0-1.835-0.231-2.619-0.695c-0.783-0.465-1.387-1.117-1.81-1.959
		c-0.424-0.842-0.635-1.789-0.635-2.844c0-1.05,0.213-2.006,0.639-2.866c0.425-0.86,1.031-1.517,1.816-1.966
		c0.786-0.45,1.665-0.675,2.638-0.675c0.981,0,1.867,0.233,2.655,0.7s1.39,1.119,1.803,1.959c0.414,0.839,0.62,1.785,0.62,2.84
		c0,0.875-0.133,1.662-0.398,2.361C99.722,26.848,99.321,27.455,98.784,27.973z M95.686,26.174c0.813,0.228,1.482,0.566,2.01,1.016
		c0.827-0.754,1.24-1.889,1.24-3.402c0-0.861-0.146-1.613-0.438-2.256c-0.293-0.644-0.721-1.143-1.284-1.498
		S96.017,19.5,95.316,19.5c-1.049,0-1.92,0.359-2.611,1.076c-0.691,0.719-1.037,1.791-1.037,3.219c0,1.383,0.342,2.444,1.026,3.185
		c0.685,0.739,1.559,1.11,2.622,1.11c0.503,0,0.978-0.095,1.422-0.283c-0.439-0.285-0.904-0.488-1.393-0.609L95.686,26.174z"/>
	<path fill="#154A8B" d="M108.161,18.477h1.407v6.145c0,1.069-0.121,1.918-0.363,2.547c-0.241,0.629-0.678,1.141-1.31,1.535
		c-0.631,0.394-1.459,0.59-2.484,0.59c-0.996,0-1.812-0.171-2.445-0.514c-0.634-0.344-1.086-0.841-1.356-1.492
		c-0.271-0.65-0.406-1.539-0.406-2.666v-6.145h1.407v6.138c0,0.924,0.086,1.604,0.258,2.042s0.467,0.775,0.885,1.012
		c0.419,0.238,0.93,0.355,1.535,0.355c1.034,0,1.772-0.234,2.212-0.703c0.44-0.469,0.661-1.371,0.661-2.706V18.477z"/>
	<path fill="#154A8B" d="M110.842,29.112V18.477h7.689v1.255h-6.282v3.258h5.884v1.247h-5.884v3.621h6.529v1.255H110.842z"/>
	<path fill="#154A8B" d="M119.645,29.112V18.477h4.716c0.948,0,1.669,0.096,2.162,0.287c0.493,0.19,0.888,0.527,1.183,1.012
		c0.295,0.483,0.442,1.018,0.442,1.604c0,0.754-0.244,1.391-0.732,1.908c-0.489,0.518-1.243,0.846-2.264,0.986
		c0.372,0.179,0.655,0.355,0.849,0.529c0.411,0.377,0.801,0.85,1.168,1.415l1.85,2.895h-1.77l-1.408-2.213
		c-0.411-0.638-0.749-1.127-1.016-1.466c-0.266-0.338-0.504-0.575-0.714-0.711c-0.211-0.135-0.425-0.229-0.643-0.283
		c-0.159-0.033-0.421-0.051-0.783-0.051h-1.633v4.724H119.645z M121.052,23.17h3.025c0.644,0,1.146-0.066,1.509-0.199
		c0.363-0.133,0.639-0.346,0.827-0.639c0.189-0.292,0.283-0.609,0.283-0.953c0-0.504-0.183-0.917-0.548-1.24
		c-0.365-0.324-0.941-0.486-1.73-0.486h-3.366V23.17z"/>
	<path fill="#154A8B" d="M129.494,29.112V18.477h1.407v10.636H129.494z"/>
	<path fill="#154A8B" d="M132.239,29.112V18.477h2.118l2.518,7.531c0.232,0.701,0.401,1.226,0.508,1.574
		c0.121-0.387,0.31-0.955,0.566-1.705l2.546-7.4h1.894v10.636h-1.356v-8.901l-3.091,8.901h-1.27l-3.076-9.054v9.054H132.239z"/>
	<path fill="#154A8B" d="M143.8,29.112V18.477h1.407v10.636H143.8z"/>
	<path fill="#154A8B" d="M146.618,29.112V18.477h7.689v1.255h-6.282v3.258h5.884v1.247h-5.884v3.621h6.529v1.255H146.618z"/>
	<path fill="#154A8B" d="M155.385,29.112V18.477h1.443l5.587,8.351v-8.351h1.349v10.636h-1.443l-5.586-8.358v8.358H155.385z"/>
	<path fill="#154A8B" d="M167.736,29.112v-9.381h-3.504v-1.255h8.43v1.255h-3.519v9.381H167.736z"/>
	<path fill="#154A8B" d="M172.578,23.932c0-1.765,0.475-3.146,1.423-4.146c0.947-0.999,2.171-1.498,3.671-1.498
		c0.981,0,1.866,0.234,2.655,0.704c0.788,0.469,1.389,1.123,1.803,1.962c0.413,0.839,0.62,1.791,0.62,2.854
		c0,1.079-0.218,2.044-0.653,2.895c-0.435,0.852-1.052,1.496-1.85,1.934s-1.659,0.656-2.583,0.656c-1.001,0-1.896-0.241-2.685-0.725
		c-0.788-0.484-1.385-1.145-1.791-1.98C172.781,25.751,172.578,24.865,172.578,23.932z M174.029,23.954
		c0,1.282,0.345,2.292,1.034,3.028c0.689,0.738,1.554,1.107,2.594,1.107c1.059,0,1.931-0.373,2.615-1.117
		c0.685-0.745,1.026-1.803,1.026-3.171c0-0.866-0.146-1.622-0.438-2.267c-0.293-0.646-0.721-1.146-1.284-1.502
		s-1.196-0.533-1.897-0.533c-0.996,0-1.854,0.342-2.572,1.025C174.388,21.211,174.029,22.353,174.029,23.954z"/>
	<path fill="#154A8B" d="M186.493,29.112V18.477h3.663c0.827,0,1.459,0.051,1.894,0.152c0.609,0.141,1.13,0.395,1.561,0.762
		c0.561,0.475,0.98,1.08,1.259,1.817c0.277,0.737,0.417,1.581,0.417,2.528c0,0.809-0.095,1.523-0.283,2.147s-0.431,1.14-0.726,1.549
		s-0.618,0.73-0.969,0.965c-0.351,0.235-0.773,0.413-1.27,0.534c-0.495,0.12-1.065,0.181-1.708,0.181H186.493z M187.9,27.857h2.271
		c0.701,0,1.252-0.065,1.65-0.196c0.399-0.13,0.718-0.313,0.954-0.552c0.334-0.333,0.594-0.781,0.78-1.346
		c0.187-0.563,0.279-1.246,0.279-2.049c0-1.113-0.183-1.967-0.548-2.564s-0.809-0.998-1.331-1.201
		c-0.377-0.145-0.984-0.218-1.821-0.218H187.9V27.857z"/>
	<path fill="#154A8B" d="M196.153,29.112V18.477h7.689v1.255h-6.282v3.258h5.884v1.247h-5.884v3.621h6.529v1.255H196.153z"/>
	<path fill="#154A8B" d="M207.483,25.695l1.328-0.116c0.063,0.532,0.209,0.969,0.438,1.31c0.23,0.341,0.587,0.617,1.07,0.827
		s1.028,0.315,1.633,0.315c0.537,0,1.011-0.08,1.422-0.239s0.717-0.378,0.918-0.657c0.2-0.277,0.301-0.581,0.301-0.91
		c0-0.334-0.097-0.625-0.29-0.874s-0.513-0.458-0.958-0.628c-0.285-0.111-0.916-0.283-1.894-0.518
		c-0.977-0.235-1.661-0.457-2.053-0.664c-0.508-0.267-0.887-0.597-1.136-0.99c-0.249-0.395-0.374-0.836-0.374-1.324
		c0-0.537,0.153-1.039,0.458-1.506s0.749-0.82,1.334-1.063c0.586-0.242,1.236-0.363,1.952-0.363c0.788,0,1.483,0.127,2.086,0.381
		c0.602,0.254,1.065,0.628,1.389,1.121c0.324,0.494,0.498,1.053,0.522,1.676l-1.35,0.102c-0.072-0.672-0.317-1.18-0.736-1.523
		c-0.418-0.344-1.036-0.516-1.854-0.516c-0.851,0-1.472,0.156-1.86,0.469c-0.39,0.313-0.584,0.688-0.584,1.128
		c0,0.382,0.138,0.696,0.413,0.943c0.271,0.247,0.979,0.499,2.122,0.758s1.929,0.485,2.354,0.679
		c0.619,0.285,1.076,0.646,1.371,1.084s0.442,0.942,0.442,1.514c0,0.565-0.162,1.099-0.486,1.6c-0.323,0.5-0.789,0.89-1.396,1.168
		c-0.606,0.277-1.29,0.416-2.049,0.416c-0.963,0-1.77-0.14-2.42-0.42c-0.65-0.281-1.161-0.703-1.53-1.266
		C207.698,27.043,207.503,26.406,207.483,25.695z"/>
	<path fill="#154A8B" d="M216.344,23.932c0-1.765,0.475-3.146,1.423-4.146c0.947-0.999,2.171-1.498,3.671-1.498
		c0.981,0,1.866,0.234,2.655,0.704c0.788,0.469,1.389,1.123,1.803,1.962c0.413,0.839,0.62,1.791,0.62,2.854
		c0,1.079-0.218,2.044-0.653,2.895c-0.435,0.852-1.052,1.496-1.85,1.934s-1.659,0.656-2.583,0.656c-1.001,0-1.896-0.241-2.685-0.725
		c-0.788-0.484-1.385-1.145-1.791-1.98C216.548,25.751,216.344,24.865,216.344,23.932z M217.796,23.954
		c0,1.282,0.345,2.292,1.034,3.028c0.689,0.738,1.554,1.107,2.594,1.107c1.059,0,1.931-0.373,2.615-1.117
		c0.685-0.745,1.026-1.803,1.026-3.171c0-0.866-0.146-1.622-0.438-2.267c-0.293-0.646-0.721-1.146-1.284-1.502
		s-1.196-0.533-1.897-0.533c-0.996,0-1.854,0.342-2.572,1.025C218.155,21.211,217.796,22.353,217.796,23.954z"/>
	<path fill="#154A8B" d="M227.302,29.112V18.477h7.175v1.255h-5.768v3.294h4.991v1.256h-4.991v4.831H227.302z"/>
	<path fill="#154A8B" d="M237.913,29.112v-9.381h-3.504v-1.255h8.43v1.255h-3.519v9.381H237.913z"/>
	<path fill="#154A8B" d="M245.041,29.112l-2.822-10.636h1.443l1.618,6.973c0.174,0.729,0.324,1.455,0.449,2.176
		c0.271-1.137,0.431-1.792,0.479-1.966l2.023-7.183h1.698l1.523,5.383c0.382,1.336,0.657,2.59,0.827,3.766
		c0.135-0.672,0.312-1.443,0.529-2.314l1.669-6.834h1.414l-2.916,10.636h-1.356l-2.242-8.104c-0.188-0.677-0.3-1.093-0.334-1.248
		c-0.111,0.489-0.215,0.904-0.312,1.248l-2.256,8.104H245.041z"/>
	<path fill="#154A8B" d="M254.939,29.112l4.084-10.636h1.517l4.353,10.636h-1.603l-1.241-3.222h-4.447l-1.168,3.222H254.939z
		 M258.008,24.744h3.605l-1.109-2.945c-0.339-0.895-0.591-1.629-0.755-2.205c-0.136,0.682-0.326,1.359-0.573,2.031L258.008,24.744z"
		/>
	<path fill="#154A8B" d="M264.94,29.112V18.477h4.716c0.948,0,1.669,0.096,2.162,0.287c0.493,0.19,0.888,0.527,1.183,1.012
		c0.295,0.483,0.442,1.018,0.442,1.604c0,0.754-0.244,1.391-0.732,1.908c-0.489,0.518-1.243,0.846-2.264,0.986
		c0.372,0.179,0.655,0.355,0.849,0.529c0.411,0.377,0.801,0.85,1.168,1.415l1.85,2.895h-1.77l-1.408-2.213
		c-0.411-0.638-0.749-1.127-1.016-1.466c-0.266-0.338-0.504-0.575-0.714-0.711c-0.211-0.135-0.425-0.229-0.643-0.283
		c-0.159-0.033-0.421-0.051-0.783-0.051h-1.633v4.724H264.94z M266.347,23.17h3.025c0.644,0,1.146-0.066,1.509-0.199
		c0.363-0.133,0.639-0.346,0.827-0.639c0.189-0.292,0.283-0.609,0.283-0.953c0-0.504-0.183-0.917-0.548-1.24
		c-0.365-0.324-0.941-0.486-1.73-0.486h-3.366V23.17z"/>
	<path fill="#154A8B" d="M274.579,29.112V18.477h7.689v1.255h-6.282v3.258h5.884v1.247h-5.884v3.621h6.529v1.255H274.579z"/>
</g>
</svg>