<!-- Generator: Adobe Illustrator 17.0.0, SVG Export Plug-In  -->
<svg version="1.1"
	 xmlns="http://www.w3.org/2000/svg" xmlns:xlink="http://www.w3.org/1999/xlink" xmlns:a="http://ns.adobe.com/AdobeSVGViewerExtensions/3.0/"
	 x="0px" y="0px" width="313.782px" height="51.006px" viewBox="0 0 313.782 51.006" enable-background="new 0 0 313.782 51.006"
	 xml:space="preserve">
<defs>
</defs>
<g>
	<rect x="0" y="2.053" fill="#D2D3D3" width="43.577" height="41.014"/>
	<g>
		<rect x="43.577" y="2.053" fill="#FFCD07" width="268.154" height="41.014"/>
		<path fill="#154A8B" d="M311.731,45.117H43.577c-1.132,0-2.052-0.917-2.052-2.051V2.053C41.525,0.92,42.445,0,43.577,0h268.154
			c1.133,0,2.051,0.92,2.051,2.053v41.014C313.782,44.2,312.864,45.117,311.731,45.117z M45.629,41.017h264.053V4.104H45.629V41.017
			z"/>
	</g>
	<path fill="#154A8B" stroke="#000101" stroke-width="0.5" stroke-miterlimit="10" d="M34.787,25.339
		c0-7.488-6.092-13.582-13.581-13.582c-7.489,0-13.582,6.094-13.582,13.582c0,6.993,5.313,12.765,12.113,13.501v11.916h4.102V38.66
		C30.072,37.43,34.787,31.928,34.787,25.339z M21.206,34.82c-5.227,0-9.481-4.254-9.481-9.482c0-5.227,4.254-9.479,9.481-9.479
		c5.228,0,9.482,4.252,9.482,9.479C30.688,30.566,26.434,34.82,21.206,34.82z"/>
</g>
<g>
	<g>
		<path fill="#154A8B" d="M141.366,25.599l1.326,0.335c-0.278,1.089-0.778,1.92-1.5,2.491c-0.723,0.572-1.605,0.858-2.649,0.858
			c-1.08,0-1.958-0.22-2.636-0.659c-0.676-0.44-1.191-1.077-1.545-1.911c-0.353-0.834-0.529-1.729-0.529-2.687
			c0-1.043,0.199-1.954,0.598-2.73c0.399-0.777,0.967-1.367,1.703-1.771c0.735-0.402,1.546-0.604,2.43-0.604
			c1.003,0,1.846,0.255,2.529,0.766s1.16,1.228,1.429,2.153l-1.306,0.308c-0.232-0.729-0.569-1.261-1.012-1.593
			s-0.998-0.499-1.668-0.499c-0.771,0-1.414,0.185-1.932,0.554c-0.517,0.369-0.88,0.865-1.09,1.486
			c-0.21,0.623-0.314,1.264-0.314,1.925c0,0.853,0.124,1.597,0.373,2.231c0.248,0.637,0.634,1.111,1.158,1.426
			s1.092,0.472,1.702,0.472c0.743,0,1.372-0.214,1.887-0.643S141.184,26.442,141.366,25.599z"/>
		<path fill="#154A8B" d="M143.235,29.112V19.091h1.326v8.839h4.936v1.183H143.235z"/>
		<path fill="#154A8B" d="M148.939,29.112l3.849-10.021h1.429l4.102,10.021h-1.511l-1.169-3.035h-4.19l-1.101,3.035H148.939z
			 M151.831,24.997h3.397l-1.046-2.775c-0.319-0.844-0.556-1.535-0.711-2.078c-0.128,0.643-0.308,1.281-0.54,1.914L151.831,24.997z"
			/>
		<path fill="#154A8B" d="M157.891,25.893l1.251-0.109c0.06,0.501,0.197,0.913,0.413,1.233c0.217,0.322,0.553,0.582,1.009,0.779
			c0.456,0.199,0.969,0.298,1.538,0.298c0.506,0,0.952-0.075,1.34-0.226s0.676-0.356,0.865-0.619
			c0.188-0.262,0.283-0.547,0.283-0.857c0-0.314-0.091-0.589-0.273-0.824c-0.183-0.234-0.483-0.432-0.902-0.591
			c-0.269-0.104-0.863-0.268-1.784-0.489c-0.921-0.221-1.565-0.43-1.935-0.625c-0.479-0.25-0.835-0.562-1.07-0.934
			c-0.234-0.371-0.352-0.787-0.352-1.247c0-0.506,0.144-0.979,0.431-1.419c0.287-0.439,0.706-0.773,1.258-1.001
			s1.164-0.342,1.839-0.342c0.743,0,1.398,0.12,1.965,0.358c0.568,0.24,1.004,0.592,1.31,1.057s0.47,0.991,0.492,1.579l-1.271,0.096
			c-0.068-0.634-0.3-1.112-0.694-1.436c-0.394-0.323-0.976-0.485-1.746-0.485c-0.802,0-1.387,0.146-1.754,0.441
			c-0.366,0.293-0.55,0.648-0.55,1.063c0,0.359,0.13,0.656,0.39,0.889c0.255,0.232,0.922,0.471,2,0.715
			c1.077,0.243,1.816,0.457,2.218,0.639c0.583,0.27,1.014,0.609,1.292,1.021c0.278,0.413,0.417,0.889,0.417,1.426
			c0,0.533-0.152,1.035-0.458,1.508c-0.306,0.471-0.744,0.838-1.316,1.1c-0.571,0.263-1.215,0.394-1.931,0.394
			c-0.907,0-1.667-0.132-2.28-0.396c-0.612-0.265-1.094-0.662-1.441-1.192C158.092,27.163,157.909,26.563,157.891,25.893z"/>
		<path fill="#154A8B" d="M166.87,29.112V19.091h1.326v10.021H166.87z"/>
		<path fill="#154A8B" d="M169.566,29.112V19.091h6.761v1.183h-5.435v3.104h4.703v1.183h-4.703v4.553H169.566z"/>
		<path fill="#154A8B" d="M177.239,29.112V19.091h1.326v10.021H177.239z"/>
		<path fill="#154A8B" d="M187.018,25.599l1.326,0.335c-0.278,1.089-0.778,1.92-1.5,2.491c-0.723,0.572-1.605,0.858-2.649,0.858
			c-1.08,0-1.958-0.22-2.636-0.659c-0.676-0.44-1.191-1.077-1.545-1.911c-0.353-0.834-0.529-1.729-0.529-2.687
			c0-1.043,0.199-1.954,0.598-2.73c0.399-0.777,0.967-1.367,1.703-1.771c0.735-0.402,1.546-0.604,2.43-0.604
			c1.003,0,1.846,0.255,2.529,0.766s1.16,1.228,1.429,2.153l-1.306,0.308c-0.232-0.729-0.569-1.261-1.012-1.593
			s-0.998-0.499-1.668-0.499c-0.771,0-1.414,0.185-1.932,0.554c-0.517,0.369-0.88,0.865-1.09,1.486
			c-0.21,0.623-0.314,1.264-0.314,1.925c0,0.853,0.124,1.597,0.373,2.231c0.248,0.637,0.634,1.111,1.158,1.426
			s1.092,0.472,1.702,0.472c0.743,0,1.372-0.214,1.887-0.643S186.835,26.442,187.018,25.599z"/>
		<path fill="#154A8B" d="M187.841,29.112l3.849-10.021h1.429l4.102,10.021h-1.511l-1.169-3.035h-4.19l-1.101,3.035H187.841z
			 M190.732,24.997h3.397l-1.046-2.775c-0.319-0.844-0.556-1.535-0.711-2.078c-0.128,0.643-0.308,1.281-0.54,1.914L190.732,24.997z"
			/>
		<path fill="#154A8B" d="M204.394,25.599l1.326,0.335c-0.278,1.089-0.778,1.92-1.5,2.491c-0.723,0.572-1.605,0.858-2.649,0.858
			c-1.08,0-1.958-0.22-2.636-0.659c-0.676-0.44-1.191-1.077-1.545-1.911c-0.353-0.834-0.529-1.729-0.529-2.687
			c0-1.043,0.199-1.954,0.598-2.73c0.399-0.777,0.967-1.367,1.703-1.771c0.735-0.402,1.546-0.604,2.43-0.604
			c1.003,0,1.846,0.255,2.529,0.766s1.16,1.228,1.429,2.153l-1.306,0.308c-0.232-0.729-0.569-1.261-1.012-1.593
			s-0.998-0.499-1.668-0.499c-0.771,0-1.414,0.185-1.932,0.554c-0.517,0.369-0.88,0.865-1.09,1.486
			c-0.21,0.623-0.314,1.264-0.314,1.925c0,0.853,0.124,1.597,0.373,2.231c0.248,0.637,0.634,1.111,1.158,1.426
			s1.092,0.472,1.702,0.472c0.743,0,1.372-0.214,1.887-0.643S204.211,26.442,204.394,25.599z"/>
		<path fill="#154A8B" d="M206.543,29.112V19.091h1.326v10.021H206.543z"/>
		<path fill="#154A8B" d="M208.768,24.231c0-1.664,0.446-2.966,1.34-3.906c0.894-0.941,2.046-1.412,3.459-1.412
			c0.925,0,1.759,0.221,2.502,0.663s1.31,1.059,1.698,1.849c0.391,0.791,0.585,1.688,0.585,2.69c0,1.017-0.205,1.925-0.615,2.728
			s-0.991,1.409-1.743,1.822c-0.752,0.412-1.563,0.618-2.434,0.618c-0.943,0-1.786-0.228-2.529-0.684s-1.306-1.077-1.688-1.866
			S208.768,25.11,208.768,24.231z M210.135,24.252c0,1.208,0.325,2.159,0.974,2.854c0.65,0.694,1.465,1.042,2.444,1.042
			c0.998,0,1.819-0.351,2.464-1.053c0.646-0.702,0.968-1.698,0.968-2.987c0-0.816-0.138-1.527-0.413-2.137
			c-0.276-0.607-0.68-1.08-1.211-1.414c-0.53-0.336-1.126-0.503-1.787-0.503c-0.938,0-1.746,0.322-2.424,0.968
			C210.474,21.667,210.135,22.743,210.135,24.252z M212.719,18.476l0.909-1.914h1.613l-1.504,1.914H212.719z"/>
		<path fill="#154A8B" d="M219.012,29.112V19.091h1.36l5.264,7.868v-7.868h1.271v10.021h-1.36l-5.264-7.875v7.875H219.012z"/>
	</g>
</g>
</svg>