<!-- Generator: Adobe Illustrator 17.0.0, SVG Export Plug-In  -->
<svg version="1.1"
	 xmlns="http://www.w3.org/2000/svg" xmlns:xlink="http://www.w3.org/1999/xlink" xmlns:a="http://ns.adobe.com/AdobeSVGViewerExtensions/3.0/"
	 x="0px" y="0px" width="401.254px" height="65.155px" viewBox="0 0 401.254 65.155" enable-background="new 0 0 401.254 65.155"
	 xml:space="preserve">
<defs>
</defs>
<g>
	<rect x="0" y="2.624" fill="#D2D3D3" width="55.726" height="52.448"/>
	<g>
		<rect x="55.726" y="2.624" fill="#FFCD07" width="342.905" height="52.448"/>
		<path fill="#154A8B" d="M398.631,57.694H55.726c-1.447,0-2.623-1.173-2.623-2.622V2.624C53.103,1.176,54.278,0,55.726,0h342.905
			c1.449,0,2.623,1.176,2.623,2.624v52.448C401.254,56.521,400.08,57.694,398.631,57.694z M58.35,52.45h337.661V5.247H58.35V52.45z"
			/>
	</g>
	<path fill="#154A8B" stroke="#000101" stroke-width="0.5" stroke-miterlimit="10" d="M44.484,32.402
		c0-9.576-7.789-17.368-17.366-17.368c-9.577,0-17.368,7.792-17.368,17.368c0,8.943,6.794,16.323,15.49,17.264v15.239h5.246V49.438
		C38.456,47.864,44.484,40.827,44.484,32.402z M27.118,44.527c-6.685,0-12.124-5.439-12.124-12.125
		c0-6.686,5.439-12.123,12.124-12.123c6.684,0,12.124,5.438,12.124,12.123C39.242,39.088,33.803,44.527,27.118,44.527z"/>
</g>
<g>
	<g>
		<path fill="#154A8B" d="M66.196,36.619V22.303h9.658v1.689h-7.764v4.434h6.719v1.689h-6.719v6.504H66.196z"/>
		<path fill="#154A8B" d="M76.259,29.646c0-2.376,0.637-4.236,1.914-5.581c1.275-1.345,2.922-2.017,4.941-2.017
			c1.32,0,2.512,0.315,3.574,0.947c1.061,0.632,1.869,1.512,2.426,2.642s0.836,2.41,0.836,3.843c0,1.452-0.293,2.751-0.879,3.896
			s-1.416,2.014-2.49,2.603s-2.234,0.884-3.477,0.884c-1.348,0-2.553-0.325-3.613-0.977c-1.063-0.651-1.865-1.54-2.412-2.666
			S76.259,30.903,76.259,29.646z M78.212,29.676c0,1.726,0.463,3.084,1.391,4.077s2.092,1.489,3.492,1.489
			c1.426,0,2.6-0.501,3.52-1.504c0.922-1.003,1.383-2.425,1.383-4.268c0-1.165-0.197-2.183-0.592-3.052
			c-0.393-0.869-0.969-1.543-1.729-2.021c-0.758-0.479-1.609-0.718-2.553-0.718c-1.342,0-2.496,0.461-3.463,1.382
			S78.212,27.52,78.212,29.676z"/>
		<path fill="#154A8B" d="M90.94,36.619V22.303h6.348c1.277,0,2.246,0.129,2.91,0.386s1.195,0.711,1.592,1.362
			c0.398,0.651,0.596,1.37,0.596,2.158c0,1.016-0.328,1.872-0.986,2.568c-0.656,0.696-1.672,1.14-3.047,1.328
			c0.502,0.241,0.883,0.479,1.143,0.713c0.555,0.508,1.078,1.143,1.572,1.904l2.49,3.896h-2.383l-1.895-2.979
			c-0.553-0.859-1.008-1.517-1.367-1.973c-0.357-0.456-0.678-0.774-0.961-0.957s-0.572-0.31-0.865-0.381
			c-0.215-0.046-0.566-0.068-1.055-0.068h-2.197v6.357H90.94z M92.835,28.621h4.072c0.867,0,1.543-0.09,2.031-0.269
			s0.859-0.466,1.113-0.859s0.381-0.822,0.381-1.284c0-0.677-0.246-1.233-0.736-1.67c-0.492-0.437-1.268-0.654-2.33-0.654h-4.531
			V28.621z"/>
		<path fill="#154A8B" d="M103.815,36.619V22.303h2.852l3.389,10.137c0.313,0.944,0.541,1.65,0.684,2.119
			c0.164-0.521,0.418-1.286,0.762-2.295l3.428-9.961h2.549v14.316h-1.826V24.637l-4.16,11.982h-1.709l-4.141-12.188v12.188H103.815z
			"/>
		<path fill="#154A8B" d="M117.483,36.619l5.498-14.316h2.041l5.859,14.316h-2.158l-1.67-4.336h-5.986l-1.572,4.336H117.483z
			 M121.614,30.74h4.854l-1.494-3.965c-0.457-1.204-0.795-2.194-1.016-2.969c-0.184,0.918-0.439,1.829-0.771,2.734L121.614,30.74z"
			/>
		<path fill="#154A8B" d="M134.558,36.619V23.992h-4.717v-1.689h11.348v1.689h-4.736v12.627H134.558z"/>
		<path fill="#154A8B" d="M141.075,29.646c0-2.376,0.639-4.236,1.914-5.581c1.277-1.345,2.924-2.017,4.941-2.017
			c1.322,0,2.514,0.315,3.574,0.947c1.063,0.632,1.871,1.512,2.428,2.642s0.834,2.41,0.834,3.843c0,1.452-0.293,2.751-0.879,3.896
			s-1.416,2.014-2.49,2.603s-2.232,0.884-3.477,0.884c-1.348,0-2.551-0.325-3.613-0.977c-1.061-0.651-1.865-1.54-2.412-2.666
			S141.075,30.903,141.075,29.646z M143.028,29.676c0,1.726,0.465,3.084,1.393,4.077s2.092,1.489,3.49,1.489
			c1.426,0,2.6-0.501,3.521-1.504c0.92-1.003,1.381-2.425,1.381-4.268c0-1.165-0.197-2.183-0.59-3.052
			c-0.395-0.869-0.971-1.543-1.729-2.021c-0.76-0.479-1.609-0.718-2.555-0.718c-1.34,0-2.494,0.461-3.461,1.382
			S143.028,27.52,143.028,29.676z"/>
		<path fill="#154A8B" d="M159.806,36.619V22.303h4.932c1.113,0,1.963,0.068,2.549,0.205c0.82,0.188,1.52,0.53,2.1,1.025
			c0.754,0.638,1.32,1.453,1.693,2.446c0.375,0.993,0.563,2.127,0.563,3.403c0,1.087-0.127,2.051-0.381,2.891
			c-0.254,0.84-0.58,1.535-0.977,2.085c-0.398,0.55-0.832,0.983-1.305,1.299c-0.471,0.315-1.041,0.555-1.709,0.718
			c-0.666,0.163-1.434,0.244-2.299,0.244H159.806z M161.7,34.93h3.057c0.943,0,1.684-0.088,2.221-0.264s0.965-0.423,1.285-0.742
			c0.449-0.449,0.799-1.053,1.049-1.812c0.252-0.759,0.377-1.678,0.377-2.759c0-1.497-0.246-2.648-0.738-3.452
			c-0.49-0.804-1.088-1.343-1.791-1.616c-0.508-0.195-1.326-0.293-2.451-0.293H161.7V34.93z"/>
		<path fill="#154A8B" d="M172.808,36.619V22.303h10.352v1.689h-8.457v4.385h7.92v1.68h-7.92v4.873h8.789v1.689H172.808z"/>
		<path fill="#154A8B" d="M198.919,31.6l1.895,0.479c-0.396,1.556-1.111,2.742-2.143,3.56c-1.033,0.817-2.293,1.226-3.785,1.226
			c-1.543,0-2.797-0.314-3.764-0.942s-1.703-1.538-2.207-2.729c-0.506-1.191-0.758-2.471-0.758-3.838
			c0-1.491,0.285-2.791,0.855-3.901c0.568-1.11,1.379-1.953,2.432-2.529c1.051-0.576,2.209-0.864,3.471-0.864
			c1.434,0,2.637,0.364,3.613,1.094s1.658,1.755,2.041,3.076l-1.865,0.439c-0.332-1.042-0.813-1.8-1.445-2.275
			c-0.631-0.476-1.426-0.713-2.383-0.713c-1.1,0-2.02,0.264-2.758,0.791c-0.74,0.527-1.258,1.235-1.559,2.124
			c-0.299,0.889-0.449,1.805-0.449,2.749c0,1.218,0.178,2.28,0.533,3.188c0.354,0.908,0.906,1.587,1.654,2.036
			c0.75,0.449,1.561,0.674,2.432,0.674c1.063,0,1.961-0.306,2.695-0.918C198.161,33.712,198.659,32.804,198.919,31.6z"/>
		<path fill="#154A8B" d="M201.093,29.646c0-2.376,0.637-4.236,1.914-5.581c1.275-1.345,2.922-2.017,4.941-2.017
			c1.32,0,2.512,0.315,3.574,0.947c1.061,0.632,1.869,1.512,2.426,2.642s0.836,2.41,0.836,3.843c0,1.452-0.293,2.751-0.879,3.896
			s-1.416,2.014-2.49,2.603s-2.234,0.884-3.477,0.884c-1.348,0-2.553-0.325-3.613-0.977c-1.063-0.651-1.865-1.54-2.412-2.666
			S201.093,30.903,201.093,29.646z M203.046,29.676c0,1.726,0.463,3.084,1.391,4.077s2.092,1.489,3.492,1.489
			c1.426,0,2.6-0.501,3.52-1.504c0.922-1.003,1.383-2.425,1.383-4.268c0-1.165-0.197-2.183-0.592-3.052
			c-0.393-0.869-0.969-1.543-1.729-2.021c-0.758-0.479-1.609-0.718-2.553-0.718c-1.342,0-2.496,0.461-3.463,1.382
			S203.046,27.52,203.046,29.676z"/>
		<path fill="#154A8B" d="M215.726,36.619V22.303h1.943l7.52,11.24v-11.24h1.816v14.316h-1.943l-7.52-11.25v11.25H215.726z"/>
		<path fill="#154A8B" d="M232.351,36.619V23.992h-4.717v-1.689h11.348v1.689h-4.736v12.627H232.351z"/>
		<path fill="#154A8B" d="M239.474,36.619V22.303h6.348c1.277,0,2.246,0.129,2.91,0.386s1.195,0.711,1.592,1.362
			c0.398,0.651,0.596,1.37,0.596,2.158c0,1.016-0.328,1.872-0.986,2.568c-0.656,0.696-1.672,1.14-3.047,1.328
			c0.502,0.241,0.883,0.479,1.143,0.713c0.555,0.508,1.078,1.143,1.572,1.904l2.49,3.896h-2.383l-1.895-2.979
			c-0.553-0.859-1.008-1.517-1.367-1.973c-0.357-0.456-0.678-0.774-0.961-0.957s-0.572-0.31-0.865-0.381
			c-0.215-0.046-0.566-0.068-1.055-0.068h-2.197v6.357H239.474z M241.368,28.621h4.072c0.867,0,1.543-0.09,2.031-0.269
			s0.859-0.466,1.113-0.859s0.381-0.822,0.381-1.284c0-0.677-0.246-1.233-0.736-1.67c-0.492-0.437-1.268-0.654-2.33-0.654h-4.531
			V28.621z"/>
		<path fill="#154A8B" d="M251.833,29.646c0-2.376,0.637-4.236,1.914-5.581c1.275-1.345,2.922-2.017,4.941-2.017
			c1.32,0,2.512,0.315,3.574,0.947c1.061,0.632,1.869,1.512,2.426,2.642s0.836,2.41,0.836,3.843c0,1.452-0.293,2.751-0.879,3.896
			s-1.416,2.014-2.49,2.603s-2.234,0.884-3.477,0.884c-1.348,0-2.553-0.325-3.613-0.977c-1.063-0.651-1.865-1.54-2.412-2.666
			S251.833,30.903,251.833,29.646z M253.786,29.676c0,1.726,0.463,3.084,1.391,4.077s2.092,1.489,3.492,1.489
			c1.426,0,2.6-0.501,3.52-1.504c0.922-1.003,1.383-2.425,1.383-4.268c0-1.165-0.197-2.183-0.592-3.052
			c-0.393-0.869-0.969-1.543-1.729-2.021c-0.758-0.479-1.609-0.718-2.553-0.718c-1.342,0-2.496,0.461-3.463,1.382
			S253.786,27.52,253.786,29.676z"/>
		<path fill="#154A8B" d="M266.407,36.619V22.303h1.895V34.93h7.051v1.689H266.407z"/>
		<path fill="#154A8B" d="M280.204,36.619V22.303h4.932c1.113,0,1.963,0.068,2.549,0.205c0.82,0.188,1.521,0.53,2.1,1.025
			c0.756,0.638,1.32,1.453,1.695,2.446c0.373,0.993,0.561,2.127,0.561,3.403c0,1.087-0.127,2.051-0.381,2.891
			c-0.254,0.84-0.578,1.535-0.977,2.085c-0.396,0.55-0.832,0.983-1.303,1.299c-0.473,0.315-1.043,0.555-1.709,0.718
			c-0.668,0.163-1.434,0.244-2.301,0.244H280.204z M282.099,34.93h3.057c0.945,0,1.686-0.088,2.223-0.264s0.965-0.423,1.283-0.742
			c0.449-0.449,0.799-1.053,1.051-1.812c0.25-0.759,0.375-1.678,0.375-2.759c0-1.497-0.246-2.648-0.736-3.452
			c-0.492-0.804-1.09-1.343-1.793-1.616c-0.508-0.195-1.324-0.293-2.451-0.293h-3.008V34.93z"/>
		<path fill="#154A8B" d="M293.208,36.619V22.303h10.352v1.689h-8.457v4.385h7.92v1.68h-7.92v4.873h8.789v1.689H293.208z"/>
		<path fill="#154A8B" d="M319.319,31.6l1.895,0.479c-0.396,1.556-1.111,2.742-2.143,3.56c-1.033,0.817-2.293,1.226-3.785,1.226
			c-1.543,0-2.797-0.314-3.764-0.942s-1.703-1.538-2.207-2.729c-0.506-1.191-0.758-2.471-0.758-3.838
			c0-1.491,0.285-2.791,0.855-3.901c0.568-1.11,1.379-1.953,2.432-2.529c1.051-0.576,2.209-0.864,3.471-0.864
			c1.434,0,2.637,0.364,3.613,1.094s1.658,1.755,2.041,3.076l-1.865,0.439c-0.332-1.042-0.813-1.8-1.445-2.275
			c-0.631-0.476-1.426-0.713-2.383-0.713c-1.1,0-2.02,0.264-2.758,0.791c-0.74,0.527-1.258,1.235-1.559,2.124
			c-0.299,0.889-0.449,1.805-0.449,2.749c0,1.218,0.178,2.28,0.533,3.188c0.354,0.908,0.906,1.587,1.654,2.036
			c0.75,0.449,1.561,0.674,2.432,0.674c1.063,0,1.961-0.306,2.695-0.918C318.562,33.712,319.06,32.804,319.319,31.6z"/>
		<path fill="#154A8B" d="M320.495,36.619l5.498-14.316h2.041l5.859,14.316h-2.158l-1.67-4.336h-5.986l-1.572,4.336H320.495z
			 M324.626,30.74h4.854l-1.494-3.965c-0.455-1.204-0.793-2.194-1.016-2.969c-0.182,0.918-0.439,1.829-0.771,2.734L324.626,30.74z"
			/>
		<path fill="#154A8B" d="M333.87,36.619V22.303h2.852l3.389,10.137c0.313,0.944,0.539,1.65,0.684,2.119
			c0.162-0.521,0.416-1.286,0.762-2.295l3.428-9.961h2.549v14.316h-1.826V24.637l-4.16,11.982h-1.709l-4.141-12.188v12.188H333.87z"
			/>
		<path fill="#154A8B" d="M349.03,36.619V22.303h5.371c1.094,0,1.971,0.145,2.631,0.435c0.662,0.29,1.18,0.735,1.553,1.338
			c0.375,0.603,0.563,1.232,0.563,1.89c0,0.612-0.166,1.188-0.498,1.729s-0.834,0.977-1.504,1.309
			c0.865,0.254,1.531,0.687,1.996,1.299c0.467,0.612,0.699,1.335,0.699,2.168c0,0.671-0.143,1.294-0.426,1.87
			s-0.633,1.021-1.049,1.333c-0.418,0.313-0.939,0.549-1.568,0.708c-0.627,0.159-1.398,0.239-2.309,0.239H349.03z M350.925,28.318
			h3.096c0.84,0,1.441-0.056,1.807-0.166c0.48-0.144,0.844-0.381,1.088-0.713s0.367-0.749,0.367-1.25
			c0-0.476-0.115-0.894-0.342-1.255c-0.229-0.361-0.555-0.608-0.977-0.742c-0.424-0.134-1.15-0.2-2.178-0.2h-2.861V28.318z
			 M350.925,34.93h3.564c0.611,0,1.041-0.022,1.289-0.068c0.436-0.078,0.801-0.208,1.094-0.391s0.533-0.447,0.723-0.796
			c0.188-0.349,0.283-0.75,0.283-1.206c0-0.534-0.137-0.998-0.41-1.392s-0.652-0.671-1.139-0.83
			c-0.484-0.159-1.184-0.239-2.094-0.239h-3.311V34.93z"/>
		<path fill="#154A8B" d="M361.29,36.619V22.303h1.895v14.316H361.29z"/>
		<path fill="#154A8B" d="M364.468,29.646c0-2.376,0.639-4.236,1.914-5.581c1.277-1.345,2.924-2.017,4.941-2.017
			c1.322,0,2.514,0.315,3.574,0.947c1.063,0.632,1.871,1.512,2.428,2.642s0.834,2.41,0.834,3.843c0,1.452-0.293,2.751-0.879,3.896
			s-1.416,2.014-2.49,2.603s-2.232,0.884-3.477,0.884c-1.348,0-2.551-0.325-3.613-0.977c-1.061-0.651-1.865-1.54-2.412-2.666
			S364.468,30.903,364.468,29.646z M366.421,29.676c0,1.726,0.465,3.084,1.393,4.077s2.092,1.489,3.49,1.489
			c1.426,0,2.6-0.501,3.521-1.504c0.92-1.003,1.381-2.425,1.381-4.268c0-1.165-0.197-2.183-0.59-3.052
			c-0.395-0.869-0.971-1.543-1.729-2.021c-0.76-0.479-1.609-0.718-2.555-0.718c-1.34,0-2.494,0.461-3.461,1.382
			S366.421,27.52,366.421,29.676z"/>
		<path fill="#154A8B" d="M378.476,32.019l1.787-0.156c0.086,0.716,0.281,1.304,0.592,1.763c0.309,0.459,0.789,0.83,1.439,1.113
			c0.652,0.283,1.385,0.425,2.197,0.425c0.723,0,1.361-0.107,1.914-0.322c0.555-0.215,0.965-0.51,1.236-0.884
			c0.27-0.374,0.404-0.783,0.404-1.226c0-0.449-0.129-0.842-0.391-1.177c-0.26-0.335-0.689-0.617-1.289-0.845
			c-0.383-0.149-1.232-0.383-2.549-0.698c-1.314-0.315-2.236-0.613-2.764-0.894c-0.684-0.358-1.193-0.803-1.527-1.333
			c-0.336-0.53-0.504-1.125-0.504-1.782c0-0.723,0.205-1.398,0.615-2.026s1.01-1.105,1.797-1.431
			c0.789-0.325,1.664-0.488,2.627-0.488c1.063,0,1.998,0.171,2.809,0.513s1.434,0.845,1.869,1.509
			c0.438,0.664,0.672,1.416,0.703,2.256l-1.816,0.137c-0.098-0.905-0.428-1.589-0.99-2.051c-0.564-0.462-1.395-0.693-2.496-0.693
			c-1.145,0-1.98,0.21-2.504,0.63c-0.525,0.42-0.787,0.926-0.787,1.519c0,0.515,0.186,0.938,0.557,1.27
			c0.365,0.332,1.316,0.672,2.857,1.021c1.539,0.349,2.596,0.652,3.168,0.913c0.834,0.384,1.449,0.871,1.846,1.46
			c0.398,0.589,0.596,1.268,0.596,2.036c0,0.762-0.217,1.479-0.654,2.153c-0.436,0.674-1.063,1.198-1.879,1.572
			c-0.818,0.374-1.736,0.562-2.76,0.562c-1.295,0-2.381-0.188-3.256-0.566c-0.877-0.378-1.563-0.945-2.061-1.704
			S378.503,32.977,378.476,32.019z"/>
	</g>
</g>
</svg>