<?xml version="1.0" encoding="utf-8"?>
<!-- Generator: Adobe Illustrator 17.0.0, SVG Export Plug-In . SVG Version: 6.00 Build 0)  -->
<!DOCTYPE svg PUBLIC "-//W3C//DTD SVG 1.1//EN" "http://www.w3.org/Graphics/SVG/1.1/DTD/svg11.dtd" [
	<!ENTITY ns_extend "http://ns.adobe.com/Extensibility/1.0/">
	<!ENTITY ns_ai "http://ns.adobe.com/AdobeIllustrator/10.0/">
	<!ENTITY ns_graphs "http://ns.adobe.com/Graphs/1.0/">
	<!ENTITY ns_vars "http://ns.adobe.com/Variables/1.0/">
	<!ENTITY ns_imrep "http://ns.adobe.com/ImageReplacement/1.0/">
	<!ENTITY ns_sfw "http://ns.adobe.com/SaveForWeb/1.0/">
	<!ENTITY ns_custom "http://ns.adobe.com/GenericCustomNamespace/1.0/">
	<!ENTITY ns_adobe_xpath "http://ns.adobe.com/XPath/1.0/">
]>
<svg version="1.1" id="Capa_1" xmlns:x="&ns_extend;" xmlns:i="&ns_ai;" xmlns:graph="&ns_graphs;"
	 xmlns="http://www.w3.org/2000/svg" xmlns:xlink="http://www.w3.org/1999/xlink" x="0px" y="0px" width="187.729px"
	 height="187.729px" viewBox="0 0 187.729 187.729" enable-background="new 0 0 187.729 187.729" xml:space="preserve">
<metadata>
	<sfw  xmlns="&ns_sfw;">
		<slices></slices>
		<sliceSourceBounds  width="604.21" height="817.671" y="-1029.753" x="381.754" bottomLeftOrigin="true"></sliceSourceBounds>
	</sfw>
</metadata>
<g>
	<g>
		<circle fill="#FFFFFF" stroke="#000000" stroke-miterlimit="10" cx="93.864" cy="93.864" r="93.364"/>
		<path fill="#FFCC05" stroke="#000000" stroke-miterlimit="10" d="M169.6,93.864c0,41.83-33.904,75.736-75.736,75.736
			c-41.824,0-75.732-33.906-75.732-75.736s33.908-75.736,75.732-75.736C135.695,18.128,169.6,52.034,169.6,93.864z"/>
	</g>
	<g>
		<polyline fill="none" stroke="#134A89" stroke-width="3.2" stroke-linejoin="round" stroke-miterlimit="10" points="
			64.107,51.423 144.851,51.423 144.851,103.41 		"/>
		
			<polygon fill="#F1F1F1" stroke="#000000" stroke-width="2" stroke-linecap="round" stroke-linejoin="round" stroke-miterlimit="10" points="
			138.215,58.061 51.939,58.061 51.939,114.472 97.289,114.472 97.289,135.488 118.305,114.472 138.215,114.472 		"/>
		
			<polygon fill="#134A89" stroke="#000000" stroke-width="2" stroke-linecap="round" stroke-linejoin="round" stroke-miterlimit="10" points="
			40.879,98.986 87.335,98.986 87.335,129.957 64.107,129.957 64.107,140.87 51.648,129.957 40.879,129.957 		"/>
		
			<line fill="none" stroke="#211D1E" stroke-width="3.2" stroke-linejoin="round" stroke-miterlimit="10" x1="63.002" y1="82.395" x2="128.26" y2="82.395"/>
		
			<line fill="none" stroke="#211D1E" stroke-width="3.2" stroke-linejoin="round" stroke-miterlimit="10" x1="63.002" y1="70.227" x2="128.26" y2="70.227"/>
		
			<line fill="none" stroke="#211D1E" stroke-width="3.2" stroke-linejoin="round" stroke-miterlimit="10" x1="63.002" y1="93.455" x2="128.26" y2="93.455"/>
		
			<line fill="none" stroke="#211D1E" stroke-width="3.2" stroke-linejoin="round" stroke-miterlimit="10" x1="63.002" y1="107.835" x2="79.592" y2="107.835"/>
		
			<line fill="none" stroke="#211D1E" stroke-width="3.2" stroke-linejoin="round" stroke-miterlimit="10" x1="87.335" y1="104.517" x2="103.927" y2="104.517"/>
		
			<line fill="none" stroke="#211D1E" stroke-width="3.2" stroke-linejoin="round" stroke-miterlimit="10" x1="111.67" y1="104.517" x2="128.26" y2="104.517"/>
		
			<line fill="none" stroke="#211D1E" stroke-width="3.2" stroke-linejoin="round" stroke-miterlimit="10" x1="79.592" y1="118.896" x2="47.514" y2="118.896"/>
	</g>
</g>
</svg>
