<!-- Generator: Adobe Illustrator 17.0.0, SVG Export Plug-In  -->
<svg version="1.1"
	 xmlns="http://www.w3.org/2000/svg" xmlns:xlink="http://www.w3.org/1999/xlink" xmlns:a="http://ns.adobe.com/AdobeSVGViewerExtensions/3.0/"
	 x="0px" y="0px" width="401.254px" height="65.155px" viewBox="0 0 401.254 65.155" enable-background="new 0 0 401.254 65.155"
	 xml:space="preserve">
<defs>
</defs>
<g>
	<rect x="0" y="2.624" fill="#D2D3D3" width="55.726" height="52.448"/>
	<g>
		<rect x="55.726" y="2.624" fill="#FFCD07" width="342.905" height="52.448"/>
		<path fill="#154A8B" d="M398.631,57.694H55.726c-1.447,0-2.623-1.173-2.623-2.622V2.624C53.103,1.176,54.278,0,55.726,0h342.905
			c1.449,0,2.623,1.176,2.623,2.624v52.448C401.254,56.521,400.08,57.694,398.631,57.694z M58.35,52.45h337.661V5.247H58.35V52.45z"
			/>
	</g>
	<path fill="#154A8B" stroke="#000101" stroke-width="0.5" stroke-miterlimit="10" d="M44.484,32.402
		c0-9.576-7.789-17.368-17.366-17.368c-9.577,0-17.368,7.792-17.368,17.368c0,8.943,6.794,16.323,15.49,17.264v15.239h5.246V49.438
		C38.456,47.864,44.484,40.827,44.484,32.402z M27.118,44.527c-6.685,0-12.124-5.44-12.124-12.125
		c0-6.686,5.439-12.123,12.124-12.123c6.684,0,12.124,5.438,12.124,12.123C39.242,39.088,33.803,44.527,27.118,44.527z"/>
</g>
<g>
	<g>
		<path fill="#154A8B" d="M93.196,36.737V22.421h9.658v1.689h-7.764v4.434h6.719v1.689h-6.719v6.504H93.196z"/>
		<path fill="#154A8B" d="M103.259,29.765c0-2.376,0.637-4.236,1.914-5.581c1.275-1.345,2.922-2.017,4.941-2.017
			c1.32,0,2.512,0.315,3.574,0.947c1.061,0.632,1.869,1.512,2.426,2.642s0.836,2.41,0.836,3.843c0,1.452-0.293,2.751-0.879,3.896
			s-1.416,2.014-2.49,2.603s-2.234,0.884-3.477,0.884c-1.348,0-2.553-0.325-3.613-0.977c-1.063-0.651-1.865-1.54-2.412-2.666
			S103.259,31.021,103.259,29.765z M105.212,29.794c0,1.726,0.463,3.084,1.391,4.077s2.092,1.489,3.492,1.489
			c1.426,0,2.6-0.501,3.52-1.504c0.922-1.003,1.383-2.425,1.383-4.268c0-1.165-0.197-2.183-0.592-3.052
			c-0.393-0.869-0.969-1.543-1.729-2.021c-0.758-0.479-1.609-0.718-2.553-0.718c-1.342,0-2.496,0.461-3.463,1.382
			S105.212,27.639,105.212,29.794z"/>
		<path fill="#154A8B" d="M117.94,36.737V22.421h6.348c1.277,0,2.246,0.129,2.91,0.386s1.195,0.711,1.592,1.362
			c0.398,0.651,0.596,1.37,0.596,2.158c0,1.016-0.328,1.872-0.986,2.568c-0.656,0.696-1.672,1.14-3.047,1.328
			c0.502,0.241,0.883,0.479,1.143,0.713c0.555,0.508,1.078,1.143,1.572,1.904l2.49,3.896h-2.383l-1.895-2.979
			c-0.553-0.859-1.008-1.517-1.367-1.973c-0.357-0.456-0.678-0.774-0.961-0.957s-0.572-0.31-0.865-0.381
			c-0.215-0.046-0.566-0.068-1.055-0.068h-2.197v6.357H117.94z M119.835,28.739h4.072c0.867,0,1.543-0.09,2.031-0.269
			s0.859-0.466,1.113-0.859s0.381-0.822,0.381-1.284c0-0.677-0.246-1.233-0.736-1.67c-0.492-0.437-1.268-0.654-2.33-0.654h-4.531
			V28.739z"/>
		<path fill="#154A8B" d="M130.815,36.737V22.421h2.852l3.389,10.137c0.313,0.944,0.541,1.65,0.684,2.119
			c0.164-0.521,0.418-1.286,0.762-2.295l3.428-9.961h2.549v14.316h-1.826V24.755l-4.16,11.982h-1.709l-4.141-12.188v12.188H130.815z
			"/>
		<path fill="#154A8B" d="M144.483,36.737l5.498-14.316h2.041l5.859,14.316h-2.158l-1.67-4.336h-5.986l-1.572,4.336H144.483z
			 M148.614,30.858h4.854l-1.494-3.965c-0.457-1.204-0.795-2.194-1.016-2.969c-0.184,0.918-0.439,1.829-0.771,2.734L148.614,30.858z
			"/>
		<path fill="#154A8B" d="M161.558,36.737V24.11h-4.717v-1.689h11.348v1.689h-4.736v12.627H161.558z"/>
		<path fill="#154A8B" d="M168.075,29.765c0-2.376,0.639-4.236,1.914-5.581c1.277-1.345,2.924-2.017,4.941-2.017
			c1.322,0,2.514,0.315,3.574,0.947c1.063,0.632,1.871,1.512,2.428,2.642s0.834,2.41,0.834,3.843c0,1.452-0.293,2.751-0.879,3.896
			s-1.416,2.014-2.49,2.603s-2.232,0.884-3.477,0.884c-1.348,0-2.551-0.325-3.613-0.977c-1.061-0.651-1.865-1.54-2.412-2.666
			S168.075,31.021,168.075,29.765z M170.028,29.794c0,1.726,0.465,3.084,1.393,4.077s2.092,1.489,3.49,1.489
			c1.426,0,2.6-0.501,3.521-1.504c0.92-1.003,1.381-2.425,1.381-4.268c0-1.165-0.197-2.183-0.59-3.052
			c-0.395-0.869-0.971-1.543-1.729-2.021c-0.76-0.479-1.609-0.718-2.555-0.718c-1.34,0-2.494,0.461-3.461,1.382
			S170.028,27.639,170.028,29.794z"/>
		<path fill="#154A8B" d="M186.806,36.737V22.421h4.932c1.113,0,1.963,0.068,2.549,0.205c0.82,0.188,1.52,0.53,2.1,1.025
			c0.754,0.638,1.32,1.453,1.693,2.446c0.375,0.993,0.563,2.127,0.563,3.403c0,1.087-0.127,2.051-0.381,2.891
			c-0.254,0.84-0.58,1.535-0.977,2.085c-0.398,0.55-0.832,0.983-1.305,1.299c-0.471,0.315-1.041,0.555-1.709,0.718
			c-0.666,0.163-1.434,0.244-2.299,0.244H186.806z M188.7,35.048h3.057c0.943,0,1.684-0.088,2.221-0.264s0.965-0.423,1.285-0.742
			c0.449-0.449,0.799-1.053,1.049-1.812c0.252-0.759,0.377-1.678,0.377-2.759c0-1.497-0.246-2.648-0.738-3.452
			c-0.49-0.804-1.088-1.343-1.791-1.616c-0.508-0.195-1.326-0.293-2.451-0.293H188.7V35.048z"/>
		<path fill="#154A8B" d="M199.808,36.737V22.421h10.352v1.689h-8.457v4.385h7.92v1.68h-7.92v4.873h8.789v1.689H199.808z"/>
		<path fill="#154A8B" d="M215.743,36.737V22.421h10.352v1.689h-8.457v4.385h7.92v1.68h-7.92v4.873h8.789v1.689H215.743z"/>
		<path fill="#154A8B" d="M226.921,32.138l1.787-0.156c0.084,0.716,0.281,1.304,0.59,1.763c0.311,0.459,0.789,0.83,1.441,1.113
			c0.65,0.283,1.383,0.425,2.197,0.425c0.723,0,1.359-0.107,1.914-0.322c0.553-0.215,0.965-0.51,1.234-0.884
			c0.271-0.374,0.406-0.783,0.406-1.226c0-0.449-0.131-0.842-0.391-1.177c-0.262-0.335-0.691-0.617-1.289-0.845
			c-0.385-0.149-1.234-0.383-2.549-0.698c-1.316-0.315-2.236-0.613-2.764-0.894c-0.684-0.358-1.193-0.803-1.529-1.333
			c-0.334-0.53-0.502-1.125-0.502-1.782c0-0.723,0.205-1.398,0.615-2.026s1.008-1.105,1.797-1.431
			c0.787-0.325,1.662-0.488,2.627-0.488c1.061,0,1.996,0.171,2.807,0.513s1.434,0.845,1.871,1.509
			c0.436,0.664,0.67,1.416,0.703,2.256l-1.816,0.137c-0.098-0.905-0.428-1.589-0.992-2.051c-0.563-0.462-1.395-0.693-2.494-0.693
			c-1.146,0-1.98,0.21-2.506,0.63c-0.523,0.42-0.785,0.926-0.785,1.519c0,0.515,0.186,0.938,0.557,1.27
			c0.363,0.332,1.316,0.672,2.855,1.021c1.541,0.349,2.596,0.652,3.17,0.913c0.832,0.384,1.447,0.871,1.846,1.46
			c0.396,0.589,0.596,1.268,0.596,2.036c0,0.762-0.219,1.479-0.654,2.153c-0.438,0.674-1.063,1.198-1.881,1.572
			c-0.816,0.374-1.736,0.562-2.758,0.562c-1.297,0-2.381-0.188-3.258-0.566c-0.875-0.378-1.563-0.945-2.061-1.704
			S226.946,33.095,226.921,32.138z"/>
		<path fill="#154A8B" d="M239.425,36.737V22.421h5.4c0.949,0,1.676,0.046,2.178,0.137c0.703,0.117,1.291,0.34,1.768,0.669
			c0.475,0.329,0.857,0.789,1.146,1.382c0.291,0.593,0.436,1.243,0.436,1.953c0,1.218-0.389,2.248-1.162,3.091
			c-0.775,0.843-2.176,1.265-4.199,1.265h-3.672v5.82H239.425z M241.319,29.228h3.701c1.223,0,2.092-0.228,2.607-0.684
			c0.514-0.456,0.771-1.097,0.771-1.924c0-0.599-0.152-1.111-0.455-1.538s-0.701-0.708-1.195-0.845
			c-0.32-0.085-0.908-0.127-1.768-0.127h-3.662V29.228z"/>
		<path fill="#154A8B" d="M251.323,36.737V22.421h10.352v1.689h-8.457v4.385h7.92v1.68h-7.92v4.873h8.789v1.689H251.323z"/>
		<path fill="#154A8B" d="M273.358,31.718l1.895,0.479c-0.396,1.556-1.111,2.742-2.143,3.56c-1.033,0.817-2.293,1.226-3.785,1.226
			c-1.543,0-2.797-0.314-3.764-0.942s-1.703-1.538-2.207-2.729c-0.506-1.191-0.758-2.471-0.758-3.838
			c0-1.491,0.285-2.791,0.855-3.901c0.568-1.11,1.379-1.953,2.432-2.529c1.051-0.576,2.209-0.864,3.471-0.864
			c1.434,0,2.637,0.364,3.613,1.094s1.658,1.755,2.041,3.076l-1.865,0.439c-0.332-1.042-0.813-1.8-1.445-2.275
			c-0.631-0.476-1.426-0.713-2.383-0.713c-1.1,0-2.02,0.264-2.758,0.791c-0.74,0.527-1.258,1.235-1.559,2.124
			c-0.299,0.889-0.449,1.805-0.449,2.749c0,1.218,0.178,2.28,0.533,3.188c0.354,0.908,0.906,1.587,1.654,2.036
			c0.75,0.449,1.561,0.674,2.432,0.674c1.063,0,1.961-0.306,2.695-0.918C272.601,33.83,273.099,32.922,273.358,31.718z"/>
		<path fill="#154A8B" d="M276.431,36.737V22.421h1.895v14.316H276.431z"/>
		<path fill="#154A8B" d="M280.282,36.737V22.421h9.658v1.689h-7.764v4.434h6.719v1.689h-6.719v6.504H280.282z"/>
		<path fill="#154A8B" d="M291.243,36.737V22.421h1.895v14.316H291.243z"/>
		<path fill="#154A8B" d="M305.212,31.718l1.895,0.479c-0.396,1.556-1.111,2.742-2.143,3.56c-1.033,0.817-2.293,1.226-3.785,1.226
			c-1.543,0-2.797-0.314-3.764-0.942s-1.703-1.538-2.207-2.729c-0.506-1.191-0.758-2.471-0.758-3.838
			c0-1.491,0.285-2.791,0.855-3.901c0.568-1.11,1.379-1.953,2.432-2.529c1.051-0.576,2.209-0.864,3.471-0.864
			c1.434,0,2.637,0.364,3.613,1.094s1.658,1.755,2.041,3.076l-1.865,0.439c-0.332-1.042-0.813-1.8-1.445-2.275
			c-0.631-0.476-1.426-0.713-2.383-0.713c-1.1,0-2.02,0.264-2.758,0.791c-0.74,0.527-1.258,1.235-1.559,2.124
			c-0.299,0.889-0.449,1.805-0.449,2.749c0,1.218,0.178,2.28,0.533,3.188c0.354,0.908,0.906,1.587,1.654,2.036
			c0.75,0.449,1.561,0.674,2.432,0.674c1.063,0,1.961-0.306,2.695-0.918C304.454,33.83,304.952,32.922,305.212,31.718z"/>
		<path fill="#154A8B" d="M306.39,36.737l5.498-14.316h2.041l5.859,14.316h-2.158l-1.67-4.336h-5.986l-1.572,4.336H306.39z
			 M310.521,30.858h4.854l-1.494-3.965c-0.457-1.204-0.795-2.194-1.016-2.969c-0.184,0.918-0.439,1.829-0.771,2.734L310.521,30.858z
			"/>
		<path fill="#154A8B" d="M330.036,31.718l1.895,0.479c-0.398,1.556-1.111,2.742-2.145,3.56c-1.031,0.817-2.293,1.226-3.783,1.226
			c-1.543,0-2.799-0.314-3.766-0.942s-1.701-1.538-2.207-2.729c-0.504-1.191-0.756-2.471-0.756-3.838
			c0-1.491,0.285-2.791,0.854-3.901c0.57-1.11,1.381-1.953,2.432-2.529c1.053-0.576,2.209-0.864,3.473-0.864
			c1.432,0,2.637,0.364,3.613,1.094s1.656,1.755,2.041,3.076l-1.865,0.439c-0.332-1.042-0.814-1.8-1.445-2.275
			c-0.633-0.476-1.426-0.713-2.383-0.713c-1.102,0-2.02,0.264-2.76,0.791c-0.738,0.527-1.258,1.235-1.557,2.124
			c-0.301,0.889-0.449,1.805-0.449,2.749c0,1.218,0.178,2.28,0.531,3.188c0.355,0.908,0.906,1.587,1.656,2.036
			c0.748,0.449,1.559,0.674,2.432,0.674c1.061,0,1.959-0.306,2.695-0.918C329.276,33.83,329.774,32.922,330.036,31.718z"/>
		<path fill="#154A8B" d="M333.106,36.737V22.421h1.895v14.316H333.106z"/>
		<path fill="#154A8B" d="M336.284,29.765c0-2.376,0.639-4.236,1.914-5.581c1.277-1.345,2.924-2.017,4.941-2.017
			c1.322,0,2.514,0.315,3.574,0.947c1.063,0.632,1.871,1.512,2.428,2.642s0.834,2.41,0.834,3.843c0,1.452-0.293,2.751-0.879,3.896
			s-1.416,2.014-2.49,2.603s-2.232,0.884-3.477,0.884c-1.348,0-2.551-0.325-3.613-0.977c-1.061-0.651-1.865-1.54-2.412-2.666
			S336.284,31.021,336.284,29.765z M338.237,29.794c0,1.726,0.465,3.084,1.393,4.077s2.092,1.489,3.49,1.489
			c1.426,0,2.6-0.501,3.521-1.504c0.92-1.003,1.381-2.425,1.381-4.268c0-1.165-0.197-2.183-0.59-3.052
			c-0.395-0.869-0.971-1.543-1.729-2.021c-0.76-0.479-1.609-0.718-2.555-0.718c-1.34,0-2.494,0.461-3.461,1.382
			S338.237,27.639,338.237,29.794z M341.929,21.542l1.299-2.734h2.305l-2.148,2.734H341.929z"/>
		<path fill="#154A8B" d="M350.919,36.737V22.421h1.943l7.52,11.24v-11.24h1.816v14.316h-1.943l-7.52-11.25v11.25H350.919z"/>
	</g>
</g>
</svg>