<?xml version="1.0" encoding="utf-8"?>
<!-- Generator: Adobe Illustrator 17.0.0, SVG Export Plug-In . SVG Version: 6.00 Build 0)  -->
<!DOCTYPE svg PUBLIC "-//W3C//DTD SVG 1.1//EN" "http://www.w3.org/Graphics/SVG/1.1/DTD/svg11.dtd" [
	<!ENTITY ns_extend "http://ns.adobe.com/Extensibility/1.0/">
	<!ENTITY ns_ai "http://ns.adobe.com/AdobeIllustrator/10.0/">
	<!ENTITY ns_graphs "http://ns.adobe.com/Graphs/1.0/">
	<!ENTITY ns_vars "http://ns.adobe.com/Variables/1.0/">
	<!ENTITY ns_imrep "http://ns.adobe.com/ImageReplacement/1.0/">
	<!ENTITY ns_sfw "http://ns.adobe.com/SaveForWeb/1.0/">
	<!ENTITY ns_custom "http://ns.adobe.com/GenericCustomNamespace/1.0/">
	<!ENTITY ns_adobe_xpath "http://ns.adobe.com/XPath/1.0/">
]>
<svg version="1.1" id="Capa_1" xmlns:x="&ns_extend;" xmlns:i="&ns_ai;" xmlns:graph="&ns_graphs;"
	 xmlns="http://www.w3.org/2000/svg" xmlns:xlink="http://www.w3.org/1999/xlink" x="0px" y="0px" width="491.746px"
	 height="233.732px" viewBox="0 0 491.746 233.732" enable-background="new 0 0 491.746 233.732" xml:space="preserve">
<metadata>
	<sfw  xmlns="&ns_sfw;">
		<slices></slices>
		<sliceSourceBounds  width="491.746" height="233.732" x="436.627" y="633.634" bottomLeftOrigin="true"></sliceSourceBounds>
	</sfw>
</metadata>
<g>
	<g>
		<rect x="180.69" y="1.606" fill="#144A8B" width="130.368" height="48.035"/>
		<path fill="#FFCD07" d="M311.058,51.249H180.69c-0.886,0-1.608-0.717-1.608-1.607V1.607c0-0.887,0.722-1.607,1.608-1.607h130.368
			c0.888,0,1.606,0.72,1.606,1.607v48.035C312.664,50.532,311.946,51.249,311.058,51.249z M182.296,48.036h127.156V3.213H182.296
			V48.036z"/>
	</g>
	<g>
		<path fill="#FFFFFF" d="M191.483,31.345V20.801h1.395v9.3h5.193v1.244C198.071,31.345,191.483,31.345,191.483,31.345z"/>
		<path fill="#FFFFFF" d="M198.672,31.345V20.801h7.624v1.244h-6.229v3.229h5.833v1.237h-5.833V30.1h6.473v1.244L198.672,31.345
			L198.672,31.345z"/>
		<path fill="#FFFFFF" d="M210.391,31.345l-4.085-10.544h1.51l2.74,7.66c0.22,0.613,0.405,1.188,0.554,1.726
			c0.163-0.575,0.353-1.15,0.568-1.726l2.848-7.66h1.424l-4.128,10.544C211.822,31.345,210.391,31.345,210.391,31.345z"/>
		<path fill="#FFFFFF" d="M214.955,31.345l4.049-10.544h1.503l4.315,10.544h-1.59l-1.23-3.193h-4.409l-1.158,3.193
			C216.435,31.345,214.955,31.345,214.955,31.345z M217.997,27.015h3.575l-1.101-2.92c-0.336-0.887-0.585-1.615-0.748-2.187
			c-0.135,0.676-0.324,1.348-0.568,2.014L217.997,27.015z"/>
		<path fill="#FFFFFF" d="M224.833,31.345V20.801h1.431l5.538,8.278v-8.278h1.338v10.544h-1.431l-5.538-8.285v8.285
			C226.171,31.345,224.833,31.345,224.833,31.345z"/>
		<path fill="#FFFFFF" d="M237.077,31.345v-9.3h-3.474v-1.244h8.357v1.244h-3.488v9.3C238.472,31.345,237.077,31.345,237.077,31.345
			z"/>
		<path fill="#FFFFFF" d="M241.144,31.345l4.049-10.544h1.503l4.315,10.544h-1.59l-1.23-3.193h-4.409l-1.158,3.193
			C242.624,31.345,241.144,31.345,241.144,31.345z M244.187,27.015h3.575l-1.101-2.92c-0.336-0.887-0.585-1.615-0.748-2.187
			c-0.135,0.676-0.324,1.348-0.568,2.014L244.187,27.015z"/>
		<path fill="#FFFFFF" d="M250.994,31.345V20.801h2.1l2.496,7.466c0.23,0.695,0.398,1.215,0.503,1.561
			c0.12-0.384,0.307-0.947,0.561-1.69l2.524-7.336h1.877v10.544h-1.345V22.52l-3.064,8.825h-1.259l-3.05-8.976v8.976
			C252.337,31.345,250.994,31.345,250.994,31.345z"/>
		<path fill="#FFFFFF" d="M262.454,31.345V20.801h1.395v10.544C263.849,31.345,262.454,31.345,262.454,31.345z"/>
		<path fill="#FFFFFF" d="M265.248,31.345V20.801h7.624v1.244h-6.229v3.229h5.833v1.237h-5.833V30.1h6.473v1.244L265.248,31.345
			L265.248,31.345z"/>
		<path fill="#FFFFFF" d="M273.94,31.345V20.801h1.431l5.538,8.278v-8.278h1.338v10.544h-1.431l-5.538-8.285v8.285
			C275.278,31.345,273.94,31.345,273.94,31.345z"/>
		<path fill="#FFFFFF" d="M286.184,31.345v-9.3h-3.474v-1.244h8.357v1.244h-3.488v9.3C287.579,31.345,286.184,31.345,286.184,31.345
			z"/>
		<path fill="#FFFFFF" d="M290.985,26.209c0-1.75,0.47-3.12,1.41-4.11c0.94-0.989,2.153-1.485,3.639-1.485
			c0.973,0,1.851,0.233,2.633,0.698c0.781,0.465,1.377,1.113,1.787,1.945c0.41,0.832,0.615,1.775,0.615,2.83
			c0,1.069-0.216,2.026-0.647,2.87c-0.432,0.844-1.043,1.482-1.834,1.917c-0.791,0.434-1.645,0.65-2.561,0.65
			c-0.993,0-1.88-0.239-2.661-0.719c-0.782-0.479-1.374-1.135-1.777-1.964S290.985,27.135,290.985,26.209z M292.423,26.231
			c0,1.271,0.342,2.271,1.025,3.002c0.683,0.731,1.54,1.098,2.571,1.098c1.05,0,1.914-0.369,2.593-1.108
			c0.678-0.738,1.018-1.786,1.018-3.143c0-0.858-0.145-1.607-0.435-2.248c-0.29-0.64-0.715-1.136-1.273-1.488
			c-0.559-0.353-1.186-0.529-1.881-0.529c-0.988,0-1.838,0.34-2.55,1.019C292.779,23.511,292.423,24.644,292.423,26.231z"/>
	</g>
	<g>
		<rect x="1.608" y="92.28" fill="#144A8B" width="130.369" height="48.036"/>
		<path fill="#FFCD07" d="M131.977,141.923H1.608c-0.886,0-1.608-0.717-1.608-1.606V92.28c0-0.889,0.722-1.607,1.608-1.607h130.369
			c0.888,0,1.606,0.719,1.606,1.607v48.036C133.582,141.206,132.865,141.923,131.977,141.923z M3.214,138.71h127.157V93.888H3.214
			V138.71z"/>
	</g>
	<g>
		<path fill="#FFFFFF" d="M31.432,122.019l-4.085-10.544h1.51l2.74,7.66c0.22,0.613,0.405,1.188,0.554,1.726
			c0.163-0.575,0.352-1.15,0.568-1.726l2.848-7.66h1.424l-4.128,10.544C32.863,122.019,31.432,122.019,31.432,122.019z"/>
		<path fill="#FFFFFF" d="M35.995,122.019l4.049-10.544h1.503l4.315,10.544h-1.589l-1.23-3.193h-4.409l-1.158,3.193H35.995z
			 M39.038,117.688h3.575l-1.1-2.92c-0.336-0.887-0.585-1.615-0.748-2.187c-0.134,0.676-0.324,1.348-0.568,2.014L39.038,117.688z"/>
		<path fill="#FFFFFF" d="M45.831,122.019v-10.544h1.395v9.3h5.193v1.244C52.419,122.019,45.831,122.019,45.831,122.019z"/>
		<path fill="#FFFFFF" d="M53.228,122.019v-10.544h1.395v10.544H53.228z"/>
		<path fill="#FFFFFF" d="M55.992,122.019v-10.544h3.632c0.82,0,1.446,0.051,1.877,0.151c0.604,0.139,1.119,0.391,1.546,0.755
			c0.556,0.47,0.972,1.07,1.248,1.802c0.276,0.731,0.414,1.566,0.414,2.507c0,0.801-0.093,1.51-0.28,2.129
			c-0.187,0.618-0.427,1.13-0.719,1.535c-0.292,0.405-0.613,0.724-0.96,0.957c-0.348,0.232-0.767,0.408-1.259,0.528
			s-1.056,0.18-1.694,0.18C59.797,122.019,55.992,122.019,55.992,122.019z M57.388,120.774h2.251c0.695,0,1.24-0.064,1.636-0.194
			s0.711-0.312,0.946-0.547c0.331-0.331,0.588-0.775,0.773-1.334s0.277-1.235,0.277-2.032c0-1.103-0.181-1.95-0.543-2.542
			s-0.802-0.989-1.32-1.19c-0.374-0.144-0.976-0.216-1.805-0.216h-2.215V120.774z"/>
		<path fill="#FFFFFF" d="M64.382,122.019l4.049-10.544h1.503l4.315,10.544h-1.59l-1.23-3.193H67.02l-1.158,3.193H64.382z
			 M67.424,117.688h3.575l-1.101-2.92c-0.335-0.887-0.585-1.615-0.748-2.187c-0.134,0.676-0.323,1.348-0.568,2.014L67.424,117.688z"
			/>
		<path fill="#FFFFFF" d="M81.798,118.321l1.395,0.353c-0.293,1.146-0.819,2.021-1.579,2.622c-0.76,0.602-1.689,0.902-2.787,0.902
			c-1.136,0-2.061-0.231-2.773-0.694c-0.712-0.462-1.254-1.133-1.625-2.01c-0.372-0.878-0.557-1.819-0.557-2.827
			c0-1.098,0.21-2.056,0.629-2.873c0.42-0.817,1.017-1.438,1.791-1.862c0.774-0.425,1.626-0.637,2.557-0.637
			c1.055,0,1.942,0.269,2.661,0.806s1.22,1.292,1.503,2.266l-1.374,0.323c-0.245-0.767-0.6-1.325-1.064-1.676
			c-0.465-0.35-1.05-0.525-1.755-0.525c-0.811,0-1.488,0.194-2.032,0.583s-0.927,0.91-1.147,1.564
			c-0.221,0.654-0.331,1.329-0.331,2.024c0,0.896,0.131,1.68,0.392,2.349s0.668,1.169,1.219,1.499
			c0.551,0.331,1.148,0.497,1.791,0.497c0.781,0,1.443-0.226,1.985-0.677C81.239,119.878,81.606,119.209,81.798,118.321z"/>
		<path fill="#FFFFFF" d="M84.06,122.019v-10.544h1.395v10.544H84.06z"/>
		<path fill="#FFFFFF" d="M86.4,116.883c0-1.75,0.47-3.12,1.41-4.11c0.94-0.989,2.153-1.485,3.639-1.485
			c0.973,0,1.851,0.233,2.633,0.698c0.781,0.465,1.377,1.113,1.787,1.945s0.615,1.775,0.615,2.83c0,1.069-0.216,2.026-0.647,2.87
			c-0.432,0.844-1.043,1.482-1.834,1.917c-0.791,0.434-1.645,0.65-2.561,0.65c-0.993,0-1.88-0.239-2.661-0.719
			c-0.782-0.479-1.374-1.135-1.777-1.964S86.4,117.809,86.4,116.883z M87.839,116.905c0,1.271,0.342,2.271,1.025,3.002
			s1.54,1.098,2.571,1.098c1.05,0,1.914-0.369,2.593-1.108c0.678-0.738,1.018-1.786,1.018-3.143c0-0.858-0.145-1.607-0.435-2.248
			c-0.29-0.64-0.715-1.136-1.273-1.488c-0.559-0.353-1.186-0.529-1.881-0.529c-0.988,0-1.838,0.34-2.55,1.019
			C88.195,114.185,87.839,115.317,87.839,116.905z M90.557,110.827l0.957-2.014h1.698l-1.582,2.014H90.557z"/>
		<path fill="#FFFFFF" d="M97.178,122.019v-10.544h1.431l5.538,8.278v-8.278h1.338v10.544h-1.431l-5.538-8.285v8.285H97.178z"/>
	</g>
	<g>
		<rect x="359.771" y="92.28" fill="#144A8B" width="130.368" height="48.036"/>
		<path fill="#FFCD07" d="M490.14,141.923H359.771c-0.887,0-1.608-0.717-1.608-1.606V92.28c0-0.889,0.722-1.607,1.608-1.607H490.14
			c0.888,0,1.606,0.719,1.606,1.607v48.036C491.746,141.206,491.028,141.923,490.14,141.923z M361.378,138.71h127.156V93.888
			H361.378V138.71z"/>
	</g>
	<g>
		<path fill="#FFFFFF" d="M395.786,122.019l4.049-10.544h1.503l4.315,10.544h-1.59l-1.23-3.193h-4.409l-1.158,3.193H395.786z
			 M398.829,117.688h3.575l-1.101-2.92c-0.336-0.887-0.585-1.615-0.748-2.187c-0.135,0.676-0.324,1.348-0.568,2.014L398.829,117.688
			z"/>
		<path fill="#FFFFFF" d="M405.665,122.019v-10.544h1.431l5.538,8.278v-8.278h1.338v10.544h-1.431l-5.538-8.285v8.285H405.665z"/>
		<path fill="#FFFFFF" d="M414.069,122.019l4.049-10.544h1.503l4.315,10.544h-1.59l-1.23-3.193h-4.409l-1.158,3.193H414.069z
			 M417.111,117.688h3.575l-1.101-2.92c-0.336-0.887-0.585-1.615-0.748-2.187c-0.135,0.676-0.324,1.348-0.568,2.014L417.111,117.688
			z M417.981,110.827l0.957-2.014h1.697l-1.582,2.014H417.981z"/>
		<path fill="#FFFFFF" d="M423.904,122.019v-10.544h1.395v9.3h5.193v1.244C430.492,122.019,423.904,122.019,423.904,122.019z"/>
		<path fill="#FFFFFF" d="M431.301,122.019v-10.544h1.395v10.544H431.301z"/>
		<path fill="#FFFFFF" d="M433.591,118.631l1.316-0.115c0.062,0.527,0.208,0.96,0.435,1.299c0.228,0.338,0.581,0.611,1.061,0.819
			c0.479,0.209,1.019,0.313,1.618,0.313c0.532,0,1.002-0.079,1.41-0.237c0.407-0.158,0.711-0.376,0.91-0.651
			s0.299-0.576,0.299-0.902c0-0.331-0.096-0.62-0.288-0.867c-0.192-0.247-0.508-0.454-0.949-0.622
			c-0.283-0.11-0.909-0.281-1.877-0.514c-0.969-0.232-1.647-0.452-2.035-0.658c-0.503-0.264-0.879-0.591-1.126-0.982
			s-0.37-0.828-0.37-1.313c0-0.532,0.151-1.029,0.453-1.492s0.743-0.813,1.323-1.054c0.58-0.239,1.225-0.359,1.935-0.359
			c0.781,0,1.471,0.126,2.068,0.377c0.597,0.252,1.056,0.623,1.377,1.111c0.321,0.489,0.494,1.043,0.518,1.662l-1.338,0.101
			c-0.072-0.667-0.315-1.17-0.73-1.511c-0.415-0.34-1.027-0.511-1.838-0.511c-0.844,0-1.459,0.155-1.845,0.464
			c-0.386,0.31-0.579,0.683-0.579,1.119c0,0.378,0.137,0.69,0.41,0.935c0.269,0.244,0.97,0.495,2.104,0.752
			c1.134,0.256,1.912,0.48,2.334,0.672c0.614,0.283,1.067,0.642,1.359,1.075c0.292,0.435,0.439,0.935,0.439,1.5
			c0,0.561-0.161,1.09-0.482,1.586s-0.783,0.882-1.385,1.158c-0.602,0.275-1.279,0.413-2.032,0.413
			c-0.954,0-1.754-0.139-2.399-0.417s-1.151-0.696-1.518-1.255C433.803,119.968,433.61,119.336,433.591,118.631z"/>
		<path fill="#FFFFFF" d="M443.038,122.019v-10.544h1.395v10.544H443.038z"/>
		<path fill="#FFFFFF" d="M445.328,118.631l1.316-0.115c0.062,0.527,0.208,0.96,0.435,1.299c0.228,0.338,0.581,0.611,1.061,0.819
			c0.479,0.209,1.019,0.313,1.618,0.313c0.532,0,1.002-0.079,1.41-0.237c0.407-0.158,0.711-0.376,0.91-0.651
			s0.299-0.576,0.299-0.902c0-0.331-0.096-0.62-0.288-0.867c-0.192-0.247-0.508-0.454-0.949-0.622
			c-0.283-0.11-0.909-0.281-1.877-0.514c-0.969-0.232-1.647-0.452-2.035-0.658c-0.503-0.264-0.879-0.591-1.126-0.982
			s-0.37-0.828-0.37-1.313c0-0.532,0.151-1.029,0.453-1.492s0.743-0.813,1.323-1.054c0.58-0.239,1.225-0.359,1.935-0.359
			c0.781,0,1.471,0.126,2.068,0.377c0.597,0.252,1.056,0.623,1.377,1.111c0.321,0.489,0.494,1.043,0.518,1.662l-1.338,0.101
			c-0.072-0.667-0.315-1.17-0.73-1.511c-0.415-0.34-1.027-0.511-1.838-0.511c-0.844,0-1.459,0.155-1.845,0.464
			c-0.386,0.31-0.579,0.683-0.579,1.119c0,0.378,0.137,0.69,0.41,0.935c0.269,0.244,0.97,0.495,2.104,0.752
			c1.134,0.256,1.912,0.48,2.334,0.672c0.614,0.283,1.067,0.642,1.359,1.075c0.292,0.435,0.439,0.935,0.439,1.5
			c0,0.561-0.161,1.09-0.482,1.586s-0.783,0.882-1.385,1.158c-0.602,0.275-1.279,0.413-2.032,0.413
			c-0.954,0-1.754-0.139-2.399-0.417s-1.151-0.696-1.518-1.255C445.54,119.968,445.347,119.336,445.328,118.631z"/>
	</g>
	<g>
		<rect x="180.69" y="184.088" fill="#144A8B" width="130.368" height="48.036"/>
		<path fill="#FFCD07" d="M311.058,233.732H180.69c-0.886,0-1.608-0.718-1.608-1.608v-48.036c0-0.887,0.722-1.606,1.608-1.606
			h130.368c0.888,0,1.606,0.72,1.606,1.606v48.036C312.664,233.014,311.946,233.732,311.058,233.732z M182.296,230.52h127.156
			v-44.824H182.296V230.52z"/>
	</g>
	<g>
		<path fill="#FFFFFF" d="M212.422,213.825v-10.544h3.632c0.82,0,1.446,0.051,1.877,0.151c0.604,0.139,1.12,0.391,1.546,0.755
			c0.556,0.47,0.972,1.07,1.248,1.802c0.276,0.731,0.414,1.566,0.414,2.507c0,0.801-0.094,1.51-0.281,2.129
			c-0.187,0.618-0.427,1.13-0.719,1.535s-0.613,0.724-0.96,0.957c-0.348,0.232-0.767,0.408-1.259,0.528s-1.056,0.18-1.694,0.18
			H212.422z M213.817,212.581h2.251c0.695,0,1.241-0.064,1.636-0.194s0.711-0.312,0.946-0.547c0.331-0.331,0.589-0.775,0.773-1.334
			s0.277-1.235,0.277-2.032c0-1.103-0.181-1.95-0.543-2.542c-0.362-0.592-0.802-0.989-1.32-1.19
			c-0.374-0.144-0.976-0.216-1.805-0.216h-2.215V212.581z"/>
		<path fill="#FFFFFF" d="M222.206,213.825v-10.544h1.395v10.544H222.206z"/>
		<path fill="#FFFFFF" d="M225.043,213.825v-10.544h7.113v1.244h-5.718v3.266h4.948v1.244h-4.948v4.79H225.043z"/>
		<path fill="#FFFFFF" d="M233.116,213.825v-10.544h1.395v10.544H233.116z"/>
		<path fill="#FFFFFF" d="M235.867,213.825v-10.544h1.431l5.538,8.278v-8.278h1.338v10.544h-1.431l-5.538-8.285v8.285H235.867z"/>
		<path fill="#FFFFFF" d="M245.666,213.825v-10.544h1.395v10.544H245.666z"/>
		<path fill="#FFFFFF" d="M255.955,210.128l1.395,0.353c-0.292,1.146-0.819,2.021-1.579,2.622s-1.689,0.902-2.787,0.902
			c-1.136,0-2.061-0.231-2.773-0.694c-0.712-0.462-1.254-1.133-1.625-2.01c-0.372-0.878-0.557-1.819-0.557-2.827
			c0-1.098,0.21-2.056,0.629-2.873c0.419-0.817,1.016-1.438,1.791-1.862c0.774-0.425,1.627-0.637,2.557-0.637
			c1.055,0,1.942,0.269,2.661,0.806c0.719,0.537,1.22,1.292,1.503,2.266l-1.374,0.323c-0.245-0.767-0.6-1.325-1.065-1.676
			c-0.465-0.35-1.05-0.525-1.755-0.525c-0.81,0-1.488,0.194-2.032,0.583s-0.927,0.91-1.147,1.564
			c-0.221,0.654-0.331,1.329-0.331,2.024c0,0.896,0.131,1.68,0.392,2.349s0.668,1.169,1.219,1.499
			c0.551,0.331,1.148,0.497,1.791,0.497c0.781,0,1.443-0.226,1.985-0.677C255.396,211.685,255.763,211.016,255.955,210.128z"/>
		<path fill="#FFFFFF" d="M258.216,213.825v-10.544h1.395v10.544H258.216z"/>
		<path fill="#FFFFFF" d="M260.557,208.689c0-1.75,0.47-3.12,1.41-4.11c0.94-0.989,2.153-1.485,3.639-1.485
			c0.973,0,1.851,0.233,2.633,0.698c0.781,0.465,1.377,1.113,1.787,1.945c0.41,0.832,0.615,1.775,0.615,2.83
			c0,1.069-0.216,2.026-0.647,2.87c-0.432,0.844-1.043,1.482-1.834,1.917c-0.791,0.434-1.645,0.65-2.561,0.65
			c-0.993,0-1.88-0.239-2.661-0.719c-0.782-0.479-1.374-1.135-1.777-1.964S260.557,209.615,260.557,208.689z M261.995,208.712
			c0,1.271,0.342,2.271,1.025,3.002c0.683,0.731,1.54,1.098,2.571,1.098c1.05,0,1.914-0.369,2.593-1.108
			c0.678-0.738,1.018-1.786,1.018-3.143c0-0.858-0.145-1.607-0.435-2.248c-0.29-0.64-0.715-1.136-1.273-1.488
			c-0.559-0.353-1.186-0.529-1.881-0.529c-0.988,0-1.838,0.34-2.55,1.019C262.352,205.991,261.995,207.124,261.995,208.712z
			 M264.714,202.634l0.957-2.014h1.698l-1.582,2.014H264.714z"/>
		<path fill="#FFFFFF" d="M271.334,213.825v-10.544h1.431l5.538,8.278v-8.278h1.338v10.544h-1.431l-5.538-8.285v8.285H271.334z"/>
	</g>
</g>
<g>
	<g>
		<polyline fill="none" stroke="#144A8B" stroke-width="2" stroke-miterlimit="10" points="312.664,26.319 427.14,26.319 
			427.14,76.321 		"/>
		<g>
			<polygon fill="#144A8B" points="417.167,73.403 427.139,90.673 437.112,73.403 			"/>
		</g>
	</g>
</g>
<g>
	<g>
		<polyline fill="none" stroke="#144A8B" stroke-width="2" stroke-miterlimit="10" points="67.82,90.673 67.82,26.319 
			164.731,26.319 		"/>
		<g>
			<polygon fill="#144A8B" points="161.813,36.292 179.082,26.32 161.813,16.347 			"/>
		</g>
	</g>
</g>
<g>
	<g>
		<polyline fill="none" stroke="#144A8B" stroke-width="2" stroke-miterlimit="10" points="179.082,208.759 67.82,208.759 
			67.82,156.274 		"/>
		<g>
			<polygon fill="#144A8B" points="77.793,159.192 67.821,141.923 57.848,159.192 			"/>
		</g>
	</g>
</g>
<g>
	<g>
		<polyline fill="none" stroke="#144A8B" stroke-width="2" stroke-miterlimit="10" points="427.14,141.923 427.14,208.759 
			327.015,208.759 		"/>
		<g>
			<polygon fill="#144A8B" points="329.933,198.786 312.664,208.758 329.933,218.731 			"/>
		</g>
	</g>
</g>
</svg>
