<!-- Generator: Adobe Illustrator 17.0.0, SVG Export Plug-In  -->
<svg version="1.1"
	 xmlns="http://www.w3.org/2000/svg" xmlns:xlink="http://www.w3.org/1999/xlink" xmlns:a="http://ns.adobe.com/AdobeSVGViewerExtensions/3.0/"
	 x="0px" y="0px" width="107.776px" height="41.351px" viewBox="0 0 107.776 41.351" enable-background="new 0 0 107.776 41.351"
	 xml:space="preserve">
<defs>
</defs>
<g>
	<rect x="1.297" y="1.298" fill="#144A8B" width="105.183" height="38.757"/>
	<path fill="#FFCD07" d="M106.48,41.351H1.297C0.582,41.351,0,40.772,0,40.055V1.298C0,0.582,0.582,0,1.297,0H106.48
		c0.717,0,1.296,0.582,1.296,1.298v38.757C107.776,40.772,107.197,41.351,106.48,41.351z M2.593,38.759h102.592V2.593H2.593V38.759z
		"/>
</g>
<g>
	<path fill="#FFFFFF" d="M24.587,25.292v-8.507h2.931c0.661,0,1.166,0.04,1.514,0.122c0.488,0.112,0.903,0.315,1.248,0.609
		c0.449,0.379,0.784,0.863,1.007,1.453s0.334,1.264,0.334,2.022c0,0.646-0.075,1.219-0.226,1.718s-0.344,0.912-0.58,1.238
		c-0.236,0.327-0.494,0.585-0.775,0.772s-0.619,0.329-1.015,0.426c-0.397,0.098-0.852,0.146-1.367,0.146H24.587z M25.713,24.288
		h1.816c0.561,0,1.001-0.052,1.32-0.156c0.319-0.104,0.574-0.252,0.763-0.441c0.267-0.267,0.475-0.626,0.624-1.076
		c0.149-0.451,0.223-0.997,0.223-1.64c0-0.89-0.146-1.573-0.438-2.052c-0.292-0.478-0.647-0.798-1.065-0.96
		c-0.302-0.116-0.787-0.174-1.457-0.174h-1.787V24.288z"/>
	<path fill="#FFFFFF" d="M32.313,25.292v-8.507h6.151v1.004h-5.025v2.605h4.706v0.998h-4.706v2.896h5.222v1.004H32.313z"/>
	<path fill="#FFFFFF" d="M39.395,25.292v-8.507h5.739v1.004h-4.613v2.635h3.992v1.004h-3.992v3.864H39.395z"/>
	<path fill="#FFFFFF" d="M45.909,25.292v-8.507h1.126v8.507H45.909z"/>
	<path fill="#FFFFFF" d="M48.128,25.292v-8.507h1.155l4.468,6.679v-6.679h1.079v8.507h-1.155l-4.468-6.685v6.685H48.128z"/>
	<path fill="#FFFFFF" d="M56.034,25.292v-8.507h1.126v8.507H56.034z"/>
	<path fill="#FFFFFF" d="M64.335,22.31l1.126,0.284c-0.236,0.925-0.661,1.63-1.274,2.115c-0.613,0.485-1.363,0.729-2.249,0.729
		c-0.917,0-1.663-0.188-2.237-0.561s-1.012-0.914-1.312-1.622s-0.45-1.468-0.45-2.28c0-0.886,0.169-1.658,0.508-2.318
		c0.339-0.659,0.82-1.16,1.445-1.503c0.625-0.342,1.312-0.514,2.063-0.514c0.851,0,1.567,0.217,2.147,0.65
		c0.58,0.433,0.984,1.042,1.213,1.828l-1.108,0.261c-0.198-0.619-0.484-1.069-0.859-1.353c-0.375-0.282-0.847-0.423-1.416-0.423
		c-0.654,0-1.2,0.156-1.639,0.47c-0.439,0.313-0.748,0.734-0.926,1.262c-0.178,0.528-0.267,1.073-0.267,1.634
		c0,0.724,0.105,1.355,0.316,1.895c0.211,0.54,0.539,0.943,0.983,1.21s0.927,0.4,1.445,0.4c0.63,0,1.164-0.182,1.602-0.545
		C63.884,23.564,64.18,23.025,64.335,22.31z"/>
	<path fill="#FFFFFF" d="M66.16,25.292v-8.507h1.126v8.507H66.16z"/>
	<path fill="#FFFFFF" d="M68.048,21.148c0-1.412,0.379-2.518,1.137-3.316c0.758-0.799,1.737-1.198,2.936-1.198
		c0.785,0,1.493,0.188,2.124,0.563c0.631,0.375,1.111,0.898,1.442,1.569c0.331,0.671,0.496,1.433,0.496,2.283
		c0,0.863-0.174,1.635-0.522,2.315c-0.348,0.681-0.842,1.196-1.48,1.547c-0.638,0.35-1.327,0.525-2.066,0.525
		c-0.801,0-1.517-0.193-2.147-0.581c-0.631-0.387-1.108-0.914-1.433-1.584C68.211,22.604,68.048,21.896,68.048,21.148z
		 M69.209,21.166c0,1.025,0.276,1.833,0.827,2.423s1.243,0.885,2.074,0.885c0.847,0,1.544-0.298,2.092-0.894
		c0.547-0.596,0.821-1.441,0.821-2.536c0-0.692-0.117-1.297-0.351-1.813c-0.234-0.516-0.576-0.916-1.027-1.201
		c-0.451-0.284-0.957-0.426-1.518-0.426c-0.797,0-1.482,0.273-2.057,0.82C69.496,18.972,69.209,19.886,69.209,21.166z
		 M71.402,16.263l0.772-1.625h1.369l-1.277,1.625H71.402z"/>
	<path fill="#FFFFFF" d="M76.743,25.292v-8.507h1.155l4.468,6.679v-6.679h1.079v8.507h-1.155l-4.468-6.685v6.685H76.743z"/>
</g>
</svg>