<!-- Generator: Adobe Illustrator 17.0.0, SVG Export Plug-In  -->
<svg version="1.1"
	 xmlns="http://www.w3.org/2000/svg" xmlns:xlink="http://www.w3.org/1999/xlink" xmlns:a="http://ns.adobe.com/AdobeSVGViewerExtensions/3.0/"
	 x="0px" y="0px" width="107.776px" height="41.351px" viewBox="0 0 107.776 41.351" enable-background="new 0 0 107.776 41.351"
	 xml:space="preserve">
<defs>
</defs>
<g>
	<rect x="1.298" y="1.298" fill="#144A8B" width="105.183" height="38.757"/>
	<path fill="#FFCD07" d="M106.481,41.351H1.298C0.582,41.351,0,40.772,0,40.055V1.298C0,0.582,0.582,0,1.298,0h105.183
		c0.716,0,1.295,0.582,1.295,1.298v38.757C107.776,40.772,107.197,41.351,106.481,41.351z M2.593,38.759h102.592V2.593H2.593V38.759
		z"/>
</g>
<g>
	<path fill="#FFFFFF" d="M30.355,25.292l3.267-8.507h1.213l3.482,8.507h-1.282l-0.992-2.576h-3.557l-0.934,2.576H30.355z
		 M32.81,21.799h2.884l-0.888-2.356c-0.271-0.716-0.472-1.304-0.604-1.764c-0.108,0.545-0.261,1.087-0.458,1.625L32.81,21.799z"/>
	<path fill="#FFFFFF" d="M38.325,25.292v-8.507h1.155l4.468,6.679v-6.679h1.079v8.507h-1.155l-4.468-6.685v6.685H38.325z"/>
	<path fill="#FFFFFF" d="M45.106,25.292l3.267-8.507h1.213l3.482,8.507h-1.282l-0.992-2.576h-3.557l-0.934,2.576H45.106z
		 M47.56,21.799h2.884l-0.888-2.356c-0.271-0.716-0.472-1.304-0.604-1.764c-0.108,0.545-0.261,1.087-0.458,1.625L47.56,21.799z
		 M48.262,16.263l0.772-1.625h1.369l-1.277,1.625H48.262z"/>
	<path fill="#FFFFFF" d="M53.041,25.292v-8.507h1.126v7.503h4.19v1.004H53.041z"/>
	<path fill="#FFFFFF" d="M59.009,25.292v-8.507h1.126v8.507H59.009z"/>
	<path fill="#FFFFFF" d="M60.856,22.559l1.062-0.093c0.05,0.426,0.167,0.774,0.351,1.048c0.184,0.272,0.469,0.493,0.856,0.661
		c0.387,0.168,0.822,0.253,1.306,0.253c0.429,0,0.809-0.064,1.137-0.191c0.329-0.128,0.573-0.303,0.734-0.525
		c0.16-0.223,0.241-0.466,0.241-0.729c0-0.267-0.077-0.5-0.232-0.699s-0.41-0.366-0.766-0.502c-0.228-0.089-0.733-0.228-1.515-0.415
		s-1.329-0.364-1.642-0.531c-0.406-0.212-0.709-0.477-0.908-0.792s-0.299-0.668-0.299-1.059c0-0.43,0.122-0.831,0.365-1.204
		s0.6-0.657,1.068-0.851c0.468-0.193,0.988-0.29,1.561-0.29c0.631,0,1.187,0.102,1.668,0.305s0.852,0.502,1.111,0.896
		c0.259,0.395,0.398,0.842,0.418,1.341l-1.079,0.081c-0.058-0.537-0.254-0.943-0.589-1.219c-0.334-0.274-0.829-0.412-1.482-0.412
		c-0.681,0-1.177,0.125-1.489,0.375c-0.312,0.249-0.467,0.55-0.467,0.902c0,0.306,0.11,0.557,0.331,0.754
		c0.217,0.197,0.782,0.399,1.698,0.606c0.915,0.207,1.542,0.388,1.883,0.543c0.495,0.228,0.861,0.518,1.097,0.867
		c0.236,0.351,0.354,0.754,0.354,1.21c0,0.452-0.13,0.879-0.389,1.279s-0.632,0.712-1.117,0.935
		c-0.486,0.223-1.032,0.334-1.639,0.334c-0.77,0-1.415-0.112-1.935-0.337s-0.928-0.562-1.224-1.013
		C61.028,23.638,60.872,23.128,60.856,22.559z"/>
	<path fill="#FFFFFF" d="M68.478,25.292v-8.507h1.126v8.507H68.478z"/>
	<path fill="#FFFFFF" d="M70.326,22.559l1.062-0.093c0.05,0.426,0.167,0.774,0.351,1.048c0.184,0.272,0.469,0.493,0.856,0.661
		c0.387,0.168,0.822,0.253,1.306,0.253c0.429,0,0.809-0.064,1.137-0.191c0.329-0.128,0.573-0.303,0.734-0.525
		c0.16-0.223,0.241-0.466,0.241-0.729c0-0.267-0.077-0.5-0.232-0.699s-0.41-0.366-0.766-0.502c-0.228-0.089-0.733-0.228-1.515-0.415
		s-1.329-0.364-1.642-0.531c-0.406-0.212-0.709-0.477-0.908-0.792s-0.299-0.668-0.299-1.059c0-0.43,0.122-0.831,0.365-1.204
		s0.6-0.657,1.068-0.851c0.468-0.193,0.988-0.29,1.561-0.29c0.631,0,1.187,0.102,1.668,0.305s0.852,0.502,1.111,0.896
		c0.259,0.395,0.398,0.842,0.418,1.341l-1.079,0.081c-0.058-0.537-0.254-0.943-0.589-1.219c-0.334-0.274-0.829-0.412-1.482-0.412
		c-0.681,0-1.177,0.125-1.489,0.375c-0.312,0.249-0.467,0.55-0.467,0.902c0,0.306,0.11,0.557,0.331,0.754
		c0.217,0.197,0.782,0.399,1.698,0.606c0.915,0.207,1.542,0.388,1.883,0.543c0.495,0.228,0.861,0.518,1.097,0.867
		c0.236,0.351,0.354,0.754,0.354,1.21c0,0.452-0.13,0.879-0.389,1.279s-0.632,0.712-1.117,0.935
		c-0.486,0.223-1.032,0.334-1.639,0.334c-0.77,0-1.415-0.112-1.935-0.337s-0.928-0.562-1.224-1.013
		C70.497,23.638,70.342,23.128,70.326,22.559z"/>
</g>
</svg>