<!-- Generator: Adobe Illustrator 17.0.0, SVG Export Plug-In  -->
<svg version="1.1"
	 xmlns="http://www.w3.org/2000/svg" xmlns:xlink="http://www.w3.org/1999/xlink" xmlns:a="http://ns.adobe.com/AdobeSVGViewerExtensions/3.0/"
	 x="0px" y="0px" width="107.779px" height="41.351px" viewBox="0 0 107.779 41.351" enable-background="new 0 0 107.779 41.351"
	 xml:space="preserve">
<defs>
</defs>
<g>
	<rect x="1.297" y="1.296" fill="#144A8B" width="105.186" height="38.757"/>
	<path fill="#FFCD07" d="M106.484,41.351H1.297C0.582,41.351,0,40.771,0,40.053V1.296C0,0.581,0.582,0,1.297,0h105.186
		c0.716,0,1.295,0.581,1.295,1.296v38.757C107.779,40.771,107.2,41.351,106.484,41.351z M2.593,38.759h102.594V2.592H2.593V38.759z"
		/>
</g>
<g>
	<path fill="#FFFFFF" d="M10.006,25.289v-8.507h1.126v7.503h4.19v1.004H10.006z"/>
	<path fill="#FFFFFF" d="M15.806,25.289v-8.507h6.151v1.004h-5.025v2.605h4.706v0.998h-4.706v2.896h5.223v1.004H15.806z"/>
	<path fill="#FFFFFF" d="M25.261,25.289l-3.296-8.507h1.219l2.211,6.18c0.178,0.495,0.327,0.96,0.447,1.393
		c0.131-0.464,0.284-0.928,0.458-1.393l2.298-6.18h1.149l-3.331,8.507H25.261z"/>
	<path fill="#FFFFFF" d="M28.943,25.289l3.267-8.507h1.213l3.482,8.507h-1.282l-0.992-2.576h-3.557l-0.934,2.576H28.943z
		 M31.398,21.796h2.884l-0.888-2.356c-0.271-0.716-0.472-1.304-0.604-1.764c-0.108,0.545-0.261,1.087-0.458,1.625L31.398,21.796z"/>
	<path fill="#FFFFFF" d="M36.914,25.289v-8.507h1.155l4.468,6.679v-6.679h1.079v8.507h-1.155l-4.468-6.686v6.686H36.914z"/>
	<path fill="#FFFFFF" d="M46.793,25.289v-7.503H43.99v-1.004h6.743v1.004h-2.814v7.503H46.793z"/>
	<path fill="#FFFFFF" d="M50.074,25.289l3.267-8.507h1.213l3.482,8.507h-1.282l-0.992-2.576h-3.557l-0.934,2.576H50.074z
		 M52.529,21.796h2.884l-0.888-2.356c-0.271-0.716-0.472-1.304-0.604-1.764c-0.108,0.545-0.261,1.087-0.458,1.625L52.529,21.796z"/>
	<path fill="#FFFFFF" d="M58.021,25.289v-8.507h1.695l2.013,6.023c0.186,0.561,0.321,0.98,0.406,1.259
		c0.097-0.31,0.248-0.764,0.453-1.363l2.037-5.919h1.515v8.507h-1.085v-7.12l-2.472,7.12h-1.016l-2.46-7.242v7.242H58.021z"/>
	<path fill="#FFFFFF" d="M67.268,25.289v-8.507h1.126v8.507H67.268z"/>
	<path fill="#FFFFFF" d="M69.522,25.289v-8.507h6.151v1.004h-5.025v2.605h4.706v0.998h-4.706v2.896h5.223v1.004H69.522z"/>
	<path fill="#FFFFFF" d="M76.535,25.289v-8.507h1.155l4.468,6.679v-6.679h1.079v8.507h-1.155l-4.468-6.686v6.686H76.535z"/>
	<path fill="#FFFFFF" d="M86.414,25.289v-7.503h-2.803v-1.004h6.743v1.004H87.54v7.503H86.414z"/>
	<path fill="#FFFFFF" d="M90.288,21.146c0-1.412,0.379-2.518,1.137-3.316s1.737-1.198,2.936-1.198c0.785,0,1.493,0.188,2.124,0.563
		c0.63,0.376,1.111,0.899,1.442,1.57c0.331,0.671,0.496,1.433,0.496,2.283c0,0.863-0.174,1.635-0.522,2.315
		c-0.348,0.681-0.841,1.196-1.48,1.547c-0.638,0.35-1.327,0.525-2.066,0.525c-0.801,0-1.517-0.193-2.147-0.581
		c-0.631-0.387-1.108-0.915-1.433-1.584S90.288,21.893,90.288,21.146z M91.448,21.163c0,1.025,0.276,1.833,0.827,2.423
		s1.243,0.885,2.075,0.885c0.847,0,1.544-0.298,2.092-0.894c0.548-0.596,0.821-1.441,0.821-2.536c0-0.692-0.117-1.297-0.351-1.813
		c-0.234-0.517-0.577-0.917-1.027-1.201c-0.451-0.284-0.957-0.427-1.518-0.427c-0.797,0-1.483,0.274-2.057,0.821
		C91.736,18.969,91.448,19.883,91.448,21.163z"/>
</g>
</svg>