<?xml version="1.0" encoding="utf-8"?>
<!-- Generator: Adobe Illustrator 17.0.0, SVG Export Plug-In . SVG Version: 6.00 Build 0)  -->
<!DOCTYPE svg PUBLIC "-//W3C//DTD SVG 1.1//EN" "http://www.w3.org/Graphics/SVG/1.1/DTD/svg11.dtd" [
	<!ENTITY ns_extend "http://ns.adobe.com/Extensibility/1.0/">
	<!ENTITY ns_ai "http://ns.adobe.com/AdobeIllustrator/10.0/">
	<!ENTITY ns_graphs "http://ns.adobe.com/Graphs/1.0/">
	<!ENTITY ns_vars "http://ns.adobe.com/Variables/1.0/">
	<!ENTITY ns_imrep "http://ns.adobe.com/ImageReplacement/1.0/">
	<!ENTITY ns_sfw "http://ns.adobe.com/SaveForWeb/1.0/">
	<!ENTITY ns_custom "http://ns.adobe.com/GenericCustomNamespace/1.0/">
	<!ENTITY ns_adobe_xpath "http://ns.adobe.com/XPath/1.0/">
]>
<svg version="1.1" id="Capa_1" xmlns:x="&ns_extend;" xmlns:i="&ns_ai;" xmlns:graph="&ns_graphs;"
	 xmlns="http://www.w3.org/2000/svg" xmlns:xlink="http://www.w3.org/1999/xlink" x="0px" y="0px" width="187.729px"
	 height="187.729px" viewBox="0 0 187.729 187.729" enable-background="new 0 0 187.729 187.729" xml:space="preserve">
<metadata>
	<sfw  xmlns="&ns_sfw;">
		<slices></slices>
		<sliceSourceBounds  width="604.21" height="817.671" y="-1029.753" x="381.754" bottomLeftOrigin="true"></sliceSourceBounds>
	</sfw>
</metadata>
<g>
	<g>
		<circle fill="#FFFFFF" stroke="#000000" stroke-miterlimit="10" cx="93.864" cy="93.864" r="93.364"/>
		<path fill="#134A8A" stroke="#000000" stroke-miterlimit="10" d="M169.6,93.864c0,41.83-33.904,75.736-75.736,75.736
			c-41.824,0-75.732-33.906-75.732-75.736s33.908-75.736,75.732-75.736C135.695,18.128,169.6,52.034,169.6,93.864z"/>
	</g>
	<g>
		<g>
			<g>
				<rect x="51.173" y="59.968" fill="#FFFFFF" width="86.445" height="80.643"/>
				<path d="M137.618,141.197H51.173c-0.325,0-0.588-0.263-0.588-0.587V59.968c0-0.325,0.263-0.587,0.588-0.587h86.445
					c0.324,0,0.586,0.262,0.586,0.587v80.643C138.204,140.935,137.942,141.197,137.618,141.197z M51.761,140.022h85.269V60.556
					H51.761V140.022z"/>
			</g>
			<g>
				<path fill="#FFCC05" d="M137.618,52.827c0-5.258-4.264-9.52-9.52-9.52H60.693c-5.257,0-9.521,4.262-9.521,9.52v7.141h86.445
					V52.827z"/>
				<path d="M137.618,60.556H51.173c-0.325,0-0.588-0.264-0.588-0.588v-7.141c0-5.573,4.535-10.106,10.108-10.106h67.404
					c5.573,0,10.107,4.533,10.107,10.106v7.141C138.204,60.292,137.942,60.556,137.618,60.556z M51.761,59.381h85.269v-6.554
					c0-4.926-4.006-8.932-8.932-8.932H60.693c-4.926,0-8.933,4.006-8.933,8.932V59.381z"/>
			</g>
		</g>
		<g>
			<circle fill="#FFFFFF" cx="59.363" cy="51.638" r="3.042"/>
			<path d="M59.362,55.266c-2,0-3.629-1.627-3.629-3.628c0-2.001,1.629-3.629,3.629-3.629c2.002,0,3.629,1.628,3.629,3.629
				C62.991,53.639,61.364,55.266,59.362,55.266z M59.362,49.184c-1.352,0-2.453,1.101-2.453,2.454c0,1.354,1.102,2.455,2.453,2.455
				c1.354,0,2.454-1.102,2.454-2.455C61.816,50.284,60.716,49.184,59.362,49.184z"/>
		</g>
		<g>
			<circle fill="#FFFFFF" cx="68.652" cy="51.638" r="3.042"/>
			<path d="M68.652,55.266c-2.001,0-3.63-1.627-3.63-3.628c0-2.001,1.629-3.629,3.63-3.629s3.631,1.628,3.631,3.629
				C72.283,53.639,70.653,55.266,68.652,55.266z M68.652,49.184c-1.354,0-2.454,1.101-2.454,2.454c0,1.354,1.1,2.455,2.454,2.455
				c1.354,0,2.454-1.102,2.454-2.455C71.106,50.284,70.006,49.184,68.652,49.184z"/>
		</g>
		<g>
			<circle fill="#FFFFFF" cx="77.942" cy="51.638" r="3.041"/>
			<path d="M77.942,55.266c-2.002,0-3.629-1.627-3.629-3.628c0-2.001,1.627-3.629,3.629-3.629c2.001,0,3.629,1.628,3.629,3.629
				C81.571,53.639,79.943,55.266,77.942,55.266z M77.942,49.184c-1.353,0-2.454,1.101-2.454,2.454c0,1.354,1.102,2.455,2.454,2.455
				c1.354,0,2.455-1.102,2.455-2.455C80.397,50.284,79.296,49.184,77.942,49.184z"/>
		</g>
		<g>
			<line fill="#FFFFFF" x1="118.481" y1="54.68" x2="124.565" y2="54.68"/>
			<path d="M124.565,55.266h-6.084c-0.324,0-0.588-0.262-0.588-0.586c0-0.325,0.264-0.587,0.588-0.587h6.084
				c0.325,0,0.588,0.262,0.588,0.587C125.153,55.004,124.891,55.266,124.565,55.266z"/>
		</g>
		<g>
			<g>
				<line fill="#FFFFFF" x1="127.127" y1="49.282" x2="132.523" y2="54.68"/>
				<path d="M132.523,55.266c-0.149,0-0.3-0.057-0.415-0.171l-5.397-5.397c-0.23-0.229-0.23-0.602,0-0.831
					c0.229-0.229,0.6-0.229,0.83,0l5.396,5.397c0.229,0.229,0.229,0.602,0,0.831C132.825,55.209,132.674,55.266,132.523,55.266z"/>
			</g>
			<g>
				<line fill="#FFFFFF" x1="127.127" y1="54.68" x2="132.522" y2="49.28"/>
				<path d="M127.127,55.266c-0.15,0-0.302-0.057-0.415-0.171c-0.23-0.229-0.23-0.602,0-0.831l5.395-5.398
					c0.23-0.23,0.602-0.23,0.831,0c0.229,0.228,0.229,0.601,0,0.83l-5.396,5.399C127.428,55.209,127.277,55.266,127.127,55.266z"/>
			</g>
		</g>
		<g>
			<rect x="59.888" y="67.107" fill="#FFCC03" width="69.016" height="6.743"/>
			<path d="M128.903,74.438H59.888c-0.324,0-0.588-0.262-0.588-0.587v-6.743c0-0.325,0.264-0.588,0.588-0.588h69.016
				c0.324,0,0.588,0.263,0.588,0.588v6.743C129.491,74.176,129.227,74.438,128.903,74.438z M60.475,73.264h67.842v-5.569H60.475
				V73.264z"/>
		</g>
		<g>
			<rect x="59.888" y="80.593" fill="#144A8A" width="30.813" height="6.745"/>
			<path d="M90.7,87.925H59.888c-0.324,0-0.588-0.263-0.588-0.587v-6.745c0-0.324,0.264-0.587,0.588-0.587H90.7
				c0.325,0,0.588,0.263,0.588,0.587v6.745C91.288,87.662,91.025,87.925,90.7,87.925z M60.475,86.749h29.638v-5.568H60.475V86.749z"
				/>
		</g>
		<g>
			<rect x="101.14" y="80.593" fill="#144A8A" width="27.764" height="6.745"/>
			<path d="M128.903,87.925H101.14c-0.324,0-0.587-0.263-0.587-0.587v-6.745c0-0.324,0.263-0.587,0.587-0.587h27.764
				c0.324,0,0.588,0.263,0.588,0.587v6.745C129.491,87.662,129.227,87.925,128.903,87.925z M101.727,86.749h26.589v-5.568h-26.589
				V86.749z"/>
		</g>
		<g>
			<rect x="59.888" y="94.079" fill="#FFCC03" width="48.934" height="6.744"/>
			<path d="M108.821,101.409H59.888c-0.324,0-0.588-0.262-0.588-0.586v-6.744c0-0.324,0.264-0.587,0.588-0.587h48.934
				c0.325,0,0.588,0.263,0.588,0.587v6.744C109.409,101.147,109.146,101.409,108.821,101.409z M60.475,100.235h47.76v-5.568h-47.76
				V100.235z"/>
		</g>
		<g>
			<rect x="59.888" y="107.565" fill="#FFFFFF" width="15.014" height="6.744"/>
			<path d="M74.901,114.896H59.888c-0.324,0-0.588-0.263-0.588-0.587v-6.744c0-0.324,0.264-0.587,0.588-0.587h15.014
				c0.324,0,0.587,0.263,0.587,0.587v6.744C75.488,114.634,75.226,114.896,74.901,114.896z M60.475,113.722h13.839v-5.568H60.475
				V113.722z"/>
		</g>
		<g>
			<rect x="85.204" y="107.565" fill="#FFFFFF" width="43.699" height="6.744"/>
			<path d="M128.903,114.896H85.204c-0.324,0-0.587-0.263-0.587-0.587v-6.744c0-0.324,0.263-0.587,0.587-0.587h43.699
				c0.324,0,0.588,0.263,0.588,0.587v6.744C129.491,114.634,129.227,114.896,128.903,114.896z M85.792,113.722h42.524v-5.568H85.792
				V113.722z"/>
		</g>
		<g>
			<rect x="59.888" y="121.052" fill="#144A8A" width="26.713" height="6.744"/>
			<path d="M86.601,128.383H59.888c-0.324,0-0.588-0.263-0.588-0.587v-6.744c0-0.324,0.264-0.588,0.588-0.588h26.713
				c0.324,0,0.586,0.264,0.586,0.588v6.744C87.186,128.12,86.925,128.383,86.601,128.383z M60.475,127.208h25.538v-5.568H60.475
				V127.208z"/>
		</g>
	</g>
</g>
</svg>
