<?xml version="1.0" encoding="utf-8"?>
<!-- Generator: Adobe Illustrator 17.0.0, SVG Export Plug-In . SVG Version: 6.00 Build 0)  -->
<!DOCTYPE svg PUBLIC "-//W3C//DTD SVG 1.1//EN" "http://www.w3.org/Graphics/SVG/1.1/DTD/svg11.dtd" [
	<!ENTITY ns_extend "http://ns.adobe.com/Extensibility/1.0/">
	<!ENTITY ns_ai "http://ns.adobe.com/AdobeIllustrator/10.0/">
	<!ENTITY ns_graphs "http://ns.adobe.com/Graphs/1.0/">
	<!ENTITY ns_vars "http://ns.adobe.com/Variables/1.0/">
	<!ENTITY ns_imrep "http://ns.adobe.com/ImageReplacement/1.0/">
	<!ENTITY ns_sfw "http://ns.adobe.com/SaveForWeb/1.0/">
	<!ENTITY ns_custom "http://ns.adobe.com/GenericCustomNamespace/1.0/">
	<!ENTITY ns_adobe_xpath "http://ns.adobe.com/XPath/1.0/">
]>
<svg version="1.1" id="Capa_1" xmlns:x="&ns_extend;" xmlns:i="&ns_ai;" xmlns:graph="&ns_graphs;"
	 xmlns="http://www.w3.org/2000/svg" xmlns:xlink="http://www.w3.org/1999/xlink" x="0px" y="0px" width="313.782px"
	 height="51.256px" viewBox="0 0 313.782 51.256" enable-background="new 0 0 313.782 51.256" xml:space="preserve">
<metadata>
	<sfw  xmlns="&ns_sfw;">
		<slices></slices>
		<sliceSourceBounds  width="983.331" height="157.991" x="146.963" y="-431.525" bottomLeftOrigin="true"></sliceSourceBounds>
	</sfw>
</metadata>
<g>
	<rect x="0" y="2.053" fill="#D1D2D2" width="43.577" height="41.014"/>
	<g>
		<rect x="43.577" y="2.053" fill="#124B8A" width="268.154" height="41.014"/>
		<path fill="#FFCC03" d="M311.732,45.117H43.577c-1.132,0-2.052-0.917-2.052-2.051V2.053C41.525,0.92,42.445,0,43.577,0h268.154
			c1.133,0,2.051,0.92,2.051,2.053v41.014C313.782,44.2,312.864,45.117,311.732,45.117z M45.629,41.017h264.053V4.103H45.629V41.017
			z"/>
	</g>
	<path fill="#FFCC03" stroke="#000000" stroke-miterlimit="10" d="M34.787,25.339c0-7.488-6.092-13.582-13.581-13.582
		c-7.489,0-13.582,6.094-13.582,13.582c0,6.993,5.313,12.765,12.113,13.501v11.916h4.103V38.66
		C30.072,37.43,34.787,31.928,34.787,25.339z M21.206,34.82c-5.228,0-9.481-4.254-9.481-9.481c0-5.228,4.254-9.479,9.481-9.479
		c5.227,0,9.481,4.252,9.481,9.479C30.688,30.566,26.434,34.82,21.206,34.82z"/>
</g>
<g>
	<path fill="#FFCC03" d="M74.304,29.112V18.477h4.716c0.948,0,1.669,0.096,2.162,0.286c0.493,0.191,0.888,0.529,1.183,1.013
		s0.442,1.019,0.442,1.603c0,0.756-0.244,1.391-0.732,1.908c-0.489,0.518-1.243,0.847-2.264,0.987
		c0.372,0.179,0.655,0.355,0.849,0.529c0.411,0.378,0.801,0.849,1.168,1.415l1.85,2.895h-1.77l-1.408-2.213
		c-0.411-0.639-0.749-1.127-1.016-1.465c-0.266-0.339-0.504-0.576-0.714-0.711c-0.211-0.136-0.425-0.23-0.643-0.283
		c-0.159-0.034-0.421-0.051-0.783-0.051h-1.633v4.723H74.304z M75.711,23.171h3.025c0.644,0,1.146-0.066,1.509-0.199
		c0.363-0.134,0.639-0.346,0.827-0.639c0.189-0.293,0.283-0.611,0.283-0.955c0-0.502-0.183-0.916-0.548-1.24
		s-0.941-0.486-1.73-0.486h-3.366V23.171z"/>
	<path fill="#FFCC03" d="M83.942,29.112V18.477h7.689v1.255H85.35v3.258h5.884v1.248H85.35v3.62h6.529v1.255H83.942z"/>
	<path fill="#FFCC03" d="M95.764,29.112l-4.121-10.636h1.523l2.764,7.727c0.223,0.619,0.409,1.2,0.559,1.741
		c0.165-0.58,0.355-1.16,0.573-1.741l2.873-7.727h1.437l-4.164,10.636H95.764z"/>
	<path fill="#FFCC03" d="M101.774,29.112V18.477h1.407v10.636H101.774z"/>
	<path fill="#FFCC03" d="M104.083,25.695l1.328-0.116c0.063,0.532,0.209,0.969,0.438,1.31c0.23,0.341,0.587,0.616,1.07,0.827
		s1.028,0.315,1.633,0.315c0.537,0,1.011-0.079,1.422-0.239s0.717-0.379,0.918-0.656c0.2-0.278,0.301-0.582,0.301-0.911
		c0-0.333-0.097-0.625-0.29-0.874s-0.513-0.458-0.958-0.627c-0.285-0.111-0.916-0.285-1.894-0.52
		c-0.977-0.234-1.661-0.455-2.053-0.664c-0.508-0.266-0.887-0.596-1.136-0.99c-0.249-0.394-0.374-0.835-0.374-1.324
		c0-0.536,0.153-1.038,0.458-1.505s0.749-0.821,1.334-1.063c0.586-0.241,1.236-0.361,1.952-0.361c0.788,0,1.483,0.127,2.086,0.381
		c0.602,0.254,1.065,0.627,1.389,1.12c0.324,0.493,0.498,1.052,0.522,1.676l-1.35,0.102c-0.072-0.672-0.317-1.18-0.736-1.523
		c-0.418-0.343-1.036-0.515-1.854-0.515c-0.851,0-1.472,0.156-1.86,0.468c-0.39,0.312-0.584,0.688-0.584,1.128
		c0,0.383,0.138,0.696,0.413,0.943c0.271,0.246,0.979,0.5,2.122,0.758c1.144,0.259,1.929,0.484,2.354,0.679
		c0.619,0.285,1.076,0.646,1.371,1.085c0.295,0.438,0.442,0.941,0.442,1.512c0,0.566-0.162,1.1-0.486,1.6
		c-0.323,0.501-0.789,0.891-1.396,1.168c-0.606,0.279-1.29,0.418-2.049,0.418c-0.963,0-1.77-0.141-2.42-0.421
		s-1.161-0.702-1.53-1.267C104.298,27.044,104.103,26.406,104.083,25.695z"/>
	<path fill="#FFCC03" d="M113.613,29.112V18.477h1.407v10.636H113.613z"/>
	<path fill="#FFCC03" d="M115.974,23.933c0-1.766,0.475-3.148,1.423-4.146c0.947-0.998,2.171-1.498,3.671-1.498
		c0.981,0,1.866,0.234,2.655,0.703c0.788,0.47,1.389,1.124,1.803,1.963c0.413,0.84,0.62,1.791,0.62,2.855
		c0,1.078-0.218,2.043-0.653,2.895c-0.435,0.852-1.052,1.495-1.85,1.934c-0.798,0.438-1.659,0.656-2.583,0.656
		c-1.001,0-1.896-0.242-2.685-0.726c-0.788-0.483-1.385-1.144-1.791-1.981C116.177,25.751,115.974,24.866,115.974,23.933z
		 M117.425,23.954c0,1.281,0.345,2.291,1.034,3.029c0.689,0.737,1.554,1.105,2.594,1.105c1.059,0,1.931-0.372,2.615-1.117
		c0.685-0.744,1.026-1.801,1.026-3.17c0-0.865-0.146-1.621-0.438-2.268c-0.293-0.646-0.721-1.146-1.284-1.502
		s-1.196-0.533-1.897-0.533c-0.996,0-1.854,0.343-2.572,1.027C117.784,21.21,117.425,22.353,117.425,23.954z M120.167,17.823
		l0.966-2.031h1.712l-1.597,2.031H120.167z"/>
	<path fill="#FFCC03" d="M126.845,29.112V18.477h1.443l5.587,8.351v-8.351h1.349v10.636h-1.443l-5.586-8.357v8.357H126.845z"/>
	<path fill="#FFCC03" d="M139.519,29.112V18.477h3.663c0.827,0,1.459,0.051,1.894,0.152c0.609,0.14,1.13,0.395,1.561,0.762
		c0.561,0.474,0.98,1.08,1.259,1.817c0.277,0.738,0.417,1.58,0.417,2.528c0,0.808-0.095,1.523-0.283,2.147s-0.431,1.141-0.726,1.549
		c-0.295,0.409-0.618,0.73-0.969,0.965s-0.773,0.412-1.27,0.533c-0.495,0.121-1.065,0.182-1.708,0.182H139.519z M140.926,27.857
		h2.271c0.701,0,1.252-0.065,1.65-0.196c0.399-0.131,0.718-0.314,0.954-0.551c0.334-0.334,0.594-0.783,0.78-1.346
		c0.187-0.564,0.279-1.247,0.279-2.05c0-1.112-0.183-1.968-0.548-2.565c-0.365-0.597-0.809-0.997-1.331-1.2
		c-0.377-0.146-0.984-0.218-1.821-0.218h-2.234V27.857z"/>
	<path fill="#FFCC03" d="M149.179,29.112V18.477h7.689v1.255h-6.282v3.258h5.884v1.248h-5.884v3.62h6.529v1.255H149.179z"/>
	<path fill="#FFCC03" d="M161.01,29.112V18.477h4.716c0.948,0,1.669,0.096,2.162,0.286c0.493,0.191,0.888,0.529,1.183,1.013
		s0.442,1.019,0.442,1.603c0,0.756-0.244,1.391-0.732,1.908c-0.489,0.518-1.243,0.847-2.264,0.987
		c0.372,0.179,0.655,0.355,0.849,0.529c0.411,0.378,0.801,0.849,1.168,1.415l1.85,2.895h-1.77l-1.408-2.213
		c-0.411-0.639-0.749-1.127-1.016-1.465c-0.266-0.339-0.504-0.576-0.714-0.711c-0.211-0.136-0.425-0.23-0.643-0.283
		c-0.159-0.034-0.421-0.051-0.783-0.051h-1.633v4.723H161.01z M162.417,23.171h3.025c0.644,0,1.146-0.066,1.509-0.199
		c0.363-0.134,0.639-0.346,0.827-0.639c0.189-0.293,0.283-0.611,0.283-0.955c0-0.502-0.183-0.916-0.548-1.24
		s-0.941-0.486-1.73-0.486h-3.366V23.171z"/>
	<path fill="#FFCC03" d="M170.649,29.112V18.477h7.689v1.255h-6.282v3.258h5.884v1.248h-5.884v3.62h6.529v1.255H170.649z"/>
	<path fill="#FFCC03" d="M187.49,27.974c0.653,0.449,1.256,0.778,1.807,0.986l-0.413,0.979c-0.765-0.276-1.526-0.711-2.285-1.306
		c-0.789,0.439-1.659,0.66-2.612,0.66c-0.962,0-1.835-0.232-2.619-0.697c-0.783-0.464-1.387-1.117-1.81-1.959
		c-0.424-0.841-0.635-1.789-0.635-2.844c0-1.049,0.213-2.004,0.639-2.865c0.425-0.861,1.031-1.516,1.816-1.966
		c0.786-0.45,1.665-0.675,2.638-0.675c0.981,0,1.867,0.233,2.655,0.7s1.39,1.12,1.803,1.958c0.414,0.84,0.62,1.787,0.62,2.841
		c0,0.876-0.133,1.663-0.398,2.361C188.429,26.848,188.027,27.456,187.49,27.974z M184.393,26.174
		c0.813,0.228,1.482,0.565,2.01,1.017c0.827-0.756,1.24-1.889,1.24-3.403c0-0.86-0.146-1.612-0.438-2.257
		c-0.293-0.643-0.721-1.143-1.284-1.498s-1.196-0.533-1.897-0.533c-1.049,0-1.92,0.359-2.611,1.078
		c-0.691,0.718-1.037,1.791-1.037,3.217c0,1.384,0.342,2.445,1.026,3.186s1.559,1.109,2.622,1.109c0.503,0,0.978-0.094,1.422-0.282
		c-0.439-0.286-0.904-0.489-1.393-0.61L184.393,26.174z"/>
	<path fill="#FFCC03" d="M196.867,18.477h1.407v6.146c0,1.068-0.121,1.917-0.363,2.546c-0.241,0.629-0.678,1.14-1.31,1.534
		c-0.631,0.395-1.459,0.592-2.484,0.592c-0.996,0-1.812-0.172-2.445-0.516s-1.086-0.84-1.356-1.49s-0.406-1.539-0.406-2.666v-6.146
		h1.407v6.138c0,0.924,0.086,1.604,0.258,2.043c0.172,0.438,0.467,0.774,0.885,1.012c0.419,0.236,0.93,0.355,1.535,0.355
		c1.034,0,1.772-0.234,2.212-0.704c0.44-0.47,0.661-1.371,0.661-2.706V18.477z"/>
	<path fill="#FFCC03" d="M199.548,29.112V18.477h7.689v1.255h-6.282v3.258h5.884v1.248h-5.884v3.62h6.529v1.255H199.548z"/>
	<path fill="#FFCC03" d="M208.351,29.112V18.477h4.716c0.948,0,1.669,0.096,2.162,0.286c0.493,0.191,0.888,0.529,1.183,1.013
		s0.442,1.019,0.442,1.603c0,0.756-0.244,1.391-0.732,1.908c-0.489,0.518-1.243,0.847-2.264,0.987
		c0.372,0.179,0.655,0.355,0.849,0.529c0.411,0.378,0.801,0.849,1.168,1.415l1.85,2.895h-1.77l-1.408-2.213
		c-0.411-0.639-0.749-1.127-1.016-1.465c-0.266-0.339-0.504-0.576-0.714-0.711c-0.211-0.136-0.425-0.23-0.643-0.283
		c-0.159-0.034-0.421-0.051-0.783-0.051h-1.633v4.723H208.351z M209.758,23.171h3.025c0.644,0,1.146-0.066,1.509-0.199
		c0.363-0.134,0.639-0.346,0.827-0.639c0.189-0.293,0.283-0.611,0.283-0.955c0-0.502-0.183-0.916-0.548-1.24
		s-0.941-0.486-1.73-0.486h-3.366V23.171z"/>
	<path fill="#FFCC03" d="M218.199,29.112V18.477h1.407v10.636H218.199z"/>
	<path fill="#FFCC03" d="M220.944,29.112V18.477h2.118l2.518,7.53c0.232,0.701,0.401,1.227,0.508,1.574
		c0.121-0.387,0.31-0.955,0.566-1.705l2.546-7.399h1.894v10.636h-1.356V20.21l-3.091,8.902h-1.27l-3.076-9.055v9.055H220.944z"/>
	<path fill="#FFCC03" d="M232.505,29.112V18.477h1.407v10.636H232.505z"/>
	<path fill="#FFCC03" d="M235.323,29.112V18.477h7.689v1.255h-6.282v3.258h5.884v1.248h-5.884v3.62h6.529v1.255H235.323z"/>
	<path fill="#FFCC03" d="M244.09,29.112V18.477h1.443l5.587,8.351v-8.351h1.349v10.636h-1.443l-5.586-8.357v8.357H244.09z"/>
	<path fill="#FFCC03" d="M256.442,29.112v-9.381h-3.504v-1.255h8.43v1.255h-3.519v9.381H256.442z"/>
	<path fill="#FFCC03" d="M261.284,23.933c0-1.766,0.475-3.148,1.423-4.146c0.947-0.998,2.171-1.498,3.671-1.498
		c0.981,0,1.866,0.234,2.655,0.703c0.788,0.47,1.389,1.124,1.803,1.963c0.413,0.84,0.62,1.791,0.62,2.855
		c0,1.078-0.218,2.043-0.653,2.895c-0.435,0.852-1.052,1.495-1.85,1.934c-0.798,0.438-1.659,0.656-2.583,0.656
		c-1.001,0-1.896-0.242-2.685-0.726c-0.788-0.483-1.385-1.144-1.791-1.981C261.487,25.751,261.284,24.866,261.284,23.933z
		 M262.735,23.954c0,1.281,0.345,2.291,1.034,3.029c0.689,0.737,1.554,1.105,2.594,1.105c1.059,0,1.931-0.372,2.615-1.117
		c0.685-0.744,1.026-1.801,1.026-3.17c0-0.865-0.146-1.621-0.438-2.268c-0.293-0.646-0.721-1.146-1.284-1.502
		s-1.196-0.533-1.897-0.533c-0.996,0-1.854,0.343-2.572,1.027C263.095,21.21,262.735,22.353,262.735,23.954z"/>
	<path fill="#FFCC03" d="M271.691,25.695l1.328-0.116c0.063,0.532,0.209,0.969,0.438,1.31c0.23,0.341,0.587,0.616,1.07,0.827
		s1.028,0.315,1.633,0.315c0.537,0,1.011-0.079,1.422-0.239s0.717-0.379,0.918-0.656c0.2-0.278,0.301-0.582,0.301-0.911
		c0-0.333-0.097-0.625-0.29-0.874s-0.513-0.458-0.958-0.627c-0.285-0.111-0.916-0.285-1.894-0.52
		c-0.977-0.234-1.661-0.455-2.053-0.664c-0.508-0.266-0.887-0.596-1.136-0.99c-0.249-0.394-0.374-0.835-0.374-1.324
		c0-0.536,0.153-1.038,0.458-1.505s0.749-0.821,1.334-1.063c0.586-0.241,1.236-0.361,1.952-0.361c0.788,0,1.483,0.127,2.086,0.381
		c0.602,0.254,1.065,0.627,1.389,1.12c0.324,0.493,0.498,1.052,0.522,1.676l-1.35,0.102c-0.072-0.672-0.317-1.18-0.736-1.523
		c-0.418-0.343-1.036-0.515-1.854-0.515c-0.851,0-1.472,0.156-1.86,0.468c-0.39,0.312-0.584,0.688-0.584,1.128
		c0,0.383,0.138,0.696,0.413,0.943c0.271,0.246,0.979,0.5,2.122,0.758c1.144,0.259,1.929,0.484,2.354,0.679
		c0.619,0.285,1.076,0.646,1.371,1.085c0.295,0.438,0.442,0.941,0.442,1.512c0,0.566-0.162,1.1-0.486,1.6
		c-0.323,0.501-0.789,0.891-1.396,1.168c-0.606,0.279-1.29,0.418-2.049,0.418c-0.963,0-1.77-0.141-2.42-0.421
		s-1.161-0.702-1.53-1.267C271.905,27.044,271.71,26.406,271.691,25.695z"/>
</g>
</svg>
