<?xml version="1.0" encoding="utf-8"?>
<!-- Generator: Adobe Illustrator 17.0.0, SVG Export Plug-In . SVG Version: 6.00 Build 0)  -->
<!DOCTYPE svg PUBLIC "-//W3C//DTD SVG 1.1//EN" "http://www.w3.org/Graphics/SVG/1.1/DTD/svg11.dtd" [
	<!ENTITY ns_extend "http://ns.adobe.com/Extensibility/1.0/">
	<!ENTITY ns_ai "http://ns.adobe.com/AdobeIllustrator/10.0/">
	<!ENTITY ns_graphs "http://ns.adobe.com/Graphs/1.0/">
	<!ENTITY ns_vars "http://ns.adobe.com/Variables/1.0/">
	<!ENTITY ns_imrep "http://ns.adobe.com/ImageReplacement/1.0/">
	<!ENTITY ns_sfw "http://ns.adobe.com/SaveForWeb/1.0/">
	<!ENTITY ns_custom "http://ns.adobe.com/GenericCustomNamespace/1.0/">
	<!ENTITY ns_adobe_xpath "http://ns.adobe.com/XPath/1.0/">
]>
<svg version="1.1" id="Capa_1" xmlns:x="&ns_extend;" xmlns:i="&ns_ai;" xmlns:graph="&ns_graphs;"
	 xmlns="http://www.w3.org/2000/svg" xmlns:xlink="http://www.w3.org/1999/xlink" x="0px" y="0px" width="187.729px"
	 height="187.729px" viewBox="0 0 187.729 187.729" enable-background="new 0 0 187.729 187.729" xml:space="preserve">
<metadata>
	<sfw  xmlns="&ns_sfw;">
		<slices></slices>
		<sliceSourceBounds  width="604.21" height="817.671" y="-1029.753" x="381.754" bottomLeftOrigin="true"></sliceSourceBounds>
	</sfw>
</metadata>
<g>
	<g>
		<circle fill="#FFFFFF" stroke="#000000" stroke-miterlimit="10" cx="93.864" cy="93.864" r="93.364"/>
		<path fill="#134A8A" stroke="#000000" stroke-miterlimit="10" d="M169.6,93.864c0,41.83-33.904,75.736-75.736,75.736
			c-41.824,0-75.732-33.906-75.732-75.736s33.908-75.736,75.732-75.736C135.695,18.128,169.6,52.034,169.6,93.864z"/>
	</g>
	<g>
		<g>
			<path fill="#FFFFFF" d="M54.073,96.744V49.06c0-4.81,3.895-8.706,8.702-8.706h66.267c4.81,0,8.709,3.896,8.709,8.706v58.516
				c0,4.808-3.899,8.704-8.709,8.704H68.103h-5.327H31.777L54.073,96.744z"/>
			<path d="M129.042,116.825H31.777c-0.228,0-0.431-0.141-0.511-0.354c-0.079-0.212-0.019-0.451,0.152-0.601l22.109-19.372V49.06
				c0-5.101,4.149-9.252,9.247-9.252h66.267c5.104,0,9.253,4.151,9.253,9.252v58.516
				C138.295,112.675,134.145,116.825,129.042,116.825z M33.226,115.734h95.816c4.501,0,8.164-3.66,8.164-8.159V49.06
				c0-4.5-3.663-8.161-8.164-8.161H62.775c-4.497,0-8.157,3.661-8.157,8.161v47.685c0,0.157-0.068,0.307-0.188,0.409L33.226,115.734
				z"/>
		</g>
		<g>
			<path d="M124.655,74.122H65.907c-0.301,0-0.545-0.244-0.545-0.545c0-0.302,0.244-0.545,0.545-0.545h58.748
				c0.301,0,0.545,0.243,0.545,0.545C125.2,73.878,124.956,74.122,124.655,74.122z"/>
		</g>
		<g>
			<path d="M124.655,87.962H65.907c-0.301,0-0.545-0.245-0.545-0.546c0-0.301,0.244-0.545,0.545-0.545h58.748
				c0.301,0,0.545,0.244,0.545,0.545C125.2,87.717,124.956,87.962,124.655,87.962z"/>
		</g>
		<g>
			<path d="M106.117,101.801h-40.21c-0.301,0-0.545-0.243-0.545-0.545c0-0.302,0.244-0.545,0.545-0.545h40.21
				c0.302,0,0.546,0.243,0.546,0.545C106.663,101.558,106.419,101.801,106.117,101.801z"/>
		</g>
		<g>
			<path fill="#FFCC05" d="M102.109,92.071c-16.542,0-29.95,13.409-29.95,29.949c0,6.158,1.86,11.878,5.045,16.637l-0.005-0.004
				l-1.858,14.942l14.201-4.389c3.824,1.77,8.078,2.765,12.567,2.765c16.54,0,29.948-13.408,29.948-29.951
				C132.058,105.48,118.649,92.071,102.109,92.071z"/>
			<path d="M75.341,154.141c-0.126,0-0.25-0.044-0.35-0.128c-0.142-0.119-0.215-0.301-0.191-0.484l1.835-14.744
				c-3.285-4.981-5.021-10.773-5.021-16.764c0-16.814,13.68-30.494,30.495-30.494c16.813,0,30.493,13.68,30.493,30.494
				c0,16.816-13.68,30.496-30.493,30.496c-4.384,0-8.623-0.917-12.604-2.727l-14.004,4.325
				C75.449,154.134,75.395,154.141,75.341,154.141z M77.731,138.794l-1.746,14.031l13.396-4.138
				c0.128-0.039,0.268-0.031,0.391,0.025c3.891,1.801,8.043,2.714,12.337,2.714c16.213,0,29.403-13.192,29.403-29.406
				c0-16.213-13.19-29.404-29.403-29.404c-16.214,0-29.405,13.191-29.405,29.404c0,5.846,1.713,11.492,4.951,16.332
				C77.745,138.486,77.769,138.647,77.731,138.794z"/>
		</g>
		<g>
			<circle fill="#FFFFFF" cx="102.108" cy="122.833" r="19.068"/>
			<path d="M102.109,142.446c-10.815,0-19.613-8.799-19.613-19.613c0-10.814,8.798-19.612,19.613-19.612
				c10.814,0,19.612,8.798,19.612,19.612C121.722,133.647,112.924,142.446,102.109,142.446z M102.109,104.31
				c-10.214,0-18.523,8.31-18.523,18.523c0,10.214,8.309,18.522,18.523,18.522s18.522-8.309,18.522-18.522
				C120.632,112.619,112.323,104.31,102.109,104.31z"/>
		</g>
		<g>
			<path d="M114.592,123.378H89.626c-0.302,0-0.545-0.244-0.545-0.545c0-0.302,0.243-0.545,0.545-0.545h24.966
				c0.302,0,0.544,0.243,0.544,0.545C115.136,123.134,114.894,123.378,114.592,123.378z"/>
		</g>
		<g>
			<path d="M102.109,135.861c-0.302,0-0.546-0.244-0.546-0.545v-24.966c0-0.302,0.244-0.546,0.546-0.546
				c0.302,0,0.544,0.244,0.544,0.546v24.966C102.653,135.617,102.411,135.861,102.109,135.861z"/>
		</g>
		<g>
			<rect x="107.401" y="128.419" fill="#134A8A" width="31.459" height="4.274"/>
			<path d="M138.86,133.238h-31.459c-0.303,0-0.545-0.244-0.545-0.545v-4.274c0-0.302,0.242-0.545,0.545-0.545h31.459
				c0.3,0,0.544,0.243,0.544,0.545v4.274C139.404,132.994,139.16,133.238,138.86,133.238z M107.945,132.148h30.37v-3.186h-30.37
				V132.148z"/>
		</g>
		<g>
			<rect x="107.401" y="136.457" fill="#134A8A" width="26.305" height="4.274"/>
			<path d="M133.706,141.277h-26.305c-0.303,0-0.545-0.243-0.545-0.546v-4.274c0-0.301,0.242-0.544,0.545-0.544h26.305
				c0.302,0,0.545,0.243,0.545,0.544v4.274C134.251,141.034,134.008,141.277,133.706,141.277z M107.945,140.188h25.216v-3.186
				h-25.216V140.188z"/>
		</g>
		<g>
			<rect x="107.401" y="144.087" fill="#134A8A" width="26.305" height="4.275"/>
			<path d="M133.706,148.907h-26.305c-0.303,0-0.545-0.244-0.545-0.545v-4.275c0-0.301,0.242-0.545,0.545-0.545h26.305
				c0.302,0,0.545,0.244,0.545,0.545v4.275C134.251,148.663,134.008,148.907,133.706,148.907z M107.945,147.817h25.216v-3.184
				h-25.216V147.817z"/>
		</g>
		<g>
			<rect x="65.907" y="51.185" fill="#FFCC05" width="12.918" height="12.917"/>
			<path d="M78.825,64.646H65.907c-0.301,0-0.545-0.243-0.545-0.545V51.185c0-0.301,0.244-0.545,0.545-0.545h12.918
				c0.301,0,0.545,0.244,0.545,0.545v12.917C79.37,64.403,79.126,64.646,78.825,64.646z M66.453,63.557H78.28V51.729H66.453V63.557z
				"/>
		</g>
		<g>
			<rect x="88.821" y="51.185" fill="#134A8A" stroke="#000000" stroke-miterlimit="10" width="12.918" height="12.917"/>
			<path d="M101.739,64.646H88.821c-0.3,0-0.545-0.243-0.545-0.545V51.185c0-0.301,0.245-0.545,0.545-0.545h12.918
				c0.302,0,0.545,0.244,0.545,0.545v12.917C102.284,64.403,102.041,64.646,101.739,64.646z M89.368,63.557h11.826V51.729H89.368
				V63.557z"/>
		</g>
		<g>
			<rect x="111.737" y="51.185" fill="#FFCC05" width="12.918" height="12.917"/>
			<path d="M124.655,64.646h-12.918c-0.302,0-0.546-0.243-0.546-0.545V51.185c0-0.301,0.244-0.545,0.546-0.545h12.918
				c0.301,0,0.545,0.244,0.545,0.545v12.917C125.2,64.403,124.956,64.646,124.655,64.646z M112.282,63.557h11.828V51.729h-11.828
				V63.557z"/>
		</g>
	</g>
</g>
</svg>
