<!-- Generator: Adobe Illustrator 17.0.0, SVG Export Plug-In  -->
<svg version="1.1"
	 xmlns="http://www.w3.org/2000/svg" xmlns:xlink="http://www.w3.org/1999/xlink" xmlns:a="http://ns.adobe.com/AdobeSVGViewerExtensions/3.0/"
	 x="0px" y="0px" width="107.779px" height="41.351px" viewBox="0 0 107.779 41.351" enable-background="new 0 0 107.779 41.351"
	 xml:space="preserve">
<defs>
</defs>
<g>
	<rect x="1.297" y="1.296" fill="#144A8B" width="105.187" height="38.757"/>
	<path fill="#FFCD07" d="M106.484,41.351H1.297C0.582,41.351,0,40.771,0,40.053V1.296C0,0.581,0.582,0,1.297,0h105.187
		c0.716,0,1.295,0.581,1.295,1.296v38.757C107.779,40.771,107.2,41.351,106.484,41.351z M2.593,38.759h102.594V2.592H2.593V38.759z"
		/>
</g>
<g>
	<path fill="#FFFFFF" d="M25.359,25.289l-3.296-8.507h1.219l2.211,6.18c0.178,0.495,0.327,0.96,0.447,1.393
		c0.131-0.464,0.284-0.928,0.458-1.393l2.298-6.18h1.149l-3.331,8.507H25.359z"/>
	<path fill="#FFFFFF" d="M29.041,25.289l3.267-8.507h1.213l3.482,8.507H35.72l-0.992-2.576H31.17l-0.934,2.576H29.041z
		 M31.495,21.796h2.884l-0.888-2.356c-0.271-0.716-0.472-1.304-0.604-1.764c-0.108,0.545-0.261,1.087-0.458,1.625L31.495,21.796z"/>
	<path fill="#FFFFFF" d="M36.976,25.289v-8.507h1.126v7.503h4.19v1.004H36.976z"/>
	<path fill="#FFFFFF" d="M42.944,25.289v-8.507h1.126v8.507H42.944z"/>
	<path fill="#FFFFFF" d="M45.175,25.289v-8.507h2.93c0.662,0,1.167,0.04,1.515,0.121c0.487,0.112,0.903,0.315,1.248,0.609
		c0.449,0.38,0.784,0.864,1.007,1.454s0.334,1.264,0.334,2.022c0,0.646-0.075,1.219-0.226,1.718s-0.344,0.912-0.58,1.238
		c-0.236,0.327-0.494,0.585-0.775,0.772c-0.281,0.188-0.619,0.329-1.016,0.426c-0.396,0.098-0.852,0.146-1.367,0.146H45.175z
		 M46.301,24.285h1.816c0.561,0,1.001-0.053,1.32-0.156c0.319-0.104,0.573-0.252,0.763-0.441c0.267-0.267,0.475-0.626,0.624-1.076
		c0.149-0.451,0.223-0.997,0.223-1.64c0-0.89-0.146-1.573-0.438-2.052c-0.292-0.478-0.647-0.798-1.065-0.96
		c-0.302-0.116-0.787-0.174-1.457-0.174h-1.787V24.285z"/>
	<path fill="#FFFFFF" d="M51.944,25.289l3.267-8.507h1.213l3.482,8.507h-1.282l-0.992-2.576h-3.557l-0.934,2.576H51.944z
		 M54.399,21.796h2.884l-0.888-2.356c-0.271-0.716-0.472-1.304-0.604-1.764c-0.108,0.545-0.261,1.087-0.458,1.625L54.399,21.796z"/>
	<path fill="#FFFFFF" d="M65.996,22.307l1.126,0.284c-0.236,0.925-0.661,1.63-1.274,2.115c-0.613,0.485-1.363,0.729-2.249,0.729
		c-0.917,0-1.662-0.188-2.237-0.561c-0.574-0.373-1.012-0.914-1.311-1.622c-0.3-0.708-0.45-1.468-0.45-2.28
		c0-0.886,0.169-1.659,0.508-2.318s0.82-1.16,1.445-1.503s1.312-0.514,2.063-0.514c0.851,0,1.567,0.217,2.147,0.65
		c0.58,0.433,0.985,1.042,1.213,1.827l-1.108,0.262c-0.197-0.619-0.484-1.07-0.859-1.353S64.162,17.6,63.594,17.6
		c-0.654,0-1.2,0.157-1.639,0.471c-0.439,0.313-0.748,0.733-0.926,1.262c-0.178,0.528-0.267,1.073-0.267,1.634
		c0,0.724,0.105,1.355,0.316,1.895c0.211,0.54,0.539,0.943,0.984,1.21c0.445,0.267,0.927,0.4,1.445,0.4
		c0.631,0,1.165-0.182,1.602-0.545C65.545,23.562,65.841,23.022,65.996,22.307z"/>
	<path fill="#FFFFFF" d="M67.821,25.289v-8.507h1.126v8.507H67.821z"/>
	<path fill="#FFFFFF" d="M69.71,21.146c0-1.412,0.379-2.518,1.137-3.316s1.737-1.198,2.936-1.198c0.785,0,1.493,0.188,2.124,0.563
		c0.63,0.376,1.111,0.899,1.442,1.57c0.331,0.671,0.496,1.433,0.496,2.283c0,0.863-0.174,1.635-0.522,2.315
		c-0.348,0.681-0.841,1.196-1.48,1.547c-0.638,0.35-1.327,0.525-2.066,0.525c-0.801,0-1.517-0.193-2.147-0.581
		c-0.631-0.387-1.108-0.915-1.433-1.584S69.71,21.893,69.71,21.146z M70.87,21.163c0,1.025,0.276,1.833,0.827,2.423
		s1.243,0.885,2.075,0.885c0.847,0,1.544-0.298,2.092-0.894c0.548-0.596,0.821-1.441,0.821-2.536c0-0.692-0.117-1.297-0.351-1.813
		c-0.234-0.517-0.577-0.917-1.027-1.201c-0.451-0.284-0.957-0.427-1.518-0.427c-0.797,0-1.483,0.274-2.057,0.821
		C71.158,18.969,70.87,19.883,70.87,21.163z M73.064,16.26l0.772-1.625h1.37l-1.277,1.625H73.064z"/>
	<path fill="#FFFFFF" d="M78.405,25.289v-8.507h1.155l4.468,6.679v-6.679h1.079v8.507h-1.155l-4.468-6.686v6.686H78.405z"/>
</g>
</svg>