<?xml version="1.0" encoding="utf-8"?>
<!-- Generator: Adobe Illustrator 17.0.0, SVG Export Plug-In . SVG Version: 6.00 Build 0)  -->
<!DOCTYPE svg PUBLIC "-//W3C//DTD SVG 1.1//EN" "http://www.w3.org/Graphics/SVG/1.1/DTD/svg11.dtd" [
	<!ENTITY ns_extend "http://ns.adobe.com/Extensibility/1.0/">
	<!ENTITY ns_ai "http://ns.adobe.com/AdobeIllustrator/10.0/">
	<!ENTITY ns_graphs "http://ns.adobe.com/Graphs/1.0/">
	<!ENTITY ns_vars "http://ns.adobe.com/Variables/1.0/">
	<!ENTITY ns_imrep "http://ns.adobe.com/ImageReplacement/1.0/">
	<!ENTITY ns_sfw "http://ns.adobe.com/SaveForWeb/1.0/">
	<!ENTITY ns_custom "http://ns.adobe.com/GenericCustomNamespace/1.0/">
	<!ENTITY ns_adobe_xpath "http://ns.adobe.com/XPath/1.0/">
]>
<svg version="1.1" id="Capa_1" xmlns:x="&ns_extend;" xmlns:i="&ns_ai;" xmlns:graph="&ns_graphs;"
	 xmlns="http://www.w3.org/2000/svg" xmlns:xlink="http://www.w3.org/1999/xlink" x="0px" y="0px" width="187.729px"
	 height="187.729px" viewBox="0 0 187.729 187.729" enable-background="new 0 0 187.729 187.729" xml:space="preserve">
<metadata>
	<sfw  xmlns="&ns_sfw;">
		<slices></slices>
		<sliceSourceBounds  width="604.21" height="817.671" y="-1029.753" x="381.754" bottomLeftOrigin="true"></sliceSourceBounds>
	</sfw>
</metadata>
<g>
	<g>
		<circle fill="#FFFFFF" stroke="#000000" stroke-miterlimit="10" cx="93.864" cy="93.864" r="93.364"/>
		<path fill="#FFCC05" stroke="#000000" stroke-miterlimit="10" d="M169.6,93.864c0,41.83-33.904,75.736-75.736,75.736
			c-41.824,0-75.732-33.906-75.732-75.736c0-41.83,33.908-75.736,75.732-75.736C135.695,18.128,169.6,52.034,169.6,93.864z"/>
	</g>
	<g>
		<g>
			<g>
				<path fill="#A6A8AC" d="M146.049,101.315c6.762,0,12.107-5.481,12.107-12.245c0-6.761-5.278-12.243-12.039-12.243
					c-0.075,0-0.018,0.01-0.018,0.012v24.465C146.1,101.306,145.973,101.315,146.049,101.315z"/>
			</g>
			<rect x="39.944" y="74.216" fill="#BCBDBF" width="15.285" height="30.572"/>
			<g>
				<path fill="#F1F1F1" d="M145.25,125.086c0,0.984-0.798,1.783-1.782,1.783h-7.478c-0.982,0-1.781-0.799-1.781-1.783v-70.32
					c0-0.983,0.799-1.78,1.781-1.78h7.478c0.984,0,1.782,0.797,1.782,1.78V125.086z"/>
				<path fill="#211D1E" d="M143.468,128.257h-7.478c-1.746,0-3.17-1.423-3.17-3.171v-70.32c0-1.748,1.424-3.169,3.17-3.169h7.478
					c1.747,0,3.17,1.421,3.17,3.169v70.32C146.638,126.834,145.215,128.257,143.468,128.257z M135.99,54.373
					c-0.217,0-0.393,0.176-0.393,0.393v70.32c0,0.218,0.176,0.394,0.393,0.394h7.478c0.217,0,0.394-0.176,0.394-0.394v-70.32
					c0-0.217-0.177-0.393-0.394-0.393H135.99z"/>
			</g>
			<g>
				<rect x="67.119" y="116.677" fill="#929497" width="14.438" height="22.93"/>
				<path fill="#211D1E" d="M81.557,140.995H67.119c-0.768,0-1.389-0.621-1.389-1.389v-22.93c0-0.767,0.621-1.389,1.389-1.389
					h14.438c0.768,0,1.388,0.622,1.388,1.389v22.93C82.944,140.374,82.324,140.995,81.557,140.995z M68.508,138.219h11.66v-20.153
					h-11.66V138.219z"/>
			</g>
			<g>
				<path fill="#211D1E" d="M39.944,97.684h-7.644c-0.767,0-1.389-0.621-1.389-1.389V82.707c0-0.767,0.621-1.388,1.389-1.388h7.644
					v2.776h-6.255v10.811h6.255V97.684z"/>
			</g>
			<g>
				<polygon fill="#144A8A" points="97.691,70.124 120.622,63.788 120.622,114.801 97.691,108.464 				"/>
				<g>
					<polygon fill="#F1F1F1" points="134.209,60.132 134.209,78.077 134.209,100.51 134.209,118.456 120.622,114.801 
						120.622,63.788 					"/>
					<path fill="#211D1E" d="M134.209,119.845c-0.12,0-0.242-0.016-0.36-0.047l-13.589-3.656c-0.605-0.163-1.025-0.713-1.025-1.341
						V63.788c0-0.629,0.42-1.179,1.025-1.342l13.589-3.655c0.419-0.114,0.863-0.023,1.206,0.238
						c0.342,0.264,0.543,0.669,0.543,1.103v58.324c0,0.433-0.201,0.84-0.543,1.102C134.81,119.746,134.512,119.845,134.209,119.845z
						 M122.011,113.736l10.81,2.908V61.942l-10.81,2.909V113.736z"/>
				</g>
			</g>
			<g>
				<path fill="#D1D2D3" d="M97.691,114.006c0,1.475-1.195,2.671-2.672,2.671H57.902c-1.476,0-2.673-1.196-2.673-2.671V64.998
					c0-1.477,1.197-2.672,2.673-2.672h37.117c1.477,0,2.672,1.195,2.672,2.672V114.006z"/>
				<path fill="#211D1E" d="M95.019,118.065H57.902c-2.239,0-4.061-1.821-4.061-4.06V64.998c0-2.239,1.821-4.061,4.061-4.061h37.117
					c2.239,0,4.061,1.821,4.061,4.061v49.008C99.08,116.244,97.259,118.065,95.019,118.065z M57.902,63.715
					c-0.708,0-1.285,0.575-1.285,1.283v49.008c0,0.708,0.577,1.282,1.285,1.282h37.117c0.707,0,1.284-0.574,1.284-1.282V64.998
					c0-0.708-0.577-1.283-1.284-1.283H57.902z"/>
			</g>
			<circle fill="#FFCC05" stroke="#000000" stroke-miterlimit="10" cx="76.023" cy="98.568" r="9.498"/>
		</g>
		<g>
			<rect x="62.873" y="70.279" fill="#211D1E" width="26.326" height="2.776"/>
		</g>
		<g>
			<rect x="62.873" y="77.923" fill="#211D1E" width="26.326" height="2.776"/>
		</g>
	</g>
</g>
</svg>
