<!-- Generator: Adobe Illustrator 17.0.0, SVG Export Plug-In  -->
<svg version="1.1"
	 xmlns="http://www.w3.org/2000/svg" xmlns:xlink="http://www.w3.org/1999/xlink" xmlns:a="http://ns.adobe.com/AdobeSVGViewerExtensions/3.0/"
	 x="0px" y="0px" width="1212.961px" height="541.095px" viewBox="0 0 1212.961 541.095"
	 enable-background="new 0 0 1212.961 541.095" xml:space="preserve">
<defs>
</defs>
<g>
	<path fill="#154A8B" d="M330.064,33.394V11.396h-7.855V6.917h21.04v4.479h-7.838v21.997H330.064z"/>
	<path fill="#154A8B" d="M346.698,33.394V6.917h19.631v4.479h-14.285v5.869h13.292v4.461h-13.292v7.206h14.791v4.461H346.698z
		 M353.488,5.4L355.98,0h5.689l-4.967,5.4H353.488z"/>
	<path fill="#154A8B" d="M388.309,23.659l5.183,1.644c-0.794,2.89-2.116,5.036-3.964,6.438c-1.849,1.402-4.193,2.104-7.034,2.104
		c-3.517,0-6.406-1.2-8.669-3.603c-2.264-2.402-3.396-5.686-3.396-9.852c0-4.407,1.138-7.829,3.413-10.268s5.268-3.657,8.977-3.657
		c3.238,0,5.869,0.957,7.892,2.871c1.204,1.132,2.107,2.758,2.709,4.877l-5.291,1.264c-0.313-1.372-0.967-2.456-1.96-3.251
		c-0.993-0.794-2.2-1.191-3.621-1.191c-1.963,0-3.555,0.704-4.776,2.113c-1.223,1.408-1.834,3.69-1.834,6.845
		c0,3.347,0.603,5.731,1.807,7.151c1.204,1.421,2.769,2.131,4.695,2.131c1.421,0,2.643-0.451,3.666-1.354
		C387.128,27.019,387.862,25.598,388.309,23.659z"/>
	<path fill="#154A8B" d="M398.133,33.394V6.917h5.201l10.836,17.682V6.917h4.967v26.477h-5.363L403.1,16.128v17.266H398.133z"/>
	<path fill="#154A8B" d="M424.627,33.394V6.917h5.346v26.477H424.627z"/>
	<path fill="#154A8B" d="M452.007,23.659l5.183,1.644c-0.794,2.89-2.116,5.036-3.964,6.438c-1.849,1.402-4.193,2.104-7.034,2.104
		c-3.517,0-6.406-1.2-8.669-3.603c-2.264-2.402-3.396-5.686-3.396-9.852c0-4.407,1.138-7.829,3.413-10.268s5.268-3.657,8.977-3.657
		c3.238,0,5.869,0.957,7.892,2.871c1.204,1.132,2.107,2.758,2.709,4.877l-5.291,1.264c-0.313-1.372-0.967-2.456-1.96-3.251
		c-0.993-0.794-2.2-1.191-3.621-1.191c-1.963,0-3.555,0.704-4.776,2.113c-1.223,1.408-1.834,3.69-1.834,6.845
		c0,3.347,0.603,5.731,1.807,7.151c1.204,1.421,2.769,2.131,4.695,2.131c1.421,0,2.643-0.451,3.666-1.354
		C450.826,27.019,451.561,25.598,452.007,23.659z"/>
	<path fill="#154A8B" d="M485.652,33.394h-5.815l-2.312-6.014h-10.583l-2.186,6.014h-5.671l10.313-26.477h5.652L485.652,33.394z
		 M475.81,22.919l-3.648-9.825l-3.575,9.825H475.81z"/>
	<path fill="#154A8B" d="M487.134,24.779l5.201-0.506c0.313,1.746,0.948,3.028,1.905,3.847s2.248,1.228,3.874,1.228
		c1.722,0,3.019-0.363,3.892-1.092s1.31-1.581,1.31-2.556c0-0.626-0.184-1.159-0.551-1.599s-1.009-0.821-1.924-1.146
		c-0.626-0.217-2.053-0.603-4.28-1.156c-2.865-0.71-4.876-1.583-6.032-2.618c-1.625-1.457-2.438-3.233-2.438-5.328
		c0-1.349,0.382-2.609,1.146-3.784c0.765-1.174,1.866-2.067,3.305-2.682c1.439-0.614,3.176-0.921,5.211-0.921
		c3.323,0,5.824,0.729,7.504,2.186s2.562,3.401,2.646,5.833l-5.346,0.235c-0.229-1.361-0.72-2.339-1.472-2.936
		c-0.753-0.596-1.882-0.894-3.387-0.894c-1.553,0-2.77,0.319-3.647,0.957c-0.566,0.409-0.85,0.957-0.85,1.644
		c0,0.626,0.265,1.162,0.795,1.607c0.674,0.566,2.312,1.156,4.912,1.77c2.601,0.614,4.524,1.25,5.771,1.905
		c1.246,0.657,2.222,1.554,2.926,2.691s1.057,2.544,1.057,4.217c0,1.518-0.422,2.938-1.265,4.263s-2.034,2.309-3.575,2.952
		c-1.542,0.645-3.462,0.967-5.762,0.967c-3.347,0-5.918-0.773-7.712-2.321C488.554,29.995,487.482,27.74,487.134,24.779z"/>
	<path fill="#154A8B" d="M523.416,6.917h9.771c2.203,0,3.883,0.169,5.039,0.506c1.553,0.458,2.883,1.271,3.991,2.438
		c1.107,1.168,1.95,2.598,2.528,4.289s0.867,3.777,0.867,6.258c0,2.18-0.271,4.058-0.813,5.635
		c-0.663,1.927-1.607,3.485-2.836,4.678c-0.928,0.903-2.18,1.607-3.757,2.113c-1.18,0.373-2.757,0.56-4.731,0.56h-10.06V6.917z
		 M528.762,11.396v17.536h3.991c1.493,0,2.57-0.084,3.233-0.253c0.866-0.217,1.586-0.584,2.158-1.102
		c0.571-0.518,1.038-1.369,1.399-2.556c0.361-1.186,0.542-2.802,0.542-4.849s-0.181-3.618-0.542-4.714s-0.867-1.951-1.518-2.564
		c-0.649-0.614-1.475-1.029-2.474-1.246c-0.747-0.169-2.21-0.253-4.389-0.253H528.762z"/>
	<path fill="#154A8B" d="M550.146,33.394V6.917h19.631v4.479h-14.285v5.869h13.292v4.461h-13.292v7.206h14.791v4.461H550.146z"/>
	<path fill="#154A8B" d="M585.236,33.394V7.134h5.346v21.799h13.292v4.461H585.236z"/>
	<path fill="#154A8B" d="M607.686,33.394V6.917h19.631v4.479h-14.285v5.869h13.292v4.461h-13.292v7.206h14.791v4.461H607.686z"/>
	<path fill="#154A8B" d="M639.109,33.394l-9.463-26.477h5.797l6.7,19.596l6.483-19.596h5.671l-9.481,26.477H639.109z"/>
	<path fill="#154A8B" d="M678.155,33.394h-5.815l-2.312-6.014h-10.583l-2.186,6.014h-5.671l10.313-26.477h5.652L678.155,33.394z
		 M668.313,22.919l-3.648-9.825l-3.575,9.825H668.313z"/>
	<path fill="#154A8B" d="M681.045,33.394V6.917h5.201l10.836,17.682V6.917h4.967v26.477h-5.363l-10.674-17.266v17.266H681.045z"/>
	<path fill="#154A8B" d="M713.661,33.394V11.396h-7.855V6.917h21.04v4.479h-7.838v21.997H713.661z"/>
	<path fill="#154A8B" d="M751.426,33.394h-5.815l-2.312-6.014h-10.583l-2.186,6.014h-5.671l10.313-26.477h5.652L751.426,33.394z
		 M741.583,22.919l-3.648-9.825l-3.575,9.825H741.583z"/>
	<path fill="#154A8B" d="M754.19,33.394V6.917h8l4.805,18.061l4.749-18.061h8.02v26.477h-4.967V12.552l-5.256,20.842h-5.147
		l-5.237-20.842v20.842H754.19z"/>
	<path fill="#154A8B" d="M784.909,33.394V6.917h5.346v26.477H784.909z"/>
	<path fill="#154A8B" d="M795.349,33.394V6.917h19.631v4.479h-14.285v5.869h13.292v4.461h-13.292v7.206h14.791v4.461H795.349z"/>
	<path fill="#154A8B" d="M820.072,33.394V6.917h5.201l10.836,17.682V6.917h4.967v26.477h-5.363l-10.674-17.266v17.266H820.072z"/>
	<path fill="#154A8B" d="M852.689,33.394V11.396h-7.855V6.917h21.04v4.479h-7.838v21.997H852.689z"/>
	<path fill="#154A8B" d="M867.571,20.318c0-2.697,0.403-4.961,1.21-6.791c0.602-1.349,1.424-2.559,2.465-3.63
		c1.042-1.071,2.183-1.866,3.423-2.384c1.649-0.698,3.552-1.048,5.707-1.048c3.901,0,7.022,1.21,9.364,3.63
		s3.513,5.786,3.513,10.096c0,4.274-1.162,7.619-3.485,10.032c-2.324,2.414-5.431,3.621-9.319,3.621c-3.938,0-7.067-1.2-9.392-3.603
		C868.733,27.84,867.571,24.532,867.571,20.318z M873.079,20.138c0,2.998,0.692,5.271,2.077,6.817s3.143,2.32,5.273,2.32
		c2.132,0,3.88-0.768,5.247-2.302c1.366-1.535,2.05-3.838,2.05-6.908c0-3.034-0.666-5.298-1.996-6.791s-3.097-2.239-5.301-2.239
		c-2.203,0-3.979,0.756-5.327,2.267C873.754,14.813,873.079,17.092,873.079,20.138z"/>
</g>
<g>
	<g>
		<g>
			<path fill="#FFFFFF" d="M97.168,88.387V75.502h4.175c1.582,0,2.613,0.064,3.094,0.193c0.738,0.193,1.356,0.614,1.854,1.262
				s0.747,1.483,0.747,2.509c0,0.791-0.144,1.456-0.431,1.995s-0.652,0.963-1.095,1.27c-0.442,0.309-0.892,0.512-1.349,0.611
				c-0.621,0.123-1.521,0.185-2.698,0.185H99.77v4.86H97.168z M99.77,77.682v3.656h1.424c1.025,0,1.711-0.067,2.057-0.202
				s0.616-0.346,0.813-0.633c0.195-0.287,0.294-0.621,0.294-1.002c0-0.469-0.138-0.855-0.413-1.16s-0.624-0.495-1.046-0.571
				c-0.311-0.059-0.935-0.088-1.872-0.088H99.77z"/>
			<path fill="#FFFFFF" d="M110.714,81.9l-2.241-0.404c0.252-0.902,0.686-1.57,1.301-2.004s1.529-0.65,2.742-0.65
				c1.102,0,1.922,0.131,2.461,0.391c0.539,0.262,0.918,0.593,1.139,0.994c0.219,0.401,0.329,1.138,0.329,2.21l-0.026,2.883
				c0,0.82,0.039,1.426,0.119,1.815c0.078,0.39,0.227,0.807,0.443,1.252h-2.443c-0.064-0.164-0.144-0.407-0.237-0.729
				c-0.041-0.146-0.07-0.243-0.088-0.29c-0.422,0.41-0.873,0.718-1.354,0.923s-0.993,0.308-1.538,0.308
				c-0.961,0-1.719-0.261-2.271-0.782c-0.555-0.521-0.831-1.181-0.831-1.978c0-0.527,0.126-0.998,0.378-1.41
				c0.252-0.414,0.604-0.73,1.059-0.949c0.454-0.221,1.109-0.412,1.965-0.576c1.154-0.217,1.954-0.419,2.399-0.606V82.05
				c0-0.475-0.117-0.813-0.352-1.015c-0.234-0.203-0.677-0.304-1.327-0.304c-0.439,0-0.782,0.087-1.028,0.259
				C111.065,81.164,110.866,81.467,110.714,81.9z M114.019,83.904c-0.316,0.105-0.817,0.231-1.503,0.378s-1.134,0.29-1.345,0.431
				c-0.322,0.229-0.483,0.519-0.483,0.87c0,0.346,0.129,0.645,0.387,0.896s0.586,0.378,0.984,0.378c0.445,0,0.87-0.146,1.274-0.439
				c0.299-0.223,0.495-0.495,0.589-0.817c0.064-0.211,0.097-0.612,0.097-1.204V83.904z"/>
			<path fill="#FFFFFF" d="M120.955,88.387h-2.47v-9.334h2.294v1.327c0.393-0.627,0.745-1.04,1.059-1.239s0.67-0.299,1.068-0.299
				c0.563,0,1.104,0.155,1.626,0.466l-0.765,2.153c-0.416-0.27-0.803-0.404-1.16-0.404c-0.346,0-0.639,0.096-0.879,0.285
				c-0.24,0.191-0.43,0.535-0.566,1.033c-0.139,0.498-0.207,1.541-0.207,3.129V88.387z"/>
			<path fill="#FFFFFF" d="M127.153,81.9l-2.241-0.404c0.252-0.902,0.686-1.57,1.301-2.004s1.529-0.65,2.742-0.65
				c1.102,0,1.922,0.131,2.461,0.391c0.539,0.262,0.918,0.593,1.139,0.994c0.219,0.401,0.329,1.138,0.329,2.21l-0.026,2.883
				c0,0.82,0.039,1.426,0.119,1.815c0.078,0.39,0.227,0.807,0.443,1.252h-2.443c-0.064-0.164-0.144-0.407-0.237-0.729
				c-0.041-0.146-0.07-0.243-0.088-0.29c-0.422,0.41-0.873,0.718-1.354,0.923s-0.993,0.308-1.538,0.308
				c-0.961,0-1.719-0.261-2.271-0.782c-0.555-0.521-0.831-1.181-0.831-1.978c0-0.527,0.126-0.998,0.378-1.41
				c0.252-0.414,0.604-0.73,1.059-0.949c0.454-0.221,1.109-0.412,1.965-0.576c1.154-0.217,1.954-0.419,2.399-0.606V82.05
				c0-0.475-0.117-0.813-0.352-1.015c-0.234-0.203-0.677-0.304-1.327-0.304c-0.439,0-0.782,0.087-1.028,0.259
				C127.505,81.164,127.306,81.467,127.153,81.9z M130.458,83.904c-0.316,0.105-0.817,0.231-1.503,0.378s-1.134,0.29-1.345,0.431
				c-0.322,0.229-0.483,0.519-0.483,0.87c0,0.346,0.129,0.645,0.387,0.896s0.586,0.378,0.984,0.378c0.445,0,0.87-0.146,1.274-0.439
				c0.299-0.223,0.495-0.495,0.589-0.817c0.064-0.211,0.097-0.612,0.097-1.204V83.904z"/>
			<path fill="#FFFFFF" d="M145.148,85.416l2.461,0.413c-0.316,0.902-0.816,1.59-1.498,2.062c-0.684,0.472-1.537,0.707-2.563,0.707
				c-1.623,0-2.824-0.53-3.604-1.591c-0.615-0.85-0.923-1.922-0.923-3.217c0-1.547,0.404-2.758,1.213-3.634s1.831-1.314,3.067-1.314
				c1.389,0,2.484,0.459,3.287,1.375c0.803,0.918,1.187,2.322,1.151,4.215h-6.188c0.018,0.732,0.217,1.303,0.598,1.709
				c0.381,0.408,0.855,0.611,1.424,0.611c0.387,0,0.712-0.105,0.976-0.316S145.014,85.885,145.148,85.416z M145.289,82.92
				c-0.018-0.715-0.202-1.258-0.554-1.631c-0.352-0.371-0.779-0.558-1.283-0.558c-0.539,0-0.984,0.196-1.336,0.589
				s-0.524,0.926-0.519,1.6H145.289z"/>
			<path fill="#FFFFFF" d="M149.467,88.387V75.502h2.47v12.885H149.467z"/>
			<path fill="#FFFFFF" d="M158.893,88.387V75.502h2.47v12.885H158.893z"/>
			<path fill="#FFFFFF" d="M169.011,85.416l2.461,0.413c-0.316,0.902-0.816,1.59-1.498,2.062c-0.684,0.472-1.537,0.707-2.563,0.707
				c-1.623,0-2.824-0.53-3.604-1.591c-0.615-0.85-0.923-1.922-0.923-3.217c0-1.547,0.404-2.758,1.213-3.634s1.831-1.314,3.067-1.314
				c1.389,0,2.484,0.459,3.287,1.375c0.803,0.918,1.187,2.322,1.151,4.215h-6.188c0.018,0.732,0.217,1.303,0.598,1.709
				c0.381,0.408,0.855,0.611,1.424,0.611c0.387,0,0.712-0.105,0.976-0.316S168.876,85.885,169.011,85.416z M169.151,82.92
				c-0.018-0.715-0.202-1.258-0.554-1.631c-0.352-0.371-0.779-0.558-1.283-0.558c-0.539,0-0.984,0.196-1.336,0.589
				s-0.524,0.926-0.519,1.6H169.151z"/>
			<path fill="#FFFFFF" d="M175.895,88.387l-3.762-9.334h2.593l1.758,4.764l0.51,1.591c0.135-0.404,0.22-0.671,0.255-0.8
				c0.082-0.264,0.17-0.527,0.264-0.791l1.775-4.764h2.54l-3.709,9.334H175.895z"/>
			<path fill="#FFFFFF" d="M184.897,81.9l-2.241-0.404c0.252-0.902,0.686-1.57,1.301-2.004s1.529-0.65,2.742-0.65
				c1.102,0,1.922,0.131,2.461,0.391c0.539,0.262,0.918,0.593,1.139,0.994c0.219,0.401,0.329,1.138,0.329,2.21l-0.026,2.883
				c0,0.82,0.039,1.426,0.119,1.815c0.078,0.39,0.227,0.807,0.443,1.252h-2.443c-0.064-0.164-0.144-0.407-0.237-0.729
				c-0.041-0.146-0.07-0.243-0.088-0.29c-0.422,0.41-0.873,0.718-1.354,0.923s-0.993,0.308-1.538,0.308
				c-0.961,0-1.719-0.261-2.271-0.782c-0.555-0.521-0.831-1.181-0.831-1.978c0-0.527,0.126-0.998,0.378-1.41
				c0.252-0.414,0.604-0.73,1.059-0.949c0.454-0.221,1.109-0.412,1.965-0.576c1.154-0.217,1.954-0.419,2.399-0.606V82.05
				c0-0.475-0.117-0.813-0.352-1.015c-0.234-0.203-0.677-0.304-1.327-0.304c-0.439,0-0.782,0.087-1.028,0.259
				C185.248,81.164,185.049,81.467,184.897,81.9z M188.201,83.904c-0.316,0.105-0.817,0.231-1.503,0.378s-1.134,0.29-1.345,0.431
				c-0.322,0.229-0.483,0.519-0.483,0.87c0,0.346,0.129,0.645,0.387,0.896s0.586,0.378,0.984,0.378c0.445,0,0.87-0.146,1.274-0.439
				c0.299-0.223,0.495-0.495,0.589-0.817c0.064-0.211,0.097-0.612,0.097-1.204V83.904z"/>
			<path fill="#FFFFFF" d="M201.264,88.387h-2.47v-4.764c0-1.008-0.053-1.659-0.158-1.955s-0.277-0.526-0.514-0.69
				c-0.238-0.164-0.523-0.246-0.857-0.246c-0.428,0-0.812,0.117-1.151,0.352s-0.573,0.545-0.698,0.932
				c-0.127,0.387-0.189,1.102-0.189,2.145v4.228h-2.47v-9.334h2.294v1.371c0.814-1.055,1.84-1.582,3.076-1.582
				c0.545,0,1.043,0.099,1.494,0.295s0.792,0.446,1.023,0.751s0.393,0.65,0.484,1.037c0.09,0.387,0.136,0.94,0.136,1.661V88.387z"/>
			<path fill="#FFFFFF" d="M207.761,79.053v1.969h-1.688v3.762c0,0.762,0.016,1.206,0.049,1.332
				c0.031,0.126,0.105,0.229,0.219,0.312c0.115,0.082,0.254,0.123,0.418,0.123c0.229,0,0.56-0.079,0.993-0.237l0.211,1.916
				c-0.574,0.246-1.225,0.369-1.951,0.369c-0.445,0-0.847-0.074-1.204-0.225c-0.357-0.148-0.619-0.342-0.787-0.58
				c-0.166-0.236-0.282-0.558-0.347-0.962c-0.053-0.287-0.079-0.867-0.079-1.74v-4.069h-1.134v-1.969h1.134v-1.854l2.479-1.441
				v3.296H207.761z"/>
			<path fill="#FFFFFF" d="M211.032,81.9l-2.241-0.404c0.252-0.902,0.686-1.57,1.301-2.004s1.529-0.65,2.742-0.65
				c1.102,0,1.922,0.131,2.461,0.391c0.539,0.262,0.918,0.593,1.139,0.994c0.219,0.401,0.329,1.138,0.329,2.21l-0.026,2.883
				c0,0.82,0.039,1.426,0.119,1.815c0.078,0.39,0.227,0.807,0.443,1.252h-2.443c-0.064-0.164-0.144-0.407-0.237-0.729
				c-0.041-0.146-0.07-0.243-0.088-0.29c-0.422,0.41-0.873,0.718-1.354,0.923s-0.993,0.308-1.538,0.308
				c-0.961,0-1.719-0.261-2.271-0.782c-0.555-0.521-0.831-1.181-0.831-1.978c0-0.527,0.126-0.998,0.378-1.41
				c0.252-0.414,0.604-0.73,1.059-0.949c0.454-0.221,1.109-0.412,1.965-0.576c1.154-0.217,1.954-0.419,2.399-0.606V82.05
				c0-0.475-0.117-0.813-0.352-1.015c-0.234-0.203-0.677-0.304-1.327-0.304c-0.439,0-0.782,0.087-1.028,0.259
				C211.384,81.164,211.185,81.467,211.032,81.9z M214.337,83.904c-0.316,0.105-0.817,0.231-1.503,0.378s-1.134,0.29-1.345,0.431
				c-0.322,0.229-0.483,0.519-0.483,0.87c0,0.346,0.129,0.645,0.387,0.896s0.586,0.378,0.984,0.378c0.445,0,0.87-0.146,1.274-0.439
				c0.299-0.223,0.495-0.495,0.589-0.817c0.064-0.211,0.097-0.612,0.097-1.204V83.904z"/>
			<path fill="#FFFFFF" d="M218.725,79.053h2.276v1.274c0.814-0.99,1.784-1.485,2.909-1.485c0.598,0,1.116,0.123,1.556,0.369
				s0.8,0.618,1.081,1.116c0.41-0.498,0.853-0.87,1.327-1.116s0.981-0.369,1.521-0.369c0.686,0,1.266,0.14,1.74,0.418
				s0.829,0.687,1.063,1.226c0.17,0.398,0.255,1.043,0.255,1.934v5.968h-2.47v-5.335c0-0.926-0.085-1.523-0.255-1.793
				c-0.229-0.352-0.58-0.527-1.055-0.527c-0.346,0-0.671,0.105-0.976,0.316s-0.524,0.521-0.659,0.927
				c-0.135,0.408-0.202,1.051-0.202,1.93v4.482h-2.47v-5.115c0-0.908-0.044-1.494-0.132-1.758s-0.224-0.46-0.409-0.589
				c-0.184-0.129-0.435-0.193-0.751-0.193c-0.381,0-0.724,0.103-1.028,0.308s-0.523,0.501-0.654,0.888
				c-0.133,0.387-0.198,1.028-0.198,1.925v4.535h-2.47V79.053z"/>
			<path fill="#FFFFFF" d="M234.626,77.787v-2.285h2.47v2.285H234.626z M234.626,88.387v-9.334h2.47v9.334H234.626z"/>
			<path fill="#FFFFFF" d="M244.744,85.416l2.461,0.413c-0.316,0.902-0.816,1.59-1.498,2.062c-0.684,0.472-1.537,0.707-2.563,0.707
				c-1.623,0-2.824-0.53-3.604-1.591c-0.615-0.85-0.923-1.922-0.923-3.217c0-1.547,0.404-2.758,1.213-3.634s1.831-1.314,3.067-1.314
				c1.389,0,2.484,0.459,3.287,1.375c0.803,0.918,1.187,2.322,1.151,4.215h-6.188c0.018,0.732,0.217,1.303,0.598,1.709
				c0.381,0.408,0.855,0.611,1.424,0.611c0.387,0,0.712-0.105,0.976-0.316S244.609,85.885,244.744,85.416z M244.885,82.92
				c-0.018-0.715-0.202-1.258-0.554-1.631c-0.352-0.371-0.779-0.558-1.283-0.558c-0.539,0-0.984,0.196-1.336,0.589
				s-0.524,0.926-0.519,1.6H244.885z"/>
			<path fill="#FFFFFF" d="M257.553,88.387h-2.47v-4.764c0-1.008-0.053-1.659-0.158-1.955s-0.277-0.526-0.514-0.69
				c-0.238-0.164-0.523-0.246-0.857-0.246c-0.428,0-0.812,0.117-1.151,0.352s-0.573,0.545-0.698,0.932
				c-0.127,0.387-0.189,1.102-0.189,2.145v4.228h-2.47v-9.334h2.294v1.371c0.814-1.055,1.84-1.582,3.076-1.582
				c0.545,0,1.043,0.099,1.494,0.295s0.792,0.446,1.023,0.751s0.393,0.65,0.484,1.037c0.09,0.387,0.136,0.94,0.136,1.661V88.387z"/>
			<path fill="#FFFFFF" d="M264.05,79.053v1.969h-1.688v3.762c0,0.762,0.016,1.206,0.049,1.332c0.031,0.126,0.105,0.229,0.219,0.312
				c0.115,0.082,0.254,0.123,0.418,0.123c0.229,0,0.56-0.079,0.993-0.237l0.211,1.916c-0.574,0.246-1.225,0.369-1.951,0.369
				c-0.445,0-0.847-0.074-1.204-0.225c-0.357-0.148-0.619-0.342-0.787-0.58c-0.166-0.236-0.282-0.558-0.347-0.962
				c-0.053-0.287-0.079-0.867-0.079-1.74v-4.069h-1.134v-1.969h1.134v-1.854l2.479-1.441v3.296H264.05z"/>
			<path fill="#FFFFFF" d="M264.904,83.588c0-0.82,0.202-1.614,0.606-2.382s0.977-1.354,1.718-1.758s1.569-0.606,2.483-0.606
				c1.412,0,2.569,0.459,3.472,1.375c0.902,0.918,1.354,2.076,1.354,3.477c0,1.412-0.456,2.583-1.367,3.512s-2.058,1.393-3.44,1.393
				c-0.855,0-1.672-0.193-2.448-0.58s-1.366-0.953-1.771-1.701C265.106,85.57,264.904,84.66,264.904,83.588z M267.436,83.72
				c0,0.926,0.22,1.635,0.659,2.127s0.981,0.738,1.626,0.738s1.185-0.246,1.621-0.738s0.655-1.207,0.655-2.145
				c0-0.914-0.219-1.617-0.655-2.109s-0.977-0.738-1.621-0.738s-1.187,0.246-1.626,0.738S267.436,82.794,267.436,83.72z"/>
			<path fill="#FFFFFF" d="M289.456,88.387h-2.294v-1.371c-0.381,0.533-0.83,0.931-1.35,1.191c-0.518,0.26-1.041,0.391-1.568,0.391
				c-1.072,0-1.99-0.432-2.756-1.297c-0.764-0.863-1.146-2.069-1.146-3.616c0-1.582,0.372-2.784,1.116-3.608
				c0.744-0.822,1.685-1.234,2.821-1.234c1.043,0,1.945,0.434,2.707,1.301v-4.641h2.47V88.387z M282.864,83.518
				c0,0.996,0.138,1.717,0.413,2.162c0.398,0.645,0.955,0.967,1.67,0.967c0.568,0,1.052-0.242,1.45-0.725
				c0.398-0.484,0.598-1.206,0.598-2.167c0-1.072-0.193-1.844-0.58-2.315s-0.882-0.708-1.485-0.708
				c-0.586,0-1.076,0.233-1.473,0.698C283.063,81.896,282.864,82.592,282.864,83.518z"/>
			<path fill="#FFFFFF" d="M297.008,85.416l2.461,0.413c-0.316,0.902-0.816,1.59-1.498,2.062c-0.684,0.472-1.537,0.707-2.563,0.707
				c-1.623,0-2.824-0.53-3.604-1.591c-0.615-0.85-0.923-1.922-0.923-3.217c0-1.547,0.404-2.758,1.213-3.634s1.831-1.314,3.067-1.314
				c1.389,0,2.484,0.459,3.287,1.375c0.803,0.918,1.187,2.322,1.151,4.215h-6.188c0.018,0.732,0.217,1.303,0.598,1.709
				c0.381,0.408,0.855,0.611,1.424,0.611c0.387,0,0.712-0.105,0.976-0.316S296.873,85.885,297.008,85.416z M297.148,82.92
				c-0.018-0.715-0.202-1.258-0.554-1.631c-0.352-0.371-0.779-0.558-1.283-0.558c-0.539,0-0.984,0.196-1.336,0.589
				s-0.524,0.926-0.519,1.6H297.148z"/>
			<path fill="#FFFFFF" d="M306.038,88.387V75.502h2.47v12.885H306.038z"/>
			<path fill="#FFFFFF" d="M310.18,83.588c0-0.82,0.202-1.614,0.606-2.382s0.977-1.354,1.718-1.758s1.569-0.606,2.483-0.606
				c1.412,0,2.569,0.459,3.472,1.375c0.902,0.918,1.354,2.076,1.354,3.477c0,1.412-0.456,2.583-1.367,3.512s-2.058,1.393-3.44,1.393
				c-0.855,0-1.672-0.193-2.448-0.58s-1.366-0.953-1.771-1.701C310.382,85.57,310.18,84.66,310.18,83.588z M312.711,83.72
				c0,0.926,0.22,1.635,0.659,2.127s0.981,0.738,1.626,0.738s1.185-0.246,1.621-0.738s0.655-1.207,0.655-2.145
				c0-0.914-0.219-1.617-0.655-2.109s-0.977-0.738-1.621-0.738s-1.187,0.246-1.626,0.738S312.711,82.794,312.711,83.72z"/>
			<path fill="#FFFFFF" d="M320.588,85.724l2.479-0.378c0.105,0.48,0.319,0.846,0.642,1.094c0.322,0.25,0.773,0.374,1.354,0.374
				c0.639,0,1.119-0.117,1.441-0.352c0.217-0.164,0.325-0.384,0.325-0.659c0-0.188-0.059-0.343-0.176-0.466
				c-0.123-0.117-0.398-0.226-0.826-0.325c-1.992-0.439-3.255-0.841-3.788-1.204c-0.738-0.504-1.107-1.204-1.107-2.101
				c0-0.809,0.319-1.488,0.958-2.039s1.629-0.826,2.971-0.826c1.277,0,2.227,0.208,2.848,0.624s1.049,1.031,1.283,1.846
				l-2.329,0.431c-0.1-0.363-0.289-0.642-0.567-0.835s-0.675-0.29-1.19-0.29c-0.65,0-1.116,0.091-1.397,0.272
				c-0.188,0.129-0.281,0.296-0.281,0.501c0,0.176,0.082,0.325,0.246,0.448c0.223,0.164,0.991,0.396,2.307,0.694
				s2.234,0.665,2.756,1.099c0.516,0.439,0.773,1.052,0.773,1.837c0,0.855-0.357,1.591-1.072,2.206s-1.772,0.923-3.173,0.923
				c-1.271,0-2.278-0.258-3.019-0.773C321.301,87.309,320.816,86.608,320.588,85.724z"/>
			<path fill="#FFFFFF" d="M338.259,88.387h-2.47v-9.334h2.294v1.327c0.393-0.627,0.745-1.04,1.059-1.239s0.67-0.299,1.068-0.299
				c0.563,0,1.104,0.155,1.626,0.466l-0.765,2.153c-0.416-0.27-0.803-0.404-1.16-0.404c-0.346,0-0.639,0.096-0.879,0.285
				c-0.24,0.191-0.43,0.535-0.566,1.033c-0.139,0.498-0.207,1.541-0.207,3.129V88.387z"/>
			<path fill="#FFFFFF" d="M348.017,85.416l2.461,0.413c-0.316,0.902-0.816,1.59-1.498,2.062c-0.684,0.472-1.537,0.707-2.563,0.707
				c-1.623,0-2.824-0.53-3.604-1.591c-0.615-0.85-0.923-1.922-0.923-3.217c0-1.547,0.404-2.758,1.213-3.634s1.831-1.314,3.067-1.314
				c1.389,0,2.484,0.459,3.287,1.375c0.803,0.918,1.187,2.322,1.151,4.215h-6.188c0.018,0.732,0.217,1.303,0.598,1.709
				c0.381,0.408,0.855,0.611,1.424,0.611c0.387,0,0.712-0.105,0.976-0.316S347.882,85.885,348.017,85.416z M348.157,82.92
				c-0.018-0.715-0.202-1.258-0.554-1.631c-0.352-0.371-0.779-0.558-1.283-0.558c-0.539,0-0.984,0.196-1.336,0.589
				s-0.524,0.926-0.519,1.6H348.157z"/>
			<path fill="#FFFFFF" d="M358.434,91.938v-4.693c-0.322,0.416-0.724,0.746-1.204,0.988c-0.48,0.243-0.999,0.365-1.556,0.365
				c-1.061,0-1.934-0.398-2.619-1.195c-0.809-0.932-1.213-2.194-1.213-3.788c0-1.5,0.379-2.67,1.138-3.511s1.701-1.262,2.826-1.262
				c0.621,0,1.158,0.132,1.613,0.396c0.453,0.264,0.856,0.662,1.208,1.195v-1.38h2.276v12.885H358.434z M358.513,83.605
				c0-0.955-0.195-1.666-0.584-2.131c-0.391-0.467-0.878-0.699-1.464-0.699c-0.598,0-1.098,0.237-1.499,0.712
				s-0.602,1.228-0.602,2.259c0,1.025,0.193,1.766,0.58,2.219c0.387,0.455,0.864,0.682,1.433,0.682s1.066-0.255,1.494-0.765
				S358.513,84.613,358.513,83.605z"/>
			<path fill="#FFFFFF" d="M369.185,88.387v-1.397c-0.34,0.498-0.787,0.891-1.34,1.178c-0.555,0.287-1.139,0.431-1.754,0.431
				c-0.627,0-1.189-0.138-1.688-0.413s-0.858-0.662-1.081-1.16s-0.334-1.187-0.334-2.065v-5.906h2.47v4.289
				c0,1.313,0.045,2.117,0.137,2.412c0.09,0.297,0.256,0.531,0.496,0.703c0.24,0.174,0.545,0.26,0.914,0.26
				c0.422,0,0.8-0.115,1.134-0.348c0.334-0.23,0.563-0.518,0.686-0.861c0.123-0.342,0.185-1.182,0.185-2.518v-3.938h2.47v9.334
				H369.185z"/>
			<path fill="#FFFFFF" d="M379.153,85.416l2.461,0.413c-0.316,0.902-0.816,1.59-1.498,2.062c-0.684,0.472-1.537,0.707-2.563,0.707
				c-1.623,0-2.824-0.53-3.604-1.591c-0.615-0.85-0.923-1.922-0.923-3.217c0-1.547,0.404-2.758,1.213-3.634s1.831-1.314,3.067-1.314
				c1.389,0,2.484,0.459,3.287,1.375c0.803,0.918,1.187,2.322,1.151,4.215h-6.188c0.018,0.732,0.217,1.303,0.598,1.709
				c0.381,0.408,0.855,0.611,1.424,0.611c0.387,0,0.712-0.105,0.976-0.316S379.019,85.885,379.153,85.416z M379.294,82.92
				c-0.018-0.715-0.202-1.258-0.554-1.631c-0.352-0.371-0.779-0.558-1.283-0.558c-0.539,0-0.984,0.196-1.336,0.589
				s-0.524,0.926-0.519,1.6H379.294z"/>
			<path fill="#FFFFFF" d="M385.835,88.387h-2.47v-9.334h2.294v1.327c0.393-0.627,0.745-1.04,1.059-1.239s0.67-0.299,1.068-0.299
				c0.563,0,1.104,0.155,1.626,0.466l-0.765,2.153c-0.416-0.27-0.803-0.404-1.16-0.404c-0.346,0-0.639,0.096-0.879,0.285
				c-0.24,0.191-0.43,0.535-0.566,1.033c-0.139,0.498-0.207,1.541-0.207,3.129V88.387z"/>
			<path fill="#FFFFFF" d="M390.188,77.787v-2.285h2.47v2.285H390.188z M390.188,88.387v-9.334h2.47v9.334H390.188z"/>
			<path fill="#FFFFFF" d="M394.716,79.053h2.276v1.274c0.814-0.99,1.784-1.485,2.909-1.485c0.598,0,1.116,0.123,1.556,0.369
				s0.8,0.618,1.081,1.116c0.41-0.498,0.853-0.87,1.327-1.116s0.981-0.369,1.521-0.369c0.686,0,1.266,0.14,1.74,0.418
				s0.829,0.687,1.063,1.226c0.17,0.398,0.255,1.043,0.255,1.934v5.968h-2.47v-5.335c0-0.926-0.085-1.523-0.255-1.793
				c-0.229-0.352-0.58-0.527-1.055-0.527c-0.346,0-0.671,0.105-0.976,0.316s-0.524,0.521-0.659,0.927
				c-0.135,0.408-0.202,1.051-0.202,1.93v4.482h-2.47v-5.115c0-0.908-0.044-1.494-0.132-1.758s-0.224-0.46-0.409-0.589
				c-0.184-0.129-0.435-0.193-0.751-0.193c-0.381,0-0.724,0.103-1.028,0.308s-0.523,0.501-0.654,0.888
				c-0.133,0.387-0.198,1.028-0.198,1.925v4.535h-2.47V79.053z"/>
			<path fill="#FFFFFF" d="M410.617,77.787v-2.285h2.47v2.285H410.617z M410.617,88.387v-9.334h2.47v9.334H410.617z"/>
			<path fill="#FFFFFF" d="M420.735,85.416l2.461,0.413c-0.316,0.902-0.816,1.59-1.498,2.062c-0.684,0.472-1.537,0.707-2.563,0.707
				c-1.623,0-2.824-0.53-3.604-1.591c-0.615-0.85-0.923-1.922-0.923-3.217c0-1.547,0.404-2.758,1.213-3.634s1.831-1.314,3.067-1.314
				c1.389,0,2.484,0.459,3.287,1.375c0.803,0.918,1.187,2.322,1.151,4.215h-6.188c0.018,0.732,0.217,1.303,0.598,1.709
				c0.381,0.408,0.855,0.611,1.424,0.611c0.387,0,0.712-0.105,0.976-0.316S420.601,85.885,420.735,85.416z M420.876,82.92
				c-0.018-0.715-0.202-1.258-0.554-1.631c-0.352-0.371-0.779-0.558-1.283-0.558c-0.539,0-0.984,0.196-1.336,0.589
				s-0.524,0.926-0.519,1.6H420.876z"/>
			<path fill="#FFFFFF" d="M433.543,88.387h-2.47v-4.764c0-1.008-0.053-1.659-0.158-1.955s-0.277-0.526-0.514-0.69
				c-0.238-0.164-0.523-0.246-0.857-0.246c-0.428,0-0.812,0.117-1.151,0.352s-0.573,0.545-0.698,0.932
				c-0.127,0.387-0.189,1.102-0.189,2.145v4.228h-2.47v-9.334h2.294v1.371c0.814-1.055,1.84-1.582,3.076-1.582
				c0.545,0,1.043,0.099,1.494,0.295s0.792,0.446,1.023,0.751s0.393,0.65,0.484,1.037c0.09,0.387,0.136,0.94,0.136,1.661V88.387z"/>
			<path fill="#FFFFFF" d="M440.041,79.053v1.969h-1.688v3.762c0,0.762,0.016,1.206,0.049,1.332
				c0.031,0.126,0.105,0.229,0.219,0.312c0.115,0.082,0.254,0.123,0.418,0.123c0.229,0,0.56-0.079,0.993-0.237l0.211,1.916
				c-0.574,0.246-1.225,0.369-1.951,0.369c-0.445,0-0.847-0.074-1.204-0.225c-0.357-0.148-0.619-0.342-0.787-0.58
				c-0.166-0.236-0.282-0.558-0.347-0.962c-0.053-0.287-0.079-0.867-0.079-1.74v-4.069h-1.134v-1.969h1.134v-1.854l2.479-1.441
				v3.296H440.041z"/>
			<path fill="#FFFFFF" d="M440.896,83.588c0-0.82,0.202-1.614,0.606-2.382s0.977-1.354,1.718-1.758s1.569-0.606,2.483-0.606
				c1.412,0,2.569,0.459,3.472,1.375c0.902,0.918,1.354,2.076,1.354,3.477c0,1.412-0.456,2.583-1.367,3.512s-2.058,1.393-3.44,1.393
				c-0.855,0-1.672-0.193-2.448-0.58s-1.366-0.953-1.771-1.701C441.098,85.57,440.896,84.66,440.896,83.588z M443.427,83.72
				c0,0.926,0.22,1.635,0.659,2.127s0.981,0.738,1.626,0.738s1.185-0.246,1.621-0.738s0.655-1.207,0.655-2.145
				c0-0.914-0.219-1.617-0.655-2.109s-0.977-0.738-1.621-0.738s-1.187,0.246-1.626,0.738S443.427,82.794,443.427,83.72z"/>
			<path fill="#FFFFFF" d="M451.304,85.724l2.479-0.378c0.105,0.48,0.319,0.846,0.642,1.094c0.322,0.25,0.773,0.374,1.354,0.374
				c0.639,0,1.119-0.117,1.441-0.352c0.217-0.164,0.325-0.384,0.325-0.659c0-0.188-0.059-0.343-0.176-0.466
				c-0.123-0.117-0.398-0.226-0.826-0.325c-1.992-0.439-3.255-0.841-3.788-1.204c-0.738-0.504-1.107-1.204-1.107-2.101
				c0-0.809,0.319-1.488,0.958-2.039s1.629-0.826,2.971-0.826c1.277,0,2.227,0.208,2.848,0.624s1.049,1.031,1.283,1.846
				l-2.329,0.431c-0.1-0.363-0.289-0.642-0.567-0.835s-0.675-0.29-1.19-0.29c-0.65,0-1.116,0.091-1.397,0.272
				c-0.188,0.129-0.281,0.296-0.281,0.501c0,0.176,0.082,0.325,0.246,0.448c0.223,0.164,0.991,0.396,2.307,0.694
				s2.234,0.665,2.756,1.099c0.516,0.439,0.773,1.052,0.773,1.837c0,0.855-0.357,1.591-1.072,2.206s-1.772,0.923-3.173,0.923
				c-1.271,0-2.278-0.258-3.019-0.773C452.017,87.309,451.532,86.608,451.304,85.724z"/>
			<path fill="#FFFFFF" d="M465.739,85.724l2.479-0.378c0.105,0.48,0.319,0.846,0.642,1.094c0.322,0.25,0.773,0.374,1.354,0.374
				c0.639,0,1.119-0.117,1.441-0.352c0.217-0.164,0.325-0.384,0.325-0.659c0-0.188-0.059-0.343-0.176-0.466
				c-0.123-0.117-0.398-0.226-0.826-0.325c-1.992-0.439-3.255-0.841-3.788-1.204c-0.738-0.504-1.107-1.204-1.107-2.101
				c0-0.809,0.319-1.488,0.958-2.039s1.629-0.826,2.971-0.826c1.277,0,2.227,0.208,2.848,0.624s1.049,1.031,1.283,1.846
				l-2.329,0.431c-0.1-0.363-0.289-0.642-0.567-0.835s-0.675-0.29-1.19-0.29c-0.65,0-1.116,0.091-1.397,0.272
				c-0.188,0.129-0.281,0.296-0.281,0.501c0,0.176,0.082,0.325,0.246,0.448c0.223,0.164,0.991,0.396,2.307,0.694
				s2.234,0.665,2.756,1.099c0.516,0.439,0.773,1.052,0.773,1.837c0,0.855-0.357,1.591-1.072,2.206s-1.772,0.923-3.173,0.923
				c-1.271,0-2.278-0.258-3.019-0.773C466.452,87.309,465.968,86.608,465.739,85.724z"/>
			<path fill="#FFFFFF" d="M481.737,85.416l2.461,0.413c-0.316,0.902-0.816,1.59-1.498,2.062c-0.684,0.472-1.537,0.707-2.563,0.707
				c-1.623,0-2.824-0.53-3.604-1.591c-0.615-0.85-0.923-1.922-0.923-3.217c0-1.547,0.404-2.758,1.213-3.634s1.831-1.314,3.067-1.314
				c1.389,0,2.484,0.459,3.287,1.375c0.803,0.918,1.187,2.322,1.151,4.215h-6.188c0.018,0.732,0.217,1.303,0.598,1.709
				c0.381,0.408,0.855,0.611,1.424,0.611c0.387,0,0.712-0.105,0.976-0.316S481.603,85.885,481.737,85.416z M481.878,82.92
				c-0.018-0.715-0.202-1.258-0.554-1.631c-0.352-0.371-0.779-0.558-1.283-0.558c-0.539,0-0.984,0.196-1.336,0.589
				s-0.524,0.926-0.519,1.6H481.878z"/>
			<path fill="#FFFFFF" d="M496.911,88.387v-1.397c-0.34,0.498-0.787,0.891-1.34,1.178c-0.555,0.287-1.139,0.431-1.754,0.431
				c-0.627,0-1.189-0.138-1.688-0.413s-0.858-0.662-1.081-1.16s-0.334-1.187-0.334-2.065v-5.906h2.47v4.289
				c0,1.313,0.045,2.117,0.137,2.412c0.09,0.297,0.256,0.531,0.496,0.703c0.24,0.174,0.545,0.26,0.914,0.26
				c0.422,0,0.8-0.115,1.134-0.348c0.334-0.23,0.563-0.518,0.686-0.861c0.123-0.342,0.185-1.182,0.185-2.518v-3.938h2.47v9.334
				H496.911z"/>
			<path fill="#FFFFFF" d="M500.605,85.724l2.479-0.378c0.105,0.48,0.319,0.846,0.642,1.094c0.322,0.25,0.773,0.374,1.354,0.374
				c0.639,0,1.119-0.117,1.441-0.352c0.217-0.164,0.325-0.384,0.325-0.659c0-0.188-0.059-0.343-0.176-0.466
				c-0.123-0.117-0.398-0.226-0.826-0.325c-1.992-0.439-3.255-0.841-3.788-1.204c-0.738-0.504-1.107-1.204-1.107-2.101
				c0-0.809,0.319-1.488,0.958-2.039s1.629-0.826,2.971-0.826c1.277,0,2.227,0.208,2.848,0.624s1.049,1.031,1.283,1.846
				l-2.329,0.431c-0.1-0.363-0.289-0.642-0.567-0.835s-0.675-0.29-1.19-0.29c-0.65,0-1.116,0.091-1.397,0.272
				c-0.188,0.129-0.281,0.296-0.281,0.501c0,0.176,0.082,0.325,0.246,0.448c0.223,0.164,0.991,0.396,2.307,0.694
				s2.234,0.665,2.756,1.099c0.516,0.439,0.773,1.052,0.773,1.837c0,0.855-0.357,1.591-1.072,2.206s-1.772,0.923-3.173,0.923
				c-1.271,0-2.278-0.258-3.019-0.773C501.317,87.309,500.833,86.608,500.605,85.724z"/>
			<path fill="#FFFFFF" d="M513.043,81.9l-2.241-0.404c0.252-0.902,0.686-1.57,1.301-2.004c0.615-0.434,1.529-0.65,2.742-0.65
				c1.102,0,1.922,0.131,2.461,0.391c0.539,0.262,0.918,0.593,1.139,0.994c0.219,0.401,0.329,1.138,0.329,2.21l-0.026,2.883
				c0,0.82,0.039,1.426,0.119,1.815c0.078,0.39,0.227,0.807,0.443,1.252h-2.443c-0.064-0.164-0.144-0.407-0.237-0.729
				c-0.041-0.146-0.07-0.243-0.088-0.29c-0.422,0.41-0.873,0.718-1.354,0.923s-0.993,0.308-1.538,0.308
				c-0.961,0-1.719-0.261-2.272-0.782c-0.555-0.521-0.831-1.181-0.831-1.978c0-0.527,0.126-0.998,0.378-1.41
				c0.252-0.414,0.604-0.73,1.059-0.949c0.454-0.221,1.109-0.412,1.965-0.576c1.154-0.217,1.954-0.419,2.399-0.606V82.05
				c0-0.475-0.117-0.813-0.352-1.015c-0.234-0.203-0.677-0.304-1.327-0.304c-0.439,0-0.782,0.087-1.028,0.259
				C513.395,81.164,513.195,81.467,513.043,81.9z M516.348,83.904c-0.316,0.105-0.817,0.231-1.503,0.378s-1.134,0.29-1.345,0.431
				c-0.322,0.229-0.483,0.519-0.483,0.87c0,0.346,0.129,0.645,0.387,0.896s0.586,0.378,0.984,0.378c0.445,0,0.87-0.146,1.274-0.439
				c0.299-0.223,0.495-0.495,0.589-0.817c0.064-0.211,0.097-0.612,0.097-1.204V83.904z"/>
			<path fill="#FFFFFF" d="M529.41,88.387h-2.47v-4.764c0-1.008-0.053-1.659-0.158-1.955s-0.277-0.526-0.514-0.69
				c-0.238-0.164-0.523-0.246-0.857-0.246c-0.428,0-0.812,0.117-1.151,0.352s-0.573,0.545-0.698,0.932
				c-0.127,0.387-0.189,1.102-0.189,2.145v4.228h-2.47v-9.334h2.294v1.371c0.814-1.055,1.84-1.582,3.076-1.582
				c0.545,0,1.043,0.099,1.494,0.295s0.792,0.446,1.023,0.751s0.393,0.65,0.484,1.037c0.09,0.387,0.136,0.94,0.136,1.661V88.387z"/>
			<path fill="#FFFFFF" d="M536.341,88.387V75.502h2.47v12.885H536.341z"/>
			<path fill="#FFFFFF" d="M542.899,81.9l-2.241-0.404c0.252-0.902,0.686-1.57,1.301-2.004s1.529-0.65,2.742-0.65
				c1.102,0,1.922,0.131,2.461,0.391c0.539,0.262,0.918,0.593,1.139,0.994c0.219,0.401,0.329,1.138,0.329,2.21l-0.026,2.883
				c0,0.82,0.039,1.426,0.119,1.815c0.078,0.39,0.227,0.807,0.443,1.252h-2.443c-0.064-0.164-0.144-0.407-0.237-0.729
				c-0.041-0.146-0.07-0.243-0.088-0.29c-0.422,0.41-0.873,0.718-1.354,0.923s-0.993,0.308-1.538,0.308
				c-0.961,0-1.719-0.261-2.271-0.782c-0.555-0.521-0.831-1.181-0.831-1.978c0-0.527,0.126-0.998,0.378-1.41
				c0.252-0.414,0.604-0.73,1.059-0.949c0.454-0.221,1.109-0.412,1.965-0.576c1.154-0.217,1.954-0.419,2.399-0.606V82.05
				c0-0.475-0.117-0.813-0.352-1.015c-0.234-0.203-0.677-0.304-1.327-0.304c-0.439,0-0.782,0.087-1.028,0.259
				C543.251,81.164,543.052,81.467,542.899,81.9z M546.204,83.904c-0.316,0.105-0.817,0.231-1.503,0.378s-1.134,0.29-1.345,0.431
				c-0.322,0.229-0.483,0.519-0.483,0.87c0,0.346,0.129,0.645,0.387,0.896s0.586,0.378,0.984,0.378c0.445,0,0.87-0.146,1.274-0.439
				c0.299-0.223,0.495-0.495,0.589-0.817c0.064-0.211,0.097-0.612,0.097-1.204V83.904z"/>
			<path fill="#FFFFFF" d="M549.906,85.724l2.479-0.378c0.105,0.48,0.319,0.846,0.642,1.094c0.322,0.25,0.773,0.374,1.354,0.374
				c0.639,0,1.119-0.117,1.441-0.352c0.217-0.164,0.325-0.384,0.325-0.659c0-0.188-0.059-0.343-0.176-0.466
				c-0.123-0.117-0.398-0.226-0.826-0.325c-1.992-0.439-3.255-0.841-3.788-1.204c-0.738-0.504-1.107-1.204-1.107-2.101
				c0-0.809,0.319-1.488,0.958-2.039s1.629-0.826,2.971-0.826c1.277,0,2.227,0.208,2.848,0.624s1.049,1.031,1.283,1.846
				l-2.329,0.431c-0.1-0.363-0.289-0.642-0.567-0.835s-0.675-0.29-1.19-0.29c-0.65,0-1.116,0.091-1.397,0.272
				c-0.188,0.129-0.281,0.296-0.281,0.501c0,0.176,0.082,0.325,0.246,0.448c0.223,0.164,0.991,0.396,2.307,0.694
				s2.234,0.665,2.756,1.099c0.516,0.439,0.773,1.052,0.773,1.837c0,0.855-0.357,1.591-1.072,2.206s-1.772,0.923-3.173,0.923
				c-1.271,0-2.278-0.258-3.019-0.773C550.619,87.309,550.135,86.608,549.906,85.724z"/>
			<path fill="#FFFFFF" d="M569.492,79.053v1.969h-1.688v3.762c0,0.762,0.016,1.206,0.049,1.332
				c0.031,0.126,0.105,0.229,0.219,0.312c0.115,0.082,0.254,0.123,0.418,0.123c0.229,0,0.56-0.079,0.993-0.237l0.211,1.916
				c-0.574,0.246-1.225,0.369-1.951,0.369c-0.445,0-0.847-0.074-1.204-0.225c-0.357-0.148-0.619-0.342-0.787-0.58
				c-0.166-0.236-0.282-0.558-0.347-0.962c-0.053-0.287-0.079-0.867-0.079-1.74v-4.069h-1.134v-1.969h1.134v-1.854l2.479-1.441
				v3.296H569.492z"/>
			<path fill="#FFFFFF" d="M576.323,85.416l2.461,0.413c-0.316,0.902-0.816,1.59-1.498,2.062c-0.684,0.472-1.537,0.707-2.563,0.707
				c-1.623,0-2.824-0.53-3.604-1.591c-0.615-0.85-0.923-1.922-0.923-3.217c0-1.547,0.404-2.758,1.213-3.634s1.831-1.314,3.067-1.314
				c1.389,0,2.484,0.459,3.287,1.375c0.803,0.918,1.187,2.322,1.151,4.215h-6.188c0.018,0.732,0.217,1.303,0.598,1.709
				c0.381,0.408,0.855,0.611,1.424,0.611c0.387,0,0.712-0.105,0.976-0.316S576.189,85.885,576.323,85.416z M576.464,82.92
				c-0.018-0.715-0.202-1.258-0.554-1.631c-0.352-0.371-0.779-0.558-1.283-0.558c-0.539,0-0.984,0.196-1.336,0.589
				s-0.524,0.926-0.519,1.6H576.464z M573.309,77.91l1.213-2.628h2.769l-2.417,2.628H573.309z"/>
			<path fill="#FFFFFF" d="M588.779,81.813l-2.435,0.439c-0.082-0.486-0.268-0.853-0.559-1.099
				c-0.289-0.246-0.666-0.369-1.129-0.369c-0.615,0-1.106,0.213-1.473,0.638s-0.549,1.135-0.549,2.131
				c0,1.107,0.186,1.89,0.559,2.347c0.371,0.457,0.871,0.686,1.498,0.686c0.469,0,0.853-0.133,1.151-0.399s0.51-0.726,0.633-1.376
				l2.426,0.413c-0.252,1.113-0.735,1.954-1.45,2.522s-1.673,0.853-2.874,0.853c-1.365,0-2.454-0.431-3.265-1.292
				c-0.813-0.861-1.218-2.054-1.218-3.577c0-1.541,0.407-2.74,1.222-3.6c0.814-0.857,1.916-1.287,3.305-1.287
				c1.137,0,2.04,0.245,2.711,0.734S588.486,80.811,588.779,81.813z"/>
			<path fill="#FFFFFF" d="M598.854,88.387h-2.47v-4.764c0-1.008-0.053-1.659-0.158-1.955s-0.277-0.526-0.514-0.69
				c-0.238-0.164-0.523-0.246-0.857-0.246c-0.428,0-0.812,0.117-1.151,0.352s-0.573,0.545-0.698,0.932
				c-0.127,0.387-0.189,1.102-0.189,2.145v4.228h-2.47v-9.334h2.294v1.371c0.814-1.055,1.84-1.582,3.076-1.582
				c0.545,0,1.043,0.099,1.494,0.295s0.792,0.446,1.023,0.751s0.393,0.65,0.484,1.037c0.09,0.387,0.136,0.94,0.136,1.661V88.387z"/>
			<path fill="#FFFFFF" d="M601.07,77.787v-2.285h2.47v2.285H601.07z M601.07,88.387v-9.334h2.47v9.334H601.07z"/>
			<path fill="#FFFFFF" d="M613.922,81.813l-2.435,0.439c-0.082-0.486-0.268-0.853-0.559-1.099
				c-0.289-0.246-0.666-0.369-1.129-0.369c-0.615,0-1.106,0.213-1.473,0.638s-0.549,1.135-0.549,2.131
				c0,1.107,0.186,1.89,0.559,2.347c0.371,0.457,0.871,0.686,1.498,0.686c0.469,0,0.853-0.133,1.151-0.399s0.51-0.726,0.633-1.376
				l2.426,0.413c-0.252,1.113-0.735,1.954-1.45,2.522s-1.673,0.853-2.874,0.853c-1.365,0-2.454-0.431-3.265-1.292
				c-0.813-0.861-1.218-2.054-1.218-3.577c0-1.541,0.407-2.74,1.222-3.6c0.814-0.857,1.916-1.287,3.305-1.287
				c1.137,0,2.04,0.245,2.711,0.734S613.629,80.811,613.922,81.813z"/>
			<path fill="#FFFFFF" d="M617.352,81.9l-2.241-0.404c0.252-0.902,0.686-1.57,1.301-2.004s1.529-0.65,2.742-0.65
				c1.102,0,1.922,0.131,2.461,0.391c0.539,0.262,0.918,0.593,1.139,0.994c0.219,0.401,0.329,1.138,0.329,2.21l-0.026,2.883
				c0,0.82,0.039,1.426,0.119,1.815c0.078,0.39,0.227,0.807,0.443,1.252h-2.443c-0.064-0.164-0.144-0.407-0.237-0.729
				c-0.041-0.146-0.07-0.243-0.088-0.29c-0.422,0.41-0.873,0.718-1.354,0.923s-0.993,0.308-1.538,0.308
				c-0.961,0-1.719-0.261-2.271-0.782c-0.555-0.521-0.831-1.181-0.831-1.978c0-0.527,0.126-0.998,0.378-1.41
				c0.252-0.414,0.604-0.73,1.059-0.949c0.454-0.221,1.109-0.412,1.965-0.576c1.154-0.217,1.954-0.419,2.399-0.606V82.05
				c0-0.475-0.117-0.813-0.352-1.015c-0.234-0.203-0.677-0.304-1.327-0.304c-0.439,0-0.782,0.087-1.028,0.259
				C617.703,81.164,617.504,81.467,617.352,81.9z M620.656,83.904c-0.316,0.105-0.817,0.231-1.503,0.378s-1.134,0.29-1.345,0.431
				c-0.322,0.229-0.483,0.519-0.483,0.87c0,0.346,0.129,0.645,0.387,0.896s0.586,0.378,0.984,0.378c0.445,0,0.87-0.146,1.274-0.439
				c0.299-0.223,0.495-0.495,0.589-0.817c0.064-0.211,0.097-0.612,0.097-1.204V83.904z"/>
			<path fill="#FFFFFF" d="M624.359,85.724l2.479-0.378c0.105,0.48,0.319,0.846,0.642,1.094c0.322,0.25,0.773,0.374,1.354,0.374
				c0.639,0,1.119-0.117,1.441-0.352c0.217-0.164,0.325-0.384,0.325-0.659c0-0.188-0.059-0.343-0.176-0.466
				c-0.123-0.117-0.398-0.226-0.826-0.325c-1.992-0.439-3.255-0.841-3.788-1.204c-0.738-0.504-1.107-1.204-1.107-2.101
				c0-0.809,0.319-1.488,0.958-2.039s1.629-0.826,2.971-0.826c1.277,0,2.227,0.208,2.848,0.624s1.049,1.031,1.283,1.846
				l-2.329,0.431c-0.1-0.363-0.289-0.642-0.567-0.835s-0.675-0.29-1.19-0.29c-0.65,0-1.116,0.091-1.397,0.272
				c-0.188,0.129-0.281,0.296-0.281,0.501c0,0.176,0.082,0.325,0.246,0.448c0.223,0.164,0.991,0.396,2.307,0.694
				s2.234,0.665,2.756,1.099c0.516,0.439,0.773,1.052,0.773,1.837c0,0.855-0.357,1.591-1.072,2.206s-1.772,0.923-3.173,0.923
				c-1.271,0-2.278-0.258-3.019-0.773C625.072,87.309,624.588,86.608,624.359,85.724z"/>
			<path fill="#FFFFFF" d="M648.226,88.387h-2.294v-1.371c-0.381,0.533-0.83,0.931-1.35,1.191c-0.518,0.26-1.041,0.391-1.568,0.391
				c-1.072,0-1.99-0.432-2.756-1.297c-0.764-0.863-1.146-2.069-1.146-3.616c0-1.582,0.372-2.784,1.116-3.608
				c0.744-0.822,1.685-1.234,2.821-1.234c1.043,0,1.945,0.434,2.707,1.301v-4.641h2.47V88.387z M641.634,83.518
				c0,0.996,0.138,1.717,0.413,2.162c0.398,0.645,0.955,0.967,1.67,0.967c0.568,0,1.052-0.242,1.45-0.725
				c0.398-0.484,0.598-1.206,0.598-2.167c0-1.072-0.193-1.844-0.58-2.315s-0.882-0.708-1.485-0.708
				c-0.586,0-1.076,0.233-1.473,0.698C641.832,81.896,641.634,82.592,641.634,83.518z"/>
			<path fill="#FFFFFF" d="M655.777,85.416l2.461,0.413c-0.316,0.902-0.816,1.59-1.498,2.062c-0.684,0.472-1.537,0.707-2.563,0.707
				c-1.623,0-2.824-0.53-3.604-1.591c-0.615-0.85-0.923-1.922-0.923-3.217c0-1.547,0.404-2.758,1.213-3.634s1.831-1.314,3.067-1.314
				c1.389,0,2.484,0.459,3.287,1.375c0.803,0.918,1.187,2.322,1.151,4.215h-6.188c0.018,0.732,0.217,1.303,0.598,1.709
				c0.381,0.408,0.855,0.611,1.424,0.611c0.387,0,0.712-0.105,0.976-0.316S655.643,85.885,655.777,85.416z M655.918,82.92
				c-0.018-0.715-0.202-1.258-0.554-1.631c-0.352-0.371-0.779-0.558-1.283-0.558c-0.539,0-0.984,0.196-1.336,0.589
				s-0.524,0.926-0.519,1.6H655.918z"/>
			<path fill="#FFFFFF" d="M667.172,88.387h-2.47v-9.334h2.294v1.327c0.393-0.627,0.745-1.04,1.059-1.239s0.67-0.299,1.068-0.299
				c0.563,0,1.104,0.155,1.626,0.466l-0.765,2.153c-0.416-0.27-0.803-0.404-1.16-0.404c-0.346,0-0.639,0.096-0.879,0.285
				c-0.24,0.191-0.43,0.535-0.566,1.033c-0.139,0.498-0.207,1.541-0.207,3.129V88.387z"/>
			<path fill="#FFFFFF" d="M676.93,85.416l2.461,0.413c-0.316,0.902-0.816,1.59-1.498,2.062c-0.684,0.472-1.537,0.707-2.563,0.707
				c-1.623,0-2.824-0.53-3.604-1.591c-0.615-0.85-0.923-1.922-0.923-3.217c0-1.547,0.404-2.758,1.213-3.634s1.831-1.314,3.067-1.314
				c1.389,0,2.484,0.459,3.287,1.375c0.803,0.918,1.187,2.322,1.151,4.215h-6.188c0.018,0.732,0.217,1.303,0.598,1.709
				c0.381,0.408,0.855,0.611,1.424,0.611c0.387,0,0.712-0.105,0.976-0.316S676.795,85.885,676.93,85.416z M677.07,82.92
				c-0.018-0.715-0.202-1.258-0.554-1.631c-0.352-0.371-0.779-0.558-1.283-0.558c-0.539,0-0.984,0.196-1.336,0.589
				s-0.524,0.926-0.519,1.6H677.07z"/>
			<path fill="#FFFFFF" d="M689.386,81.813l-2.435,0.439c-0.082-0.486-0.268-0.853-0.559-1.099
				c-0.289-0.246-0.666-0.369-1.129-0.369c-0.615,0-1.106,0.213-1.473,0.638s-0.549,1.135-0.549,2.131
				c0,1.107,0.186,1.89,0.559,2.347c0.371,0.457,0.871,0.686,1.498,0.686c0.469,0,0.853-0.133,1.151-0.399s0.51-0.726,0.633-1.376
				l2.426,0.413c-0.252,1.113-0.735,1.954-1.45,2.522s-1.673,0.853-2.874,0.853c-1.365,0-2.454-0.431-3.265-1.292
				c-0.813-0.861-1.218-2.054-1.218-3.577c0-1.541,0.407-2.74,1.222-3.6c0.814-0.857,1.916-1.287,3.305-1.287
				c1.137,0,2.04,0.245,2.711,0.734S689.093,80.811,689.386,81.813z"/>
			<path fill="#FFFFFF" d="M690.398,83.588c0-0.82,0.202-1.614,0.606-2.382s0.977-1.354,1.718-1.758s1.569-0.606,2.483-0.606
				c1.412,0,2.569,0.459,3.472,1.375c0.902,0.918,1.354,2.076,1.354,3.477c0,1.412-0.456,2.583-1.367,3.512s-2.058,1.393-3.44,1.393
				c-0.855,0-1.672-0.193-2.448-0.58s-1.366-0.953-1.771-1.701C690.601,85.57,690.398,84.66,690.398,83.588z M692.93,83.72
				c0,0.926,0.22,1.635,0.659,2.127s0.981,0.738,1.626,0.738s1.185-0.246,1.621-0.738s0.655-1.207,0.655-2.145
				c0-0.914-0.219-1.617-0.655-2.109s-0.977-0.738-1.621-0.738s-1.187,0.246-1.626,0.738S692.93,82.794,692.93,83.72z"/>
			<path fill="#FFFFFF" d="M701.677,88.387V75.502h2.47v12.885H701.677z"/>
			<path fill="#FFFFFF" d="M711.795,85.416l2.461,0.413c-0.316,0.902-0.816,1.59-1.498,2.062c-0.684,0.472-1.537,0.707-2.563,0.707
				c-1.623,0-2.824-0.53-3.604-1.591c-0.615-0.85-0.923-1.922-0.923-3.217c0-1.547,0.404-2.758,1.213-3.634s1.831-1.314,3.067-1.314
				c1.389,0,2.484,0.459,3.287,1.375c0.803,0.918,1.187,2.322,1.151,4.215H708.2c0.018,0.732,0.217,1.303,0.598,1.709
				c0.381,0.408,0.855,0.611,1.424,0.611c0.387,0,0.712-0.105,0.976-0.316S711.66,85.885,711.795,85.416z M711.936,82.92
				c-0.018-0.715-0.202-1.258-0.554-1.631c-0.352-0.371-0.779-0.558-1.283-0.558c-0.539,0-0.984,0.196-1.336,0.589
				s-0.524,0.926-0.519,1.6H711.936z"/>
			<path fill="#FFFFFF" d="M724.252,81.813l-2.435,0.439c-0.082-0.486-0.268-0.853-0.559-1.099
				c-0.289-0.246-0.666-0.369-1.129-0.369c-0.615,0-1.106,0.213-1.473,0.638s-0.549,1.135-0.549,2.131
				c0,1.107,0.186,1.89,0.559,2.347c0.371,0.457,0.871,0.686,1.498,0.686c0.469,0,0.853-0.133,1.151-0.399s0.51-0.726,0.633-1.376
				l2.426,0.413c-0.252,1.113-0.735,1.954-1.45,2.522s-1.673,0.853-2.874,0.853c-1.365,0-2.454-0.431-3.265-1.292
				c-0.813-0.861-1.218-2.054-1.218-3.577c0-1.541,0.407-2.74,1.222-3.6c0.814-0.857,1.916-1.287,3.305-1.287
				c1.137,0,2.04,0.245,2.711,0.734S723.959,80.811,724.252,81.813z"/>
			<path fill="#FFFFFF" d="M733.975,81.813l-2.435,0.439c-0.082-0.486-0.268-0.853-0.559-1.099
				c-0.289-0.246-0.666-0.369-1.129-0.369c-0.615,0-1.106,0.213-1.473,0.638s-0.549,1.135-0.549,2.131
				c0,1.107,0.186,1.89,0.559,2.347c0.371,0.457,0.871,0.686,1.498,0.686c0.469,0,0.853-0.133,1.151-0.399s0.51-0.726,0.633-1.376
				l2.426,0.413c-0.252,1.113-0.735,1.954-1.45,2.522s-1.673,0.853-2.874,0.853c-1.365,0-2.454-0.431-3.265-1.292
				c-0.813-0.861-1.218-2.054-1.218-3.577c0-1.541,0.407-2.74,1.222-3.6c0.814-0.857,1.916-1.287,3.305-1.287
				c1.137,0,2.04,0.245,2.711,0.734S733.682,80.811,733.975,81.813z"/>
			<path fill="#FFFFFF" d="M735.559,77.787v-2.285h2.47v2.285H735.559z M735.559,88.387v-9.334h2.47v9.334H735.559z"/>
			<path fill="#FFFFFF" d="M739.7,83.588c0-0.82,0.202-1.614,0.606-2.382s0.977-1.354,1.718-1.758s1.569-0.606,2.483-0.606
				c1.412,0,2.569,0.459,3.472,1.375c0.902,0.918,1.354,2.076,1.354,3.477c0,1.412-0.456,2.583-1.367,3.512s-2.058,1.393-3.44,1.393
				c-0.855,0-1.672-0.193-2.448-0.58s-1.366-0.953-1.771-1.701C739.902,85.57,739.7,84.66,739.7,83.588z M742.232,83.72
				c0,0.926,0.22,1.635,0.659,2.127s0.981,0.738,1.626,0.738s1.185-0.246,1.621-0.738s0.655-1.207,0.655-2.145
				c0-0.914-0.219-1.617-0.655-2.109s-0.977-0.738-1.621-0.738s-1.187,0.246-1.626,0.738S742.232,82.794,742.232,83.72z
				 M743.269,77.91l1.213-2.628h2.769l-2.417,2.628H743.269z"/>
			<path fill="#FFFFFF" d="M759.469,88.387h-2.47v-4.764c0-1.008-0.053-1.659-0.158-1.955s-0.277-0.526-0.514-0.69
				c-0.238-0.164-0.523-0.246-0.857-0.246c-0.428,0-0.812,0.117-1.151,0.352s-0.573,0.545-0.698,0.932
				c-0.127,0.387-0.189,1.102-0.189,2.145v4.228h-2.47v-9.334h2.294v1.371c0.814-1.055,1.84-1.582,3.076-1.582
				c0.545,0,1.043,0.099,1.494,0.295s0.792,0.446,1.023,0.751s0.393,0.65,0.484,1.037c0.09,0.387,0.136,0.94,0.136,1.661V88.387z"/>
			<path fill="#FFFFFF" d="M774.959,88.387h-2.294v-1.371c-0.381,0.533-0.83,0.931-1.35,1.191c-0.518,0.26-1.041,0.391-1.568,0.391
				c-1.072,0-1.99-0.432-2.756-1.297c-0.764-0.863-1.146-2.069-1.146-3.616c0-1.582,0.372-2.784,1.116-3.608
				c0.744-0.822,1.685-1.234,2.821-1.234c1.043,0,1.945,0.434,2.707,1.301v-4.641h2.47V88.387z M768.367,83.518
				c0,0.996,0.138,1.717,0.413,2.162c0.398,0.645,0.955,0.967,1.67,0.967c0.568,0,1.052-0.242,1.45-0.725
				c0.398-0.484,0.598-1.206,0.598-2.167c0-1.072-0.193-1.844-0.58-2.315s-0.882-0.708-1.485-0.708
				c-0.586,0-1.076,0.233-1.473,0.698C768.565,81.896,768.367,82.592,768.367,83.518z"/>
			<path fill="#FFFFFF" d="M782.511,85.416l2.461,0.413c-0.316,0.902-0.816,1.59-1.498,2.062c-0.684,0.472-1.537,0.707-2.563,0.707
				c-1.623,0-2.824-0.53-3.604-1.591c-0.615-0.85-0.923-1.922-0.923-3.217c0-1.547,0.404-2.758,1.213-3.634s1.831-1.314,3.067-1.314
				c1.389,0,2.484,0.459,3.287,1.375c0.803,0.918,1.187,2.322,1.151,4.215h-6.188c0.018,0.732,0.217,1.303,0.598,1.709
				c0.381,0.408,0.855,0.611,1.424,0.611c0.387,0,0.712-0.105,0.976-0.316S782.376,85.885,782.511,85.416z M782.651,82.92
				c-0.018-0.715-0.202-1.258-0.554-1.631c-0.352-0.371-0.779-0.558-1.283-0.558c-0.539,0-0.984,0.196-1.336,0.589
				s-0.524,0.926-0.519,1.6H782.651z"/>
			<path fill="#FFFFFF" d="M800.102,88.387h-2.294v-1.371c-0.381,0.533-0.83,0.931-1.35,1.191c-0.518,0.26-1.041,0.391-1.568,0.391
				c-1.072,0-1.99-0.432-2.756-1.297c-0.764-0.863-1.146-2.069-1.146-3.616c0-1.582,0.372-2.784,1.116-3.608
				c0.744-0.822,1.685-1.234,2.821-1.234c1.043,0,1.945,0.434,2.707,1.301v-4.641h2.47V88.387z M793.51,83.518
				c0,0.996,0.138,1.717,0.413,2.162c0.398,0.645,0.955,0.967,1.67,0.967c0.568,0,1.052-0.242,1.45-0.725
				c0.398-0.484,0.598-1.206,0.598-2.167c0-1.072-0.193-1.844-0.58-2.315s-0.882-0.708-1.485-0.708
				c-0.586,0-1.076,0.233-1.473,0.698C793.708,81.896,793.51,82.592,793.51,83.518z"/>
			<path fill="#FFFFFF" d="M804.094,81.9l-2.241-0.404c0.252-0.902,0.686-1.57,1.301-2.004s1.529-0.65,2.742-0.65
				c1.102,0,1.922,0.131,2.461,0.391c0.539,0.262,0.918,0.593,1.139,0.994c0.219,0.401,0.329,1.138,0.329,2.21l-0.026,2.883
				c0,0.82,0.039,1.426,0.119,1.815c0.078,0.39,0.227,0.807,0.443,1.252h-2.443c-0.064-0.164-0.144-0.407-0.237-0.729
				c-0.041-0.146-0.07-0.243-0.088-0.29c-0.422,0.41-0.873,0.718-1.354,0.923s-0.993,0.308-1.538,0.308
				c-0.961,0-1.719-0.261-2.271-0.782c-0.555-0.521-0.831-1.181-0.831-1.978c0-0.527,0.126-0.998,0.378-1.41
				c0.252-0.414,0.604-0.73,1.059-0.949c0.454-0.221,1.109-0.412,1.965-0.576c1.154-0.217,1.954-0.419,2.399-0.606V82.05
				c0-0.475-0.117-0.813-0.352-1.015c-0.234-0.203-0.677-0.304-1.327-0.304c-0.439,0-0.782,0.087-1.028,0.259
				C804.445,81.164,804.246,81.467,804.094,81.9z M807.398,83.904c-0.316,0.105-0.817,0.231-1.503,0.378s-1.134,0.29-1.345,0.431
				c-0.322,0.229-0.483,0.519-0.483,0.87c0,0.346,0.129,0.645,0.387,0.896s0.586,0.378,0.984,0.378c0.445,0,0.87-0.146,1.274-0.439
				c0.299-0.223,0.495-0.495,0.589-0.817c0.064-0.211,0.097-0.612,0.097-1.204V83.904z"/>
			<path fill="#FFFFFF" d="M816.251,79.053v1.969h-1.688v3.762c0,0.762,0.016,1.206,0.049,1.332
				c0.031,0.126,0.105,0.229,0.219,0.312c0.115,0.082,0.254,0.123,0.418,0.123c0.229,0,0.56-0.079,0.993-0.237l0.211,1.916
				c-0.574,0.246-1.225,0.369-1.951,0.369c-0.445,0-0.847-0.074-1.204-0.225c-0.357-0.148-0.619-0.342-0.787-0.58
				c-0.166-0.236-0.282-0.558-0.347-0.962c-0.053-0.287-0.079-0.867-0.079-1.74v-4.069h-1.134v-1.969h1.134v-1.854l2.479-1.441
				v3.296H816.251z"/>
			<path fill="#FFFFFF" d="M817.107,83.588c0-0.82,0.202-1.614,0.606-2.382s0.977-1.354,1.718-1.758s1.569-0.606,2.483-0.606
				c1.412,0,2.569,0.459,3.472,1.375c0.902,0.918,1.354,2.076,1.354,3.477c0,1.412-0.456,2.583-1.367,3.512s-2.058,1.393-3.44,1.393
				c-0.855,0-1.672-0.193-2.448-0.58s-1.366-0.953-1.771-1.701C817.309,85.57,817.107,84.66,817.107,83.588z M819.638,83.72
				c0,0.926,0.22,1.635,0.659,2.127s0.981,0.738,1.626,0.738s1.185-0.246,1.621-0.738s0.655-1.207,0.655-2.145
				c0-0.914-0.219-1.617-0.655-2.109s-0.977-0.738-1.621-0.738s-1.187,0.246-1.626,0.738S819.638,82.794,819.638,83.72z"/>
			<path fill="#FFFFFF" d="M827.515,85.724l2.479-0.378c0.105,0.48,0.319,0.846,0.642,1.094c0.322,0.25,0.773,0.374,1.354,0.374
				c0.639,0,1.119-0.117,1.441-0.352c0.217-0.164,0.325-0.384,0.325-0.659c0-0.188-0.059-0.343-0.176-0.466
				c-0.123-0.117-0.398-0.226-0.826-0.325c-1.992-0.439-3.255-0.841-3.788-1.204c-0.738-0.504-1.107-1.204-1.107-2.101
				c0-0.809,0.319-1.488,0.958-2.039s1.629-0.826,2.971-0.826c1.277,0,2.227,0.208,2.848,0.624s1.049,1.031,1.283,1.846
				l-2.329,0.431c-0.1-0.363-0.289-0.642-0.567-0.835s-0.675-0.29-1.19-0.29c-0.65,0-1.116,0.091-1.397,0.272
				c-0.188,0.129-0.281,0.296-0.281,0.501c0,0.176,0.082,0.325,0.246,0.448c0.223,0.164,0.991,0.396,2.307,0.694
				s2.234,0.665,2.756,1.099c0.516,0.439,0.773,1.052,0.773,1.837c0,0.855-0.357,1.591-1.072,2.206s-1.772,0.923-3.173,0.923
				c-1.271,0-2.278-0.258-3.019-0.773C828.228,87.309,827.743,86.608,827.515,85.724z"/>
			<path fill="#FFFFFF" d="M848.92,91.938v-4.693c-0.322,0.416-0.724,0.746-1.204,0.988c-0.48,0.243-0.999,0.365-1.556,0.365
				c-1.061,0-1.934-0.398-2.619-1.195c-0.809-0.932-1.213-2.194-1.213-3.788c0-1.5,0.379-2.67,1.138-3.511s1.701-1.262,2.826-1.262
				c0.621,0,1.158,0.132,1.613,0.396c0.453,0.264,0.856,0.662,1.208,1.195v-1.38h2.276v12.885H848.92z M848.999,83.605
				c0-0.955-0.195-1.666-0.584-2.131c-0.391-0.467-0.878-0.699-1.464-0.699c-0.598,0-1.098,0.237-1.499,0.712
				s-0.602,1.228-0.602,2.259c0,1.025,0.193,1.766,0.58,2.219c0.387,0.455,0.864,0.682,1.433,0.682s1.066-0.255,1.494-0.765
				S848.999,84.613,848.999,83.605z"/>
			<path fill="#FFFFFF" d="M859.671,88.387v-1.397c-0.34,0.498-0.787,0.891-1.34,1.178c-0.555,0.287-1.139,0.431-1.754,0.431
				c-0.627,0-1.189-0.138-1.688-0.413s-0.858-0.662-1.081-1.16s-0.334-1.187-0.334-2.065v-5.906h2.47v4.289
				c0,1.313,0.045,2.117,0.137,2.412c0.09,0.297,0.256,0.531,0.496,0.703c0.24,0.174,0.545,0.26,0.914,0.26
				c0.422,0,0.8-0.115,1.134-0.348c0.334-0.23,0.563-0.518,0.686-0.861c0.123-0.342,0.185-1.182,0.185-2.518v-3.938h2.47v9.334
				H859.671z"/>
			<path fill="#FFFFFF" d="M869.64,85.416l2.461,0.413c-0.316,0.902-0.816,1.59-1.498,2.062c-0.684,0.472-1.537,0.707-2.563,0.707
				c-1.623,0-2.824-0.53-3.604-1.591c-0.615-0.85-0.923-1.922-0.923-3.217c0-1.547,0.404-2.758,1.213-3.634s1.831-1.314,3.067-1.314
				c1.389,0,2.484,0.459,3.287,1.375c0.803,0.918,1.187,2.322,1.151,4.215h-6.188c0.018,0.732,0.217,1.303,0.598,1.709
				c0.381,0.408,0.855,0.611,1.424,0.611c0.387,0,0.712-0.105,0.976-0.316S869.505,85.885,869.64,85.416z M869.78,82.92
				c-0.018-0.715-0.202-1.258-0.554-1.631c-0.352-0.371-0.779-0.558-1.283-0.558c-0.539,0-0.984,0.196-1.336,0.589
				s-0.524,0.926-0.519,1.6H869.78z"/>
			<path fill="#FFFFFF" d="M880.516,81.9l-2.241-0.404c0.252-0.902,0.686-1.57,1.301-2.004s1.529-0.65,2.742-0.65
				c1.102,0,1.922,0.131,2.461,0.391c0.539,0.262,0.918,0.593,1.139,0.994c0.219,0.401,0.329,1.138,0.329,2.21l-0.026,2.883
				c0,0.82,0.039,1.426,0.119,1.815c0.078,0.39,0.227,0.807,0.443,1.252h-2.443c-0.064-0.164-0.144-0.407-0.237-0.729
				c-0.041-0.146-0.07-0.243-0.088-0.29c-0.422,0.41-0.873,0.718-1.354,0.923s-0.993,0.308-1.538,0.308
				c-0.961,0-1.719-0.261-2.271-0.782c-0.555-0.521-0.831-1.181-0.831-1.978c0-0.527,0.126-0.998,0.378-1.41
				c0.252-0.414,0.604-0.73,1.059-0.949c0.454-0.221,1.109-0.412,1.965-0.576c1.154-0.217,1.954-0.419,2.399-0.606V82.05
				c0-0.475-0.117-0.813-0.352-1.015c-0.234-0.203-0.677-0.304-1.327-0.304c-0.439,0-0.782,0.087-1.028,0.259
				C880.867,81.164,880.668,81.467,880.516,81.9z M883.82,83.904c-0.316,0.105-0.817,0.231-1.503,0.378s-1.134,0.29-1.345,0.431
				c-0.322,0.229-0.483,0.519-0.483,0.87c0,0.346,0.129,0.645,0.387,0.896s0.586,0.378,0.984,0.378c0.445,0,0.87-0.146,1.274-0.439
				c0.299-0.223,0.495-0.495,0.589-0.817c0.064-0.211,0.097-0.612,0.097-1.204V83.904z"/>
			<path fill="#FFFFFF" d="M901.244,81.813l-2.435,0.439c-0.082-0.486-0.268-0.853-0.559-1.099
				c-0.289-0.246-0.666-0.369-1.129-0.369c-0.615,0-1.106,0.213-1.473,0.638s-0.549,1.135-0.549,2.131
				c0,1.107,0.186,1.89,0.559,2.347c0.371,0.457,0.871,0.686,1.498,0.686c0.469,0,0.853-0.133,1.151-0.399s0.51-0.726,0.633-1.376
				l2.426,0.413c-0.252,1.113-0.735,1.954-1.45,2.522s-1.673,0.853-2.874,0.853c-1.365,0-2.454-0.431-3.265-1.292
				c-0.813-0.861-1.218-2.054-1.218-3.577c0-1.541,0.407-2.74,1.222-3.6c0.814-0.857,1.916-1.287,3.305-1.287
				c1.137,0,2.04,0.245,2.711,0.734S900.951,80.811,901.244,81.813z"/>
			<path fill="#FFFFFF" d="M902.257,83.588c0-0.82,0.202-1.614,0.606-2.382s0.977-1.354,1.718-1.758s1.569-0.606,2.483-0.606
				c1.412,0,2.569,0.459,3.472,1.375c0.902,0.918,1.354,2.076,1.354,3.477c0,1.412-0.456,2.583-1.367,3.512s-2.058,1.393-3.44,1.393
				c-0.855,0-1.672-0.193-2.448-0.58s-1.366-0.953-1.771-1.701C902.459,85.57,902.257,84.66,902.257,83.588z M904.788,83.72
				c0,0.926,0.22,1.635,0.659,2.127s0.981,0.738,1.626,0.738s1.185-0.246,1.621-0.738s0.655-1.207,0.655-2.145
				c0-0.914-0.219-1.617-0.655-2.109s-0.977-0.738-1.621-0.738s-1.187,0.246-1.626,0.738S904.788,82.794,904.788,83.72z"/>
			<path fill="#FFFFFF" d="M922.026,88.387h-2.47v-4.764c0-1.008-0.053-1.659-0.158-1.955s-0.277-0.526-0.514-0.69
				c-0.238-0.164-0.523-0.246-0.857-0.246c-0.428,0-0.812,0.117-1.151,0.352s-0.573,0.545-0.698,0.932
				c-0.127,0.387-0.189,1.102-0.189,2.145v4.228h-2.47v-9.334h2.294v1.371c0.814-1.055,1.84-1.582,3.076-1.582
				c0.545,0,1.043,0.099,1.494,0.295s0.792,0.446,1.023,0.751s0.393,0.65,0.484,1.037c0.09,0.387,0.136,0.94,0.136,1.661V88.387z"/>
			<path fill="#FFFFFF" d="M928.523,79.053v1.969h-1.688v3.762c0,0.762,0.016,1.206,0.049,1.332
				c0.031,0.126,0.105,0.229,0.219,0.312c0.115,0.082,0.254,0.123,0.418,0.123c0.229,0,0.56-0.079,0.993-0.237l0.211,1.916
				c-0.574,0.246-1.225,0.369-1.951,0.369c-0.445,0-0.847-0.074-1.204-0.225c-0.357-0.148-0.619-0.342-0.787-0.58
				c-0.166-0.236-0.282-0.558-0.347-0.962c-0.053-0.287-0.079-0.867-0.079-1.74v-4.069h-1.134v-1.969h1.134v-1.854l2.479-1.441
				v3.296H928.523z"/>
			<path fill="#FFFFFF" d="M929.949,77.787v-2.285h2.47v2.285H929.949z M929.949,88.387v-9.334h2.47v9.334H929.949z"/>
			<path fill="#FFFFFF" d="M943.152,88.387h-2.47v-4.764c0-1.008-0.053-1.659-0.158-1.955s-0.277-0.526-0.514-0.69
				c-0.238-0.164-0.523-0.246-0.857-0.246c-0.428,0-0.812,0.117-1.151,0.352s-0.573,0.545-0.698,0.932
				c-0.127,0.387-0.189,1.102-0.189,2.145v4.228h-2.47v-9.334h2.294v1.371c0.814-1.055,1.84-1.582,3.076-1.582
				c0.545,0,1.043,0.099,1.494,0.295s0.792,0.446,1.023,0.751s0.393,0.65,0.484,1.037c0.09,0.387,0.136,0.94,0.136,1.661V88.387z"/>
			<path fill="#FFFFFF" d="M951.513,88.387v-1.397c-0.34,0.498-0.787,0.891-1.34,1.178c-0.555,0.287-1.139,0.431-1.754,0.431
				c-0.627,0-1.189-0.138-1.688-0.413s-0.858-0.662-1.081-1.16s-0.334-1.187-0.334-2.065v-5.906h2.47v4.289
				c0,1.313,0.045,2.117,0.137,2.412c0.09,0.297,0.256,0.531,0.496,0.703c0.24,0.174,0.545,0.26,0.914,0.26
				c0.422,0,0.8-0.115,1.134-0.348c0.334-0.23,0.563-0.518,0.686-0.861c0.123-0.342,0.185-1.182,0.185-2.518v-3.938h2.47v9.334
				H951.513z"/>
			<path fill="#FFFFFF" d="M957.922,81.9l-2.241-0.404c0.252-0.902,0.686-1.57,1.301-2.004s1.529-0.65,2.742-0.65
				c1.102,0,1.922,0.131,2.461,0.391c0.539,0.262,0.918,0.593,1.139,0.994c0.219,0.401,0.329,1.138,0.329,2.21l-0.026,2.883
				c0,0.82,0.039,1.426,0.119,1.815c0.078,0.39,0.227,0.807,0.443,1.252h-2.443c-0.064-0.164-0.144-0.407-0.237-0.729
				c-0.041-0.146-0.07-0.243-0.088-0.29c-0.422,0.41-0.873,0.718-1.354,0.923s-0.993,0.308-1.538,0.308
				c-0.961,0-1.719-0.261-2.271-0.782c-0.555-0.521-0.831-1.181-0.831-1.978c0-0.527,0.126-0.998,0.378-1.41
				c0.252-0.414,0.604-0.73,1.059-0.949c0.454-0.221,1.109-0.412,1.965-0.576c1.154-0.217,1.954-0.419,2.399-0.606V82.05
				c0-0.475-0.117-0.813-0.352-1.015c-0.234-0.203-0.677-0.304-1.327-0.304c-0.439,0-0.782,0.087-1.028,0.259
				C958.273,81.164,958.074,81.467,957.922,81.9z M961.227,83.904c-0.316,0.105-0.817,0.231-1.503,0.378s-1.134,0.29-1.345,0.431
				c-0.322,0.229-0.483,0.519-0.483,0.87c0,0.346,0.129,0.645,0.387,0.896s0.586,0.378,0.984,0.378c0.445,0,0.87-0.146,1.274-0.439
				c0.299-0.223,0.495-0.495,0.589-0.817c0.064-0.211,0.097-0.612,0.097-1.204V83.904z"/>
			<path fill="#FFFFFF" d="M973.938,81.813l-2.435,0.439c-0.082-0.486-0.268-0.853-0.559-1.099
				c-0.289-0.246-0.666-0.369-1.129-0.369c-0.615,0-1.106,0.213-1.473,0.638s-0.549,1.135-0.549,2.131
				c0,1.107,0.186,1.89,0.559,2.347c0.371,0.457,0.871,0.686,1.498,0.686c0.469,0,0.853-0.133,1.151-0.399s0.51-0.726,0.633-1.376
				l2.426,0.413c-0.252,1.113-0.735,1.954-1.45,2.522s-1.673,0.853-2.874,0.853c-1.365,0-2.454-0.431-3.265-1.292
				c-0.813-0.861-1.218-2.054-1.218-3.577c0-1.541,0.407-2.74,1.222-3.6c0.814-0.857,1.916-1.287,3.305-1.287
				c1.137,0,2.04,0.245,2.711,0.734S973.645,80.811,973.938,81.813z"/>
			<path fill="#FFFFFF" d="M975.522,77.787v-2.285h2.47v2.285H975.522z M975.522,88.387v-9.334h2.47v9.334H975.522z"/>
			<path fill="#FFFFFF" d="M979.663,83.588c0-0.82,0.202-1.614,0.606-2.382s0.977-1.354,1.718-1.758s1.569-0.606,2.483-0.606
				c1.412,0,2.569,0.459,3.472,1.375c0.902,0.918,1.354,2.076,1.354,3.477c0,1.412-0.456,2.583-1.367,3.512s-2.058,1.393-3.44,1.393
				c-0.855,0-1.672-0.193-2.448-0.58s-1.366-0.953-1.771-1.701C979.865,85.57,979.663,84.66,979.663,83.588z M982.194,83.72
				c0,0.926,0.22,1.635,0.659,2.127s0.981,0.738,1.626,0.738s1.185-0.246,1.621-0.738s0.655-1.207,0.655-2.145
				c0-0.914-0.219-1.617-0.655-2.109s-0.977-0.738-1.621-0.738s-1.187,0.246-1.626,0.738S982.194,82.794,982.194,83.72z
				 M983.232,77.91l1.213-2.628h2.769l-2.417,2.628H983.232z"/>
			<path fill="#FFFFFF" d="M999.432,88.387h-2.47v-4.764c0-1.008-0.053-1.659-0.158-1.955s-0.277-0.526-0.514-0.69
				c-0.238-0.164-0.523-0.246-0.857-0.246c-0.428,0-0.812,0.117-1.151,0.352s-0.573,0.545-0.698,0.932
				c-0.127,0.387-0.189,1.102-0.189,2.145v4.228h-2.47v-9.334h2.294v1.371c0.814-1.055,1.84-1.582,3.076-1.582
				c0.545,0,1.043,0.099,1.494,0.295s0.792,0.446,1.023,0.751s0.393,0.65,0.484,1.037c0.09,0.387,0.136,0.94,0.136,1.661V88.387z"/>
			<path fill="#FFFFFF" d="M1005.491,85.724l2.479-0.378c0.105,0.48,0.319,0.846,0.642,1.094c0.322,0.25,0.773,0.374,1.354,0.374
				c0.639,0,1.119-0.117,1.441-0.352c0.217-0.164,0.325-0.384,0.325-0.659c0-0.188-0.059-0.343-0.176-0.466
				c-0.123-0.117-0.398-0.226-0.826-0.325c-1.992-0.439-3.255-0.841-3.788-1.204c-0.738-0.504-1.107-1.204-1.107-2.101
				c0-0.809,0.319-1.488,0.958-2.039s1.629-0.826,2.971-0.826c1.277,0,2.227,0.208,2.848,0.624s1.049,1.031,1.283,1.846
				l-2.329,0.431c-0.1-0.363-0.289-0.642-0.567-0.835s-0.675-0.29-1.19-0.29c-0.65,0-1.116,0.091-1.397,0.272
				c-0.188,0.129-0.281,0.296-0.281,0.501c0,0.176,0.082,0.325,0.246,0.448c0.223,0.164,0.991,0.396,2.307,0.694
				s2.234,0.665,2.756,1.099c0.516,0.439,0.773,1.052,0.773,1.837c0,0.855-0.357,1.591-1.072,2.206s-1.772,0.923-3.173,0.923
				c-1.271,0-2.278-0.258-3.019-0.773C1006.204,87.309,1005.72,86.608,1005.491,85.724z"/>
			<path fill="#FFFFFF" d="M1021.49,85.416l2.461,0.413c-0.316,0.902-0.816,1.59-1.498,2.062c-0.684,0.472-1.537,0.707-2.563,0.707
				c-1.623,0-2.824-0.53-3.604-1.591c-0.615-0.85-0.923-1.922-0.923-3.217c0-1.547,0.404-2.758,1.213-3.634s1.831-1.314,3.067-1.314
				c1.389,0,2.484,0.459,3.287,1.375c0.803,0.918,1.186,2.322,1.151,4.215h-6.187c0.018,0.732,0.217,1.303,0.598,1.709
				c0.381,0.408,0.855,0.611,1.424,0.611c0.387,0,0.712-0.105,0.976-0.316S1021.356,85.885,1021.49,85.416z M1021.631,82.92
				c-0.018-0.715-0.202-1.258-0.554-1.631c-0.352-0.371-0.779-0.558-1.283-0.558c-0.539,0-0.984,0.196-1.336,0.589
				s-0.524,0.926-0.519,1.6H1021.631z"/>
			<path fill="#FFFFFF" d="M1030.45,79.053h2.303v1.371c0.299-0.469,0.703-0.85,1.213-1.143s1.075-0.439,1.696-0.439
				c1.084,0,2.004,0.425,2.76,1.274s1.134,2.033,1.134,3.551c0,1.559-0.381,2.771-1.143,3.634c-0.762,0.865-1.685,1.297-2.769,1.297
				c-0.516,0-0.983-0.103-1.402-0.308s-0.859-0.557-1.322-1.055v4.702h-2.47V79.053z M1032.894,83.562
				c0,1.049,0.208,1.823,0.624,2.325c0.416,0.5,0.923,0.751,1.521,0.751c0.574,0,1.052-0.229,1.433-0.69
				c0.381-0.459,0.571-1.214,0.571-2.263c0-0.979-0.196-1.705-0.589-2.18s-0.879-0.712-1.459-0.712
				c-0.604,0-1.104,0.232-1.503,0.699C1033.093,81.957,1032.894,82.647,1032.894,83.562z"/>
			<path fill="#FFFFFF" d="M1043.592,88.387h-2.47v-9.334h2.294v1.327c0.393-0.627,0.745-1.04,1.059-1.239s0.67-0.299,1.068-0.299
				c0.563,0,1.104,0.155,1.626,0.466l-0.765,2.153c-0.416-0.27-0.803-0.404-1.16-0.404c-0.346,0-0.639,0.096-0.879,0.285
				c-0.24,0.191-0.43,0.535-0.566,1.033c-0.139,0.498-0.207,1.541-0.207,3.129V88.387z"/>
			<path fill="#FFFFFF" d="M1053.35,85.416l2.461,0.413c-0.316,0.902-0.816,1.59-1.498,2.062c-0.684,0.472-1.537,0.707-2.563,0.707
				c-1.623,0-2.824-0.53-3.604-1.591c-0.615-0.85-0.923-1.922-0.923-3.217c0-1.547,0.404-2.758,1.213-3.634s1.831-1.314,3.067-1.314
				c1.389,0,2.484,0.459,3.287,1.375c0.803,0.918,1.187,2.322,1.151,4.215h-6.188c0.018,0.732,0.217,1.303,0.598,1.709
				c0.381,0.408,0.855,0.611,1.424,0.611c0.387,0,0.712-0.105,0.976-0.316S1053.215,85.885,1053.35,85.416z M1053.49,82.92
				c-0.018-0.715-0.202-1.258-0.554-1.631c-0.352-0.371-0.779-0.558-1.283-0.558c-0.539,0-0.984,0.196-1.336,0.589
				s-0.524,0.926-0.519,1.6H1053.49z"/>
			<path fill="#FFFFFF" d="M1056.797,85.724l2.479-0.378c0.105,0.48,0.319,0.846,0.642,1.094c0.322,0.25,0.773,0.374,1.354,0.374
				c0.639,0,1.119-0.117,1.441-0.352c0.217-0.164,0.325-0.384,0.325-0.659c0-0.188-0.059-0.343-0.176-0.466
				c-0.123-0.117-0.398-0.226-0.826-0.325c-1.992-0.439-3.255-0.841-3.788-1.204c-0.738-0.504-1.107-1.204-1.107-2.101
				c0-0.809,0.319-1.488,0.958-2.039s1.629-0.826,2.971-0.826c1.277,0,2.227,0.208,2.848,0.624s1.049,1.031,1.283,1.846
				l-2.329,0.431c-0.1-0.363-0.289-0.642-0.567-0.835s-0.675-0.29-1.19-0.29c-0.65,0-1.116,0.091-1.397,0.272
				c-0.188,0.129-0.281,0.296-0.281,0.501c0,0.176,0.082,0.325,0.246,0.448c0.223,0.164,0.991,0.396,2.307,0.694
				s2.234,0.665,2.756,1.099c0.516,0.439,0.773,1.052,0.773,1.837c0,0.855-0.357,1.591-1.072,2.206s-1.772,0.923-3.173,0.923
				c-1.271,0-2.278-0.258-3.019-0.773C1057.51,87.309,1057.025,86.608,1056.797,85.724z"/>
			<path fill="#FFFFFF" d="M1072.795,85.416l2.461,0.413c-0.316,0.902-0.816,1.59-1.498,2.062c-0.684,0.472-1.537,0.707-2.563,0.707
				c-1.623,0-2.824-0.53-3.604-1.591c-0.615-0.85-0.923-1.922-0.923-3.217c0-1.547,0.404-2.758,1.213-3.634s1.831-1.314,3.067-1.314
				c1.389,0,2.484,0.459,3.287,1.375c0.803,0.918,1.187,2.322,1.151,4.215h-6.188c0.018,0.732,0.217,1.303,0.598,1.709
				c0.381,0.408,0.855,0.611,1.424,0.611c0.387,0,0.712-0.105,0.976-0.316S1072.66,85.885,1072.795,85.416z M1072.936,82.92
				c-0.018-0.715-0.202-1.258-0.554-1.631c-0.352-0.371-0.779-0.558-1.283-0.558c-0.539,0-0.984,0.196-1.336,0.589
				s-0.524,0.926-0.519,1.6H1072.936z"/>
			<path fill="#FFFFFF" d="M1085.603,88.387h-2.47v-4.764c0-1.008-0.053-1.659-0.158-1.955s-0.277-0.526-0.514-0.69
				c-0.238-0.164-0.523-0.246-0.857-0.246c-0.428,0-0.812,0.117-1.151,0.352s-0.573,0.545-0.698,0.932
				c-0.127,0.387-0.189,1.102-0.189,2.145v4.228h-2.47v-9.334h2.294v1.371c0.814-1.055,1.84-1.582,3.076-1.582
				c0.545,0,1.043,0.099,1.494,0.295s0.792,0.446,1.023,0.751s0.393,0.65,0.484,1.037c0.09,0.387,0.136,0.94,0.136,1.661V88.387z"/>
			<path fill="#FFFFFF" d="M1092.1,79.053v1.969h-1.688v3.762c0,0.762,0.016,1.206,0.049,1.332c0.031,0.126,0.105,0.229,0.219,0.312
				c0.115,0.082,0.254,0.123,0.418,0.123c0.229,0,0.56-0.079,0.993-0.237l0.211,1.916c-0.574,0.246-1.225,0.369-1.951,0.369
				c-0.445,0-0.847-0.074-1.204-0.225c-0.357-0.148-0.619-0.342-0.787-0.58c-0.166-0.236-0.282-0.558-0.347-0.962
				c-0.053-0.287-0.079-0.867-0.079-1.74v-4.069h-1.134v-1.969h1.134v-1.854l2.479-1.441v3.296H1092.1z"/>
			<path fill="#FFFFFF" d="M1095.371,81.9l-2.241-0.404c0.252-0.902,0.686-1.57,1.301-2.004s1.529-0.65,2.742-0.65
				c1.102,0,1.922,0.131,2.461,0.391c0.539,0.262,0.918,0.593,1.139,0.994c0.219,0.401,0.329,1.138,0.329,2.21l-0.026,2.883
				c0,0.82,0.039,1.426,0.119,1.815c0.078,0.39,0.227,0.807,0.443,1.252h-2.443c-0.064-0.164-0.144-0.407-0.237-0.729
				c-0.041-0.146-0.07-0.243-0.088-0.29c-0.422,0.41-0.873,0.718-1.354,0.923s-0.993,0.308-1.538,0.308
				c-0.961,0-1.719-0.261-2.271-0.782c-0.555-0.521-0.831-1.181-0.831-1.978c0-0.527,0.126-0.998,0.378-1.41
				c0.252-0.414,0.604-0.73,1.059-0.949c0.454-0.221,1.109-0.412,1.965-0.576c1.154-0.217,1.954-0.419,2.399-0.606V82.05
				c0-0.475-0.117-0.813-0.352-1.015c-0.234-0.203-0.677-0.304-1.327-0.304c-0.439,0-0.782,0.087-1.028,0.259
				C1095.723,81.164,1095.523,81.467,1095.371,81.9z M1098.676,83.904c-0.316,0.105-0.817,0.231-1.503,0.378
				s-1.134,0.29-1.345,0.431c-0.322,0.229-0.483,0.519-0.483,0.87c0,0.346,0.129,0.645,0.387,0.896s0.586,0.378,0.984,0.378
				c0.445,0,0.87-0.146,1.274-0.439c0.299-0.223,0.495-0.495,0.589-0.817c0.064-0.211,0.097-0.612,0.097-1.204V83.904z"/>
			<path fill="#FFFFFF" d="M1111.738,88.387h-2.47v-4.764c0-1.008-0.053-1.659-0.158-1.955s-0.277-0.526-0.514-0.69
				c-0.238-0.164-0.523-0.246-0.857-0.246c-0.428,0-0.812,0.117-1.151,0.352s-0.573,0.545-0.698,0.932
				c-0.127,0.387-0.189,1.102-0.189,2.145v4.228h-2.47v-9.334h2.294v1.371c0.814-1.055,1.84-1.582,3.076-1.582
				c0.545,0,1.043,0.099,1.494,0.295s0.792,0.446,1.023,0.751s0.393,0.65,0.484,1.037c0.09,0.387,0.136,0.94,0.136,1.661V88.387z"/>
			<path fill="#FFFFFF" d="M1114.431,81.522v-2.47h2.47v2.47H1114.431z M1114.431,88.387v-2.47h2.47v2.47H1114.431z"/>
		</g>
	</g>
</g>
<g>
	<g>
		<g>
			<g>
				<path fill="#FFFFFF" d="M1104.168,517.113l-2.322-2.693l6.021-5.188l-6.034-5.316l2.351-2.667l7.564,6.664
					c0.386,0.34,0.605,0.829,0.603,1.344c-0.002,0.513-0.228,1.001-0.616,1.336L1104.168,517.113z"/>
			</g>
			<g>
				<rect x="1075.121" y="507.231" fill="#FFFFFF" width="35.874" height="3.555"/>
			</g>
		</g>
		<g>
			<rect x="1057.727" y="507.231" fill="#FFFFFF" width="11.958" height="3.555"/>
		</g>
	</g>
	<g>
		<g>
			<path fill="#FFFFFF" d="M1142.924,540l-2.322-2.693l6.021-5.19l-6.034-5.316l2.35-2.667l7.566,6.663
				c0.385,0.34,0.605,0.829,0.602,1.344c-0.003,0.514-0.227,1.001-0.617,1.337L1142.924,540z"/>
		</g>
		<g>
			<rect x="1113.169" y="530.061" fill="#FFFFFF" width="35.875" height="3.555"/>
		</g>
	</g>
	<g>
		<g>
			<path fill="#FFFFFF" d="M1128.484,492.773l-2.321-2.693l6.02-5.191l-6.034-5.314l2.351-2.669l7.564,6.662
				c0.386,0.34,0.605,0.83,0.603,1.345c-0.002,0.513-0.227,1.001-0.616,1.337L1128.484,492.773z"/>
		</g>
		<g>
			<rect x="1093.601" y="483.314" fill="#FFFFFF" width="42.398" height="3.555"/>
		</g>
	</g>
	<g>
		<rect x="1096.862" y="530.061" fill="#FFFFFF" width="9.784" height="3.555"/>
	</g>
</g>
<g>
	<g>
		<g>
			<g>
				<path fill="#FFFFFF" d="M108.713,515.117l2.322-2.693l-6.021-5.189l6.034-5.316l-2.351-2.667l-7.565,6.664
					c-0.386,0.34-0.605,0.829-0.602,1.344c0.002,0.513,0.227,1.001,0.616,1.336L108.713,515.117z"/>
			</g>
			<g>
				<rect x="101.887" y="505.235" fill="#FFFFFF" width="35.874" height="3.555"/>
			</g>
		</g>
		<g>
			<rect x="143.196" y="505.235" fill="#FFFFFF" width="11.958" height="3.555"/>
		</g>
	</g>
	<g>
		<g>
			<path fill="#FFFFFF" d="M69.957,538.004l2.322-2.693l-6.021-5.189l6.034-5.316l-2.35-2.667l-7.565,6.663
				c-0.385,0.34-0.605,0.829-0.603,1.344c0.003,0.514,0.228,1.001,0.617,1.337L69.957,538.004z"/>
		</g>
		<g>
			<rect x="63.837" y="528.064" fill="#FFFFFF" width="35.875" height="3.555"/>
		</g>
	</g>
	<g>
		<g>
			<path fill="#FFFFFF" d="M84.396,490.777l2.321-2.693l-6.019-5.191l6.034-5.314l-2.351-2.669l-7.564,6.662
				c-0.386,0.34-0.605,0.83-0.603,1.345c0.002,0.513,0.227,1.001,0.616,1.337L84.396,490.777z"/>
		</g>
		<g>
			<rect x="76.882" y="481.318" fill="#FFFFFF" width="42.398" height="3.555"/>
		</g>
	</g>
	<g>
		<rect x="106.234" y="528.064" fill="#FFFFFF" width="9.784" height="3.555"/>
	</g>
</g>
<g>
	
		<rect x="143.523" y="368.104" fill="#FFFFFF" stroke="#FFCD0B" stroke-width="4" stroke-linejoin="round" stroke-miterlimit="10" width="928.996" height="170.99"/>
	<g>
		
			<rect x="143.523" y="336.722" fill="#FFFFFF" stroke="#FFCD0B" stroke-width="4" stroke-linejoin="round" stroke-miterlimit="10" width="928.996" height="32.024"/>
		<g>
			<path fill="#FFCD09" d="M1055.613,355.138h-15.758c-1.33,0-2.406-1.072-2.406-2.399c0-1.335,1.076-2.408,2.406-2.408h15.758
				c1.33,0,2.408,1.073,2.408,2.408C1058.021,354.065,1056.943,355.138,1055.613,355.138z"/>
		</g>
		<g>
			<path fill="#144A8B" d="M1021.664,363.433c-5.902,0-10.705-4.799-10.705-10.694c0-5.906,4.803-10.702,10.705-10.702
				c5.898,0,10.699,4.796,10.699,10.702C1032.363,358.634,1027.563,363.433,1021.664,363.433z M1021.664,346.849
				c-3.248,0-5.889,2.639-5.889,5.89c0,3.245,2.641,5.883,5.889,5.883c3.246,0,5.885-2.638,5.885-5.883
				C1027.549,349.487,1024.91,346.849,1021.664,346.849z"/>
		</g>
	</g>
</g>
<g>
	<g>
		<path fill="#D2D3D3" d="M153.261,378.022v-7.936c1.125-0.457,2.838-1.054,4.2-1.78l5.563,5.608c0.53,0.534,1.372,0.534,1.901,0
			l8.027-8.038c0.531-0.531,0.525-1.395-0.008-1.923l-5.613-5.935c0.727-1.36,1.32-2.369,1.775-4.619h7.938
			c0.753,0,0.976,0.036,0.976-0.719v-11.366c0-0.753-0.224-1.42-0.976-1.42h-7.938c-0.455-2.252-1.052-2.907-1.777-4.266
			l5.609-5.597c0.533-0.533,0.533-1.387,0-1.92l-8.041-8.033c-0.529-0.536-1.392-0.534-1.922,0.002l-5.515,5.608
			c-1.362-0.724-3.075-1.321-4.2-1.782v-7.934c0-0.749-0.802-1.966-1.555-1.966h-11.368c-0.753,0-1.708,1.217-1.708,1.966v7.934
			c-1.125,0.461-2.763,1.06-4.119,1.782l-5.527-5.607c-0.529-0.536-1.351-0.536-1.882,0l-8.019,8.038
			c-0.532,0.532-0.522,1.393,0.008,1.925l5.623,5.583c-0.726,1.358-1.324,2.014-1.779,4.266h-7.932c-0.754,0-2.258,0.667-2.258,1.42
			v11.366c0,0.755,1.504,0.719,2.258,0.719h7.932c0.457,2.25,1.059,3.259,1.783,4.619l-5.615,5.774
			c-0.531,0.529-0.531,1.471,0,2.004l8.043,8.079c0.531,0.534,1.394,0.553,1.924,0.019l5.441-5.599
			c1.356,0.727,2.994,1.334,4.119,1.791v7.936c0,0.75,0.955,1.262,1.708,1.262h11.368
			C152.459,379.284,153.261,378.772,153.261,378.022z"/>
		<path fill="#F2F2F2" stroke="#201E1E" stroke-width="3.2" stroke-linejoin="round" stroke-miterlimit="10" d="M145.73,357.575
			c-5.631,0-10.196-4.569-10.196-10.199c0-5.636,4.565-10.202,10.196-10.202c5.635,0,10.2,4.566,10.2,10.202
			C155.931,353.006,151.365,357.575,145.73,357.575z"/>
	</g>
	
		<line fill="none" stroke="#FFFFFF" stroke-width="3.2" stroke-linejoin="round" stroke-miterlimit="10" x1="105.992" y1="365.778" x2="67.728" y2="365.778"/>
	
		<line fill="none" stroke="#FFFFFF" stroke-width="3.2" stroke-linejoin="round" stroke-miterlimit="10" x1="101.491" y1="346.646" x2="48.595" y2="346.646"/>
	
		<line fill="none" stroke="#FFFFFF" stroke-width="3.2" stroke-linejoin="round" stroke-miterlimit="10" x1="103.741" y1="325.263" x2="82.358" y2="325.263"/>
</g>
<g>
	<g>
		<path fill="#D2D3D3" d="M1062.306,378.022v-7.936c-1.125-0.457-2.838-1.054-4.2-1.78l-5.563,5.608
			c-0.53,0.534-1.372,0.534-1.901,0l-8.027-8.038c-0.531-0.531-0.525-1.395,0.008-1.923l5.613-5.935
			c-0.728-1.36-1.32-2.369-1.775-4.619h-7.938c-0.753,0-0.977,0.036-0.977-0.719v-11.366c0-0.753,0.224-1.42,0.977-1.42h7.938
			c0.455-2.252,1.052-2.907,1.777-4.266l-5.609-5.597c-0.533-0.533-0.533-1.387,0-1.92l8.041-8.033
			c0.529-0.536,1.392-0.534,1.922,0.002l5.515,5.608c1.362-0.724,3.075-1.321,4.2-1.782v-7.934c0-0.749,0.802-1.966,1.555-1.966
			h11.368c0.753,0,1.708,1.217,1.708,1.966v7.934c1.125,0.461,2.763,1.06,4.119,1.782l5.527-5.607c0.529-0.536,1.351-0.536,1.882,0
			l8.019,8.038c0.532,0.532,0.522,1.393-0.008,1.925l-5.623,5.583c0.726,1.358,1.324,2.014,1.779,4.266h7.932
			c0.754,0,2.258,0.667,2.258,1.42v11.366c0,0.755-1.504,0.719-2.258,0.719h-7.932c-0.457,2.25-1.059,3.259-1.783,4.619l5.615,5.774
			c0.531,0.529,0.531,1.471,0,2.004l-8.043,8.079c-0.531,0.534-1.394,0.553-1.924,0.019l-5.441-5.599
			c-1.356,0.727-2.994,1.334-4.119,1.791v7.936c0,0.75-0.955,1.262-1.708,1.262h-11.368
			C1063.108,379.284,1062.306,378.772,1062.306,378.022z"/>
		<path fill="#F2F2F2" stroke="#201E1E" stroke-width="3.2" stroke-linejoin="round" stroke-miterlimit="10" d="M1069.836,357.575
			c5.631,0,10.196-4.569,10.196-10.199c0-5.636-4.566-10.202-10.196-10.202c-5.635,0-10.2,4.566-10.2,10.202
			C1059.636,353.006,1064.201,357.575,1069.836,357.575z"/>
	</g>
	
		<line fill="none" stroke="#FFFFFF" stroke-width="3.2" stroke-linejoin="round" stroke-miterlimit="10" x1="1109.574" y1="365.778" x2="1147.839" y2="365.778"/>
	
		<line fill="none" stroke="#FFFFFF" stroke-width="3.2" stroke-linejoin="round" stroke-miterlimit="10" x1="1114.075" y1="346.646" x2="1166.972" y2="346.646"/>
	
		<line fill="none" stroke="#FFFFFF" stroke-width="3.2" stroke-linejoin="round" stroke-miterlimit="10" x1="1111.825" y1="325.263" x2="1133.208" y2="325.263"/>
</g>
<g>
	
		<line fill="none" stroke="#FFFFFF" stroke-width="3.2" stroke-linejoin="round" stroke-miterlimit="10" x1="1130.943" y1="231.396" x2="1185.621" y2="231.396"/>
	
		<line fill="none" stroke="#FFFFFF" stroke-width="3.2" stroke-linejoin="round" stroke-miterlimit="10" x1="1137.376" y1="204.058" x2="1212.961" y2="204.058"/>
	
		<line fill="none" stroke="#FFFFFF" stroke-width="3.2" stroke-linejoin="round" stroke-miterlimit="10" x1="1134.159" y1="173.501" x2="1164.715" y2="173.501"/>
</g>
<g>
	
		<line fill="none" stroke="#FFFFFF" stroke-width="3.2" stroke-linejoin="round" stroke-miterlimit="10" x1="82.018" y1="231.396" x2="27.34" y2="231.396"/>
	
		<line fill="none" stroke="#FFFFFF" stroke-width="3.2" stroke-linejoin="round" stroke-miterlimit="10" x1="75.585" y1="204.058" x2="0" y2="204.058"/>
	
		<line fill="none" stroke="#FFFFFF" stroke-width="3.2" stroke-linejoin="round" stroke-miterlimit="10" x1="78.802" y1="173.501" x2="48.246" y2="173.501"/>
</g>
</svg>