<!-- Generator: Adobe Illustrator 17.0.0, SVG Export Plug-In  -->
<svg version="1.1"
	 xmlns="http://www.w3.org/2000/svg" xmlns:xlink="http://www.w3.org/1999/xlink" xmlns:a="http://ns.adobe.com/AdobeSVGViewerExtensions/3.0/"
	 x="0px" y="0px" width="313.782px" height="51.006px" viewBox="0 0 313.782 51.006" enable-background="new 0 0 313.782 51.006"
	 xml:space="preserve">
<defs>
</defs>
<g>
	<rect x="0" y="2.053" fill="#D2D3D3" width="43.577" height="41.014"/>
	<g>
		<rect x="43.577" y="2.053" fill="#FFCD07" width="268.154" height="41.014"/>
		<path fill="#154A8B" d="M311.731,45.117H43.577c-1.132,0-2.052-0.917-2.052-2.051V2.053C41.525,0.92,42.445,0,43.577,0h268.154
			c1.133,0,2.051,0.92,2.051,2.053v41.014C313.782,44.2,312.864,45.117,311.731,45.117z M45.629,41.017h264.053V4.103H45.629V41.017
			z"/>
	</g>
	<path fill="#154A8B" stroke="#000101" stroke-width="0.5" stroke-miterlimit="10" d="M34.787,25.339
		c0-7.488-6.092-13.582-13.581-13.582c-7.489,0-13.582,6.094-13.582,13.582c0,6.993,5.313,12.765,12.113,13.501v11.916h4.102V38.66
		C30.072,37.43,34.787,31.928,34.787,25.339z M21.206,34.82c-5.227,0-9.481-4.254-9.481-9.481c0-5.228,4.254-9.479,9.481-9.479
		c5.228,0,9.482,4.252,9.482,9.479C30.688,30.566,26.434,34.82,21.206,34.82z"/>
</g>
<g>
	<path fill="#154A8B" d="M79.988,29.112v-9.381h-3.504v-1.255h8.43v1.255h-3.519v9.381H79.988z"/>
	<path fill="#154A8B" d="M85.288,29.112V18.477h7.689v1.255h-6.282v3.258h5.884v1.248h-5.884v3.62h6.529v1.255H85.288z
		 M88.189,17.823l0.965-2.031h1.712l-1.596,2.031H88.189z"/>
	<path fill="#154A8B" d="M101.658,25.384l1.407,0.355c-0.295,1.156-0.826,2.037-1.593,2.645c-0.767,0.606-1.704,0.91-2.812,0.91
		c-1.146,0-2.078-0.233-2.797-0.7c-0.718-0.467-1.265-1.144-1.639-2.028c-0.375-0.885-0.563-1.835-0.563-2.851
		c0-1.108,0.211-2.073,0.635-2.898c0.423-0.825,1.025-1.451,1.807-1.879c0.78-0.429,1.641-0.642,2.579-0.642
		c1.063,0,1.959,0.27,2.684,0.813c0.726,0.541,1.231,1.303,1.517,2.285l-1.386,0.326c-0.246-0.773-0.604-1.338-1.073-1.69
		c-0.47-0.353-1.06-0.53-1.771-0.53c-0.817,0-1.501,0.196-2.05,0.588c-0.549,0.393-0.935,0.918-1.157,1.578
		s-0.333,1.342-0.333,2.043c0,0.904,0.131,1.693,0.395,2.368s0.674,1.179,1.23,1.513c0.556,0.334,1.158,0.5,1.807,0.5
		c0.788,0,1.455-0.227,2.002-0.682S101.464,26.278,101.658,25.384z"/>
	<path fill="#154A8B" d="M103.686,29.112V18.477h1.443l5.587,8.351v-8.351h1.349v10.636h-1.443l-5.586-8.357v8.357H103.686z"/>
	<path fill="#154A8B" d="M113.57,29.112V18.477h1.407v10.636H113.57z"/>
	<path fill="#154A8B" d="M123.949,25.384l1.407,0.355c-0.295,1.156-0.826,2.037-1.593,2.645c-0.767,0.606-1.704,0.91-2.812,0.91
		c-1.146,0-2.078-0.233-2.797-0.7c-0.718-0.467-1.265-1.144-1.639-2.028c-0.375-0.885-0.563-1.835-0.563-2.851
		c0-1.108,0.211-2.073,0.635-2.898c0.423-0.825,1.025-1.451,1.807-1.879c0.78-0.429,1.641-0.642,2.579-0.642
		c1.063,0,1.959,0.27,2.684,0.813c0.726,0.541,1.231,1.303,1.517,2.285l-1.386,0.326c-0.246-0.773-0.604-1.338-1.073-1.69
		c-0.47-0.353-1.06-0.53-1.771-0.53c-0.817,0-1.501,0.196-2.05,0.588c-0.549,0.393-0.935,0.918-1.157,1.578
		s-0.333,1.342-0.333,2.043c0,0.904,0.131,1.693,0.395,2.368s0.674,1.179,1.23,1.513c0.556,0.334,1.158,0.5,1.807,0.5
		c0.788,0,1.455-0.227,2.002-0.682S123.755,26.278,123.949,25.384z"/>
	<path fill="#154A8B" d="M124.823,29.112l4.084-10.636h1.517l4.353,10.636h-1.603l-1.241-3.221h-4.447l-1.168,3.221H124.823z
		 M127.892,24.745h3.605l-1.109-2.945c-0.339-0.895-0.591-1.631-0.755-2.206c-0.136,0.683-0.326,1.359-0.573,2.031L127.892,24.745z"
		/>
	<path fill="#154A8B" d="M134.322,25.695l1.328-0.116c0.063,0.532,0.209,0.969,0.438,1.31c0.23,0.341,0.587,0.616,1.07,0.827
		s1.028,0.315,1.633,0.315c0.537,0,1.011-0.079,1.422-0.239s0.717-0.379,0.918-0.656c0.2-0.278,0.301-0.582,0.301-0.911
		c0-0.333-0.097-0.625-0.29-0.874s-0.513-0.458-0.958-0.627c-0.285-0.111-0.916-0.285-1.894-0.52
		c-0.977-0.234-1.661-0.455-2.053-0.664c-0.508-0.266-0.887-0.596-1.136-0.99c-0.249-0.394-0.374-0.835-0.374-1.324
		c0-0.536,0.153-1.038,0.458-1.505s0.749-0.821,1.334-1.063c0.586-0.241,1.236-0.361,1.952-0.361c0.788,0,1.483,0.127,2.086,0.381
		c0.602,0.254,1.065,0.627,1.389,1.12c0.324,0.493,0.498,1.052,0.522,1.676l-1.35,0.102c-0.072-0.672-0.317-1.18-0.736-1.523
		c-0.418-0.343-1.036-0.515-1.854-0.515c-0.851,0-1.472,0.156-1.86,0.468c-0.39,0.312-0.584,0.688-0.584,1.128
		c0,0.383,0.138,0.696,0.413,0.943c0.271,0.246,0.979,0.5,2.122,0.758c1.144,0.259,1.929,0.484,2.354,0.679
		c0.619,0.285,1.076,0.646,1.371,1.085c0.295,0.438,0.442,0.941,0.442,1.512c0,0.566-0.162,1.1-0.486,1.6
		c-0.323,0.501-0.789,0.891-1.396,1.168c-0.606,0.279-1.29,0.418-2.049,0.418c-0.963,0-1.77-0.141-2.42-0.421
		s-1.161-0.702-1.53-1.267C134.537,27.044,134.342,26.406,134.322,25.695z"/>
	<path fill="#154A8B" d="M146.641,29.112V18.477h3.663c0.827,0,1.459,0.051,1.894,0.152c0.609,0.14,1.13,0.395,1.561,0.762
		c0.561,0.474,0.98,1.08,1.259,1.817c0.277,0.738,0.417,1.58,0.417,2.528c0,0.808-0.095,1.523-0.283,2.147s-0.431,1.141-0.726,1.549
		c-0.295,0.409-0.618,0.73-0.969,0.965s-0.773,0.412-1.27,0.533c-0.495,0.121-1.065,0.182-1.708,0.182H146.641z M148.048,27.857
		h2.271c0.701,0,1.252-0.065,1.65-0.196c0.399-0.131,0.718-0.314,0.954-0.551c0.334-0.334,0.594-0.783,0.78-1.346
		c0.187-0.564,0.279-1.247,0.279-2.05c0-1.112-0.183-1.968-0.548-2.565c-0.365-0.597-0.809-0.997-1.331-1.2
		c-0.377-0.146-0.984-0.218-1.821-0.218h-2.234V27.857z"/>
	<path fill="#154A8B" d="M156.301,29.112V18.477h7.689v1.255h-6.282v3.258h5.884v1.248h-5.884v3.62h6.529v1.255H156.301z"/>
	<path fill="#154A8B" d="M168.052,29.112V18.477h1.408v9.381h5.237v1.255H168.052z"/>
	<path fill="#154A8B" d="M175.304,29.112V18.477h7.689v1.255h-6.282v3.258h5.884v1.248h-5.884v3.62h6.529v1.255H175.304z"/>
	<path fill="#154A8B" d="M187.126,29.112l-4.121-10.636h1.523l2.764,7.727c0.223,0.619,0.409,1.2,0.559,1.741
		c0.165-0.58,0.355-1.16,0.573-1.741l2.873-7.727h1.437l-4.164,10.636H187.126z"/>
	<path fill="#154A8B" d="M191.728,29.112l4.084-10.636h1.517l4.353,10.636h-1.603l-1.241-3.221h-4.447l-1.168,3.221H191.728z
		 M194.797,24.745h3.605l-1.109-2.945c-0.339-0.895-0.591-1.631-0.755-2.206c-0.136,0.683-0.326,1.359-0.573,2.031L194.797,24.745z"
		/>
	<path fill="#154A8B" d="M201.692,29.112V18.477h1.443l5.587,8.351v-8.351h1.349v10.636h-1.443l-5.586-8.357v8.357H201.692z"/>
	<path fill="#154A8B" d="M214.044,29.112v-9.381h-3.504v-1.255h8.43v1.255h-3.519v9.381H214.044z"/>
	<path fill="#154A8B" d="M218.146,29.112l4.084-10.636h1.517l4.353,10.636h-1.603l-1.241-3.221h-4.447l-1.168,3.221H218.146z
		 M221.215,24.745h3.605l-1.109-2.945c-0.339-0.895-0.591-1.631-0.755-2.206c-0.136,0.683-0.326,1.359-0.573,2.031L221.215,24.745z"
		/>
	<path fill="#154A8B" d="M228.081,29.112V18.477h2.118l2.518,7.53c0.232,0.701,0.401,1.227,0.508,1.574
		c0.121-0.387,0.31-0.955,0.566-1.705l2.546-7.399h1.894v10.636h-1.356V20.21l-3.091,8.902h-1.27l-3.076-9.055v9.055H228.081z"/>
	<path fill="#154A8B" d="M239.642,29.112V18.477h1.407v10.636H239.642z"/>
	<path fill="#154A8B" d="M242.46,29.112V18.477h7.689v1.255h-6.282v3.258h5.884v1.248h-5.884v3.62h6.529v1.255H242.46z"/>
	<path fill="#154A8B" d="M251.227,29.112V18.477h1.443l5.587,8.351v-8.351h1.349v10.636h-1.443l-5.586-8.357v8.357H251.227z"/>
	<path fill="#154A8B" d="M263.579,29.112v-9.381h-3.504v-1.255h8.43v1.255h-3.519v9.381H263.579z"/>
	<path fill="#154A8B" d="M268.421,23.933c0-1.766,0.475-3.148,1.423-4.146c0.947-0.998,2.171-1.498,3.671-1.498
		c0.981,0,1.866,0.234,2.655,0.703c0.788,0.47,1.389,1.124,1.803,1.963c0.413,0.84,0.62,1.791,0.62,2.855
		c0,1.078-0.218,2.043-0.653,2.895c-0.435,0.852-1.052,1.495-1.85,1.934c-0.798,0.438-1.659,0.656-2.583,0.656
		c-1.001,0-1.896-0.242-2.685-0.726c-0.788-0.483-1.385-1.144-1.791-1.981C268.624,25.751,268.421,24.866,268.421,23.933z
		 M269.872,23.954c0,1.281,0.345,2.291,1.034,3.029c0.689,0.737,1.554,1.105,2.594,1.105c1.059,0,1.931-0.372,2.615-1.117
		c0.685-0.744,1.026-1.801,1.026-3.17c0-0.865-0.146-1.621-0.438-2.268c-0.293-0.646-0.721-1.146-1.284-1.502
		s-1.196-0.533-1.897-0.533c-0.996,0-1.854,0.343-2.572,1.027C270.231,21.21,269.872,22.353,269.872,23.954z"/>
</g>
</svg>