<?xml version="1.0" encoding="utf-8"?>
<!-- Generator: Adobe Illustrator 17.0.0, SVG Export Plug-In . SVG Version: 6.00 Build 0)  -->
<!DOCTYPE svg PUBLIC "-//W3C//DTD SVG 1.1//EN" "http://www.w3.org/Graphics/SVG/1.1/DTD/svg11.dtd" [
	<!ENTITY ns_extend "http://ns.adobe.com/Extensibility/1.0/">
	<!ENTITY ns_ai "http://ns.adobe.com/AdobeIllustrator/10.0/">
	<!ENTITY ns_graphs "http://ns.adobe.com/Graphs/1.0/">
	<!ENTITY ns_vars "http://ns.adobe.com/Variables/1.0/">
	<!ENTITY ns_imrep "http://ns.adobe.com/ImageReplacement/1.0/">
	<!ENTITY ns_sfw "http://ns.adobe.com/SaveForWeb/1.0/">
	<!ENTITY ns_custom "http://ns.adobe.com/GenericCustomNamespace/1.0/">
	<!ENTITY ns_adobe_xpath "http://ns.adobe.com/XPath/1.0/">
]>
<svg version="1.1" id="Capa_1" xmlns:x="&ns_extend;" xmlns:i="&ns_ai;" xmlns:graph="&ns_graphs;"
	 xmlns="http://www.w3.org/2000/svg" xmlns:xlink="http://www.w3.org/1999/xlink" x="0px" y="0px" width="925.724px"
	 height="36.08px" viewBox="0 0 925.724 36.08" enable-background="new 0 0 925.724 36.08" xml:space="preserve">
<metadata>
	<sfw  xmlns="&ns_sfw;">
		<slices></slices>
		<sliceSourceBounds  width="925.724" height="35.557" x="4.638" y="662.983" bottomLeftOrigin="true"></sliceSourceBounds>
	</sfw>
</metadata>
<g>
	<rect x="0" y="0" fill="#C7C6C6" width="37.777" height="35.557"/>
	<g>
		<g>
			<rect x="38.277" y="0.5" fill="#FFCD07" width="886.946" height="34.557"/>
			<path fill="#000101" d="M924.724,1v33.557H38.777V1H924.724 M925.724,0H37.777v35.557h887.946V0H925.724z"/>
		</g>
	</g>
</g>
<g>
	<g>
		<path fill="#000101" d="M44.473,26.074V5.068h11.821V6.87h-9.932v7.808h8.042v1.802h-8.042v7.793h9.932v1.802L44.473,26.074
			L44.473,26.074z"/>
		<path fill="#000101" d="M64.761,26.074c-0.547,0-1.062-0.103-1.545-0.308s-0.903-0.488-1.26-0.85s-0.64-0.781-0.85-1.26
			s-0.315-0.991-0.315-1.538v-9.331h-2.695v-1.714h2.695V7.469l1.802-0.293v3.896h3.809v1.714h-3.809v9.419
			c0,0.303,0.056,0.584,0.168,0.842c0.112,0.26,0.266,0.486,0.461,0.682s0.425,0.35,0.688,0.461c0.264,0.113,0.547,0.169,0.85,0.169
			h1.641v1.714h-1.64V26.074z"/>
		<path fill="#000101" d="M79.131,26.074l-0.996-1.494c-0.41,0.537-0.923,0.969-1.538,1.297c-0.615,0.326-1.289,0.49-2.021,0.49
			h-0.454c-0.605,0-1.177-0.115-1.714-0.344c-0.537-0.23-1.006-0.545-1.406-0.945s-0.715-0.869-0.945-1.406
			s-0.344-1.108-0.344-1.714v-0.146c0-0.605,0.115-1.177,0.344-1.714s0.544-1.006,0.945-1.406s0.869-0.715,1.406-0.945
			c0.537-0.229,1.108-0.344,1.714-0.344h3.809v-2.314c0-0.361-0.068-0.701-0.205-1.018c-0.137-0.318-0.322-0.594-0.557-0.828
			s-0.51-0.42-0.828-0.557s-0.657-0.205-1.018-0.205h-1.055c-0.361,0-0.701,0.068-1.018,0.205s-0.593,0.322-0.828,0.557
			s-0.42,0.51-0.557,0.828c-0.137,0.316-0.205,0.656-0.205,1.018v0.542l-1.802-0.293V15.19c0-0.605,0.115-1.177,0.344-1.714
			s0.544-1.006,0.945-1.406c0.4-0.4,0.869-0.715,1.406-0.945c0.537-0.229,1.108-0.344,1.714-0.344h1.055
			c0.605,0,1.177,0.115,1.714,0.344c0.537,0.23,1.006,0.545,1.406,0.945s0.715,0.869,0.945,1.406s0.344,1.108,0.344,1.714v10.884
			C79.731,26.074,79.131,26.074,79.131,26.074z M77.93,18.809h-3.809c-0.361,0-0.701,0.068-1.018,0.205s-0.593,0.324-0.828,0.564
			c-0.234,0.238-0.42,0.518-0.557,0.834c-0.137,0.318-0.205,0.657-0.205,1.019v0.63c0,0.361,0.068,0.701,0.205,1.018
			c0.137,0.318,0.322,0.594,0.557,0.828s0.51,0.42,0.828,0.557s0.657,0.205,1.018,0.205h1.201c0.361,0,0.701-0.068,1.018-0.205
			s0.593-0.322,0.828-0.557s0.42-0.51,0.557-0.828c0.137-0.316,0.205-0.656,0.205-1.018V18.809z"/>
		<path fill="#000101" d="M93.011,23.672c-0.229,0.537-0.544,1.006-0.945,1.406s-0.869,0.715-1.406,0.945
			c-0.537,0.229-1.108,0.344-1.714,0.344h-0.454c-0.674,0-1.299-0.137-1.875-0.41s-1.069-0.654-1.479-1.143v7.266h-1.802V11.074
			h0.601l0.981,1.523c0.41-0.557,0.925-0.998,1.545-1.326c0.62-0.326,1.296-0.49,2.029-0.49h0.454c0.605,0,1.177,0.115,1.714,0.344
			c0.537,0.23,1.006,0.545,1.406,0.945s0.715,0.869,0.945,1.406s0.344,1.108,0.344,1.714v6.768
			C93.355,22.564,93.24,23.135,93.011,23.672z M91.553,15.088c0-0.361-0.068-0.701-0.205-1.018
			c-0.137-0.318-0.322-0.594-0.557-0.828s-0.51-0.42-0.828-0.557s-0.657-0.205-1.018-0.205h-1.201c-0.361,0-0.701,0.068-1.018,0.205
			s-0.593,0.322-0.828,0.557s-0.42,0.51-0.557,0.828c-0.137,0.316-0.205,0.656-0.205,1.018v6.973c0,0.361,0.068,0.701,0.205,1.018
			c0.137,0.318,0.322,0.594,0.557,0.828s0.51,0.42,0.828,0.557s0.657,0.205,1.018,0.205h1.201c0.361,0,0.701-0.068,1.018-0.205
			s0.593-0.322,0.828-0.557s0.42-0.51,0.557-0.828c0.137-0.316,0.205-0.656,0.205-1.018V15.088z"/>
		<path fill="#000101" d="M106.377,26.074l-0.996-1.494c-0.41,0.537-0.923,0.969-1.538,1.297c-0.615,0.326-1.289,0.49-2.021,0.49
			h-0.454c-0.605,0-1.177-0.115-1.714-0.344c-0.537-0.23-1.006-0.545-1.406-0.945s-0.715-0.869-0.945-1.406
			s-0.344-1.108-0.344-1.714v-0.146c0-0.605,0.115-1.177,0.344-1.714s0.544-1.006,0.945-1.406s0.869-0.715,1.406-0.945
			c0.537-0.229,1.108-0.344,1.714-0.344h3.809v-2.314c0-0.361-0.068-0.701-0.205-1.018c-0.137-0.318-0.322-0.594-0.557-0.828
			s-0.51-0.42-0.828-0.557s-0.657-0.205-1.018-0.205h-1.055c-0.361,0-0.701,0.068-1.018,0.205s-0.593,0.322-0.828,0.557
			s-0.42,0.51-0.557,0.828c-0.137,0.316-0.205,0.656-0.205,1.018v0.542l-1.802-0.293V15.19c0-0.605,0.115-1.177,0.344-1.714
			s0.544-1.006,0.945-1.406c0.4-0.4,0.869-0.715,1.406-0.945c0.537-0.229,1.108-0.344,1.714-0.344h1.055
			c0.605,0,1.177,0.115,1.714,0.344c0.537,0.23,1.006,0.545,1.406,0.945s0.715,0.869,0.945,1.406s0.344,1.108,0.344,1.714v10.884
			C106.977,26.074,106.377,26.074,106.377,26.074z M105.176,18.809h-3.809c-0.361,0-0.701,0.068-1.018,0.205
			s-0.593,0.324-0.828,0.564c-0.234,0.238-0.42,0.518-0.557,0.834c-0.137,0.318-0.205,0.657-0.205,1.019v0.63
			c0,0.361,0.068,0.701,0.205,1.018c0.137,0.318,0.322,0.594,0.557,0.828s0.51,0.42,0.828,0.557s0.657,0.205,1.018,0.205h1.201
			c0.361,0,0.701-0.068,1.018-0.205s0.593-0.322,0.828-0.557s0.42-0.51,0.557-0.828c0.137-0.316,0.205-0.656,0.205-1.018V18.809z"/>
		<path fill="#000101" d="M120.894,22.266c0,0.605-0.122,1.16-0.366,1.662c-0.244,0.504-0.576,0.936-0.996,1.297
			s-0.906,0.643-1.458,0.842c-0.552,0.201-1.13,0.301-1.736,0.301h-1.201c-0.605,0-1.184-0.115-1.736-0.344
			c-0.552-0.23-1.035-0.545-1.45-0.945s-0.747-0.869-0.996-1.406s-0.374-1.108-0.374-1.714v-0.601l1.802-0.293v0.996
			c0,0.361,0.076,0.701,0.227,1.018c0.151,0.318,0.354,0.594,0.608,0.828s0.547,0.42,0.879,0.557s0.679,0.205,1.04,0.205h1.201
			c0.361,0,0.708-0.054,1.04-0.161s0.627-0.261,0.886-0.462c0.259-0.199,0.464-0.441,0.615-0.725s0.227-0.605,0.227-0.967
			c0-0.537-0.117-0.977-0.352-1.318s-0.544-0.627-0.93-0.857c-0.386-0.229-0.825-0.42-1.318-0.57
			c-0.493-0.152-0.999-0.303-1.516-0.455c-0.518-0.15-1.023-0.324-1.516-0.52s-0.933-0.451-1.318-0.77
			c-0.386-0.316-0.696-0.715-0.93-1.193s-0.352-1.074-0.352-1.787c0-0.605,0.117-1.16,0.352-1.662
			c0.234-0.504,0.552-0.936,0.952-1.297c0.4-0.361,0.867-0.643,1.399-0.842c0.532-0.201,1.101-0.301,1.707-0.301h1.055
			c0.605,0,1.177,0.115,1.714,0.344c0.537,0.23,1.006,0.545,1.406,0.945c0.4,0.4,0.715,0.869,0.945,1.406s0.344,1.108,0.344,1.714
			v0.059l-1.802,0.293v-0.454c0-0.361-0.068-0.701-0.205-1.018c-0.137-0.318-0.322-0.594-0.557-0.828s-0.51-0.42-0.828-0.557
			s-0.657-0.205-1.018-0.205h-1.055c-0.361,0-0.701,0.054-1.018,0.161s-0.593,0.261-0.828,0.462
			c-0.234,0.199-0.42,0.441-0.557,0.725s-0.205,0.605-0.205,0.967c0,0.518,0.117,0.939,0.352,1.268
			c0.234,0.326,0.544,0.603,0.93,0.827s0.825,0.413,1.318,0.563c0.493,0.152,0.996,0.309,1.509,0.469
			c0.513,0.162,1.016,0.345,1.509,0.55s0.933,0.469,1.318,0.791s0.696,0.726,0.93,1.208
			C120.777,20.955,120.894,21.553,120.894,22.266z"/>
		<path fill="#000101" d="M140.926,23.672c-0.229,0.537-0.544,1.006-0.945,1.406s-0.869,0.715-1.406,0.945
			c-0.537,0.229-1.108,0.344-1.714,0.344h-0.454c-0.674,0-1.299-0.137-1.875-0.41s-1.069-0.654-1.479-1.143v7.266h-1.802V11.074
			h0.601l0.981,1.523c0.41-0.557,0.925-0.998,1.545-1.326c0.62-0.326,1.296-0.49,2.029-0.49h0.454c0.605,0,1.177,0.115,1.714,0.344
			c0.537,0.23,1.006,0.545,1.406,0.945c0.4,0.4,0.715,0.869,0.945,1.406s0.344,1.108,0.344,1.714v6.768
			C141.27,22.564,141.155,23.135,140.926,23.672z M139.468,15.088c0-0.361-0.068-0.701-0.205-1.018
			c-0.137-0.318-0.322-0.594-0.557-0.828s-0.51-0.42-0.828-0.557s-0.657-0.205-1.018-0.205h-1.201c-0.361,0-0.701,0.068-1.018,0.205
			s-0.593,0.322-0.828,0.557s-0.42,0.51-0.557,0.828c-0.137,0.316-0.205,0.656-0.205,1.018v6.973c0,0.361,0.068,0.701,0.205,1.018
			c0.137,0.318,0.322,0.594,0.557,0.828s0.51,0.42,0.828,0.557s0.657,0.205,1.018,0.205h1.201c0.361,0,0.701-0.068,1.018-0.205
			s0.593-0.322,0.828-0.557s0.42-0.51,0.557-0.828c0.137-0.316,0.205-0.656,0.205-1.018V15.088z"/>
		<path fill="#000101" d="M154.292,26.074l-0.996-1.494c-0.41,0.537-0.923,0.969-1.538,1.297c-0.615,0.326-1.289,0.49-2.021,0.49
			h-0.454c-0.605,0-1.177-0.115-1.714-0.344c-0.537-0.23-1.006-0.545-1.406-0.945s-0.715-0.869-0.945-1.406
			s-0.344-1.108-0.344-1.714v-0.146c0-0.605,0.115-1.177,0.344-1.714s0.544-1.006,0.945-1.406s0.869-0.715,1.406-0.945
			c0.537-0.229,1.108-0.344,1.714-0.344h3.809v-2.314c0-0.361-0.068-0.701-0.205-1.018c-0.137-0.318-0.322-0.594-0.557-0.828
			s-0.51-0.42-0.828-0.557s-0.657-0.205-1.018-0.205h-1.055c-0.361,0-0.701,0.068-1.018,0.205s-0.593,0.322-0.828,0.557
			s-0.42,0.51-0.557,0.828c-0.137,0.316-0.205,0.656-0.205,1.018v0.542l-1.802-0.293V15.19c0-0.605,0.115-1.177,0.344-1.714
			s0.544-1.006,0.945-1.406c0.4-0.4,0.869-0.715,1.406-0.945c0.537-0.229,1.108-0.344,1.714-0.344h1.055
			c0.605,0,1.177,0.115,1.714,0.344c0.537,0.23,1.006,0.545,1.406,0.945c0.4,0.4,0.715,0.869,0.945,1.406s0.344,1.108,0.344,1.714
			v10.884C154.892,26.074,154.292,26.074,154.292,26.074z M153.091,18.809h-3.809c-0.361,0-0.701,0.068-1.018,0.205
			s-0.593,0.324-0.828,0.564c-0.234,0.238-0.42,0.518-0.557,0.834c-0.137,0.318-0.205,0.657-0.205,1.019v0.63
			c0,0.361,0.068,0.701,0.205,1.018c0.137,0.318,0.322,0.594,0.557,0.828s0.51,0.42,0.828,0.557s0.657,0.205,1.018,0.205h1.201
			c0.361,0,0.701-0.068,1.018-0.205s0.593-0.322,0.828-0.557s0.42-0.51,0.557-0.828c0.137-0.316,0.205-0.656,0.205-1.018
			L153.091,18.809L153.091,18.809z"/>
		<path fill="#000101" d="M162.906,12.788c-0.361,0-0.701,0.068-1.018,0.205s-0.593,0.322-0.828,0.557s-0.42,0.511-0.557,0.827
			c-0.137,0.318-0.205,0.657-0.205,1.019v10.679h-1.802v-15h0.601l0.981,1.523c0.41-0.557,0.925-0.998,1.545-1.326
			c0.62-0.326,1.296-0.49,2.029-0.49h1.055v2.007h-1.801V12.788z"/>
		<path fill="#000101" d="M176.529,26.074l-0.996-1.494c-0.41,0.537-0.923,0.969-1.538,1.297c-0.615,0.326-1.289,0.49-2.021,0.49
			h-0.454c-0.605,0-1.177-0.115-1.714-0.344c-0.537-0.23-1.006-0.545-1.406-0.945s-0.715-0.869-0.945-1.406
			s-0.344-1.108-0.344-1.714v-0.146c0-0.605,0.115-1.177,0.344-1.714s0.544-1.006,0.945-1.406s0.869-0.715,1.406-0.945
			c0.537-0.229,1.108-0.344,1.714-0.344h3.809v-2.314c0-0.361-0.068-0.701-0.205-1.018c-0.137-0.318-0.322-0.594-0.557-0.828
			s-0.51-0.42-0.828-0.557s-0.657-0.205-1.018-0.205h-1.055c-0.361,0-0.701,0.068-1.018,0.205s-0.593,0.322-0.828,0.557
			s-0.42,0.51-0.557,0.828c-0.137,0.316-0.205,0.656-0.205,1.018v0.542l-1.802-0.293V15.19c0-0.605,0.115-1.177,0.344-1.714
			s0.544-1.006,0.945-1.406c0.4-0.4,0.869-0.715,1.406-0.945c0.537-0.229,1.108-0.344,1.714-0.344h1.055
			c0.605,0,1.177,0.115,1.714,0.344c0.537,0.23,1.006,0.545,1.406,0.945c0.4,0.4,0.715,0.869,0.945,1.406s0.344,1.108,0.344,1.714
			v10.884C177.129,26.074,176.529,26.074,176.529,26.074z M175.328,18.809h-3.809c-0.361,0-0.701,0.068-1.018,0.205
			s-0.593,0.324-0.828,0.564c-0.234,0.238-0.42,0.518-0.557,0.834c-0.137,0.318-0.205,0.657-0.205,1.019v0.63
			c0,0.361,0.068,0.701,0.205,1.018c0.137,0.318,0.322,0.594,0.557,0.828s0.51,0.42,0.828,0.557s0.657,0.205,1.018,0.205h1.201
			c0.361,0,0.701-0.068,1.018-0.205s0.593-0.322,0.828-0.557s0.42-0.51,0.557-0.828c0.137-0.316,0.205-0.656,0.205-1.018
			L175.328,18.809L175.328,18.809z"/>
		<path fill="#000101" d="M197.308,23.672c-0.229,0.537-0.544,1.006-0.945,1.406s-0.869,0.715-1.406,0.945
			c-0.537,0.229-1.108,0.344-1.714,0.344h-1.201c-0.605,0-1.177-0.115-1.714-0.344c-0.537-0.23-1.006-0.545-1.406-0.945
			s-0.715-0.869-0.945-1.406s-0.344-1.108-0.344-1.714V15.19c0-0.605,0.115-1.177,0.344-1.714s0.544-1.006,0.945-1.406
			c0.4-0.4,0.869-0.715,1.406-0.945c0.537-0.229,1.108-0.344,1.714-0.344h1.201c0.605,0,1.177,0.115,1.714,0.344
			c0.537,0.23,1.006,0.545,1.406,0.945c0.4,0.4,0.715,0.869,0.945,1.406s0.344,1.108,0.344,1.714v3.53h-8.218v3.34
			c0,0.361,0.068,0.701,0.205,1.018c0.137,0.318,0.322,0.594,0.557,0.828s0.51,0.42,0.828,0.557s0.657,0.205,1.018,0.205h1.201
			c0.361,0,0.701-0.068,1.018-0.205s0.593-0.322,0.828-0.557s0.42-0.51,0.557-0.828c0.137-0.316,0.205-0.656,0.205-1.018v-0.996
			l1.802,0.293v0.601C197.652,22.564,197.537,23.135,197.308,23.672z M195.85,15.088c0-0.361-0.068-0.701-0.205-1.018
			c-0.137-0.318-0.322-0.594-0.557-0.828s-0.51-0.42-0.828-0.557s-0.657-0.205-1.018-0.205h-1.201c-0.361,0-0.701,0.068-1.018,0.205
			s-0.593,0.322-0.828,0.557s-0.42,0.51-0.557,0.828c-0.137,0.316-0.205,0.656-0.205,1.018v2.227h6.416v-2.227H195.85z"/>
		<path fill="#000101" d="M211.568,22.266c0,0.605-0.122,1.16-0.366,1.662c-0.244,0.504-0.576,0.936-0.996,1.297
			s-0.906,0.643-1.458,0.842c-0.552,0.201-1.13,0.301-1.736,0.301h-1.201c-0.605,0-1.184-0.115-1.736-0.344
			c-0.552-0.23-1.035-0.545-1.45-0.945s-0.747-0.869-0.996-1.406s-0.374-1.108-0.374-1.714v-0.601l1.802-0.293v0.996
			c0,0.361,0.076,0.701,0.227,1.018c0.151,0.318,0.354,0.594,0.608,0.828s0.547,0.42,0.879,0.557s0.679,0.205,1.04,0.205h1.201
			c0.361,0,0.708-0.054,1.04-0.161s0.627-0.261,0.886-0.462c0.259-0.199,0.464-0.441,0.615-0.725s0.227-0.605,0.227-0.967
			c0-0.537-0.117-0.977-0.352-1.318s-0.544-0.627-0.93-0.857c-0.386-0.229-0.825-0.42-1.318-0.57
			c-0.493-0.152-0.999-0.303-1.516-0.455c-0.518-0.15-1.023-0.324-1.516-0.52s-0.933-0.451-1.318-0.77
			c-0.386-0.316-0.696-0.715-0.93-1.193s-0.352-1.074-0.352-1.787c0-0.605,0.117-1.16,0.352-1.662
			c0.234-0.504,0.552-0.936,0.952-1.297c0.4-0.361,0.867-0.643,1.399-0.842c0.532-0.201,1.101-0.301,1.707-0.301h1.055
			c0.605,0,1.177,0.115,1.714,0.344c0.537,0.23,1.006,0.545,1.406,0.945c0.4,0.4,0.715,0.869,0.945,1.406s0.344,1.108,0.344,1.714
			v0.059l-1.802,0.293v-0.454c0-0.361-0.068-0.701-0.205-1.018c-0.137-0.318-0.322-0.594-0.557-0.828s-0.51-0.42-0.828-0.557
			s-0.657-0.205-1.018-0.205h-1.055c-0.361,0-0.701,0.054-1.018,0.161s-0.593,0.261-0.828,0.462
			c-0.234,0.199-0.42,0.441-0.557,0.725s-0.205,0.605-0.205,0.967c0,0.518,0.117,0.939,0.352,1.268
			c0.234,0.326,0.544,0.603,0.93,0.827s0.825,0.413,1.318,0.563c0.493,0.152,0.996,0.309,1.509,0.469
			c0.513,0.162,1.016,0.345,1.509,0.55s0.933,0.469,1.318,0.791s0.696,0.726,0.93,1.208
			C211.451,20.955,211.568,21.553,211.568,22.266z"/>
		<path fill="#000101" d="M224.7,23.672c-0.229,0.537-0.544,1.006-0.945,1.406s-0.869,0.715-1.406,0.945
			c-0.537,0.229-1.108,0.344-1.714,0.344h-0.454c-0.674,0-1.299-0.137-1.875-0.41s-1.069-0.654-1.479-1.143v7.266h-1.802V11.074
			h0.601l0.981,1.523c0.41-0.557,0.925-0.998,1.545-1.326c0.62-0.326,1.296-0.49,2.029-0.49h0.454c0.605,0,1.177,0.115,1.714,0.344
			c0.537,0.23,1.006,0.545,1.406,0.945c0.4,0.4,0.715,0.869,0.945,1.406s0.344,1.108,0.344,1.714v6.768
			C225.044,22.564,224.93,23.135,224.7,23.672z M223.243,15.088c0-0.361-0.068-0.701-0.205-1.018
			c-0.137-0.318-0.322-0.594-0.557-0.828s-0.51-0.42-0.828-0.557s-0.657-0.205-1.018-0.205h-1.201c-0.361,0-0.701,0.068-1.018,0.205
			s-0.593,0.322-0.828,0.557s-0.42,0.51-0.557,0.828c-0.137,0.316-0.205,0.656-0.205,1.018v6.973c0,0.361,0.068,0.701,0.205,1.018
			c0.137,0.318,0.322,0.594,0.557,0.828s0.51,0.42,0.828,0.557s0.657,0.205,1.018,0.205h1.201c0.361,0,0.701-0.068,1.018-0.205
			s0.593-0.322,0.828-0.557s0.42-0.51,0.557-0.828c0.137-0.316,0.205-0.656,0.205-1.018V15.088z"/>
		<path fill="#000101" d="M238.323,23.672c-0.229,0.537-0.544,1.006-0.945,1.406s-0.869,0.715-1.406,0.945
			c-0.537,0.229-1.108,0.344-1.714,0.344h-1.201c-0.605,0-1.177-0.115-1.714-0.344c-0.537-0.23-1.006-0.545-1.406-0.945
			s-0.715-0.869-0.945-1.406s-0.344-1.108-0.344-1.714V15.19c0-0.605,0.115-1.177,0.344-1.714s0.544-1.006,0.945-1.406
			c0.4-0.4,0.869-0.715,1.406-0.945c0.537-0.229,1.108-0.344,1.714-0.344h1.201c0.605,0,1.177,0.115,1.714,0.344
			c0.537,0.23,1.006,0.545,1.406,0.945c0.4,0.4,0.715,0.869,0.945,1.406s0.344,1.108,0.344,1.714v3.53h-8.218v3.34
			c0,0.361,0.068,0.701,0.205,1.018c0.137,0.318,0.322,0.594,0.557,0.828s0.51,0.42,0.828,0.557s0.657,0.205,1.018,0.205h1.201
			c0.361,0,0.701-0.068,1.018-0.205s0.593-0.322,0.828-0.557s0.42-0.51,0.557-0.828c0.137-0.316,0.205-0.656,0.205-1.018v-0.996
			l1.802,0.293v0.601C238.667,22.564,238.553,23.135,238.323,23.672z M236.866,15.088c0-0.361-0.068-0.701-0.205-1.018
			c-0.137-0.318-0.322-0.594-0.557-0.828s-0.51-0.42-0.828-0.557s-0.657-0.205-1.018-0.205h-1.201c-0.361,0-0.701,0.068-1.018,0.205
			s-0.593,0.322-0.828,0.557s-0.42,0.51-0.557,0.828c-0.137,0.316-0.205,0.656-0.205,1.018v2.227h6.416v-2.227H236.866z"/>
		<path fill="#000101" d="M251.946,23.672c-0.229,0.537-0.544,1.006-0.945,1.406s-0.869,0.715-1.406,0.945
			c-0.537,0.229-1.108,0.344-1.714,0.344h-1.201c-0.605,0-1.177-0.115-1.714-0.344c-0.537-0.23-1.006-0.545-1.406-0.945
			s-0.715-0.869-0.945-1.406s-0.344-1.108-0.344-1.714V15.19c0-0.605,0.115-1.177,0.344-1.714s0.544-1.006,0.945-1.406
			c0.4-0.4,0.869-0.715,1.406-0.945c0.537-0.229,1.108-0.344,1.714-0.344h1.201c0.605,0,1.177,0.115,1.714,0.344
			c0.537,0.23,1.006,0.545,1.406,0.945c0.4,0.4,0.715,0.869,0.945,1.406s0.344,1.108,0.344,1.714v0.601l-1.802,0.293v-0.996
			c0-0.361-0.068-0.701-0.205-1.018c-0.137-0.318-0.322-0.594-0.557-0.828s-0.51-0.42-0.828-0.557s-0.657-0.205-1.018-0.205h-1.201
			c-0.361,0-0.701,0.068-1.018,0.205s-0.593,0.322-0.828,0.557s-0.42,0.51-0.557,0.828c-0.137,0.316-0.205,0.656-0.205,1.018v6.973
			c0,0.361,0.068,0.701,0.205,1.018c0.137,0.318,0.322,0.594,0.557,0.828s0.51,0.42,0.828,0.557s0.657,0.205,1.018,0.205h1.201
			c0.361,0,0.701-0.068,1.018-0.205s0.593-0.322,0.828-0.557s0.42-0.51,0.557-0.828c0.137-0.316,0.205-0.656,0.205-1.018v-0.996
			l1.802,0.293v0.601C252.29,22.564,252.176,23.135,251.946,23.672z"/>
		<path fill="#000101" d="M256.348,7.471V5.068h2.095V7.47h-2.095V7.471z M256.495,26.074v-15h1.802v15H256.495z"/>
		<path fill="#000101" d="M267.657,6.782c-0.303,0-0.583,0.056-0.842,0.169c-0.259,0.111-0.486,0.266-0.681,0.461
			s-0.349,0.425-0.461,0.688s-0.168,0.547-0.168,0.85v2.124h3.501v1.714h-3.501v13.286h-1.802V12.788h-2.71v-1.714h2.71V9.038
			c0-0.547,0.103-1.062,0.308-1.546c0.205-0.482,0.488-0.905,0.85-1.267s0.781-0.645,1.26-0.85s0.991-0.308,1.538-0.308h1.655v1.714
			L267.657,6.782L267.657,6.782z"/>
		<path fill="#000101" d="M271.568,7.471V5.068h2.095V7.47h-2.095V7.471z M271.714,26.074v-15h1.802v15H271.714z"/>
		<path fill="#000101" d="M287.395,23.672c-0.229,0.537-0.544,1.006-0.945,1.406s-0.869,0.715-1.406,0.945
			c-0.537,0.229-1.108,0.344-1.714,0.344h-1.201c-0.605,0-1.177-0.115-1.714-0.344c-0.537-0.23-1.006-0.545-1.406-0.945
			s-0.715-0.869-0.945-1.406s-0.344-1.108-0.344-1.714V15.19c0-0.605,0.115-1.177,0.344-1.714s0.544-1.006,0.945-1.406
			c0.4-0.4,0.869-0.715,1.406-0.945c0.537-0.229,1.108-0.344,1.714-0.344h1.201c0.605,0,1.177,0.115,1.714,0.344
			c0.537,0.23,1.006,0.545,1.406,0.945s0.715,0.869,0.945,1.406s0.344,1.108,0.344,1.714v0.601l-1.802,0.293v-0.996
			c0-0.361-0.068-0.701-0.205-1.018c-0.137-0.318-0.322-0.594-0.557-0.828s-0.51-0.42-0.828-0.557s-0.657-0.205-1.018-0.205h-1.201
			c-0.361,0-0.701,0.068-1.018,0.205s-0.593,0.322-0.828,0.557s-0.42,0.51-0.557,0.828c-0.137,0.316-0.205,0.656-0.205,1.018v6.973
			c0,0.361,0.068,0.701,0.205,1.018c0.137,0.318,0.322,0.594,0.557,0.828s0.51,0.42,0.828,0.557s0.657,0.205,1.018,0.205h1.201
			c0.361,0,0.701-0.068,1.018-0.205s0.593-0.322,0.828-0.557s0.42-0.51,0.557-0.828c0.137-0.316,0.205-0.656,0.205-1.018v-0.996
			l1.802,0.293v0.601C287.74,22.564,287.625,23.135,287.395,23.672z"/>
		<path fill="#000101" d="M300.762,26.074l-0.996-1.494c-0.41,0.537-0.923,0.969-1.538,1.297c-0.615,0.326-1.289,0.49-2.021,0.49
			h-0.454c-0.605,0-1.177-0.115-1.714-0.344c-0.537-0.23-1.006-0.545-1.406-0.945s-0.715-0.869-0.945-1.406
			s-0.344-1.108-0.344-1.714v-0.146c0-0.605,0.115-1.177,0.344-1.714s0.544-1.006,0.945-1.406s0.869-0.715,1.406-0.945
			c0.537-0.229,1.108-0.344,1.714-0.344h3.809v-2.314c0-0.361-0.068-0.701-0.205-1.018c-0.137-0.318-0.322-0.594-0.557-0.828
			s-0.51-0.42-0.828-0.557s-0.657-0.205-1.018-0.205h-1.055c-0.361,0-0.701,0.068-1.018,0.205s-0.593,0.322-0.828,0.557
			s-0.42,0.51-0.557,0.828c-0.137,0.316-0.205,0.656-0.205,1.018v0.542l-1.802-0.293V15.19c0-0.605,0.115-1.177,0.344-1.714
			s0.544-1.006,0.945-1.406c0.4-0.4,0.869-0.715,1.406-0.945c0.537-0.229,1.108-0.344,1.714-0.344h1.055
			c0.605,0,1.177,0.115,1.714,0.344c0.537,0.23,1.006,0.545,1.406,0.945s0.715,0.869,0.945,1.406s0.344,1.108,0.344,1.714v10.884
			C301.362,26.074,300.762,26.074,300.762,26.074z M299.561,18.809h-3.809c-0.361,0-0.701,0.068-1.018,0.205
			s-0.593,0.324-0.828,0.564c-0.234,0.238-0.42,0.518-0.557,0.834c-0.137,0.318-0.205,0.657-0.205,1.019v0.63
			c0,0.361,0.068,0.701,0.205,1.018c0.137,0.318,0.322,0.594,0.557,0.828s0.51,0.42,0.828,0.557s0.657,0.205,1.018,0.205h1.201
			c0.361,0,0.701-0.068,1.018-0.205s0.593-0.322,0.828-0.557s0.42-0.51,0.557-0.828c0.137-0.316,0.205-0.656,0.205-1.018V18.809z"/>
		<path fill="#000101" d="M314.642,23.672c-0.229,0.537-0.544,1.006-0.945,1.406s-0.869,0.715-1.406,0.945
			c-0.537,0.229-1.108,0.344-1.714,0.344h-1.201c-0.605,0-1.177-0.115-1.714-0.344c-0.537-0.23-1.006-0.545-1.406-0.945
			s-0.715-0.869-0.945-1.406s-0.344-1.108-0.344-1.714V15.19c0-0.605,0.115-1.177,0.344-1.714s0.544-1.006,0.945-1.406
			c0.4-0.4,0.869-0.715,1.406-0.945c0.537-0.229,1.108-0.344,1.714-0.344h1.201c0.605,0,1.177,0.115,1.714,0.344
			c0.537,0.23,1.006,0.545,1.406,0.945s0.715,0.869,0.945,1.406s0.344,1.108,0.344,1.714v0.601l-1.802,0.293v-0.996
			c0-0.361-0.068-0.701-0.205-1.018c-0.137-0.318-0.322-0.594-0.557-0.828s-0.51-0.42-0.828-0.557s-0.657-0.205-1.018-0.205h-1.201
			c-0.361,0-0.701,0.068-1.018,0.205s-0.593,0.322-0.828,0.557s-0.42,0.51-0.557,0.828c-0.137,0.316-0.205,0.656-0.205,1.018v6.973
			c0,0.361,0.068,0.701,0.205,1.018c0.137,0.318,0.322,0.594,0.557,0.828s0.51,0.42,0.828,0.557s0.657,0.205,1.018,0.205h1.201
			c0.361,0,0.701-0.068,1.018-0.205s0.593-0.322,0.828-0.557s0.42-0.51,0.557-0.828c0.137-0.316,0.205-0.656,0.205-1.018v-0.996
			l1.802,0.293v0.601C314.986,22.564,314.871,23.135,314.642,23.672z"/>
		<path fill="#000101" d="M319.043,7.471V5.068h2.095V7.47h-2.095V7.471z M319.19,26.074v-15h1.802v15H319.19z"/>
		<path fill="#000101" d="M334.871,23.672c-0.229,0.537-0.544,1.006-0.945,1.406s-0.869,0.715-1.406,0.945
			c-0.537,0.229-1.108,0.344-1.714,0.344h-1.201c-0.605,0-1.177-0.115-1.714-0.344c-0.537-0.23-1.006-0.545-1.406-0.945
			s-0.715-0.869-0.945-1.406s-0.344-1.108-0.344-1.714V15.19c0-0.605,0.115-1.177,0.344-1.714s0.544-1.006,0.945-1.406
			c0.4-0.4,0.869-0.715,1.406-0.945c0.537-0.229,1.108-0.344,1.714-0.344h1.201c0.605,0,1.177,0.115,1.714,0.344
			c0.537,0.23,1.006,0.545,1.406,0.945s0.715,0.869,0.945,1.406s0.344,1.108,0.344,1.714v6.768
			C335.215,22.564,335.101,23.135,334.871,23.672z M333.414,15.088c0-0.361-0.068-0.701-0.205-1.018
			c-0.137-0.318-0.322-0.594-0.557-0.828s-0.51-0.42-0.828-0.557s-0.657-0.205-1.018-0.205h-1.201c-0.361,0-0.701,0.068-1.018,0.205
			s-0.593,0.322-0.828,0.557s-0.42,0.51-0.557,0.828c-0.137,0.316-0.205,0.656-0.205,1.018v6.973c0,0.361,0.068,0.701,0.205,1.018
			c0.137,0.318,0.322,0.594,0.557,0.828s0.51,0.42,0.828,0.557s0.657,0.205,1.018,0.205h1.201c0.361,0,0.701-0.068,1.018-0.205
			s0.593-0.322,0.828-0.557s0.42-0.51,0.557-0.828c0.137-0.316,0.205-0.656,0.205-1.018V15.088z M329.458,8.672h-1.348l2.388-3.604
			h3.003L329.458,8.672z"/>
		<path fill="#000101" d="M347.036,26.074V15.088c0-0.361-0.068-0.701-0.205-1.018c-0.137-0.318-0.322-0.594-0.557-0.828
			s-0.51-0.42-0.828-0.557c-0.316-0.137-0.656-0.205-1.018-0.205h-1.201c-0.361,0-0.701,0.068-1.018,0.205
			c-0.318,0.137-0.594,0.322-0.828,0.557s-0.42,0.51-0.557,0.828c-0.136,0.316-0.205,0.656-0.205,1.018v10.986h-1.802v-15h0.601
			l0.981,1.523c0.411-0.557,0.924-0.998,1.545-1.326c0.619-0.326,1.297-0.49,2.029-0.49h0.453c0.605,0,1.178,0.115,1.715,0.344
			c0.537,0.23,1.006,0.545,1.406,0.945s0.715,0.869,0.943,1.406c0.23,0.537,0.346,1.108,0.346,1.714v10.884
			C348.836,26.074,347.036,26.074,347.036,26.074z"/>
		<path fill="#000101" d="M368.76,26.074l-0.996-1.523c-0.41,0.557-0.923,0.998-1.538,1.326c-0.615,0.326-1.289,0.49-2.021,0.49
			h-0.454c-0.605,0-1.177-0.115-1.714-0.344c-0.537-0.23-1.006-0.545-1.406-0.945s-0.716-0.869-0.944-1.406
			c-0.23-0.537-0.345-1.108-0.345-1.714V15.19c0-0.605,0.114-1.177,0.345-1.714c0.229-0.537,0.544-1.006,0.944-1.406
			s0.869-0.715,1.406-0.945c0.537-0.229,1.108-0.344,1.714-0.344h0.454c0.674,0,1.299,0.137,1.875,0.41s1.069,0.654,1.479,1.143
			V5.068h1.802v21.006C369.361,26.074,368.76,26.074,368.76,26.074z M367.559,15.088c0-0.361-0.068-0.701-0.205-1.018
			c-0.137-0.318-0.322-0.594-0.557-0.828s-0.511-0.42-0.828-0.557s-0.656-0.205-1.018-0.205h-1.201
			c-0.361,0-0.701,0.068-1.018,0.205c-0.318,0.137-0.594,0.322-0.828,0.557s-0.42,0.51-0.557,0.828
			c-0.137,0.316-0.205,0.656-0.205,1.018v6.973c0,0.361,0.068,0.701,0.205,1.018c0.137,0.318,0.322,0.594,0.557,0.828
			s0.51,0.42,0.828,0.557c0.316,0.137,0.656,0.205,1.018,0.205h1.201c0.361,0,0.7-0.068,1.018-0.205s0.594-0.322,0.828-0.557
			s0.42-0.51,0.557-0.828c0.137-0.316,0.205-0.656,0.205-1.018V15.088z"/>
		<path fill="#000101" d="M382.639,23.672c-0.229,0.537-0.544,1.006-0.944,1.406s-0.869,0.715-1.406,0.945
			c-0.537,0.229-1.108,0.344-1.714,0.344h-1.201c-0.605,0-1.177-0.115-1.714-0.344c-0.537-0.23-1.006-0.545-1.406-0.945
			s-0.716-0.869-0.944-1.406c-0.23-0.537-0.345-1.108-0.345-1.714V15.19c0-0.605,0.114-1.177,0.345-1.714
			c0.229-0.537,0.544-1.006,0.944-1.406s0.869-0.715,1.406-0.945c0.537-0.229,1.108-0.344,1.714-0.344h1.201
			c0.605,0,1.177,0.115,1.714,0.344c0.537,0.23,1.006,0.545,1.406,0.945s0.715,0.869,0.944,1.406s0.345,1.108,0.345,1.714v3.53
			h-8.218v3.34c0,0.361,0.068,0.701,0.205,1.018c0.137,0.318,0.322,0.594,0.557,0.828s0.51,0.42,0.828,0.557
			c0.316,0.137,0.656,0.205,1.018,0.205h1.201c0.361,0,0.7-0.068,1.018-0.205s0.594-0.322,0.828-0.557s0.42-0.51,0.557-0.828
			c0.137-0.316,0.205-0.656,0.205-1.018v-0.996l1.802,0.293v0.601C382.983,22.564,382.868,23.135,382.639,23.672z M381.182,15.088
			c0-0.361-0.068-0.701-0.205-1.018c-0.137-0.318-0.322-0.594-0.557-0.828s-0.511-0.42-0.828-0.557s-0.656-0.205-1.018-0.205h-1.201
			c-0.361,0-0.701,0.068-1.018,0.205c-0.318,0.137-0.594,0.322-0.828,0.557s-0.42,0.51-0.557,0.828
			c-0.137,0.316-0.205,0.656-0.205,1.018v2.227h6.416v-2.227H381.182z"/>
		<path fill="#000101" d="M397.895,12.788c-0.361,0-0.701,0.068-1.018,0.205c-0.318,0.137-0.594,0.322-0.828,0.557
			s-0.42,0.511-0.557,0.827c-0.137,0.318-0.205,0.657-0.205,1.019v10.679h-1.802v-15h0.601l0.981,1.523
			c0.41-0.557,0.925-0.998,1.546-1.326c0.619-0.326,1.296-0.49,2.028-0.49h1.055v2.007h-1.801V12.788z"/>
		<path fill="#000101" d="M411.774,23.672c-0.229,0.537-0.544,1.006-0.944,1.406s-0.869,0.715-1.406,0.945
			c-0.537,0.229-1.108,0.344-1.714,0.344h-1.201c-0.605,0-1.177-0.115-1.714-0.344c-0.537-0.23-1.006-0.545-1.406-0.945
			s-0.716-0.869-0.944-1.406c-0.23-0.537-0.345-1.108-0.345-1.714V15.19c0-0.605,0.114-1.177,0.345-1.714
			c0.229-0.537,0.544-1.006,0.944-1.406s0.869-0.715,1.406-0.945c0.537-0.229,1.108-0.344,1.714-0.344h1.201
			c0.605,0,1.177,0.115,1.714,0.344c0.537,0.23,1.006,0.545,1.406,0.945s0.715,0.869,0.944,1.406s0.345,1.108,0.345,1.714v3.53
			h-8.218v3.34c0,0.361,0.068,0.701,0.205,1.018c0.137,0.318,0.322,0.594,0.557,0.828s0.51,0.42,0.828,0.557
			c0.316,0.137,0.656,0.205,1.018,0.205h1.201c0.361,0,0.7-0.068,1.018-0.205s0.594-0.322,0.828-0.557s0.42-0.51,0.557-0.828
			c0.137-0.316,0.205-0.656,0.205-1.018v-0.996l1.802,0.293v0.601C412.119,22.564,412.004,23.135,411.774,23.672z M410.317,15.088
			c0-0.361-0.068-0.701-0.205-1.018c-0.137-0.318-0.322-0.594-0.557-0.828s-0.511-0.42-0.828-0.557s-0.656-0.205-1.018-0.205h-1.201
			c-0.361,0-0.701,0.068-1.018,0.205c-0.318,0.137-0.594,0.322-0.828,0.557s-0.42,0.51-0.557,0.828
			c-0.137,0.316-0.205,0.656-0.205,1.018v2.227h6.416v-2.227H410.317z"/>
		<path fill="#000101" d="M423.94,32.08v-7.266c-0.41,0.488-0.903,0.869-1.479,1.143s-1.201,0.41-1.875,0.41h-0.454
			c-0.605,0-1.177-0.115-1.714-0.344c-0.537-0.23-1.006-0.545-1.406-0.945s-0.716-0.869-0.944-1.406
			c-0.23-0.537-0.345-1.108-0.345-1.714V15.19c0-0.605,0.114-1.177,0.345-1.714c0.229-0.537,0.544-1.006,0.944-1.406
			s0.869-0.715,1.406-0.945c0.537-0.229,1.108-0.344,1.714-0.344h0.454c0.732,0,1.406,0.164,2.021,0.49
			c0.615,0.328,1.128,0.77,1.538,1.326l0.996-1.523h0.601V32.08H423.94z M423.94,15.088c0-0.361-0.068-0.701-0.205-1.018
			c-0.137-0.318-0.322-0.594-0.557-0.828s-0.511-0.42-0.828-0.557s-0.656-0.205-1.018-0.205h-1.201
			c-0.361,0-0.701,0.068-1.018,0.205c-0.318,0.137-0.594,0.322-0.828,0.557s-0.42,0.51-0.557,0.828
			c-0.137,0.316-0.205,0.656-0.205,1.018v6.973c0,0.361,0.068,0.701,0.205,1.018c0.137,0.318,0.322,0.594,0.557,0.828
			s0.51,0.42,0.828,0.557c0.316,0.137,0.656,0.205,1.018,0.205h1.201c0.361,0,0.7-0.068,1.018-0.205s0.594-0.322,0.828-0.557
			s0.42-0.51,0.557-0.828c0.137-0.316,0.205-0.656,0.205-1.018V15.088z"/>
		<path fill="#000101" d="M438.765,26.074l-0.996-1.523c-0.41,0.557-0.923,0.998-1.538,1.326c-0.615,0.326-1.289,0.49-2.021,0.49
			h-0.454c-0.605,0-1.177-0.115-1.714-0.344c-0.537-0.23-1.006-0.545-1.406-0.945s-0.716-0.869-0.944-1.406
			c-0.23-0.537-0.345-1.108-0.345-1.714V11.074h1.802V22.06c0,0.361,0.068,0.701,0.205,1.018c0.137,0.318,0.322,0.594,0.557,0.828
			s0.51,0.42,0.828,0.557c0.316,0.137,0.656,0.205,1.018,0.205h1.201c0.361,0,0.7-0.068,1.018-0.205s0.594-0.322,0.828-0.557
			s0.42-0.51,0.557-0.828c0.137-0.316,0.205-0.656,0.205-1.018V11.074h1.802v15C439.368,26.074,438.765,26.074,438.765,26.074z"/>
		<path fill="#000101" d="M452.644,23.672c-0.229,0.537-0.544,1.006-0.944,1.406s-0.869,0.715-1.406,0.945
			c-0.537,0.229-1.108,0.344-1.714,0.344h-1.201c-0.605,0-1.177-0.115-1.714-0.344c-0.537-0.23-1.006-0.545-1.406-0.945
			s-0.716-0.869-0.944-1.406c-0.23-0.537-0.345-1.108-0.345-1.714V15.19c0-0.605,0.114-1.177,0.345-1.714
			c0.229-0.537,0.544-1.006,0.944-1.406s0.869-0.715,1.406-0.945c0.537-0.229,1.108-0.344,1.714-0.344h1.201
			c0.605,0,1.177,0.115,1.714,0.344c0.537,0.23,1.006,0.545,1.406,0.945s0.715,0.869,0.944,1.406s0.345,1.108,0.345,1.714v3.53
			h-8.218v3.34c0,0.361,0.068,0.701,0.205,1.018c0.137,0.318,0.322,0.594,0.557,0.828s0.51,0.42,0.828,0.557
			c0.316,0.137,0.656,0.205,1.018,0.205h1.201c0.361,0,0.7-0.068,1.018-0.205s0.594-0.322,0.828-0.557s0.42-0.51,0.557-0.828
			c0.137-0.316,0.205-0.656,0.205-1.018v-0.996l1.802,0.293v0.601C452.988,22.564,452.873,23.135,452.644,23.672z M451.186,15.088
			c0-0.361-0.068-0.701-0.205-1.018c-0.137-0.318-0.322-0.594-0.557-0.828s-0.511-0.42-0.828-0.557s-0.656-0.205-1.018-0.205h-1.201
			c-0.361,0-0.701,0.068-1.018,0.205c-0.318,0.137-0.594,0.322-0.828,0.557s-0.42,0.51-0.557,0.828
			c-0.137,0.316-0.205,0.656-0.205,1.018v2.227h6.416v-2.227H451.186z"/>
		<path fill="#000101" d="M461.001,12.788c-0.361,0-0.701,0.068-1.018,0.205c-0.318,0.137-0.594,0.322-0.828,0.557
			s-0.42,0.511-0.557,0.827c-0.137,0.318-0.205,0.657-0.205,1.019v10.679h-1.802v-15h0.601l0.981,1.523
			c0.41-0.557,0.925-0.998,1.546-1.326c0.619-0.326,1.296-0.49,2.028-0.49h1.055v2.007h-1.801V12.788z"/>
		<path fill="#000101" d="M465.659,7.471V5.068h2.095V7.47h-2.095V7.471z M465.806,26.074v-15h1.802v15H465.806z"/>
		<path fill="#000101" d="M487.646,26.074V15.088c0-0.361-0.068-0.701-0.205-1.018c-0.137-0.318-0.322-0.594-0.557-0.828
			s-0.511-0.42-0.828-0.557s-0.656-0.205-1.018-0.205h-0.894c-0.361,0-0.701,0.068-1.019,0.205s-0.596,0.322-0.834,0.557
			c-0.24,0.234-0.428,0.51-0.564,0.828c-0.137,0.316-0.205,0.656-0.205,1.018v10.986h-1.787V15.088c0-0.361-0.068-0.701-0.205-1.018
			c-0.137-0.318-0.325-0.594-0.564-0.828s-0.518-0.42-0.834-0.557c-0.318-0.137-0.657-0.205-1.019-0.205h-0.894
			c-0.361,0-0.701,0.068-1.018,0.205c-0.318,0.137-0.594,0.322-0.828,0.557s-0.42,0.51-0.557,0.828
			c-0.137,0.316-0.205,0.656-0.205,1.018v10.986h-1.802v-15h0.601l0.981,1.523c0.41-0.557,0.925-0.998,1.546-1.326
			c0.619-0.326,1.296-0.49,2.028-0.49h0.146c0.85,0,1.616,0.21,2.3,0.63s1.211,0.977,1.582,1.67
			c0.186-0.342,0.415-0.654,0.688-0.938c0.273-0.283,0.576-0.524,0.908-0.726c0.332-0.199,0.693-0.355,1.084-0.469
			c0.391-0.111,0.796-0.168,1.216-0.168h0.146c0.605,0,1.177,0.115,1.714,0.344c0.537,0.23,1.006,0.545,1.406,0.945
			c0.4,0.4,0.715,0.869,0.944,1.406s0.345,1.108,0.345,1.714v10.884L487.646,26.074L487.646,26.074z"/>
		<path fill="#000101" d="M493.506,7.471V5.068h2.095V7.47h-2.095V7.471z M493.652,26.074v-15h1.802v15H493.652z"/>
		<path fill="#000101" d="M509.333,23.672c-0.229,0.537-0.544,1.006-0.944,1.406s-0.869,0.715-1.406,0.945
			c-0.537,0.229-1.108,0.344-1.714,0.344h-1.201c-0.605,0-1.177-0.115-1.714-0.344c-0.537-0.23-1.006-0.545-1.406-0.945
			s-0.716-0.869-0.944-1.406c-0.23-0.537-0.345-1.108-0.345-1.714V15.19c0-0.605,0.114-1.177,0.345-1.714
			c0.229-0.537,0.544-1.006,0.944-1.406s0.869-0.715,1.406-0.945c0.537-0.229,1.108-0.344,1.714-0.344h1.201
			c0.605,0,1.177,0.115,1.714,0.344c0.537,0.23,1.006,0.545,1.406,0.945s0.715,0.869,0.944,1.406s0.345,1.108,0.345,1.714v3.53
			h-8.218v3.34c0,0.361,0.068,0.701,0.205,1.018c0.137,0.318,0.322,0.594,0.557,0.828s0.51,0.42,0.828,0.557
			c0.316,0.137,0.656,0.205,1.018,0.205h1.201c0.361,0,0.7-0.068,1.018-0.205s0.594-0.322,0.828-0.557s0.42-0.51,0.557-0.828
			c0.137-0.316,0.205-0.656,0.205-1.018v-0.996l1.802,0.293v0.601C509.678,22.564,509.562,23.135,509.333,23.672z M507.876,15.088
			c0-0.361-0.068-0.701-0.205-1.018c-0.137-0.318-0.322-0.594-0.557-0.828s-0.511-0.42-0.828-0.557s-0.656-0.205-1.018-0.205h-1.201
			c-0.361,0-0.701,0.068-1.018,0.205c-0.318,0.137-0.594,0.322-0.828,0.557s-0.42,0.51-0.557,0.828
			c-0.137,0.316-0.205,0.656-0.205,1.018v2.227h6.416v-2.227H507.876z"/>
		<path fill="#000101" d="M521.499,26.074V15.088c0-0.361-0.068-0.701-0.205-1.018c-0.137-0.318-0.322-0.594-0.557-0.828
			s-0.511-0.42-0.828-0.557s-0.656-0.205-1.018-0.205h-1.201c-0.361,0-0.701,0.068-1.018,0.205
			c-0.318,0.137-0.594,0.322-0.828,0.557s-0.42,0.51-0.557,0.828c-0.137,0.316-0.205,0.656-0.205,1.018v10.986h-1.802v-15h0.601
			l0.981,1.523c0.41-0.557,0.925-0.998,1.546-1.326c0.619-0.326,1.296-0.49,2.028-0.49h0.454c0.605,0,1.177,0.115,1.714,0.344
			c0.537,0.23,1.006,0.545,1.406,0.945s0.715,0.869,0.944,1.406s0.345,1.108,0.345,1.714v10.884
			C523.299,26.074,521.499,26.074,521.499,26.074z"/>
		<path fill="#000101" d="M532.368,26.074c-0.547,0-1.063-0.103-1.545-0.308c-0.484-0.205-0.904-0.488-1.26-0.85
			c-0.357-0.361-0.641-0.781-0.85-1.26c-0.211-0.479-0.315-0.991-0.315-1.538v-9.331h-2.695v-1.714h2.695V7.469l1.802-0.293v3.896
			h3.809v1.714H530.2v9.419c0,0.303,0.056,0.584,0.168,0.842c0.112,0.26,0.267,0.486,0.462,0.682s0.425,0.35,0.688,0.461
			c0.264,0.113,0.547,0.169,0.85,0.169h1.641v1.714h-1.641V26.074z"/>
		<path fill="#000101" d="M546.994,23.672c-0.229,0.537-0.544,1.006-0.944,1.406s-0.869,0.715-1.406,0.945
			c-0.537,0.229-1.108,0.344-1.714,0.344h-1.201c-0.605,0-1.177-0.115-1.714-0.344c-0.537-0.23-1.006-0.545-1.406-0.945
			s-0.716-0.869-0.944-1.406c-0.23-0.537-0.345-1.108-0.345-1.714V15.19c0-0.605,0.114-1.177,0.345-1.714
			c0.229-0.537,0.544-1.006,0.944-1.406c0.4-0.4,0.869-0.715,1.406-0.945c0.537-0.229,1.108-0.344,1.714-0.344h1.201
			c0.605,0,1.177,0.115,1.714,0.344c0.537,0.23,1.006,0.545,1.406,0.945s0.715,0.869,0.944,1.406s0.345,1.108,0.345,1.714v6.768
			C547.339,22.564,547.224,23.135,546.994,23.672z M545.537,15.088c0-0.361-0.068-0.701-0.205-1.018
			c-0.137-0.318-0.322-0.594-0.557-0.828s-0.511-0.42-0.828-0.557s-0.656-0.205-1.018-0.205h-1.201
			c-0.361,0-0.701,0.068-1.018,0.205c-0.318,0.137-0.594,0.322-0.828,0.557s-0.42,0.51-0.557,0.828
			c-0.137,0.316-0.205,0.656-0.205,1.018v6.973c0,0.361,0.068,0.701,0.205,1.018c0.137,0.318,0.322,0.594,0.557,0.828
			s0.51,0.42,0.828,0.557c0.316,0.137,0.656,0.205,1.018,0.205h1.201c0.361,0,0.7-0.068,1.018-0.205s0.594-0.322,0.828-0.557
			s0.42-0.51,0.557-0.828c0.137-0.316,0.205-0.656,0.205-1.018V15.088z"/>
		<path fill="#000101" d="M561.255,22.266c0,0.605-0.122,1.16-0.366,1.662c-0.244,0.504-0.576,0.936-0.996,1.297
			s-0.906,0.643-1.457,0.842c-0.553,0.201-1.131,0.301-1.736,0.301h-1.201c-0.605,0-1.185-0.115-1.736-0.344
			c-0.552-0.23-1.035-0.545-1.449-0.945c-0.416-0.4-0.748-0.869-0.996-1.406c-0.25-0.537-0.374-1.108-0.374-1.714v-0.601
			l1.802-0.293v0.996c0,0.361,0.075,0.701,0.227,1.018c0.151,0.318,0.354,0.594,0.608,0.828s0.547,0.42,0.879,0.557
			s0.679,0.205,1.04,0.205h1.201c0.361,0,0.708-0.054,1.04-0.161s0.627-0.261,0.886-0.462c0.259-0.199,0.464-0.441,0.615-0.725
			s0.228-0.605,0.228-0.967c0-0.537-0.117-0.977-0.352-1.318s-0.545-0.627-0.931-0.857c-0.386-0.229-0.825-0.42-1.318-0.57
			c-0.493-0.152-0.998-0.303-1.516-0.455c-0.518-0.15-1.023-0.324-1.516-0.52c-0.494-0.195-0.934-0.451-1.318-0.77
			c-0.387-0.316-0.696-0.715-0.931-1.193s-0.352-1.074-0.352-1.787c0-0.605,0.117-1.16,0.352-1.662
			c0.234-0.504,0.552-0.936,0.952-1.297c0.4-0.361,0.866-0.643,1.398-0.842c0.532-0.201,1.102-0.301,1.707-0.301h1.055
			c0.605,0,1.177,0.115,1.714,0.344c0.537,0.23,1.006,0.545,1.406,0.945c0.4,0.4,0.715,0.869,0.944,1.406s0.345,1.108,0.345,1.714
			v0.059l-1.802,0.293v-0.454c0-0.361-0.068-0.701-0.205-1.018c-0.137-0.318-0.322-0.594-0.557-0.828s-0.511-0.42-0.828-0.557
			s-0.656-0.205-1.018-0.205h-1.055c-0.361,0-0.701,0.054-1.018,0.161c-0.318,0.107-0.594,0.261-0.828,0.462
			c-0.234,0.199-0.42,0.441-0.557,0.725s-0.205,0.605-0.205,0.967c0,0.518,0.117,0.939,0.352,1.268
			c0.234,0.326,0.544,0.603,0.93,0.827s0.825,0.413,1.318,0.563c0.493,0.152,0.996,0.309,1.51,0.469
			c0.512,0.162,1.015,0.345,1.508,0.55s0.933,0.469,1.318,0.791s0.696,0.726,0.931,1.208
			C561.138,20.955,561.255,21.553,561.255,22.266z"/>
	</g>
</g>
<g>
	<g>
		<rect x="586.639" y="22.428" fill="#154A8B" width="3.631" height="3.796"/>
		<rect x="578.043" y="22.428" fill="#154A8B" width="3.632" height="3.796"/>
		<rect x="569.45" y="22.428" fill="#154A8B" width="3.63" height="3.796"/>
	</g>
	<g>
		<rect x="698.505" y="22.428" fill="#154A8B" width="3.63" height="3.796"/>
		<rect x="689.909" y="22.428" fill="#154A8B" width="3.632" height="3.796"/>
		<rect x="681.315" y="22.428" fill="#154A8B" width="3.631" height="3.796"/>
		<rect x="672.72" y="22.428" fill="#154A8B" width="3.63" height="3.796"/>
		<rect x="664.126" y="22.428" fill="#154A8B" width="3.631" height="3.796"/>
		<rect x="655.53" y="22.428" fill="#154A8B" width="3.633" height="3.796"/>
		<rect x="749.201" y="22.428" fill="#154A8B" width="3.631" height="3.796"/>
		<rect x="740.605" y="22.428" fill="#154A8B" width="3.633" height="3.796"/>
		<rect x="732.012" y="22.428" fill="#154A8B" width="3.631" height="3.796"/>
		<rect x="723.416" y="22.428" fill="#154A8B" width="3.631" height="3.796"/>
		<rect x="714.823" y="22.428" fill="#154A8B" width="3.631" height="3.796"/>
		<rect x="706.227" y="22.428" fill="#154A8B" width="3.633" height="3.796"/>
		<rect x="646.936" y="22.428" fill="#154A8B" width="3.633" height="3.796"/>
		<rect x="638.341" y="22.428" fill="#154A8B" width="3.633" height="3.796"/>
		<rect x="629.748" y="22.428" fill="#154A8B" width="3.632" height="3.796"/>
		<rect x="621.154" y="22.428" fill="#154A8B" width="3.632" height="3.796"/>
		<rect x="612.559" y="22.428" fill="#154A8B" width="3.631" height="3.796"/>
		<rect x="603.965" y="22.428" fill="#154A8B" width="3.628" height="3.796"/>
		<rect x="595.37" y="22.428" fill="#154A8B" width="3.632" height="3.796"/>
	</g>
	<g>
		<rect x="862.182" y="22.428" fill="#154A8B" width="3.63" height="3.796"/>
		<rect x="853.585" y="22.428" fill="#154A8B" width="3.632" height="3.796"/>
		<rect x="844.992" y="22.428" fill="#154A8B" width="3.631" height="3.796"/>
		<rect x="836.396" y="22.428" fill="#154A8B" width="3.63" height="3.796"/>
		<rect x="827.803" y="22.428" fill="#154A8B" width="3.631" height="3.796"/>
		<rect x="819.207" y="22.428" fill="#154A8B" width="3.634" height="3.796"/>
		<rect x="912.878" y="22.428" fill="#154A8B" width="3.63" height="3.796"/>
		<rect x="904.282" y="22.428" fill="#154A8B" width="3.633" height="3.796"/>
		<rect x="895.688" y="22.428" fill="#154A8B" width="3.631" height="3.796"/>
		<rect x="887.093" y="22.428" fill="#154A8B" width="3.631" height="3.796"/>
		<rect x="878.499" y="22.428" fill="#154A8B" width="3.63" height="3.796"/>
		<rect x="869.904" y="22.428" fill="#154A8B" width="3.634" height="3.796"/>
		<rect x="810.613" y="22.428" fill="#154A8B" width="3.633" height="3.796"/>
		<rect x="802.018" y="22.428" fill="#154A8B" width="3.633" height="3.796"/>
		<rect x="793.424" y="22.428" fill="#154A8B" width="3.633" height="3.796"/>
		<rect x="784.831" y="22.428" fill="#154A8B" width="3.633" height="3.796"/>
		<rect x="776.236" y="22.428" fill="#154A8B" width="3.631" height="3.796"/>
		<rect x="767.642" y="22.428" fill="#154A8B" width="3.628" height="3.796"/>
		<rect x="759.047" y="22.428" fill="#154A8B" width="3.632" height="3.796"/>
	</g>
</g>
<g>
	<path fill="#154A8B" stroke="#000101" stroke-width="0.5" stroke-miterlimit="10" d="M24.63,22.301
		c-0.973,0-1.864,0.33-2.581,0.879l-7.389-4.43c0.038-0.226,0.064-0.457,0.064-0.695c0-0.238-0.025-0.469-0.064-0.695l7.389-4.432
		c0.717,0.551,1.608,0.881,2.581,0.881c2.346,0,4.247-1.9,4.247-4.246s-1.901-4.246-4.247-4.246c-2.345,0-4.246,1.9-4.246,4.246
		c0,0.236,0.026,0.469,0.061,0.695l-7.386,4.432c-0.717-0.549-1.608-0.881-2.58-0.881c-2.347,0-4.248,1.898-4.248,4.246
		c0,2.344,1.901,4.246,4.248,4.246c0.972,0,1.863-0.332,2.58-0.881l7.386,4.432c-0.034,0.227-0.061,0.459-0.061,0.693
		c0,2.346,1.901,4.248,4.246,4.248c2.346,0,4.247-1.902,4.247-4.248C28.877,24.201,26.976,22.301,24.63,22.301z"/>
</g>
</svg>
