<?xml version="1.0" encoding="utf-8"?>
<!-- Generator: Adobe Illustrator 17.0.0, SVG Export Plug-In . SVG Version: 6.00 Build 0)  -->
<!DOCTYPE svg PUBLIC "-//W3C//DTD SVG 1.1//EN" "http://www.w3.org/Graphics/SVG/1.1/DTD/svg11.dtd" [
	<!ENTITY ns_extend "http://ns.adobe.com/Extensibility/1.0/">
	<!ENTITY ns_ai "http://ns.adobe.com/AdobeIllustrator/10.0/">
	<!ENTITY ns_graphs "http://ns.adobe.com/Graphs/1.0/">
	<!ENTITY ns_vars "http://ns.adobe.com/Variables/1.0/">
	<!ENTITY ns_imrep "http://ns.adobe.com/ImageReplacement/1.0/">
	<!ENTITY ns_sfw "http://ns.adobe.com/SaveForWeb/1.0/">
	<!ENTITY ns_custom "http://ns.adobe.com/GenericCustomNamespace/1.0/">
	<!ENTITY ns_adobe_xpath "http://ns.adobe.com/XPath/1.0/">
]>
<svg version="1.1" id="Capa_1" xmlns:x="&ns_extend;" xmlns:i="&ns_ai;" xmlns:graph="&ns_graphs;"
	 xmlns="http://www.w3.org/2000/svg" xmlns:xlink="http://www.w3.org/1999/xlink" x="0px" y="0px" width="187.729px"
	 height="187.729px" viewBox="0 0 187.729 187.729" enable-background="new 0 0 187.729 187.729" xml:space="preserve">
<metadata>
	<sfw  xmlns="&ns_sfw;">
		<slices></slices>
		<sliceSourceBounds  width="604.21" height="817.671" y="-1029.753" x="381.754" bottomLeftOrigin="true"></sliceSourceBounds>
	</sfw>
</metadata>
<g>
	<g>
		<circle fill="#FFFFFF" stroke="#000000" stroke-miterlimit="10" cx="93.864" cy="93.864" r="93.364"/>
		<path fill="#134A8A" stroke="#000000" stroke-miterlimit="10" d="M169.6,93.864c0,41.83-33.904,75.736-75.736,75.736
			c-41.824,0-75.732-33.906-75.732-75.736c0-41.83,33.908-75.736,75.732-75.736C135.695,18.128,169.6,52.034,169.6,93.864z"/>
	</g>
	<g>
		<g>
			<path fill="#D1D2D3" d="M143.348,62.879c0-2.559-2.149-4.551-4.708-4.551H48.396c-2.561,0-4.713,1.992-4.713,4.551v66.066h99.664
				V62.879z"/>
			<g>
				<path fill="#F1F1F1" d="M36.17,128.945v4.633c0,2.557,2.453,4.884,5.398,4.884h103.896c2.947,0,5.396-2.327,5.396-4.884v-4.633
					H36.17z"/>
				<path fill="#211D1E" d="M145.465,139.28H41.568c-3.311,0-6.217-2.664-6.217-5.702v-4.633c0-0.453,0.367-0.818,0.818-0.818
					H150.86c0.453,0,0.819,0.365,0.819,0.818v4.633C151.68,136.669,148.834,139.28,145.465,139.28z M36.99,129.765v3.813
					c0,2.165,2.139,4.064,4.578,4.064h103.896c2.438,0,4.577-1.898,4.577-4.064v-3.813H36.99z"/>
			</g>
			<g>
				<rect x="50.694" y="64.338" fill="#FFFFFF" width="85.644" height="57.095"/>
				<path fill="#211D1E" d="M136.338,122.251H50.694c-0.452,0-0.819-0.365-0.819-0.818V64.338c0-0.452,0.367-0.818,0.819-0.818
					h85.643c0.451,0,0.817,0.366,0.817,0.818v57.095C137.155,121.886,136.789,122.251,136.338,122.251z M51.514,120.614h84.004
					V65.157H51.514V120.614z"/>
			</g>
			<g>
				<rect x="87.756" y="132.634" fill="#211D1E" width="11.519" height="1.638"/>
			</g>
			<g opacity="0.6">
				<rect x="56.203" y="69.346" fill="#E7E6E6" width="75.125" height="15.526"/>
				<rect x="56.203" y="89.88" fill="#E7E6E6" width="50.084" height="13.021"/>
				<rect x="110.795" y="89.88" fill="#E7E6E6" width="20.033" height="13.021"/>
				<rect x="56.203" y="107.409" fill="#E7E6E6" width="74.625" height="7.513"/>
			</g>
		</g>
		<g>
			<g>
				<path fill="#E7E6E6" d="M122.443,53.512c0-16-12.992-28.972-28.991-28.972c-16.001,0-29.136,12.972-29.136,28.972
					c0,14.167,10.418,25.956,23.439,28.473v39.448h11.018V82.005C112.297,79.531,122.444,67.717,122.443,53.512z"/>
				<path fill="#211D1E" d="M98.773,122.251H87.756c-0.451,0-0.819-0.365-0.819-0.818V82.651
					c-13.409-2.927-23.44-15.332-23.44-29.14c0-16.427,13.439-29.79,29.956-29.79c16.438,0,29.81,13.363,29.81,29.79
					c0.002,14.167-9.91,26.325-23.669,29.168v38.753C99.593,121.886,99.227,122.251,98.773,122.251z M88.576,120.614h9.379V82.005
					c0-0.396,0.283-0.735,0.672-0.806c13.326-2.438,22.999-14.081,22.998-27.687c0-15.523-12.639-28.151-28.173-28.151
					c-15.614,0-28.317,12.628-28.317,28.151c0,13.265,9.792,25.158,22.777,27.668c0.385,0.075,0.664,0.412,0.664,0.805V120.614z"/>
			</g>
			<g>
				<rect x="87.756" y="81.048" fill="#211D1E" width="6.01" height="1.638"/>
			</g>
			<rect x="84.25" y="89.88" fill="#A6A8AC" width="18.531" height="24.541"/>
			<g>
				<rect x="87.256" y="94.571" fill="#211D1E" width="12.019" height="1.637"/>
			</g>
			<g>
				<rect x="87.256" y="101.081" fill="#211D1E" width="12.019" height="1.639"/>
			</g>
			<g>
				<rect x="87.256" y="107.593" fill="#211D1E" width="12.019" height="1.637"/>
			</g>
		</g>
		<g>
			<circle fill="#FFCC05" cx="93.584" cy="53.721" r="21.947"/>
			<path fill="#211D1E" d="M93.584,76.486c-12.553,0-22.767-10.213-22.767-22.766c0-12.554,10.214-22.767,22.767-22.767
				c12.554,0,22.767,10.213,22.767,22.767C116.351,66.273,106.138,76.486,93.584,76.486z M93.584,32.592
				c-11.65,0-21.129,9.479-21.129,21.129c0,11.649,9.479,21.129,21.129,21.129s21.129-9.479,21.129-21.129
				C114.713,42.07,105.234,32.592,93.584,32.592z"/>
			<g>
				<line fill="#FFFFFF" x1="81.749" y1="54.014" x2="106.101" y2="54.01"/>
				<path fill="#FFFFFF" d="M81.749,54.584c-0.314,0-0.569-0.255-0.569-0.57c0-0.314,0.254-0.569,0.569-0.569l24.352-0.004
					c0.315,0,0.569,0.255,0.569,0.569c0,0.314-0.254,0.57-0.569,0.57L81.749,54.584z"/>
			</g>
			<g>
				<line fill="#FFFFFF" x1="85.535" y1="62.94" x2="102.314" y2="62.938"/>
				<path fill="#FFFFFF" d="M85.535,63.511c-0.314,0-0.569-0.256-0.569-0.57c0-0.314,0.255-0.57,0.569-0.57l16.779-0.003
					c0.314,0,0.569,0.256,0.569,0.571c0,0.314-0.255,0.57-0.569,0.57L85.535,63.511z"/>
			</g>
			<g>
				<line fill="#FFFFFF" x1="85.535" y1="45.09" x2="102.314" y2="45.087"/>
				<path fill="#FFFFFF" d="M85.535,45.659c-0.314,0-0.569-0.255-0.569-0.569c0-0.314,0.255-0.57,0.569-0.57l16.779-0.003
					c0.314,0,0.569,0.256,0.569,0.57c0,0.315-0.255,0.57-0.569,0.57L85.535,45.659z"/>
			</g>
		</g>
	</g>
</g>
</svg>
