<!-- Generator: Adobe Illustrator 17.0.0, SVG Export Plug-In  -->
<svg version="1.1"
	 xmlns="http://www.w3.org/2000/svg" xmlns:xlink="http://www.w3.org/1999/xlink" xmlns:a="http://ns.adobe.com/AdobeSVGViewerExtensions/3.0/"
	 x="0px" y="0px" width="313.782px" height="51.006px" viewBox="0 0 313.782 51.006" enable-background="new 0 0 313.782 51.006"
	 xml:space="preserve">
<defs>
</defs>
<g>
	<rect x="0" y="2.053" fill="#D2D3D3" width="43.577" height="41.014"/>
	<g>
		<rect x="43.577" y="2.053" fill="#FFCD07" width="268.154" height="41.014"/>
		<path fill="#154A8B" d="M311.731,45.117H43.577c-1.132,0-2.052-0.917-2.052-2.051V2.053C41.525,0.92,42.445,0,43.577,0h268.154
			c1.133,0,2.051,0.92,2.051,2.053v41.014C313.782,44.2,312.864,45.117,311.731,45.117z M45.629,41.017h264.053V4.103H45.629V41.017
			z"/>
	</g>
	<path fill="#154A8B" stroke="#000101" stroke-width="0.5" stroke-miterlimit="10" d="M34.787,25.339
		c0-7.488-6.092-13.582-13.581-13.582c-7.489,0-13.582,6.094-13.582,13.582c0,6.993,5.313,12.765,12.113,13.501v11.916h4.102V38.66
		C30.072,37.43,34.787,31.928,34.787,25.339z M21.206,34.82c-5.227,0-9.481-4.254-9.481-9.481c0-5.228,4.254-9.479,9.481-9.479
		c5.228,0,9.482,4.252,9.482,9.479C30.688,30.566,26.434,34.82,21.206,34.82z"/>
</g>
<g>
	<g>
		<path fill="#154A8B" d="M98.175,29.112V19.091h1.996l2.372,7.096c0.219,0.66,0.378,1.155,0.479,1.483
			c0.114-0.364,0.292-0.899,0.533-1.606l2.399-6.973h1.784v10.021h-1.278v-8.388l-2.912,8.388h-1.196l-2.898-8.531v8.531H98.175z"/>
		<path fill="#154A8B" d="M108.438,24.231c0-1.664,0.446-2.966,1.34-3.906c0.894-0.941,2.046-1.412,3.459-1.412
			c0.925,0,1.759,0.221,2.502,0.663s1.31,1.059,1.698,1.849c0.391,0.791,0.585,1.688,0.585,2.69c0,1.017-0.205,1.925-0.615,2.728
			s-0.991,1.409-1.743,1.822c-0.752,0.412-1.563,0.618-2.434,0.618c-0.943,0-1.786-0.228-2.529-0.684s-1.306-1.077-1.688-1.866
			S108.438,25.11,108.438,24.231z M109.806,24.252c0,1.208,0.325,2.159,0.974,2.854c0.65,0.694,1.465,1.042,2.444,1.042
			c0.998,0,1.819-0.351,2.464-1.053c0.646-0.702,0.968-1.698,0.968-2.987c0-0.816-0.138-1.527-0.413-2.137
			c-0.276-0.607-0.68-1.08-1.211-1.414c-0.53-0.336-1.126-0.503-1.787-0.503c-0.938,0-1.746,0.322-2.424,0.968
			C110.145,21.667,109.806,22.743,109.806,24.252z"/>
		<path fill="#154A8B" d="M118.695,29.112V19.091h3.452c0.779,0,1.374,0.048,1.784,0.144c0.574,0.132,1.064,0.372,1.47,0.718
			c0.528,0.447,0.924,1.018,1.187,1.713c0.262,0.694,0.393,1.488,0.393,2.382c0,0.761-0.089,1.436-0.267,2.023
			s-0.405,1.074-0.684,1.46c-0.278,0.385-0.582,0.688-0.913,0.908c-0.33,0.222-0.729,0.389-1.195,0.503
			c-0.468,0.114-1.004,0.171-1.61,0.171H118.695z M120.021,27.93h2.14c0.661,0,1.179-0.062,1.556-0.185
			c0.375-0.123,0.675-0.297,0.898-0.52c0.314-0.314,0.56-0.737,0.734-1.268c0.176-0.531,0.264-1.176,0.264-1.932
			c0-1.049-0.172-1.854-0.516-2.416c-0.345-0.563-0.763-0.94-1.255-1.132c-0.355-0.137-0.928-0.205-1.716-0.205h-2.105V27.93z"/>
		<path fill="#154A8B" d="M127.797,29.112V19.091h7.246v1.183h-5.92v3.069h5.544v1.176h-5.544v3.411h6.152v1.183H127.797z"/>
		<path fill="#154A8B" d="M136.018,29.112V19.091h1.326v8.839h4.936v1.183H136.018z"/>
		<path fill="#154A8B" d="M141.722,29.112l3.849-10.021h1.429l4.102,10.021h-1.511l-1.169-3.035h-4.19l-1.101,3.035H141.722z
			 M144.613,24.997h3.397l-1.046-2.775c-0.319-0.844-0.556-1.535-0.711-2.078c-0.128,0.643-0.308,1.281-0.54,1.914L144.613,24.997z"
			/>
		<path fill="#154A8B" d="M151.124,29.112V19.091h3.452c0.779,0,1.374,0.048,1.784,0.144c0.574,0.132,1.064,0.372,1.47,0.718
			c0.528,0.447,0.924,1.018,1.187,1.713c0.262,0.694,0.393,1.488,0.393,2.382c0,0.761-0.089,1.436-0.267,2.023
			s-0.405,1.074-0.684,1.46c-0.278,0.385-0.582,0.688-0.913,0.908c-0.33,0.222-0.729,0.389-1.195,0.503
			c-0.468,0.114-1.004,0.171-1.61,0.171H151.124z M152.45,27.93h2.14c0.661,0,1.179-0.062,1.556-0.185
			c0.375-0.123,0.675-0.297,0.898-0.52c0.314-0.314,0.56-0.737,0.734-1.268c0.176-0.531,0.264-1.176,0.264-1.932
			c0-1.049-0.172-1.854-0.516-2.416c-0.345-0.563-0.763-0.94-1.255-1.132c-0.355-0.137-0.928-0.205-1.716-0.205h-2.105V27.93z"/>
		<path fill="#154A8B" d="M159.795,24.231c0-1.664,0.446-2.966,1.34-3.906c0.894-0.941,2.046-1.412,3.459-1.412
			c0.925,0,1.759,0.221,2.502,0.663s1.31,1.059,1.698,1.849c0.391,0.791,0.585,1.688,0.585,2.69c0,1.017-0.205,1.925-0.615,2.728
			s-0.991,1.409-1.743,1.822c-0.752,0.412-1.563,0.618-2.434,0.618c-0.943,0-1.786-0.228-2.529-0.684s-1.306-1.077-1.688-1.866
			S159.795,25.11,159.795,24.231z M161.162,24.252c0,1.208,0.325,2.159,0.974,2.854c0.65,0.694,1.465,1.042,2.444,1.042
			c0.998,0,1.819-0.351,2.464-1.053c0.646-0.702,0.968-1.698,0.968-2.987c0-0.816-0.138-1.527-0.413-2.137
			c-0.276-0.607-0.68-1.08-1.211-1.414c-0.53-0.336-1.126-0.503-1.787-0.503c-0.938,0-1.746,0.322-2.424,0.968
			C161.501,21.667,161.162,22.743,161.162,24.252z"/>
		<path fill="#154A8B" d="M180.056,25.599l1.326,0.335c-0.278,1.089-0.778,1.92-1.5,2.491c-0.723,0.572-1.605,0.858-2.649,0.858
			c-1.08,0-1.958-0.22-2.636-0.659c-0.676-0.44-1.191-1.077-1.545-1.911c-0.353-0.834-0.529-1.729-0.529-2.687
			c0-1.043,0.199-1.954,0.598-2.73c0.399-0.777,0.967-1.367,1.703-1.771c0.735-0.402,1.546-0.604,2.43-0.604
			c1.003,0,1.846,0.255,2.529,0.766s1.16,1.228,1.429,2.153l-1.306,0.308c-0.232-0.729-0.569-1.261-1.012-1.593
			s-0.998-0.499-1.668-0.499c-0.771,0-1.414,0.185-1.932,0.554c-0.517,0.369-0.88,0.865-1.09,1.486
			c-0.21,0.623-0.314,1.264-0.314,1.925c0,0.853,0.124,1.597,0.373,2.231c0.248,0.637,0.634,1.111,1.158,1.426
			s1.092,0.472,1.702,0.472c0.743,0,1.372-0.214,1.887-0.643S179.873,26.442,180.056,25.599z"/>
		<path fill="#154A8B" d="M181.576,24.231c0-1.664,0.446-2.966,1.34-3.906c0.894-0.941,2.046-1.412,3.459-1.412
			c0.925,0,1.759,0.221,2.502,0.663s1.31,1.059,1.698,1.849c0.391,0.791,0.585,1.688,0.585,2.69c0,1.017-0.205,1.925-0.615,2.728
			s-0.991,1.409-1.743,1.822c-0.752,0.412-1.563,0.618-2.434,0.618c-0.943,0-1.786-0.228-2.529-0.684s-1.306-1.077-1.688-1.866
			S181.576,25.11,181.576,24.231z M182.943,24.252c0,1.208,0.325,2.159,0.974,2.854c0.65,0.694,1.465,1.042,2.444,1.042
			c0.998,0,1.819-0.351,2.464-1.053c0.646-0.702,0.968-1.698,0.968-2.987c0-0.816-0.138-1.527-0.413-2.137
			c-0.276-0.607-0.68-1.08-1.211-1.414c-0.53-0.336-1.126-0.503-1.787-0.503c-0.938,0-1.746,0.322-2.424,0.968
			C183.282,21.667,182.943,22.743,182.943,24.252z"/>
		<path fill="#154A8B" d="M191.819,29.112V19.091h1.36l5.264,7.868v-7.868h1.271v10.021h-1.36l-5.264-7.875v7.875H191.819z"/>
		<path fill="#154A8B" d="M208.059,25.599l1.326,0.335c-0.278,1.089-0.778,1.92-1.5,2.491c-0.723,0.572-1.605,0.858-2.649,0.858
			c-1.08,0-1.958-0.22-2.636-0.659c-0.676-0.44-1.191-1.077-1.545-1.911c-0.353-0.834-0.529-1.729-0.529-2.687
			c0-1.043,0.199-1.954,0.598-2.73c0.399-0.777,0.967-1.367,1.703-1.771c0.735-0.402,1.546-0.604,2.43-0.604
			c1.003,0,1.846,0.255,2.529,0.766s1.16,1.228,1.429,2.153l-1.306,0.308c-0.232-0.729-0.569-1.261-1.012-1.593
			s-0.998-0.499-1.668-0.499c-0.771,0-1.414,0.185-1.932,0.554c-0.517,0.369-0.88,0.865-1.09,1.486
			c-0.21,0.623-0.314,1.264-0.314,1.925c0,0.853,0.124,1.597,0.373,2.231c0.248,0.637,0.634,1.111,1.158,1.426
			s1.092,0.472,1.702,0.472c0.743,0,1.372-0.214,1.887-0.643S207.876,26.442,208.059,25.599z"/>
		<path fill="#154A8B" d="M210.01,29.112V19.091h7.246v1.183h-5.92v3.069h5.544v1.176h-5.544v3.411h6.152v1.183H210.01z"/>
		<path fill="#154A8B" d="M218.284,29.112V19.091h3.78c0.665,0,1.174,0.031,1.524,0.096c0.492,0.082,0.904,0.238,1.237,0.469
			c0.333,0.229,0.601,0.553,0.804,0.967c0.202,0.414,0.304,0.871,0.304,1.367c0,0.852-0.271,1.573-0.813,2.164
			c-0.542,0.59-1.522,0.885-2.939,0.885h-2.57v4.074H218.284z M219.61,23.855h2.591c0.856,0,1.465-0.159,1.825-0.479
			s0.54-0.769,0.54-1.347c0-0.42-0.106-0.778-0.317-1.076c-0.213-0.299-0.491-0.496-0.838-0.592
			c-0.224-0.059-0.636-0.089-1.237-0.089h-2.563V23.855z"/>
		<path fill="#154A8B" d="M229.136,29.112v-8.839h-3.302v-1.183h7.943v1.183h-3.315v8.839H229.136z"/>
		<path fill="#154A8B" d="M240.678,19.091h1.326v5.79c0,1.007-0.114,1.808-0.342,2.399s-0.639,1.074-1.234,1.445
			c-0.594,0.372-1.375,0.558-2.341,0.558c-0.938,0-1.707-0.161-2.304-0.485s-1.023-0.792-1.278-1.404
			c-0.255-0.613-0.383-1.451-0.383-2.513v-5.79h1.326v5.783c0,0.871,0.081,1.512,0.243,1.924c0.161,0.413,0.439,0.73,0.834,0.954
			c0.394,0.224,0.876,0.335,1.445,0.335c0.976,0,1.67-0.221,2.085-0.663s0.622-1.292,0.622-2.55V19.091z"/>
		<path fill="#154A8B" d="M242.075,29.112l3.849-10.021h1.429l4.102,10.021h-1.511l-1.169-3.035h-4.19l-1.101,3.035H242.075z
			 M244.967,24.997h3.397l-1.046-2.775c-0.319-0.844-0.556-1.535-0.711-2.078c-0.128,0.643-0.308,1.281-0.54,1.914L244.967,24.997z"
			/>
		<path fill="#154A8B" d="M251.423,29.112V19.091h1.326v8.839h4.936v1.183H251.423z"/>
	</g>
</g>
</svg>