<!-- Generator: Adobe Illustrator 17.0.0, SVG Export Plug-In  -->
<svg version="1.1"
	 xmlns="http://www.w3.org/2000/svg" xmlns:xlink="http://www.w3.org/1999/xlink" xmlns:a="http://ns.adobe.com/AdobeSVGViewerExtensions/3.0/"
	 x="0px" y="0px" width="314.13px" height="314.13px" viewBox="0 0 314.13 314.13" enable-background="new 0 0 314.13 314.13"
	 xml:space="preserve">
<defs>
</defs>
<line fill="none" stroke="#FFCD09" stroke-width="3" stroke-miterlimit="10" x1="0" y1="157.064" x2="314.13" y2="157.064"/>
<line fill="none" stroke="#FFCD09" stroke-width="3" stroke-miterlimit="10" x1="157.064" y1="314.13" x2="157.064" y2="0"/>
<circle fill="none" stroke="#FFCD09" stroke-width="3" stroke-miterlimit="10" cx="157.15" cy="156.763" r="49.776"/>
<circle fill="none" stroke="#FFCD09" stroke-width="3" stroke-miterlimit="10" cx="157.15" cy="156.763" r="85.821"/>
<circle fill="none" stroke="#FFCD09" stroke-width="3" stroke-miterlimit="10" cx="157.15" cy="156.763" r="123.582"/>
<polygon fill="#FFCD09" points="184.913,129.439 199.538,129.507 199.61,114.881 "/>
<g>
	<path fill="#144A8B" d="M135.898,54.636V44.192h7.743v1.767h-5.635v2.315h5.243v1.76h-5.243v2.842h5.834v1.76H135.898z"/>
	<path fill="#144A8B" d="M148.004,47.07v1.596h-1.368v3.049c0,0.617,0.013,0.978,0.039,1.079c0.026,0.103,0.085,0.187,0.178,0.253
		s0.205,0.1,0.338,0.1c0.185,0,0.454-0.063,0.805-0.192l0.171,1.554c-0.466,0.199-0.993,0.299-1.582,0.299
		c-0.361,0-0.686-0.061-0.976-0.182c-0.29-0.121-0.502-0.277-0.637-0.47c-0.135-0.192-0.229-0.453-0.281-0.78
		c-0.043-0.232-0.064-0.703-0.064-1.411v-3.298h-0.919V47.07h0.919v-1.503l2.009-1.169v2.672H148.004z"/>
	<path fill="#144A8B" d="M149.81,49.378l-1.817-0.327c0.204-0.731,0.556-1.272,1.054-1.624c0.499-0.352,1.24-0.527,2.223-0.527
		c0.893,0,1.558,0.105,1.995,0.316c0.437,0.212,0.744,0.48,0.923,0.806c0.178,0.325,0.267,0.922,0.267,1.791l-0.021,2.337
		c0,0.665,0.032,1.155,0.096,1.471c0.064,0.316,0.184,0.654,0.36,1.016h-1.98c-0.052-0.133-0.116-0.33-0.192-0.591
		c-0.033-0.119-0.057-0.197-0.071-0.235c-0.342,0.332-0.708,0.582-1.097,0.748c-0.39,0.166-0.805,0.249-1.247,0.249
		c-0.779,0-1.393-0.211-1.841-0.634c-0.449-0.423-0.673-0.957-0.673-1.603c0-0.428,0.102-0.809,0.306-1.144
		c0.204-0.335,0.49-0.592,0.858-0.77c0.368-0.179,0.899-0.334,1.592-0.467c0.936-0.176,1.584-0.34,1.945-0.491v-0.2
		c0-0.384-0.095-0.658-0.285-0.822s-0.549-0.246-1.076-0.246c-0.356,0-0.634,0.07-0.833,0.21
		C150.095,48.781,149.933,49.027,149.81,49.378z M152.488,51.003c-0.256,0.085-0.662,0.188-1.218,0.306
		c-0.556,0.119-0.919,0.235-1.09,0.35c-0.261,0.185-0.392,0.42-0.392,0.705c0,0.28,0.104,0.522,0.313,0.727s0.475,0.307,0.798,0.307
		c0.361,0,0.705-0.119,1.033-0.356c0.242-0.181,0.401-0.401,0.477-0.662c0.052-0.172,0.078-0.497,0.078-0.977V51.003z"/>
	<path fill="#144A8B" d="M155.291,47.07h1.866v1.111c0.242-0.38,0.57-0.688,0.983-0.926c0.413-0.238,0.871-0.356,1.375-0.356
		c0.879,0,1.624,0.345,2.237,1.033c0.613,0.688,0.919,1.647,0.919,2.878c0,1.263-0.309,2.245-0.926,2.945s-1.365,1.051-2.244,1.051
		c-0.418,0-0.797-0.083-1.136-0.249c-0.34-0.166-0.697-0.451-1.072-0.855v3.812h-2.002V47.07z M157.272,50.725
		c0,0.851,0.168,1.479,0.506,1.885c0.337,0.405,0.748,0.608,1.232,0.608c0.466,0,0.853-0.186,1.161-0.559
		c0.309-0.373,0.463-0.984,0.463-1.835c0-0.793-0.159-1.382-0.477-1.767s-0.712-0.577-1.182-0.577c-0.489,0-0.895,0.189-1.218,0.566
		C157.433,49.425,157.272,49.984,157.272,50.725z"/>
	<path fill="#144A8B" d="M164.676,49.378l-1.817-0.327c0.204-0.731,0.556-1.272,1.054-1.624c0.499-0.352,1.24-0.527,2.223-0.527
		c0.893,0,1.558,0.105,1.995,0.316c0.437,0.212,0.744,0.48,0.923,0.806c0.178,0.325,0.267,0.922,0.267,1.791l-0.021,2.337
		c0,0.665,0.032,1.155,0.096,1.471c0.064,0.316,0.184,0.654,0.36,1.016h-1.98c-0.052-0.133-0.116-0.33-0.192-0.591
		c-0.033-0.119-0.057-0.197-0.071-0.235c-0.342,0.332-0.708,0.582-1.097,0.748c-0.39,0.166-0.805,0.249-1.247,0.249
		c-0.779,0-1.393-0.211-1.841-0.634c-0.449-0.423-0.673-0.957-0.673-1.603c0-0.428,0.102-0.809,0.306-1.144
		c0.204-0.335,0.49-0.592,0.858-0.77c0.368-0.179,0.899-0.334,1.592-0.467c0.936-0.176,1.584-0.34,1.945-0.491v-0.2
		c0-0.384-0.095-0.658-0.285-0.822s-0.549-0.246-1.076-0.246c-0.356,0-0.634,0.07-0.833,0.21
		C164.961,48.781,164.8,49.027,164.676,49.378z M167.355,51.003c-0.256,0.085-0.662,0.188-1.218,0.306
		c-0.556,0.119-0.919,0.235-1.09,0.35c-0.261,0.185-0.392,0.42-0.392,0.705c0,0.28,0.104,0.522,0.313,0.727s0.475,0.307,0.798,0.307
		c0.361,0,0.705-0.119,1.033-0.356c0.242-0.181,0.401-0.401,0.477-0.662c0.052-0.172,0.078-0.497,0.078-0.977V51.003z"/>
	<path fill="#144A8B" d="M180.07,54.636h-2.002v-3.861c0-0.816-0.043-1.345-0.128-1.585c-0.085-0.239-0.224-0.426-0.417-0.56
		c-0.192-0.133-0.424-0.199-0.695-0.199c-0.347,0-0.658,0.096-0.933,0.285c-0.275,0.19-0.464,0.441-0.566,0.755
		c-0.102,0.313-0.153,0.894-0.153,1.738v3.427h-2.002V47.07h1.859v1.111c0.66-0.854,1.491-1.282,2.493-1.282
		c0.442,0,0.845,0.079,1.211,0.238s0.642,0.362,0.83,0.609c0.188,0.247,0.318,0.527,0.392,0.841c0.073,0.313,0.11,0.762,0.11,1.346
		V54.636z"/>
</g>
<g>
	<path fill="#144A8B" d="M135.898,94.972V84.528h7.743v1.767h-5.635v2.315h5.243v1.76h-5.243v2.842h5.834v1.76H135.898z"/>
	<path fill="#144A8B" d="M148.004,87.406v1.596h-1.368v3.049c0,0.617,0.013,0.978,0.039,1.079c0.026,0.103,0.085,0.187,0.178,0.253
		s0.205,0.1,0.338,0.1c0.185,0,0.454-0.063,0.805-0.192l0.171,1.554c-0.466,0.199-0.993,0.299-1.582,0.299
		c-0.361,0-0.686-0.061-0.976-0.182c-0.29-0.121-0.502-0.277-0.637-0.47c-0.135-0.192-0.229-0.453-0.281-0.78
		c-0.043-0.232-0.064-0.703-0.064-1.411v-3.298h-0.919v-1.596h0.919v-1.503l2.009-1.169v2.672H148.004z"/>
	<path fill="#144A8B" d="M149.81,89.714l-1.817-0.327c0.204-0.731,0.556-1.272,1.054-1.624c0.499-0.352,1.24-0.527,2.223-0.527
		c0.893,0,1.558,0.105,1.995,0.316c0.437,0.212,0.744,0.48,0.923,0.806c0.178,0.325,0.267,0.922,0.267,1.791l-0.021,2.337
		c0,0.665,0.032,1.155,0.096,1.471c0.064,0.316,0.184,0.654,0.36,1.016h-1.98c-0.052-0.133-0.116-0.33-0.192-0.591
		c-0.033-0.119-0.057-0.197-0.071-0.235c-0.342,0.332-0.708,0.582-1.097,0.748c-0.39,0.166-0.805,0.249-1.247,0.249
		c-0.779,0-1.393-0.211-1.841-0.634c-0.449-0.423-0.673-0.957-0.673-1.603c0-0.428,0.102-0.809,0.306-1.144
		c0.204-0.335,0.49-0.592,0.858-0.77c0.368-0.179,0.899-0.334,1.592-0.467c0.936-0.176,1.584-0.34,1.945-0.491v-0.2
		c0-0.384-0.095-0.658-0.285-0.822s-0.549-0.246-1.076-0.246c-0.356,0-0.634,0.07-0.833,0.21
		C150.095,89.117,149.933,89.363,149.81,89.714z M152.488,91.339c-0.256,0.085-0.662,0.188-1.218,0.306
		c-0.556,0.119-0.919,0.235-1.09,0.35c-0.261,0.185-0.392,0.42-0.392,0.705c0,0.28,0.104,0.522,0.313,0.727s0.475,0.307,0.798,0.307
		c0.361,0,0.705-0.119,1.033-0.356c0.242-0.181,0.401-0.401,0.477-0.662c0.052-0.172,0.078-0.497,0.078-0.977V91.339z"/>
	<path fill="#144A8B" d="M155.291,87.406h1.866v1.111c0.242-0.38,0.57-0.688,0.983-0.926c0.413-0.238,0.871-0.356,1.375-0.356
		c0.879,0,1.624,0.345,2.237,1.033c0.613,0.688,0.919,1.647,0.919,2.878c0,1.263-0.309,2.245-0.926,2.945s-1.365,1.051-2.244,1.051
		c-0.418,0-0.797-0.083-1.136-0.249c-0.34-0.166-0.697-0.451-1.072-0.855v3.812h-2.002V87.406z M157.272,91.061
		c0,0.851,0.168,1.479,0.506,1.885c0.337,0.405,0.748,0.608,1.232,0.608c0.466,0,0.853-0.186,1.161-0.559
		c0.309-0.373,0.463-0.984,0.463-1.835c0-0.793-0.159-1.382-0.477-1.767s-0.712-0.577-1.182-0.577c-0.489,0-0.895,0.189-1.218,0.566
		C157.433,89.761,157.272,90.32,157.272,91.061z"/>
	<path fill="#144A8B" d="M164.676,89.714l-1.817-0.327c0.204-0.731,0.556-1.272,1.054-1.624c0.499-0.352,1.24-0.527,2.223-0.527
		c0.893,0,1.558,0.105,1.995,0.316c0.437,0.212,0.744,0.48,0.923,0.806c0.178,0.325,0.267,0.922,0.267,1.791l-0.021,2.337
		c0,0.665,0.032,1.155,0.096,1.471c0.064,0.316,0.184,0.654,0.36,1.016h-1.98c-0.052-0.133-0.116-0.33-0.192-0.591
		c-0.033-0.119-0.057-0.197-0.071-0.235c-0.342,0.332-0.708,0.582-1.097,0.748c-0.39,0.166-0.805,0.249-1.247,0.249
		c-0.779,0-1.393-0.211-1.841-0.634c-0.449-0.423-0.673-0.957-0.673-1.603c0-0.428,0.102-0.809,0.306-1.144
		c0.204-0.335,0.49-0.592,0.858-0.77c0.368-0.179,0.899-0.334,1.592-0.467c0.936-0.176,1.584-0.34,1.945-0.491v-0.2
		c0-0.384-0.095-0.658-0.285-0.822s-0.549-0.246-1.076-0.246c-0.356,0-0.634,0.07-0.833,0.21
		C164.961,89.117,164.8,89.363,164.676,89.714z M167.355,91.339c-0.256,0.085-0.662,0.188-1.218,0.306
		c-0.556,0.119-0.919,0.235-1.09,0.35c-0.261,0.185-0.392,0.42-0.392,0.705c0,0.28,0.104,0.522,0.313,0.727s0.475,0.307,0.798,0.307
		c0.361,0,0.705-0.119,1.033-0.356c0.242-0.181,0.401-0.401,0.477-0.662c0.052-0.172,0.078-0.497,0.078-0.977V91.339z"/>
	<path fill="#144A8B" d="M179.522,93.112v1.859h-7.017c0.076-0.703,0.304-1.369,0.684-1.998c0.38-0.63,1.13-1.464,2.251-2.504
		c0.902-0.841,1.456-1.411,1.66-1.71c0.275-0.413,0.413-0.821,0.413-1.226c0-0.446-0.12-0.789-0.36-1.029
		c-0.24-0.239-0.571-0.359-0.994-0.359c-0.418,0-0.75,0.126-0.997,0.377c-0.247,0.252-0.389,0.67-0.427,1.254l-1.995-0.199
		c0.119-1.102,0.491-1.893,1.118-2.372s1.411-0.72,2.351-0.72c1.031,0,1.84,0.278,2.429,0.834s0.884,1.246,0.884,2.072
		c0,0.471-0.084,0.918-0.253,1.343c-0.169,0.426-0.436,0.871-0.802,1.336c-0.242,0.309-0.679,0.753-1.311,1.332
		c-0.632,0.58-1.032,0.965-1.2,1.154c-0.168,0.19-0.305,0.375-0.409,0.556H179.522z"/>
</g>
<g>
	<path fill="#144A8B" d="M135.898,161.912v-10.443h7.743v1.767h-5.635v2.315h5.243v1.76h-5.243v2.842h5.834v1.76H135.898z"/>
	<path fill="#144A8B" d="M148.004,154.347v1.596h-1.368v3.049c0,0.617,0.013,0.978,0.039,1.079c0.026,0.103,0.085,0.187,0.178,0.253
		s0.205,0.1,0.338,0.1c0.185,0,0.454-0.063,0.805-0.192l0.171,1.554c-0.466,0.199-0.993,0.299-1.582,0.299
		c-0.361,0-0.686-0.061-0.976-0.182c-0.29-0.121-0.502-0.277-0.637-0.47c-0.135-0.192-0.229-0.453-0.281-0.78
		c-0.043-0.232-0.064-0.703-0.064-1.411v-3.298h-0.919v-1.596h0.919v-1.503l2.009-1.169v2.672H148.004z"/>
	<path fill="#144A8B" d="M149.81,156.654l-1.817-0.327c0.204-0.731,0.556-1.272,1.054-1.624c0.499-0.352,1.24-0.527,2.223-0.527
		c0.893,0,1.558,0.105,1.995,0.316c0.437,0.212,0.744,0.48,0.923,0.806c0.178,0.325,0.267,0.922,0.267,1.791l-0.021,2.337
		c0,0.665,0.032,1.155,0.096,1.471c0.064,0.316,0.184,0.654,0.36,1.016h-1.98c-0.052-0.133-0.116-0.33-0.192-0.591
		c-0.033-0.119-0.057-0.197-0.071-0.235c-0.342,0.332-0.708,0.582-1.097,0.748c-0.39,0.166-0.805,0.249-1.247,0.249
		c-0.779,0-1.393-0.211-1.841-0.634c-0.449-0.423-0.673-0.957-0.673-1.603c0-0.428,0.102-0.809,0.306-1.144
		c0.204-0.335,0.49-0.592,0.858-0.77c0.368-0.179,0.899-0.334,1.592-0.467c0.936-0.176,1.584-0.34,1.945-0.491v-0.2
		c0-0.384-0.095-0.658-0.285-0.822s-0.549-0.246-1.076-0.246c-0.356,0-0.634,0.07-0.833,0.21
		C150.095,156.058,149.933,156.304,149.81,156.654z M152.488,158.279c-0.256,0.085-0.662,0.188-1.218,0.306
		c-0.556,0.119-0.919,0.235-1.09,0.35c-0.261,0.185-0.392,0.42-0.392,0.705c0,0.28,0.104,0.522,0.313,0.727s0.475,0.307,0.798,0.307
		c0.361,0,0.705-0.119,1.033-0.356c0.242-0.181,0.401-0.401,0.477-0.662c0.052-0.172,0.078-0.497,0.078-0.977V158.279z"/>
	<path fill="#144A8B" d="M155.291,154.347h1.866v1.111c0.242-0.38,0.57-0.688,0.983-0.926c0.413-0.238,0.871-0.356,1.375-0.356
		c0.879,0,1.624,0.345,2.237,1.033c0.613,0.688,0.919,1.647,0.919,2.878c0,1.263-0.309,2.245-0.926,2.945s-1.365,1.051-2.244,1.051
		c-0.418,0-0.797-0.083-1.136-0.249c-0.34-0.166-0.697-0.451-1.072-0.855v3.812h-2.002V154.347z M157.272,158.001
		c0,0.851,0.168,1.479,0.506,1.885c0.337,0.405,0.748,0.608,1.232,0.608c0.466,0,0.853-0.186,1.161-0.559
		c0.309-0.373,0.463-0.984,0.463-1.835c0-0.793-0.159-1.382-0.477-1.767s-0.712-0.577-1.182-0.577c-0.489,0-0.895,0.189-1.218,0.566
		C157.433,156.701,157.272,157.261,157.272,158.001z"/>
	<path fill="#144A8B" d="M164.676,156.654l-1.817-0.327c0.204-0.731,0.556-1.272,1.054-1.624c0.499-0.352,1.24-0.527,2.223-0.527
		c0.893,0,1.558,0.105,1.995,0.316c0.437,0.212,0.744,0.48,0.923,0.806c0.178,0.325,0.267,0.922,0.267,1.791l-0.021,2.337
		c0,0.665,0.032,1.155,0.096,1.471c0.064,0.316,0.184,0.654,0.36,1.016h-1.98c-0.052-0.133-0.116-0.33-0.192-0.591
		c-0.033-0.119-0.057-0.197-0.071-0.235c-0.342,0.332-0.708,0.582-1.097,0.748c-0.39,0.166-0.805,0.249-1.247,0.249
		c-0.779,0-1.393-0.211-1.841-0.634c-0.449-0.423-0.673-0.957-0.673-1.603c0-0.428,0.102-0.809,0.306-1.144
		c0.204-0.335,0.49-0.592,0.858-0.77c0.368-0.179,0.899-0.334,1.592-0.467c0.936-0.176,1.584-0.34,1.945-0.491v-0.2
		c0-0.384-0.095-0.658-0.285-0.822s-0.549-0.246-1.076-0.246c-0.356,0-0.634,0.07-0.833,0.21
		C164.961,156.058,164.8,156.304,164.676,156.654z M167.355,158.279c-0.256,0.085-0.662,0.188-1.218,0.306
		c-0.556,0.119-0.919,0.235-1.09,0.35c-0.261,0.185-0.392,0.42-0.392,0.705c0,0.28,0.104,0.522,0.313,0.727s0.475,0.307,0.798,0.307
		c0.361,0,0.705-0.119,1.033-0.356c0.242-0.181,0.401-0.401,0.477-0.662c0.052-0.172,0.078-0.497,0.078-0.977V158.279z"/>
	<path fill="#144A8B" d="M177.883,161.912h-2.002v-7.544c-0.731,0.684-1.593,1.189-2.586,1.518v-1.817
		c0.522-0.171,1.09-0.495,1.703-0.972c0.613-0.478,1.033-1.034,1.261-1.671h1.624V161.912z"/>
</g>
<polygon fill="#FFCD09" points="210.871,103.479 225.497,103.548 225.569,88.923 "/>
<polygon fill="#FFCD09" points="237.749,76.603 252.375,76.671 252.447,62.046 "/>
</svg>