<!-- Generator: Adobe Illustrator 17.0.0, SVG Export Plug-In  -->
<svg version="1.1"
	 xmlns="http://www.w3.org/2000/svg" xmlns:xlink="http://www.w3.org/1999/xlink" xmlns:a="http://ns.adobe.com/AdobeSVGViewerExtensions/3.0/"
	 x="0px" y="0px" width="43.635px" height="76.039px" viewBox="0 0 43.635 76.039" enable-background="new 0 0 43.635 76.039"
	 xml:space="preserve">
<defs>
</defs>
<path id="balloon_2_" fill="#BAD8D8" d="M40.362,33.313c2.074-3.338,3.273-7.277,3.273-11.495C43.635,9.768,33.867,0,21.817,0
	C9.768,0,0,9.768,0,21.817c0,2.301,0.356,4.519,1.016,6.6c0.549,1.733,1.312,3.37,2.252,4.886l10.936,27.918l0.033-0.009
	l0.684,14.827h14.044l0.456-14.821l0.01,0.003L40.362,33.313z M37.188,37.298l-8.79,22.442H25.58l1.89-16.848
	C31.197,41.896,34.53,39.938,37.188,37.298z M25.916,43.248L24.067,59.74h-4.499l-1.85-16.494c1.328,0.252,2.697,0.389,4.099,0.389
	C23.219,43.635,24.588,43.5,25.916,43.248z M18.054,59.74h-2.819L6.444,37.293c2.658,2.641,5.993,4.6,9.72,5.598L18.054,59.74z"/>
</svg>