<!-- Generator: Adobe Illustrator 17.0.0, SVG Export Plug-In  -->
<svg version="1.1"
	 xmlns="http://www.w3.org/2000/svg" xmlns:xlink="http://www.w3.org/1999/xlink" xmlns:a="http://ns.adobe.com/AdobeSVGViewerExtensions/3.0/"
	 x="0px" y="0px" width="64.338px" height="33.594px" viewBox="0 0 64.338 33.594" enable-background="new 0 0 64.338 33.594"
	 xml:space="preserve">
<defs>
</defs>
<path id="helicopter_2_" fill="#BAD8D8" d="M64.243,21.219L64.243,21.219c0.063-0.533,0.095-1.104,0.095-1.714
	c0-6.32-6.933-14.518-15.485-14.518h-1.91V3.936h-1.526V2.899h15.257c0.506,0,0.916-0.41,0.916-0.917
	c0-0.505-0.41-0.915-0.916-0.915H45.347C45.152,0.449,44.575,0,43.892,0c-0.683,0-1.261,0.449-1.456,1.067H27.109
	c-0.506,0-0.915,0.41-0.915,0.915c0,0.507,0.41,0.917,0.915,0.917h15.257v1.036H40.84v1.052h-1.522
	c-4.075,0-7.526,2.663-8.712,6.343H9.964L4.106,5.542c-0.143-0.141-0.335-0.22-0.537-0.22H0.868c-0.582,0-0.949,0.623-0.668,1.133
	l2.129,4.048C0.931,11.381,0,12.936,0,14.704c0,2.735,2.224,4.959,4.959,4.959c2.442,0,4.476-1.774,4.883-4.101l20.323,1.786v1.37
	c0,0.878,0.126,1.726,0.357,2.53l0,0l0,0c0.04,0.14,0.083,0.276,0.129,0.414c0,0.001,0.001,0.001,0.001,0.001
	c0.046,0.137,0.095,0.271,0.148,0.403c0.001,0.002,0.001,0.004,0.001,0.004c0.052,0.135,0.107,0.264,0.165,0.393
	c0.002,0.003,0.003,0.007,0.005,0.011c0.057,0.126,0.117,0.252,0.18,0.375c0.003,0.006,0.005,0.011,0.008,0.015
	c0.062,0.122,0.127,0.245,0.195,0.362c0.003,0.007,0.006,0.012,0.009,0.016c0.068,0.119,0.138,0.238,0.21,0.352
	c0.003,0.005,0.007,0.01,0.01,0.015c0.073,0.116,0.149,0.23,0.227,0.343c0.002,0.005,0.005,0.007,0.007,0.01
	c0.08,0.114,0.162,0.227,0.247,0.337l0,0l0,0c1.674,2.174,4.3,3.572,7.255,3.572h1.08l-0.857,3.893H35.45
	c-0.506,0-0.916,0.409-0.916,0.914c0,0.507,0.41,0.916,0.916,0.916h20.81l3.524-0.905c0.49-0.126,0.785-0.625,0.659-1.115
	c-0.126-0.489-0.625-0.784-1.115-0.658l-3.3,0.849h-2.441l-0.857-3.893c5.855-0.027,9.195-1.047,10.675-3.797h0.001
	c0.013-0.023,0.026-0.049,0.039-0.073c0.048-0.092,0.093-0.186,0.137-0.28l0,0c0.011-0.023,0.021-0.047,0.031-0.07
	c0.044-0.1,0.087-0.202,0.127-0.306l0,0c0.016-0.043,0.032-0.085,0.047-0.128c0.126-0.35,0.231-0.72,0.314-1.117l0,0
	c0.005-0.025,0.01-0.053,0.015-0.079C64.167,21.763,64.21,21.497,64.243,21.219L64.243,21.219z M3.102,11.974l1.364,2.594
	l-2.657-0.862C2.035,12.993,2.497,12.386,3.102,11.974z M1.653,14.704c0-0.117,0.006-0.233,0.018-0.348l2.752,0.894l-1.496,2.058
	C2.154,16.703,1.653,15.762,1.653,14.704z M4.959,18.011c-0.529,0-1.027-0.128-1.47-0.349l1.47-2.023l1.47,2.023
	C5.985,17.883,5.487,18.011,4.959,18.011z M6.989,17.308L5.493,15.25l0.17-0.055l2.522,0.221C8.017,16.18,7.585,16.842,6.989,17.308
	z M41.416,31.764l0.814-3.693c0.015-0.066,0.021-0.132,0.021-0.199h8.627c0,0.067,0.006,0.133,0.021,0.199l0.814,3.693H41.416z"/>
</svg>