<!-- Generator: Adobe Illustrator 17.0.0, SVG Export Plug-In  -->
<svg version="1.1"
	 xmlns="http://www.w3.org/2000/svg" xmlns:xlink="http://www.w3.org/1999/xlink" xmlns:a="http://ns.adobe.com/AdobeSVGViewerExtensions/3.0/"
	 x="0px" y="0px" width="836.392px" height="836.392px" viewBox="0 0 836.392 836.392" enable-background="new 0 0 836.392 836.392"
	 xml:space="preserve">
<defs>
</defs>
<rect id="bg_1_" x="0" y="0" fill="#D9EEEF" width="836.392" height="836.392"/>
<g>
	<polygon fill="#AED7D8" points="807.44,237.406 807.44,214.888 768.837,195.587 768.837,237.406 762.403,237.406 762.403,536.577 
		836.392,536.577 836.392,237.406 	"/>
	<g>
		<g opacity="0.4">
			<rect x="772.054" y="249.47" fill="#AED7D8" width="12.063" height="12.063"/>
			<rect x="793.768" y="249.47" fill="#AED7D8" width="12.063" height="12.063"/>
			<rect x="815.482" y="249.47" fill="#AED7D8" width="12.063" height="12.063"/>
		</g>
		<g opacity="0.4">
			<rect x="772.054" y="275.206" fill="#AED7D8" width="12.063" height="12.064"/>
			<rect x="793.768" y="275.206" fill="#AED7D8" width="12.063" height="12.064"/>
			<rect x="815.482" y="275.206" fill="#AED7D8" width="12.063" height="12.064"/>
		</g>
		<g opacity="0.4">
			<rect x="772.054" y="300.939" fill="#AED7D8" width="12.063" height="12.064"/>
			<rect x="793.768" y="300.939" fill="#AED7D8" width="12.063" height="12.064"/>
			<rect x="815.482" y="300.939" fill="#AED7D8" width="12.063" height="12.064"/>
		</g>
		<g opacity="0.4">
			<rect x="772.054" y="326.676" fill="#AED7D8" width="12.063" height="12.063"/>
			<rect x="793.768" y="326.676" fill="#AED7D8" width="12.063" height="12.063"/>
			<rect x="815.482" y="326.676" fill="#AED7D8" width="12.063" height="12.063"/>
		</g>
	</g>
</g>
<g>
	<rect x="629.867" y="137.684" opacity="0.8" fill="#A5DAD5" width="128.676" height="398.894"/>
	<g opacity="0.4">
		<rect x="642.735" y="153.768" fill="#AED7D8" width="16.084" height="16.084"/>
		<rect x="671.687" y="153.768" fill="#AED7D8" width="16.085" height="16.084"/>
		<rect x="700.639" y="153.768" fill="#AED7D8" width="16.085" height="16.084"/>
		<rect x="729.591" y="153.768" fill="#AED7D8" width="16.084" height="16.084"/>
	</g>
	<g opacity="0.4">
		<rect x="642.735" y="188.08" fill="#AED7D8" width="16.084" height="16.085"/>
		<rect x="671.687" y="188.08" fill="#AED7D8" width="16.085" height="16.085"/>
		<rect x="700.639" y="188.08" fill="#AED7D8" width="16.085" height="16.085"/>
		<rect x="729.591" y="188.08" fill="#AED7D8" width="16.084" height="16.085"/>
	</g>
	<g opacity="0.4">
		<rect x="642.735" y="222.395" fill="#AED7D8" width="16.084" height="16.085"/>
		<rect x="671.687" y="222.395" fill="#AED7D8" width="16.085" height="16.085"/>
		<rect x="700.639" y="222.395" fill="#AED7D8" width="16.085" height="16.085"/>
		<rect x="729.591" y="222.395" fill="#AED7D8" width="16.084" height="16.085"/>
	</g>
	<g opacity="0.4">
		<rect x="642.735" y="256.708" fill="#AED7D8" width="16.084" height="16.085"/>
		<rect x="671.687" y="256.708" fill="#AED7D8" width="16.085" height="16.085"/>
		<rect x="700.639" y="256.708" fill="#AED7D8" width="16.085" height="16.085"/>
		<rect x="729.591" y="256.708" fill="#AED7D8" width="16.084" height="16.085"/>
	</g>
</g>
<g>
	<polygon opacity="0.4" fill="#A5DAD5" points="596.439,218.105 596.439,202.021 617.633,202.021 617.633,218.105 626.715,218.105 
		626.715,536.577 523.775,536.577 523.775,218.105 	"/>
	<g opacity="0.4">
		<rect x="606.208" y="265.863" fill="#AED7D8" width="14.074" height="14.072"/>
		<rect x="580.874" y="265.863" fill="#AED7D8" width="14.074" height="14.072"/>
		<rect x="555.541" y="265.863" fill="#AED7D8" width="14.074" height="14.072"/>
		<rect x="530.208" y="265.863" fill="#AED7D8" width="14.074" height="14.072"/>
		<rect x="606.208" y="235.839" fill="#AED7D8" width="14.074" height="14.073"/>
		<rect x="580.874" y="235.839" fill="#AED7D8" width="14.074" height="14.073"/>
		<rect x="555.541" y="235.839" fill="#AED7D8" width="14.074" height="14.073"/>
		<rect x="530.208" y="235.839" fill="#AED7D8" width="14.074" height="14.073"/>
	</g>
</g>
<g>
	<polygon opacity="0.4" fill="#A5DAD5" points="453.582,237.406 408.545,237.406 408.545,536.577 482.534,536.577 482.534,237.406 	
		"/>
	<g>
		<g opacity="0.4">
			<rect x="418.196" y="249.47" fill="#AED7D8" width="12.063" height="12.063"/>
			<rect x="439.91" y="249.47" fill="#AED7D8" width="12.064" height="12.063"/>
			<rect x="461.624" y="249.47" fill="#AED7D8" width="12.063" height="12.063"/>
		</g>
		<g opacity="0.4">
			<rect x="418.196" y="275.206" fill="#AED7D8" width="12.063" height="12.064"/>
			<rect x="439.91" y="275.206" fill="#AED7D8" width="12.064" height="12.064"/>
			<rect x="461.624" y="275.206" fill="#AED7D8" width="12.063" height="12.064"/>
		</g>
		<g opacity="0.4">
			<rect x="418.196" y="300.939" fill="#AED7D8" width="12.063" height="12.064"/>
			<rect x="439.91" y="300.939" fill="#AED7D8" width="12.064" height="12.064"/>
			<rect x="461.624" y="300.939" fill="#AED7D8" width="12.063" height="12.064"/>
		</g>
		<g opacity="0.4">
			<rect x="418.196" y="326.676" fill="#AED7D8" width="12.063" height="12.063"/>
			<rect x="439.91" y="326.676" fill="#AED7D8" width="12.064" height="12.063"/>
			<rect x="461.624" y="326.676" fill="#AED7D8" width="12.063" height="12.063"/>
		</g>
	</g>
</g>
<polygon fill="#AED7D8" points="339.06,211.671 339.06,197.195 329.409,197.195 329.409,166.635 326.193,166.635 326.193,197.195 
	316.542,197.195 316.542,211.671 316.542,213.279 316.542,536.577 403.398,536.577 403.398,211.671 "/>
<g>
	<polygon opacity="0.8" fill="#A5DAD5" points="304.318,134.466 201.377,134.466 194.944,134.466 194.944,140.9 201.377,140.9 
		201.377,536.577 304.318,536.577 304.318,140.9 310.752,140.9 310.752,134.466 	"/>
	<g opacity="0.4">
		<rect x="271.978" y="184.905" fill="#AED7D8" width="14.074" height="14.073"/>
		<rect x="246.645" y="184.905" fill="#AED7D8" width="14.073" height="14.073"/>
		<rect x="221.312" y="184.905" fill="#AED7D8" width="14.074" height="14.073"/>
		<rect x="271.978" y="154.879" fill="#AED7D8" width="14.074" height="14.075"/>
		<rect x="246.645" y="154.879" fill="#AED7D8" width="14.073" height="14.075"/>
		<rect x="221.312" y="154.879" fill="#AED7D8" width="14.074" height="14.075"/>
	</g>
</g>
<g>
	<polygon opacity="0.4" fill="#A5DAD5" points="118.382,218.105 118.382,202.021 95.863,202.021 95.863,218.105 86.213,218.105 
		86.213,536.577 195.587,536.577 195.587,218.105 	"/>
	<g opacity="0.4">
		<rect x="95.863" y="265.863" fill="#AED7D8" width="14.074" height="14.072"/>
		<rect x="121.197" y="265.863" fill="#AED7D8" width="14.074" height="14.072"/>
		<rect x="146.53" y="265.863" fill="#AED7D8" width="14.074" height="14.072"/>
		<rect x="171.862" y="265.863" fill="#AED7D8" width="14.074" height="14.072"/>
		<rect x="95.863" y="235.839" fill="#AED7D8" width="14.074" height="14.073"/>
		<rect x="121.197" y="235.839" fill="#AED7D8" width="14.074" height="14.073"/>
		<rect x="146.53" y="235.839" fill="#AED7D8" width="14.074" height="14.073"/>
		<rect x="171.862" y="235.839" fill="#AED7D8" width="14.074" height="14.073"/>
	</g>
</g>
<g>
	<polygon fill="#AED7D8" points="58.548,156.983 58.548,142.508 68.198,142.508 68.198,111.948 71.415,111.948 71.415,142.508 
		81.066,142.508 81.066,156.983 81.066,158.593 81.066,536.577 0.644,536.577 0.644,156.983 	"/>
	<g>
		<g opacity="0.4">
			<rect x="12.867" y="176.928" fill="#AED7D8" width="12.063" height="12.066"/>
			<rect x="34.581" y="176.928" fill="#AED7D8" width="12.064" height="12.066"/>
			<rect x="56.296" y="176.928" fill="#AED7D8" width="12.064" height="12.066"/>
		</g>
		<g opacity="0.4">
			<rect x="12.867" y="202.664" fill="#AED7D8" width="12.063" height="12.064"/>
			<rect x="34.581" y="202.664" fill="#AED7D8" width="12.064" height="12.064"/>
			<rect x="56.296" y="202.664" fill="#AED7D8" width="12.064" height="12.064"/>
		</g>
		<g opacity="0.4">
			<rect x="12.867" y="228.399" fill="#AED7D8" width="12.063" height="12.064"/>
			<rect x="34.581" y="228.399" fill="#AED7D8" width="12.064" height="12.064"/>
			<rect x="56.296" y="228.399" fill="#AED7D8" width="12.064" height="12.064"/>
		</g>
		<g opacity="0.4">
			<rect x="12.867" y="254.135" fill="#AED7D8" width="12.063" height="12.063"/>
			<rect x="34.581" y="254.135" fill="#AED7D8" width="12.064" height="12.063"/>
			<rect x="56.296" y="254.135" fill="#AED7D8" width="12.064" height="12.063"/>
		</g>
	</g>
</g>
<g id="hospital_1_">
	<g>
		<rect x="521.136" y="331.34" fill="#FFFFFF" width="205.881" height="199.447"/>
		<rect x="517.92" y="331.34" fill="#E7E7E7" width="3.217" height="199.447"/>
		<g>
			<g>
				<rect x="537.221" y="350.641" fill="#E7E7E7" width="38.603" height="51.47"/>
				<g>
					<path fill="#85CFC8" d="M540.279,356.233v40.288c0,1.31,1.064,2.374,2.375,2.374h27.736c1.312,0,2.375-1.064,2.375-2.374
						v-40.288c0-1.31-1.064-2.374-2.375-2.374h-27.736C541.342,353.858,540.279,354.923,540.279,356.233z"/>
					<polygon fill="#FFFFFF" points="555.322,398.895 572.766,378.21 572.766,369.369 547.865,398.895 					"/>
					<polygon fill="#FFFFFF" points="566.096,398.895 572.766,390.986 572.766,385.092 561.125,398.895 					"/>
				</g>
			</g>
			<g>
				<rect x="582.257" y="350.641" fill="#E7E7E7" width="38.603" height="51.47"/>
				<g>
					<path fill="#85CFC8" d="M585.315,356.233v40.288c0,1.31,1.063,2.374,2.375,2.374h27.736c1.312,0,2.376-1.064,2.376-2.374
						v-40.288c0-1.31-1.063-2.374-2.376-2.374H587.69C586.379,353.858,585.315,354.923,585.315,356.233z"/>
					<polygon fill="#FFFFFF" points="600.358,398.895 617.802,378.21 617.802,369.369 592.901,398.895 					"/>
					<polygon fill="#FFFFFF" points="611.132,398.895 617.802,390.986 617.802,385.092 606.161,398.895 					"/>
				</g>
			</g>
			<g>
				<rect x="627.294" y="350.641" fill="#E7E7E7" width="38.603" height="51.47"/>
				<g>
					<path fill="#85CFC8" d="M630.352,356.233v40.288c0,1.31,1.063,2.374,2.375,2.374h27.736c1.312,0,2.376-1.064,2.376-2.374
						v-40.288c0-1.31-1.063-2.374-2.376-2.374h-27.736C631.415,353.858,630.352,354.923,630.352,356.233z"/>
					<polygon fill="#FFFFFF" points="645.394,398.895 662.838,378.21 662.838,369.369 637.938,398.895 					"/>
					<polygon fill="#FFFFFF" points="656.169,398.895 662.838,390.986 662.838,385.092 651.198,398.895 					"/>
				</g>
			</g>
			<g>
				<rect x="672.33" y="350.641" fill="#E7E7E7" width="38.603" height="51.47"/>
				<g>
					<path fill="#85CFC8" d="M675.388,356.233v40.288c0,1.31,1.063,2.374,2.376,2.374H705.5c1.312,0,2.375-1.064,2.375-2.374
						v-40.288c0-1.31-1.063-2.374-2.375-2.374h-27.736C676.452,353.858,675.388,354.923,675.388,356.233z"/>
					<polygon fill="#FFFFFF" points="690.431,398.895 707.875,378.21 707.875,369.369 682.974,398.895 					"/>
					<polygon fill="#FFFFFF" points="701.206,398.895 707.875,390.986 707.875,385.092 696.234,398.895 					"/>
				</g>
			</g>
			<g>
				<rect x="530.787" y="405.329" fill="#DCDDDE" width="186.58" height="3.217"/>
				<rect x="530.787" y="402.11" fill="#F2F2F2" width="186.58" height="3.219"/>
			</g>
		</g>
		<g>
			<g>
				<rect x="537.221" y="424.63" fill="#E7E7E7" width="38.603" height="51.47"/>
				<g>
					<path fill="#85CFC8" d="M540.279,430.222v40.286c0,1.311,1.064,2.376,2.375,2.376h27.736c1.312,0,2.375-1.064,2.375-2.376
						v-40.286c0-1.312-1.064-2.376-2.375-2.376h-27.736C541.342,427.846,540.279,428.91,540.279,430.222z"/>
					<polygon fill="#FFFFFF" points="555.322,472.884 572.766,452.199 572.766,443.358 547.865,472.884 					"/>
					<polygon fill="#FFFFFF" points="566.096,472.884 572.766,464.975 572.766,459.08 561.125,472.884 					"/>
				</g>
			</g>
			<g>
				<rect x="582.257" y="424.63" fill="#E7E7E7" width="38.603" height="51.47"/>
				<g>
					<path fill="#85CFC8" d="M585.315,430.222v40.286c0,1.311,1.063,2.376,2.375,2.376h27.736c1.312,0,2.376-1.064,2.376-2.376
						v-40.286c0-1.312-1.063-2.376-2.376-2.376H587.69C586.379,427.846,585.315,428.91,585.315,430.222z"/>
					<polygon fill="#FFFFFF" points="600.358,472.884 617.802,452.199 617.802,443.358 592.901,472.884 					"/>
					<polygon fill="#FFFFFF" points="611.132,472.884 617.802,464.975 617.802,459.08 606.161,472.884 					"/>
				</g>
			</g>
			<g>
				<rect x="627.294" y="424.63" fill="#E7E7E7" width="38.603" height="51.47"/>
				<g>
					<path fill="#85CFC8" d="M630.352,430.222v40.286c0,1.311,1.063,2.376,2.375,2.376h27.736c1.312,0,2.376-1.064,2.376-2.376
						v-40.286c0-1.312-1.063-2.376-2.376-2.376h-27.736C631.415,427.846,630.352,428.91,630.352,430.222z"/>
					<polygon fill="#FFFFFF" points="645.394,472.884 662.838,452.199 662.838,443.358 637.938,472.884 					"/>
					<polygon fill="#FFFFFF" points="656.169,472.884 662.838,464.975 662.838,459.08 651.198,472.884 					"/>
				</g>
			</g>
			<g>
				<rect x="672.33" y="424.63" fill="#E7E7E7" width="38.603" height="51.47"/>
				<g>
					<path fill="#85CFC8" d="M675.388,430.222v40.286c0,1.311,1.063,2.376,2.376,2.376H705.5c1.312,0,2.375-1.064,2.375-2.376
						v-40.286c0-1.312-1.063-2.376-2.375-2.376h-27.736C676.452,427.846,675.388,428.91,675.388,430.222z"/>
					<polygon fill="#FFFFFF" points="690.431,472.884 707.875,452.199 707.875,443.358 682.974,472.884 					"/>
					<polygon fill="#FFFFFF" points="701.206,472.884 707.875,464.975 707.875,459.08 696.234,472.884 					"/>
				</g>
			</g>
			<g>
				<rect x="530.787" y="479.316" fill="#DCDDDE" width="186.58" height="3.218"/>
				<rect x="530.787" y="476.1" fill="#F2F2F2" width="186.58" height="3.217"/>
			</g>
		</g>
		<g>
			<rect x="517.92" y="331.34" fill="#DCDDDE" width="218.748" height="3.217"/>
			<rect x="517.92" y="328.123" fill="#F2F2F2" width="218.748" height="3.217"/>
		</g>
	</g>
	<g>
		<rect x="106.158" y="331.34" fill="#FFFFFF" width="205.881" height="199.447"/>
		<rect x="308.821" y="331.34" fill="#E7E7E7" width="3.217" height="199.447"/>
		<g>
			<g>
				<rect x="119.025" y="350.641" fill="#E7E7E7" width="38.603" height="51.47"/>
				<g>
					<path fill="#85CFC8" d="M122.083,356.233v40.288c0,1.31,1.064,2.374,2.375,2.374h27.736c1.312,0,2.376-1.064,2.376-2.374
						v-40.288c0-1.31-1.064-2.374-2.376-2.374h-27.736C123.147,353.858,122.083,354.923,122.083,356.233z"/>
					<polygon fill="#FFFFFF" points="137.126,398.895 154.57,378.21 154.57,369.369 129.669,398.895 					"/>
					<polygon fill="#FFFFFF" points="147.9,398.895 154.57,390.986 154.57,385.092 142.929,398.895 					"/>
				</g>
			</g>
			<g>
				<rect x="164.062" y="350.641" fill="#E7E7E7" width="38.603" height="51.47"/>
				<g>
					<path fill="#85CFC8" d="M167.12,356.233v40.288c0,1.31,1.063,2.374,2.375,2.374h27.736c1.312,0,2.375-1.064,2.375-2.374
						v-40.288c0-1.31-1.064-2.374-2.375-2.374h-27.736C168.183,353.858,167.12,354.923,167.12,356.233z"/>
					<polygon fill="#FFFFFF" points="182.162,398.895 199.606,378.21 199.606,369.369 174.706,398.895 					"/>
					<polygon fill="#FFFFFF" points="192.937,398.895 199.606,390.986 199.606,385.092 187.965,398.895 					"/>
				</g>
			</g>
			<g>
				<rect x="209.098" y="350.641" fill="#E7E7E7" width="38.603" height="51.47"/>
				<g>
					<path fill="#85CFC8" d="M212.156,356.233v40.288c0,1.31,1.064,2.374,2.375,2.374h27.736c1.312,0,2.375-1.064,2.375-2.374
						v-40.288c0-1.31-1.063-2.374-2.375-2.374h-27.736C213.219,353.858,212.156,354.923,212.156,356.233z"/>
					<polygon fill="#FFFFFF" points="227.199,398.895 244.643,378.21 244.643,369.369 219.742,398.895 					"/>
					<polygon fill="#FFFFFF" points="237.973,398.895 244.643,390.986 244.643,385.092 233.002,398.895 					"/>
				</g>
			</g>
			<g>
				<rect x="254.134" y="350.641" fill="#E7E7E7" width="38.603" height="51.47"/>
				<g>
					<path fill="#85CFC8" d="M257.192,356.233v40.288c0,1.31,1.064,2.374,2.376,2.374h27.736c1.312,0,2.375-1.064,2.375-2.374
						v-40.288c0-1.31-1.063-2.374-2.375-2.374h-27.736C258.256,353.858,257.192,354.923,257.192,356.233z"/>
					<polygon fill="#FFFFFF" points="272.235,398.895 289.679,378.21 289.679,369.369 264.779,398.895 					"/>
					<polygon fill="#FFFFFF" points="283.01,398.895 289.679,390.986 289.679,385.092 278.038,398.895 					"/>
				</g>
			</g>
			<g>
				<rect x="112.591" y="405.329" fill="#DCDDDE" width="186.58" height="3.217"/>
				<rect x="112.591" y="402.11" fill="#F2F2F2" width="186.58" height="3.219"/>
			</g>
		</g>
		<g>
			<g>
				<rect x="119.025" y="424.63" fill="#E7E7E7" width="38.603" height="51.47"/>
				<g>
					<path fill="#85CFC8" d="M122.083,430.222v40.286c0,1.311,1.064,2.376,2.375,2.376h27.736c1.312,0,2.376-1.064,2.376-2.376
						v-40.286c0-1.312-1.064-2.376-2.376-2.376h-27.736C123.147,427.846,122.083,428.91,122.083,430.222z"/>
					<polygon fill="#FFFFFF" points="137.126,472.884 154.57,452.199 154.57,443.358 129.669,472.884 					"/>
					<polygon fill="#FFFFFF" points="147.9,472.884 154.57,464.975 154.57,459.08 142.929,472.884 					"/>
				</g>
			</g>
			<g>
				<rect x="164.062" y="424.63" fill="#E7E7E7" width="38.603" height="51.47"/>
				<g>
					<path fill="#85CFC8" d="M167.12,430.222v40.286c0,1.311,1.063,2.376,2.375,2.376h27.736c1.312,0,2.375-1.064,2.375-2.376
						v-40.286c0-1.312-1.064-2.376-2.375-2.376h-27.736C168.183,427.846,167.12,428.91,167.12,430.222z"/>
					<polygon fill="#FFFFFF" points="182.162,472.884 199.606,452.199 199.606,443.358 174.706,472.884 					"/>
					<polygon fill="#FFFFFF" points="192.937,472.884 199.606,464.975 199.606,459.08 187.965,472.884 					"/>
				</g>
			</g>
			<g>
				<rect x="209.098" y="424.63" fill="#E7E7E7" width="38.603" height="51.47"/>
				<g>
					<path fill="#85CFC8" d="M212.156,430.222v40.286c0,1.311,1.064,2.376,2.375,2.376h27.736c1.312,0,2.375-1.064,2.375-2.376
						v-40.286c0-1.312-1.063-2.376-2.375-2.376h-27.736C213.219,427.846,212.156,428.91,212.156,430.222z"/>
					<polygon fill="#FFFFFF" points="227.199,472.884 244.643,452.199 244.643,443.358 219.742,472.884 					"/>
					<polygon fill="#FFFFFF" points="237.973,472.884 244.643,464.975 244.643,459.08 233.002,472.884 					"/>
				</g>
			</g>
			<g>
				<rect x="254.134" y="424.63" fill="#E7E7E7" width="38.603" height="51.47"/>
				<g>
					<path fill="#85CFC8" d="M257.192,430.222v40.286c0,1.311,1.064,2.376,2.376,2.376h27.736c1.312,0,2.375-1.064,2.375-2.376
						v-40.286c0-1.312-1.063-2.376-2.375-2.376h-27.736C258.256,427.846,257.192,428.91,257.192,430.222z"/>
					<polygon fill="#FFFFFF" points="272.235,472.884 289.679,452.199 289.679,443.358 264.779,472.884 					"/>
					<polygon fill="#FFFFFF" points="283.01,472.884 289.679,464.975 289.679,459.08 278.038,472.884 					"/>
				</g>
			</g>
			<g>
				<rect x="112.591" y="479.316" fill="#DCDDDE" width="186.58" height="3.218"/>
				<rect x="112.591" y="476.1" fill="#F2F2F2" width="186.58" height="3.217"/>
			</g>
		</g>
		<g>
			<rect x="99.723" y="331.34" fill="#DCDDDE" width="218.749" height="3.217"/>
			<rect x="99.723" y="328.123" fill="#F2F2F2" width="218.749" height="3.217"/>
		</g>
	</g>
	<polygon fill="#EEEDEE" points="521.136,334.557 521.136,530.787 624.635,530.787 	"/>
	<g>
		<rect x="312.038" y="186.58" fill="#FFFFFF" width="205.881" height="344.207"/>
		<g>
			<rect x="345.816" y="427.846" fill="#E7E7E7" width="138.326" height="102.941"/>
			<g>
				<g>
					<rect x="349.033" y="427.846" fill="#85CFC8" width="64.338" height="102.941"/>
				</g>
				<polygon fill="#FFFFFF" points="413.371,427.846 349.033,495.401 349.033,427.846 				"/>
			</g>
			<g>
				<g>
					<rect x="416.588" y="427.846" fill="#85CFC8" width="64.338" height="102.941"/>
				</g>
				<polygon fill="#FFFFFF" points="480.925,427.846 416.588,495.401 416.588,427.846 				"/>
			</g>
			<path fill="#43414D" d="M407.098,480.604c-0.711,0-1.287-0.577-1.287-1.287v-9.65c0-0.711,0.576-1.287,1.287-1.287
				s1.287,0.576,1.287,1.287v9.65C408.385,480.026,407.808,480.604,407.098,480.604z"/>
			<path fill="#43414D" d="M422.861,480.604c-0.711,0-1.287-0.577-1.287-1.287v-9.65c0-0.711,0.576-1.287,1.287-1.287
				c0.711,0,1.286,0.576,1.286,1.287v9.65C424.147,480.026,423.571,480.604,422.861,480.604z"/>
			<g>
				<rect x="340.991" y="427.846" fill="#DCDDDE" width="147.977" height="3.219"/>
				<rect x="340.991" y="424.63" fill="#F2F2F2" width="147.977" height="3.216"/>
			</g>
		</g>
		<g>
			<g>
				<rect x="328.668" y="350.641" fill="#E7E7E7" width="38.602" height="51.47"/>
				<g>
					<path fill="#85CFC8" d="M331.726,356.233v40.288c0,1.31,1.064,2.374,2.375,2.374h27.736c1.312,0,2.375-1.064,2.375-2.374
						v-40.288c0-1.31-1.064-2.374-2.375-2.374h-27.736C332.789,353.858,331.726,354.923,331.726,356.233z"/>
					<polygon fill="#FFFFFF" points="346.769,398.895 364.213,378.21 364.213,369.369 339.312,398.895 					"/>
					<polygon fill="#FFFFFF" points="357.543,398.895 364.213,390.986 364.213,385.092 352.572,398.895 					"/>
				</g>
			</g>
			<g>
				<rect x="373.704" y="350.641" fill="#E7E7E7" width="38.603" height="51.47"/>
				<g>
					<path fill="#85CFC8" d="M376.762,356.233v40.288c0,1.31,1.063,2.374,2.375,2.374h27.736c1.312,0,2.375-1.064,2.375-2.374
						v-40.288c0-1.31-1.063-2.374-2.375-2.374h-27.736C377.826,353.858,376.762,354.923,376.762,356.233z"/>
					<polygon fill="#FFFFFF" points="391.805,398.895 409.249,378.21 409.249,369.369 384.349,398.895 					"/>
					<polygon fill="#FFFFFF" points="402.579,398.895 409.249,390.986 409.249,385.092 397.608,398.895 					"/>
				</g>
			</g>
			<g>
				<rect x="418.741" y="350.641" fill="#E7E7E7" width="38.602" height="51.47"/>
				<g>
					<path fill="#85CFC8" d="M421.798,356.233v40.288c0,1.31,1.064,2.374,2.376,2.374h27.736c1.312,0,2.376-1.064,2.376-2.374
						v-40.288c0-1.31-1.064-2.374-2.376-2.374h-27.736C422.862,353.858,421.798,354.923,421.798,356.233z"/>
					<polygon fill="#FFFFFF" points="436.842,398.895 454.286,378.21 454.286,369.369 429.385,398.895 					"/>
					<polygon fill="#FFFFFF" points="447.616,398.895 454.286,390.986 454.286,385.092 442.645,398.895 					"/>
				</g>
			</g>
			<g>
				<rect x="463.777" y="350.641" fill="#E7E7E7" width="38.603" height="51.47"/>
				<g>
					<path fill="#85CFC8" d="M466.835,356.233v40.288c0,1.31,1.064,2.374,2.375,2.374h27.736c1.313,0,2.376-1.064,2.376-2.374
						v-40.288c0-1.31-1.063-2.374-2.376-2.374H469.21C467.899,353.858,466.835,354.923,466.835,356.233z"/>
					<polygon fill="#FFFFFF" points="481.878,398.895 499.322,378.21 499.322,369.369 474.422,398.895 					"/>
					<polygon fill="#FFFFFF" points="492.652,398.895 499.322,390.986 499.322,385.092 487.682,398.895 					"/>
				</g>
			</g>
			<g>
				<rect x="322.234" y="405.329" fill="#DCDDDE" width="186.58" height="3.217"/>
				<rect x="322.234" y="402.11" fill="#F2F2F2" width="186.58" height="3.219"/>
			</g>
		</g>
		<g>
			<g>
				<rect x="328.668" y="276.652" fill="#E7E7E7" width="38.602" height="51.471"/>
				<g>
					<path fill="#85CFC8" d="M331.726,282.244v40.287c0,1.31,1.064,2.376,2.375,2.376h27.736c1.312,0,2.375-1.065,2.375-2.376
						v-40.287c0-1.311-1.064-2.374-2.375-2.374h-27.736C332.789,279.87,331.726,280.933,331.726,282.244z"/>
					<polygon fill="#FFFFFF" points="346.769,324.907 364.213,304.222 364.213,295.381 339.312,324.907 					"/>
					<polygon fill="#FFFFFF" points="357.543,324.907 364.213,316.998 364.213,311.102 352.572,324.907 					"/>
				</g>
			</g>
			<g>
				<rect x="373.704" y="276.652" fill="#E7E7E7" width="38.603" height="51.471"/>
				<g>
					<path fill="#85CFC8" d="M376.762,282.244v40.287c0,1.31,1.063,2.376,2.375,2.376h27.736c1.312,0,2.375-1.065,2.375-2.376
						v-40.287c0-1.311-1.063-2.374-2.375-2.374h-27.736C377.826,279.87,376.762,280.933,376.762,282.244z"/>
					<polygon fill="#FFFFFF" points="391.805,324.907 409.249,304.222 409.249,295.381 384.349,324.907 					"/>
					<polygon fill="#FFFFFF" points="402.579,324.907 409.249,316.998 409.249,311.102 397.608,324.907 					"/>
				</g>
			</g>
			<g>
				<rect x="418.741" y="276.652" fill="#E7E7E7" width="38.602" height="51.471"/>
				<g>
					<path fill="#85CFC8" d="M421.798,282.244v40.287c0,1.31,1.064,2.376,2.376,2.376h27.736c1.312,0,2.376-1.065,2.376-2.376
						v-40.287c0-1.311-1.064-2.374-2.376-2.374h-27.736C422.862,279.87,421.798,280.933,421.798,282.244z"/>
					<polygon fill="#FFFFFF" points="436.842,324.907 454.286,304.222 454.286,295.381 429.385,324.907 					"/>
					<polygon fill="#FFFFFF" points="447.616,324.907 454.286,316.998 454.286,311.102 442.645,324.907 					"/>
				</g>
			</g>
			<g>
				<rect x="463.777" y="276.652" fill="#E7E7E7" width="38.603" height="51.471"/>
				<g>
					<path fill="#85CFC8" d="M466.835,282.244v40.287c0,1.31,1.064,2.376,2.375,2.376h27.736c1.313,0,2.376-1.065,2.376-2.376
						v-40.287c0-1.311-1.063-2.374-2.376-2.374H469.21C467.899,279.87,466.835,280.933,466.835,282.244z"/>
					<polygon fill="#FFFFFF" points="481.878,324.907 499.322,304.222 499.322,295.381 474.422,324.907 					"/>
					<polygon fill="#FFFFFF" points="492.652,324.907 499.322,316.998 499.322,311.102 487.682,324.907 					"/>
				</g>
			</g>
			<g>
				<rect x="322.234" y="331.34" fill="#DCDDDE" width="186.58" height="3.217"/>
				<rect x="322.234" y="328.123" fill="#F2F2F2" width="186.58" height="3.217"/>
			</g>
		</g>
		<g>
			<g>
				<rect x="328.668" y="202.664" fill="#E7E7E7" width="38.602" height="51.471"/>
				<g>
					<path fill="#85CFC8" d="M331.726,208.257v40.285c0,1.312,1.064,2.376,2.375,2.376h27.736c1.312,0,2.375-1.064,2.375-2.376
						v-40.285c0-1.313-1.064-2.376-2.375-2.376h-27.736C332.789,205.881,331.726,206.944,331.726,208.257z"/>
					<polygon fill="#FFFFFF" points="346.769,250.918 364.213,230.232 364.213,221.393 339.312,250.918 					"/>
					<polygon fill="#FFFFFF" points="357.543,250.918 364.213,243.01 364.213,237.114 352.572,250.918 					"/>
				</g>
			</g>
			<g>
				<rect x="373.704" y="202.664" fill="#E7E7E7" width="38.603" height="51.471"/>
				<g>
					<path fill="#85CFC8" d="M376.762,208.257v40.285c0,1.312,1.063,2.376,2.375,2.376h27.736c1.312,0,2.375-1.064,2.375-2.376
						v-40.285c0-1.313-1.063-2.376-2.375-2.376h-27.736C377.826,205.881,376.762,206.944,376.762,208.257z"/>
					<polygon fill="#FFFFFF" points="391.805,250.918 409.249,230.232 409.249,221.393 384.349,250.918 					"/>
					<polygon fill="#FFFFFF" points="402.579,250.918 409.249,243.01 409.249,237.114 397.608,250.918 					"/>
				</g>
			</g>
			<g>
				<rect x="418.741" y="202.664" fill="#E7E7E7" width="38.602" height="51.471"/>
				<g>
					<path fill="#85CFC8" d="M421.798,208.257v40.285c0,1.312,1.064,2.376,2.376,2.376h27.736c1.312,0,2.376-1.064,2.376-2.376
						v-40.285c0-1.313-1.064-2.376-2.376-2.376h-27.736C422.862,205.881,421.798,206.944,421.798,208.257z"/>
					<polygon fill="#FFFFFF" points="436.842,250.918 454.286,230.232 454.286,221.393 429.385,250.918 					"/>
					<polygon fill="#FFFFFF" points="447.616,250.918 454.286,243.01 454.286,237.114 442.645,250.918 					"/>
				</g>
			</g>
			<g>
				<rect x="463.777" y="202.664" fill="#E7E7E7" width="38.603" height="51.471"/>
				<g>
					<path fill="#85CFC8" d="M466.835,208.257v40.285c0,1.312,1.064,2.376,2.375,2.376h27.736c1.313,0,2.376-1.064,2.376-2.376
						v-40.285c0-1.313-1.063-2.376-2.376-2.376H469.21C467.899,205.881,466.835,206.944,466.835,208.257z"/>
					<polygon fill="#FFFFFF" points="481.878,250.918 499.322,230.232 499.322,221.393 474.422,250.918 					"/>
					<polygon fill="#FFFFFF" points="492.652,250.918 499.322,243.01 499.322,237.114 487.682,250.918 					"/>
				</g>
			</g>
			<g>
				<rect x="322.234" y="257.352" fill="#DCDDDE" width="186.58" height="3.216"/>
				<rect x="322.234" y="254.135" fill="#F2F2F2" width="186.58" height="3.217"/>
			</g>
		</g>
		<g>
			<rect x="305.605" y="189.797" fill="#DCDDDE" width="218.749" height="3.216"/>
			<rect x="305.605" y="186.58" fill="#F2F2F2" width="218.749" height="3.217"/>
		</g>
	</g>
</g>
<g id="bushes_3_">
	<path fill="#6A963E" d="M822.093,503.338c-1.175-8.029-8.09-14.195-16.446-14.195c-2.547,0-4.958,0.574-7.115,1.598
		c-2.831-6.07-8.985-10.279-16.125-10.279c-7.878,0-14.555,5.123-16.893,12.217c-1.201-0.453-2.502-0.703-3.861-0.703
		c-5.925,0-10.744,4.722-10.905,10.607c-7.829,0.311-14.081,6.752-14.081,14.656c0,8.103,6.568,14.671,14.671,14.671
		c0.242,0,0.483-0.006,0.722-0.018c-0.036,0.441-0.06,0.887-0.06,1.339c0,8.981,7.28,16.261,16.26,16.261
		c8.027,0,14.691-5.818,16.016-13.465c1.214,4.402,5.245,7.637,10.034,7.637c5.749,0,10.409-4.66,10.409-10.408
		c0-0.273-0.013-0.542-0.034-0.811c2.073,0.892,4.355,1.389,6.756,1.389c9.449,0,17.108-7.66,17.108-17.109
		C828.55,511.303,826.027,506.475,822.093,503.338z"/>
	<path fill="#8DC442" d="M800.627,506.505c0.067-0.497,0.106-1.003,0.106-1.518c0-6.142-4.978-11.12-11.119-11.12
		c-3.701,0-6.977,1.811-8.999,4.592c-0.219-7.021-5.977-12.647-13.052-12.647c-3.644,0-6.938,1.494-9.307,3.9
		c-3.154-2.887-7.353-4.65-11.965-4.65c-9.788,0-17.723,7.935-17.723,17.723c0,0.277,0.009,0.553,0.021,0.828
		c-7.724,1.999-13.429,9.016-13.429,17.365c0,9.905,8.03,17.938,17.937,17.938c2.484,0,4.85-0.507,7.001-1.419
		c-0.042,0.46-0.066,0.925-0.066,1.396c0,8.394,6.805,15.199,15.2,15.199c6.202,0,11.534-3.717,13.896-9.044
		c2.315,3.548,6.316,5.892,10.866,5.892c7.163,0,12.97-5.806,12.97-12.969c0-1.89-0.407-3.684-1.133-5.302
		c0.735-0.54,1.427-1.104,2.07-1.688c1.733,0.861,3.686,1.35,5.753,1.35c7.143,0,12.932-5.79,12.932-12.934
		C812.586,512.583,807.315,507.003,800.627,506.505z"/>
</g>
<g id="bushes_1_">
	<path fill="#6A963E" d="M95.076,503.338c-1.175-8.029-8.09-14.195-16.446-14.195c-2.546,0-4.958,0.574-7.115,1.598
		c-2.831-6.07-8.985-10.279-16.126-10.279c-7.878,0-14.555,5.123-16.893,12.217c-1.201-0.453-2.501-0.703-3.861-0.703
		c-5.925,0-10.744,4.722-10.905,10.607c-7.828,0.311-14.08,6.752-14.08,14.656c0,8.103,6.568,14.671,14.671,14.671
		c0.242,0,0.483-0.006,0.722-0.018c-0.036,0.441-0.059,0.887-0.059,1.339c0,8.981,7.28,16.261,16.26,16.261
		c8.027,0,14.69-5.818,16.016-13.465c1.213,4.402,5.245,7.637,10.034,7.637c5.749,0,10.41-4.66,10.41-10.408
		c0-0.273-0.014-0.542-0.034-0.811c2.073,0.892,4.356,1.389,6.756,1.389c9.449,0,17.109-7.66,17.109-17.109
		C101.533,511.303,99.009,506.475,95.076,503.338z"/>
	<path fill="#8DC442" d="M126.367,506.505c0.068-0.497,0.106-1.003,0.106-1.518c0-6.142-4.978-11.12-11.119-11.12
		c-3.701,0-6.978,1.811-8.999,4.592c-0.22-7.021-5.977-12.647-13.052-12.647c-3.644,0-6.938,1.494-9.308,3.9
		c-3.153-2.887-7.353-4.65-11.965-4.65c-9.788,0-17.723,7.935-17.723,17.723c0,0.277,0.008,0.553,0.021,0.828
		c-7.724,1.999-13.43,9.016-13.43,17.365c0,9.905,8.03,17.938,17.937,17.938c2.484,0,4.851-0.507,7.002-1.419
		c-0.042,0.46-0.066,0.925-0.066,1.396c0,8.394,6.805,15.199,15.2,15.199c6.203,0,11.533-3.717,13.897-9.044
		c2.315,3.548,6.316,5.892,10.866,5.892c7.163,0,12.97-5.806,12.97-12.969c0-1.89-0.407-3.684-1.133-5.302
		c0.735-0.54,1.427-1.104,2.071-1.688c1.733,0.861,3.686,1.35,5.753,1.35c7.143,0,12.933-5.79,12.933-12.934
		C138.326,512.583,133.054,507.003,126.367,506.505z"/>
</g>
<g id="tree_2_">
	<g>
		<circle fill="#6A963E" cx="57.736" cy="447.786" r="17.371"/>
		<circle fill="#6A963E" cx="120.604" cy="447.786" r="17.371"/>
		<g>
			<path fill="#8EC640" d="M137.975,421.315c0,9.144-7.063,16.637-16.028,17.322h-0.007c-8.965-0.686-16.028-8.179-16.028-17.322
				c0-9.141,7.063-16.634,16.028-17.32h0.007C130.912,404.681,137.975,412.174,137.975,421.315z"/>
			<path fill="#6A963E" d="M121.939,438.637c-0.441,0.033-0.886,0.051-1.336,0.051c-9.594,0-17.371-7.779-17.371-17.373
				c0-9.594,7.777-17.37,17.371-17.37c0.45,0,0.895,0.017,1.336,0.05c-8.965,0.686-16.028,8.18-16.028,17.32
				C105.911,430.458,112.974,437.951,121.939,438.637z"/>
		</g>
		<g>
			<path fill="#8EC640" d="M75.107,421.315c0,9.144-7.063,16.637-16.028,17.322h-0.007c-8.965-0.686-16.028-8.179-16.028-17.322
				c0-9.141,7.063-16.634,16.028-17.32h0.007C68.044,404.681,75.107,412.174,75.107,421.315z"/>
			<path fill="#6A963E" d="M59.072,438.637c-0.441,0.033-0.886,0.051-1.336,0.051c-9.594,0-17.372-7.779-17.372-17.373
				c0-9.594,7.777-17.37,17.372-17.37c0.45,0,0.895,0.017,1.336,0.05c-8.965,0.686-16.028,8.18-16.028,17.32
				C43.044,430.458,50.107,437.951,59.072,438.637z"/>
		</g>
		<g>
			<path fill="#8EC640" d="M147.077,349.678c0,30.476-23.544,55.449-53.428,57.737h-0.023
				c-29.884-2.288-53.428-27.262-53.428-57.737c0-30.474,23.544-55.448,53.428-57.734h0.023
				C123.533,294.229,147.077,319.204,147.077,349.678z"/>
			<path fill="#6A963E" d="M93.625,407.415c-1.471,0.108-2.953,0.168-4.453,0.168c-31.98,0-57.904-25.924-57.904-57.905
				c0-31.978,25.923-57.902,57.904-57.902c1.5,0,2.982,0.057,4.453,0.168c-29.884,2.286-53.428,27.261-53.428,57.734
				C40.197,380.153,63.741,405.127,93.625,407.415z"/>
		</g>
		<path fill="#A67D52" d="M89.17,444.304c-0.544,0-1.088-0.145-1.571-0.437L62.784,428.88c-1.438-0.868-1.899-2.735-1.031-4.173
			c0.867-1.438,2.736-1.896,4.172-1.03l23.244,14.038l23.246-14.038c1.433-0.866,3.304-0.407,4.172,1.03
			c0.868,1.438,0.407,3.305-1.031,4.173l-24.816,14.987C90.258,444.159,89.714,444.304,89.17,444.304z"/>
		<path fill="#A67D52" d="M89.17,534.787c-3.654,0-6.617-2.964-6.617-6.618V385.968c0-3.655,2.963-6.619,6.617-6.619
			c3.655,0,6.618,2.964,6.618,6.619v142.201C95.787,531.823,92.824,534.787,89.17,534.787z"/>
		<path fill="#A67D52" d="M89.17,470.775c-0.544,0-1.088-0.145-1.571-0.438l-24.815-14.987c-1.438-0.868-1.899-2.736-1.031-4.173
			c0.867-1.438,2.736-1.896,4.172-1.031l23.244,14.038l23.246-14.038c1.433-0.864,3.304-0.406,4.172,1.031
			c0.868,1.436,0.407,3.305-1.031,4.173l-24.816,14.987C90.258,470.63,89.714,470.775,89.17,470.775z"/>
	</g>
</g>
<g id="tree_1_">
	<g>
		<circle fill="#6A963E" cx="721.96" cy="447.786" r="17.371"/>
		<circle fill="#6A963E" cx="784.827" cy="447.786" r="17.371"/>
		<g>
			<path fill="#8EC640" d="M802.198,421.315c0,9.144-7.063,16.637-16.028,17.322h-0.007c-8.966-0.686-16.029-8.179-16.029-17.322
				c0-9.141,7.063-16.634,16.029-17.32h0.007C795.136,404.681,802.198,412.174,802.198,421.315z"/>
			<path fill="#6A963E" d="M786.163,438.637c-0.441,0.033-0.886,0.051-1.336,0.051c-9.594,0-17.371-7.779-17.371-17.373
				c0-9.594,7.777-17.37,17.371-17.37c0.45,0,0.895,0.017,1.336,0.05c-8.966,0.686-16.029,8.18-16.029,17.32
				C770.134,430.458,777.198,437.951,786.163,438.637z"/>
		</g>
		<g>
			<path fill="#8EC640" d="M739.331,421.315c0,9.144-7.063,16.637-16.029,17.322h-0.007c-8.965-0.686-16.028-8.179-16.028-17.322
				c0-9.141,7.063-16.634,16.028-17.32h0.007C732.268,404.681,739.331,412.174,739.331,421.315z"/>
			<path fill="#6A963E" d="M723.296,438.637c-0.441,0.033-0.885,0.051-1.336,0.051c-9.595,0-17.372-7.779-17.372-17.373
				c0-9.594,7.777-17.37,17.372-17.37c0.45,0,0.894,0.017,1.336,0.05c-8.965,0.686-16.028,8.18-16.028,17.32
				C707.268,430.458,714.331,437.951,723.296,438.637z"/>
		</g>
		<g>
			<path fill="#8EC640" d="M811.3,349.678c0,30.476-23.544,55.449-53.428,57.737h-0.023c-29.884-2.288-53.428-27.262-53.428-57.737
				c0-30.474,23.544-55.448,53.428-57.734h0.023C787.756,294.229,811.3,319.204,811.3,349.678z"/>
			<path fill="#6A963E" d="M757.848,407.415c-1.471,0.108-2.953,0.168-4.453,0.168c-31.98,0-57.904-25.924-57.904-57.905
				c0-31.978,25.924-57.902,57.904-57.902c1.5,0,2.982,0.057,4.453,0.168c-29.884,2.286-53.428,27.261-53.428,57.734
				C704.42,380.153,727.964,405.127,757.848,407.415z"/>
		</g>
		<path fill="#A67D52" d="M753.393,444.304c-0.543,0-1.088-0.145-1.57-0.437l-24.815-14.987c-1.438-0.868-1.899-2.735-1.031-4.173
			c0.867-1.438,2.737-1.896,4.173-1.03l23.244,14.038l23.246-14.038c1.434-0.866,3.305-0.407,4.172,1.03
			c0.868,1.438,0.407,3.305-1.031,4.173l-24.817,14.987C754.482,444.159,753.937,444.304,753.393,444.304z"/>
		<path fill="#A67D52" d="M753.393,534.787c-3.654,0-6.617-2.964-6.617-6.618V385.968c0-3.655,2.963-6.619,6.617-6.619
			c3.654,0,6.618,2.964,6.618,6.619v142.201C760.011,531.823,757.047,534.787,753.393,534.787z"/>
		<path fill="#A67D52" d="M753.393,470.775c-0.543,0-1.088-0.145-1.57-0.438l-24.815-14.987c-1.438-0.868-1.899-2.736-1.031-4.173
			c0.867-1.438,2.737-1.896,4.173-1.031l23.244,14.038l23.246-14.038c1.434-0.864,3.305-0.406,4.172,1.031
			c0.868,1.436,0.407,3.305-1.031,4.173l-24.817,14.987C754.482,470.63,753.937,470.775,753.393,470.775z"/>
	</g>
</g>
<polygon fill="#6A963E" points="0,530.787 0,613.754 0,617.995 0,836.392 836.392,836.392 836.392,617.995 836.392,613.754 
	836.392,530.787 "/>
<path fill="#696772" d="M520.384,836.392H294.024c28.336-84.282,55.008-216.818,51.792-305.604h138.326
	C503.765,595.457,524.353,713.506,520.384,836.392z"/>
<g id="sun_2_">
	<path fill="#F15E44" d="M180.789,102.941c-0.37,0-0.719-0.199-0.934-0.529l-5.348-8.207l-8.734,4.438
		c-0.173,0.088-0.354,0.133-0.537,0.133c-0.584,0-1.048-0.459-1.08-1.068l-0.517-9.783l-9.785-0.518
		c-0.395-0.021-0.74-0.225-0.925-0.546c-0.185-0.319-0.188-0.721-0.009-1.073l4.436-8.734l-8.206-5.347
		c-0.331-0.216-0.528-0.565-0.528-0.934c0-0.37,0.197-0.72,0.528-0.935l8.206-5.348l-4.437-8.735
		c-0.179-0.352-0.175-0.753,0.01-1.073c0.185-0.32,0.531-0.523,0.925-0.545l9.784-0.518l0.518-9.783
		c0.032-0.609,0.497-1.066,1.08-1.066c0.184,0,0.365,0.043,0.538,0.131l8.734,4.438l5.348-8.207c0.215-0.33,0.564-0.529,0.934-0.529
		c0.37,0,0.719,0.199,0.934,0.529l5.348,8.207l8.734-4.438c0.173-0.088,0.354-0.131,0.538-0.131c0.584,0,1.049,0.458,1.08,1.066
		l0.518,9.783l9.784,0.519c0.395,0.02,0.74,0.223,0.925,0.544c0.185,0.32,0.188,0.722,0.009,1.073l-4.436,8.734l8.206,5.348
		c0.33,0.215,0.528,0.564,0.528,0.935c0,0.368-0.198,0.718-0.528,0.934l-8.207,5.348l4.437,8.734
		c0.179,0.354,0.175,0.754-0.01,1.074c-0.185,0.319-0.531,0.524-0.925,0.544l-9.784,0.518l-0.518,9.785
		c-0.032,0.607-0.496,1.066-1.08,1.066c-0.184,0-0.365-0.045-0.538-0.133l-8.734-4.436l-5.348,8.205
		C181.508,102.742,181.159,102.941,180.789,102.941z"/>
	<circle fill="#F15E44" cx="180.789" cy="70.773" r="21.023"/>
	<circle fill="#FFCB07" cx="180.789" cy="70.773" r="19.301"/>
</g>
</svg>