<!-- Generator: Adobe Illustrator 17.0.0, SVG Export Plug-In  -->
<svg version="1.1"
	 xmlns="http://www.w3.org/2000/svg" xmlns:xlink="http://www.w3.org/1999/xlink" xmlns:a="http://ns.adobe.com/AdobeSVGViewerExtensions/3.0/"
	 x="0px" y="0px" width="456.137px" height="413.471px" viewBox="0 0 456.137 413.471" enable-background="new 0 0 456.137 413.471"
	 xml:space="preserve">
<defs>
</defs>
<g>
	<g>
		<g>
			<g>
				<path fill="#A7A8AB" d="M348.611,96.01c-3.285,0.795-5.971,3.428-5.971,6.563v5.805v99.307v5.804
					c0,3.135,2.686,5.769,5.973,6.561c3.287-0.793,5.973-3.427,5.973-6.561v-5.804v-99.307v-5.805
					C354.586,99.438,351.9,96.805,348.611,96.01z"/>
				<g>
					<path fill="#FFFFFF" d="M348.5,95.816c-0.658-0.16-1.193-0.444-1.908-0.444h-77.164c-4.294,0-7.641,3.436-7.641,7.2v5.805
						v122.977h80.853V108.377v-5.805C342.641,99.438,345.213,96.612,348.5,95.816z"/>
					<path fill="#221F1F" d="M342.641,232.824h-80.853c-0.813,0-1.47-0.658-1.47-1.471V102.572c0-4.699,4.172-8.67,9.11-8.67h77.164
						c0.715,0,1.288,0.186,1.748,0.335c0.165,0.053,0.33,0.107,0.507,0.15c0.658,0.161,1.124,0.751,1.122,1.429
						c0,0.679-0.464,1.27-1.123,1.429c-2.698,0.653-4.735,2.944-4.735,5.327v128.781
						C344.11,232.166,343.453,232.824,342.641,232.824z M263.257,229.884h77.914V102.572c0-2.147,0.956-4.19,2.529-5.731h-74.272
						c-3.346,0-6.171,2.624-6.171,5.731V229.884z"/>
				</g>
				<g>
					<path fill="#FFFFFF" d="M348.768,220.061c0.66,0.163,1.238,0.267,1.955,0.267h77.16c4.293,0,7.557-3.076,7.557-6.841v-5.804
						V84.347h-80.853v123.337v5.804C354.586,216.622,352.055,219.27,348.768,220.061z"/>
					<path fill="#221F1F" d="M427.883,221.799h-77.16c-0.922,0-1.654-0.148-2.306-0.309c-0.659-0.162-1.12-0.753-1.119-1.431
						c0.001-0.679,0.467-1.268,1.125-1.426c2.719-0.655,4.693-2.819,4.693-5.145V84.347c0-0.812,0.657-1.47,1.47-1.47h80.853
						c0.811,0,1.47,0.658,1.47,1.47v129.141C436.909,218.148,432.944,221.799,427.883,221.799z M353.805,218.857h74.078
						c3.413,0,6.087-2.358,6.087-5.37V85.816h-77.914v127.671C356.056,215.504,355.22,217.393,353.805,218.857z"/>
				</g>
			</g>
			<g>
				<line fill="#F1F1F1" x1="268.219" y1="110.073" x2="285.676" y2="110.073"/>
				<rect x="268.219" y="108.603" fill="#221F1F" width="17.457" height="2.94"/>
			</g>
			<g>
				<line fill="#F1F1F1" x1="273.731" y1="119.261" x2="331.615" y2="119.261"/>
				<rect x="273.731" y="117.791" fill="#221F1F" width="57.884" height="2.94"/>
			</g>
			<g>
				<line fill="#F1F1F1" x1="273.731" y1="207.465" x2="297.62" y2="207.465"/>
				<rect x="273.731" y="205.994" fill="#221F1F" width="23.889" height="2.941"/>
			</g>
			<g>
				<line fill="#F1F1F1" x1="273.731" y1="218.49" x2="331.615" y2="218.49"/>
				<rect x="273.731" y="217.02" fill="#221F1F" width="57.884" height="2.941"/>
			</g>
			<g>
				<line fill="#F1F1F1" x1="304.971" y1="207.465" x2="321.51" y2="207.465"/>
				<rect x="304.971" y="205.994" fill="#221F1F" width="16.539" height="2.941"/>
			</g>
			<g>
				<line fill="#F1F1F1" x1="365.611" y1="185.414" x2="389.5" y2="185.414"/>
				<rect x="365.611" y="183.943" fill="#221F1F" width="23.889" height="2.94"/>
			</g>
			<g>
				<line fill="#F1F1F1" x1="365.611" y1="145.906" x2="423.495" y2="145.906"/>
				<rect x="365.611" y="144.436" fill="#221F1F" width="57.884" height="2.94"/>
			</g>
			<g>
				<line fill="#F1F1F1" x1="365.611" y1="155.094" x2="423.495" y2="155.094"/>
				<rect x="365.611" y="153.623" fill="#221F1F" width="57.884" height="2.941"/>
			</g>
			<g>
				<line fill="#F1F1F1" x1="365.611" y1="164.281" x2="423.495" y2="164.281"/>
				<rect x="365.611" y="162.812" fill="#221F1F" width="57.884" height="2.941"/>
			</g>
			<g>
				<line fill="#F1F1F1" x1="365.611" y1="174.389" x2="383.068" y2="174.389"/>
				<rect x="365.611" y="172.918" fill="#221F1F" width="17.457" height="2.941"/>
			</g>
			<g>
				<line fill="#F1F1F1" x1="396.85" y1="185.414" x2="403.281" y2="185.414"/>
				<rect x="396.85" y="183.943" fill="#221F1F" width="6.432" height="2.94"/>
			</g>
			<g>
				<line fill="#F1F1F1" x1="423.495" y1="206.547" x2="400.525" y2="206.547"/>
				<rect x="400.525" y="205.076" fill="#221F1F" width="22.97" height="2.94"/>
			</g>
			<g>
				<line fill="#F1F1F1" x1="423.495" y1="195.52" x2="365.611" y2="195.52"/>
				<rect x="365.611" y="194.051" fill="#221F1F" width="57.884" height="2.939"/>
			</g>
			<g>
				<line fill="#F1F1F1" x1="392.256" y1="206.547" x2="386.744" y2="206.547"/>
				<rect x="386.744" y="205.076" fill="#221F1F" width="5.512" height="2.94"/>
			</g>
			<rect x="272.813" y="129.367" fill="#FFCC04" width="58.803" height="44.103"/>
			<g>
				<line fill="#F1F1F1" x1="272.813" y1="181.738" x2="331.615" y2="181.738"/>
				<rect x="272.813" y="180.269" fill="#221F1F" width="58.803" height="2.94"/>
			</g>
			<g>
				<line fill="#F1F1F1" x1="272.813" y1="191.846" x2="331.615" y2="191.846"/>
				<rect x="272.813" y="190.375" fill="#221F1F" width="58.803" height="2.94"/>
			</g>
			<g>
				<line fill="#F1F1F1" x1="292.107" y1="167.038" x2="296.702" y2="167.038"/>
				<rect x="292.107" y="165.568" fill="#221F1F" width="4.595" height="2.939"/>
			</g>
			<g>
				<line fill="#F1F1F1" x1="303.133" y1="167.038" x2="308.647" y2="167.038"/>
				<rect x="303.133" y="165.568" fill="#221F1F" width="5.514" height="2.939"/>
			</g>
			<g>
				<rect x="366.53" y="94.453" fill="#BCBDBF" width="56.965" height="43.184"/>
				<g>
					<path fill="#221F1F" d="M412.619,125.834l-22.428-12.924l-22.931,11.909l-1.355-2.608l23.644-12.281
						c0.446-0.23,0.976-0.219,1.411,0.031l23.126,13.326L412.619,125.834z"/>
				</g>
				<g>
					<path fill="#221F1F" d="M423.003,120.095l-10.817-7.017l-7.748,6.883l-1.953-2.199l8.586-7.626
						c0.494-0.438,1.223-0.494,1.775-0.134l11.758,7.627L423.003,120.095z"/>
				</g>
				<circle fill="#FFFFFF" cx="400.419" cy="103.787" r="5.356"/>
			</g>
		</g>
		<g>
			<g>
				<path fill="#A7A8AB" d="M100.541,107.56c3.286,0.795,5.971,3.428,5.971,6.563v5.806v99.306v5.805
					c0,3.135-2.686,5.769-5.972,6.561c-3.288-0.792-5.974-3.426-5.974-6.561v-5.805v-99.306v-5.806
					C94.566,110.987,97.252,108.354,100.541,107.56z"/>
				<g>
					<path fill="#FFFFFF" d="M100.74,107.563c0.658-0.159,1.281-0.246,1.996-0.246H179.9c4.294,0,7.465,3.043,7.465,6.806v5.806
						v116.938h-80.854V119.928v-5.806C106.512,110.987,104.027,108.359,100.74,107.563z"/>
					<path fill="#221F1F" d="M187.365,238.336h-80.854c-0.813,0-1.471-0.658-1.471-1.47V114.122c0-2.358-1.911-4.468-4.647-5.13
						c-0.659-0.16-1.123-0.75-1.124-1.429c0-0.679,0.464-1.269,1.124-1.429c0.81-0.197,1.554-0.289,2.343-0.289H179.9
						c5.01,0,8.934,3.636,8.934,8.276v122.744C188.835,237.678,188.178,238.336,187.365,238.336z M107.981,235.396h77.914V114.122
						c0-3.042-2.578-5.335-5.995-5.335h-74.13c1.39,1.458,2.211,3.334,2.211,5.335V235.396z"/>
				</g>
				<g>
					<path fill="#FFFFFF" d="M100.471,231.81c-0.659,0.162-1.15,0.463-1.867,0.463H21.444c-4.293,0-7.731-3.471-7.731-7.234v-5.805
						V96.291h80.854v122.942v5.805C94.566,228.173,97.185,231.018,100.471,231.81z"/>
					<path fill="#221F1F" d="M98.604,233.742H21.444c-4.987,0-9.201-3.986-9.201-8.704V96.291c0-0.813,0.657-1.471,1.47-1.471
						h80.854c0.813,0,1.471,0.658,1.471,1.471v128.747c0,2.389,2.055,4.685,4.779,5.343c0.659,0.158,1.123,0.747,1.125,1.426
						c0.002,0.678-0.461,1.268-1.118,1.43c-0.18,0.045-0.343,0.104-0.503,0.159C99.877,233.551,99.324,233.742,98.604,233.742z
						 M15.183,97.761v127.277c0,3.071,2.927,5.765,6.262,5.765h74.263c-1.61-1.561-2.61-3.632-2.61-5.765V97.761H15.183z"/>
				</g>
			</g>
			<g>
				<line fill="#F1F1F1" x1="175.421" y1="122.018" x2="163.477" y2="122.018"/>
				<rect x="163.477" y="120.547" fill="#221F1F" width="11.944" height="2.94"/>
			</g>
			<g>
				<line fill="#F1F1F1" x1="175.421" y1="131.205" x2="117.537" y2="131.205"/>
				<rect x="117.537" y="129.734" fill="#221F1F" width="57.884" height="2.941"/>
			</g>
			<g>
				<line fill="#F1F1F1" x1="175.421" y1="219.41" x2="152.45" y2="219.41"/>
				<rect x="152.45" y="217.939" fill="#221F1F" width="22.971" height="2.939"/>
			</g>
			<g>
				<line fill="#F1F1F1" x1="175.421" y1="229.516" x2="117.537" y2="229.516"/>
				<rect x="117.537" y="228.046" fill="#221F1F" width="57.884" height="2.94"/>
			</g>
			<g>
				<line fill="#F1F1F1" x1="144.182" y1="219.41" x2="127.643" y2="219.41"/>
				<rect x="127.643" y="217.939" fill="#221F1F" width="16.539" height="2.939"/>
			</g>
			<g>
				<line fill="#F1F1F1" x1="83.541" y1="196.439" x2="59.652" y2="196.439"/>
				<rect x="59.652" y="194.97" fill="#221F1F" width="23.889" height="2.941"/>
			</g>
			<g>
				<line fill="#F1F1F1" x1="83.541" y1="156.932" x2="25.657" y2="156.932"/>
				<rect x="25.657" y="155.461" fill="#221F1F" width="57.884" height="2.94"/>
			</g>
			<g>
				<line fill="#F1F1F1" x1="83.541" y1="167.038" x2="25.657" y2="167.038"/>
				<rect x="25.657" y="165.568" fill="#221F1F" width="57.884" height="2.939"/>
			</g>
			<g>
				<line fill="#F1F1F1" x1="83.541" y1="176.227" x2="25.657" y2="176.227"/>
				<rect x="25.657" y="174.756" fill="#221F1F" width="57.884" height="2.94"/>
			</g>
			<g>
				<line fill="#F1F1F1" x1="52.303" y1="196.439" x2="46.789" y2="196.439"/>
				<rect x="46.789" y="194.97" fill="#221F1F" width="5.514" height="2.941"/>
			</g>
			<g>
				<line fill="#F1F1F1" x1="25.657" y1="218.49" x2="49.547" y2="218.49"/>
				<rect x="25.657" y="217.02" fill="#221F1F" width="23.89" height="2.941"/>
			</g>
			<g>
				<line fill="#F1F1F1" x1="25.657" y1="207.465" x2="83.541" y2="207.465"/>
				<rect x="25.657" y="205.994" fill="#221F1F" width="57.884" height="2.941"/>
			</g>
			<g>
				<line fill="#F1F1F1" x1="56.897" y1="218.49" x2="62.408" y2="218.49"/>
				<rect x="56.896" y="217.02" fill="#221F1F" width="5.512" height="2.941"/>
			</g>
			<rect x="117.537" y="140.393" fill="#BCBDBF" width="58.803" height="44.103"/>
			<g>
				<line fill="#F1F1F1" x1="176.34" y1="193.684" x2="117.537" y2="193.684"/>
				<rect x="117.537" y="192.213" fill="#221F1F" width="58.803" height="2.94"/>
			</g>
			<g>
				<line fill="#F1F1F1" x1="176.34" y1="203.789" x2="117.537" y2="203.789"/>
				<rect x="117.537" y="202.32" fill="#221F1F" width="58.803" height="2.94"/>
			</g>
			<g>
				<line fill="#F1F1F1" x1="157.045" y1="178.982" x2="152.45" y2="178.982"/>
				<rect x="152.45" y="177.512" fill="#221F1F" width="4.595" height="2.941"/>
			</g>
			<g>
				<line fill="#F1F1F1" x1="146.02" y1="178.982" x2="140.507" y2="178.982"/>
				<rect x="140.507" y="177.512" fill="#221F1F" width="5.513" height="2.941"/>
			</g>
			<g>
				<rect x="25.657" y="106.397" fill="#154A8C" width="56.966" height="43.184"/>
				<g>
					<path fill="#221F1F" d="M36.708,137.385l-1.467-2.548l23.125-13.324c0.435-0.251,0.967-0.263,1.411-0.031l23.644,12.278
						l-1.355,2.609l-22.929-11.908L36.708,137.385z"/>
				</g>
				<g>
					<path fill="#221F1F" d="M26.324,131.645l-1.6-2.467l11.757-7.625c0.556-0.361,1.281-0.305,1.775,0.135l8.586,7.624
						l-1.952,2.198l-7.748-6.881L26.324,131.645z"/>
				</g>
				<circle fill="#FFFFFF" cx="48.909" cy="115.338" r="5.357"/>
			</g>
		</g>
		<rect x="342.641" y="172.551" fill="#D1D2D3" width="31.24" height="29.401"/>
		<rect x="85.379" y="125.692" fill="#D1D2D3" width="31.238" height="29.401"/>
		<g>
			<path fill="#F1F1F1" d="M297.066,162.573c0-39.937-32.387-72.312-72.324-72.312c-39.937,0-72.359,32.375-72.359,72.312
				c0,35.361,25.794,64.788,58.871,71.069v96.941h26.645v-96.891C270.976,227.52,297.066,198.028,297.066,162.573z"/>
			<path fill="#221F1F" d="M237.898,332.053h-26.645c-0.813,0-1.471-0.657-1.471-1.469V234.85
				c-16.055-3.334-30.752-12.139-41.493-24.89c-11.206-13.302-17.377-30.13-17.377-47.387c0-40.683,33.12-73.781,73.829-73.781
				c40.69,0,73.793,33.099,73.793,73.781c0,17.286-6.224,34.152-17.527,47.491c-10.817,12.766-25.565,21.553-41.639,24.84v95.68
				C239.369,331.396,238.711,332.053,237.898,332.053z M212.725,329.113h23.705v-95.42c0-0.707,0.504-1.314,1.199-1.444
				c15.877-2.964,30.486-11.517,41.135-24.085c10.854-12.809,16.832-29,16.832-45.591c0-39.062-31.784-70.841-70.854-70.841
				c-39.088,0-70.89,31.779-70.89,70.841c0,16.564,5.927,32.721,16.687,45.492c10.574,12.552,25.13,21.121,40.988,24.133
				c0.694,0.132,1.197,0.738,1.197,1.444V329.113z"/>
		</g>
		<path fill="#154A8C" d="M280.164,162.307c-0.145-30.405-24.759-55.02-55.165-55.165c-0.089,0-0.177-0.007-0.267-0.007
			c-15.174,0-28.918,6.101-38.927,15.976c-10.191,10.053-16.512,24.017-16.512,39.462c0,30.618,24.82,55.439,55.439,55.439
			c30.619,0,55.437-24.821,55.437-55.439C280.17,162.482,280.164,162.395,280.164,162.307z"/>
		<g>
			<rect x="211.254" y="232.64" fill="#221F1F" width="12.863" height="2.94"/>
		</g>
		<rect x="202.065" y="253.404" fill="#A7A8AB" width="45.939" height="60.641"/>
		<g>
			<rect x="209.416" y="266.635" fill="#221F1F" width="30.32" height="2.941"/>
		</g>
		<g>
			<rect x="209.416" y="282.255" fill="#221F1F" width="30.32" height="2.94"/>
		</g>
		<g>
			<rect x="209.416" y="298.793" fill="#221F1F" width="30.32" height="2.94"/>
		</g>
		<g>
			<path fill="#221F1F" d="M224.732,219.482c-35.875,0-50.832-31.275-50.979-31.592l2.666-1.241
				c0.139,0.299,14.35,29.892,48.313,29.894V219.482z"/>
		</g>
		<g>
			<path fill="#221F1F" d="M278.703,162.648c-0.974-19.349-9.002-34.218-23.863-44.194c-11.152-7.486-22.193-9.268-22.305-9.285
				l0.448-2.905c0.473,0.073,11.707,1.869,23.396,9.683c10.818,7.232,23.984,21.18,25.26,46.555L278.703,162.648z"/>
		</g>
		<g>
			<rect x="222.279" y="172.551" fill="#D1D2D3" width="120.361" height="29.401"/>
			<path fill="#221F1F" d="M342.641,203.422H222.279c-0.813,0-1.471-0.658-1.471-1.47v-29.401c0-0.813,0.658-1.471,1.471-1.471
				h120.361c0.813,0,1.47,0.658,1.47,1.471v29.401C344.11,202.764,343.453,203.422,342.641,203.422z M223.749,200.482h117.422
				v-26.461H223.749V200.482z"/>
		</g>
		<g>
			<rect x="116.617" y="125.692" fill="#FFCC04" width="124.957" height="29.401"/>
			<path fill="#221F1F" d="M241.574,156.564H116.617c-0.811,0-1.47-0.658-1.47-1.471v-29.401c0-0.812,0.659-1.47,1.47-1.47h124.957
				c0.811,0,1.469,0.658,1.469,1.47v29.401C243.043,155.906,242.386,156.564,241.574,156.564z M118.088,153.623h122.017v-26.461
				H118.088V153.623z"/>
		</g>
		<g>
			<line fill="#D1D2D3" x1="342.641" y1="164.281" x2="342.641" y2="210.221"/>
			<rect x="341.171" y="164.281" fill="#221F1F" width="2.939" height="45.939"/>
		</g>
		<g>
			<line fill="#D1D2D3" x1="116.617" y1="116.504" x2="116.617" y2="162.443"/>
			<rect x="115.147" y="116.504" fill="#221F1F" width="2.941" height="45.939"/>
		</g>
		<rect x="234.223" y="180.82" opacity="0.8" fill="#FFFFFF" width="67.991" height="4.594"/>
		<rect x="234.223" y="189.089" opacity="0.8" fill="#FFFFFF" width="83.611" height="5.513"/>
		<rect x="308.647" y="180.82" opacity="0.8" fill="#FFFFFF" width="12.863" height="4.594"/>
		<rect x="157.045" y="141.312" opacity="0.7" fill="#FFFFFF" width="67.072" height="5.513"/>
		<rect x="140.507" y="133.043" opacity="0.7" fill="#FFFFFF" width="83.61" height="4.594"/>
		<rect x="136.831" y="141.312" opacity="0.7" fill="#FFFFFF" width="13.782" height="5.513"/>
		<g>
			<g>
				<path fill="#221F1F" d="M359.056,196.95c-5.368,0-9.736-4.368-9.736-9.736c0-5.368,4.368-9.737,9.736-9.737
					c5.368,0,9.735,4.369,9.735,9.737C368.791,192.582,364.424,196.95,359.056,196.95z M359.056,180.418
					c-3.748,0-6.797,3.049-6.797,6.796s3.049,6.796,6.797,6.796c3.747,0,6.796-3.049,6.796-6.796S362.803,180.418,359.056,180.418z"
					/>
			</g>
			<g>
				<rect x="357.709" y="195.52" fill="#221F1F" width="2.939" height="10.106"/>
			</g>
		</g>
		<g>
			<g>
				<path fill="#221F1F" d="M100.581,152.123c-5.368,0-9.736-4.369-9.736-9.737c0-5.368,4.368-9.736,9.736-9.736
					c5.368,0,9.735,4.368,9.735,9.736C110.316,147.754,105.949,152.123,100.581,152.123z M100.581,135.59
					c-3.747,0-6.796,3.049-6.796,6.796c0,3.747,3.049,6.796,6.796,6.796c3.747,0,6.796-3.049,6.796-6.796
					C107.377,138.639,104.328,135.59,100.581,135.59z"/>
			</g>
			<g>
				<rect x="99.527" y="150.5" fill="#221F1F" width="2.941" height="10.106"/>
			</g>
		</g>
		<g>
			<rect x="260.868" y="246.055" fill="#FFCC04" width="149.764" height="13.781"/>
			<g>
				<polyline fill="#FFFFFF" points="410.632,330.584 410.632,259.836 260.868,259.836 260.868,330.584 				"/>
				<path fill="#221F1F" d="M412.102,330.584h-2.939v-69.277H262.338v69.277h-2.939v-70.748c0-0.812,0.658-1.47,1.47-1.47h149.764
					c0.811,0,1.47,0.658,1.47,1.47V330.584z"/>
			</g>
		</g>
		<g>
			<rect x="267.301" y="250.098" fill="#221F1F" width="5.512" height="2.939"/>
		</g>
		<g>
			<rect x="278.326" y="250.098" fill="#221F1F" width="5.513" height="2.939"/>
		</g>
		<g>
			<rect x="288.433" y="250.098" fill="#221F1F" width="5.513" height="2.939"/>
		</g>
		<g>
			<rect x="40.358" y="246.055" fill="#154A8C" width="149.764" height="13.781"/>
			<g>
				<polyline fill="#FFFFFF" points="190.122,330.584 190.122,259.836 40.358,259.836 40.358,330.584 				"/>
				<path fill="#221F1F" d="M191.592,330.584h-2.94v-69.277H41.828v69.277h-2.94v-70.748c0-0.812,0.658-1.47,1.471-1.47h149.764
					c0.812,0,1.47,0.658,1.47,1.47V330.584z"/>
			</g>
		</g>
		<g>
			<rect x="46.789" y="250.098" fill="#221F1F" width="6.432" height="2.939"/>
		</g>
		<g>
			<rect x="57.815" y="250.098" fill="#221F1F" width="5.513" height="2.939"/>
		</g>
		<g>
			<rect x="67.922" y="250.098" fill="#221F1F" width="5.513" height="2.939"/>
		</g>
		<rect x="270.057" y="269.024" fill="#FFCC04" width="6.432" height="2.756"/>
		<rect x="277.406" y="269.024" fill="#E6E6E6" width="5.514" height="2.756"/>
		<rect x="283.839" y="269.024" fill="#154A8C" width="5.512" height="2.756"/>
		<g>
			<rect x="270.057" y="274.904" fill="#221F1F" width="19.294" height="2.94"/>
		</g>
		<rect x="294.863" y="269.024" fill="#E6E6E6" width="71.667" height="9.188"/>
		<rect x="352.748" y="269.024" fill="#D1D2D3" width="13.782" height="9.188"/>
		<rect x="372.961" y="269.024" fill="#154A8C" width="27.565" height="9.188"/>
		<rect x="363.773" y="285.563" fill="#E6E6E6" width="36.752" height="16.539"/>
		<rect x="363.773" y="313.127" fill="#E6E6E6" width="36.752" height="16.537"/>
		<g>
			<rect x="363.773" y="306.144" fill="#221F1F" width="36.752" height="2.94"/>
		</g>
		<rect x="270.057" y="284.644" fill="#D1D2D3" width="71.666" height="3.675"/>
		<rect x="270.057" y="291.075" fill="#E6E6E6" width="37.67" height="4.595"/>
		<g>
			<rect x="270.057" y="298.793" fill="#221F1F" width="48.695" height="2.94"/>
		</g>
		<g>
			<rect x="322.428" y="298.793" fill="#221F1F" width="5.513" height="2.94"/>
		</g>
		<rect x="270.057" y="306.695" fill="#D1D2D3" width="71.666" height="3.675"/>
		<rect x="270.057" y="313.127" fill="#E6E6E6" width="37.67" height="3.675"/>
		<g>
			<rect x="270.057" y="320.845" fill="#221F1F" width="48.695" height="2.94"/>
		</g>
		<g>
			<rect x="322.428" y="320.845" fill="#221F1F" width="5.513" height="2.94"/>
		</g>
		<rect x="51.384" y="268.105" fill="#154A8C" width="5.513" height="2.756"/>
		<rect x="57.815" y="268.105" fill="#E6E6E6" width="5.513" height="2.756"/>
		<rect x="64.247" y="268.105" fill="#FFCC04" width="5.512" height="2.756"/>
		<g>
			<rect x="51.384" y="273.985" fill="#221F1F" width="18.375" height="2.94"/>
		</g>
		<rect x="76.191" y="268.105" fill="#E6E6E6" width="70.747" height="9.188"/>
		<rect x="133.156" y="268.105" fill="#D1D2D3" width="13.782" height="9.188"/>
		<rect x="154.288" y="268.105" fill="#FFCC04" width="26.646" height="9.188"/>
		<rect x="144.182" y="284.644" fill="#E6E6E6" width="36.752" height="16.538"/>
		<rect x="144.182" y="312.207" fill="#E6E6E6" width="36.752" height="12.863"/>
		<g>
			<rect x="144.182" y="305.225" fill="#221F1F" width="36.752" height="2.94"/>
		</g>
		<rect x="51.384" y="283.725" fill="#D1D2D3" width="70.747" height="3.676"/>
		<rect x="51.384" y="290.156" fill="#E6E6E6" width="36.751" height="4.594"/>
		<g>
			<rect x="51.384" y="297.875" fill="#221F1F" width="48.695" height="2.94"/>
		</g>
		<g>
			<rect x="103.755" y="297.875" fill="#221F1F" width="4.594" height="2.94"/>
		</g>
		<rect x="51.384" y="305.775" fill="#D1D2D3" width="70.747" height="3.676"/>
		<rect x="51.384" y="312.207" fill="#E6E6E6" width="36.751" height="3.676"/>
		<g>
			<rect x="51.384" y="319.926" fill="#221F1F" width="48.695" height="2.939"/>
		</g>
		<g>
			<rect x="103.755" y="319.926" fill="#221F1F" width="4.594" height="2.939"/>
		</g>
		<g>
			<line fill="#BCBDBF" x1="146.938" y1="330.584" x2="297.62" y2="330.584"/>
			<rect x="146.938" y="329.113" fill="#221F1F" width="150.682" height="2.939"/>
		</g>
		<g>
			<line fill="#BCBDBF" x1="382.149" y1="330.584" x2="429.008" y2="330.584"/>
			<rect x="382.149" y="329.113" fill="#221F1F" width="46.858" height="2.939"/>
		</g>
		<g>
			<line fill="#BCBDBF" x1="54.14" y1="330.584" x2="17.388" y2="330.584"/>
			<rect x="17.388" y="329.113" fill="#221F1F" width="36.752" height="2.939"/>
		</g>
	</g>
	<g>
		<g>
			<g>
				<g>
					<path fill="#154A8C" d="M369.321,37.586C369.245,16.932,352.681,0.24,332.026,0.01v37.576H369.321z"/>
					<path fill="#E6E6E6" d="M358.543,64.15c6.668-6.809,10.781-16.133,10.781-26.416c0-0.047-0.003-0.148-0.003-0.148h-37.329
						L358.543,64.15z"/>
					<path fill="#D1D2D3" d="M332.026,37.615V0.01c0-0.002-0.3-0.01-0.444-0.01c-20.854,0-37.767,16.904-37.767,37.758
						s16.901,37.758,37.755,37.758c10.571,0,20.137-4.35,26.991-11.35L332.026,37.615z"/>
				</g>
				<g>
					<rect x="332.026" y="8.631" fill="#221F1F" width="13.044" height="3.555"/>
				</g>
				<g>
					<rect x="332.026" y="17.326" fill="#221F1F" width="21.741" height="3.555"/>
				</g>
				<g>
					<rect x="332.026" y="27.111" fill="#221F1F" width="28.265" height="3.555"/>
				</g>
			</g>
			<g>
				<path fill="#221F1F" d="M331.413,74.947c-21.122,0-38.414-16.781-39.344-37.758h-47.012v-3.555h48.75
					c0.982,0,1.777,0.795,1.777,1.777c0,19.84,16.072,35.98,35.828,35.98V74.947z"/>
			</g>
		</g>
		<g>
			<rect x="247.231" y="21.676" fill="#221F1F" width="23.917" height="3.555"/>
		</g>
		<g>
			<rect x="225.489" y="33.635" fill="#221F1F" width="10.872" height="3.555"/>
		</g>
		<g>
			<rect x="225.148" y="33.976" fill="#221F1F" width="3.555" height="10.872"/>
		</g>
		<g>
			<rect x="225.148" y="50.869" fill="#221F1F" width="3.555" height="28.5"/>
		</g>
	</g>
	<g>
		
			<rect x="101.344" y="319.671" fill="#F1F1F1" stroke="#221F1F" stroke-width="3.2" stroke-linejoin="round" stroke-miterlimit="10" width="102.214" height="26.604"/>
		
			<rect x="101.344" y="346.275" fill="#D1D2D3" stroke="#221F1F" stroke-width="3.2" stroke-linejoin="round" stroke-miterlimit="10" width="102.214" height="26.604"/>
		
			<rect x="101.344" y="372.879" fill="#F1F1F1" stroke="#221F1F" stroke-width="3.2" stroke-linejoin="round" stroke-miterlimit="10" width="102.214" height="26.604"/>
		<circle fill="#FFFFFF" cx="183.955" cy="358.877" r="5.95"/>
		<circle fill="#FFFFFF" cx="165.052" cy="358.877" r="5.951"/>
		
			<line fill="none" stroke="#221F1F" stroke-width="3.2" stroke-linejoin="round" stroke-miterlimit="10" x1="116.045" y1="381.98" x2="189.556" y2="381.98"/>
		
			<line fill="none" stroke="#221F1F" stroke-width="3.2" stroke-linejoin="round" stroke-miterlimit="10" x1="116.045" y1="388.982" x2="189.556" y2="388.982"/>
		
			<line fill="none" stroke="#221F1F" stroke-width="3.2" stroke-linejoin="round" stroke-miterlimit="10" x1="116.045" y1="354.676" x2="116.045" y2="363.077"/>
		
			<line fill="none" stroke="#221F1F" stroke-width="3.2" stroke-linejoin="round" stroke-miterlimit="10" x1="123.046" y1="354.676" x2="123.046" y2="363.077"/>
		
			<line fill="none" stroke="#221F1F" stroke-width="3.2" stroke-linejoin="round" stroke-miterlimit="10" x1="130.047" y1="354.676" x2="130.047" y2="363.077"/>
		
			<line fill="none" stroke="#221F1F" stroke-width="3.2" stroke-linejoin="round" stroke-miterlimit="10" x1="137.049" y1="354.676" x2="137.049" y2="363.077"/>
		
			<line fill="none" stroke="#221F1F" stroke-width="3.2" stroke-linejoin="round" stroke-miterlimit="10" x1="144.049" y1="354.676" x2="144.049" y2="363.077"/>
		
			<line fill="none" stroke="#221F1F" stroke-width="3.2" stroke-linejoin="round" stroke-miterlimit="10" x1="162.951" y1="358.877" x2="167.152" y2="358.877"/>
		
			<line fill="none" stroke="#221F1F" stroke-width="3.2" stroke-linejoin="round" stroke-miterlimit="10" x1="181.855" y1="358.877" x2="186.057" y2="358.877"/>
		<rect x="186.057" y="328.072" fill="#A7A8AB" width="2.799" height="9.101"/>
		<rect x="179.055" y="328.072" fill="#154A8C" width="2.801" height="9.101"/>
		<rect x="172.053" y="328.072" fill="#FFCC04" width="2.801" height="9.101"/>
		<rect x="165.051" y="328.072" fill="#154A8C" width="2.802" height="9.101"/>
		<rect x="158.051" y="328.072" fill="#FFCC04" width="2.801" height="9.101"/>
		
			<line fill="none" stroke="#221F1F" stroke-width="3.2" stroke-linejoin="round" stroke-miterlimit="10" x1="111.145" y1="328.772" x2="152.45" y2="328.772"/>
		
			<line fill="none" stroke="#221F1F" stroke-width="3.2" stroke-linejoin="round" stroke-miterlimit="10" x1="111.145" y1="335.773" x2="152.45" y2="335.773"/>
	</g>
	<g>
		
			<rect x="245.596" y="319.671" fill="#F1F1F1" stroke="#221F1F" stroke-width="3.2" stroke-linejoin="round" stroke-miterlimit="10" width="102.214" height="26.604"/>
		
			<rect x="245.596" y="346.275" fill="#D1D2D3" stroke="#221F1F" stroke-width="3.2" stroke-linejoin="round" stroke-miterlimit="10" width="102.214" height="26.604"/>
		
			<rect x="245.596" y="372.879" fill="#F1F1F1" stroke="#221F1F" stroke-width="3.2" stroke-linejoin="round" stroke-miterlimit="10" width="102.214" height="26.604"/>
		<circle fill="#FFFFFF" cx="328.207" cy="358.877" r="5.95"/>
		<circle fill="#FFFFFF" cx="309.304" cy="358.877" r="5.951"/>
		
			<line fill="none" stroke="#221F1F" stroke-width="3.2" stroke-linejoin="round" stroke-miterlimit="10" x1="260.297" y1="381.98" x2="333.808" y2="381.98"/>
		
			<line fill="none" stroke="#221F1F" stroke-width="3.2" stroke-linejoin="round" stroke-miterlimit="10" x1="260.297" y1="388.982" x2="333.808" y2="388.982"/>
		
			<line fill="none" stroke="#221F1F" stroke-width="3.2" stroke-linejoin="round" stroke-miterlimit="10" x1="260.297" y1="354.676" x2="260.297" y2="363.077"/>
		
			<line fill="none" stroke="#221F1F" stroke-width="3.2" stroke-linejoin="round" stroke-miterlimit="10" x1="267.298" y1="354.676" x2="267.298" y2="363.077"/>
		
			<line fill="none" stroke="#221F1F" stroke-width="3.2" stroke-linejoin="round" stroke-miterlimit="10" x1="274.299" y1="354.676" x2="274.299" y2="363.077"/>
		
			<line fill="none" stroke="#221F1F" stroke-width="3.2" stroke-linejoin="round" stroke-miterlimit="10" x1="281.301" y1="354.676" x2="281.301" y2="363.077"/>
		
			<line fill="none" stroke="#221F1F" stroke-width="3.2" stroke-linejoin="round" stroke-miterlimit="10" x1="288.301" y1="354.676" x2="288.301" y2="363.077"/>
		
			<line fill="none" stroke="#221F1F" stroke-width="3.2" stroke-linejoin="round" stroke-miterlimit="10" x1="307.203" y1="358.877" x2="311.404" y2="358.877"/>
		
			<line fill="none" stroke="#221F1F" stroke-width="3.2" stroke-linejoin="round" stroke-miterlimit="10" x1="326.107" y1="358.877" x2="330.309" y2="358.877"/>
		<rect x="330.309" y="328.072" fill="#A7A8AB" width="2.799" height="9.101"/>
		<rect x="323.307" y="328.072" fill="#154A8C" width="2.801" height="9.101"/>
		<rect x="316.305" y="328.072" fill="#FFCC04" width="2.801" height="9.101"/>
		<rect x="309.303" y="328.072" fill="#154A8C" width="2.802" height="9.101"/>
		<rect x="302.303" y="328.072" fill="#FFCC04" width="2.801" height="9.101"/>
		
			<line fill="none" stroke="#221F1F" stroke-width="3.2" stroke-linejoin="round" stroke-miterlimit="10" x1="255.397" y1="328.772" x2="296.702" y2="328.772"/>
		
			<line fill="none" stroke="#221F1F" stroke-width="3.2" stroke-linejoin="round" stroke-miterlimit="10" x1="255.397" y1="335.773" x2="296.702" y2="335.773"/>
	</g>
	<g>
		<g>
			<g>
				<g>
					<path fill="#221F1F" d="M46.923,391.408l-7.565-6.664c-0.385-0.338-0.605-0.828-0.603-1.342
						c0.003-0.514,0.228-1.002,0.617-1.338l7.565-6.522l2.322,2.693l-6.021,5.19l6.034,5.314L46.923,391.408z"/>
				</g>
				<g>
					<rect x="41.092" y="381.717" fill="#221F1F" width="34.787" height="3.555"/>
				</g>
			</g>
			<g>
				<rect x="81.314" y="381.717" fill="#221F1F" width="11.959" height="3.555"/>
			</g>
		</g>
		<g>
			<g>
				<path fill="#221F1F" d="M8.168,370.803l-7.565-6.662c-0.386-0.34-0.605-0.83-0.602-1.344c0.002-0.514,0.228-1.002,0.617-1.338
					l7.564-6.523l2.322,2.693l-6.02,5.191l6.033,5.313L8.168,370.803z"/>
			</g>
			<g>
				<rect x="1.955" y="361.061" fill="#221F1F" width="36.963" height="3.555"/>
			</g>
		</g>
		<g>
			<g>
				<path fill="#221F1F" d="M22.605,413.471l-7.564-6.664c-0.387-0.34-0.605-0.828-0.603-1.344c0.003-0.514,0.228-1.002,0.617-1.336
					l7.564-6.524l2.322,2.693l-6.021,5.189l6.034,5.316L22.605,413.471z"/>
			</g>
			<g>
				<rect x="16.088" y="403.459" fill="#221F1F" width="41.311" height="3.555"/>
			</g>
		</g>
		<g>
			<rect x="44.353" y="361.061" fill="#221F1F" width="9.784" height="3.555"/>
		</g>
	</g>
	<g>
		<g>
			<g>
				<g>
					<path fill="#221F1F" d="M409.214,391.408l7.565-6.664c0.385-0.338,0.605-0.828,0.603-1.342
						c-0.003-0.514-0.228-1.002-0.617-1.338l-7.565-6.522l-2.322,2.693l6.021,5.19l-6.034,5.314L409.214,391.408z"/>
				</g>
				<g>
					<rect x="380.258" y="381.717" fill="#221F1F" width="34.787" height="3.555"/>
				</g>
			</g>
			<g>
				<rect x="362.863" y="381.717" fill="#221F1F" width="11.959" height="3.555"/>
			</g>
		</g>
		<g>
			<g>
				<path fill="#221F1F" d="M447.969,370.803l7.566-6.662c0.386-0.34,0.605-0.83,0.602-1.344c-0.002-0.514-0.227-1.002-0.617-1.338
					l-7.564-6.523l-2.322,2.693l6.02,5.191l-6.033,5.313L447.969,370.803z"/>
			</g>
			<g>
				<rect x="417.219" y="361.061" fill="#221F1F" width="36.963" height="3.555"/>
			</g>
		</g>
		<g>
			<g>
				<path fill="#221F1F" d="M433.531,413.471l7.565-6.664c0.387-0.34,0.605-0.828,0.603-1.344c-0.003-0.514-0.228-1.002-0.617-1.336
					l-7.564-6.524l-2.322,2.693l6.02,5.189l-6.034,5.316L433.531,413.471z"/>
			</g>
			<g>
				<rect x="398.738" y="403.459" fill="#221F1F" width="41.311" height="3.555"/>
			</g>
		</g>
		<g>
			<rect x="402" y="361.061" fill="#221F1F" width="9.784" height="3.555"/>
		</g>
	</g>
</g>
</svg>