<!-- Generator: Adobe Illustrator 17.0.0, SVG Export Plug-In  -->
<svg version="1.1"
	 xmlns="http://www.w3.org/2000/svg" xmlns:xlink="http://www.w3.org/1999/xlink" xmlns:a="http://ns.adobe.com/AdobeSVGViewerExtensions/3.0/"
	 x="0px" y="0px" width="459.889px" height="35.556px" viewBox="0 0 459.889 35.556" enable-background="new 0 0 459.889 35.556"
	 xml:space="preserve">
<defs>
</defs>
<g>
	<rect x="0" y="0" fill="#C6C6C6" width="37.777" height="35.556"/>
	<g>
		<g>
			<rect x="38.277" y="0.5" fill="#FFCC04" width="421.111" height="34.556"/>
			<path d="M458.889,1v33.556H38.777V1H458.889 M459.889,0H37.777v35.556h422.111V0L459.889,0z"/>
		</g>
	</g>
</g>
<g>
	<g>
		<path d="M44.474,30.074V9.068h1.889v21.006H44.474z"/>
		<path d="M58.784,30.074V19.087c0-0.361-0.068-0.701-0.205-1.018s-0.322-0.593-0.557-0.828s-0.51-0.42-0.827-0.557
			s-0.657-0.205-1.019-0.205h-1.201c-0.361,0-0.7,0.068-1.018,0.205s-0.594,0.322-0.828,0.557s-0.42,0.51-0.557,0.828
			s-0.205,0.657-0.205,1.018v10.986h-1.801v-15h0.6l0.982,1.523c0.41-0.557,0.925-0.999,1.545-1.326s1.297-0.491,2.029-0.491h0.453
			c0.605,0,1.178,0.115,1.715,0.344s1.006,0.544,1.406,0.945s0.715,0.869,0.944,1.406s0.345,1.108,0.345,1.714v10.884H58.784z"/>
		<path d="M69.653,30.074c-0.547,0-1.062-0.103-1.545-0.308s-0.903-0.488-1.26-0.85s-0.64-0.781-0.85-1.26s-0.314-0.991-0.314-1.538
			v-9.331h-2.695v-1.714h2.695V11.47l1.801-0.293v3.896h3.809v1.714h-3.809v9.419c0,0.303,0.057,0.583,0.169,0.842
			s0.267,0.486,0.462,0.681s0.424,0.349,0.688,0.461s0.547,0.168,0.85,0.168h1.641v1.714H69.653z"/>
		<path d="M79.015,16.788c-0.361,0-0.701,0.068-1.019,0.205s-0.593,0.322-0.827,0.557s-0.42,0.51-0.557,0.828
			s-0.205,0.657-0.205,1.018v10.679h-1.803v-15h0.602l0.98,1.523c0.41-0.557,0.926-0.999,1.546-1.326s1.296-0.491,2.028-0.491h1.055
			v2.007H79.015z"/>
		<path d="M92.894,27.671c-0.229,0.537-0.545,1.006-0.945,1.406s-0.869,0.715-1.406,0.945s-1.107,0.344-1.713,0.344h-1.201
			c-0.605,0-1.178-0.115-1.715-0.344s-1.006-0.544-1.406-0.945s-0.715-0.869-0.944-1.406s-0.345-1.108-0.345-1.714V19.19
			c0-0.605,0.115-1.177,0.345-1.714s0.544-1.006,0.944-1.406s0.869-0.715,1.406-0.945s1.109-0.344,1.715-0.344h1.201
			c0.605,0,1.176,0.115,1.713,0.344s1.006,0.544,1.406,0.945s0.716,0.869,0.945,1.406s0.344,1.108,0.344,1.714v6.768
			C93.237,26.563,93.123,27.134,92.894,27.671z M91.436,19.087c0-0.361-0.068-0.701-0.205-1.018s-0.322-0.593-0.557-0.828
			s-0.511-0.42-0.828-0.557s-0.656-0.205-1.018-0.205h-1.201c-0.361,0-0.701,0.068-1.019,0.205s-0.593,0.322-0.827,0.557
			s-0.42,0.51-0.557,0.828s-0.205,0.657-0.205,1.018v6.973c0,0.361,0.068,0.701,0.205,1.018s0.322,0.593,0.557,0.828
			s0.51,0.42,0.827,0.557s0.657,0.205,1.019,0.205h1.201c0.361,0,0.7-0.068,1.018-0.205s0.594-0.322,0.828-0.557
			s0.42-0.51,0.557-0.828s0.205-0.657,0.205-1.018V19.087z"/>
		<path d="M106.261,30.074l-0.996-1.523c-0.41,0.557-0.924,0.999-1.539,1.326s-1.289,0.491-2.021,0.491h-0.453
			c-0.605,0-1.178-0.115-1.715-0.344s-1.006-0.544-1.406-0.945s-0.715-0.869-0.944-1.406s-0.345-1.108-0.345-1.714V19.19
			c0-0.605,0.115-1.177,0.345-1.714s0.544-1.006,0.944-1.406s0.869-0.715,1.406-0.945s1.109-0.344,1.715-0.344h0.453
			c0.674,0,1.299,0.137,1.875,0.41s1.07,0.654,1.48,1.143V9.068h1.801v21.006H106.261z M105.06,19.087
			c0-0.361-0.068-0.701-0.205-1.018s-0.322-0.593-0.557-0.828s-0.511-0.42-0.828-0.557s-0.656-0.205-1.018-0.205h-1.201
			c-0.361,0-0.701,0.068-1.019,0.205s-0.593,0.322-0.827,0.557s-0.42,0.51-0.557,0.828s-0.205,0.657-0.205,1.018v6.973
			c0,0.361,0.068,0.701,0.205,1.018s0.322,0.593,0.557,0.828s0.51,0.42,0.827,0.557s0.657,0.205,1.019,0.205h1.201
			c0.361,0,0.7-0.068,1.018-0.205s0.594-0.322,0.828-0.557s0.42-0.51,0.557-0.828s0.205-0.657,0.205-1.018V19.087z"/>
		<path d="M119.884,30.074l-0.996-1.523c-0.41,0.557-0.924,0.999-1.539,1.326s-1.289,0.491-2.021,0.491h-0.453
			c-0.605,0-1.178-0.115-1.715-0.344s-1.006-0.544-1.406-0.945s-0.715-0.869-0.944-1.406s-0.345-1.108-0.345-1.714V15.074h1.803
			V26.06c0,0.361,0.068,0.701,0.205,1.018s0.322,0.593,0.557,0.828s0.51,0.42,0.827,0.557s0.657,0.205,1.019,0.205h1.201
			c0.361,0,0.7-0.068,1.018-0.205s0.594-0.322,0.828-0.557s0.42-0.51,0.557-0.828s0.205-0.657,0.205-1.018V15.074h1.801v15H119.884z
			"/>
		<path d="M133.763,27.671c-0.229,0.537-0.545,1.006-0.945,1.406s-0.869,0.715-1.406,0.945s-1.107,0.344-1.713,0.344h-1.201
			c-0.605,0-1.178-0.115-1.715-0.344s-1.006-0.544-1.406-0.945s-0.715-0.869-0.944-1.406s-0.345-1.108-0.345-1.714V19.19
			c0-0.605,0.115-1.177,0.345-1.714s0.544-1.006,0.944-1.406s0.869-0.715,1.406-0.945s1.109-0.344,1.715-0.344h1.201
			c0.605,0,1.176,0.115,1.713,0.344s1.006,0.544,1.406,0.945s0.716,0.869,0.945,1.406s0.344,1.108,0.344,1.714v0.601l-1.801,0.293
			v-0.996c0-0.361-0.068-0.701-0.205-1.018s-0.322-0.593-0.557-0.828s-0.511-0.42-0.828-0.557s-0.656-0.205-1.018-0.205h-1.201
			c-0.361,0-0.701,0.068-1.019,0.205s-0.593,0.322-0.827,0.557s-0.42,0.51-0.557,0.828s-0.205,0.657-0.205,1.018v6.973
			c0,0.361,0.068,0.701,0.205,1.018s0.322,0.593,0.557,0.828s0.51,0.42,0.827,0.557s0.657,0.205,1.019,0.205h1.201
			c0.361,0,0.7-0.068,1.018-0.205s0.594-0.322,0.828-0.557s0.42-0.51,0.557-0.828s0.205-0.657,0.205-1.018v-0.996l1.801,0.293v0.601
			C134.106,26.563,133.992,27.134,133.763,27.671z"/>
		<path d="M147.386,27.671c-0.229,0.537-0.545,1.006-0.945,1.406s-0.869,0.715-1.406,0.945s-1.107,0.344-1.713,0.344h-1.201
			c-0.605,0-1.178-0.115-1.715-0.344s-1.006-0.544-1.406-0.945s-0.715-0.869-0.944-1.406s-0.345-1.108-0.345-1.714V19.19
			c0-0.605,0.115-1.177,0.345-1.714s0.544-1.006,0.944-1.406s0.869-0.715,1.406-0.945s1.109-0.344,1.715-0.344h1.201
			c0.605,0,1.176,0.115,1.713,0.344s1.006,0.544,1.406,0.945s0.716,0.869,0.945,1.406s0.344,1.108,0.344,1.714v0.601l-1.801,0.293
			v-0.996c0-0.361-0.068-0.701-0.205-1.018s-0.322-0.593-0.557-0.828s-0.511-0.42-0.828-0.557s-0.656-0.205-1.018-0.205h-1.201
			c-0.361,0-0.701,0.068-1.019,0.205s-0.593,0.322-0.827,0.557s-0.42,0.51-0.557,0.828s-0.205,0.657-0.205,1.018v6.973
			c0,0.361,0.068,0.701,0.205,1.018s0.322,0.593,0.557,0.828s0.51,0.42,0.827,0.557s0.657,0.205,1.019,0.205h1.201
			c0.361,0,0.7-0.068,1.018-0.205s0.594-0.322,0.828-0.557s0.42-0.51,0.557-0.828s0.205-0.657,0.205-1.018v-0.996l1.801,0.293v0.601
			C147.729,26.563,147.615,27.134,147.386,27.671z"/>
		<path d="M151.788,11.47V9.068h2.094v2.402H151.788z M151.935,30.074v-15h1.801v15H151.935z"/>
		<path d="M167.615,27.671c-0.229,0.537-0.544,1.006-0.944,1.406s-0.869,0.715-1.406,0.945s-1.109,0.344-1.715,0.344h-1.201
			c-0.605,0-1.176-0.115-1.713-0.344s-1.006-0.544-1.406-0.945s-0.716-0.869-0.945-1.406s-0.344-1.108-0.344-1.714V19.19
			c0-0.605,0.114-1.177,0.344-1.714s0.545-1.006,0.945-1.406s0.869-0.715,1.406-0.945s1.107-0.344,1.713-0.344h1.201
			c0.605,0,1.178,0.115,1.715,0.344s1.006,0.544,1.406,0.945s0.715,0.869,0.944,1.406s0.345,1.108,0.345,1.714v6.768
			C167.96,26.563,167.845,27.134,167.615,27.671z M166.157,19.087c0-0.361-0.068-0.701-0.205-1.018s-0.322-0.593-0.557-0.828
			s-0.51-0.42-0.827-0.557s-0.657-0.205-1.019-0.205h-1.201c-0.361,0-0.7,0.068-1.018,0.205s-0.594,0.322-0.828,0.557
			s-0.42,0.51-0.557,0.828s-0.205,0.657-0.205,1.018v6.973c0,0.361,0.068,0.701,0.205,1.018s0.322,0.593,0.557,0.828
			s0.511,0.42,0.828,0.557s0.656,0.205,1.018,0.205h1.201c0.361,0,0.701-0.068,1.019-0.205s0.593-0.322,0.827-0.557
			s0.42-0.51,0.557-0.828s0.205-0.657,0.205-1.018V19.087z M162.202,12.671h-1.348l2.389-3.604h3.002L162.202,12.671z"/>
		<path d="M179.78,30.074V19.087c0-0.361-0.068-0.701-0.205-1.018s-0.322-0.593-0.557-0.828s-0.51-0.42-0.827-0.557
			s-0.657-0.205-1.019-0.205h-1.201c-0.361,0-0.7,0.068-1.018,0.205s-0.594,0.322-0.828,0.557s-0.42,0.51-0.557,0.828
			s-0.205,0.657-0.205,1.018v10.986h-1.801v-15h0.6l0.982,1.523c0.41-0.557,0.925-0.999,1.545-1.326s1.297-0.491,2.029-0.491h0.453
			c0.605,0,1.178,0.115,1.715,0.344s1.006,0.544,1.406,0.945s0.715,0.869,0.944,1.406s0.345,1.108,0.345,1.714v10.884H179.78z"/>
	</g>
</g>
<g>
	<path fill-rule="evenodd" clip-rule="evenodd" fill="#154A8C" stroke="#000000" stroke-width="0.5" stroke-miterlimit="10" d="
		M19.277,8.641L19.277,8.641c-5.073,0-9.128,3.857-9.128,8.724c0,3.049,1.618,5.676,3.649,7.301
		c0.602,0.419,1.216,0.823,1.817,1.229H15.21v6.08h1.832c0.208,0.815,1.214,1.428,2.235,1.428c0.813,0,1.818-0.614,2.026-1.428
		h1.817v-6.08h-0.601c0.813-0.406,1.221-0.81,1.832-1.229c2.226-1.625,3.649-4.252,3.649-7.301
		C28.002,12.498,23.934,8.641,19.277,8.641L19.277,8.641z"/>
	
		<polygon fill-rule="evenodd" clip-rule="evenodd" fill="#154A8C" stroke="#000000" stroke-width="0.5" stroke-miterlimit="10" points="
		31.038,9.043 31.038,9.043 27.192,11.281 27.796,12.29 31.651,10.064 	"/>
	
		<polygon fill-rule="evenodd" clip-rule="evenodd" fill="#154A8C" stroke="#000000" stroke-width="0.5" stroke-miterlimit="10" points="
		25.766,4.177 25.766,4.177 23.527,8.023 24.353,8.431 26.578,4.782 	"/>
	
		<polygon fill-rule="evenodd" clip-rule="evenodd" fill="#154A8C" stroke="#000000" stroke-width="0.5" stroke-miterlimit="10" points="
		5.071,17.169 5.071,17.169 9.532,17.169 9.532,16.146 5.071,16.146 	"/>
	
		<polygon fill-rule="evenodd" clip-rule="evenodd" fill="#154A8C" stroke="#000000" stroke-width="0.5" stroke-miterlimit="10" points="
		6.483,10.064 6.483,10.064 10.552,12.29 10.958,11.281 7.296,9.043 	"/>
	
		<polygon fill-rule="evenodd" clip-rule="evenodd" fill="#154A8C" stroke="#000000" stroke-width="0.5" stroke-miterlimit="10" points="
		11.767,4.782 11.767,4.782 13.799,8.431 14.804,8.023 12.581,4.177 	"/>
	
		<polygon fill-rule="evenodd" clip-rule="evenodd" fill="#154A8C" stroke="#000000" stroke-width="0.5" stroke-miterlimit="10" points="
		18.466,2.555 18.466,2.555 18.466,6.805 19.687,6.805 19.687,2.555 	"/>
	<path fill-rule="evenodd" clip-rule="evenodd" fill="#FFFFFF" stroke="#000000" stroke-width="0.5" stroke-miterlimit="10" d="
		M19.277,21.222L19.277,21.222c-0.812,0-1.423,0.602-1.423,1.216c0,0.603,0.611,1.218,1.423,1.218c0.601,0,1.009-0.616,1.009-1.218
		C20.286,21.824,19.878,21.222,19.277,21.222L19.277,21.222z"/>
	<path fill-rule="evenodd" clip-rule="evenodd" fill="#FFFFFF" stroke="#000000" stroke-width="0.5" stroke-miterlimit="10" d="
		M19.277,12.29L19.277,12.29c-1.021,0-1.62,1.832-1.62,4.263c0,2.431,0.599,4.267,1.62,4.267c0.813,0,1.413-1.836,1.413-4.267
		C20.69,14.122,20.09,12.29,19.277,12.29L19.277,12.29z"/>
	
		<polygon fill-rule="evenodd" clip-rule="evenodd" fill="#154A8C" stroke="#000000" stroke-width="0.5" stroke-miterlimit="10" points="
		33.274,16.146 33.274,16.146 28.813,16.146 28.813,17.169 33.274,17.169 	"/>
	
		<polygon fill-rule="evenodd" clip-rule="evenodd" fill="#FFFFFF" stroke="#000000" stroke-width="0.5" stroke-miterlimit="10" points="
		16.018,27.111 16.018,27.111 16.018,28.325 22.312,28.325 22.312,27.111 	"/>
	
		<polygon fill-rule="evenodd" clip-rule="evenodd" fill="#FFFFFF" stroke="#000000" stroke-width="0.5" stroke-miterlimit="10" points="
		16.018,29.332 16.018,29.332 16.018,30.548 22.312,30.548 22.312,29.332 	"/>
</g>
<g>
	<g>
		<rect x="291.212" y="26.427" fill="#154A8C" width="3.57" height="3.796"/>
		<rect x="282.759" y="26.427" fill="#154A8C" width="3.572" height="3.796"/>
		<rect x="274.308" y="26.427" fill="#154A8C" width="3.57" height="3.796"/>
		<rect x="265.854" y="26.427" fill="#154A8C" width="3.57" height="3.796"/>
		<rect x="257.403" y="26.427" fill="#154A8C" width="3.57" height="3.796"/>
		<rect x="248.95" y="26.427" fill="#154A8C" width="3.573" height="3.796"/>
		<rect x="240.498" y="26.427" fill="#154A8C" width="3.573" height="3.796"/>
		<rect x="232.046" y="26.427" fill="#154A8C" width="3.572" height="3.796"/>
		<rect x="223.595" y="26.427" fill="#154A8C" width="3.572" height="3.796"/>
		<rect x="215.144" y="26.427" fill="#154A8C" width="3.572" height="3.796"/>
		<rect x="206.691" y="26.427" fill="#154A8C" width="3.571" height="3.796"/>
		<rect x="198.239" y="26.427" fill="#154A8C" width="3.568" height="3.796"/>
		<rect x="189.787" y="26.427" fill="#154A8C" width="3.571" height="3.796"/>
	</g>
	<g>
		<rect x="401.224" y="26.427" fill="#154A8C" width="3.57" height="3.796"/>
		<rect x="392.771" y="26.427" fill="#154A8C" width="3.572" height="3.796"/>
		<rect x="384.319" y="26.427" fill="#154A8C" width="3.57" height="3.796"/>
		<rect x="375.866" y="26.427" fill="#154A8C" width="3.57" height="3.796"/>
		<rect x="367.415" y="26.427" fill="#154A8C" width="3.57" height="3.796"/>
		<rect x="358.962" y="26.427" fill="#154A8C" width="3.573" height="3.796"/>
		<rect x="451.08" y="26.427" fill="#154A8C" width="3.57" height="3.796"/>
		<rect x="442.627" y="26.427" fill="#154A8C" width="3.572" height="3.796"/>
		<rect x="434.176" y="26.427" fill="#154A8C" width="3.57" height="3.796"/>
		<rect x="425.723" y="26.427" fill="#154A8C" width="3.57" height="3.796"/>
		<rect x="417.271" y="26.427" fill="#154A8C" width="3.57" height="3.796"/>
		<rect x="408.818" y="26.427" fill="#154A8C" width="3.573" height="3.796"/>
		<rect x="350.51" y="26.427" fill="#154A8C" width="3.573" height="3.796"/>
		<rect x="342.058" y="26.427" fill="#154A8C" width="3.572" height="3.796"/>
		<rect x="333.606" y="26.427" fill="#154A8C" width="3.572" height="3.796"/>
		<rect x="325.155" y="26.427" fill="#154A8C" width="3.572" height="3.796"/>
		<rect x="316.703" y="26.427" fill="#154A8C" width="3.571" height="3.796"/>
		<rect x="308.251" y="26.427" fill="#154A8C" width="3.568" height="3.796"/>
		<rect x="299.799" y="26.427" fill="#154A8C" width="3.571" height="3.796"/>
	</g>
</g>
</svg>