<!-- Generator: Adobe Illustrator 17.0.0, SVG Export Plug-In  -->
<svg version="1.1"
	 xmlns="http://www.w3.org/2000/svg" xmlns:xlink="http://www.w3.org/1999/xlink" xmlns:a="http://ns.adobe.com/AdobeSVGViewerExtensions/3.0/"
	 x="0px" y="0px" width="105.792px" height="600px" viewBox="0 0 105.792 600" enable-background="new 0 0 105.792 600"
	 xml:space="preserve">
<defs>
</defs>
<g>
	<path fill-rule="evenodd" clip-rule="evenodd" fill="#FFFFFF" d="M105.235,299.748c0-43.334-13.925-266.674-37.667-299.748H0v600
		h67.569C91.311,566.926,105.235,343.079,105.235,299.748"/>
	<g>
		<g>
			<defs>
				<rect id="SVGID_1_" x="66.968" width="38.824" height="302.859"/>
			</defs>
			<clipPath id="SVGID_2_">
				<use xlink:href="#SVGID_1_"  overflow="visible"/>
			</clipPath>
			<path clip-path="url(#SVGID_2_)" fill="#FFCC04" d="M105.652,302.41c2.162-46.584-21.463-292.051-25.096-301.271
				C80.322,0.543,79.787,0.133,79.16,0H66.968c0.636,0,1.236,0.305,1.597,0.814c23.388,32.981,37.087,256.441,37.087,299.502
				c0,0.85-0.014,1.695-0.025,2.543C105.635,302.709,105.645,302.564,105.652,302.41"/>
		</g>
	</g>
	<g>
		<g>
			<defs>
				<rect id="SVGID_3_" x="66.968" y="296.633" width="38.824" height="303.367"/>
			</defs>
			<clipPath id="SVGID_4_">
				<use xlink:href="#SVGID_3_"  overflow="visible"/>
			</clipPath>
			<path clip-path="url(#SVGID_4_)" fill="#FFCC04" d="M105.652,297.082c2.162,46.586-21.463,292.559-25.096,301.779
				c-0.234,0.596-0.769,1.006-1.396,1.139H66.968c0.636,0,1.236-0.305,1.597-0.813c23.388-32.982,37.087-256.949,37.087-300.012
				c0-0.85-0.014-1.695-0.025-2.543C105.635,296.785,105.645,296.928,105.652,297.082"/>
		</g>
	</g>
</g>
</svg>