<?xml version="1.0" encoding="utf-8"?>
<!-- Generator: Adobe Illustrator 17.0.0, SVG Export Plug-In . SVG Version: 6.00 Build 0)  -->
<!DOCTYPE svg PUBLIC "-//W3C//DTD SVG 1.1//EN" "http://www.w3.org/Graphics/SVG/1.1/DTD/svg11.dtd" [
	<!ENTITY ns_extend "http://ns.adobe.com/Extensibility/1.0/">
	<!ENTITY ns_ai "http://ns.adobe.com/AdobeIllustrator/10.0/">
	<!ENTITY ns_graphs "http://ns.adobe.com/Graphs/1.0/">
	<!ENTITY ns_vars "http://ns.adobe.com/Variables/1.0/">
	<!ENTITY ns_imrep "http://ns.adobe.com/ImageReplacement/1.0/">
	<!ENTITY ns_sfw "http://ns.adobe.com/SaveForWeb/1.0/">
	<!ENTITY ns_custom "http://ns.adobe.com/GenericCustomNamespace/1.0/">
	<!ENTITY ns_adobe_xpath "http://ns.adobe.com/XPath/1.0/">
]>
<svg version="1.1" id="Capa_1" xmlns:x="&ns_extend;" xmlns:i="&ns_ai;" xmlns:graph="&ns_graphs;"
	 xmlns="http://www.w3.org/2000/svg" xmlns:xlink="http://www.w3.org/1999/xlink" x="0px" y="0px" width="1280px" height="600px"
	 viewBox="0 0 1280 600" enable-background="new 0 0 1280 600" xml:space="preserve">
<metadata>
	<sfw  xmlns="&ns_sfw;">
		<slices></slices>
		<sliceSourceBounds  width="1286.909" height="602.139" y="-81.5" x="-329" bottomLeftOrigin="true"></sliceSourceBounds>
	</sfw>
</metadata>
<g>
	<g>
		<defs>
			<polyline id="SVGID_1_" points="0,0 0,600 1280,600 1280,0 			"/>
		</defs>
		<clipPath id="SVGID_2_">
			<use xlink:href="#SVGID_1_"  overflow="visible"/>
		</clipPath>
		<g clip-path="url(#SVGID_2_)">
			
				<radialGradient id="SVGID_3_" cx="154.157" cy="540.6967" r="25.3555" gradientTransform="matrix(51.2 0 0 -24 -7252.8379 13276.7207)" gradientUnits="userSpaceOnUse">
				<stop  offset="0" style="stop-color:#0A2346"/>
				<stop  offset="0.0456" style="stop-color:#0B264C"/>
				<stop  offset="0.2827" style="stop-color:#0F3668"/>
				<stop  offset="0.5213" style="stop-color:#12417C"/>
				<stop  offset="0.7602" style="stop-color:#144888"/>
				<stop  offset="1" style="stop-color:#154A8C"/>
			</radialGradient>
			<rect x="0.5" y="0.5" fill="url(#SVGID_3_)" width="1279" height="599"/>
			<path fill="#FFFFFF" d="M1279,1v598H1V1H1279 M1280,0H0v600h1280V0L1280,0z"/>
		</g>
	</g>
	<g>
		<defs>
			<polyline id="SVGID_4_" points="0,0 0,600 1280,600 1280,0 			"/>
		</defs>
		<clipPath id="SVGID_5_">
			<use xlink:href="#SVGID_4_"  overflow="visible"/>
		</clipPath>
		<g clip-path="url(#SVGID_5_)">
			
				<line opacity="0.1" fill="none" stroke="#FFFFFF" stroke-miterlimit="10" enable-background="new    " x1="29.767" y1="-1.139" x2="29.767" y2="601"/>
			
				<line opacity="0.1" fill="none" stroke="#FFFFFF" stroke-miterlimit="10" enable-background="new    " x1="0" y1="-1.139" x2="0" y2="601"/>
			
				<line opacity="0.1" fill="none" stroke="#FFFFFF" stroke-miterlimit="10" enable-background="new    " x1="59.535" y1="-1.139" x2="59.535" y2="601"/>
			
				<line opacity="0.1" fill="none" stroke="#FFFFFF" stroke-miterlimit="10" enable-background="new    " x1="89.302" y1="-1.139" x2="89.302" y2="601"/>
			
				<line opacity="0.1" fill="none" stroke="#FFFFFF" stroke-miterlimit="10" enable-background="new    " x1="119.07" y1="-1.139" x2="119.07" y2="601"/>
			
				<line opacity="0.1" fill="none" stroke="#FFFFFF" stroke-miterlimit="10" enable-background="new    " x1="148.837" y1="-1.139" x2="148.837" y2="601"/>
			
				<line opacity="0.1" fill="none" stroke="#FFFFFF" stroke-miterlimit="10" enable-background="new    " x1="178.605" y1="-1.139" x2="178.605" y2="601"/>
			
				<line opacity="0.1" fill="none" stroke="#FFFFFF" stroke-miterlimit="10" enable-background="new    " x1="208.372" y1="-1.139" x2="208.372" y2="601"/>
			
				<line opacity="0.1" fill="none" stroke="#FFFFFF" stroke-miterlimit="10" enable-background="new    " x1="238.14" y1="-1.139" x2="238.14" y2="601"/>
			
				<line opacity="0.1" fill="none" stroke="#FFFFFF" stroke-miterlimit="10" enable-background="new    " x1="267.907" y1="-1.139" x2="267.907" y2="601"/>
			
				<line opacity="0.1" fill="none" stroke="#FFFFFF" stroke-miterlimit="10" enable-background="new    " x1="297.674" y1="-1.139" x2="297.674" y2="601"/>
			
				<line opacity="0.1" fill="none" stroke="#FFFFFF" stroke-miterlimit="10" enable-background="new    " x1="327.442" y1="-1.139" x2="327.442" y2="601"/>
			
				<line opacity="0.1" fill="none" stroke="#FFFFFF" stroke-miterlimit="10" enable-background="new    " x1="357.209" y1="-1.139" x2="357.209" y2="601"/>
			
				<line opacity="0.1" fill="none" stroke="#FFFFFF" stroke-miterlimit="10" enable-background="new    " x1="386.977" y1="-1.139" x2="386.977" y2="601"/>
			
				<line opacity="0.1" fill="none" stroke="#FFFFFF" stroke-miterlimit="10" enable-background="new    " x1="416.744" y1="-1.139" x2="416.744" y2="601"/>
			
				<line opacity="0.1" fill="none" stroke="#FFFFFF" stroke-miterlimit="10" enable-background="new    " x1="446.512" y1="-1.139" x2="446.512" y2="601"/>
			
				<line opacity="0.1" fill="none" stroke="#FFFFFF" stroke-miterlimit="10" enable-background="new    " x1="476.279" y1="-1.139" x2="476.279" y2="601"/>
			
				<line opacity="0.1" fill="none" stroke="#FFFFFF" stroke-miterlimit="10" enable-background="new    " x1="506.047" y1="-1.139" x2="506.047" y2="601"/>
			
				<line opacity="0.1" fill="none" stroke="#FFFFFF" stroke-miterlimit="10" enable-background="new    " x1="535.814" y1="-1.139" x2="535.814" y2="601"/>
			
				<line opacity="0.1" fill="none" stroke="#FFFFFF" stroke-miterlimit="10" enable-background="new    " x1="0" y1="540" x2="1286.409" y2="540"/>
			
				<line opacity="0.1" fill="none" stroke="#FFFFFF" stroke-miterlimit="10" enable-background="new    " x1="0" y1="510" x2="1286.409" y2="510"/>
			
				<line opacity="0.1" fill="none" stroke="#FFFFFF" stroke-miterlimit="10" enable-background="new    " x1="0" y1="480.001" x2="1286.409" y2="480"/>
			
				<line opacity="0.1" fill="none" stroke="#FFFFFF" stroke-miterlimit="10" enable-background="new    " x1="0" y1="570" x2="1286.409" y2="569.999"/>
			
				<line opacity="0.1" fill="none" stroke="#FFFFFF" stroke-miterlimit="10" enable-background="new    " x1="0" y1="600" x2="1286.409" y2="600"/>
			
				<line opacity="0.1" fill="none" stroke="#FFFFFF" stroke-miterlimit="10" enable-background="new    " x1="0" y1="450" x2="1286.409" y2="450"/>
			
				<line opacity="0.1" fill="none" stroke="#FFFFFF" stroke-miterlimit="10" enable-background="new    " x1="0" y1="420" x2="1286.409" y2="420"/>
			
				<line opacity="0.1" fill="none" stroke="#FFFFFF" stroke-miterlimit="10" enable-background="new    " x1="0" y1="390" x2="1286.409" y2="390"/>
			
				<line opacity="0.1" fill="none" stroke="#FFFFFF" stroke-miterlimit="10" enable-background="new    " x1="0" y1="360" x2="1286.409" y2="360"/>
			
				<line opacity="0.1" fill="none" stroke="#FFFFFF" stroke-miterlimit="10" enable-background="new    " x1="0" y1="330" x2="1286.409" y2="330"/>
			
				<line opacity="0.1" fill="none" stroke="#FFFFFF" stroke-miterlimit="10" enable-background="new    " x1="0" y1="300" x2="1286.409" y2="300"/>
			
				<line opacity="0.1" fill="none" stroke="#FFFFFF" stroke-miterlimit="10" enable-background="new    " x1="0" y1="270" x2="1286.409" y2="269.999"/>
			
				<line opacity="0.1" fill="none" stroke="#FFFFFF" stroke-miterlimit="10" enable-background="new    " x1="0" y1="240" x2="1286.409" y2="239.999"/>
			
				<line opacity="0.1" fill="none" stroke="#FFFFFF" stroke-miterlimit="10" enable-background="new    " x1="0" y1="210" x2="1286.409" y2="209.999"/>
			
				<line opacity="0.1" fill="none" stroke="#FFFFFF" stroke-miterlimit="10" enable-background="new    " x1="0" y1="180" x2="1286.409" y2="179.999"/>
			
				<line opacity="0.1" fill="none" stroke="#FFFFFF" stroke-miterlimit="10" enable-background="new    " x1="0" y1="149.999" x2="1286.409" y2="149.999"/>
			
				<line opacity="0.1" fill="none" stroke="#FFFFFF" stroke-miterlimit="10" enable-background="new    " x1="0" y1="119.999" x2="1286.409" y2="119.999"/>
			
				<line opacity="0.1" fill="none" stroke="#FFFFFF" stroke-miterlimit="10" enable-background="new    " x1="0" y1="89.999" x2="1286.409" y2="89.999"/>
			
				<line opacity="0.1" fill="none" stroke="#FFFFFF" stroke-miterlimit="10" enable-background="new    " x1="0" y1="59.999" x2="1286.409" y2="59.999"/>
			
				<line opacity="0.1" fill="none" stroke="#FFFFFF" stroke-miterlimit="10" enable-background="new    " x1="0" y1="30" x2="1286.409" y2="30"/>
			
				<line opacity="0.1" fill="none" stroke="#FFFFFF" stroke-miterlimit="10" enable-background="new    " x1="0" y1="0" x2="1286.409" y2="0"/>
			
				<line opacity="0.1" fill="none" stroke="#FFFFFF" stroke-miterlimit="10" enable-background="new    " x1="565.581" y1="-1.139" x2="565.581" y2="601"/>
			
				<line opacity="0.1" fill="none" stroke="#FFFFFF" stroke-miterlimit="10" enable-background="new    " x1="595.349" y1="-1.139" x2="595.349" y2="601"/>
			
				<line opacity="0.1" fill="none" stroke="#FFFFFF" stroke-miterlimit="10" enable-background="new    " x1="625.116" y1="-1.139" x2="625.116" y2="601"/>
			
				<line opacity="0.1" fill="none" stroke="#FFFFFF" stroke-miterlimit="10" enable-background="new    " x1="654.884" y1="-1.139" x2="654.884" y2="601"/>
			
				<line opacity="0.1" fill="none" stroke="#FFFFFF" stroke-miterlimit="10" enable-background="new    " x1="684.651" y1="-1.139" x2="684.651" y2="601"/>
			
				<line opacity="0.1" fill="none" stroke="#FFFFFF" stroke-miterlimit="10" enable-background="new    " x1="714.419" y1="-1.139" x2="714.419" y2="601"/>
			
				<line opacity="0.1" fill="none" stroke="#FFFFFF" stroke-miterlimit="10" enable-background="new    " x1="744.186" y1="-1.139" x2="744.186" y2="601"/>
			
				<line opacity="0.1" fill="none" stroke="#FFFFFF" stroke-miterlimit="10" enable-background="new    " x1="773.953" y1="-1.139" x2="773.953" y2="601"/>
			
				<line opacity="0.1" fill="none" stroke="#FFFFFF" stroke-miterlimit="10" enable-background="new    " x1="803.721" y1="-1.139" x2="803.721" y2="601"/>
			
				<line opacity="0.1" fill="none" stroke="#FFFFFF" stroke-miterlimit="10" enable-background="new    " x1="833.488" y1="-1.139" x2="833.488" y2="601"/>
			
				<line opacity="0.1" fill="none" stroke="#FFFFFF" stroke-miterlimit="10" enable-background="new    " x1="863.256" y1="-1.139" x2="863.256" y2="601"/>
			
				<line opacity="0.1" fill="none" stroke="#FFFFFF" stroke-miterlimit="10" enable-background="new    " x1="893.023" y1="-1.139" x2="893.023" y2="601"/>
			
				<line opacity="0.1" fill="none" stroke="#FFFFFF" stroke-miterlimit="10" enable-background="new    " x1="922.791" y1="-1.139" x2="922.791" y2="601"/>
			
				<line opacity="0.1" fill="none" stroke="#FFFFFF" stroke-miterlimit="10" enable-background="new    " x1="952.558" y1="-1.139" x2="952.558" y2="601"/>
			
				<line opacity="0.1" fill="none" stroke="#FFFFFF" stroke-miterlimit="10" enable-background="new    " x1="982.326" y1="-1.139" x2="982.326" y2="601"/>
			
				<line opacity="0.1" fill="none" stroke="#FFFFFF" stroke-miterlimit="10" enable-background="new    " x1="1012.093" y1="-1.139" x2="1012.093" y2="601"/>
			
				<line opacity="0.1" fill="none" stroke="#FFFFFF" stroke-miterlimit="10" enable-background="new    " x1="1041.86" y1="-1.139" x2="1041.86" y2="601"/>
			
				<line opacity="0.1" fill="none" stroke="#FFFFFF" stroke-miterlimit="10" enable-background="new    " x1="1071.628" y1="-1.139" x2="1071.628" y2="601"/>
			
				<line opacity="0.1" fill="none" stroke="#FFFFFF" stroke-miterlimit="10" enable-background="new    " x1="1101.395" y1="-1.139" x2="1101.395" y2="601"/>
			
				<line opacity="0.1" fill="none" stroke="#FFFFFF" stroke-miterlimit="10" enable-background="new    " x1="1131.163" y1="-1.139" x2="1131.163" y2="601"/>
			
				<line opacity="0.1" fill="none" stroke="#FFFFFF" stroke-miterlimit="10" enable-background="new    " x1="1160.93" y1="-1.139" x2="1160.93" y2="601"/>
			
				<line opacity="0.1" fill="none" stroke="#FFFFFF" stroke-miterlimit="10" enable-background="new    " x1="1190.698" y1="-1.139" x2="1190.698" y2="601"/>
			
				<line opacity="0.1" fill="none" stroke="#FFFFFF" stroke-miterlimit="10" enable-background="new    " x1="1220.465" y1="-1.139" x2="1220.465" y2="601"/>
			
				<line opacity="0.1" fill="none" stroke="#FFFFFF" stroke-miterlimit="10" enable-background="new    " x1="1250.233" y1="-1.139" x2="1250.233" y2="601"/>
			
				<line opacity="0.1" fill="none" stroke="#FFFFFF" stroke-miterlimit="10" enable-background="new    " x1="1280" y1="-1.139" x2="1280" y2="601"/>
		</g>
	</g>
	<g>
		<defs>
			<polyline id="SVGID_6_" points="0,0 0,600 1280,600 1280,0 			"/>
		</defs>
		<clipPath id="SVGID_7_">
			<use xlink:href="#SVGID_6_"  overflow="visible"/>
		</clipPath>
	</g>
	<g>
		<defs>
			<polyline id="SVGID_8_" points="0,0 0,600 1280,600 1280,0 			"/>
		</defs>
		<clipPath id="SVGID_9_">
			<use xlink:href="#SVGID_8_"  overflow="visible"/>
		</clipPath>
	</g>
	<g>
		<defs>
			<polyline id="SVGID_10_" points="0,0 0,600 1280,600 1280,0 			"/>
		</defs>
		<clipPath id="SVGID_11_">
			<use xlink:href="#SVGID_10_"  overflow="visible"/>
		</clipPath>
	</g>
	<g>
		<defs>
			<polyline id="SVGID_12_" points="0,0 0,600 1280,600 1280,0 			"/>
		</defs>
		<clipPath id="SVGID_13_">
			<use xlink:href="#SVGID_12_"  overflow="visible"/>
		</clipPath>
	</g>
</g>
</svg>
