<!-- Generator: Adobe Illustrator 17.0.0, SVG Export Plug-In  -->
<svg version="1.1"
	 xmlns="http://www.w3.org/2000/svg" xmlns:xlink="http://www.w3.org/1999/xlink" xmlns:a="http://ns.adobe.com/AdobeSVGViewerExtensions/3.0/"
	 x="0px" y="0px" width="204.913px" height="67.898px" viewBox="0 0 204.913 67.898" enable-background="new 0 0 204.913 67.898"
	 xml:space="preserve">
<defs>
</defs>
<g>
	<g>
		<g>
			<path d="M0.308,37.261V8.269h2.607v28.991H0.308z"/>
			<path d="M27.676,37.261l-12.09-21.106L15.345,14.9v22.36h-2.61V8.269h1.357l12.09,21.127l0.263,1.233V8.269h2.607v28.991H27.676z
				"/>
			<path d="M54.763,37.261h-0.83l-1.515-2.325c-0.634,0.836-1.403,1.5-2.307,1.992c-0.903,0.492-1.907,0.738-3.013,0.738h-1.516
				c-0.983,0-1.91-0.186-2.78-0.557c-0.869-0.371-1.627-0.879-2.274-1.526c-0.647-0.647-1.156-1.401-1.527-2.265
				c-0.371-0.862-0.556-1.785-0.556-2.769V14.981c0-0.983,0.185-1.907,0.556-2.77c0.371-0.861,0.88-1.617,1.527-2.264
				c0.646-0.646,1.404-1.156,2.274-1.527c0.87-0.369,1.797-0.556,2.78-0.556h2.063c0.983,0,1.907,0.187,2.77,0.556
				c0.862,0.371,1.617,0.881,2.265,1.527c0.646,0.647,1.156,1.402,1.526,2.264c0.37,0.863,0.557,1.787,0.557,2.77v1.173
				l-2.608,0.404v-1.577c0-0.647-0.122-1.25-0.364-1.809c-0.242-0.559-0.573-1.048-0.991-1.467c-0.417-0.416-0.905-0.747-1.465-0.99
				c-0.56-0.242-1.162-0.363-1.811-0.363h-1.818c-0.647,0-1.251,0.121-1.81,0.363c-0.559,0.243-1.051,0.574-1.475,0.99
				c-0.426,0.419-0.759,0.908-1.002,1.467c-0.242,0.559-0.364,1.162-0.364,1.809v15.567c0,0.646,0.122,1.25,0.364,1.81
				c0.243,0.56,0.576,1.052,1.002,1.476c0.424,0.425,0.916,0.758,1.475,1c0.559,0.244,1.163,0.365,1.81,0.365h1.818
				c0.648,0,1.251-0.121,1.811-0.365c0.56-0.242,1.048-0.575,1.465-1c0.418-0.424,0.749-0.916,0.991-1.476
				c0.242-0.56,0.364-1.163,0.364-1.81v-6.045h-4.631v-2.486h7.239V37.261z"/>
			<path d="M64.178,37.261V8.269h16.315v2.486H66.785v10.775h11.1v2.487h-11.1v10.756h13.708v2.486H64.178z"/>
			<path d="M103.596,37.261l-12.09-21.106L91.263,14.9v22.36h-2.608V8.269h1.354L102.1,29.396l0.264,1.233V8.269h2.607v28.991
				H103.596z"/>
			<path d="M114.79,37.261V8.269h2.607v28.991H114.79z"/>
			<path d="M127.217,37.261V8.269h16.316v2.486h-13.707v10.775h11.1v2.487h-11.1v10.756h13.707v2.486H127.217z"/>
			<path d="M165.321,37.261l-7.863-12.373h-3.58v12.373h-2.607V8.269h9.198c0.985,0,1.907,0.185,2.771,0.556
				c0.861,0.371,1.616,0.88,2.264,1.526c0.646,0.647,1.156,1.404,1.527,2.274c0.369,0.871,0.556,1.797,0.556,2.781v2.345
				c0,0.983-0.187,1.91-0.556,2.78c-0.371,0.869-0.882,1.627-1.527,2.274c-0.647,0.647-1.402,1.155-2.264,1.526
				c-0.864,0.371-1.786,0.556-2.771,0.556l7.866,12.373H165.321z M164.978,15.406c0-0.648-0.121-1.25-0.363-1.81
				c-0.242-0.56-0.573-1.052-0.991-1.477c-0.417-0.424-0.906-0.758-1.465-1.001c-0.559-0.242-1.163-0.363-1.809-0.363h-6.471v11.646
				h6.471c0.646,0,1.25-0.122,1.809-0.364c0.559-0.242,1.048-0.576,1.465-1c0.418-0.426,0.749-0.917,0.991-1.477
				c0.242-0.559,0.363-1.162,0.363-1.809V15.406z"/>
			<path d="M176.779,4.973h-1.859L178.234,0h4.145L176.779,4.973z M176.497,37.261V8.269h2.607v28.991H176.497z"/>
			<path d="M199.8,30.508h-9.178l-1.9,6.753h-2.71l8.492-28.991h1.374l8.532,28.991h-2.689L199.8,30.508z M191.329,28.021h7.784
				l-3.821-13.363l-0.079-1.072l-0.082,1.072L191.329,28.021z"/>
		</g>
	</g>
	<g>
		<g>
			<path d="M9.808,61.229c-0.23,0.536-0.547,1.007-0.949,1.409c-0.403,0.402-0.875,0.719-1.416,0.949
				c-0.541,0.231-1.118,0.347-1.729,0.347H0V45.892h5.713c0.611,0,1.188,0.115,1.729,0.346c0.541,0.231,1.013,0.548,1.416,0.95
				c0.402,0.402,0.719,0.875,0.949,1.416c0.231,0.541,0.347,1.117,0.347,1.729v9.173C10.154,60.118,10.039,60.693,9.808,61.229z
				 M8.531,50.333c0-0.403-0.076-0.778-0.227-1.126c-0.151-0.348-0.358-0.654-0.623-0.918c-0.265-0.266-0.57-0.473-0.919-0.623
				c-0.348-0.151-0.723-0.227-1.126-0.227H1.623v14.947h4.014c0.403,0,0.778-0.075,1.126-0.227c0.349-0.15,0.654-0.355,0.919-0.616
				c0.265-0.26,0.472-0.563,0.623-0.912c0.15-0.349,0.227-0.724,0.227-1.126V50.333z"/>
			<path d="M14.017,63.935V45.892h10.154v1.548H15.64v6.706h6.908v1.548H15.64v6.693h8.531v1.548H14.017z"/>
			<path d="M41.673,63.935l-4.895-7.7h-2.227v7.7h-1.624V45.892h5.726c0.612,0,1.187,0.115,1.724,0.346
				c0.537,0.231,1.007,0.548,1.409,0.95s0.719,0.875,0.95,1.416c0.23,0.541,0.346,1.117,0.346,1.729v1.46
				c0,0.611-0.115,1.188-0.346,1.729c-0.231,0.541-0.548,1.013-0.95,1.415c-0.402,0.403-0.872,0.721-1.409,0.951
				s-1.111,0.346-1.724,0.346l4.895,7.7H41.673z M41.459,50.333c0-0.403-0.075-0.778-0.227-1.126
				c-0.15-0.348-0.356-0.654-0.616-0.918c-0.261-0.266-0.564-0.473-0.912-0.623c-0.349-0.151-0.724-0.227-1.126-0.227h-4.026v7.247
				h4.026c0.402,0,0.777-0.075,1.126-0.227c0.348-0.151,0.651-0.358,0.912-0.622c0.26-0.266,0.466-0.57,0.616-0.92
				c0.151-0.348,0.227-0.723,0.227-1.125V50.333z"/>
			<path d="M46.643,63.935V45.892h10.154v1.548h-8.531v6.706h6.908v1.548h-6.908v6.693h8.531v1.548H46.643z"/>
			<path d="M69.467,61.418c-0.21,0.521-0.499,0.978-0.868,1.371c-0.369,0.395-0.804,0.716-1.303,0.963
				c-0.499,0.248-1.033,0.393-1.604,0.434l1.648,3.713h-1.624l-1.647-3.713c-0.612,0-1.189-0.115-1.73-0.346
				c-0.541-0.23-1.013-0.547-1.415-0.949c-0.403-0.402-0.72-0.873-0.95-1.41c-0.231-0.536-0.347-1.111-0.347-1.723v-9.689
				c0-0.611,0.115-1.187,0.347-1.723c0.23-0.537,0.547-1.008,0.95-1.41c0.402-0.402,0.874-0.719,1.415-0.949s1.118-0.347,1.73-0.347
				h1.283c0.612,0,1.187,0.116,1.724,0.347s1.007,0.547,1.409,0.949s0.719,0.873,0.95,1.41c0.23,0.536,0.346,1.111,0.346,1.723
				v9.689C69.781,60.344,69.677,60.898,69.467,61.418z M68.158,50.068c0-0.402-0.075-0.777-0.227-1.125
				c-0.15-0.349-0.356-0.652-0.616-0.913c-0.261-0.26-0.564-0.466-0.912-0.616c-0.349-0.151-0.724-0.227-1.126-0.227h-1.133
				c-0.402,0-0.778,0.075-1.126,0.227c-0.349,0.15-0.654,0.356-0.919,0.616c-0.264,0.261-0.472,0.564-0.623,0.913
				c-0.15,0.348-0.226,0.723-0.226,1.125v9.689c0,0.402,0.075,0.777,0.226,1.125c0.151,0.349,0.359,0.654,0.623,0.919
				c0.265,0.265,0.57,0.472,0.919,0.623c0.348,0.151,0.724,0.227,1.126,0.227h1.133c0.402,0,0.777-0.075,1.126-0.227
				c0.348-0.151,0.651-0.358,0.912-0.623c0.26-0.265,0.466-0.57,0.616-0.919c0.151-0.348,0.227-0.723,0.227-1.125V50.068z"/>
			<path d="M83.2,61.48c-0.231,0.537-0.548,1.008-0.95,1.41s-0.872,0.719-1.409,0.949c-0.537,0.23-1.111,0.346-1.724,0.346h-1.283
				c-0.612,0-1.189-0.115-1.73-0.346c-0.541-0.23-1.013-0.547-1.415-0.949c-0.403-0.402-0.72-0.873-0.95-1.41
				c-0.231-0.536-0.347-1.111-0.347-1.723V45.892h1.624v13.866c0,0.402,0.075,0.777,0.226,1.125
				c0.151,0.349,0.359,0.654,0.623,0.919c0.265,0.265,0.57,0.472,0.919,0.623c0.348,0.151,0.724,0.227,1.126,0.227h1.133
				c0.402,0,0.777-0.075,1.126-0.227c0.348-0.151,0.651-0.358,0.912-0.623c0.26-0.265,0.466-0.57,0.616-0.919
				c0.151-0.348,0.227-0.723,0.227-1.125V45.892h1.623v13.866C83.546,60.369,83.431,60.944,83.2,61.48z"/>
			<path d="M87.421,63.935V45.892h10.154v1.548h-8.531v6.706h6.908v1.548h-6.908v6.693h8.531v1.548H87.421z"/>
			<path d="M109.15,63.935l-4.895-7.7h-2.227v7.7h-1.624V45.892h5.726c0.612,0,1.187,0.115,1.724,0.346
				c0.537,0.231,1.007,0.548,1.409,0.95s0.719,0.875,0.95,1.416c0.23,0.541,0.346,1.117,0.346,1.729v1.46
				c0,0.611-0.115,1.188-0.346,1.729c-0.231,0.541-0.548,1.013-0.95,1.415c-0.402,0.403-0.872,0.721-1.409,0.951
				s-1.111,0.346-1.724,0.346l4.895,7.7H109.15z M108.937,50.333c0-0.403-0.075-0.778-0.227-1.126
				c-0.15-0.348-0.356-0.654-0.616-0.918c-0.261-0.266-0.564-0.473-0.912-0.623c-0.349-0.151-0.724-0.227-1.126-0.227h-4.026v7.247
				h4.026c0.402,0,0.777-0.075,1.126-0.227c0.348-0.151,0.651-0.358,0.912-0.622c0.26-0.266,0.466-0.57,0.616-0.92
				c0.151-0.348,0.227-0.723,0.227-1.125V50.333z"/>
			<path d="M114.12,63.935V45.892h1.623v18.043H114.12z"/>
			<path d="M130.98,63.935V51.566l-0.113,0.768l-4.19,11.601h-0.855l-4.228-11.601l-0.101-0.768v12.368h-1.623V45.892h0.843
				l5.474,14.797l0.051,0.667l0.05-0.667l5.461-14.797h0.855v18.043H130.98z"/>
			<path d="M136.718,63.935V45.892h1.623v18.043H136.718z"/>
			<path d="M142.468,63.935V45.892h10.154v1.548h-8.531v6.706h6.908v1.548h-6.908v6.693h8.531v1.548H142.468z"/>
			<path d="M165.016,63.935l-7.524-13.136l-0.151-0.78v13.916h-1.623V45.892h0.843l7.524,13.148l0.164,0.768V45.892h1.623v18.043
				H165.016z"/>
			<path d="M174.377,47.439v16.495h-1.623V47.439h-4.304v-1.548h10.229v1.548H174.377z"/>
			<path d="M190.803,61.48c-0.231,0.537-0.548,1.008-0.95,1.41s-0.872,0.719-1.409,0.949c-0.537,0.23-1.111,0.346-1.724,0.346
				h-1.283c-0.612,0-1.189-0.115-1.73-0.346c-0.541-0.23-1.013-0.547-1.415-0.949c-0.403-0.402-0.72-0.873-0.95-1.41
				c-0.231-0.536-0.347-1.111-0.347-1.723v-9.689c0-0.611,0.115-1.187,0.347-1.723c0.23-0.537,0.547-1.008,0.95-1.41
				c0.402-0.402,0.874-0.719,1.415-0.949s1.118-0.347,1.73-0.347h1.283c0.612,0,1.187,0.116,1.724,0.347s1.007,0.547,1.409,0.949
				s0.719,0.873,0.95,1.41c0.23,0.536,0.346,1.111,0.346,1.723v9.689C191.148,60.369,191.033,60.944,190.803,61.48z M189.525,50.068
				c0-0.402-0.075-0.777-0.227-1.125c-0.15-0.349-0.356-0.652-0.616-0.913c-0.261-0.26-0.564-0.466-0.912-0.616
				c-0.349-0.151-0.724-0.227-1.126-0.227h-1.133c-0.402,0-0.778,0.075-1.126,0.227c-0.349,0.15-0.654,0.356-0.919,0.616
				c-0.264,0.261-0.472,0.564-0.623,0.913c-0.15,0.348-0.226,0.723-0.226,1.125v9.689c0,0.402,0.075,0.777,0.226,1.125
				c0.151,0.349,0.359,0.654,0.623,0.919c0.265,0.265,0.57,0.472,0.919,0.623c0.348,0.151,0.724,0.227,1.126,0.227h1.133
				c0.402,0,0.777-0.075,1.126-0.227c0.348-0.151,0.651-0.358,0.912-0.623c0.26-0.265,0.466-0.57,0.616-0.919
				c0.151-0.348,0.227-0.723,0.227-1.125V50.068z"/>
			<path d="M204.913,59.758c0,0.611-0.124,1.187-0.371,1.723c-0.247,0.537-0.579,1.008-0.994,1.41s-0.897,0.719-1.447,0.949
				c-0.549,0.23-1.13,0.346-1.742,0.346h-1.296c-0.612,0-1.193-0.115-1.743-0.346c-0.549-0.23-1.031-0.547-1.446-0.949
				s-0.747-0.873-0.994-1.41c-0.248-0.536-0.371-1.111-0.371-1.723V59.04l1.623-0.265v0.982c0,0.402,0.082,0.777,0.245,1.125
				c0.164,0.349,0.384,0.654,0.661,0.919c0.276,0.265,0.598,0.472,0.962,0.623c0.365,0.151,0.749,0.227,1.151,0.227h1.133
				c0.402,0,0.784-0.075,1.145-0.227s0.68-0.358,0.956-0.623c0.277-0.265,0.497-0.57,0.661-0.919
				c0.163-0.348,0.245-0.723,0.245-1.125v-0.541c0-0.621-0.122-1.137-0.365-1.549c-0.243-0.41-0.565-0.761-0.969-1.051
				c-0.402-0.289-0.857-0.534-1.365-0.735c-0.507-0.201-1.029-0.403-1.566-0.604s-1.059-0.423-1.566-0.666
				c-0.508-0.244-0.962-0.548-1.365-0.912c-0.402-0.365-0.726-0.813-0.969-1.34c-0.243-0.529-0.365-1.18-0.365-1.951v-0.34
				c0-0.611,0.115-1.187,0.347-1.723c0.23-0.537,0.547-1.008,0.95-1.41c0.402-0.402,0.874-0.719,1.415-0.949s1.118-0.347,1.73-0.347
				h1.157c0.612,0,1.187,0.116,1.724,0.347s1.007,0.547,1.409,0.949c0.403,0.402,0.72,0.873,0.95,1.41
				c0.23,0.536,0.346,1.111,0.346,1.723v0.466l-1.623,0.265v-0.73c0-0.402-0.075-0.777-0.227-1.125
				c-0.15-0.349-0.356-0.652-0.616-0.913c-0.26-0.26-0.564-0.466-0.912-0.616c-0.349-0.151-0.724-0.227-1.126-0.227h-1.007
				c-0.402,0-0.778,0.075-1.126,0.227c-0.349,0.15-0.654,0.356-0.919,0.616c-0.264,0.261-0.472,0.564-0.623,0.913
				c-0.15,0.348-0.226,0.723-0.226,1.125v0.34c0,0.579,0.121,1.066,0.364,1.46s0.566,0.731,0.969,1.013
				c0.403,0.281,0.857,0.524,1.365,0.73c0.508,0.205,1.03,0.414,1.566,0.629c0.537,0.213,1.06,0.448,1.566,0.704
				c0.508,0.256,0.963,0.571,1.365,0.944c0.403,0.373,0.726,0.828,0.969,1.365c0.244,0.536,0.365,1.19,0.365,1.963V59.758z"/>
		</g>
	</g>
</g>
</svg>