<?xml version="1.0" encoding="utf-8"?>
<!-- Generator: Adobe Illustrator 17.0.0, SVG Export Plug-In . SVG Version: 6.00 Build 0)  -->
<!DOCTYPE svg PUBLIC "-//W3C//DTD SVG 1.1//EN" "http://www.w3.org/Graphics/SVG/1.1/DTD/svg11.dtd" [
	<!ENTITY ns_extend "http://ns.adobe.com/Extensibility/1.0/">
	<!ENTITY ns_ai "http://ns.adobe.com/AdobeIllustrator/10.0/">
	<!ENTITY ns_graphs "http://ns.adobe.com/Graphs/1.0/">
	<!ENTITY ns_vars "http://ns.adobe.com/Variables/1.0/">
	<!ENTITY ns_imrep "http://ns.adobe.com/ImageReplacement/1.0/">
	<!ENTITY ns_sfw "http://ns.adobe.com/SaveForWeb/1.0/">
	<!ENTITY ns_custom "http://ns.adobe.com/GenericCustomNamespace/1.0/">
	<!ENTITY ns_adobe_xpath "http://ns.adobe.com/XPath/1.0/">
]>
<svg version="1.1" id="Capa_1" xmlns:x="&ns_extend;" xmlns:i="&ns_ai;" xmlns:graph="&ns_graphs;"
	 xmlns="http://www.w3.org/2000/svg" xmlns:xlink="http://www.w3.org/1999/xlink" x="0px" y="0px" width="247.638px"
	 height="58.139px" viewBox="0 0 247.638 58.139" enable-background="new 0 0 247.638 58.139" xml:space="preserve">
<metadata>
	<sfw  xmlns="&ns_sfw;">
		<slices></slices>
		<sliceSourceBounds  width="555.971" height="404.443" y="-416.037" x="7.862" bottomLeftOrigin="true"></sliceSourceBounds>
	</sfw>
</metadata>
<g>
	<polygon fill-rule="evenodd" clip-rule="evenodd" fill="#A8A7A7" points="233.61,58.139 247.638,40.354 237.212,20.186 
		233.61,20.188 	"/>
	<rect x="0" y="0" fill-rule="evenodd" clip-rule="evenodd" fill="#FFFFFF" width="247.638" height="40.354"/>
	<g>
		<g>
			<path d="M54.12,21.084l2.382,0.756c-0.365,1.328-0.973,2.314-1.822,2.959c-0.849,0.645-1.927,0.967-3.233,0.967
				c-1.616,0-2.944-0.553-3.984-1.656s-1.561-2.613-1.561-4.527c0-2.025,0.523-3.6,1.569-4.719c1.046-1.121,2.421-1.682,4.125-1.682
				c1.489,0,2.698,0.439,3.627,1.32c0.553,0.52,0.968,1.267,1.245,2.24l-2.432,0.582c-0.144-0.631-0.444-1.129-0.901-1.494
				c-0.456-0.365-1.011-0.549-1.664-0.549c-0.902,0-1.634,0.324-2.195,0.972c-0.562,0.647-0.843,1.696-0.843,3.146
				c0,1.539,0.277,2.635,0.83,3.287c0.553,0.653,1.273,0.98,2.158,0.98c0.653,0,1.215-0.208,1.685-0.623S53.916,21.975,54.12,21.084
				z"/>
			<path d="M56.797,21.025c0-0.774,0.191-1.523,0.573-2.249s0.923-1.278,1.623-1.66c0.7-0.382,1.482-0.573,2.345-0.573
				c1.333,0,2.427,0.434,3.279,1.299c0.852,0.867,1.278,1.961,1.278,3.283c0,1.334-0.43,2.439-1.291,3.316
				c-0.86,0.877-1.943,1.316-3.25,1.316c-0.808,0-1.579-0.184-2.312-0.549c-0.733-0.365-1.291-0.9-1.672-1.605
				S56.797,22.039,56.797,21.025z M59.188,21.15c0,0.875,0.208,1.544,0.623,2.009s0.927,0.697,1.536,0.697s1.119-0.232,1.531-0.697
				c0.413-0.465,0.619-1.14,0.619-2.025c0-0.863-0.206-1.527-0.619-1.992c-0.412-0.465-0.922-0.697-1.531-0.697
				s-1.121,0.232-1.536,0.697S59.188,20.275,59.188,21.15z"/>
			<path d="M66.288,16.742h2.15v1.204c0.769-0.935,1.685-1.403,2.748-1.403c0.564,0,1.054,0.117,1.469,0.35s0.755,0.584,1.021,1.054
				c0.387-0.47,0.805-0.821,1.253-1.054s0.927-0.35,1.436-0.35c0.647,0,1.195,0.132,1.644,0.395
				c0.448,0.264,0.783,0.648,1.004,1.158c0.161,0.377,0.241,0.984,0.241,1.826v5.637h-2.333V20.52c0-0.875-0.08-1.439-0.241-1.693
				c-0.216-0.332-0.548-0.498-0.996-0.498c-0.327,0-0.634,0.1-0.921,0.299s-0.495,0.491-0.623,0.875
				c-0.127,0.385-0.191,0.992-0.191,1.822v4.234h-2.333v-4.832c0-0.857-0.042-1.41-0.125-1.66c-0.083-0.248-0.211-0.434-0.386-0.556
				c-0.174-0.122-0.411-0.183-0.709-0.183c-0.36,0-0.684,0.097-0.971,0.291c-0.288,0.193-0.494,0.473-0.618,0.838
				c-0.125,0.365-0.187,0.971-0.187,1.818v4.283h-2.333V16.742z"/>
			<path d="M85.426,22.752l2.324,0.391c-0.299,0.852-0.771,1.501-1.415,1.947c-0.645,0.445-1.452,0.668-2.42,0.668
				c-1.533,0-2.667-0.502-3.403-1.503c-0.581-0.802-0.872-1.815-0.872-3.038c0-1.461,0.382-2.605,1.146-3.432
				c0.764-0.828,1.729-1.242,2.897-1.242c1.312,0,2.346,0.434,3.104,1.299c0.758,0.867,1.121,2.193,1.087,3.98h-5.844
				c0.017,0.692,0.205,1.23,0.564,1.615s0.808,0.576,1.345,0.576c0.365,0,0.672-0.1,0.921-0.299S85.298,23.195,85.426,22.752z
				 M85.558,20.395c-0.017-0.675-0.191-1.188-0.523-1.539s-0.736-0.527-1.212-0.527c-0.509,0-0.93,0.186-1.262,0.557
				c-0.332,0.37-0.495,0.874-0.49,1.51H85.558z"/>
			<path d="M96.536,25.559h-2.333v-4.5c0-0.951-0.05-1.566-0.149-1.846c-0.1-0.28-0.262-0.498-0.485-0.652
				c-0.225-0.154-0.494-0.232-0.81-0.232c-0.404,0-0.767,0.111-1.087,0.332s-0.541,0.515-0.66,0.88
				c-0.119,0.365-0.179,1.04-0.179,2.025v3.993H88.5v-8.816h2.167v1.295c0.769-0.996,1.738-1.494,2.905-1.494
				c0.515,0,0.985,0.094,1.411,0.279c0.426,0.185,0.749,0.422,0.967,0.709c0.219,0.287,0.371,0.614,0.457,0.979
				c0.085,0.365,0.128,0.888,0.128,1.569V25.559z"/>
			<path d="M101.686,16.742v1.859h-1.594v3.553c0,0.72,0.015,1.139,0.046,1.258c0.03,0.119,0.1,0.217,0.207,0.295
				c0.108,0.078,0.24,0.116,0.395,0.116c0.216,0,0.528-0.075,0.938-0.224l0.199,1.809c-0.542,0.232-1.157,0.35-1.843,0.35
				c-0.42,0-0.8-0.07-1.137-0.213c-0.337-0.141-0.585-0.322-0.743-0.547c-0.157-0.225-0.267-0.527-0.328-0.909
				c-0.05-0.271-0.075-0.819-0.075-1.644v-3.844h-1.071v-1.859h1.071v-1.751l2.341-1.361v3.112H101.686z"/>
			<path d="M103.79,19.432l-2.117-0.381c0.238-0.853,0.647-1.483,1.229-1.893c0.581-0.41,1.444-0.615,2.59-0.615
				c1.041,0,1.815,0.123,2.324,0.369c0.509,0.247,0.867,0.56,1.075,0.939c0.207,0.379,0.311,1.074,0.311,2.087l-0.025,2.723
				c0,0.774,0.037,1.347,0.112,1.714c0.074,0.368,0.214,0.763,0.419,1.184h-2.308c-0.061-0.155-0.136-0.385-0.224-0.689
				c-0.039-0.139-0.066-0.229-0.083-0.273c-0.398,0.387-0.825,0.678-1.278,0.871s-0.938,0.291-1.453,0.291
				c-0.908,0-1.623-0.246-2.146-0.739c-0.523-0.493-0.785-1.115-0.785-1.868c0-0.498,0.119-0.941,0.357-1.332s0.571-0.689,1-0.896
				c0.429-0.207,1.047-0.389,1.855-0.543c1.09-0.205,1.846-0.396,2.266-0.573v-0.232c0-0.448-0.111-0.769-0.332-0.958
				c-0.221-0.191-0.639-0.287-1.253-0.287c-0.415,0-0.739,0.082-0.971,0.244C104.122,18.736,103.934,19.022,103.79,19.432z
				 M106.911,21.324c-0.299,0.1-0.772,0.219-1.419,0.357s-1.071,0.273-1.27,0.406c-0.304,0.217-0.457,0.49-0.457,0.822
				c0,0.326,0.122,0.609,0.365,0.847s0.553,0.356,0.93,0.356c0.42,0,0.822-0.138,1.204-0.414c0.282-0.211,0.468-0.469,0.556-0.772
				c0.061-0.199,0.091-0.578,0.091-1.138V21.324z"/>
			<path d="M112.476,25.559h-2.333v-8.816h2.167v1.254c0.371-0.592,0.704-0.982,1-1.17c0.296-0.188,0.632-0.283,1.009-0.283
				c0.531,0,1.043,0.146,1.536,0.44l-0.722,2.034c-0.393-0.255-0.758-0.383-1.096-0.383c-0.327,0-0.603,0.09-0.83,0.27
				c-0.227,0.181-0.405,0.506-0.535,0.977c-0.13,0.47-0.195,1.455-0.195,2.955V25.559z"/>
			<path d="M115.601,15.547v-2.158h2.333v2.158H115.601z M115.601,25.559v-8.816h2.333v8.816H115.601z"/>
			<path d="M118.527,21.025c0-0.774,0.191-1.523,0.573-2.249s0.923-1.278,1.623-1.66c0.7-0.382,1.482-0.573,2.345-0.573
				c1.333,0,2.427,0.434,3.279,1.299c0.852,0.867,1.278,1.961,1.278,3.283c0,1.334-0.43,2.439-1.291,3.316
				c-0.86,0.877-1.943,1.316-3.25,1.316c-0.808,0-1.579-0.184-2.312-0.549c-0.733-0.365-1.291-0.9-1.672-1.605
				S118.527,22.039,118.527,21.025z M120.917,21.15c0,0.875,0.208,1.544,0.623,2.009s0.927,0.697,1.536,0.697
				s1.119-0.232,1.531-0.697c0.413-0.465,0.619-1.14,0.619-2.025c0-0.863-0.206-1.527-0.619-1.992
				c-0.412-0.465-0.922-0.697-1.531-0.697s-1.121,0.232-1.536,0.697S120.917,20.275,120.917,21.15z"/>
			<path d="M127.37,23.043l2.341-0.357c0.1,0.454,0.302,0.799,0.606,1.033c0.304,0.236,0.73,0.354,1.278,0.354
				c0.603,0,1.057-0.111,1.361-0.332c0.205-0.154,0.307-0.362,0.307-0.623c0-0.177-0.055-0.323-0.166-0.439
				c-0.116-0.111-0.376-0.213-0.78-0.307c-1.881-0.416-3.074-0.795-3.578-1.138c-0.697-0.476-1.046-1.138-1.046-1.983
				c0-0.764,0.302-1.406,0.905-1.926c0.603-0.521,1.539-0.781,2.806-0.781c1.207,0,2.103,0.197,2.689,0.59s0.991,0.975,1.212,1.743
				l-2.2,0.407c-0.094-0.344-0.272-0.606-0.536-0.789c-0.263-0.183-0.638-0.273-1.125-0.273c-0.614,0-1.054,0.086-1.32,0.257
				c-0.177,0.122-0.266,0.279-0.266,0.474c0,0.166,0.078,0.307,0.232,0.423c0.21,0.155,0.937,0.374,2.179,0.655
				c1.243,0.283,2.11,0.629,2.603,1.038c0.487,0.415,0.73,0.993,0.73,1.735c0,0.808-0.337,1.502-1.013,2.083
				s-1.674,0.872-2.997,0.872c-1.201,0-2.151-0.244-2.851-0.73C128.044,24.54,127.586,23.879,127.37,23.043z"/>
			<path d="M139.787,16.742h2.175v1.295c0.282-0.442,0.664-0.802,1.146-1.078c0.481-0.277,1.016-0.416,1.602-0.416
				c1.024,0,1.893,0.402,2.606,1.204s1.071,1.921,1.071,3.354c0,1.472-0.36,2.616-1.079,3.433s-1.591,1.225-2.615,1.225
				c-0.487,0-0.928-0.098-1.324-0.291c-0.396-0.193-0.812-0.525-1.249-0.996v4.441h-2.333V16.742z M142.095,21.001
				c0,0.991,0.196,1.722,0.589,2.196c0.393,0.473,0.872,0.709,1.436,0.709c0.542,0,0.993-0.217,1.353-0.652
				c0.36-0.434,0.54-1.146,0.54-2.137c0-0.924-0.186-1.61-0.556-2.059s-0.83-0.672-1.378-0.672c-0.57,0-1.043,0.219-1.419,0.66
				C142.283,19.486,142.095,20.138,142.095,21.001z"/>
			<path d="M150.724,19.432l-2.117-0.381c0.238-0.853,0.647-1.483,1.229-1.893c0.581-0.41,1.444-0.615,2.59-0.615
				c1.041,0,1.815,0.123,2.324,0.369c0.509,0.247,0.867,0.56,1.075,0.939c0.207,0.379,0.311,1.074,0.311,2.087l-0.025,2.723
				c0,0.774,0.037,1.347,0.112,1.714c0.074,0.368,0.214,0.763,0.419,1.184h-2.308c-0.061-0.155-0.136-0.385-0.224-0.689
				c-0.039-0.139-0.066-0.229-0.083-0.273c-0.398,0.387-0.825,0.678-1.278,0.871s-0.938,0.291-1.453,0.291
				c-0.908,0-1.623-0.246-2.146-0.739c-0.523-0.493-0.785-1.115-0.785-1.868c0-0.498,0.119-0.941,0.357-1.332s0.571-0.689,1-0.896
				c0.429-0.207,1.047-0.389,1.855-0.543c1.09-0.205,1.846-0.396,2.266-0.573v-0.232c0-0.448-0.111-0.769-0.332-0.958
				c-0.221-0.191-0.639-0.287-1.253-0.287c-0.415,0-0.739,0.082-0.971,0.244C151.056,18.736,150.868,19.022,150.724,19.432z
				 M153.845,21.324c-0.299,0.1-0.772,0.219-1.419,0.357s-1.071,0.273-1.27,0.406c-0.304,0.217-0.457,0.49-0.457,0.822
				c0,0.326,0.122,0.609,0.365,0.847s0.553,0.356,0.93,0.356c0.42,0,0.822-0.138,1.204-0.414c0.282-0.211,0.468-0.469,0.556-0.772
				c0.061-0.199,0.091-0.578,0.091-1.138V21.324z"/>
			<path d="M159.41,25.559h-2.333v-8.816h2.167v1.254c0.371-0.592,0.704-0.982,1-1.17c0.296-0.188,0.632-0.283,1.009-0.283
				c0.531,0,1.043,0.146,1.536,0.44l-0.722,2.034c-0.393-0.255-0.758-0.383-1.096-0.383c-0.327,0-0.603,0.09-0.83,0.27
				c-0.227,0.181-0.405,0.506-0.535,0.977c-0.13,0.47-0.195,1.455-0.195,2.955V25.559z"/>
			<path d="M164.278,19.432l-2.117-0.381c0.238-0.853,0.647-1.483,1.229-1.893c0.581-0.41,1.444-0.615,2.59-0.615
				c1.041,0,1.815,0.123,2.324,0.369c0.509,0.247,0.867,0.56,1.075,0.939c0.207,0.379,0.311,1.074,0.311,2.087l-0.025,2.723
				c0,0.774,0.037,1.347,0.112,1.714c0.074,0.368,0.214,0.763,0.419,1.184h-2.308c-0.061-0.155-0.136-0.385-0.224-0.689
				c-0.039-0.139-0.066-0.229-0.083-0.273c-0.398,0.387-0.825,0.678-1.278,0.871s-0.938,0.291-1.453,0.291
				c-0.908,0-1.623-0.246-2.146-0.739c-0.523-0.493-0.785-1.115-0.785-1.868c0-0.498,0.119-0.941,0.357-1.332s0.571-0.689,1-0.896
				c0.429-0.207,1.047-0.389,1.855-0.543c1.09-0.205,1.846-0.396,2.266-0.573v-0.232c0-0.448-0.111-0.769-0.332-0.958
				c-0.221-0.191-0.639-0.287-1.253-0.287c-0.415,0-0.739,0.082-0.971,0.244C164.61,18.736,164.422,19.022,164.278,19.432z
				 M167.399,21.324c-0.299,0.1-0.772,0.219-1.419,0.357s-1.071,0.273-1.27,0.406c-0.304,0.217-0.457,0.49-0.457,0.822
				c0,0.326,0.122,0.609,0.365,0.847s0.553,0.356,0.93,0.356c0.42,0,0.822-0.138,1.204-0.414c0.282-0.211,0.468-0.469,0.556-0.772
				c0.061-0.199,0.091-0.578,0.091-1.138V21.324z"/>
			<path d="M179.301,22.752l2.324,0.391c-0.299,0.852-0.771,1.501-1.415,1.947c-0.645,0.445-1.452,0.668-2.42,0.668
				c-1.533,0-2.667-0.502-3.403-1.503c-0.581-0.802-0.872-1.815-0.872-3.038c0-1.461,0.382-2.605,1.146-3.432
				c0.764-0.828,1.729-1.242,2.897-1.242c1.312,0,2.346,0.434,3.104,1.299c0.758,0.867,1.121,2.193,1.087,3.98h-5.844
				c0.017,0.692,0.205,1.23,0.564,1.615s0.808,0.576,1.345,0.576c0.365,0,0.672-0.1,0.921-0.299S179.174,23.195,179.301,22.752z
				 M179.434,20.395c-0.017-0.675-0.191-1.188-0.523-1.539s-0.736-0.527-1.212-0.527c-0.509,0-0.93,0.186-1.262,0.557
				c-0.332,0.37-0.495,0.874-0.49,1.51H179.434z"/>
			<path d="M181.571,23.043l2.341-0.357c0.1,0.454,0.302,0.799,0.606,1.033c0.304,0.236,0.73,0.354,1.278,0.354
				c0.603,0,1.057-0.111,1.361-0.332c0.205-0.154,0.307-0.362,0.307-0.623c0-0.177-0.055-0.323-0.166-0.439
				c-0.116-0.111-0.376-0.213-0.78-0.307c-1.881-0.416-3.074-0.795-3.578-1.138c-0.697-0.476-1.046-1.138-1.046-1.983
				c0-0.764,0.302-1.406,0.905-1.926c0.603-0.521,1.539-0.781,2.806-0.781c1.207,0,2.103,0.197,2.689,0.59s0.991,0.975,1.212,1.743
				l-2.2,0.407c-0.094-0.344-0.272-0.606-0.536-0.789c-0.263-0.183-0.638-0.273-1.125-0.273c-0.614,0-1.054,0.086-1.32,0.257
				c-0.177,0.122-0.266,0.279-0.266,0.474c0,0.166,0.078,0.307,0.232,0.423c0.21,0.155,0.937,0.374,2.179,0.655
				c1.243,0.283,2.11,0.629,2.603,1.038c0.487,0.415,0.73,0.993,0.73,1.735c0,0.808-0.337,1.502-1.013,2.083
				s-1.674,0.872-2.997,0.872c-1.201,0-2.151-0.244-2.851-0.73C182.245,24.54,181.787,23.879,181.571,23.043z"/>
			<path d="M190.523,16.742h2.175v1.295c0.282-0.442,0.664-0.802,1.146-1.078c0.481-0.277,1.016-0.416,1.602-0.416
				c1.024,0,1.893,0.402,2.606,1.204s1.071,1.921,1.071,3.354c0,1.472-0.36,2.616-1.079,3.433s-1.591,1.225-2.615,1.225
				c-0.487,0-0.928-0.098-1.324-0.291c-0.396-0.193-0.812-0.525-1.249-0.996v4.441h-2.333V16.742z M192.831,21.001
				c0,0.991,0.196,1.722,0.589,2.196c0.393,0.473,0.872,0.709,1.436,0.709c0.542,0,0.993-0.217,1.353-0.652
				c0.36-0.434,0.54-1.146,0.54-2.137c0-0.924-0.186-1.61-0.556-2.059s-0.83-0.672-1.378-0.672c-0.57,0-1.043,0.219-1.419,0.66
				C193.019,19.486,192.831,20.138,192.831,21.001z"/>
			<path d="M204.821,22.752l2.324,0.391c-0.299,0.852-0.771,1.501-1.415,1.947c-0.645,0.445-1.452,0.668-2.42,0.668
				c-1.533,0-2.667-0.502-3.403-1.503c-0.581-0.802-0.872-1.815-0.872-3.038c0-1.461,0.382-2.605,1.146-3.432
				c0.764-0.828,1.729-1.242,2.897-1.242c1.312,0,2.346,0.434,3.104,1.299c0.758,0.867,1.121,2.193,1.087,3.98h-5.844
				c0.017,0.692,0.205,1.23,0.564,1.615s0.808,0.576,1.345,0.576c0.365,0,0.672-0.1,0.921-0.299S204.693,23.195,204.821,22.752z
				 M204.953,20.395c-0.017-0.675-0.191-1.188-0.523-1.539s-0.736-0.527-1.212-0.527c-0.509,0-0.93,0.186-1.262,0.557
				c-0.332,0.37-0.495,0.874-0.49,1.51H204.953z"/>
			<path d="M215.599,19.35l-2.299,0.414c-0.078-0.459-0.253-0.805-0.527-1.037c-0.273-0.232-0.629-0.349-1.066-0.349
				c-0.581,0-1.044,0.2-1.391,0.603c-0.346,0.4-0.519,1.071-0.519,2.012c0,1.047,0.176,1.785,0.527,2.217
				c0.351,0.432,0.823,0.647,1.415,0.647c0.443,0,0.805-0.126,1.087-0.378s0.481-0.685,0.598-1.299l2.291,0.391
				c-0.238,1.051-0.694,1.846-1.37,2.382s-1.58,0.806-2.714,0.806c-1.29,0-2.317-0.407-3.083-1.221
				c-0.767-0.813-1.15-1.939-1.15-3.379c0-1.455,0.385-2.588,1.154-3.398s1.81-1.217,3.121-1.217c1.074,0,1.927,0.231,2.561,0.693
				C214.867,17.699,215.322,18.402,215.599,19.35z"/>
			<path d="M216.109,15.547v-2.158h2.333v2.158H216.109z M216.109,25.559v-8.816h2.333v8.816H216.109z"/>
			<path d="M218.553,16.742h1.295v-0.664c0-0.741,0.079-1.295,0.236-1.66c0.158-0.365,0.448-0.662,0.872-0.893
				c0.423-0.229,0.958-0.344,1.606-0.344c0.664,0,1.314,0.1,1.951,0.299l-0.315,1.627c-0.371-0.088-0.728-0.133-1.071-0.133
				c-0.337,0-0.58,0.078-0.726,0.236c-0.147,0.158-0.22,0.461-0.22,0.909v0.622h1.743v1.835h-1.743v6.981h-2.333v-6.981h-1.295
				V16.742z"/>
			<path d="M223.977,25.559v-2.333h2.333v2.333H223.977z"/>
		</g>
	</g>
	<g opacity="0.5">
		<g>
			<defs>
				<rect id="SVGID_9_" x="0" y="40.824" width="233.61" height="7.17"/>
			</defs>
			<clipPath id="SVGID_2_">
				<use xlink:href="#SVGID_9_"  overflow="visible"/>
			</clipPath>
			<polygon clip-path="url(#SVGID_2_)" fill="#2F6982" points="233.61,47.994 0,40.824 233.61,40.824 			"/>
		</g>
	</g>
	<g id="XMLID_535_">
		<g id="XMLID_540_">
			<g>
				<g>
					<defs>
						<rect id="SVGID_11_" x="11.974" y="7.991" width="27.337" height="24.051"/>
					</defs>
					<clipPath id="SVGID_4_">
						<use xlink:href="#SVGID_11_"  overflow="visible"/>
					</clipPath>
					
						<path id="XMLID_542_" clip-path="url(#SVGID_4_)" fill="#154A8C" stroke="#000000" stroke-width="0.5" stroke-miterlimit="10" d="
						M37.086,18.056h-5.724l-3.072,2.967v-2.967h-1.268c-0.955,0-1.697-0.74-1.697-1.695v-6.25c0-0.953,0.742-1.695,1.697-1.695
						h10.17c0.953,0,1.693,0.742,1.693,1.695v6.25C38.781,17.316,38.039,18.056,37.086,18.056L37.086,18.056z"/>
				</g>
			</g>
			<g>
				<g>
					<defs>
						<rect id="SVGID_13_" x="11.974" y="7.991" width="27.337" height="24.051"/>
					</defs>
					<clipPath id="SVGID_6_">
						<use xlink:href="#SVGID_13_"  overflow="visible"/>
					</clipPath>
					<path id="XMLID_541_" clip-path="url(#SVGID_6_)" d="M16.424,29.817L16.424,29.817l2.119-0.318v2.014
						c0,0.318,0.213,0.529,0.529,0.529h10.596c0.317,0,0.529-0.211,0.529-0.529v-7.205c0.849-0.848,1.59-1.908,2.119-2.969
						c0.107-0.211,0-0.527-0.212-0.635c-0.212-0.105-0.528,0-0.634,0.215c-0.425,1.059-1.166,2.01-2.014,2.859
						c-0.105,0.105-0.214,0.213-0.214,0.424v6.887h-9.534V28.97c0-0.108-0.105-0.318-0.212-0.424
						c-0.105-0.105-0.214-0.105-0.425-0.105l-2.543,0.422c-0.742,0-1.377-0.635-1.377-1.377v-3.389c0-0.318-0.211-0.531-0.529-0.531
						h-0.847c-0.319,0-0.53-0.106-0.637-0.213c-0.105-0.105-0.105-0.424,0.106-0.635l1.801-3.496c0-0.107,0.105-0.107,0.105-0.213
						v-1.482c0-3.283,1.908-6.25,4.873-7.627c1.06-0.531,2.119-0.742,3.285-0.85c0.317,0,0.531-0.213,0.531-0.529
						c0-0.318-0.214-0.529-0.531-0.529c-1.269,0.105-2.435,0.318-3.601,0.846c-3.285,1.592-5.51,4.875-5.51,8.584V18.8l-1.801,3.389
						c-0.318,0.529-0.318,1.164,0,1.59c0.316,0.424,0.848,0.74,1.481,0.74h0.32v2.863C13.986,28.757,15.047,29.817,16.424,29.817
						L16.424,29.817z"/>
				</g>
			</g>
		</g>
		<path id="XMLID_539_" d="M28.078,21.554c0.107,0,0.107,0,0.212,0c0.107,0,0.212,0,0.318-0.107l2.968-2.861h5.51
			c1.164,0,2.225-0.953,2.225-2.225v-6.25c0-1.166-0.955-2.225-2.225-2.225H26.913c-1.166,0-2.225,0.951-2.225,2.225v6.25
			c0,1.166,0.952,2.225,2.225,2.225h0.847v2.438C27.76,21.233,27.866,21.446,28.078,21.554L28.078,21.554z M26.913,17.634
			c-0.636,0-1.166-0.531-1.166-1.166v-6.252c0-0.637,0.53-1.166,1.166-1.166h10.173c0.635,0,1.164,0.529,1.164,1.166v6.252
			c0,0.635-0.529,1.166-1.164,1.166h-5.724c-0.104,0-0.212,0-0.316,0.105l-2.226,2.119v-1.803c0-0.316-0.212-0.529-0.53-0.529
			h-1.377V17.634z"/>
		<path id="XMLID_538_" d="M31.998,14.028c0.106,0,0.214-0.106,0.318-0.106c0.107-0.106,0.107-0.211,0.107-0.316
			c0-0.105-0.107-0.211-0.107-0.318c-0.104-0.105-0.212-0.105-0.318-0.105c-0.105,0-0.211,0.105-0.316,0.105
			c-0.105,0.107-0.105,0.213-0.105,0.318c0,0.106,0.105,0.211,0.105,0.316C31.787,14.028,31.893,14.028,31.998,14.028L31.998,14.028
			z"/>
		<path id="XMLID_537_" d="M33.906,14.028c0.105,0,0.213-0.106,0.317-0.106c0.107-0.106,0.107-0.211,0.107-0.316
			c0-0.105-0.107-0.211-0.107-0.318c-0.104-0.105-0.212-0.105-0.317-0.105c-0.106,0-0.212,0.105-0.317,0.105
			c-0.109,0.107-0.109,0.213-0.109,0.318c0,0.106,0.109,0.211,0.109,0.316C33.694,14.028,33.801,14.028,33.906,14.028L33.906,14.028
			z"/>
		<path id="XMLID_536_" d="M30.093,14.028c0.104,0,0.212-0.106,0.314-0.106c0.108-0.106,0.108-0.211,0.108-0.316
			c0-0.105-0.108-0.211-0.108-0.318c-0.103-0.105-0.21-0.105-0.314-0.105c-0.107,0-0.214,0.105-0.319,0.105
			c-0.105,0.107-0.105,0.213-0.105,0.318c0,0.106,0.105,0.211,0.105,0.316C29.879,14.028,29.985,14.028,30.093,14.028L30.093,14.028
			z"/>
	</g>
</g>
</svg>
