<?xml version="1.0" encoding="utf-8"?>
<!-- Generator: Adobe Illustrator 17.0.0, SVG Export Plug-In . SVG Version: 6.00 Build 0)  -->
<!DOCTYPE svg PUBLIC "-//W3C//DTD SVG 1.1//EN" "http://www.w3.org/Graphics/SVG/1.1/DTD/svg11.dtd" [
	<!ENTITY ns_extend "http://ns.adobe.com/Extensibility/1.0/">
	<!ENTITY ns_ai "http://ns.adobe.com/AdobeIllustrator/10.0/">
	<!ENTITY ns_graphs "http://ns.adobe.com/Graphs/1.0/">
	<!ENTITY ns_vars "http://ns.adobe.com/Variables/1.0/">
	<!ENTITY ns_imrep "http://ns.adobe.com/ImageReplacement/1.0/">
	<!ENTITY ns_sfw "http://ns.adobe.com/SaveForWeb/1.0/">
	<!ENTITY ns_custom "http://ns.adobe.com/GenericCustomNamespace/1.0/">
	<!ENTITY ns_adobe_xpath "http://ns.adobe.com/XPath/1.0/">
]>
<svg version="1.1" id="Capa_1" xmlns:x="&ns_extend;" xmlns:i="&ns_ai;" xmlns:graph="&ns_graphs;"
	 xmlns="http://www.w3.org/2000/svg" xmlns:xlink="http://www.w3.org/1999/xlink" x="0px" y="0px" width="247.638px"
	 height="58.139px" viewBox="0 0 247.638 58.139" enable-background="new 0 0 247.638 58.139" xml:space="preserve">
<metadata>
	<sfw  xmlns="&ns_sfw;">
		<slices></slices>
		<sliceSourceBounds  width="555.971" height="404.443" y="-416.037" x="7.862" bottomLeftOrigin="true"></sliceSourceBounds>
	</sfw>
</metadata>
<g>
	<polygon fill-rule="evenodd" clip-rule="evenodd" fill="#A8A7A7" points="233.61,58.139 247.638,40.354 237.212,20.186 
		233.61,20.188 	"/>
	<rect x="0" y="0" fill-rule="evenodd" clip-rule="evenodd" fill="#FFFFFF" width="247.638" height="40.354"/>
	<g>
		<path d="M54.12,21.084l2.382,0.755c-0.365,1.328-0.973,2.314-1.822,2.959c-0.849,0.645-1.927,0.967-3.233,0.967
			c-1.616,0-2.944-0.552-3.984-1.656c-1.041-1.104-1.561-2.614-1.561-4.528c0-2.025,0.523-3.599,1.569-4.719
			c1.046-1.121,2.421-1.681,4.125-1.681c1.489,0,2.698,0.44,3.627,1.32c0.553,0.52,0.968,1.267,1.245,2.241l-2.432,0.581
			c-0.144-0.631-0.444-1.129-0.901-1.494c-0.456-0.365-1.011-0.548-1.664-0.548c-0.902,0-1.634,0.324-2.195,0.971
			c-0.562,0.647-0.843,1.696-0.843,3.146c0,1.539,0.277,2.634,0.83,3.287s1.273,0.979,2.158,0.979c0.653,0,1.215-0.208,1.685-0.623
			S53.916,21.975,54.12,21.084z"/>
		<path d="M57.337,25.558V13.389h2.333v12.169H57.337z"/>
		<path d="M62.545,19.432l-2.117-0.382c0.238-0.852,0.647-1.483,1.229-1.893s1.444-0.614,2.59-0.614
			c1.041,0,1.815,0.123,2.324,0.369c0.509,0.247,0.867,0.559,1.075,0.938c0.207,0.379,0.311,1.075,0.311,2.087l-0.025,2.723
			c0,0.775,0.037,1.346,0.112,1.714c0.074,0.368,0.214,0.762,0.419,1.183h-2.308c-0.061-0.155-0.136-0.385-0.224-0.689
			c-0.039-0.138-0.066-0.229-0.083-0.274c-0.398,0.387-0.825,0.678-1.278,0.872s-0.938,0.291-1.453,0.291
			c-0.908,0-1.623-0.246-2.146-0.739c-0.523-0.493-0.785-1.115-0.785-1.868c0-0.498,0.119-0.942,0.357-1.332
			c0.238-0.391,0.571-0.689,1-0.896c0.429-0.208,1.047-0.389,1.855-0.544c1.09-0.205,1.846-0.396,2.266-0.573v-0.232
			c0-0.448-0.111-0.768-0.332-0.958c-0.221-0.191-0.639-0.287-1.253-0.287c-0.415,0-0.739,0.082-0.971,0.245
			C62.877,18.736,62.689,19.022,62.545,19.432z M65.666,21.325c-0.299,0.1-0.772,0.219-1.419,0.357s-1.071,0.274-1.27,0.407
			c-0.304,0.216-0.457,0.49-0.457,0.822c0,0.327,0.122,0.609,0.365,0.847s0.553,0.357,0.93,0.357c0.42,0,0.822-0.138,1.204-0.415
			c0.282-0.21,0.468-0.468,0.556-0.772c0.061-0.199,0.091-0.578,0.091-1.137V21.325z"/>
		<path d="M68.177,23.043l2.341-0.357c0.1,0.454,0.302,0.798,0.606,1.033c0.304,0.235,0.73,0.353,1.278,0.353
			c0.603,0,1.057-0.111,1.361-0.332c0.205-0.155,0.307-0.362,0.307-0.623c0-0.177-0.055-0.324-0.166-0.44
			c-0.116-0.111-0.376-0.213-0.78-0.307c-1.881-0.415-3.074-0.794-3.578-1.137c-0.697-0.476-1.046-1.137-1.046-1.984
			c0-0.764,0.302-1.406,0.905-1.926s1.539-0.78,2.806-0.78c1.207,0,2.103,0.196,2.689,0.589s0.991,0.974,1.212,1.743l-2.2,0.407
			c-0.094-0.343-0.272-0.606-0.536-0.789c-0.263-0.183-0.638-0.274-1.125-0.274c-0.614,0-1.054,0.086-1.32,0.257
			c-0.177,0.122-0.266,0.279-0.266,0.473c0,0.166,0.078,0.307,0.232,0.423c0.21,0.155,0.937,0.374,2.179,0.656
			c1.243,0.282,2.11,0.628,2.603,1.038c0.487,0.415,0.73,0.993,0.73,1.735c0,0.808-0.337,1.502-1.013,2.083
			s-1.674,0.872-2.997,0.872c-1.201,0-2.151-0.244-2.851-0.73C68.85,24.54,68.392,23.878,68.177,23.043z"/>
		<path d="M82.3,22.752l2.324,0.39c-0.299,0.852-0.771,1.501-1.415,1.947c-0.645,0.445-1.452,0.668-2.42,0.668
			c-1.533,0-2.667-0.501-3.403-1.502c-0.581-0.802-0.872-1.815-0.872-3.038c0-1.461,0.382-2.605,1.146-3.432
			c0.764-0.828,1.729-1.241,2.897-1.241c1.312,0,2.346,0.433,3.104,1.299c0.758,0.866,1.121,2.193,1.087,3.98h-5.844
			c0.017,0.692,0.205,1.23,0.564,1.614c0.36,0.385,0.808,0.577,1.345,0.577c0.365,0,0.672-0.1,0.921-0.299
			S82.172,23.195,82.3,22.752z M82.432,20.395c-0.017-0.675-0.191-1.188-0.523-1.54c-0.332-0.351-0.736-0.527-1.212-0.527
			c-0.509,0-0.93,0.186-1.262,0.556s-0.495,0.875-0.49,1.511H82.432z"/>
		<path d="M84.57,23.043l2.341-0.357c0.1,0.454,0.302,0.798,0.606,1.033c0.304,0.235,0.73,0.353,1.278,0.353
			c0.603,0,1.057-0.111,1.361-0.332c0.205-0.155,0.307-0.362,0.307-0.623c0-0.177-0.055-0.324-0.166-0.44
			c-0.116-0.111-0.376-0.213-0.78-0.307c-1.881-0.415-3.074-0.794-3.578-1.137c-0.697-0.476-1.046-1.137-1.046-1.984
			c0-0.764,0.302-1.406,0.905-1.926s1.539-0.78,2.806-0.78c1.207,0,2.103,0.196,2.689,0.589s0.991,0.974,1.212,1.743l-2.2,0.407
			c-0.094-0.343-0.272-0.606-0.536-0.789c-0.263-0.183-0.638-0.274-1.125-0.274c-0.614,0-1.054,0.086-1.32,0.257
			c-0.177,0.122-0.266,0.279-0.266,0.473c0,0.166,0.078,0.307,0.232,0.423c0.21,0.155,0.937,0.374,2.179,0.656
			c1.243,0.282,2.11,0.628,2.603,1.038c0.487,0.415,0.73,0.993,0.73,1.735c0,0.808-0.337,1.502-1.013,2.083
			s-1.674,0.872-2.997,0.872c-1.201,0-2.151-0.244-2.851-0.73C85.244,24.54,84.786,23.878,84.57,23.043z"/>
		<path d="M105.138,25.558h-2.167v-1.295c-0.36,0.503-0.784,0.878-1.274,1.125c-0.489,0.246-0.983,0.369-1.481,0.369
			c-1.013,0-1.88-0.408-2.603-1.225c-0.722-0.816-1.083-1.955-1.083-3.416c0-1.494,0.352-2.63,1.054-3.408
			c0.703-0.777,1.591-1.166,2.665-1.166c0.985,0,1.837,0.41,2.557,1.229v-4.383h2.333V25.558z M98.912,20.96
			c0,0.941,0.13,1.622,0.39,2.042c0.376,0.609,0.902,0.913,1.577,0.913c0.537,0,0.993-0.229,1.37-0.685
			c0.376-0.457,0.564-1.139,0.564-2.046c0-1.013-0.183-1.742-0.548-2.187c-0.365-0.446-0.833-0.668-1.403-0.668
			c-0.553,0-1.017,0.22-1.391,0.66C99.099,19.428,98.912,20.085,98.912,20.96z"/>
		<path d="M111.285,22.752l2.324,0.39c-0.299,0.852-0.771,1.501-1.415,1.947c-0.645,0.445-1.452,0.668-2.42,0.668
			c-1.533,0-2.667-0.501-3.403-1.502c-0.581-0.802-0.872-1.815-0.872-3.038c0-1.461,0.382-2.605,1.146-3.432
			c0.764-0.828,1.729-1.241,2.897-1.241c1.312,0,2.346,0.433,3.104,1.299c0.758,0.866,1.121,2.193,1.087,3.98h-5.844
			c0.017,0.692,0.205,1.23,0.564,1.614c0.36,0.385,0.808,0.577,1.345,0.577c0.365,0,0.672-0.1,0.921-0.299
			S111.157,23.195,111.285,22.752z M111.417,20.395c-0.017-0.675-0.191-1.188-0.523-1.54c-0.332-0.351-0.736-0.527-1.212-0.527
			c-0.509,0-0.93,0.186-1.262,0.556s-0.495,0.875-0.49,1.511H111.417z"/>
		<path d="M120.074,25.558h-2.333v-8.815h2.167v1.253c0.371-0.592,0.704-0.982,1-1.17c0.296-0.188,0.632-0.282,1.009-0.282
			c0.531,0,1.043,0.146,1.536,0.44l-0.722,2.034c-0.393-0.254-0.758-0.382-1.096-0.382c-0.327,0-0.603,0.09-0.83,0.27
			c-0.227,0.18-0.405,0.505-0.535,0.976c-0.13,0.47-0.195,1.456-0.195,2.955V25.558z"/>
		<path d="M128.304,22.752l2.324,0.39c-0.299,0.852-0.771,1.501-1.415,1.947c-0.645,0.445-1.452,0.668-2.42,0.668
			c-1.533,0-2.667-0.501-3.403-1.502c-0.581-0.802-0.872-1.815-0.872-3.038c0-1.461,0.382-2.605,1.146-3.432
			c0.764-0.828,1.729-1.241,2.897-1.241c1.312,0,2.346,0.433,3.104,1.299c0.758,0.866,1.121,2.193,1.087,3.98h-5.844
			c0.017,0.692,0.205,1.23,0.564,1.614c0.36,0.385,0.808,0.577,1.345,0.577c0.365,0,0.672-0.1,0.921-0.299
			S128.177,23.195,128.304,22.752z M128.437,20.395c-0.017-0.675-0.191-1.188-0.523-1.54c-0.332-0.351-0.736-0.527-1.212-0.527
			c-0.509,0-0.93,0.186-1.262,0.556s-0.495,0.875-0.49,1.511H128.437z"/>
		<path d="M137.156,28.912v-4.433c-0.304,0.393-0.684,0.704-1.137,0.934c-0.454,0.23-0.943,0.345-1.469,0.345
			c-1.001,0-1.826-0.376-2.474-1.129c-0.764-0.88-1.146-2.072-1.146-3.578c0-1.417,0.358-2.522,1.075-3.316
			c0.717-0.794,1.606-1.191,2.669-1.191c0.586,0,1.094,0.125,1.523,0.374c0.429,0.249,0.809,0.625,1.141,1.129v-1.303h2.15v12.169
			H137.156z M137.231,21.043c0-0.902-0.184-1.573-0.552-2.013c-0.368-0.44-0.829-0.66-1.382-0.66c-0.564,0-1.036,0.224-1.416,0.672
			c-0.379,0.448-0.568,1.159-0.568,2.133c0,0.968,0.183,1.667,0.548,2.096c0.365,0.429,0.816,0.644,1.353,0.644
			s1.007-0.241,1.411-0.722S137.231,21.994,137.231,21.043z"/>
		<path d="M146.324,25.558v-1.32c-0.321,0.47-0.743,0.841-1.266,1.112c-0.523,0.271-1.075,0.407-1.656,0.407
			c-0.592,0-1.124-0.13-1.594-0.39s-0.811-0.625-1.021-1.096s-0.315-1.121-0.315-1.951v-5.578h2.333v4.051
			c0,1.24,0.043,1.999,0.129,2.278c0.085,0.28,0.242,0.501,0.469,0.664c0.227,0.164,0.515,0.245,0.863,0.245
			c0.398,0,0.755-0.109,1.071-0.328c0.315-0.218,0.531-0.489,0.647-0.813c0.116-0.323,0.174-1.116,0.174-2.378v-3.719h2.333v8.815
			H146.324z"/>
		<path d="M154.753,22.752l2.324,0.39c-0.299,0.852-0.771,1.501-1.415,1.947c-0.645,0.445-1.452,0.668-2.42,0.668
			c-1.533,0-2.667-0.501-3.403-1.502c-0.581-0.802-0.872-1.815-0.872-3.038c0-1.461,0.382-2.605,1.146-3.432
			c0.764-0.828,1.729-1.241,2.897-1.241c1.312,0,2.346,0.433,3.104,1.299c0.758,0.866,1.121,2.193,1.087,3.98h-5.844
			c0.017,0.692,0.205,1.23,0.564,1.614c0.36,0.385,0.808,0.577,1.345,0.577c0.365,0,0.672-0.1,0.921-0.299
			S154.626,23.195,154.753,22.752z M154.886,20.395c-0.017-0.675-0.191-1.188-0.523-1.54c-0.332-0.351-0.736-0.527-1.212-0.527
			c-0.509,0-0.93,0.186-1.262,0.556s-0.495,0.875-0.49,1.511H154.886z"/>
		<path d="M160.078,25.558h-2.333v-8.815h2.167v1.253c0.371-0.592,0.704-0.982,1-1.17c0.296-0.188,0.632-0.282,1.009-0.282
			c0.531,0,1.043,0.146,1.536,0.44l-0.722,2.034c-0.393-0.254-0.758-0.382-1.096-0.382c-0.327,0-0.603,0.09-0.83,0.27
			c-0.227,0.18-0.405,0.505-0.535,0.976c-0.13,0.47-0.195,1.456-0.195,2.955V25.558z"/>
		<path d="M163.203,15.547v-2.158h2.333v2.158H163.203z M163.203,25.558v-8.815h2.333v8.815H163.203z"/>
		<path d="M166.493,16.743h2.15v1.204c0.769-0.935,1.685-1.403,2.748-1.403c0.564,0,1.054,0.116,1.469,0.349
			s0.755,0.584,1.021,1.054c0.387-0.47,0.805-0.822,1.253-1.054s0.927-0.349,1.436-0.349c0.647,0,1.195,0.131,1.644,0.395
			c0.448,0.263,0.783,0.648,1.004,1.158c0.161,0.376,0.241,0.985,0.241,1.826v5.636h-2.333V20.52c0-0.875-0.08-1.439-0.241-1.693
			c-0.216-0.332-0.548-0.498-0.996-0.498c-0.327,0-0.634,0.1-0.921,0.299s-0.495,0.491-0.623,0.875
			c-0.127,0.385-0.191,0.992-0.191,1.822v4.233h-2.333v-4.831c0-0.858-0.042-1.411-0.125-1.66s-0.211-0.435-0.386-0.556
			c-0.174-0.122-0.411-0.183-0.709-0.183c-0.36,0-0.684,0.097-0.971,0.291s-0.494,0.473-0.618,0.838
			c-0.125,0.365-0.187,0.971-0.187,1.818v4.283h-2.333V16.743z"/>
		<path d="M180.525,15.547v-2.158h2.333v2.158H180.525z M180.525,25.558v-8.815h2.333v8.815H180.525z"/>
		<path d="M189.096,22.752l2.324,0.39c-0.299,0.852-0.771,1.501-1.415,1.947c-0.645,0.445-1.452,0.668-2.42,0.668
			c-1.533,0-2.667-0.501-3.403-1.502c-0.581-0.802-0.872-1.815-0.872-3.038c0-1.461,0.382-2.605,1.146-3.432
			c0.764-0.828,1.729-1.241,2.897-1.241c1.312,0,2.346,0.433,3.104,1.299c0.758,0.866,1.121,2.193,1.087,3.98h-5.844
			c0.017,0.692,0.205,1.23,0.564,1.614c0.36,0.385,0.808,0.577,1.345,0.577c0.365,0,0.672-0.1,0.921-0.299
			S188.968,23.195,189.096,22.752z M189.228,20.395c-0.017-0.675-0.191-1.188-0.523-1.54c-0.332-0.351-0.736-0.527-1.212-0.527
			c-0.509,0-0.93,0.186-1.262,0.556s-0.495,0.875-0.49,1.511H189.228z"/>
		<path d="M200.205,25.558h-2.333v-4.499c0-0.952-0.05-1.567-0.149-1.847c-0.1-0.28-0.262-0.497-0.485-0.652
			c-0.225-0.155-0.494-0.232-0.81-0.232c-0.404,0-0.767,0.111-1.087,0.332s-0.541,0.515-0.66,0.88
			c-0.119,0.365-0.179,1.041-0.179,2.025v3.993h-2.333v-8.815h2.167v1.295c0.769-0.996,1.738-1.494,2.905-1.494
			c0.515,0,0.985,0.093,1.411,0.278c0.426,0.185,0.749,0.422,0.967,0.709c0.219,0.288,0.371,0.614,0.457,0.979
			c0.085,0.365,0.128,0.888,0.128,1.569V25.558z"/>
		<path d="M205.356,16.743v1.859h-1.594v3.553c0,0.719,0.015,1.139,0.046,1.258c0.03,0.119,0.1,0.217,0.207,0.294
			c0.108,0.078,0.24,0.116,0.395,0.116c0.216,0,0.528-0.075,0.938-0.224l0.199,1.81c-0.542,0.232-1.157,0.349-1.843,0.349
			c-0.42,0-0.8-0.07-1.137-0.212c-0.337-0.141-0.585-0.323-0.743-0.548c-0.157-0.224-0.267-0.527-0.328-0.909
			c-0.05-0.271-0.075-0.819-0.075-1.644v-3.843h-1.071v-1.859h1.071v-1.751l2.341-1.361v3.113H205.356z"/>
		<path d="M205.177,21.026c0-0.775,0.191-1.524,0.573-2.25s0.923-1.278,1.623-1.66c0.7-0.382,1.482-0.573,2.345-0.573
			c1.333,0,2.427,0.433,3.279,1.299c0.852,0.866,1.278,1.96,1.278,3.283c0,1.333-0.43,2.439-1.291,3.316
			c-0.86,0.877-1.943,1.315-3.25,1.315c-0.808,0-1.579-0.183-2.312-0.548c-0.733-0.365-1.291-0.9-1.672-1.606
			C205.368,22.898,205.177,22.039,205.177,21.026z M207.568,21.15c0,0.875,0.208,1.544,0.623,2.009s0.927,0.697,1.536,0.697
			s1.119-0.232,1.531-0.697c0.413-0.465,0.619-1.14,0.619-2.025c0-0.863-0.206-1.527-0.619-1.992
			c-0.412-0.465-0.922-0.697-1.531-0.697s-1.121,0.232-1.536,0.697S207.568,20.276,207.568,21.15z"/>
		<path d="M214.021,23.043l2.341-0.357c0.1,0.454,0.302,0.798,0.606,1.033c0.304,0.235,0.73,0.353,1.278,0.353
			c0.603,0,1.057-0.111,1.361-0.332c0.205-0.155,0.307-0.362,0.307-0.623c0-0.177-0.055-0.324-0.166-0.44
			c-0.116-0.111-0.376-0.213-0.78-0.307c-1.881-0.415-3.074-0.794-3.578-1.137c-0.697-0.476-1.046-1.137-1.046-1.984
			c0-0.764,0.302-1.406,0.905-1.926s1.539-0.78,2.806-0.78c1.207,0,2.103,0.196,2.689,0.589s0.991,0.974,1.212,1.743l-2.2,0.407
			c-0.094-0.343-0.272-0.606-0.536-0.789c-0.263-0.183-0.638-0.274-1.125-0.274c-0.614,0-1.054,0.086-1.32,0.257
			c-0.177,0.122-0.266,0.279-0.266,0.473c0,0.166,0.078,0.307,0.232,0.423c0.21,0.155,0.937,0.374,2.179,0.656
			c1.243,0.282,2.11,0.628,2.603,1.038c0.487,0.415,0.73,0.993,0.73,1.735c0,0.808-0.337,1.502-1.013,2.083
			s-1.674,0.872-2.997,0.872c-1.201,0-2.151-0.244-2.851-0.73C214.695,24.54,214.237,23.878,214.021,23.043z"/>
	</g>
	<g opacity="0.5">
		<g>
			<defs>
				<rect id="SVGID_3_" x="0" y="40.824" width="233.61" height="7.17"/>
			</defs>
			<clipPath id="SVGID_2_">
				<use xlink:href="#SVGID_3_"  overflow="visible"/>
			</clipPath>
			<polygon clip-path="url(#SVGID_2_)" fill="#2F6982" points="233.61,47.994 0,40.824 233.61,40.824 			"/>
		</g>
	</g>
	<path fill-rule="evenodd" clip-rule="evenodd" fill="#154A8C" stroke="#000000" stroke-width="0.5" stroke-miterlimit="10" d="
		M36.796,16.208c-0.156-0.307-0.611-0.459-1.072-0.459h-1.068h-0.311h-2.75v-2.906c0-0.762-0.609-1.373-1.377-1.373h-0.766V9.939
		c0-0.305-0.299-0.609-0.609-0.609h-13.92c-0.453,0-0.762,0.305-0.762,0.609v1.99h-0.609c-0.764,0-1.381,0.609-1.381,1.373v16.363
		c0,0.764,0.617,1.377,1.381,1.377h6.267h3.059h6.275h2.291h1.529c0.609,0,1.221-0.459,1.371-1.072l2.758-12.541v-0.305
		C37.102,16.819,37.102,16.513,36.796,16.208 M16.761,15.595h12.082V9.939h-13.92v9.326l0.461-2.602
		C15.54,16.054,16.149,15.595,16.761,15.595 M29.452,15.595h0.307c0.154,0,0.307,0,0.307,0.154h0.152v-2.906h-0.766V15.595z
		 M13.552,25.536l0.609-3.057v-9.178h-0.609V25.536z M16.61,13.915c0-0.305,0.301-0.613,0.613-0.613h9.172
		c0.453,0,0.768,0.309,0.768,0.613c0,0.457-0.314,0.762-0.768,0.762h-9.172C16.911,14.677,16.61,14.372,16.61,13.915 M16.61,11.62
		c0-0.307,0.301-0.611,0.613-0.611h9.172c0.453,0,0.768,0.305,0.768,0.611c0,0.461-0.314,0.766-0.768,0.766h-9.172
		C16.911,12.386,16.61,12.081,16.61,11.62"/>
</g>
</svg>
