<?xml version="1.0" encoding="utf-8"?>
<!-- Generator: Adobe Illustrator 17.0.0, SVG Export Plug-In . SVG Version: 6.00 Build 0)  -->
<!DOCTYPE svg PUBLIC "-//W3C//DTD SVG 1.1//EN" "http://www.w3.org/Graphics/SVG/1.1/DTD/svg11.dtd" [
	<!ENTITY ns_extend "http://ns.adobe.com/Extensibility/1.0/">
	<!ENTITY ns_ai "http://ns.adobe.com/AdobeIllustrator/10.0/">
	<!ENTITY ns_graphs "http://ns.adobe.com/Graphs/1.0/">
	<!ENTITY ns_vars "http://ns.adobe.com/Variables/1.0/">
	<!ENTITY ns_imrep "http://ns.adobe.com/ImageReplacement/1.0/">
	<!ENTITY ns_sfw "http://ns.adobe.com/SaveForWeb/1.0/">
	<!ENTITY ns_custom "http://ns.adobe.com/GenericCustomNamespace/1.0/">
	<!ENTITY ns_adobe_xpath "http://ns.adobe.com/XPath/1.0/">
]>
<svg version="1.1" id="Capa_1" xmlns:x="&ns_extend;" xmlns:i="&ns_ai;" xmlns:graph="&ns_graphs;"
	 xmlns="http://www.w3.org/2000/svg" xmlns:xlink="http://www.w3.org/1999/xlink" x="0px" y="0px" width="247.638px"
	 height="58.139px" viewBox="0 0 247.638 58.139" enable-background="new 0 0 247.638 58.139" xml:space="preserve">
<metadata>
	<sfw  xmlns="&ns_sfw;">
		<slices></slices>
		<sliceSourceBounds  width="555.971" height="404.443" y="-416.037" x="7.862" bottomLeftOrigin="true"></sliceSourceBounds>
	</sfw>
</metadata>
<g>
	<polygon fill-rule="evenodd" clip-rule="evenodd" fill="#A8A7A7" points="233.61,58.139 247.638,40.354 237.212,20.185 
		233.61,20.188 	"/>
	<rect x="0" y="0" fill-rule="evenodd" clip-rule="evenodd" fill="#FFFFFF" width="247.638" height="40.354"/>
	<g opacity="0.5">
		<g>
			<defs>
				<rect id="SVGID_21_" x="0" y="40.463" width="233.61" height="7.17"/>
			</defs>
			<clipPath id="SVGID_2_">
				<use xlink:href="#SVGID_21_"  overflow="visible"/>
			</clipPath>
			<polygon clip-path="url(#SVGID_2_)" fill="#2F6982" points="233.61,47.633 0,40.463 233.61,40.463 			"/>
		</g>
	</g>
	<rect x="2.071" y="1.739" fill-rule="evenodd" clip-rule="evenodd" fill="#154A8C" width="243.495" height="36.875"/>
	<g>
		<g>
			<path fill="#FFFFFF" d="M46.326,13.389h4.49c1.014,0,1.785,0.078,2.316,0.232c0.714,0.21,1.325,0.584,1.834,1.121
				c0.51,0.537,0.896,1.194,1.162,1.971c0.266,0.778,0.398,1.736,0.398,2.876c0,1.001-0.124,1.865-0.373,2.59
				c-0.305,0.885-0.738,1.602-1.303,2.15c-0.427,0.415-1.002,0.739-1.727,0.971c-0.543,0.171-1.268,0.257-2.176,0.257h-4.623V13.389
				z M48.783,15.448v8.06h1.834c0.687,0,1.182-0.039,1.486-0.116c0.398-0.1,0.729-0.269,0.992-0.506
				c0.263-0.238,0.477-0.629,0.643-1.175c0.166-0.545,0.25-1.288,0.25-2.229s-0.084-1.663-0.25-2.167s-0.398-0.896-0.697-1.179
				s-0.678-0.473-1.137-0.573c-0.344-0.078-1.016-0.116-2.018-0.116H48.783z"/>
			<path fill="#FFFFFF" d="M62.441,22.752l2.324,0.39c-0.299,0.852-0.77,1.501-1.414,1.947c-0.646,0.445-1.452,0.668-2.42,0.668
				c-1.533,0-2.668-0.501-3.404-1.502c-0.58-0.802-0.871-1.815-0.871-3.038c0-1.461,0.382-2.605,1.146-3.432
				c0.764-0.828,1.729-1.241,2.897-1.241c1.311,0,2.346,0.433,3.104,1.299c0.759,0.866,1.121,2.193,1.088,3.98h-5.844
				c0.017,0.692,0.205,1.23,0.564,1.614c0.359,0.385,0.809,0.577,1.345,0.577c0.365,0,0.673-0.1,0.921-0.299
				C62.127,23.516,62.314,23.195,62.441,22.752z M62.574,20.395c-0.016-0.675-0.19-1.188-0.522-1.54
				c-0.332-0.351-0.735-0.527-1.212-0.527c-0.51,0-0.93,0.186-1.262,0.556s-0.495,0.875-0.49,1.511H62.574z"/>
			<path fill="#FFFFFF" d="M64.512,16.743h1.295v-0.664c0-0.742,0.08-1.295,0.236-1.66c0.158-0.365,0.449-0.663,0.873-0.893
				c0.422-0.229,0.958-0.344,1.605-0.344c0.664,0,1.314,0.1,1.951,0.299l-0.316,1.627c-0.37-0.088-0.727-0.133-1.07-0.133
				c-0.338,0-0.58,0.079-0.727,0.237c-0.146,0.157-0.22,0.46-0.22,0.909v0.623h1.743v1.834H68.14v6.981h-2.333v-6.981h-1.295V16.743
				z"/>
			<path fill="#FFFFFF" d="M69.937,15.547v-2.158h2.333v2.158H69.937z M69.937,25.558v-8.815h2.333v8.815H69.937z"/>
			<path fill="#FFFFFF" d="M81.42,25.558h-2.332v-4.499c0-0.952-0.051-1.567-0.15-1.847c-0.1-0.28-0.262-0.497-0.484-0.652
				c-0.225-0.155-0.494-0.232-0.811-0.232c-0.403,0-0.766,0.111-1.087,0.332s-0.541,0.515-0.659,0.88
				c-0.119,0.365-0.18,1.041-0.18,2.025v3.993h-2.332v-8.815h2.166v1.295c0.77-0.996,1.738-1.494,2.906-1.494
				c0.514,0,0.984,0.093,1.41,0.278c0.427,0.185,0.749,0.422,0.967,0.709c0.219,0.288,0.371,0.614,0.457,0.979
				s0.129,0.888,0.129,1.569V25.558z"/>
			<path fill="#FFFFFF" d="M82.527,15.547v-2.158h2.333v2.158H82.527z M82.527,25.558v-8.815h2.333v8.815H82.527z"/>
			<path fill="#FFFFFF" d="M93.68,19.349l-2.299,0.415c-0.078-0.459-0.254-0.805-0.527-1.038s-0.63-0.349-1.066-0.349
				c-0.582,0-1.045,0.201-1.391,0.602c-0.346,0.401-0.52,1.072-0.52,2.013c0,1.046,0.176,1.785,0.527,2.216s0.823,0.647,1.416,0.647
				c0.442,0,0.805-0.126,1.087-0.377c0.282-0.252,0.481-0.685,0.598-1.299l2.291,0.39c-0.237,1.051-0.694,1.846-1.37,2.382
				c-0.675,0.537-1.58,0.805-2.714,0.805c-1.29,0-2.317-0.407-3.083-1.22c-0.768-0.813-1.15-1.939-1.15-3.378
				c0-1.456,0.385-2.588,1.154-3.399c0.769-0.811,1.809-1.216,3.121-1.216c1.073,0,1.927,0.231,2.561,0.693
				C92.947,17.699,93.402,18.403,93.68,19.349z"/>
			<path fill="#FFFFFF" d="M94.189,15.547v-2.158h2.332v2.158H94.189z M94.189,25.558v-8.815h2.332v8.815H94.189z"/>
			<path fill="#FFFFFF" d="M97.115,21.026c0-0.775,0.191-1.524,0.572-2.25c0.383-0.725,0.924-1.278,1.623-1.66
				c0.7-0.382,1.482-0.573,2.346-0.573c1.333,0,2.426,0.433,3.278,1.299c0.853,0.866,1.278,1.96,1.278,3.283
				c0,1.333-0.43,2.439-1.291,3.316c-0.86,0.877-1.943,1.315-3.25,1.315c-0.808,0-1.578-0.183-2.312-0.548s-1.29-0.9-1.673-1.606
				C97.307,22.898,97.115,22.039,97.115,21.026z M99.506,21.15c0,0.875,0.207,1.544,0.623,2.009
				c0.414,0.465,0.926,0.697,1.535,0.697s1.119-0.232,1.531-0.697s0.619-1.14,0.619-2.025c0-0.863-0.207-1.527-0.619-1.992
				s-0.922-0.697-1.531-0.697s-1.121,0.232-1.535,0.697C99.713,19.606,99.506,20.276,99.506,21.15z M100.485,15.664l1.146-2.482
				h2.615l-2.283,2.482H100.485z"/>
			<path fill="#FFFFFF" d="M114.8,25.558h-2.333v-4.499c0-0.952-0.049-1.567-0.148-1.847c-0.1-0.28-0.262-0.497-0.486-0.652
				s-0.494-0.232-0.809-0.232c-0.404,0-0.768,0.111-1.088,0.332s-0.541,0.515-0.66,0.88s-0.178,1.041-0.178,2.025v3.993h-2.333
				v-8.815h2.167v1.295c0.769-0.996,1.737-1.494,2.904-1.494c0.516,0,0.985,0.093,1.412,0.278c0.426,0.185,0.748,0.422,0.967,0.709
				s0.371,0.614,0.457,0.979c0.085,0.365,0.128,0.888,0.128,1.569V25.558z"/>
		</g>
	</g>
	<path fill="#FFFFFF" stroke="#000000" stroke-width="0.5" stroke-miterlimit="10" d="M33.815,8.195H17.029
		c-0.646,0-1.203,0.389-1.455,0.941c-0.092,0.201-0.144,0.424-0.144,0.656v20.785c0,0.877,0.719,1.598,1.6,1.598h16.786
		c0.234,0,0.455-0.053,0.657-0.145c0.553-0.252,0.942-0.809,0.942-1.453V9.793C35.415,8.916,34.695,8.195,33.815,8.195z
		 M31.922,28.979h-13c-0.441,0-0.799-0.357-0.799-0.799c0-0.443,0.358-0.801,0.799-0.801h13c0.442,0,0.801,0.357,0.801,0.801
		C32.723,28.621,32.364,28.979,31.922,28.979z M31.922,24.982h-13c-0.441,0-0.799-0.357-0.799-0.801
		c0-0.441,0.358-0.797,0.799-0.797h13c0.442,0,0.801,0.355,0.801,0.797C32.723,24.625,32.364,24.982,31.922,24.982z M31.922,20.984
		h-13c-0.441,0-0.799-0.357-0.799-0.799c0-0.441,0.358-0.799,0.799-0.799h13c0.442,0,0.801,0.357,0.801,0.799
		C32.723,20.627,32.364,20.984,31.922,20.984z M31.922,16.988h-13c-0.441,0-0.799-0.357-0.799-0.799
		c0-0.441,0.358-0.801,0.799-0.801h13c0.442,0,0.801,0.359,0.801,0.801C32.723,16.631,32.364,16.988,31.922,16.988z M31.922,12.992
		h-13c-0.441,0-0.799-0.358-0.799-0.801c0-0.441,0.358-0.799,0.799-0.799h13c0.442,0,0.801,0.358,0.801,0.799
		C32.723,12.635,32.364,12.992,31.922,12.992z"/>
</g>
</svg>
