<?xml version="1.0" encoding="utf-8"?>
<!-- Generator: Adobe Illustrator 17.0.0, SVG Export Plug-In . SVG Version: 6.00 Build 0)  -->
<!DOCTYPE svg PUBLIC "-//W3C//DTD SVG 1.1//EN" "http://www.w3.org/Graphics/SVG/1.1/DTD/svg11.dtd" [
	<!ENTITY ns_extend "http://ns.adobe.com/Extensibility/1.0/">
	<!ENTITY ns_ai "http://ns.adobe.com/AdobeIllustrator/10.0/">
	<!ENTITY ns_graphs "http://ns.adobe.com/Graphs/1.0/">
	<!ENTITY ns_vars "http://ns.adobe.com/Variables/1.0/">
	<!ENTITY ns_imrep "http://ns.adobe.com/ImageReplacement/1.0/">
	<!ENTITY ns_sfw "http://ns.adobe.com/SaveForWeb/1.0/">
	<!ENTITY ns_custom "http://ns.adobe.com/GenericCustomNamespace/1.0/">
	<!ENTITY ns_adobe_xpath "http://ns.adobe.com/XPath/1.0/">
]>
<svg version="1.1" id="Capa_1" xmlns:x="&ns_extend;" xmlns:i="&ns_ai;" xmlns:graph="&ns_graphs;"
	 xmlns="http://www.w3.org/2000/svg" xmlns:xlink="http://www.w3.org/1999/xlink" x="0px" y="0px" width="247.638px"
	 height="58.139px" viewBox="0 0 247.638 58.139" enable-background="new 0 0 247.638 58.139" xml:space="preserve">
<metadata>
	<sfw  xmlns="&ns_sfw;">
		<slices></slices>
		<sliceSourceBounds  width="555.971" height="404.443" y="-416.037" x="7.862" bottomLeftOrigin="true"></sliceSourceBounds>
	</sfw>
</metadata>
<g>
	<polygon fill-rule="evenodd" clip-rule="evenodd" fill="#A8A7A7" points="233.61,58.139 247.638,40.354 237.212,20.185 
		233.61,20.188 	"/>
	<rect x="0" y="0" fill-rule="evenodd" clip-rule="evenodd" fill="#FFFFFF" width="247.638" height="40.354"/>
	<g opacity="0.5">
		<g>
			<defs>
				<rect id="SVGID_5_" x="0" y="40.463" width="233.61" height="7.17"/>
			</defs>
			<clipPath id="SVGID_2_">
				<use xlink:href="#SVGID_5_"  overflow="visible"/>
			</clipPath>
			<polygon clip-path="url(#SVGID_2_)" fill="#2F6982" points="233.61,47.633 0,40.463 233.61,40.463 			"/>
		</g>
	</g>
	<g>
		<g>
			<path d="M46.326,13.389h4.491c1.013,0,1.785,0.078,2.316,0.232c0.714,0.21,1.325,0.584,1.834,1.121s0.896,1.194,1.162,1.971
				c0.266,0.778,0.398,1.736,0.398,2.876c0,1.001-0.125,1.865-0.374,2.59c-0.304,0.885-0.739,1.602-1.303,2.15
				c-0.426,0.415-1.001,0.739-1.727,0.971c-0.542,0.171-1.267,0.257-2.175,0.257h-4.624V13.389z M48.783,15.448v8.06h1.834
				c0.686,0,1.182-0.039,1.486-0.116c0.398-0.1,0.729-0.269,0.992-0.506c0.263-0.238,0.477-0.629,0.643-1.175
				c0.166-0.545,0.249-1.288,0.249-2.229s-0.083-1.663-0.249-2.167s-0.398-0.896-0.697-1.179s-0.678-0.473-1.137-0.573
				c-0.343-0.078-1.016-0.116-2.017-0.116H48.783z"/>
			<path d="M62.442,22.752l2.324,0.39c-0.299,0.852-0.771,1.501-1.415,1.947c-0.645,0.445-1.452,0.668-2.42,0.668
				c-1.533,0-2.667-0.501-3.403-1.502c-0.581-0.802-0.872-1.815-0.872-3.038c0-1.461,0.382-2.605,1.146-3.432
				c0.764-0.828,1.729-1.241,2.897-1.241c1.312,0,2.346,0.433,3.104,1.299c0.758,0.866,1.121,2.193,1.087,3.98h-5.844
				c0.017,0.692,0.205,1.23,0.564,1.614c0.36,0.385,0.808,0.577,1.345,0.577c0.365,0,0.672-0.1,0.921-0.299
				S62.314,23.195,62.442,22.752z M62.575,20.395c-0.017-0.675-0.191-1.188-0.523-1.54c-0.332-0.351-0.736-0.527-1.212-0.527
				c-0.509,0-0.93,0.186-1.262,0.556s-0.495,0.875-0.49,1.511H62.575z"/>
			<path d="M64.512,16.743h1.295v-0.664c0-0.742,0.079-1.295,0.236-1.66c0.158-0.365,0.448-0.663,0.872-0.893
				c0.423-0.229,0.958-0.344,1.606-0.344c0.664,0,1.314,0.1,1.951,0.299l-0.315,1.627c-0.371-0.088-0.728-0.133-1.071-0.133
				c-0.337,0-0.58,0.079-0.726,0.237c-0.147,0.157-0.22,0.46-0.22,0.909v0.623h1.743v1.834H68.14v6.981h-2.333v-6.981h-1.295V16.743
				z"/>
			<path d="M69.936,15.547v-2.158h2.333v2.158H69.936z M69.936,25.558v-8.815h2.333v8.815H69.936z"/>
			<path d="M81.42,25.558h-2.333v-4.499c0-0.952-0.05-1.567-0.149-1.847c-0.1-0.28-0.262-0.497-0.485-0.652
				c-0.225-0.155-0.494-0.232-0.81-0.232c-0.404,0-0.767,0.111-1.087,0.332s-0.541,0.515-0.66,0.88
				c-0.119,0.365-0.179,1.041-0.179,2.025v3.993h-2.333v-8.815h2.167v1.295c0.769-0.996,1.738-1.494,2.905-1.494
				c0.515,0,0.985,0.093,1.411,0.278c0.426,0.185,0.749,0.422,0.967,0.709c0.219,0.288,0.371,0.614,0.457,0.979
				c0.085,0.365,0.128,0.888,0.128,1.569V25.558z"/>
			<path d="M82.528,15.547v-2.158h2.333v2.158H82.528z M82.528,25.558v-8.815h2.333v8.815H82.528z"/>
			<path d="M93.68,19.349l-2.299,0.415c-0.078-0.459-0.253-0.805-0.527-1.038c-0.273-0.232-0.629-0.349-1.066-0.349
				c-0.581,0-1.044,0.201-1.391,0.602c-0.346,0.401-0.519,1.072-0.519,2.013c0,1.046,0.176,1.785,0.527,2.216
				c0.351,0.432,0.823,0.647,1.415,0.647c0.443,0,0.805-0.126,1.087-0.377c0.282-0.252,0.481-0.685,0.598-1.299l2.291,0.39
				c-0.238,1.051-0.694,1.846-1.37,2.382s-1.58,0.805-2.714,0.805c-1.29,0-2.317-0.407-3.083-1.22
				c-0.767-0.813-1.15-1.939-1.15-3.378c0-1.456,0.385-2.588,1.154-3.399c0.769-0.811,1.81-1.216,3.121-1.216
				c1.074,0,1.927,0.231,2.561,0.693C92.948,17.699,93.403,18.403,93.68,19.349z"/>
			<path d="M94.189,15.547v-2.158h2.333v2.158H94.189z M94.189,25.558v-8.815h2.333v8.815H94.189z"/>
			<path d="M97.115,21.026c0-0.775,0.191-1.524,0.573-2.25s0.923-1.278,1.623-1.66c0.7-0.382,1.482-0.573,2.345-0.573
				c1.333,0,2.427,0.433,3.279,1.299c0.852,0.866,1.278,1.96,1.278,3.283c0,1.333-0.43,2.439-1.291,3.316
				c-0.86,0.877-1.943,1.315-3.25,1.315c-0.808,0-1.579-0.183-2.312-0.548c-0.733-0.365-1.291-0.9-1.672-1.606
				C97.306,22.898,97.115,22.039,97.115,21.026z M99.506,21.15c0,0.875,0.208,1.544,0.623,2.009s0.927,0.697,1.536,0.697
				s1.119-0.232,1.531-0.697c0.413-0.465,0.619-1.14,0.619-2.025c0-0.863-0.206-1.527-0.619-1.992
				c-0.412-0.465-0.922-0.697-1.531-0.697s-1.121,0.232-1.536,0.697S99.506,20.276,99.506,21.15z M100.485,15.664l1.146-2.482h2.615
				l-2.283,2.482H100.485z"/>
			<path d="M114.8,25.558h-2.333v-4.499c0-0.952-0.05-1.567-0.149-1.847c-0.1-0.28-0.262-0.497-0.485-0.652
				c-0.225-0.155-0.494-0.232-0.81-0.232c-0.404,0-0.767,0.111-1.087,0.332s-0.541,0.515-0.66,0.88
				c-0.119,0.365-0.179,1.041-0.179,2.025v3.993h-2.333v-8.815h2.167v1.295c0.769-0.996,1.738-1.494,2.905-1.494
				c0.515,0,0.985,0.093,1.411,0.278c0.426,0.185,0.749,0.422,0.967,0.709c0.219,0.288,0.371,0.614,0.457,0.979
				c0.085,0.365,0.128,0.888,0.128,1.569V25.558z"/>
		</g>
	</g>
	<path fill="#154A8C" stroke="#000000" stroke-width="0.5" stroke-miterlimit="10" d="M33.815,8.195H17.029
		c-0.647,0-1.203,0.389-1.455,0.941c-0.092,0.201-0.144,0.424-0.144,0.656v20.785c0,0.877,0.719,1.598,1.6,1.598h16.786
		c0.234,0,0.455-0.053,0.657-0.145c0.553-0.252,0.942-0.809,0.942-1.453V9.793C35.415,8.916,34.695,8.195,33.815,8.195z
		 M31.922,28.979h-13c-0.441,0-0.799-0.357-0.799-0.799c0-0.443,0.358-0.801,0.799-0.801h13c0.442,0,0.801,0.357,0.801,0.801
		C32.723,28.621,32.364,28.979,31.922,28.979z M31.922,24.982h-13c-0.441,0-0.799-0.357-0.799-0.801
		c0-0.441,0.358-0.797,0.799-0.797h13c0.442,0,0.801,0.355,0.801,0.797C32.723,24.625,32.364,24.982,31.922,24.982z M31.922,20.984
		h-13c-0.441,0-0.799-0.357-0.799-0.799c0-0.441,0.358-0.799,0.799-0.799h13c0.442,0,0.801,0.357,0.801,0.799
		C32.723,20.627,32.364,20.984,31.922,20.984z M31.922,16.988h-13c-0.441,0-0.799-0.357-0.799-0.799
		c0-0.441,0.358-0.801,0.799-0.801h13c0.442,0,0.801,0.359,0.801,0.801C32.723,16.631,32.364,16.988,31.922,16.988z M31.922,12.992
		h-13c-0.441,0-0.799-0.358-0.799-0.801c0-0.441,0.358-0.799,0.799-0.799h13c0.442,0,0.801,0.358,0.801,0.799
		C32.723,12.635,32.364,12.992,31.922,12.992z"/>
</g>
</svg>
