<?xml version="1.0" encoding="utf-8"?>
<!-- Generator: Adobe Illustrator 17.0.0, SVG Export Plug-In . SVG Version: 6.00 Build 0)  -->
<!DOCTYPE svg PUBLIC "-//W3C//DTD SVG 1.1//EN" "http://www.w3.org/Graphics/SVG/1.1/DTD/svg11.dtd" [
	<!ENTITY ns_extend "http://ns.adobe.com/Extensibility/1.0/">
	<!ENTITY ns_ai "http://ns.adobe.com/AdobeIllustrator/10.0/">
	<!ENTITY ns_graphs "http://ns.adobe.com/Graphs/1.0/">
	<!ENTITY ns_vars "http://ns.adobe.com/Variables/1.0/">
	<!ENTITY ns_imrep "http://ns.adobe.com/ImageReplacement/1.0/">
	<!ENTITY ns_sfw "http://ns.adobe.com/SaveForWeb/1.0/">
	<!ENTITY ns_custom "http://ns.adobe.com/GenericCustomNamespace/1.0/">
	<!ENTITY ns_adobe_xpath "http://ns.adobe.com/XPath/1.0/">
]>
<svg version="1.1" id="Capa_1" xmlns:x="&ns_extend;" xmlns:i="&ns_ai;" xmlns:graph="&ns_graphs;"
	 xmlns="http://www.w3.org/2000/svg" xmlns:xlink="http://www.w3.org/1999/xlink" x="0px" y="0px" width="247.638px"
	 height="58.139px" viewBox="0 0 247.638 58.139" enable-background="new 0 0 247.638 58.139" xml:space="preserve">
<metadata>
	<sfw  xmlns="&ns_sfw;">
		<slices></slices>
		<sliceSourceBounds  width="555.971" height="404.443" y="-416.037" x="7.862" bottomLeftOrigin="true"></sliceSourceBounds>
	</sfw>
</metadata>
<g>
	<polygon fill-rule="evenodd" clip-rule="evenodd" fill="#A8A7A7" points="233.61,58.139 247.638,40.354 237.212,20.186 
		233.61,20.188 	"/>
	<rect x="0" y="0" fill-rule="evenodd" clip-rule="evenodd" fill="#FFFFFF" width="247.638" height="40.354"/>
	<g opacity="0.5">
		<g>
			<defs>
				<rect id="SVGID_31_" x="0" y="40.824" width="233.61" height="7.17"/>
			</defs>
			<clipPath id="SVGID_2_">
				<use xlink:href="#SVGID_31_"  overflow="visible"/>
			</clipPath>
			<polygon clip-path="url(#SVGID_2_)" fill="#2F6982" points="233.61,47.994 0,40.824 233.61,40.824 			"/>
		</g>
	</g>
	<rect x="2.071" y="1.739" fill-rule="evenodd" clip-rule="evenodd" fill="#154A8C" width="243.495" height="36.875"/>
	<g>
		<g>
			<path fill="#FFFFFF" d="M46.334,27.559v-12.17h9.023v2.059h-6.566v2.698H54.9v2.05h-6.109v3.313h6.799v2.051H46.334z"/>
			<path fill="#FFFFFF" d="M58.682,18.742v8.542c0,1.124-0.073,1.916-0.22,2.378c-0.147,0.463-0.429,0.823-0.847,1.084
				c-0.418,0.26-0.951,0.39-1.598,0.39c-0.232,0-0.483-0.021-0.752-0.062c-0.268-0.043-0.557-0.104-0.867-0.188l0.406-1.992
				c0.111,0.021,0.215,0.04,0.312,0.055c0.097,0.014,0.187,0.02,0.271,0.02c0.237,0,0.433-0.051,0.585-0.152
				c0.151-0.104,0.253-0.227,0.303-0.37s0.075-0.575,0.075-1.295v-8.409H58.682z M56.35,17.547v-2.158h2.332v2.158H56.35z"/>
			<path fill="#FFFFFF" d="M64.969,24.752l2.324,0.391c-0.299,0.852-0.771,1.501-1.415,1.947c-0.646,0.445-1.452,0.668-2.42,0.668
				c-1.532,0-2.667-0.502-3.403-1.503c-0.581-0.802-0.871-1.815-0.871-3.038c0-1.461,0.381-2.605,1.145-3.432
				c0.764-0.828,1.73-1.242,2.897-1.242c1.312,0,2.347,0.434,3.104,1.299c0.758,0.867,1.121,2.193,1.088,3.98h-5.844
				c0.016,0.692,0.204,1.23,0.564,1.615c0.359,0.385,0.808,0.576,1.344,0.576c0.365,0,0.673-0.1,0.922-0.299
				S64.842,25.195,64.969,24.752z M65.102,22.395c-0.017-0.675-0.191-1.188-0.523-1.539s-0.735-0.527-1.211-0.527
				c-0.51,0-0.93,0.186-1.262,0.557c-0.332,0.37-0.496,0.874-0.49,1.51H65.102z"/>
			<path fill="#FFFFFF" d="M67.887,18.742h2.149v1.204c0.769-0.935,1.685-1.403,2.747-1.403c0.564,0,1.055,0.117,1.47,0.35
				s0.755,0.584,1.021,1.054c0.388-0.47,0.806-0.821,1.254-1.054s0.927-0.35,1.436-0.35c0.648,0,1.195,0.132,1.645,0.395
				c0.447,0.264,0.783,0.648,1.004,1.158c0.16,0.377,0.24,0.984,0.24,1.826v5.637H78.52V22.52c0-0.875-0.08-1.439-0.24-1.693
				c-0.217-0.332-0.549-0.498-0.996-0.498c-0.327,0-0.635,0.1-0.922,0.299s-0.495,0.491-0.623,0.875
				c-0.127,0.385-0.19,0.992-0.19,1.822v4.234h-2.333v-4.832c0-0.857-0.041-1.41-0.124-1.66c-0.083-0.248-0.212-0.434-0.386-0.556
				s-0.411-0.183-0.71-0.183c-0.36,0-0.684,0.097-0.972,0.291c-0.287,0.193-0.494,0.473-0.617,0.838
				c-0.125,0.365-0.188,0.971-0.188,1.818v4.283h-2.332V18.742z"/>
			<path fill="#FFFFFF" d="M81.852,18.742h2.175v1.295c0.282-0.442,0.664-0.802,1.146-1.078c0.481-0.277,1.016-0.416,1.602-0.416
				c1.024,0,1.893,0.402,2.607,1.204c0.713,0.802,1.07,1.921,1.07,3.354c0,1.472-0.359,2.616-1.079,3.433s-1.591,1.225-2.614,1.225
				c-0.487,0-0.929-0.098-1.324-0.291c-0.396-0.193-0.813-0.525-1.25-0.996v4.441h-2.332V18.742z M84.159,23.001
				c0,0.991,0.196,1.722,0.589,2.196c0.394,0.473,0.872,0.709,1.437,0.709c0.542,0,0.993-0.217,1.353-0.652
				c0.36-0.434,0.54-1.146,0.54-2.137c0-0.924-0.186-1.61-0.556-2.059c-0.371-0.448-0.83-0.672-1.379-0.672
				c-0.569,0-1.043,0.219-1.419,0.66C84.348,21.486,84.159,22.138,84.159,23.001z"/>
			<path fill="#FFFFFF" d="M91.045,27.559v-12.17h2.332v12.17H91.045z"/>
			<path fill="#FFFFFF" d="M93.971,23.025c0-0.774,0.19-1.523,0.572-2.249s0.923-1.278,1.623-1.66
				c0.699-0.382,1.481-0.573,2.345-0.573c1.333,0,2.427,0.434,3.278,1.299c0.853,0.867,1.279,1.961,1.279,3.283
				c0,1.334-0.431,2.439-1.291,3.316c-0.861,0.877-1.943,1.316-3.25,1.316c-0.809,0-1.578-0.184-2.313-0.549
				c-0.732-0.365-1.29-0.9-1.672-1.605S93.971,24.039,93.971,23.025z M96.361,23.15c0,0.875,0.207,1.544,0.622,2.009
				s0.927,0.697,1.536,0.697c0.608,0,1.119-0.232,1.531-0.697s0.618-1.14,0.618-2.025c0-0.863-0.206-1.527-0.618-1.992
				s-0.923-0.697-1.531-0.697c-0.609,0-1.121,0.232-1.536,0.697S96.361,22.275,96.361,23.15z"/>
			<path fill="#FFFFFF" d="M102.814,25.043l2.34-0.357c0.1,0.454,0.303,0.799,0.606,1.033c0.304,0.236,0.73,0.354,1.278,0.354
				c0.604,0,1.057-0.111,1.361-0.332c0.205-0.154,0.307-0.362,0.307-0.623c0-0.177-0.055-0.323-0.166-0.439
				c-0.115-0.111-0.376-0.213-0.779-0.307c-1.882-0.416-3.074-0.795-3.578-1.138c-0.697-0.476-1.046-1.138-1.046-1.983
				c0-0.764,0.302-1.406,0.905-1.926c0.603-0.521,1.538-0.781,2.805-0.781c1.207,0,2.104,0.197,2.689,0.59
				c0.587,0.393,0.991,0.975,1.213,1.743l-2.2,0.407c-0.095-0.344-0.272-0.606-0.536-0.789c-0.262-0.183-0.637-0.273-1.124-0.273
				c-0.614,0-1.054,0.086-1.319,0.257c-0.178,0.122-0.266,0.279-0.266,0.474c0,0.166,0.077,0.307,0.232,0.423
				c0.21,0.155,0.936,0.374,2.178,0.655c1.243,0.283,2.11,0.629,2.604,1.038c0.486,0.415,0.73,0.993,0.73,1.735
				c0,0.808-0.338,1.502-1.014,2.083c-0.675,0.581-1.674,0.872-2.996,0.872c-1.201,0-2.151-0.244-2.852-0.73
				C103.488,26.54,103.029,25.879,102.814,25.043z"/>
			<path fill="#FFFFFF" d="M123.383,27.559h-2.166v-1.295c-0.36,0.503-0.785,0.878-1.275,1.125c-0.488,0.246-0.982,0.369-1.48,0.369
				c-1.014,0-1.881-0.408-2.604-1.225c-0.721-0.816-1.082-1.955-1.082-3.416c0-1.494,0.352-2.63,1.054-3.408
				c0.702-0.777,1.591-1.166,2.665-1.166c0.984,0,1.837,0.41,2.557,1.229v-4.383h2.332V27.559z M117.157,22.959
				c0,0.941,0.13,1.622,0.39,2.043c0.377,0.608,0.902,0.912,1.578,0.912c0.536,0,0.992-0.229,1.369-0.684
				c0.377-0.457,0.564-1.139,0.564-2.047c0-1.013-0.183-1.742-0.548-2.188s-0.833-0.668-1.403-0.668
				c-0.553,0-1.016,0.221-1.391,0.66C117.344,21.428,117.157,22.085,117.157,22.959z"/>
			<path fill="#FFFFFF" d="M129.529,24.752l2.324,0.391c-0.299,0.852-0.771,1.501-1.416,1.947c-0.645,0.445-1.451,0.668-2.42,0.668
				c-1.532,0-2.667-0.502-3.402-1.503c-0.582-0.802-0.872-1.815-0.872-3.038c0-1.461,0.382-2.605,1.146-3.432
				c0.764-0.828,1.729-1.242,2.896-1.242c1.312,0,2.347,0.434,3.105,1.299c0.758,0.867,1.12,2.193,1.087,3.98h-5.844
				c0.017,0.692,0.204,1.23,0.564,1.615s0.808,0.576,1.345,0.576c0.365,0,0.672-0.1,0.922-0.299
				C129.213,25.516,129.401,25.195,129.529,24.752z M129.662,22.395c-0.018-0.675-0.191-1.188-0.523-1.539s-0.736-0.527-1.212-0.527
				c-0.509,0-0.93,0.186-1.262,0.557c-0.332,0.37-0.495,0.874-0.489,1.51H129.662z"/>
			<path fill="#FFFFFF" d="M138.318,27.559h-2.332v-8.816h2.166v1.254c0.371-0.592,0.704-0.982,1-1.17
				c0.297-0.188,0.633-0.283,1.009-0.283c0.531,0,1.043,0.146,1.536,0.44l-0.723,2.034c-0.393-0.255-0.758-0.383-1.096-0.383
				c-0.326,0-0.604,0.09-0.83,0.27c-0.227,0.181-0.405,0.506-0.535,0.977c-0.131,0.47-0.195,1.455-0.195,2.955V27.559z"/>
			<path fill="#FFFFFF" d="M146.549,24.752l2.324,0.391c-0.299,0.852-0.771,1.501-1.416,1.947c-0.645,0.445-1.451,0.668-2.42,0.668
				c-1.532,0-2.667-0.502-3.402-1.503c-0.582-0.802-0.872-1.815-0.872-3.038c0-1.461,0.382-2.605,1.146-3.432
				c0.764-0.828,1.729-1.242,2.896-1.242c1.313,0,2.347,0.434,3.105,1.299c0.758,0.867,1.12,2.193,1.087,3.98h-5.844
				c0.017,0.692,0.204,1.23,0.564,1.615s0.808,0.576,1.345,0.576c0.365,0,0.672-0.1,0.922-0.299
				C146.232,25.516,146.421,25.195,146.549,24.752z M146.682,22.395c-0.018-0.675-0.191-1.188-0.523-1.539s-0.736-0.527-1.212-0.527
				c-0.509,0-0.93,0.186-1.262,0.557c-0.332,0.37-0.495,0.874-0.489,1.51H146.682z"/>
			<path fill="#FFFFFF" d="M155.4,30.912v-4.434c-0.304,0.394-0.684,0.705-1.137,0.934c-0.453,0.23-0.943,0.346-1.469,0.346
				c-1.002,0-1.826-0.377-2.475-1.129c-0.764-0.881-1.145-2.072-1.145-3.578c0-1.416,0.357-2.521,1.074-3.316
				c0.717-0.794,1.606-1.191,2.669-1.191c0.587,0,1.095,0.125,1.523,0.374s0.81,0.626,1.142,1.129v-1.304h2.149v12.17H155.4z
				 M155.476,23.043c0-0.902-0.185-1.574-0.552-2.014c-0.368-0.439-0.829-0.66-1.383-0.66c-0.564,0-1.035,0.225-1.415,0.673
				c-0.379,0.448-0.568,1.159-0.568,2.134c0,0.968,0.183,1.666,0.548,2.096c0.365,0.429,0.816,0.643,1.354,0.643
				c0.536,0,1.007-0.24,1.41-0.722C155.273,24.711,155.476,23.994,155.476,23.043z"/>
			<path fill="#FFFFFF" d="M164.568,27.559v-1.32c-0.32,0.471-0.743,0.842-1.266,1.112c-0.523,0.271-1.075,0.407-1.656,0.407
				c-0.592,0-1.123-0.131-1.594-0.391s-0.811-0.625-1.021-1.096c-0.21-0.471-0.314-1.121-0.314-1.951v-5.578h2.332v4.051
				c0,1.24,0.043,2,0.129,2.279s0.242,0.5,0.469,0.664c0.227,0.163,0.515,0.244,0.863,0.244c0.398,0,0.756-0.109,1.07-0.328
				c0.316-0.218,0.531-0.488,0.648-0.813c0.115-0.324,0.174-1.117,0.174-2.379v-3.719h2.332v8.816H164.568z"/>
			<path fill="#FFFFFF" d="M172.998,24.752l2.324,0.391c-0.299,0.852-0.771,1.501-1.416,1.947c-0.645,0.445-1.451,0.668-2.42,0.668
				c-1.532,0-2.667-0.502-3.402-1.503c-0.582-0.802-0.872-1.815-0.872-3.038c0-1.461,0.382-2.605,1.146-3.432
				c0.764-0.828,1.729-1.242,2.896-1.242c1.313,0,2.347,0.434,3.105,1.299c0.758,0.867,1.12,2.193,1.087,3.98h-5.844
				c0.017,0.692,0.204,1.23,0.564,1.615s0.808,0.576,1.345,0.576c0.365,0,0.672-0.1,0.922-0.299
				C172.682,25.516,172.87,25.195,172.998,24.752z M173.131,22.395c-0.018-0.675-0.191-1.188-0.523-1.539s-0.736-0.527-1.212-0.527
				c-0.509,0-0.93,0.186-1.262,0.557c-0.332,0.37-0.495,0.874-0.489,1.51H173.131z"/>
			<path fill="#FFFFFF" d="M178.322,27.559h-2.333v-8.816h2.167v1.254c0.37-0.592,0.703-0.982,1-1.17
				c0.296-0.188,0.632-0.283,1.008-0.283c0.531,0,1.043,0.146,1.536,0.44l-0.722,2.034c-0.394-0.255-0.759-0.383-1.096-0.383
				c-0.327,0-0.604,0.09-0.83,0.27c-0.228,0.181-0.406,0.506-0.535,0.977c-0.131,0.47-0.195,1.455-0.195,2.955V27.559z"/>
			<path fill="#FFFFFF" d="M181.447,17.547v-2.158h2.332v2.158H181.447z M181.447,27.559v-8.816h2.332v8.816H181.447z"/>
			<path fill="#FFFFFF" d="M184.738,18.742h2.149v1.204c0.769-0.935,1.685-1.403,2.747-1.403c0.564,0,1.055,0.117,1.47,0.35
				s0.755,0.584,1.021,1.054c0.388-0.47,0.806-0.821,1.254-1.054s0.927-0.35,1.436-0.35c0.648,0,1.195,0.132,1.645,0.395
				c0.447,0.264,0.783,0.648,1.004,1.158c0.16,0.377,0.24,0.984,0.24,1.826v5.637h-2.332V22.52c0-0.875-0.08-1.439-0.24-1.693
				c-0.217-0.332-0.549-0.498-0.996-0.498c-0.327,0-0.635,0.1-0.922,0.299s-0.495,0.491-0.623,0.875
				c-0.127,0.385-0.19,0.992-0.19,1.822v4.234h-2.333v-4.832c0-0.857-0.041-1.41-0.124-1.66c-0.083-0.248-0.212-0.434-0.386-0.556
				s-0.411-0.183-0.71-0.183c-0.36,0-0.684,0.097-0.972,0.291c-0.287,0.193-0.494,0.473-0.617,0.838
				c-0.125,0.365-0.188,0.971-0.188,1.818v4.283h-2.332V18.742z"/>
			<path fill="#FFFFFF" d="M198.77,17.547v-2.158h2.332v2.158H198.77z M198.77,27.559v-8.816h2.332v8.816H198.77z"/>
			<path fill="#FFFFFF" d="M207.34,24.752l2.324,0.391c-0.299,0.852-0.771,1.501-1.415,1.947c-0.646,0.445-1.452,0.668-2.42,0.668
				c-1.532,0-2.667-0.502-3.403-1.503c-0.581-0.802-0.871-1.815-0.871-3.038c0-1.461,0.381-2.605,1.145-3.432
				c0.764-0.828,1.73-1.242,2.897-1.242c1.312,0,2.347,0.434,3.104,1.299c0.758,0.867,1.121,2.193,1.088,3.98h-5.844
				c0.016,0.692,0.204,1.23,0.564,1.615c0.359,0.385,0.808,0.576,1.344,0.576c0.365,0,0.673-0.1,0.922-0.299
				S207.213,25.195,207.34,24.752z M207.473,22.395c-0.017-0.675-0.191-1.188-0.523-1.539s-0.735-0.527-1.211-0.527
				c-0.51,0-0.93,0.186-1.262,0.557c-0.332,0.37-0.496,0.874-0.49,1.51H207.473z"/>
			<path fill="#FFFFFF" d="M218.45,27.559h-2.333v-4.5c0-0.951-0.049-1.566-0.148-1.846c-0.1-0.28-0.262-0.498-0.486-0.652
				s-0.494-0.232-0.809-0.232c-0.404,0-0.768,0.111-1.088,0.332s-0.541,0.515-0.66,0.88s-0.178,1.04-0.178,2.025v3.993h-2.333
				v-8.816h2.167v1.295c0.769-0.996,1.737-1.494,2.904-1.494c0.516,0,0.985,0.094,1.412,0.279c0.426,0.185,0.748,0.422,0.967,0.709
				s0.371,0.614,0.457,0.979c0.085,0.365,0.128,0.888,0.128,1.569V27.559z"/>
			<path fill="#FFFFFF" d="M223.6,18.742v1.859h-1.594v3.553c0,0.72,0.016,1.139,0.047,1.258c0.029,0.119,0.1,0.217,0.207,0.295
				s0.239,0.116,0.395,0.116c0.215,0,0.527-0.075,0.938-0.224l0.199,1.809c-0.543,0.232-1.156,0.35-1.843,0.35
				c-0.421,0-0.8-0.07-1.138-0.213c-0.337-0.141-0.584-0.322-0.742-0.547s-0.268-0.527-0.328-0.909
				c-0.05-0.271-0.074-0.819-0.074-1.644v-3.844h-1.071v-1.859h1.071v-1.751l2.34-1.361v3.112H223.6z"/>
			<path fill="#FFFFFF" d="M223.422,23.025c0-0.774,0.19-1.523,0.572-2.249s0.923-1.278,1.623-1.66
				c0.699-0.382,1.481-0.573,2.345-0.573c1.333,0,2.427,0.434,3.278,1.299c0.853,0.867,1.279,1.961,1.279,3.283
				c0,1.334-0.431,2.439-1.291,3.316c-0.861,0.877-1.943,1.316-3.25,1.316c-0.809,0-1.578-0.184-2.313-0.549
				c-0.732-0.365-1.29-0.9-1.672-1.605S223.422,24.039,223.422,23.025z M225.813,23.15c0,0.875,0.207,1.544,0.622,2.009
				s0.927,0.697,1.536,0.697c0.608,0,1.119-0.232,1.531-0.697s0.618-1.14,0.618-2.025c0-0.863-0.206-1.527-0.618-1.992
				s-0.923-0.697-1.531-0.697c-0.609,0-1.121,0.232-1.536,0.697S225.813,22.275,225.813,23.15z"/>
			<path fill="#FFFFFF" d="M232.266,25.043l2.34-0.357c0.1,0.454,0.303,0.799,0.606,1.033c0.304,0.236,0.73,0.354,1.278,0.354
				c0.604,0,1.057-0.111,1.361-0.332c0.205-0.154,0.307-0.362,0.307-0.623c0-0.177-0.055-0.323-0.166-0.439
				c-0.115-0.111-0.376-0.213-0.779-0.307c-1.882-0.416-3.074-0.795-3.578-1.138c-0.697-0.476-1.046-1.138-1.046-1.983
				c0-0.764,0.302-1.406,0.905-1.926c0.603-0.521,1.538-0.781,2.805-0.781c1.207,0,2.104,0.197,2.689,0.59
				c0.587,0.393,0.991,0.975,1.213,1.743l-2.2,0.407c-0.095-0.344-0.272-0.606-0.536-0.789c-0.262-0.183-0.637-0.273-1.124-0.273
				c-0.614,0-1.054,0.086-1.319,0.257c-0.178,0.122-0.266,0.279-0.266,0.474c0,0.166,0.077,0.307,0.232,0.423
				c0.21,0.155,0.936,0.374,2.178,0.655c1.243,0.283,2.11,0.629,2.604,1.038c0.486,0.415,0.73,0.993,0.73,1.735
				c0,0.808-0.338,1.502-1.014,2.083c-0.675,0.581-1.674,0.872-2.996,0.872c-1.201,0-2.151-0.244-2.852-0.73
				C232.939,26.54,232.48,25.879,232.266,25.043z"/>
		</g>
	</g>
	<g id="XMLID_1_">
		<path id="XMLID_8_" fill="#FFFFFF" stroke="#000000" stroke-width="0.5" stroke-miterlimit="10" d="M34.913,32.661l-2.446-2.445
			c0.504-0.793,0.792-1.799,0.792-2.807c0-2.879-2.374-5.252-5.253-5.252c-2.877,0-5.252,2.373-5.252,5.252s2.375,5.252,5.252,5.252
			c1.008,0,2.016-0.287,2.807-0.791l2.446,2.447c0.216,0.215,0.503,0.359,0.792,0.359c0.289,0,0.574-0.145,0.791-0.359
			C35.346,33.813,35.346,33.093,34.913,32.661L34.913,32.661z M28.006,31.007c-2.014,0-3.597-1.584-3.597-3.598
			s1.583-3.598,3.597-3.598c2.016,0,3.599,1.584,3.599,3.598C31.605,29.351,30.022,31.007,28.006,31.007L28.006,31.007z"/>
		<path id="XMLID_7_" fill="#FFFFFF" stroke="#000000" stroke-width="0.5" stroke-miterlimit="10" d="M23.69,23.091h-6.188
			c-0.217,0-0.359,0.144-0.359,0.361v0.359c0,0.217,0.143,0.359,0.359,0.359h5.324C23.113,23.812,23.401,23.452,23.69,23.091
			L23.69,23.091z"/>
		<path id="XMLID_6_" fill="#FFFFFF" stroke="#000000" stroke-width="0.5" stroke-miterlimit="10" d="M20.164,12.155h4.892
			c0.647,0,1.15-0.504,1.15-1.152l0,0c0-0.647-0.503-1.149-1.15-1.149h-0.576c-0.287,0-0.576-0.289-0.576-0.576l0,0
			c0-0.721-0.574-1.297-1.294-1.297l0,0c-0.72,0-1.296,0.576-1.296,1.297l0,0c0,0.359-0.287,0.576-0.575,0.576h-0.575
			c-0.649,0-1.151,0.502-1.151,1.149l0,0C19.013,11.651,19.516,12.155,20.164,12.155L20.164,12.155z M22.61,8.773
			c0.288,0,0.575,0.289,0.575,0.576c0,0.289-0.287,0.506-0.575,0.506c-0.288,0-0.576-0.289-0.576-0.576
			C22.034,8.989,22.322,8.773,22.61,8.773L22.61,8.773z"/>
		<path id="XMLID_5_" fill="#FFFFFF" stroke="#000000" stroke-width="0.5" stroke-miterlimit="10" d="M17.502,26.474
			c-0.217,0-0.359,0.142-0.359,0.359v0.359c0,0.217,0.143,0.361,0.359,0.361h4.461c0-0.072,0-0.144,0-0.217
			c0-0.287,0-0.576,0.071-0.936h-4.532V26.474z"/>
		<path id="XMLID_4_" fill="#FFFFFF" stroke="#000000" stroke-width="0.5" stroke-miterlimit="10" d="M28.08,20.86v-0.359
			c0-0.215-0.147-0.359-0.363-0.359H17.502c-0.217,0-0.359,0.145-0.359,0.359v0.359c0,0.217,0.143,0.361,0.359,0.361h10.215
			C27.934,21.222,28.08,21.005,28.08,20.86L28.08,20.86z"/>
		<path id="XMLID_3_" fill="#FFFFFF" stroke="#000000" stroke-width="0.5" stroke-miterlimit="10" d="M15.99,29.854V14.745H29.23
			v6.691c0.648,0.145,1.294,0.361,1.87,0.721v-9.643c0-0.719-0.576-1.295-1.295-1.295h-2.877c-0.072,1.008-0.864,1.726-1.871,1.726
			h-4.965c-1.006,0-1.799-0.791-1.871-1.726h-2.877c-0.719,0-1.295,0.576-1.295,1.295v17.916c0,0.719,0.576,1.295,1.295,1.295h8.418
			c-0.576-0.504-1.008-1.15-1.368-1.871H15.99z"/>
		<path id="XMLID_2_" fill="#FFFFFF" stroke="#000000" stroke-width="0.5" stroke-miterlimit="10" d="M28.08,17.048
			c0-0.217-0.147-0.359-0.363-0.359H17.502c-0.217,0-0.359,0.143-0.359,0.359v0.361c0,0.215,0.143,0.359,0.359,0.359h10.215
			c0.217,0,0.363-0.145,0.363-0.359V17.048z"/>
	</g>
</g>
</svg>
