<?xml version="1.0" encoding="utf-8"?>
<!-- Generator: Adobe Illustrator 17.0.0, SVG Export Plug-In . SVG Version: 6.00 Build 0)  -->
<!DOCTYPE svg PUBLIC "-//W3C//DTD SVG 1.1//EN" "http://www.w3.org/Graphics/SVG/1.1/DTD/svg11.dtd" [
	<!ENTITY ns_extend "http://ns.adobe.com/Extensibility/1.0/">
	<!ENTITY ns_ai "http://ns.adobe.com/AdobeIllustrator/10.0/">
	<!ENTITY ns_graphs "http://ns.adobe.com/Graphs/1.0/">
	<!ENTITY ns_vars "http://ns.adobe.com/Variables/1.0/">
	<!ENTITY ns_imrep "http://ns.adobe.com/ImageReplacement/1.0/">
	<!ENTITY ns_sfw "http://ns.adobe.com/SaveForWeb/1.0/">
	<!ENTITY ns_custom "http://ns.adobe.com/GenericCustomNamespace/1.0/">
	<!ENTITY ns_adobe_xpath "http://ns.adobe.com/XPath/1.0/">
]>
<svg version="1.1" id="Capa_1" xmlns:x="&ns_extend;" xmlns:i="&ns_ai;" xmlns:graph="&ns_graphs;"
	 xmlns="http://www.w3.org/2000/svg" xmlns:xlink="http://www.w3.org/1999/xlink" x="0px" y="0px" width="247.638px"
	 height="58.139px" viewBox="0 0 247.638 58.139" enable-background="new 0 0 247.638 58.139" xml:space="preserve">
<metadata>
	<sfw  xmlns="&ns_sfw;">
		<slices></slices>
		<sliceSourceBounds  width="555.971" height="404.443" y="-416.037" x="7.862" bottomLeftOrigin="true"></sliceSourceBounds>
	</sfw>
</metadata>
<g>
	<polygon fill-rule="evenodd" clip-rule="evenodd" fill="#A8A7A7" points="233.61,58.139 247.638,40.354 237.212,20.186 
		233.61,20.188 	"/>
	<rect x="0" y="0" fill-rule="evenodd" clip-rule="evenodd" fill="#FFFFFF" width="247.638" height="40.354"/>
	<g opacity="0.5">
		<g>
			<defs>
				<rect id="SVGID_23_" x="0" y="40.824" width="233.61" height="7.17"/>
			</defs>
			<clipPath id="SVGID_2_">
				<use xlink:href="#SVGID_23_"  overflow="visible"/>
			</clipPath>
			<polygon clip-path="url(#SVGID_2_)" fill="#2F6982" points="233.61,47.994 0,40.824 233.61,40.824 			"/>
		</g>
	</g>
	<rect x="2.071" y="1.739" fill-rule="evenodd" clip-rule="evenodd" fill="#154A8C" width="243.495" height="36.875"/>
	<g>
		<g>
			<path fill="#FFFFFF" d="M46.334,25.559v-12.17h9.023v2.059h-6.566v2.698H54.9v2.05h-6.109v3.313h6.799v2.051H46.334z"/>
			<path fill="#FFFFFF" d="M60.441,16.742v1.859h-1.594v3.553c0,0.72,0.016,1.139,0.046,1.258s0.1,0.217,0.207,0.295
				c0.108,0.078,0.239,0.116,0.395,0.116c0.216,0,0.528-0.075,0.938-0.224l0.199,1.809c-0.543,0.232-1.157,0.35-1.844,0.35
				c-0.42,0-0.799-0.07-1.137-0.213c-0.338-0.141-0.585-0.322-0.743-0.547c-0.157-0.225-0.267-0.527-0.327-0.909
				c-0.051-0.271-0.075-0.819-0.075-1.644v-3.844h-1.071v-1.859h1.071v-1.751l2.341-1.361v3.112H60.441z"/>
			<path fill="#FFFFFF" d="M62.545,19.432l-2.117-0.381c0.238-0.853,0.648-1.483,1.229-1.893c0.582-0.41,1.445-0.615,2.59-0.615
				c1.041,0,1.815,0.123,2.324,0.369c0.51,0.247,0.867,0.56,1.076,0.939c0.207,0.379,0.311,1.074,0.311,2.087l-0.025,2.723
				c0,0.774,0.037,1.347,0.113,1.714c0.074,0.368,0.214,0.763,0.418,1.184h-2.307c-0.062-0.155-0.137-0.385-0.225-0.689
				c-0.039-0.139-0.066-0.229-0.083-0.273c-0.398,0.387-0.825,0.678-1.278,0.871s-0.938,0.291-1.453,0.291
				c-0.907,0-1.623-0.246-2.145-0.739c-0.523-0.493-0.785-1.115-0.785-1.868c0-0.498,0.119-0.941,0.357-1.332
				c0.237-0.391,0.57-0.689,1-0.896c0.429-0.207,1.047-0.389,1.855-0.543c1.09-0.205,1.846-0.396,2.266-0.573v-0.232
				c0-0.448-0.111-0.769-0.332-0.958c-0.221-0.191-0.639-0.287-1.254-0.287c-0.414,0-0.738,0.082-0.971,0.244
				C62.877,18.736,62.689,19.022,62.545,19.432z M65.666,21.324c-0.299,0.1-0.771,0.219-1.42,0.357
				c-0.646,0.139-1.07,0.273-1.27,0.406c-0.305,0.217-0.457,0.49-0.457,0.822c0,0.326,0.122,0.609,0.365,0.847
				c0.244,0.237,0.554,0.356,0.93,0.356c0.421,0,0.822-0.138,1.204-0.414c0.282-0.211,0.468-0.469,0.556-0.772
				c0.062-0.199,0.092-0.578,0.092-1.138V21.324z"/>
			<path fill="#FFFFFF" d="M68.932,16.742h2.176v1.295c0.281-0.442,0.664-0.802,1.145-1.078c0.482-0.277,1.016-0.416,1.603-0.416
				c1.024,0,1.893,0.402,2.606,1.204s1.07,1.921,1.07,3.354c0,1.472-0.359,2.616-1.078,3.433c-0.72,0.816-1.592,1.225-2.615,1.225
				c-0.486,0-0.928-0.098-1.324-0.291c-0.396-0.193-0.813-0.525-1.249-0.996v4.441h-2.333V16.742z M71.24,21.001
				c0,0.991,0.195,1.722,0.589,2.196c0.394,0.473,0.872,0.709,1.437,0.709c0.542,0,0.992-0.217,1.353-0.652
				c0.36-0.434,0.54-1.146,0.54-2.137c0-0.924-0.186-1.61-0.557-2.059s-0.83-0.672-1.378-0.672c-0.569,0-1.043,0.219-1.419,0.66
				C71.428,19.486,71.24,20.138,71.24,21.001z"/>
			<path fill="#FFFFFF" d="M79.867,19.432l-2.116-0.381c0.237-0.853,0.647-1.483,1.229-1.893c0.581-0.41,1.444-0.615,2.59-0.615
				c1.04,0,1.815,0.123,2.324,0.369c0.509,0.247,0.867,0.56,1.075,0.939c0.207,0.379,0.311,1.074,0.311,2.087l-0.024,2.723
				c0,0.774,0.037,1.347,0.112,1.714c0.074,0.368,0.215,0.763,0.419,1.184h-2.308c-0.061-0.155-0.136-0.385-0.225-0.689
				c-0.038-0.139-0.066-0.229-0.082-0.273c-0.398,0.387-0.825,0.678-1.279,0.871c-0.453,0.193-0.938,0.291-1.452,0.291
				c-0.907,0-1.623-0.246-2.146-0.739c-0.523-0.493-0.785-1.115-0.785-1.868c0-0.498,0.119-0.941,0.357-1.332s0.571-0.689,1-0.896
				c0.43-0.207,1.047-0.389,1.855-0.543c1.09-0.205,1.846-0.396,2.266-0.573v-0.232c0-0.448-0.11-0.769-0.332-0.958
				c-0.221-0.191-0.639-0.287-1.253-0.287c-0.415,0-0.739,0.082-0.972,0.244C80.199,18.736,80.012,19.022,79.867,19.432z
				 M82.988,21.324c-0.299,0.1-0.771,0.219-1.419,0.357s-1.071,0.273-1.271,0.406c-0.304,0.217-0.456,0.49-0.456,0.822
				c0,0.326,0.122,0.609,0.365,0.847s0.554,0.356,0.93,0.356c0.421,0,0.821-0.138,1.204-0.414c0.281-0.211,0.467-0.469,0.556-0.772
				c0.062-0.199,0.091-0.578,0.091-1.138V21.324z"/>
			<path fill="#FFFFFF" d="M85.5,23.043l2.34-0.357c0.1,0.454,0.303,0.799,0.606,1.033c0.304,0.236,0.73,0.354,1.278,0.354
				c0.604,0,1.057-0.111,1.361-0.332c0.205-0.154,0.307-0.362,0.307-0.623c0-0.177-0.055-0.323-0.166-0.439
				c-0.115-0.111-0.376-0.213-0.779-0.307c-1.882-0.416-3.074-0.795-3.578-1.138c-0.697-0.476-1.046-1.138-1.046-1.983
				c0-0.764,0.302-1.406,0.905-1.926c0.603-0.521,1.538-0.781,2.805-0.781c1.207,0,2.104,0.197,2.689,0.59
				c0.587,0.393,0.991,0.975,1.213,1.743l-2.2,0.407c-0.095-0.344-0.272-0.606-0.536-0.789c-0.262-0.183-0.637-0.273-1.124-0.273
				c-0.614,0-1.054,0.086-1.319,0.257c-0.178,0.122-0.266,0.279-0.266,0.474c0,0.166,0.077,0.307,0.232,0.423
				c0.21,0.155,0.936,0.374,2.178,0.655c1.243,0.283,2.11,0.629,2.604,1.038c0.486,0.415,0.73,0.993,0.73,1.735
				c0,0.808-0.338,1.502-1.014,2.083c-0.675,0.581-1.674,0.872-2.996,0.872c-1.201,0-2.151-0.244-2.852-0.73
				C86.174,24.54,85.715,23.879,85.5,23.043z"/>
			<path fill="#FFFFFF" d="M97.916,16.742h2.176v1.295c0.281-0.442,0.664-0.802,1.145-1.078c0.482-0.277,1.016-0.416,1.603-0.416
				c1.024,0,1.893,0.402,2.606,1.204s1.07,1.921,1.07,3.354c0,1.472-0.359,2.616-1.078,3.433c-0.72,0.816-1.592,1.225-2.615,1.225
				c-0.486,0-0.928-0.098-1.324-0.291c-0.396-0.193-0.813-0.525-1.249-0.996v4.441h-2.333V16.742z M100.225,21.001
				c0,0.991,0.195,1.722,0.589,2.196c0.394,0.473,0.872,0.709,1.437,0.709c0.542,0,0.992-0.217,1.353-0.652
				c0.36-0.434,0.54-1.146,0.54-2.137c0-0.924-0.186-1.61-0.557-2.059s-0.83-0.672-1.378-0.672c-0.569,0-1.043,0.219-1.419,0.66
				C100.412,19.486,100.225,20.138,100.225,21.001z"/>
			<path fill="#FFFFFF" d="M108.853,19.432l-2.116-0.381c0.237-0.853,0.646-1.483,1.229-1.893c0.58-0.41,1.443-0.615,2.59-0.615
				c1.04,0,1.814,0.123,2.324,0.369c0.509,0.247,0.867,0.56,1.074,0.939c0.207,0.379,0.312,1.074,0.312,2.087l-0.024,2.723
				c0,0.774,0.037,1.347,0.111,1.714c0.074,0.368,0.215,0.763,0.42,1.184h-2.309c-0.061-0.155-0.135-0.385-0.224-0.689
				c-0.038-0.139-0.066-0.229-0.083-0.273c-0.398,0.387-0.824,0.678-1.278,0.871s-0.938,0.291-1.452,0.291
				c-0.908,0-1.623-0.246-2.146-0.739s-0.784-1.115-0.784-1.868c0-0.498,0.119-0.941,0.356-1.332c0.238-0.391,0.572-0.689,1-0.896
				c0.43-0.207,1.048-0.389,1.855-0.543c1.091-0.205,1.846-0.396,2.267-0.573v-0.232c0-0.448-0.11-0.769-0.332-0.958
				c-0.222-0.191-0.64-0.287-1.253-0.287c-0.416,0-0.739,0.082-0.972,0.244C109.185,18.736,108.996,19.022,108.853,19.432z
				 M111.974,21.324c-0.299,0.1-0.772,0.219-1.419,0.357c-0.648,0.139-1.071,0.273-1.271,0.406c-0.304,0.217-0.456,0.49-0.456,0.822
				c0,0.326,0.121,0.609,0.365,0.847c0.243,0.237,0.553,0.356,0.93,0.356c0.42,0,0.821-0.138,1.203-0.414
				c0.282-0.211,0.468-0.469,0.557-0.772c0.061-0.199,0.091-0.578,0.091-1.138V21.324z"/>
			<path fill="#FFFFFF" d="M117.539,25.559h-2.332v-8.816h2.166v1.254c0.371-0.592,0.704-0.982,1-1.17
				c0.297-0.188,0.633-0.283,1.009-0.283c0.531,0,1.043,0.146,1.536,0.44l-0.723,2.034c-0.393-0.255-0.758-0.383-1.096-0.383
				c-0.326,0-0.604,0.09-0.83,0.27c-0.227,0.181-0.405,0.506-0.535,0.977c-0.131,0.47-0.195,1.455-0.195,2.955V25.559z"/>
			<path fill="#FFFFFF" d="M122.406,19.432l-2.116-0.381c0.237-0.853,0.647-1.483,1.229-1.893c0.581-0.41,1.444-0.615,2.59-0.615
				c1.04,0,1.815,0.123,2.324,0.369c0.509,0.247,0.867,0.56,1.075,0.939c0.207,0.379,0.311,1.074,0.311,2.087l-0.024,2.723
				c0,0.774,0.037,1.347,0.112,1.714c0.074,0.368,0.215,0.763,0.419,1.184h-2.308c-0.061-0.155-0.136-0.385-0.225-0.689
				c-0.038-0.139-0.066-0.229-0.082-0.273c-0.398,0.387-0.825,0.678-1.279,0.871c-0.453,0.193-0.938,0.291-1.452,0.291
				c-0.907,0-1.623-0.246-2.146-0.739c-0.523-0.493-0.785-1.115-0.785-1.868c0-0.498,0.119-0.941,0.357-1.332s0.571-0.689,1-0.896
				c0.43-0.207,1.047-0.389,1.855-0.543c1.09-0.205,1.846-0.396,2.266-0.573v-0.232c0-0.448-0.11-0.769-0.332-0.958
				c-0.221-0.191-0.639-0.287-1.253-0.287c-0.415,0-0.739,0.082-0.972,0.244C122.738,18.736,122.551,19.022,122.406,19.432z
				 M125.527,21.324c-0.299,0.1-0.771,0.219-1.419,0.357s-1.071,0.273-1.271,0.406c-0.304,0.217-0.456,0.49-0.456,0.822
				c0,0.326,0.122,0.609,0.365,0.847s0.554,0.356,0.93,0.356c0.421,0,0.821-0.138,1.204-0.414c0.281-0.211,0.467-0.469,0.556-0.772
				c0.062-0.199,0.091-0.578,0.091-1.138V21.324z"/>
			<path fill="#FFFFFF" d="M137.43,22.752l2.324,0.391c-0.299,0.852-0.77,1.501-1.414,1.947c-0.646,0.445-1.452,0.668-2.42,0.668
				c-1.533,0-2.668-0.502-3.404-1.503c-0.58-0.802-0.871-1.815-0.871-3.038c0-1.461,0.382-2.605,1.146-3.432
				c0.764-0.828,1.729-1.242,2.897-1.242c1.311,0,2.346,0.434,3.104,1.299c0.759,0.867,1.121,2.193,1.088,3.98h-5.844
				c0.017,0.692,0.205,1.23,0.564,1.615s0.809,0.576,1.345,0.576c0.365,0,0.673-0.1,0.921-0.299
				C137.115,23.516,137.303,23.195,137.43,22.752z M137.563,20.395c-0.016-0.675-0.19-1.188-0.522-1.539s-0.735-0.527-1.212-0.527
				c-0.51,0-0.93,0.186-1.262,0.557c-0.332,0.37-0.495,0.874-0.49,1.51H137.563z"/>
			<path fill="#FFFFFF" d="M139.7,23.043l2.341-0.357c0.1,0.454,0.302,0.799,0.605,1.033c0.305,0.236,0.73,0.354,1.279,0.354
				c0.603,0,1.057-0.111,1.361-0.332c0.204-0.154,0.307-0.362,0.307-0.623c0-0.177-0.055-0.323-0.166-0.439
				c-0.116-0.111-0.377-0.213-0.78-0.307c-1.882-0.416-3.074-0.795-3.577-1.138c-0.697-0.476-1.047-1.138-1.047-1.983
				c0-0.764,0.303-1.406,0.905-1.926c0.603-0.521,1.538-0.781,2.806-0.781c1.207,0,2.104,0.197,2.689,0.59s0.99,0.975,1.212,1.743
				l-2.2,0.407c-0.094-0.344-0.271-0.606-0.535-0.789c-0.263-0.183-0.638-0.273-1.125-0.273c-0.613,0-1.054,0.086-1.319,0.257
				c-0.177,0.122-0.266,0.279-0.266,0.474c0,0.166,0.077,0.307,0.232,0.423c0.21,0.155,0.937,0.374,2.179,0.655
				c1.242,0.283,2.109,0.629,2.603,1.038c0.487,0.415,0.73,0.993,0.73,1.735c0,0.808-0.337,1.502-1.013,2.083
				s-1.674,0.872-2.996,0.872c-1.201,0-2.152-0.244-2.852-0.73C140.374,24.54,139.916,23.879,139.7,23.043z"/>
			<path fill="#FFFFFF" d="M148.652,16.742h2.175v1.295c0.282-0.442,0.664-0.802,1.146-1.078c0.481-0.277,1.016-0.416,1.602-0.416
				c1.024,0,1.893,0.402,2.607,1.204c0.713,0.802,1.07,1.921,1.07,3.354c0,1.472-0.359,2.616-1.079,3.433s-1.591,1.225-2.614,1.225
				c-0.487,0-0.929-0.098-1.324-0.291c-0.396-0.193-0.813-0.525-1.25-0.996v4.441h-2.332V16.742z M150.96,21.001
				c0,0.991,0.196,1.722,0.589,2.196c0.394,0.473,0.872,0.709,1.437,0.709c0.542,0,0.993-0.217,1.353-0.652
				c0.36-0.434,0.54-1.146,0.54-2.137c0-0.924-0.186-1.61-0.556-2.059c-0.371-0.448-0.83-0.672-1.379-0.672
				c-0.569,0-1.043,0.219-1.419,0.66C151.148,19.486,150.96,20.138,150.96,21.001z"/>
			<path fill="#FFFFFF" d="M162.949,22.752l2.324,0.391c-0.299,0.852-0.77,1.501-1.414,1.947c-0.646,0.445-1.452,0.668-2.42,0.668
				c-1.533,0-2.668-0.502-3.404-1.503c-0.58-0.802-0.871-1.815-0.871-3.038c0-1.461,0.382-2.605,1.146-3.432
				c0.764-0.828,1.729-1.242,2.897-1.242c1.311,0,2.346,0.434,3.104,1.299c0.759,0.867,1.121,2.193,1.088,3.98h-5.844
				c0.017,0.692,0.205,1.23,0.564,1.615s0.809,0.576,1.345,0.576c0.365,0,0.673-0.1,0.921-0.299
				C162.635,23.516,162.822,23.195,162.949,22.752z M163.082,20.395c-0.016-0.675-0.19-1.188-0.522-1.539s-0.735-0.527-1.212-0.527
				c-0.51,0-0.93,0.186-1.262,0.557c-0.332,0.37-0.495,0.874-0.49,1.51H163.082z"/>
			<path fill="#FFFFFF" d="M173.729,19.35l-2.3,0.414c-0.077-0.459-0.253-0.805-0.527-1.037c-0.273-0.232-0.63-0.349-1.066-0.349
				c-0.581,0-1.044,0.2-1.391,0.603c-0.346,0.4-0.519,1.071-0.519,2.012c0,1.047,0.176,1.785,0.527,2.217s0.822,0.647,1.415,0.647
				c0.442,0,0.806-0.126,1.087-0.378c0.283-0.252,0.482-0.685,0.598-1.299l2.291,0.391c-0.237,1.051-0.693,1.846-1.369,2.382
				s-1.58,0.806-2.715,0.806c-1.289,0-2.316-0.407-3.083-1.221s-1.149-1.939-1.149-3.379c0-1.455,0.385-2.588,1.153-3.398
				s1.81-1.217,3.121-1.217c1.073,0,1.927,0.231,2.561,0.693C172.996,17.699,173.451,18.402,173.729,19.35z"/>
			<path fill="#FFFFFF" d="M174.238,15.547v-2.158h2.332v2.158H174.238z M174.238,25.559v-8.816h2.332v8.816H174.238z"/>
			<path fill="#FFFFFF" d="M176.682,16.742h1.295v-0.664c0-0.741,0.08-1.295,0.236-1.66c0.158-0.365,0.449-0.662,0.873-0.893
				c0.422-0.229,0.958-0.344,1.605-0.344c0.664,0,1.314,0.1,1.951,0.299l-0.316,1.627c-0.37-0.088-0.727-0.133-1.07-0.133
				c-0.338,0-0.58,0.078-0.727,0.236s-0.22,0.461-0.22,0.909v0.622h1.743v1.835h-1.743v6.981h-2.333v-6.981h-1.295V16.742z"/>
			<path fill="#FFFFFF" d="M182.106,25.559v-2.333h2.333v2.333H182.106z"/>
		</g>
	</g>
	<g>
		<path fill="#FFFFFF" stroke="#000000" stroke-width="0.5" stroke-miterlimit="10" d="M30.406,23.422
			c-0.973,0-1.864,0.33-2.581,0.879l-7.389-4.43c0.038-0.226,0.063-0.457,0.063-0.695s-0.025-0.469-0.063-0.695l7.389-4.432
			c0.717,0.551,1.608,0.881,2.581,0.881c2.346,0,4.247-1.9,4.247-4.246s-1.901-4.246-4.247-4.246c-2.345,0-4.246,1.9-4.246,4.246
			c0,0.236,0.026,0.469,0.061,0.695l-7.386,4.432c-0.717-0.549-1.608-0.881-2.58-0.881c-2.347,0-4.248,1.898-4.248,4.246
			c0,2.344,1.901,4.246,4.248,4.246c0.972,0,1.863-0.332,2.58-0.881l7.386,4.432c-0.034,0.227-0.061,0.459-0.061,0.693
			c0,2.346,1.901,4.248,4.246,4.248c2.346,0,4.247-1.902,4.247-4.248C34.653,25.322,32.752,23.422,30.406,23.422z"/>
	</g>
</g>
</svg>
