<?xml version="1.0" encoding="utf-8"?>
<!-- Generator: Adobe Illustrator 17.0.0, SVG Export Plug-In . SVG Version: 6.00 Build 0)  -->
<!DOCTYPE svg PUBLIC "-//W3C//DTD SVG 1.1//EN" "http://www.w3.org/Graphics/SVG/1.1/DTD/svg11.dtd" [
	<!ENTITY ns_extend "http://ns.adobe.com/Extensibility/1.0/">
	<!ENTITY ns_ai "http://ns.adobe.com/AdobeIllustrator/10.0/">
	<!ENTITY ns_graphs "http://ns.adobe.com/Graphs/1.0/">
	<!ENTITY ns_vars "http://ns.adobe.com/Variables/1.0/">
	<!ENTITY ns_imrep "http://ns.adobe.com/ImageReplacement/1.0/">
	<!ENTITY ns_sfw "http://ns.adobe.com/SaveForWeb/1.0/">
	<!ENTITY ns_custom "http://ns.adobe.com/GenericCustomNamespace/1.0/">
	<!ENTITY ns_adobe_xpath "http://ns.adobe.com/XPath/1.0/">
]>
<svg version="1.1" id="Capa_1" xmlns:x="&ns_extend;" xmlns:i="&ns_ai;" xmlns:graph="&ns_graphs;"
	 xmlns="http://www.w3.org/2000/svg" xmlns:xlink="http://www.w3.org/1999/xlink" x="0px" y="0px" width="247.638px"
	 height="58.139px" viewBox="0 0 247.638 58.139" enable-background="new 0 0 247.638 58.139" xml:space="preserve">
<metadata>
	<sfw  xmlns="&ns_sfw;">
		<slices></slices>
		<sliceSourceBounds  width="555.971" height="404.443" y="-416.037" x="7.862" bottomLeftOrigin="true"></sliceSourceBounds>
	</sfw>
</metadata>
<g>
	<g opacity="0.5">
		<g>
			<defs>
				<rect id="SVGID_17_" x="0" y="40.354" width="233.61" height="7.17"/>
			</defs>
			<clipPath id="SVGID_2_">
				<use xlink:href="#SVGID_17_"  overflow="visible"/>
			</clipPath>
			<polygon clip-path="url(#SVGID_2_)" fill="#2F6982" points="233.61,47.523 0,40.354 233.61,40.354 			"/>
		</g>
	</g>
	<polygon fill-rule="evenodd" clip-rule="evenodd" fill="#A8A7A7" points="233.61,58.139 247.638,40.354 237.212,20.184 
		233.61,20.185 	"/>
	<rect x="0" y="0" fill-rule="evenodd" clip-rule="evenodd" fill="#FFFFFF" width="247.638" height="40.354"/>
	<rect x="2.071" y="1.738" fill-rule="evenodd" clip-rule="evenodd" fill="#154A8C" width="243.495" height="36.875"/>
	<g>
		<path fill="#FFFFFF" d="M46.26,27.308V15.139h2.457v12.169H46.26z"/>
		<path fill="#FFFFFF" d="M57.802,27.308h-2.333v-4.499c0-0.952-0.049-1.567-0.148-1.847c-0.1-0.28-0.262-0.497-0.486-0.652
			s-0.494-0.232-0.809-0.232c-0.404,0-0.768,0.111-1.088,0.332s-0.541,0.515-0.66,0.88S52.1,22.331,52.1,23.315v3.993h-2.333v-8.815
			h2.167v1.295c0.769-0.996,1.737-1.494,2.904-1.494c0.516,0,0.985,0.093,1.412,0.278c0.426,0.185,0.748,0.422,0.967,0.709
			s0.371,0.614,0.457,0.979c0.085,0.365,0.128,0.888,0.128,1.569V27.308z"/>
		<path fill="#FFFFFF" d="M62.951,18.493v1.859h-1.594v3.553c0,0.719,0.016,1.139,0.047,1.258c0.029,0.119,0.1,0.217,0.207,0.294
			s0.239,0.116,0.395,0.116c0.215,0,0.527-0.075,0.938-0.224l0.199,1.81c-0.543,0.232-1.156,0.349-1.843,0.349
			c-0.421,0-0.8-0.07-1.138-0.212c-0.337-0.141-0.584-0.323-0.742-0.548c-0.158-0.224-0.268-0.527-0.328-0.909
			c-0.05-0.271-0.074-0.819-0.074-1.644v-3.843h-1.071v-1.859h1.071v-1.751l2.34-1.361v3.113H62.951z"/>
		<path fill="#FFFFFF" d="M65.545,27.308h-2.332v-8.815h2.166v1.253c0.371-0.592,0.705-0.982,1-1.17
			c0.297-0.188,0.633-0.282,1.01-0.282c0.531,0,1.043,0.146,1.535,0.44l-0.723,2.034c-0.393-0.254-0.758-0.382-1.096-0.382
			c-0.326,0-0.603,0.09-0.83,0.27c-0.227,0.18-0.404,0.505-0.535,0.976c-0.13,0.47-0.195,1.456-0.195,2.955V27.308z"/>
		<path fill="#FFFFFF" d="M68.131,22.776c0-0.775,0.19-1.524,0.572-2.25s0.923-1.278,1.623-1.66
			c0.699-0.382,1.481-0.573,2.345-0.573c1.333,0,2.427,0.433,3.278,1.299c0.853,0.866,1.279,1.96,1.279,3.283
			c0,1.333-0.431,2.439-1.291,3.316c-0.861,0.877-1.943,1.315-3.25,1.315c-0.809,0-1.578-0.183-2.313-0.548
			c-0.732-0.365-1.29-0.9-1.672-1.606C68.321,24.648,68.131,23.789,68.131,22.776z M70.522,22.9c0,0.875,0.207,1.544,0.622,2.009
			s0.927,0.697,1.536,0.697c0.608,0,1.119-0.232,1.531-0.697s0.618-1.14,0.618-2.025c0-0.863-0.206-1.527-0.618-1.992
			s-0.923-0.697-1.531-0.697c-0.609,0-1.121,0.232-1.536,0.697S70.522,22.026,70.522,22.9z"/>
		<path fill="#FFFFFF" d="M85.881,27.308h-2.166v-1.295c-0.359,0.503-0.784,0.878-1.274,1.125c-0.489,0.246-0.983,0.369-1.481,0.369
			c-1.013,0-1.88-0.408-2.603-1.225c-0.722-0.816-1.083-1.955-1.083-3.416c0-1.494,0.352-2.63,1.055-3.408
			c0.702-0.777,1.59-1.166,2.664-1.166c0.984,0,1.838,0.41,2.557,1.229v-4.383h2.332V27.308z M79.656,22.709
			c0,0.941,0.129,1.622,0.39,2.042c0.376,0.609,0.901,0.913,1.577,0.913c0.537,0,0.993-0.229,1.369-0.685
			c0.377-0.457,0.564-1.139,0.564-2.046c0-1.013-0.182-1.742-0.547-2.187c-0.365-0.446-0.834-0.668-1.403-0.668
			c-0.554,0-1.017,0.22-1.391,0.66C79.843,21.178,79.656,21.835,79.656,22.709z"/>
		<path fill="#FFFFFF" d="M92.725,27.308v-1.32c-0.32,0.47-0.742,0.841-1.266,1.112s-1.074,0.407-1.656,0.407
			c-0.592,0-1.123-0.13-1.594-0.39c-0.47-0.26-0.811-0.625-1.021-1.096s-0.315-1.121-0.315-1.951v-5.578h2.332v4.051
			c0,1.24,0.043,1.999,0.129,2.278c0.086,0.28,0.242,0.501,0.469,0.664c0.228,0.164,0.516,0.245,0.863,0.245
			c0.398,0,0.756-0.109,1.071-0.328c0.315-0.218,0.531-0.489,0.647-0.813c0.116-0.323,0.174-1.116,0.174-2.378v-3.719h2.333v8.815
			H92.725z"/>
		<path fill="#FFFFFF" d="M103.735,21.099l-2.3,0.415c-0.077-0.459-0.252-0.805-0.527-1.038c-0.273-0.232-0.629-0.349-1.066-0.349
			c-0.58,0-1.044,0.201-1.391,0.602c-0.346,0.401-0.518,1.072-0.518,2.013c0,1.046,0.176,1.785,0.527,2.216
			c0.351,0.432,0.822,0.647,1.414,0.647c0.443,0,0.806-0.126,1.088-0.377c0.282-0.252,0.481-0.685,0.598-1.299l2.291,0.39
			c-0.238,1.051-0.694,1.846-1.369,2.382c-0.676,0.537-1.58,0.805-2.715,0.805c-1.289,0-2.317-0.407-3.084-1.22
			c-0.766-0.813-1.149-1.939-1.149-3.378c0-1.456,0.385-2.588,1.153-3.399c0.77-0.811,1.811-1.216,3.121-1.216
			c1.074,0,1.928,0.231,2.561,0.693C103.004,19.449,103.459,20.153,103.735,21.099z"/>
		<path fill="#FFFFFF" d="M111.932,21.099l-2.299,0.415c-0.078-0.459-0.253-0.805-0.527-1.038c-0.273-0.232-0.629-0.349-1.066-0.349
			c-0.581,0-1.045,0.201-1.391,0.602c-0.346,0.401-0.519,1.072-0.519,2.013c0,1.046,0.176,1.785,0.527,2.216
			c0.351,0.432,0.823,0.647,1.415,0.647c0.443,0,0.805-0.126,1.088-0.377c0.281-0.252,0.48-0.685,0.598-1.299l2.291,0.39
			c-0.238,1.051-0.695,1.846-1.37,2.382s-1.58,0.805-2.714,0.805c-1.29,0-2.318-0.407-3.084-1.22
			c-0.767-0.813-1.15-1.939-1.15-3.378c0-1.456,0.385-2.588,1.154-3.399c0.77-0.811,1.81-1.216,3.121-1.216
			c1.074,0,1.928,0.231,2.561,0.693C111.2,19.449,111.655,20.153,111.932,21.099z"/>
		<path fill="#FFFFFF" d="M112.442,17.297v-2.158h2.333v2.158H112.442z M112.442,27.308v-8.815h2.333v8.815H112.442z"/>
		<path fill="#FFFFFF" d="M115.367,22.776c0-0.775,0.191-1.524,0.573-2.25s0.923-1.278,1.622-1.66
			c0.701-0.382,1.482-0.573,2.346-0.573c1.334,0,2.427,0.433,3.279,1.299c0.852,0.866,1.277,1.96,1.277,3.283
			c0,1.333-0.43,2.439-1.291,3.316c-0.859,0.877-1.943,1.315-3.249,1.315c-0.808,0-1.579-0.183-2.312-0.548
			c-0.733-0.365-1.291-0.9-1.673-1.606C115.559,24.648,115.367,23.789,115.367,22.776z M117.758,22.9
			c0,0.875,0.208,1.544,0.623,2.009s0.927,0.697,1.535,0.697c0.609,0,1.119-0.232,1.531-0.697c0.413-0.465,0.619-1.14,0.619-2.025
			c0-0.863-0.206-1.527-0.619-1.992c-0.412-0.465-0.922-0.697-1.531-0.697c-0.608,0-1.12,0.232-1.535,0.697
			S117.758,22.026,117.758,22.9z M118.738,17.414l1.145-2.482h2.615l-2.283,2.482H118.738z"/>
		<path fill="#FFFFFF" d="M133.053,27.308h-2.333v-4.499c0-0.952-0.05-1.567-0.149-1.847c-0.1-0.28-0.262-0.497-0.485-0.652
			c-0.225-0.155-0.494-0.232-0.81-0.232c-0.404,0-0.767,0.111-1.088,0.332c-0.32,0.221-0.541,0.515-0.659,0.88
			c-0.119,0.365-0.179,1.041-0.179,2.025v3.993h-2.332v-8.815h2.166v1.295c0.77-0.996,1.738-1.494,2.905-1.494
			c0.515,0,0.985,0.093,1.411,0.278c0.426,0.185,0.748,0.422,0.967,0.709s0.371,0.614,0.457,0.979s0.129,0.888,0.129,1.569V27.308z"
			/>
	</g>
	<g>
		<path fill-rule="evenodd" clip-rule="evenodd" fill="#FFFFFF" stroke="#000000" stroke-width="0.5" stroke-miterlimit="10" d="
			M23.586,11.281L23.586,11.281c-4.636,0-8.34,3.523-8.34,7.971c0,2.785,1.478,5.186,3.334,6.67c0.551,0.383,1.111,0.752,1.66,1.123
			h-0.371V32.6h1.674c0.19,0.744,1.109,1.305,2.043,1.305c0.742,0,1.661-0.561,1.852-1.305h1.66v-5.555h-0.549
			c0.743-0.371,1.115-0.74,1.674-1.123c2.033-1.484,3.334-3.885,3.334-6.67C31.557,14.805,27.84,11.281,23.586,11.281L23.586,11.281
			z"/>
		
			<polygon fill-rule="evenodd" clip-rule="evenodd" fill="#FFFFFF" stroke="#000000" stroke-width="0.5" stroke-miterlimit="10" points="
			34.331,11.648 34.331,11.648 30.817,13.693 31.368,14.615 34.891,12.582 		"/>
		
			<polygon fill-rule="evenodd" clip-rule="evenodd" fill="#FFFFFF" stroke="#000000" stroke-width="0.5" stroke-miterlimit="10" points="
			29.514,7.203 29.514,7.203 27.469,10.717 28.223,11.09 30.256,7.756 		"/>
		
			<polygon fill-rule="evenodd" clip-rule="evenodd" fill="#FFFFFF" stroke="#000000" stroke-width="0.5" stroke-miterlimit="10" points="
			10.606,19.072 10.606,19.072 14.682,19.072 14.682,18.139 10.606,18.139 		"/>
		
			<polygon fill-rule="evenodd" clip-rule="evenodd" fill="#FFFFFF" stroke="#000000" stroke-width="0.5" stroke-miterlimit="10" points="
			11.897,12.582 11.897,12.582 15.614,14.615 15.984,13.693 12.639,11.648 		"/>
		
			<polygon fill-rule="evenodd" clip-rule="evenodd" fill="#FFFFFF" stroke="#000000" stroke-width="0.5" stroke-miterlimit="10" points="
			16.725,7.756 16.725,7.756 18.58,11.09 19.498,10.717 17.468,7.203 		"/>
		
			<polygon fill-rule="evenodd" clip-rule="evenodd" fill="#FFFFFF" stroke="#000000" stroke-width="0.5" stroke-miterlimit="10" points="
			22.844,5.721 22.844,5.721 22.844,9.604 23.959,9.604 23.959,5.721 		"/>
		<path fill-rule="evenodd" clip-rule="evenodd" fill="#FFFFFF" stroke="#000000" stroke-width="0.5" stroke-miterlimit="10" d="
			M23.586,22.775L23.586,22.775c-0.742,0-1.301,0.551-1.301,1.111c0,0.551,0.559,1.113,1.301,1.113c0.549,0,0.921-0.563,0.921-1.113
			C24.507,23.326,24.135,22.775,23.586,22.775L23.586,22.775z"/>
		<path fill-rule="evenodd" clip-rule="evenodd" fill="#FFFFFF" stroke="#000000" stroke-width="0.5" stroke-miterlimit="10" d="
			M23.586,14.615L23.586,14.615c-0.934,0-1.48,1.674-1.48,3.895s0.547,3.898,1.48,3.898c0.742,0,1.291-1.678,1.291-3.898
			S24.328,14.615,23.586,14.615L23.586,14.615z"/>
		
			<polygon fill-rule="evenodd" clip-rule="evenodd" fill="#FFFFFF" stroke="#000000" stroke-width="0.5" stroke-miterlimit="10" points="
			36.374,18.139 36.374,18.139 32.299,18.139 32.299,19.072 36.374,19.072 		"/>
		
			<polygon fill-rule="evenodd" clip-rule="evenodd" fill="#FFFFFF" stroke="#000000" stroke-width="0.5" stroke-miterlimit="10" points="
			20.608,28.156 20.608,28.156 20.608,29.266 26.357,29.266 26.357,28.156 		"/>
		
			<polygon fill-rule="evenodd" clip-rule="evenodd" fill="#FFFFFF" stroke="#000000" stroke-width="0.5" stroke-miterlimit="10" points="
			20.608,30.185 20.608,30.185 20.608,31.297 26.357,31.297 26.357,30.185 		"/>
	</g>
</g>
</svg>
