<?xml version="1.0" encoding="utf-8"?>
<!-- Generator: Adobe Illustrator 17.0.0, SVG Export Plug-In . SVG Version: 6.00 Build 0)  -->
<!DOCTYPE svg PUBLIC "-//W3C//DTD SVG 1.1//EN" "http://www.w3.org/Graphics/SVG/1.1/DTD/svg11.dtd" [
	<!ENTITY ns_extend "http://ns.adobe.com/Extensibility/1.0/">
	<!ENTITY ns_ai "http://ns.adobe.com/AdobeIllustrator/10.0/">
	<!ENTITY ns_graphs "http://ns.adobe.com/Graphs/1.0/">
	<!ENTITY ns_vars "http://ns.adobe.com/Variables/1.0/">
	<!ENTITY ns_imrep "http://ns.adobe.com/ImageReplacement/1.0/">
	<!ENTITY ns_sfw "http://ns.adobe.com/SaveForWeb/1.0/">
	<!ENTITY ns_custom "http://ns.adobe.com/GenericCustomNamespace/1.0/">
	<!ENTITY ns_adobe_xpath "http://ns.adobe.com/XPath/1.0/">
]>
<svg version="1.1" id="Capa_1" xmlns:x="&ns_extend;" xmlns:i="&ns_ai;" xmlns:graph="&ns_graphs;"
	 xmlns="http://www.w3.org/2000/svg" xmlns:xlink="http://www.w3.org/1999/xlink" x="0px" y="0px" width="247.638px"
	 height="58.139px" viewBox="0 0 247.638 58.139" enable-background="new 0 0 247.638 58.139" xml:space="preserve">
<metadata>
	<sfw  xmlns="&ns_sfw;">
		<slices></slices>
		<sliceSourceBounds  width="555.971" height="404.443" y="-416.037" x="7.862" bottomLeftOrigin="true"></sliceSourceBounds>
	</sfw>
</metadata>
<g>
	<g opacity="0.5">
		<g>
			<defs>
				<rect id="SVGID_1_" x="0" y="40.354" width="233.61" height="7.17"/>
			</defs>
			<clipPath id="SVGID_2_">
				<use xlink:href="#SVGID_1_"  overflow="visible"/>
			</clipPath>
			<polygon clip-path="url(#SVGID_2_)" fill="#2F6982" points="233.61,47.523 0,40.354 233.61,40.354 			"/>
		</g>
	</g>
	<polygon fill-rule="evenodd" clip-rule="evenodd" fill="#A8A7A7" points="233.61,58.139 247.638,40.354 237.212,20.184 
		233.61,20.185 	"/>
	<rect x="0" y="0" fill-rule="evenodd" clip-rule="evenodd" fill="#FFFFFF" width="247.638" height="40.354"/>
	<g>
		<g>
			<path d="M46.26,27.308V15.139h2.457v12.169H46.26z"/>
			<path d="M57.802,27.308h-2.333v-4.499c0-0.952-0.05-1.567-0.149-1.847c-0.1-0.28-0.262-0.497-0.485-0.652
				c-0.225-0.155-0.494-0.232-0.81-0.232c-0.404,0-0.767,0.111-1.087,0.332s-0.541,0.515-0.66,0.88
				c-0.119,0.365-0.179,1.041-0.179,2.025v3.993h-2.333v-8.815h2.167v1.295c0.769-0.996,1.738-1.494,2.905-1.494
				c0.515,0,0.985,0.093,1.411,0.278c0.426,0.185,0.749,0.422,0.967,0.709c0.219,0.288,0.371,0.614,0.457,0.979
				c0.085,0.365,0.128,0.888,0.128,1.569V27.308z"/>
			<path d="M62.952,18.493v1.859h-1.594v3.553c0,0.719,0.015,1.139,0.046,1.258c0.03,0.119,0.1,0.217,0.207,0.294
				c0.108,0.078,0.24,0.116,0.395,0.116c0.216,0,0.528-0.075,0.938-0.224l0.199,1.81c-0.542,0.232-1.157,0.349-1.843,0.349
				c-0.42,0-0.8-0.07-1.137-0.212c-0.337-0.141-0.585-0.323-0.743-0.548c-0.157-0.224-0.267-0.527-0.328-0.909
				c-0.05-0.271-0.075-0.819-0.075-1.644v-3.843h-1.071v-1.859h1.071v-1.751l2.341-1.361v3.113H62.952z"/>
			<path d="M65.545,27.308h-2.333v-8.815h2.167v1.253c0.371-0.592,0.704-0.982,1-1.17c0.296-0.188,0.632-0.282,1.009-0.282
				c0.531,0,1.043,0.146,1.536,0.44l-0.722,2.034c-0.393-0.254-0.758-0.382-1.096-0.382c-0.327,0-0.603,0.09-0.83,0.27
				c-0.227,0.18-0.405,0.505-0.535,0.976c-0.13,0.47-0.195,1.456-0.195,2.955V27.308z"/>
			<path d="M68.13,22.776c0-0.775,0.191-1.524,0.573-2.25s0.923-1.278,1.623-1.66c0.7-0.382,1.482-0.573,2.345-0.573
				c1.333,0,2.427,0.433,3.279,1.299c0.852,0.866,1.278,1.96,1.278,3.283c0,1.333-0.43,2.439-1.291,3.316
				c-0.86,0.877-1.943,1.315-3.25,1.315c-0.808,0-1.579-0.183-2.312-0.548c-0.733-0.365-1.291-0.9-1.672-1.606
				C68.321,24.648,68.13,23.789,68.13,22.776z M70.521,22.9c0,0.875,0.208,1.544,0.623,2.009s0.927,0.697,1.536,0.697
				s1.119-0.232,1.531-0.697c0.413-0.465,0.619-1.14,0.619-2.025c0-0.863-0.206-1.527-0.619-1.992
				c-0.412-0.465-0.922-0.697-1.531-0.697s-1.121,0.232-1.536,0.697S70.521,22.026,70.521,22.9z"/>
			<path d="M85.881,27.308h-2.167v-1.295c-0.36,0.503-0.784,0.878-1.274,1.125c-0.489,0.246-0.983,0.369-1.481,0.369
				c-1.013,0-1.88-0.408-2.603-1.225c-0.722-0.816-1.083-1.955-1.083-3.416c0-1.494,0.352-2.63,1.054-3.408
				c0.703-0.777,1.591-1.166,2.665-1.166c0.985,0,1.837,0.41,2.557,1.229v-4.383h2.333V27.308z M79.656,22.709
				c0,0.941,0.13,1.622,0.39,2.042c0.376,0.609,0.902,0.913,1.577,0.913c0.537,0,0.993-0.229,1.37-0.685
				c0.376-0.457,0.564-1.139,0.564-2.046c0-1.013-0.183-1.742-0.548-2.187c-0.365-0.446-0.833-0.668-1.403-0.668
				c-0.553,0-1.017,0.22-1.391,0.66C79.843,21.178,79.656,21.835,79.656,22.709z"/>
			<path d="M92.725,27.308v-1.32c-0.321,0.47-0.743,0.841-1.266,1.112c-0.523,0.271-1.075,0.407-1.656,0.407
				c-0.592,0-1.124-0.13-1.594-0.39s-0.811-0.625-1.021-1.096s-0.315-1.121-0.315-1.951v-5.578h2.333v4.051
				c0,1.24,0.043,1.999,0.129,2.278c0.085,0.28,0.242,0.501,0.469,0.664c0.227,0.164,0.515,0.245,0.863,0.245
				c0.398,0,0.755-0.109,1.071-0.328c0.315-0.218,0.531-0.489,0.647-0.813c0.116-0.323,0.174-1.116,0.174-2.378v-3.719h2.333v8.815
				H92.725z"/>
			<path d="M103.735,21.099l-2.299,0.415c-0.078-0.459-0.253-0.805-0.527-1.038c-0.273-0.232-0.629-0.349-1.066-0.349
				c-0.581,0-1.044,0.201-1.391,0.602c-0.346,0.401-0.519,1.072-0.519,2.013c0,1.046,0.176,1.785,0.527,2.216
				c0.351,0.432,0.823,0.647,1.415,0.647c0.443,0,0.805-0.126,1.087-0.377c0.282-0.252,0.481-0.685,0.598-1.299l2.291,0.39
				c-0.238,1.051-0.694,1.846-1.37,2.382s-1.58,0.805-2.714,0.805c-1.29,0-2.317-0.407-3.083-1.22
				c-0.767-0.813-1.15-1.939-1.15-3.378c0-1.456,0.385-2.588,1.154-3.399c0.769-0.811,1.81-1.216,3.121-1.216
				c1.074,0,1.927,0.231,2.561,0.693C103.003,19.449,103.458,20.153,103.735,21.099z"/>
			<path d="M111.932,21.099l-2.299,0.415c-0.078-0.459-0.253-0.805-0.527-1.038c-0.273-0.232-0.629-0.349-1.066-0.349
				c-0.581,0-1.044,0.201-1.391,0.602c-0.346,0.401-0.519,1.072-0.519,2.013c0,1.046,0.176,1.785,0.527,2.216
				c0.351,0.432,0.823,0.647,1.415,0.647c0.443,0,0.805-0.126,1.087-0.377c0.282-0.252,0.481-0.685,0.598-1.299l2.291,0.39
				c-0.238,1.051-0.694,1.846-1.37,2.382s-1.58,0.805-2.714,0.805c-1.29,0-2.317-0.407-3.083-1.22
				c-0.767-0.813-1.15-1.939-1.15-3.378c0-1.456,0.385-2.588,1.154-3.399c0.769-0.811,1.81-1.216,3.121-1.216
				c1.074,0,1.927,0.231,2.561,0.693C111.2,19.449,111.655,20.153,111.932,21.099z"/>
			<path d="M112.442,17.297v-2.158h2.333v2.158H112.442z M112.442,27.308v-8.815h2.333v8.815H112.442z"/>
			<path d="M115.368,22.776c0-0.775,0.191-1.524,0.573-2.25s0.923-1.278,1.623-1.66c0.7-0.382,1.482-0.573,2.345-0.573
				c1.333,0,2.427,0.433,3.279,1.299c0.852,0.866,1.278,1.96,1.278,3.283c0,1.333-0.43,2.439-1.291,3.316
				c-0.86,0.877-1.943,1.315-3.25,1.315c-0.808,0-1.579-0.183-2.312-0.548c-0.733-0.365-1.291-0.9-1.672-1.606
				C115.558,24.648,115.368,23.789,115.368,22.776z M117.758,22.9c0,0.875,0.208,1.544,0.623,2.009s0.927,0.697,1.536,0.697
				s1.119-0.232,1.531-0.697c0.413-0.465,0.619-1.14,0.619-2.025c0-0.863-0.206-1.527-0.619-1.992
				c-0.412-0.465-0.922-0.697-1.531-0.697s-1.121,0.232-1.536,0.697S117.758,22.026,117.758,22.9z M118.738,17.414l1.146-2.482
				h2.615l-2.283,2.482H118.738z"/>
			<path d="M133.052,27.308h-2.333v-4.499c0-0.952-0.05-1.567-0.149-1.847c-0.1-0.28-0.262-0.497-0.485-0.652
				c-0.225-0.155-0.494-0.232-0.81-0.232c-0.404,0-0.767,0.111-1.087,0.332c-0.321,0.221-0.541,0.515-0.66,0.88
				c-0.119,0.365-0.179,1.041-0.179,2.025v3.993h-2.333v-8.815h2.167v1.295c0.769-0.996,1.738-1.494,2.905-1.494
				c0.515,0,0.985,0.093,1.411,0.278c0.426,0.185,0.749,0.422,0.967,0.709c0.219,0.288,0.371,0.614,0.457,0.979
				c0.085,0.365,0.128,0.888,0.128,1.569V27.308z"/>
		</g>
	</g>
	<g>
		<path fill-rule="evenodd" clip-rule="evenodd" fill="#154A8C" stroke="#000000" stroke-width="0.5" stroke-miterlimit="10" d="
			M23.586,11.281L23.586,11.281c-4.636,0-8.34,3.523-8.34,7.971c0,2.785,1.479,5.186,3.334,6.67c0.551,0.383,1.111,0.752,1.66,1.123
			h-0.371V32.6h1.674c0.19,0.744,1.109,1.305,2.043,1.305c0.742,0,1.661-0.561,1.852-1.305h1.66v-5.555h-0.549
			c0.743-0.371,1.115-0.74,1.674-1.123c2.033-1.484,3.334-3.885,3.334-6.67C31.557,14.805,27.84,11.281,23.586,11.281L23.586,11.281
			z"/>
		
			<polygon fill-rule="evenodd" clip-rule="evenodd" fill="#154A8C" stroke="#000000" stroke-width="0.5" stroke-miterlimit="10" points="
			34.331,11.648 34.331,11.648 30.817,13.693 31.368,14.615 34.891,12.582 		"/>
		
			<polygon fill-rule="evenodd" clip-rule="evenodd" fill="#154A8C" stroke="#000000" stroke-width="0.5" stroke-miterlimit="10" points="
			29.514,7.203 29.514,7.203 27.469,10.717 28.223,11.09 30.256,7.756 		"/>
		
			<polygon fill-rule="evenodd" clip-rule="evenodd" fill="#154A8C" stroke="#000000" stroke-width="0.5" stroke-miterlimit="10" points="
			10.606,19.072 10.606,19.072 14.682,19.072 14.682,18.139 10.606,18.139 		"/>
		
			<polygon fill-rule="evenodd" clip-rule="evenodd" fill="#154A8C" stroke="#000000" stroke-width="0.5" stroke-miterlimit="10" points="
			11.896,12.582 11.896,12.582 15.614,14.615 15.984,13.693 12.639,11.648 		"/>
		
			<polygon fill-rule="evenodd" clip-rule="evenodd" fill="#154A8C" stroke="#000000" stroke-width="0.5" stroke-miterlimit="10" points="
			16.725,7.756 16.725,7.756 18.58,11.09 19.498,10.717 17.468,7.203 		"/>
		
			<polygon fill-rule="evenodd" clip-rule="evenodd" fill="#154A8C" stroke="#000000" stroke-width="0.5" stroke-miterlimit="10" points="
			22.844,5.721 22.844,5.721 22.844,9.604 23.959,9.604 23.959,5.721 		"/>
		<path fill-rule="evenodd" clip-rule="evenodd" fill="#154A8C" stroke="#000000" stroke-width="0.5" stroke-miterlimit="10" d="
			M23.586,22.775L23.586,22.775c-0.742,0-1.301,0.551-1.301,1.111c0,0.551,0.559,1.113,1.301,1.113c0.549,0,0.921-0.563,0.921-1.113
			C24.507,23.326,24.135,22.775,23.586,22.775L23.586,22.775z"/>
		<path fill-rule="evenodd" clip-rule="evenodd" fill="#154A8C" stroke="#000000" stroke-width="0.5" stroke-miterlimit="10" d="
			M23.586,14.615L23.586,14.615c-0.934,0-1.48,1.674-1.48,3.895s0.547,3.898,1.48,3.898c0.742,0,1.291-1.678,1.291-3.898
			S24.328,14.615,23.586,14.615L23.586,14.615z"/>
		
			<polygon fill-rule="evenodd" clip-rule="evenodd" fill="#154A8C" stroke="#000000" stroke-width="0.5" stroke-miterlimit="10" points="
			36.374,18.139 36.374,18.139 32.299,18.139 32.299,19.072 36.374,19.072 		"/>
		
			<polygon fill-rule="evenodd" clip-rule="evenodd" fill="#154A8C" stroke="#000000" stroke-width="0.5" stroke-miterlimit="10" points="
			20.608,28.156 20.608,28.156 20.608,29.266 26.357,29.266 26.357,28.156 		"/>
		
			<polygon fill-rule="evenodd" clip-rule="evenodd" fill="#154A8C" stroke="#000000" stroke-width="0.5" stroke-miterlimit="10" points="
			20.608,30.185 20.608,30.185 20.608,31.297 26.357,31.297 26.357,30.185 		"/>
	</g>
</g>
</svg>
