<!-- Generator: Adobe Illustrator 17.0.0, SVG Export Plug-In  -->
<svg version="1.1"
	 xmlns="http://www.w3.org/2000/svg" xmlns:xlink="http://www.w3.org/1999/xlink" xmlns:a="http://ns.adobe.com/AdobeSVGViewerExtensions/3.0/"
	 x="0px" y="0px" width="761.181px" height="132.536px" viewBox="0 0 761.181 132.536" enable-background="new 0 0 761.181 132.536"
	 xml:space="preserve">
<defs>
</defs>
<path id="cloud_14_" fill="#FFFFFF" d="M476.884,25.938c0.623-0.991,0.987-2.162,0.987-3.419c0-3.554-2.88-6.434-6.434-6.434
	c-0.525,0-1.034,0.065-1.522,0.185c-0.173,0.041-0.332-0.059-0.361-0.234C468.002,6.93,460.074,0,450.527,0
	c-8.958,0-16.486,6.106-18.664,14.379c-0.045,0.17-0.166,0.196-0.278,0.059c-2.359-2.919-5.966-4.787-10.01-4.787
	c-7.107,0-12.868,5.761-12.868,12.868c0,1.206,0.167,2.375,0.478,3.481c0.048,0.172-0.048,0.348-0.219,0.399
	c-6.658,1.968-11.517,8.125-11.517,15.421c0,8.884,7.201,16.085,16.084,16.085h59.312c8.883,0,16.085-7.201,16.085-16.085
	c0-7.438-5.053-13.696-11.912-15.533C476.846,26.238,476.789,26.089,476.884,25.938z"/>
<path id="cloud_6_" fill="#FFFFFF" d="M729.913,104.359c1.112-1.586,1.448-3.754,0.415-5.967c-0.415-0.89-1.101-1.639-1.949-2.134
	c-1.692-0.984-3.347-1.08-4.778-0.657c-1.261-8.23-8.373-14.535-16.957-14.535c-8.062,0-14.822,5.561-16.66,13.057
	c-3.034-3.951-8.585-5.867-14.259-3.334c-2.285,1.02-4.118,2.887-5.131,5.174c-1.323,2.984-1.406,5.928-0.617,8.489
	c-7.95,2.177-13.137,11.036-9.126,20.171c1.926,4.383,7.546,7.913,12.335,7.913h53.873c5.328,0,10.236-3.089,12.36-7.977
	C743.437,115.316,738.042,106.361,729.913,104.359z"/>
<path id="cloud_5_" opacity="0.5" fill="#FFFFFF" d="M562.114,45.293c0.346-0.553,0.549-1.203,0.549-1.9
	c0-1.975-1.6-3.574-3.574-3.574c-0.291,0-0.575,0.037-0.845,0.102c-0.096,0.023-0.185-0.032-0.202-0.129
	c-0.862-5.059-5.266-8.908-10.57-8.908c-4.976,0-9.159,3.392-10.369,7.988c-0.025,0.094-0.092,0.109-0.154,0.033
	c-1.31-1.623-3.314-2.661-5.561-2.661c-3.948,0-7.149,3.201-7.149,7.149c0,0.671,0.093,1.319,0.266,1.934
	c0.026,0.095-0.027,0.193-0.122,0.221c-3.699,1.095-6.399,4.516-6.399,8.568c0,4.936,4.001,8.936,8.936,8.936h32.951
	c4.935,0,8.936-4,8.936-8.936c0-4.134-2.807-7.608-6.618-8.629C562.093,45.46,562.062,45.375,562.114,45.293z"/>
<path id="cloud_4_" opacity="0.5" fill="#FFFFFF" d="M755.827,57.207c0.278-0.439,0.439-0.961,0.439-1.519
	c0-1.58-1.28-2.86-2.859-2.86c-0.233,0-0.459,0.029-0.677,0.082c-0.077,0.019-0.148-0.026-0.161-0.103
	c-0.69-4.047-4.213-7.127-8.456-7.127c-3.982,0-7.327,2.713-8.295,6.391c-0.02,0.076-0.074,0.089-0.124,0.025
	c-1.048-1.296-2.651-2.126-4.449-2.126c-3.158,0-5.719,2.56-5.719,5.719c0,0.536,0.074,1.056,0.212,1.548
	c0.021,0.074-0.022,0.153-0.097,0.176c-2.96,0.875-5.119,3.611-5.119,6.854c0,3.947,3.201,7.149,7.149,7.149h26.36
	c3.948,0,7.148-3.202,7.148-7.149c0-3.307-2.245-6.088-5.294-6.904C755.81,57.342,755.785,57.275,755.827,57.207z"/>
<path id="cloud_3_" opacity="0.5" fill="#FFFFFF" d="M387.107,12.172c0.277-0.441,0.439-0.962,0.439-1.521
	c0-1.579-1.28-2.858-2.86-2.858c-0.233,0-0.459,0.027-0.676,0.081c-0.077,0.018-0.148-0.026-0.161-0.104
	c-0.69-4.047-4.213-7.126-8.456-7.126c-3.981,0-7.327,2.713-8.295,6.39c-0.02,0.076-0.074,0.087-0.124,0.026
	c-1.049-1.297-2.651-2.128-4.449-2.128c-3.159,0-5.719,2.56-5.719,5.719c0,0.536,0.074,1.057,0.212,1.548
	c0.021,0.075-0.021,0.154-0.097,0.176c-2.959,0.876-5.119,3.611-5.119,6.855c0,3.947,3.201,7.148,7.148,7.148h26.361
	c3.948,0,7.148-3.201,7.148-7.148c0-3.307-2.245-6.088-5.294-6.905C387.09,12.305,387.065,12.238,387.107,12.172z"/>
<path id="cloud_2_" opacity="0.5" fill="#FFFFFF" d="M52.957,40.453c0.416-0.661,0.658-1.441,0.658-2.279
	c0-2.368-1.92-4.289-4.289-4.289c-0.35,0-0.689,0.043-1.015,0.123c-0.115,0.027-0.221-0.039-0.241-0.156
	c-1.035-6.07-6.32-10.69-12.684-10.69c-5.972,0-10.991,4.068-12.442,9.584c-0.03,0.116-0.111,0.133-0.186,0.041
	c-1.572-1.947-3.977-3.191-6.674-3.191c-4.738,0-8.578,3.841-8.578,8.578c0,0.805,0.111,1.583,0.318,2.32
	c0.032,0.114-0.032,0.232-0.146,0.266C3.24,42.072,0,46.177,0,51.041c0,5.922,4.801,10.723,10.723,10.723h39.541
	c5.922,0,10.723-4.801,10.723-10.723c0-4.96-3.368-9.131-7.942-10.354C52.931,40.654,52.893,40.554,52.957,40.453z"/>
<path id="cloud_1_" fill="#FFFFFF" d="M124.942,48.764c0.693-1.101,1.097-2.401,1.097-3.798c0-3.948-3.201-7.15-7.149-7.15
	c-0.583,0-1.149,0.072-1.691,0.205c-0.192,0.046-0.369-0.065-0.402-0.259c-1.724-10.117-10.533-17.818-21.14-17.818
	c-9.953,0-18.318,6.782-20.737,15.976c-0.05,0.192-0.185,0.219-0.309,0.066c-2.621-3.243-6.628-5.318-11.123-5.318
	c-7.896,0-14.297,6.4-14.297,14.298c0,1.34,0.185,2.638,0.531,3.868c0.053,0.188-0.054,0.385-0.243,0.441
	c-7.398,2.187-12.798,9.027-12.798,17.137c0,9.87,8.002,17.871,17.872,17.871h65.902c9.87,0,17.872-8.001,17.872-17.871
	c0-8.268-5.614-15.221-13.236-17.262C124.9,49.099,124.837,48.932,124.942,48.764z"/>
</svg>