<?xml version="1.0" encoding="utf-8"?>
<!-- Generator: Adobe Illustrator 17.0.0, SVG Export Plug-In . SVG Version: 6.00 Build 0)  -->
<!DOCTYPE svg PUBLIC "-//W3C//DTD SVG 1.1//EN" "http://www.w3.org/Graphics/SVG/1.1/DTD/svg11.dtd" [
	<!ENTITY ns_extend "http://ns.adobe.com/Extensibility/1.0/">
	<!ENTITY ns_ai "http://ns.adobe.com/AdobeIllustrator/10.0/">
	<!ENTITY ns_graphs "http://ns.adobe.com/Graphs/1.0/">
	<!ENTITY ns_vars "http://ns.adobe.com/Variables/1.0/">
	<!ENTITY ns_imrep "http://ns.adobe.com/ImageReplacement/1.0/">
	<!ENTITY ns_sfw "http://ns.adobe.com/SaveForWeb/1.0/">
	<!ENTITY ns_custom "http://ns.adobe.com/GenericCustomNamespace/1.0/">
	<!ENTITY ns_adobe_xpath "http://ns.adobe.com/XPath/1.0/">
]>
<svg version="1.1" id="Capa_1" xmlns:x="&ns_extend;" xmlns:i="&ns_ai;" xmlns:graph="&ns_graphs;"
	 xmlns="http://www.w3.org/2000/svg" xmlns:xlink="http://www.w3.org/1999/xlink" x="0px" y="0px" width="40px" height="600px"
	 viewBox="0 0 40 600" enable-background="new 0 0 40 600" xml:space="preserve">
<metadata>
	<sfw  xmlns="&ns_sfw;">
		<slices></slices>
		<sliceSourceBounds  width="40" height="600" y="-80.5" x="291.5" bottomLeftOrigin="true"></sliceSourceBounds>
	</sfw>
</metadata>
<rect fill="#FFCC04" width="40" height="600"/>
<polygon fill="#154A8C" points="28.5,309.815 11.5,300 28.5,290.185 "/>
<g opacity="0.25">
	<g>
		<g>
			<g>
				<g>
					<defs>
						<rect id="SVGID_1_" width="40" height="40"/>
					</defs>
					<clipPath id="SVGID_2_">
						<use xlink:href="#SVGID_1_"  overflow="visible"/>
					</clipPath>
					<rect clip-path="url(#SVGID_2_)" fill="#020202" width="40" height="40"/>
				</g>
			</g>
		</g>
	</g>
</g>
<path fill="#FFFFFF" d="M30.705,14.739H13.097c-0.756,0-1.369-0.613-1.369-1.37c0-0.756,0.613-1.369,1.369-1.369h17.608
	c0.756,0,1.369,0.613,1.369,1.369C32.074,14.126,31.461,14.739,30.705,14.739"/>
<path fill="#FFFFFF" d="M10.665,13.369c0,0.756-0.613,1.371-1.37,1.371c-0.756,0-1.369-0.615-1.369-1.371S8.539,12,9.295,12
	C10.052,12,10.665,12.613,10.665,13.369"/>
<path fill="#FFFFFF" d="M30.705,21.369H13.097c-0.756,0-1.369-0.613-1.369-1.369s0.613-1.369,1.369-1.369h17.608
	c0.756,0,1.369,0.613,1.369,1.369S31.461,21.369,30.705,21.369"/>
<path fill="#FFFFFF" d="M10.665,20c0,0.756-0.613,1.37-1.37,1.37c-0.756,0-1.369-0.614-1.369-1.37s0.613-1.37,1.369-1.37
	C10.052,18.63,10.665,19.244,10.665,20"/>
<path fill="#FFFFFF" d="M30.705,28H13.097c-0.756,0-1.369-0.613-1.369-1.37c0-0.756,0.613-1.368,1.369-1.368h17.608
	c0.756,0,1.369,0.612,1.369,1.368C32.074,27.387,31.461,28,30.705,28"/>
<path fill="#FFFFFF" d="M10.665,26.631c0,0.756-0.613,1.369-1.37,1.369c-0.756,0-1.369-0.613-1.369-1.369
	c0-0.756,0.613-1.37,1.369-1.37C10.052,25.261,10.665,25.875,10.665,26.631"/>
</svg>
