<?xml version="1.0" encoding="utf-8"?>
<!-- Generator: Adobe Illustrator 17.0.0, SVG Export Plug-In . SVG Version: 6.00 Build 0)  -->
<!DOCTYPE svg PUBLIC "-//W3C//DTD SVG 1.1//EN" "http://www.w3.org/Graphics/SVG/1.1/DTD/svg11.dtd" [
	<!ENTITY ns_extend "http://ns.adobe.com/Extensibility/1.0/">
	<!ENTITY ns_ai "http://ns.adobe.com/AdobeIllustrator/10.0/">
	<!ENTITY ns_graphs "http://ns.adobe.com/Graphs/1.0/">
	<!ENTITY ns_vars "http://ns.adobe.com/Variables/1.0/">
	<!ENTITY ns_imrep "http://ns.adobe.com/ImageReplacement/1.0/">
	<!ENTITY ns_sfw "http://ns.adobe.com/SaveForWeb/1.0/">
	<!ENTITY ns_custom "http://ns.adobe.com/GenericCustomNamespace/1.0/">
	<!ENTITY ns_adobe_xpath "http://ns.adobe.com/XPath/1.0/">
]>
<svg version="1.1" id="Capa_1" xmlns:x="&ns_extend;" xmlns:i="&ns_ai;" xmlns:graph="&ns_graphs;"
	 xmlns="http://www.w3.org/2000/svg" xmlns:xlink="http://www.w3.org/1999/xlink" x="0px" y="0px" width="155.706px"
	 height="74.254px" viewBox="0 0 155.706 74.254" enable-background="new 0 0 155.706 74.254" xml:space="preserve">
<metadata><?xpacket begin="﻿" id="W5M0MpCehiHzreSzNTczkc9d"?>
<x:xmpmeta xmlns:x="adobe:ns:meta/" x:xmptk="Adobe XMP Core 5.5-c014 79.151739, 2013/04/03-12:12:15        ">
   <rdf:RDF xmlns:rdf="http://www.w3.org/1999/02/22-rdf-syntax-ns#">
      <rdf:Description rdf:about=""
            xmlns:dc="http://purl.org/dc/elements/1.1/"
            xmlns:xmp="http://ns.adobe.com/xap/1.0/"
            xmlns:xmpGImg="http://ns.adobe.com/xap/1.0/g/img/"
            xmlns:xmpMM="http://ns.adobe.com/xap/1.0/mm/"
            xmlns:stRef="http://ns.adobe.com/xap/1.0/sType/ResourceRef#"
            xmlns:stEvt="http://ns.adobe.com/xap/1.0/sType/ResourceEvent#"
            xmlns:illustrator="http://ns.adobe.com/illustrator/1.0/"
            xmlns:xmpTPg="http://ns.adobe.com/xap/1.0/t/pg/"
            xmlns:stDim="http://ns.adobe.com/xap/1.0/sType/Dimensions#"
            xmlns:xmpG="http://ns.adobe.com/xap/1.0/g/"
            xmlns:pdf="http://ns.adobe.com/pdf/1.3/">
         <dc:format>image/svg+xml</dc:format>
         <dc:title>
            <rdf:Alt>
               <rdf:li xml:lang="x-default">Imprimir</rdf:li>
            </rdf:Alt>
         </dc:title>
         <xmp:MetadataDate>2017-04-11T01:59:07-05:00</xmp:MetadataDate>
         <xmp:ModifyDate>2017-04-11T01:59:07-05:00</xmp:ModifyDate>
         <xmp:CreateDate>2017-04-11T01:59:07-05:00</xmp:CreateDate>
         <xmp:CreatorTool>Adobe Illustrator CC (Windows)</xmp:CreatorTool>
         <xmp:Thumbnails>
            <rdf:Alt>
               <rdf:li rdf:parseType="Resource">
                  <xmpGImg:width>256</xmpGImg:width>
                  <xmpGImg:height>124</xmpGImg:height>
                  <xmpGImg:format>JPEG</xmpGImg:format>
                  <xmpGImg:image>/9j/4AAQSkZJRgABAgEASABIAAD/7QAsUGhvdG9zaG9wIDMuMAA4QklNA+0AAAAAABAASAAAAAEA&#xA;AQBIAAAAAQAB/+4ADkFkb2JlAGTAAAAAAf/bAIQABgQEBAUEBgUFBgkGBQYJCwgGBggLDAoKCwoK&#xA;DBAMDAwMDAwQDA4PEA8ODBMTFBQTExwbGxscHx8fHx8fHx8fHwEHBwcNDA0YEBAYGhURFRofHx8f&#xA;Hx8fHx8fHx8fHx8fHx8fHx8fHx8fHx8fHx8fHx8fHx8fHx8fHx8fHx8fHx8f/8AAEQgAfAEAAwER&#xA;AAIRAQMRAf/EAaIAAAAHAQEBAQEAAAAAAAAAAAQFAwIGAQAHCAkKCwEAAgIDAQEBAQEAAAAAAAAA&#xA;AQACAwQFBgcICQoLEAACAQMDAgQCBgcDBAIGAnMBAgMRBAAFIRIxQVEGE2EicYEUMpGhBxWxQiPB&#xA;UtHhMxZi8CRygvElQzRTkqKyY3PCNUQnk6OzNhdUZHTD0uIIJoMJChgZhJRFRqS0VtNVKBry4/PE&#xA;1OT0ZXWFlaW1xdXl9WZ2hpamtsbW5vY3R1dnd4eXp7fH1+f3OEhYaHiImKi4yNjo+Ck5SVlpeYmZ&#xA;qbnJ2en5KjpKWmp6ipqqusra6voRAAICAQIDBQUEBQYECAMDbQEAAhEDBCESMUEFURNhIgZxgZEy&#xA;obHwFMHR4SNCFVJicvEzJDRDghaSUyWiY7LCB3PSNeJEgxdUkwgJChgZJjZFGidkdFU38qOzwygp&#xA;0+PzhJSktMTU5PRldYWVpbXF1eX1RlZmdoaWprbG1ub2R1dnd4eXp7fH1+f3OEhYaHiImKi4yNjo&#xA;+DlJWWl5iZmpucnZ6fkqOkpaanqKmqq6ytrq+v/aAAwDAQACEQMRAD8A8qYq7FXYq7FXYq7FXYq7&#xA;FXYq7FXYq7FXYq7FXYq7FXYq7FXYq7FXYq7FXYq7FXYq7FXYq7FXYq7FXYqmvlP/AJSnRv8AmOtv&#xA;+Ty4qlWKuxV2KuxV2KuxV2KuxV2KuxV2KuxV2KvU/wAnP+cfvM35mW91qNtdw6Xo1pJ9Xa9mVpGe&#xA;YKHKRxqVrxVlLEsOopXeir03/oRzVf8AqboP+kJ/+q2Ku/6Ec1X/AKm6D/pCf/qtirv+hHNV/wCp&#xA;ug/6Qn/6rYq8p/N/8ifNf5aTQS3jrqOi3R4warboyoJOvpSqa+m9BUbkEdDsaKvNcVdirsVdirsV&#xA;dirsVdirsVdirsVdirsVTXyn/wApTo3/ADHW3/J5cVSrFXYq7FXYq7FXYq7FXYq7FXYq7FXYq7FX&#xA;2d/zi3PNB+QGtzwuY5ornUXjkU0ZWW2jIIPiDir5m/5XX+bn/U36r/0lS/1xV3/K6/zc/wCpv1X/&#xA;AKSpf64q9I/5x1/ND8xdb/OPy/peseY9Qv8ATrj6569pcXDyRvwsZ3XkpNDR1BHvir7I13QtI17S&#xA;LrR9YtUvdNvUMdzbSCqsp/EEHcEbg7jfFXwN+e/5OXP5Z+ZoreKY3WhaoJJdIuH/ALwLGVEkMtAB&#xA;zj5ruNiCDt0CrzPFXYq7FXYq7FXYq7FXYq7FXYq7FXYqmvlP/lKdG/5jrb/k8uKpVirsVdirsVdi&#xA;rsVdirsVdirsVdirsVdir7K/5xi/9Z61/wD4z6l/1Cx4q8c/ILzv+S3lyx1aL8wNDj1G+nljazup&#xA;7OO/QRBSDGqSBvTIbckD4q+2KvS9c/N7/nE+fRb6G28qWr3EtvIkKw6PbwSF2QheEoVDGa/tA7Yq&#xA;+YPLXmTWfLOu2eu6LcG11Owf1LacANQkFWBVgQVZWKsD1BxV7r5C/wCcpfzY1rzz5d0a+uLNrLUt&#xA;TsrO6CWyqxinuEjfi1djxY74qyL/AJzn/wCmJ/7en/Ynir5VxV2KuxV2KuxV2KuxV2KuxV2KuxV2&#xA;Kpr5T/5SnRv+Y62/5PLiqVYq7FXYq7FXYq7FXYq7FXYq7FXYq7FXYq+yv+cYv/Wetf8A+M+pf9Qs&#xA;eKvIP+ce9B/IfVLPVm/Mi6ij1CORBY293dS2cPold3R4ni5PyqCC2wptir07zF5L/wCcNotB1CS2&#xA;vbGG5S3kMEtpqd1POrhTxMUTTTK7V6AocVfI2Ksr/Kf/AMmn5N/7bmm/9RkeKvf/APnOf/pif+3p&#xA;/wBieKvlXFXYq7FXYq7FXYq7FXYq7FXYq7FXYqmvlP8A5SnRv+Y62/5PLiqVYq7FXYq7FXYq7FXY&#xA;q7FXYq7FXYq7FXYq+yv+cYv/AFnrX/8AjPqX/ULHir41xV2KvVPKn/ONH5r+Z9BtdcsLGCKwvlEt&#xA;obmdYneI7rIE3IVuq16jfpTFWaeQv+cWvzY0Xzz5d1m+t7NbLTdTsry6KXKswiguEkfitNzxU7Yq&#xA;9Y/5yf8Ayh85fmJ/hr/DccEn6L+vfW/XlEVPrH1f0+NQa/3LVxV8d+cvJfmLybr8+heYLX6rqEAV&#xA;yoZXRkcVR0dSVZW/sO+KpHirsVdirsVdirsVdirsVdirsVdiqa+U/wDlKdG/5jrb/k8uKpVirsVd&#xA;irsVdirsVdirsVdirsVdirsVdir7K/5xi/8AWetf/wCM+pf9QseKvjXFXYq+/tR0bUdb/J3yVY6T&#xA;ZQ6kJItHeW0mlkhtpLdbdWPrSQrI6x9DVVPbFUjn8nJpGp2Fr5v0rUNctRZ3babDo8d/eQ2U014Z&#xA;VtobmMRunpxEKkkpT24gbKpj5G8h+cZPOkGt+a4YZ57HT9NQXV0JJp/WSCUSiCSOZYg6Oy+qzI3I&#xA;7jxxV4X/AM5qFf8AlammUpUaHb8qeP1u66/RirwDFXYq7FXYq7FXYq7FXYq7FXYq7FU18p/8pTo3&#xA;/Mdbf8nlxVKsVdirsVdirsVdirsVdirsVdirsVdirsVfaH/OKtrNe/kNrFnbgNPcXeoQxLUCryW0&#xA;aqCT03OKvD/+hT/zt/6tEH/SZbf814q7/oU/87f+rRB/0mW3/NeKvR/KnlX/AJzG8raLBouktbjT&#xA;bUcbWGeXT5zGta8VeQs/HwBNB2xVlflj/ob/APxJpP6e+p/oL65b/pXh+j+X1T1V9fjw+Ovp8vs7&#xA;+GKoj/nKb82fOvkA+WR5XvI7U6l9eN4HhimLCD6v6dPUVuP963Trir4780eavMPmrWZ9a8wXr3+p&#xA;3FBJPIFXZRRVVECoijsqgDFUpxV2KuxV2KuxV2KuxV2KuxV2KuxVNfKf/KU6N/zHW3/J5cVSrFXY&#xA;q7FXYq7FXYq7FXYq7FXYq7FXYq7FWeflp+dXnr8uluofL9xE1leMJJ7K6j9WH1AOIkUAoytx2NG3&#xA;2rWgxVnP/Q5P5uf750r/AKRpf+q2Ku/6HJ/Nz/fOlf8ASNL/ANVsVd/0OT+bn++dK/6Rpf8Aqtir&#xA;v+hyfzc/3zpX/SNL/wBVsVeZ/mF+ZPmzz/rK6t5juVmmiT0raCJBHDDHWvGNBXqTUkkk+PTFWLYq&#xA;7FXYq7FXYq7FXYq7FXYq7FXYq7FU18p/8pTo3/Mdbf8AJ5cVRf8Ayr3z9/1LWq/9INz/AM0Yq7/l&#xA;Xvn7/qWtV/6Qbn/mjFXf8q98/f8AUtar/wBINz/zRirv+Ve+fv8AqWtV/wCkG5/5oxV3/KvfP3/U&#xA;tar/ANINz/zRirv+Ve+fv+pa1X/pBuf+aMVd/wAq98/f9S1qv/SDc/8ANGKu/wCVe+fv+pa1X/pB&#xA;uf8AmjFXf8q98/f9S1qv/SDc/wDNGKu/5V75+/6lrVf+kG5/5oxV3/KvfP3/AFLWq/8ASDc/80Yq&#xA;7/lXvn7/AKlrVf8ApBuf+aMVd/yr3z9/1LWq/wDSDc/80Yq7/lXvn7/qWtV/6Qbn/mjFXf8AKvfP&#xA;3/Utar/0g3P/ADRirv8AlXvn7/qWtV/6Qbn/AJoxV3/KvfP3/Utar/0g3P8AzRirv+Ve+fv+pa1X&#xA;/pBuf+aMVd/yr3z9/wBS1qv/AEg3P/NGKu/5V75+/wCpa1X/AKQbn/mjFXf8q98/f9S1qv8A0g3P&#xA;/NGKu/5V75+/6lrVf+kG5/5oxV3/ACr3z9/1LWq/9INz/wA0Yq7/AJV75+/6lrVf+kG5/wCaMVd/&#xA;yr3z9/1LWq/9INz/AM0Yq7/lXvn7/qWtV/6Qbn/mjFXf8q98/f8AUtar/wBINz/zRirv+Ve+fv8A&#xA;qWtV/wCkG5/5oxV3/KvfP3/Utar/ANINz/zRirv+Ve+fv+pa1X/pBuf+aMVd/wAq98/f9S1qv/SD&#xA;c/8ANGKpn5X8g+e4vM2kSSeXNUSNL23Z3ayuAoUSqSSSmwGKv0hxV2KuxV2KuxV2KuxV2KuxV2Ku&#xA;xV2KuxV2KuxV2KuxV2KuxV2KuxV2KuxV2KuxV2KuxV2KuxV2KuxV2KuxV2KuxV2KuxV2KsK8z/nR&#xA;+WHlfWJdG17XorHU4FRpbZ452KiRQ6mqRsu6mvXFU50Lzx5R1/RptZ0XVbe/022DNcXED8/T4LyY&#xA;SKPjUhd6EVxViP8A0Mj+SX/U0wf8ibn/AKpYqyHVvzR/L/SNAsPMGpa3b2uk6ogk064k5Azoy8gY&#xA;4+PqHbr8O2Kq/k78w/JXnOCafyxq0OpLbkC4SPkkkfL7JeOQI6g0NCVxVJ9d/PL8ptC1eTSNU8y2&#xA;sOoQt6c0KiSURuNisjxI6Iw7hjt3xVmdpfWV7ZRX1ncR3FlOglguYnV4njYVDq6kqVI7jFUl8n/m&#xA;B5N85Q3U3lnVItTjsnWO6MYdeDOCVqHVTvQ0I2xVJvMH54/lV5e1i50bWfMEVnqdmwW5tminYoWU&#xA;OASkbL9lgdjirIfK/nLyt5rsWv8Ay7qcGp2sbenJJA3Io9K8XU0ZTTfcYqxjUPz+/J3T9TfTbrzT&#xA;aLdxuY5AglljVgaEGWNGiFD1+LFWdWV7Z31pDeWU8dzaXCLJb3ELB45EYVVkZSQwI6EYqknlH8wv&#xA;JnnAXh8tarFqf6PZUvPSDj0zJy4V5qtQ3BqEbbYqk3mD88fyq8vaxc6NrPmCKz1OzYLc2zRTsULK&#xA;HAJSNl+ywOxxVP8Ayr528p+bLKS98uapBqdvEwSZoGqUYioDoaMtR4jFUL5z/MjyR5K+p/4o1WPT&#xA;Pr/qfU/USV/U9Hh6lPTR6cfUXr44q15R/MzyH5weWPy3rdtqM0K85YIyVlVK8eRjkCPxr3pirHoP&#xA;+ci/yUmlWJPNVsGbYF0njX6WeNVH0nFWTeZfzB8meWtEttd1rVYbbSLyRIbW+XlNHI8iNIgQwiSt&#xA;UjY16Yqk3l/88fyq8w6xbaNo3mCK81O8YrbWyxTqXKqXIBeNV+ypO5xVnWKuxV2KuxV2KuxV2Kux&#xA;V2KuxV2KuxV86w6RpOq/85g67a6pZQX9sNFjcQXMSTJyEVsA3FwwqK9cVSux06w8sf8AOQXnrQPL&#xA;MS2uiXnlue4v9Ot6JBBKLdHUiMbCjPsB09Q02xVIvyRsfP8AN+Xdg+j/AJcaB5isDJcenquovbLc&#xA;SETNyVhJ8VEPwj2xVmH5w+SdW1bzL5KvfLzaC3m7R7EA/l/fSW5iYFDIxgt2KqyIQ4r8IooKmoxV&#xA;IfJfmG30rzH56+u+Tj5P/M5PL19dQixlZbGZYYFcCG3BaNGLxK4ZSwY8jUHqqn35Aflt+Wer/kZ+&#xA;ldf020ubnVFvm1rVLlUeeERTSoGSZwzQ8IkV6rTf4sVRv5g+YvJX5ef846z2fkXUlvbDUjJpmkXC&#xA;XIuTzu2ZrkiQV4lE9Q0FOLU6HFXm35EeY/K3kn83NH0jRNZTUtH81aXa2uqMvqBIdW47KPUWMn98&#xA;pVOu0mKo3XtX1PSPz3/MfULPyXb+c4baK3lvILgRt9WiSCImVVdJS3geIriql5Fg1CH8oPzT/MTR&#xA;mtdOXX09C20XTGPGxRJGE3IALwZYrglKdBvtUUVZRo3lrybpf/OPnl+5s/II84y65b11WW0RDeRS&#xA;SRuZZ/rHpyunpOvBaU44q3F+Z/l7Qv8AnFq5v/LVpPpEVzLcaPo9nc3JupVmuGYyuspCfZRpJAAK&#xA;AjFWC/kf5j8reRvzV8t2mjawmo6b5o0yCy13iJALfVJDVVHqLHUCYKqt4M2Kpjr2qanpf/OQv5g3&#xA;9j5Og85rb2ySXVlcBGEESRW7NOqukpYinGirXfFWb/8AOKempqeo+a/P8CWWm2WtzLb2+gae/wAF&#xA;r6TM7CWOihDuvCnYsaAEYqt/5youDbedvytuBpZ1sxXt840dVDm6o9n+5ClXB59PsnFVD8ufJXmr&#xA;Wvzzs/Pv+Cv8B6Bp1nJFLZEpGbmZ4pYQTEqxfEfVBPwBfgG9Tuqo/wDOMfkTyT5k/JbUF8w6VZ3Q&#xA;lv7uKW9mij9aOMRRGqzsOacKkgg7Yq8jvtR1C8/5xRsYbuRpIrDzibayDV+GE6dJNxWvb1JnOKvp&#xA;X8s7Lzw/mdX8yflhovlezhheSDVrJrGSZZ6hVRRAzuOSs2+KvXsVdirsVdirsVdirsVdirsVdirs&#xA;VdiryPzp/wA4/DzD57u/Odh5s1Ty9qd3DHbudNb0WEccapx9RGR6NwBIxVN/I/5IeXPKVlrfpXt5&#xA;qmteYInh1PXNQcTXLK6kUU0FBU8jWpJ6nYUVYdpP/OMGpaPYpYaR+ZPmLTrGMsY7S0neCJSx5MRH&#xA;HIqipNTtiqd+a/8AnHqy8w2OgTt5l1O281+Xofq9t5oWQvdyoGZwZiWDllZ24kODueuKo78t/wAj&#xA;dO8o67f+ZNU1m880eZdQhNtLqWoEnjAaVRULSVqEUVZjsKCgrVVimo/84oaZ9Zv4PL/mzVdB8u6o&#xA;xa/0G3YtA4PVPtoCnYB1b6cVZJd/848+UpW8n2kVxNFoPk52mttIZUkS6neQSPLcuac2dlFdqdQK&#xA;A0xVMPzH/JLyt5zsbCKHjoN9pt0t3a6jp8ESShlBHHoNq8W+YGKo/wAtflhZ6H598wecxfSXN55i&#xA;ihiubZkVYk9FVWqUJPxcOhxVKfKX5F6B5X8w+YrzT7uRvL/maOSPUPLMiKbMCTrwpQinJ1A/lanh&#xA;irFH/wCcWvqsdzpmgeetb0fyxduXm0OKQtHR/tqGDoKHp8SGveuKpzJ/zjX5P+q+VdMhvbpdD8sX&#xA;T336Ol4Si8nkdHdrhiAKH0wvFVAoT44qnf5k/kl5T87aRbWKIuh3Vncpd22o6fDEkysgI41AX4Ty&#xA;r8wMVV/K/wCVFpoX5ia155OpTXeoa5bR291A8aJGpQRAuvHf4jDWnviqH8m/k3pfk7z1rPmXQtQm&#xA;trDXKteaAET6qJK8g8Z+0vFyxUdAGI6YqmHnb8s7HzX5o8p+YLi9ltpvKdzJdW8EaqyzNK0LFXJ3&#xA;AHoDp44qzPFXgem/84npp+myaRbefdet9EuCxutMtpfRgl5gB+UasYzyAANVOKsr82/84++U9c/L&#xA;nS/IVjPNpGk6TdrewyRBZZXkEcqMZC/UuZyxP3bYq9RxV2KuxV2KuxV2KuxV2KuxV2KuxV2KuxV2&#xA;KuxV2KuxV2KuxV2KuxV2KuxV2KuxV2KuxV2KuxV2KuxV2KuxV2KuxV2KuxV2KuxV2KuxV2KuxV2K&#xA;uxV2KuxV2KuxV2KuxV2KuxV2KuxV2KuxV2KuxV2KuxV2KuxV2KuxV2KuxV2KuxV2KuxV/9k=</xmpGImg:image>
               </rdf:li>
            </rdf:Alt>
         </xmp:Thumbnails>
         <xmpMM:InstanceID>xmp.iid:9abfa668-2609-c146-aeb5-945099e7e6e3</xmpMM:InstanceID>
         <xmpMM:DocumentID>xmp.did:9abfa668-2609-c146-aeb5-945099e7e6e3</xmpMM:DocumentID>
         <xmpMM:OriginalDocumentID>uuid:5D20892493BFDB11914A8590D31508C8</xmpMM:OriginalDocumentID>
         <xmpMM:RenditionClass>proof:pdf</xmpMM:RenditionClass>
         <xmpMM:DerivedFrom rdf:parseType="Resource">
            <stRef:instanceID>uuid:ff470bc6-f939-440e-8f31-27b0eb70075c</stRef:instanceID>
            <stRef:documentID>xmp.did:4de20fe2-e96f-dd46-b8bd-1606dc72d06f</stRef:documentID>
            <stRef:originalDocumentID>uuid:5D20892493BFDB11914A8590D31508C8</stRef:originalDocumentID>
            <stRef:renditionClass>proof:pdf</stRef:renditionClass>
         </xmpMM:DerivedFrom>
         <xmpMM:History>
            <rdf:Seq>
               <rdf:li rdf:parseType="Resource">
                  <stEvt:action>saved</stEvt:action>
                  <stEvt:instanceID>xmp.iid:9abfa668-2609-c146-aeb5-945099e7e6e3</stEvt:instanceID>
                  <stEvt:when>2017-04-11T01:59:07-05:00</stEvt:when>
                  <stEvt:softwareAgent>Adobe Illustrator CC (Windows)</stEvt:softwareAgent>
                  <stEvt:changed>/</stEvt:changed>
               </rdf:li>
            </rdf:Seq>
         </xmpMM:History>
         <illustrator:StartupProfile>Print</illustrator:StartupProfile>
         <xmpTPg:HasVisibleOverprint>False</xmpTPg:HasVisibleOverprint>
         <xmpTPg:HasVisibleTransparency>True</xmpTPg:HasVisibleTransparency>
         <xmpTPg:NPages>1</xmpTPg:NPages>
         <xmpTPg:MaxPageSize rdf:parseType="Resource">
            <stDim:w>155.705994</stDim:w>
            <stDim:h>74.254028</stDim:h>
            <stDim:unit>Pixels</stDim:unit>
         </xmpTPg:MaxPageSize>
         <xmpTPg:PlateNames>
            <rdf:Seq>
               <rdf:li>Cyan</rdf:li>
               <rdf:li>Magenta</rdf:li>
               <rdf:li>Yellow</rdf:li>
               <rdf:li>Black</rdf:li>
            </rdf:Seq>
         </xmpTPg:PlateNames>
         <xmpTPg:SwatchGroups>
            <rdf:Seq>
               <rdf:li rdf:parseType="Resource">
                  <xmpG:groupName>Grupo de muestras por defecto</xmpG:groupName>
                  <xmpG:groupType>0</xmpG:groupType>
               </rdf:li>
            </rdf:Seq>
         </xmpTPg:SwatchGroups>
         <pdf:Producer>Adobe PDF library 10.01</pdf:Producer>
      </rdf:Description>
   </rdf:RDF>
</x:xmpmeta>
                                                                                                    
                                                                                                    
                                                                                                    
                                                                                                    
                                                                                                    
                                                                                                    
                                                                                                    
                                                                                                    
                                                                                                    
                                                                                                    
                                                                                                    
                                                                                                    
                                                                                                    
                                                                                                    
                                                                                                    
                                                                                                    
                                                                                                    
                                                                                                    
                                                                                                    
                                                                                                    
                           
<?xpacket end="w"?>
	</metadata>
<g>
	
		<rect id="XMLID_281_" x="0.541" y="0" opacity="0.5" fill="#FFFFFF" enable-background="new    " width="154.914" height="74.254"/>
	<rect id="XMLID_266_" x="0" y="0" width="155.336" height="48.154"/>
	<rect id="XMLID_277_" x="0" y="57.455" fill="none" width="155.706" height="13.102"/>
	<g enable-background="new    ">
		<path d="M30.673,57.457h2.906c0.655,0,1.155,0.05,1.499,0.15c0.462,0.136,0.857,0.378,1.187,0.726
			c0.33,0.347,0.58,0.772,0.752,1.275s0.258,1.123,0.258,1.861c0,0.647-0.081,1.206-0.242,1.676
			c-0.197,0.572-0.478,1.036-0.843,1.391c-0.276,0.269-0.648,0.479-1.117,0.629c-0.351,0.11-0.82,0.166-1.407,0.166h-2.992V57.457z
			 M32.263,58.789v5.216h1.187c0.444,0,0.765-0.025,0.961-0.076c0.258-0.064,0.472-0.173,0.642-0.327
			c0.17-0.154,0.309-0.407,0.417-0.76s0.161-0.834,0.161-1.442s-0.054-1.076-0.161-1.402c-0.107-0.325-0.258-0.58-0.451-0.762
			c-0.193-0.184-0.438-0.307-0.736-0.371c-0.222-0.05-0.657-0.075-1.305-0.075H32.263z"/>
		<path d="M38.623,65.331v-7.874h5.838v1.332h-4.249v1.745h3.953v1.327h-3.953v2.144h4.399v1.326H38.623z"/>
		<path d="M45.557,62.769l1.547-0.15c0.093,0.52,0.282,0.901,0.566,1.145c0.285,0.243,0.669,0.365,1.152,0.365
			c0.512,0,0.898-0.108,1.157-0.325c0.26-0.217,0.39-0.47,0.39-0.76c0-0.187-0.055-0.345-0.164-0.476
			c-0.109-0.131-0.3-0.244-0.572-0.341c-0.186-0.064-0.61-0.179-1.273-0.344c-0.852-0.211-1.45-0.471-1.794-0.778
			c-0.483-0.434-0.725-0.962-0.725-1.585c0-0.401,0.114-0.776,0.341-1.125c0.227-0.35,0.555-0.615,0.982-0.798
			c0.428-0.183,0.945-0.273,1.55-0.273c0.988,0,1.732,0.216,2.231,0.649c0.5,0.434,0.762,1.012,0.787,1.735l-1.59,0.069
			c-0.068-0.404-0.214-0.695-0.438-0.873c-0.224-0.177-0.56-0.266-1.007-0.266c-0.462,0-0.824,0.095-1.085,0.284
			c-0.168,0.122-0.252,0.285-0.252,0.489c0,0.187,0.079,0.346,0.236,0.478c0.201,0.169,0.688,0.344,1.461,0.527
			c0.773,0.182,1.346,0.371,1.716,0.566c0.371,0.195,0.661,0.462,0.87,0.8c0.21,0.339,0.314,0.757,0.314,1.255
			c0,0.451-0.125,0.873-0.376,1.268c-0.25,0.394-0.605,0.687-1.063,0.878s-1.029,0.287-1.713,0.287c-0.996,0-1.76-0.23-2.293-0.69
			S45.661,63.649,45.557,62.769z"/>
		<path d="M58.334,62.437l1.542,0.488c-0.236,0.859-0.629,1.498-1.179,1.915c-0.55,0.417-1.247,0.626-2.092,0.626
			c-1.045,0-1.905-0.357-2.578-1.072c-0.673-0.714-1.01-1.69-1.01-2.93c0-1.311,0.338-2.328,1.015-3.054
			c0.677-0.725,1.566-1.087,2.669-1.087c0.963,0,1.746,0.284,2.347,0.854c0.358,0.337,0.626,0.82,0.806,1.45l-1.574,0.376
			c-0.093-0.408-0.288-0.73-0.583-0.967c-0.296-0.236-0.655-0.354-1.077-0.354c-0.583,0-1.057,0.21-1.421,0.628
			c-0.363,0.42-0.545,1.098-0.545,2.036c0,0.995,0.179,1.704,0.537,2.127s0.824,0.634,1.396,0.634c0.422,0,0.786-0.135,1.09-0.402
			C57.983,63.435,58.202,63.013,58.334,62.437z"/>
		<path d="M68.341,65.331h-1.729l-0.688-1.789h-3.147l-0.65,1.789H60.44l3.067-7.874h1.681L68.341,65.331z M65.414,62.216
			l-1.085-2.922l-1.063,2.922H65.414z"/>
		<path d="M69.189,65.331v-7.874h3.346c0.841,0,1.453,0.07,1.834,0.212c0.381,0.142,0.687,0.394,0.916,0.755
			s0.344,0.775,0.344,1.241c0,0.59-0.174,1.078-0.521,1.463s-0.867,0.628-1.558,0.729c0.344,0.2,0.627,0.42,0.852,0.66
			c0.224,0.24,0.525,0.666,0.905,1.278l0.961,1.536h-1.901l-1.149-1.713c-0.408-0.613-0.688-0.999-0.838-1.158
			s-0.31-0.269-0.478-0.327c-0.168-0.06-0.435-0.089-0.8-0.089h-0.322v3.287H69.189z M70.779,60.787h1.176
			c0.763,0,1.239-0.032,1.429-0.097s0.338-0.176,0.446-0.333s0.161-0.354,0.161-0.591c0-0.265-0.071-0.479-0.212-0.642
			c-0.142-0.163-0.341-0.267-0.599-0.31c-0.129-0.018-0.516-0.026-1.16-0.026h-1.241V60.787z"/>
		<path d="M80.791,62.437v-1.327h3.427v3.137c-0.333,0.322-0.815,0.606-1.447,0.852s-1.272,0.368-1.92,0.368
			c-0.824,0-1.542-0.173-2.154-0.519c-0.612-0.346-1.072-0.84-1.38-1.482s-0.462-1.342-0.462-2.098c0-0.82,0.172-1.549,0.516-2.187
			c0.344-0.637,0.847-1.126,1.509-1.466c0.505-0.262,1.134-0.392,1.886-0.392c0.978,0,1.741,0.204,2.291,0.614
			c0.549,0.41,0.902,0.977,1.061,1.7l-1.579,0.295c-0.111-0.387-0.319-0.691-0.626-0.915c-0.306-0.224-0.688-0.336-1.146-0.336
			c-0.695,0-1.247,0.22-1.657,0.661c-0.41,0.439-0.615,1.094-0.615,1.96c0,0.935,0.208,1.636,0.623,2.103
			c0.416,0.468,0.96,0.701,1.633,0.701c0.333,0,0.667-0.065,1.002-0.196s0.622-0.289,0.862-0.476v-0.998H80.791z"/>
		<path d="M92.785,65.331h-1.729l-0.688-1.789H87.22l-0.65,1.789h-1.687l3.067-7.874h1.681L92.785,65.331z M89.857,62.216
			l-1.085-2.922l-1.063,2.922H89.857z"/>
		<path d="M93.633,65.331v-7.874h3.346c0.842,0,1.453,0.07,1.835,0.212c0.381,0.142,0.687,0.394,0.915,0.755
			c0.229,0.361,0.344,0.775,0.344,1.241c0,0.59-0.174,1.078-0.521,1.463c-0.348,0.385-0.867,0.628-1.558,0.729
			c0.344,0.2,0.627,0.42,0.852,0.66c0.224,0.24,0.525,0.666,0.904,1.278l0.962,1.536h-1.901l-1.149-1.713
			c-0.408-0.613-0.688-0.999-0.838-1.158s-0.31-0.269-0.479-0.327c-0.168-0.06-0.435-0.089-0.8-0.089h-0.322v3.287H93.633z
			 M95.223,60.787h1.176c0.763,0,1.239-0.032,1.429-0.097c0.19-0.064,0.339-0.176,0.446-0.333s0.161-0.354,0.161-0.591
			c0-0.265-0.071-0.479-0.212-0.642c-0.142-0.163-0.342-0.267-0.6-0.31c-0.129-0.018-0.516-0.026-1.16-0.026h-1.24V60.787z"/>
		<path d="M104.627,65.331v-7.874h2.552c0.967,0,1.597,0.039,1.891,0.118c0.451,0.118,0.829,0.375,1.133,0.771
			c0.305,0.396,0.457,0.907,0.457,1.534c0,0.482-0.088,0.89-0.264,1.219c-0.175,0.329-0.398,0.588-0.668,0.776
			c-0.271,0.188-0.546,0.313-0.825,0.373c-0.379,0.075-0.929,0.112-1.648,0.112h-1.037v2.971H104.627z M106.217,58.789v2.234h0.87
			c0.627,0,1.046-0.041,1.257-0.124c0.212-0.082,0.377-0.211,0.497-0.387c0.12-0.175,0.18-0.379,0.18-0.611
			c0-0.287-0.084-0.523-0.252-0.709c-0.169-0.187-0.382-0.303-0.64-0.35c-0.189-0.036-0.571-0.054-1.144-0.054H106.217z"/>
		<path d="M111.959,57.457h2.905c0.655,0,1.155,0.05,1.499,0.15c0.462,0.136,0.857,0.378,1.187,0.726
			c0.33,0.347,0.58,0.772,0.752,1.275s0.258,1.123,0.258,1.861c0,0.647-0.08,1.206-0.241,1.676
			c-0.197,0.572-0.479,1.036-0.844,1.391c-0.275,0.269-0.647,0.479-1.117,0.629c-0.351,0.11-0.819,0.166-1.407,0.166h-2.991V57.457z
			 M113.549,58.789v5.216h1.187c0.444,0,0.765-0.025,0.962-0.076c0.258-0.064,0.472-0.173,0.642-0.327s0.309-0.407,0.416-0.76
			s0.161-0.834,0.161-1.442s-0.054-1.076-0.161-1.402c-0.107-0.325-0.258-0.58-0.451-0.762c-0.193-0.184-0.438-0.307-0.735-0.371
			c-0.223-0.05-0.657-0.075-1.306-0.075H113.549z"/>
		<path d="M119.919,65.331v-7.874h5.397v1.332h-3.808v1.864h3.287v1.332h-3.287v3.346H119.919z"/>
	</g>
	<g id="XMLID_167_">
		<path id="XMLID_302_" fill="#FFFFFF" d="M76.332,15.24h-4.789c-0.738,0-1.337,0.598-1.337,1.337s0.598,1.337,1.337,1.337h4.789
			c0.738,0,1.337-0.598,1.337-1.337S77.071,15.24,76.332,15.24z"/>
		<path id="XMLID_297_" fill="#FFFFFF" d="M76.332,20.795h-4.789c-0.738,0-1.337,0.598-1.337,1.337s0.598,1.337,1.337,1.337h4.789
			c0.738,0,1.337-0.598,1.337-1.337S77.071,20.795,76.332,20.795z"/>
		<path id="XMLID_296_" fill="#FFFFFF" d="M81.952,30.154v1.302h0.688c0.834,0,0.834-0.499,0.834-0.663c0-0.158,0-0.639-0.834-0.639
			H81.952L81.952,30.154z"/>
		<path id="XMLID_186_" fill="#FFFFFF" d="M92.105,27.694H89.93V14.145c0-0.351-0.139-0.687-0.387-0.934l-5.247-5.247
			c-0.248-0.248-0.584-0.387-0.934-0.387H67.573c-1.431,0-2.594,1.164-2.594,2.594v27.811c0,1.431,1.164,2.594,2.594,2.594h19.763
			c1.43,0,2.594-1.164,2.594-2.594v-2.678h2.175c1.131,0,2.047-0.917,2.047-2.047V29.74C94.152,28.611,93.236,27.694,92.105,27.694z
			 M87.113,37.688H67.796V10.465h13.731v3.883c0,0.941,0.762,1.703,1.702,1.703h3.884v11.643h-6.61
			c-1.131,0-2.047,0.917-2.047,2.047v3.517c0,1.131,0.917,2.047,2.047,2.047h6.61L87.113,37.688L87.113,37.688z M84.32,30.793
			c0,0.93-0.644,1.508-1.68,1.508h-0.688v0.8c0,0.206-0.167,0.374-0.374,0.374H81.48c-0.207,0-0.374-0.168-0.374-0.374v-3.419
			c0-0.206,0.167-0.374,0.374-0.374h1.159C83.676,29.308,84.32,29.877,84.32,30.793z M86.44,33.475h-1.345
			c-0.207,0-0.374-0.168-0.374-0.374v-3.419c0-0.206,0.167-0.374,0.374-0.374h1.345c1.172,0,2.125,0.936,2.125,2.086
			C88.565,32.542,87.612,33.475,86.44,33.475z M91.8,29.78c0,0.207-0.167,0.374-0.374,0.374h-1.519v0.896h1.294
			c0.206,0,0.374,0.167,0.374,0.374v0.098c0,0.206-0.168,0.374-0.374,0.374h-1.294v1.206c0,0.206-0.167,0.374-0.374,0.374h-0.098
			c-0.207,0-0.374-0.168-0.374-0.374v-3.419c0-0.206,0.167-0.374,0.374-0.374h1.99c0.207,0,0.374,0.168,0.374,0.374L91.8,29.78
			L91.8,29.78z"/>
		<path id="XMLID_185_" fill="#FFFFFF" d="M86.44,30.154h-0.874v2.476h0.874c0.705,0,1.279-0.554,1.279-1.235
			C87.719,30.71,87.145,30.154,86.44,30.154z"/>
	</g>
</g>
</svg>
