<?xml version="1.0" encoding="utf-8"?>
<!-- Generator: Adobe Illustrator 17.0.0, SVG Export Plug-In . SVG Version: 6.00 Build 0)  -->
<!DOCTYPE svg PUBLIC "-//W3C//DTD SVG 1.1//EN" "http://www.w3.org/Graphics/SVG/1.1/DTD/svg11.dtd" [
	<!ENTITY ns_extend "http://ns.adobe.com/Extensibility/1.0/">
	<!ENTITY ns_ai "http://ns.adobe.com/AdobeIllustrator/10.0/">
	<!ENTITY ns_graphs "http://ns.adobe.com/Graphs/1.0/">
	<!ENTITY ns_vars "http://ns.adobe.com/Variables/1.0/">
	<!ENTITY ns_imrep "http://ns.adobe.com/ImageReplacement/1.0/">
	<!ENTITY ns_sfw "http://ns.adobe.com/SaveForWeb/1.0/">
	<!ENTITY ns_custom "http://ns.adobe.com/GenericCustomNamespace/1.0/">
	<!ENTITY ns_adobe_xpath "http://ns.adobe.com/XPath/1.0/">
]>
<svg version="1.1" id="Capa_1" xmlns:x="&ns_extend;" xmlns:i="&ns_ai;" xmlns:graph="&ns_graphs;"
	 xmlns="http://www.w3.org/2000/svg" xmlns:xlink="http://www.w3.org/1999/xlink" x="0px" y="0px" width="154.914px"
	 height="74.254px" viewBox="0 0 154.914 74.254" enable-background="new 0 0 154.914 74.254" xml:space="preserve">
<metadata><?xpacket begin="﻿" id="W5M0MpCehiHzreSzNTczkc9d"?>
<x:xmpmeta xmlns:x="adobe:ns:meta/" x:xmptk="Adobe XMP Core 5.5-c014 79.151739, 2013/04/03-12:12:15        ">
   <rdf:RDF xmlns:rdf="http://www.w3.org/1999/02/22-rdf-syntax-ns#">
      <rdf:Description rdf:about=""
            xmlns:dc="http://purl.org/dc/elements/1.1/"
            xmlns:xmp="http://ns.adobe.com/xap/1.0/"
            xmlns:xmpGImg="http://ns.adobe.com/xap/1.0/g/img/"
            xmlns:xmpMM="http://ns.adobe.com/xap/1.0/mm/"
            xmlns:stRef="http://ns.adobe.com/xap/1.0/sType/ResourceRef#"
            xmlns:stEvt="http://ns.adobe.com/xap/1.0/sType/ResourceEvent#"
            xmlns:illustrator="http://ns.adobe.com/illustrator/1.0/"
            xmlns:xmpTPg="http://ns.adobe.com/xap/1.0/t/pg/"
            xmlns:stDim="http://ns.adobe.com/xap/1.0/sType/Dimensions#"
            xmlns:xmpG="http://ns.adobe.com/xap/1.0/g/"
            xmlns:pdf="http://ns.adobe.com/pdf/1.3/">
         <dc:format>image/svg+xml</dc:format>
         <dc:title>
            <rdf:Alt>
               <rdf:li xml:lang="x-default">Imprimir</rdf:li>
            </rdf:Alt>
         </dc:title>
         <xmp:MetadataDate>2017-04-11T01:59:07-05:00</xmp:MetadataDate>
         <xmp:ModifyDate>2017-04-11T01:59:07-05:00</xmp:ModifyDate>
         <xmp:CreateDate>2017-04-11T01:59:07-05:00</xmp:CreateDate>
         <xmp:CreatorTool>Adobe Illustrator CC (Windows)</xmp:CreatorTool>
         <xmp:Thumbnails>
            <rdf:Alt>
               <rdf:li rdf:parseType="Resource">
                  <xmpGImg:width>256</xmpGImg:width>
                  <xmpGImg:height>124</xmpGImg:height>
                  <xmpGImg:format>JPEG</xmpGImg:format>
                  <xmpGImg:image>/9j/4AAQSkZJRgABAgEASABIAAD/7QAsUGhvdG9zaG9wIDMuMAA4QklNA+0AAAAAABAASAAAAAEA&#xA;AQBIAAAAAQAB/+4ADkFkb2JlAGTAAAAAAf/bAIQABgQEBAUEBgUFBgkGBQYJCwgGBggLDAoKCwoK&#xA;DBAMDAwMDAwQDA4PEA8ODBMTFBQTExwbGxscHx8fHx8fHx8fHwEHBwcNDA0YEBAYGhURFRofHx8f&#xA;Hx8fHx8fHx8fHx8fHx8fHx8fHx8fHx8fHx8fHx8fHx8fHx8fHx8fHx8fHx8f/8AAEQgAfAEAAwER&#xA;AAIRAQMRAf/EAaIAAAAHAQEBAQEAAAAAAAAAAAQFAwIGAQAHCAkKCwEAAgIDAQEBAQEAAAAAAAAA&#xA;AQACAwQFBgcICQoLEAACAQMDAgQCBgcDBAIGAnMBAgMRBAAFIRIxQVEGE2EicYEUMpGhBxWxQiPB&#xA;UtHhMxZi8CRygvElQzRTkqKyY3PCNUQnk6OzNhdUZHTD0uIIJoMJChgZhJRFRqS0VtNVKBry4/PE&#xA;1OT0ZXWFlaW1xdXl9WZ2hpamtsbW5vY3R1dnd4eXp7fH1+f3OEhYaHiImKi4yNjo+Ck5SVlpeYmZ&#xA;qbnJ2en5KjpKWmp6ipqqusra6voRAAICAQIDBQUEBQYECAMDbQEAAhEDBCESMUEFURNhIgZxgZEy&#xA;obHwFMHR4SNCFVJicvEzJDRDghaSUyWiY7LCB3PSNeJEgxdUkwgJChgZJjZFGidkdFU38qOzwygp&#xA;0+PzhJSktMTU5PRldYWVpbXF1eX1RlZmdoaWprbG1ub2R1dnd4eXp7fH1+f3OEhYaHiImKi4yNjo&#xA;+DlJWWl5iZmpucnZ6fkqOkpaanqKmqq6ytrq+v/aAAwDAQACEQMRAD8A5ZnYPNuxV2KuxV2KuxV2&#xA;KuxV2KuxV2KuxV2KuxV2KuxV2KuxV2KuxV2KuxV2KuxV2KuxV2KuxV2KuxV2KuxV2KuxV2KuxV2K&#xA;uxV2KuxV2KuxV2KuxV2KuxV2KvdvJf5Wfli35dad5n803M0BvOXqztMY41b1WRFUKvgnfNTn1WXx&#xA;TCHR2OLT4/DEpIj/AAj/AM41f9Xr/p6k/wCacj42q7vsT4en70P50/Kz8sV/LrUfM/la5mnNnx9K&#xA;dZjJGzeqqOrBl8H7ZLBqsviiE+qMunx+GZReE5tnXOxV2KuxV2KuxV2KuxV2KuxV2KuxV2KuxV2K&#xA;uxV2KuxV2KuxV2KuxV2KuxV2KuxV2KuxV2KvdvMH/rMej/8AGWP/AKiZc1GP/Gz+OjsZ/wCLh4Tm&#xA;3dc928v/APrMesf8ZZP+omLNRk/xsfjo7GH+Ll4Tm3dc7FXYq7FXYq7FXYq7FXYq7FXYq7FXYq7F&#xA;XYq7FXYq7FXYq7FXYq7FXYq7FXYq7FXYq7FXYq+j/LNr5P8ANH5K6P5d1LX7bTXQl5gZoVlRo55G&#xA;ClJGFKg5pMpnjzmQiS7TGIzxCJNIL/oXPyT+j/0l/ip/0d/y21g9D7XD+85cPt/D167ZL+Usl1w7&#xA;sfyMKvi2Rvma18n+V/yV1jy7puv22pO5DwgTQtK7STxsVCRsa0AyOIzyZxIxIZZBGGIxBt84Zu3V&#xA;uxV2KuxV2KuxV2KuxV2KuxV2KuxV2KuxV2KuxV2KuxV2KuxV2KuxV2KuxV2KuxVE6XYS6jqVpp8T&#xA;BZbyaOCNm+yGlcICadqnIylwgnuTEWae2j/nFfUO/mKL/pGb/qpmr/lUfzftdh/J573f9Cr3/wD1&#xA;MUX/AEit/wBVMH8qj+b9q/yee93/AEKvf/8AUxRf9Irf9VMf5VH837V/k8970P8A5VXcf8qi/wAA&#xA;/pFPW/6uHpHj/vb9b/u+Venw/azD/NjxvEr4fCnJ/L/uuC/xdvPP+hV7/wD6mKL/AKRW/wCqmZn8&#xA;qj+b9rjfyee93/Qq9/8A9TFF/wBIrf8AVTH+VR/N+1f5PPe4/wDOK+odvMUX/SM3/VTD/Ko/m/av&#xA;8nnveJapYS6dqV3p8rBpbOaSCRl+yWicoSK9qjNpGXEAe918hRpDZJDsVdirsVdirsVdirsVdirs&#xA;VdirsVdirsVdirsVdirsVdirsVdirsVRuiaRd6zrFlpNpx+s30yW8Jc0UNIwUFjvsK75CcxGJJ6M&#xA;oRMiAOr2jQv+cbPNWna5p2oS6pYvFZ3MNw6L63IrFIHIFU67ZrMnacJRIo7hzoaGQINhl35wfk/r&#xA;nnfXLLUNPvba2itrb6u6XHqci3qM9RwVtvizG0esjiiQQebfqdMchBBeD/mF+XWr+R9QtrPUZ4Lk&#xA;3cRmiktyxFA3Egh1U1zb6fUxygkdHXZsBxmiyXyp/wA4/eafMXl+z1qC+s7aC9UyRRSmUuFDFQW4&#xA;ow3pXrlGXtCEJGNHZtx6OUo3Yew/8qu1f/lS/wDgP63b/pH/AJavj9D/AHu+tfy8/sbdOuaz81Hx&#xA;/Erb9lOd+XPhcHX9tvHfN35BeZvLPl671y5v7O4t7MK0sURl5kM4T4eSAbFvHNnh7QhOQiAd3Bya&#xA;OUI3YY3+Xv5dav541C5s9OngtjaRCaWS4LAULcQAEVjXL9RqY4gCerVhwHIaD3j8n/yf1zyRrl7q&#xA;GoXttcxXNt9XRLf1OQb1Fep5qu3w5qNZrI5YgAHm7HTaY4ySSxHXf+cbPNWo65qOoRapYpFeXM1w&#xA;iN63ILLIXANE675k4+04RiBR2DRPQyJJsPF9b0m60fWL3Srvj9ZsZpLeYoaqWjYqSp22NNs2cJiU&#xA;QR1cCcTEkHogsmh2KuxV2KuxV2KuxV2KuxV2KuxV2KuxV2KuxV2KuxV2KuxV2KuxVk/5X/8AkxPL&#xA;n/bQt/8AiYzH1X91L3Nun/vB72df85Gatqlr+YEcVreTwR/UIW4RSOi1Lyb0UjMXs2AOPcdXJ1si&#xA;J7Ho890DX9dbXdOVtRumVrqEMpmkIIMi7H4szMmOPCdhycWEzY3en/8AOUv/AB39D/5hZf8Ak5mB&#xA;2V9Mve5faH1BNfM11dWv/ON2iS20zwSgWwEkbFGoXau6kHK8QB1RvzZ5DWAPDP8AEOv/APVzu/8A&#xA;kfJ/zVm28OPcHX8cu97Xo91dXX/ONGsS3MzzymVwZJGLtQXMVN2JOauYA1Qr8bOfE3pygv8AnFr/&#xA;AI7+uf8AMLF/ycyXav0x97Hs/wCovKL/AMwa8L+5A1K6AErgATyfzH/KzYxxxrkHDlOV83pX/OOe&#xA;rapdfmBJFdXk88f1CZuEsjutQ8e9GJzB7SgBj2HVy9FIme56MF/ND/yYnmP/ALaFx/xM5laX+6j7&#xA;nG1H94fexjMhqdirsVdirsVdirsVdirsVdirsVdirsVdirsVdirsVdirsVdirsVZP+V//kxPLn/b&#xA;Qt/+JjMfVf3Uvc26f+8HveyfnP8AlH5x82eb01TR44HtFtIoCZZQjc0ZydiP8oZrdFrIY4VLnbn6&#xA;rTTnKww7SP8AnHz8xrXVbK5lhtRFBPFJIROpPFHDGgp4DMmfaOIgjdx46LICE0/5yl/47+h/8wsv&#xA;/JzK+yvpl72faH1BlLeVNX81fkDoek6QqPeMkEgEjhF4xu3Lc5j+LHHqZSlybvDM8AAeb/8AQuf5&#xA;l/75tP8ApIX+mZ38pYvNxfyWR6Bd+U9X8rf84961pOrKi3isZCI2Drxe4jI3GYYzRyakSjy/Y5Jx&#xA;mGAgse/5xa/47+uf8wsX/JzLu1fpj72rs/6ikt3/AM47/mRLdzSpDa8XkZlrcL0JJHbLR2jirqwO&#xA;iyWzf8mPyj84+U/N76prEcCWjWksAMUodubshGwH+ScxdbrIZIVHnbkaXTThKy8b/ND/AMmJ5j/7&#xA;aFx/xM5stL/dR9zgaj+8PvYxmQ1OxV2KuxV2KuxV2KuxV2KuxV2KuxV2KuxV2KuxV2KuxV2KuxV2&#xA;Kr4J57eeOeCRop4WEkUqEqyupqrKRuCD0wEXsVBplg/N38ygAP8AEN3t4sD/AAzH/J4v5obvzOTv&#xA;d/yt78y/+phuv+CX+mP5PF/NC/mcnekOu+Y9d167W71m+lvrhFEaSTNy4oDXio6AVPbLseOMBURT&#xA;XOZkbJtMdH/MTzvo1ilhpms3NrZxkmOBHqi8jU8QQaVJrtlc9NjkbIFso5pxFAo3/lb35l/9TDdf&#xA;8Ev9Mj+TxfzQy/M5O9Bax+YnnfWbF7DU9ZubqzkIMkDvRG4mo5AAVoRXfJQ02OJsAWxlmnIUSl+h&#xA;eY9d0C6a60a+msbh14O8LceSnejDoRXxyzJjjMVIWxhOUTYNJ7/yt78y/wDqYbr/AIJf6ZT+Txfz&#xA;Q2fmcne4/m7+ZRBH+IbvfwYD+GP5PF/NC/mcnexOeee4nknnkaWeZjJLK5LMzsaszE7kk9cyAK2D&#xA;STazCrsVdirsVdirsVdirsVdirsVRH6Pv/8Alml/4Bv6ZHiHemi79H3/APyzS/8AAN/THiHetF36&#xA;Pv8A/lml/wCAb+mPEO9aLv0ff/8ALNL/AMA39MeId60Xfo+//wCWaX/gG/pjxDvWi79H3/8AyzS/&#xA;8A39MeId60Xfo+//AOWaX/gG/pjxDvWi79H3/wDyzS/8A39MeId60Xfo+/8A+WaX/gG/pjxDvWi7&#xA;9H3/APyzS/8AAN/THiHetF36Pv8A/lml/wCAb+mPEO9aLv0ff/8ALNL/AMA39MeId60Xfo+//wCW&#xA;aX/gG/pjxDvWi79H3/8AyzS/8A39MeId60Xfo+//AOWaX/gG/pjxDvWi79H3/wDyzS/8A39MeId6&#xA;0Xfo+/8A+WaX/gG/pjxDvWi79H3/APyzS/8AAN/THiHetF36Pv8A/lml/wCAb+mPEO9aLv0ff/8A&#xA;LNL/AMA39MeId60Xfo+//wCWaX/gG/pjxDvWi79H3/8AyzS/8A39MeId60Xfo+//AOWaX/gG/pjx&#xA;DvWi79H3/wDyzS/8A39MeId60Xfo+/8A+WaX/gG/pjxDvWi79H3/APyzS/8AAN/THiHetF36Pv8A&#xA;/lml/wCAb+mPEO9aLv0ff/8ALNL/AMA39MeId60Xfo+//wCWaX/gG/pjxDvWi79H3/8AyzS/8A39&#xA;MeId60Xfo+//AOWaX/gG/pjxDvWi79H3/wDyzS/8A39MeId60X3pnIvRuxV2KuxV2KuxV2KuxV2K&#xA;uxV2KuxV2KuxV2KuxV2KuxV2KuxV2KuxV2KuxV2KuxV2KuxV2KuxV2KuxV2KuxV2KoDXNe0XQdOk&#xA;1LWb2HT9PiKrJdXDiONS5CqCzbbk0xVCxec/Kc3l1vMsWr2j6AgYvqglQ24Cv6bVkrx2f4fniqvo&#xA;HmXy/wCYrE3+hahBqdkHMRuLZ1kTmoBZeS7VAYYqpaH5u8r6/PeW+i6ra6jPp7CO+jtpUlaFmLAB&#xA;wpPGpRvuxVAa3+Zv5e6DqMmm6z5isNP1CIK0lrcTpHIocBlJVjXcGuKpxouu6JrlguoaLf2+pWLk&#xA;qtzaSpNGWHVeSFhUdx2xVDaD5v8AK/mCW7i0PVbXUpLBhHeraypKYmYsFD8SaV4NT5YqjdU1TTtK&#xA;0+fUdSuY7Owtl53FzMwSNF6VZjsBiqQaV+an5a6tfR2Gm+aNMur2Y8YbaO6iMjsf2UXlVj7DFUX5&#xA;j8+eS/LU8MHmDWrPS5rhS8Ed1MkTOoNCVDEVFcVUdC/MryB5g1AadonmCw1G/ZWdba2nSSQqu7Hi&#xA;prQYqn91dWtpbSXV3MlvbQqXmnlYIiKNyzMxAAHicVY9oX5m/l5r+onTNF8xaff6gK8bWC4jaR+I&#xA;5MY1r8YA3JWuKo7zL5y8qeWLdLjzDq1rpcUtRCbqVYzIVFWEak8nI/yRiq/y75r8s+ZLRrvQNUtd&#xA;UtkPGSS1lSXgx/ZcKSVPscVd5d81eWvMlpJd6BqdtqltE/pSzWsqyqrgBuLFSaGhBxVK5vzU/LeH&#xA;TLbVJvMunR6ddvJFa3bXEYikeKnqKjVoSvIVxVT0782/yx1K+gsLDzRpt1e3TrFb28VzGzyOxoqq&#xA;oNSScVUX/Oj8po3ZH83aUroSrKbqOoI2I64qmH/Kx/IQ06y1I6/YjT9SmNvYXZnQRTTKeLJG1aMw&#xA;O2Kpjq3mXy/pF1YWmqahBZXOqTC306GZ1Rp5iVURxg/aarqKDxxVCyeefJ0b6qkms2ivoYDawplU&#xA;G1DbAzb/AAV98VQOl/mt+Weq30Vhp3mjTLm9nIWC3S6i5yMTQKilqsx8Bviqf6tq+laPYS6jqt5D&#xA;YWEArNdXMixRKCaCruQNzsMVSjy3+Y3kPzNcPa6Br9jqV0gLNbQTo0vFTQt6deRX3pTFWRYq7FXY&#xA;q7FXYq7FXYq8g/5yw/8AJJav/wAZ7P8A6iUxV88adq+oReQ7v8lBK36R1PzPYxW1epsLwLIGA8BL&#xA;FG5/18VZ3+TnnceSv+cWvMGuo/G9S/urfTt6E3VxHDHER0rwLcz7KcVYt+R+s6R+X/5keUjb63Bq&#xA;Np5w05bbXo4ZVk+q31xKWhjkVa8WRvSUlvF8VZH5/wBR8u2H/OTPmObXvKlx5wtG0m3SPTLW2W7e&#xA;OUpbETlG6Kqhl5f5Xviqj5KuPMH5a+Q/zK86zaPceV9O1p47fypot0XWVJpXlVGCScX/AHKSq1WA&#xA;5BTTpiqTfkVrGj+QPzL8qw2utW+pWXnHTI7fWkhlWQ2uoTuWiicKdmR/TjqT+02KvpH8/v8AyTXm&#xA;z/mBb/iS4q8b1/8AKryBN/zi/aeZF0i3tdfttHtb5NUgURTNOeHL1GH2+dSDyr1233xVi3nXVtV1&#xA;7Uvyb1C/0keatRu9K/faVM6x/XnWQrxd5FZQX48iSOuKvbPyl0uVPM8k1z+Udr5G9K1kaHWYrm2u&#xA;HZy6L6AWGKNhzVmatf2ad8VST/nLG7ubix8m+WGne30nzBrEcOqSIeNY0aNVVidqfvS+/dQe2Kp7&#xA;r3/OPn5OW155fu7c/wCFbvTblPqFxZXCW81zKv7xI2ef1DK/wcq/bpXfFWF+VfL+jfmH/wA5G+eZ&#xA;vONumpR+XFS10jS7kc4ViV+Af0zswFC1DtWSuKrhoel+Qf8AnKvQNN8pQrZab5l02VtV0qA0iBC3&#xA;DclTcIoa2RwANqGlAcVeVf8AOPvmvWPy5vdO80Xx/wCdG8zXb6NqktTxguYArxSv2HES1B7pz8MV&#xA;exf84zeTfKnmb8l9PTzDpNrqqWt/etbrdxLKELsoYryBpXiMVSr/AJw68m+VNS8j3Wu3+k2t1rNj&#xA;rcq2eoSxK08QjtrZ0CORUcWcke5xVgv5O2V3PousPD+U1t58Uavcg6vPdW0DRH04v9GCzRSMQv26&#xA;1p8eKsr/AD18sy6p5I/Lby/b6DD5PutX1lrQaKjJLFay3T+kCXiVFapYOaL3xVjL/mFqXmLWvyp8&#xA;ueYlaLzd5S80Q6fqsUv23RLm2SKUnux9Mqxr1Xl+0MVTjWf+Or/zkN/xgtv+JtiqPm/KryDe/wDO&#xA;LUHmN9Lt7TX7bSvr0erRKI52mjckB2BHP1KcKNXrtvTFUpmv778xdd/Jjy35suJJdHv9Oe7v4XZl&#xA;+szQNPGrSMu7NKlqor1+M774qyD/AJyV8meV/IFl5W86eTLCDRNesdVit447FBCJozFJJ8SJs1DC&#xA;FJpuHIauKvpzFXYq7FXYq7FXYq7FWIfmx+X3/KwPJF55X+v/AKM+tyQyfXPR9fj6MqyU9PnFWvGn&#xA;2sVYjB/zjzpsf5raT5/bVOZ022gil036tQTT21r9VSf1fV+GgCNx4HdeuKpBaf8AOK5TypoflW88&#xA;0G50TTNXk1fULcWPp/XOaxIIifrDenxRHXl8X2+m26rIvzA/5xs8g+Y9DSy0GztPKuqRXEdxBq1l&#xA;aqZF4VBQqjwkg1/m2IB7YqnPl38qrvS/zSvvzAvNaF9d6hpEOlXFotr6KmSMW/O4D+rJQO1tXhx2&#xA;5faNN1WvzW/KX/lYl15ejvdV+q6Jo14L2+0r6v6ovSCo4NJ6qen8HNa8W+0cVSb8wP8AnGzyH5i0&#xA;aK18v2tr5U1S3uI7mHVrK1UyDhUFCqvCSDWv2tiAcVZr5z8oXPmnyDf+VrvUBFdajaLbT6ksFV9T&#xA;4eUog5rsxWvHnt44q8q/6Fm81XujWXlrXfzIvb7ylZrFH+hrexjtA0UBrGnMTSg8SARzVt6HsMVZ&#xA;B+YH5DT+YNZ8s6p5a8wf4VfyrbC10xIrJbsIq/YK8pogOKilCDiqb+TvIP5naPr8F/r35iy+YdMj&#xA;VxLpb6bBaiQshVT6qSuw4MeXTfFU0/NL8stE/MTyw2ianI9tJHILiwvoQDJBOoIDgH7SkMQy9x4G&#xA;hCrzjTf+cbNfv9c0i88/ed7rzVpmhPz0/TpImj5MGDVlkeWVjUqvLqzDblTFU+8/fkVdat5yHnfy&#xA;b5jm8p+aJIxDfTxRevDcoAqjmhZKHii1ryU8RtXfFVb8tfyPby15ou/OXmXXpvNHm67QxLqEyekk&#xA;MZAUrGnKTfiONagBdgBviqG8tf8AOPOk6b+Ump/l1qepfpSDUJ5bqLURb+g0EzKgidI/Vl3jaMH7&#xA;Y5DbpirJ/wAofy3/AOVd+TY/Lf6R/Snpzyz/AFv0fq9fVIPH0/Um6U68sVQv5KflR/yrLyrdaD+l&#xA;P0v9ZvpL76z6H1bj6kMUXDh6k1aejWvLv0xVhHlv/nHn8xPK9vd2nlr8zpNLsbu6kvZLZNIhkHqy&#xA;hVLcpLhj9lFH0YqyO+/JzzFq8HlFvMHm9tV1HytrKaw189ikRuUjkR1t+CTBY6cKc/i+WKqPnX/n&#xA;HzSPMX5oaJ+YFpqP6LvdNubW61C1W3Eq3jWcqSIefqR+mxROBajbU223VavfyE+s3X5h3H6d4f49&#xA;jjj4/Va/U/TJNa+sPWrX/IxVjkf/ADjH5ouNDtPLGs/mRe3flG2CIdGtrKO1DRxtzVfU9aUbNv8A&#xA;Gjb/ACxVmX5h/kV5e81aJolnpd1J5d1LyyEXQNTtAS1uqBQqFeSFhVFYHkGBFa9aqsd03/nHrX9T&#xA;8zabrn5jecp/NcejOJdO070Ft4BIpDcpAGYMKqKgKC1BU02xV7birsVdirsVdirsVdirsVdirsVd&#xA;irsVdirsVdirsVdirsVdirsVdirsVdirsVdirsVdirsVdirsVdirsVdirsVdirsVdirsVdirsVdi&#xA;rsVdirsVdirsVdirsVdirsVdirsVdirsVdirsVdirsVdirsVdirsVdirsVdirsVdirsVf//Z</xmpGImg:image>
               </rdf:li>
            </rdf:Alt>
         </xmp:Thumbnails>
         <xmpMM:InstanceID>xmp.iid:9abfa668-2609-c146-aeb5-945099e7e6e3</xmpMM:InstanceID>
         <xmpMM:DocumentID>xmp.did:9abfa668-2609-c146-aeb5-945099e7e6e3</xmpMM:DocumentID>
         <xmpMM:OriginalDocumentID>uuid:5D20892493BFDB11914A8590D31508C8</xmpMM:OriginalDocumentID>
         <xmpMM:RenditionClass>proof:pdf</xmpMM:RenditionClass>
         <xmpMM:DerivedFrom rdf:parseType="Resource">
            <stRef:instanceID>uuid:ff470bc6-f939-440e-8f31-27b0eb70075c</stRef:instanceID>
            <stRef:documentID>xmp.did:4de20fe2-e96f-dd46-b8bd-1606dc72d06f</stRef:documentID>
            <stRef:originalDocumentID>uuid:5D20892493BFDB11914A8590D31508C8</stRef:originalDocumentID>
            <stRef:renditionClass>proof:pdf</stRef:renditionClass>
         </xmpMM:DerivedFrom>
         <xmpMM:History>
            <rdf:Seq>
               <rdf:li rdf:parseType="Resource">
                  <stEvt:action>saved</stEvt:action>
                  <stEvt:instanceID>xmp.iid:9abfa668-2609-c146-aeb5-945099e7e6e3</stEvt:instanceID>
                  <stEvt:when>2017-04-11T01:59:07-05:00</stEvt:when>
                  <stEvt:softwareAgent>Adobe Illustrator CC (Windows)</stEvt:softwareAgent>
                  <stEvt:changed>/</stEvt:changed>
               </rdf:li>
            </rdf:Seq>
         </xmpMM:History>
         <illustrator:StartupProfile>Print</illustrator:StartupProfile>
         <xmpTPg:HasVisibleOverprint>False</xmpTPg:HasVisibleOverprint>
         <xmpTPg:HasVisibleTransparency>True</xmpTPg:HasVisibleTransparency>
         <xmpTPg:NPages>1</xmpTPg:NPages>
         <xmpTPg:MaxPageSize rdf:parseType="Resource">
            <stDim:w>54.650217</stDim:w>
            <stDim:h>26.195160</stDim:h>
            <stDim:unit>Millimeters</stDim:unit>
         </xmpTPg:MaxPageSize>
         <xmpTPg:PlateNames>
            <rdf:Seq>
               <rdf:li>Cyan</rdf:li>
               <rdf:li>Magenta</rdf:li>
               <rdf:li>Yellow</rdf:li>
               <rdf:li>Black</rdf:li>
            </rdf:Seq>
         </xmpTPg:PlateNames>
         <xmpTPg:SwatchGroups>
            <rdf:Seq>
               <rdf:li rdf:parseType="Resource">
                  <xmpG:groupName>Grupo de muestras por defecto</xmpG:groupName>
                  <xmpG:groupType>0</xmpG:groupType>
               </rdf:li>
            </rdf:Seq>
         </xmpTPg:SwatchGroups>
         <pdf:Producer>Adobe PDF library 10.01</pdf:Producer>
      </rdf:Description>
   </rdf:RDF>
</x:xmpmeta>
                                                                                                    
                                                                                                    
                                                                                                    
                                                                                                    
                                                                                                    
                                                                                                    
                                                                                                    
                                                                                                    
                                                                                                    
                                                                                                    
                                                                                                    
                                                                                                    
                                                                                                    
                                                                                                    
                                                                                                    
                                                                                                    
                                                                                                    
                                                                                                    
                                                                                                    
                                                                                                    
                           
<?xpacket end="w"?>
	</metadata>
<g>
	<rect id="XMLID_24_" opacity="0.5" fill="#FFFFFF" enable-background="new    " width="154.914" height="74.254"/>
	<rect id="XMLID_21_" y="0" fill="#154A8C" width="154.914" height="48.154"/>
	<rect id="XMLID_20_" x="0" y="57.455" fill="none" width="154.494" height="13.102"/>
	<g enable-background="new    ">
		<path d="M18.135,65.331v-7.874h2.379l1.429,5.371l1.413-5.371h2.385v7.874h-1.477v-6.198l-1.563,6.198H21.17l-1.558-6.198v6.198
			H18.135z"/>
		<path d="M34.42,65.331h-1.729l-0.688-1.789h-3.147l-0.65,1.789H26.52l3.067-7.874h1.681L34.42,65.331z M31.493,62.216
			l-1.085-2.922l-1.063,2.922H31.493z"/>
		<path d="M35.264,65.331v-7.874h2.551c0.967,0,1.597,0.039,1.891,0.118c0.451,0.118,0.829,0.375,1.133,0.771
			s0.457,0.907,0.457,1.534c0,0.482-0.088,0.89-0.263,1.219s-0.398,0.588-0.668,0.776c-0.271,0.188-0.545,0.313-0.825,0.373
			c-0.379,0.075-0.929,0.112-1.649,0.112h-1.037v2.971H35.264z M36.854,58.789v2.234h0.87c0.626,0,1.045-0.041,1.257-0.124
			c0.211-0.082,0.377-0.211,0.497-0.387c0.12-0.175,0.18-0.379,0.18-0.611c0-0.287-0.084-0.523-0.252-0.709
			c-0.168-0.187-0.381-0.303-0.639-0.35c-0.19-0.036-0.571-0.054-1.144-0.054L36.854,58.789L36.854,58.789z"/>
		<path d="M48.885,65.331h-1.729l-0.688-1.789H43.32l-0.65,1.789h-1.687l3.067-7.874h1.681L48.885,65.331z M45.958,62.216
			l-1.085-2.922l-1.063,2.922H45.958z"/>
		<path d="M52.371,57.457h2.906c0.655,0,1.155,0.05,1.499,0.15c0.462,0.136,0.857,0.378,1.187,0.726
			c0.33,0.347,0.58,0.772,0.752,1.275s0.258,1.123,0.258,1.861c0,0.647-0.081,1.206-0.242,1.676
			c-0.197,0.572-0.478,1.036-0.843,1.391c-0.276,0.269-0.648,0.479-1.117,0.629c-0.351,0.11-0.82,0.166-1.407,0.166h-2.992
			L52.371,57.457L52.371,57.457z M53.96,58.789v5.216h1.187c0.444,0,0.765-0.025,0.961-0.076c0.258-0.064,0.472-0.173,0.642-0.327
			s0.309-0.407,0.417-0.76s0.161-0.834,0.161-1.442s-0.054-1.076-0.161-1.402c-0.107-0.325-0.258-0.58-0.451-0.762
			c-0.193-0.184-0.438-0.307-0.736-0.371c-0.222-0.05-0.657-0.075-1.305-0.075H53.96V58.789z"/>
		<path d="M60.32,65.331v-7.874h5.838v1.332H61.91v1.745h3.953v1.327H61.91v2.144h4.399v1.326
			C66.309,65.331,60.32,65.331,60.32,65.331z"/>
		<path d="M75.751,62.437l1.542,0.488c-0.236,0.859-0.629,1.498-1.179,1.915s-1.247,0.626-2.092,0.626
			c-1.045,0-1.905-0.357-2.578-1.072c-0.673-0.714-1.01-1.69-1.01-2.93c0-1.311,0.338-2.328,1.015-3.054
			c0.677-0.725,1.566-1.087,2.669-1.087c0.963,0,1.746,0.284,2.347,0.854c0.358,0.337,0.626,0.82,0.806,1.45l-1.574,0.376
			c-0.093-0.408-0.288-0.73-0.583-0.967c-0.296-0.236-0.655-0.354-1.077-0.354c-0.583,0-1.057,0.21-1.421,0.628
			c-0.363,0.42-0.545,1.098-0.545,2.036c0,0.995,0.179,1.704,0.537,2.127s0.824,0.634,1.396,0.634c0.422,0,0.786-0.135,1.09-0.402
			C75.4,63.435,75.619,63.013,75.751,62.437z"/>
		<path d="M78.335,61.442c0-0.802,0.12-1.476,0.359-2.02c0.18-0.401,0.424-0.761,0.733-1.08c0.31-0.318,0.649-0.555,1.018-0.709
			c0.491-0.207,1.057-0.311,1.697-0.311c1.16,0,2.089,0.359,2.785,1.079s1.045,1.721,1.045,3.003c0,1.271-0.346,2.266-1.037,2.983
			c-0.69,0.718-1.614,1.077-2.771,1.077c-1.171,0-2.102-0.357-2.793-1.072C78.681,63.68,78.335,62.695,78.335,61.442z
			 M79.973,61.389c0,0.892,0.206,1.567,0.618,2.027c0.411,0.46,0.935,0.69,1.568,0.69s1.153-0.229,1.56-0.685
			c0.407-0.457,0.61-1.142,0.61-2.055c0-0.902-0.198-1.575-0.594-2.02s-0.921-0.666-1.576-0.666s-1.184,0.225-1.585,0.674
			C80.174,59.805,79.973,60.482,79.973,61.389z"/>
		<path d="M87.229,65.331v-7.874h1.547l3.223,5.259v-5.259h1.477v7.874h-1.595l-3.175-5.135v5.135H87.229z"/>
		<path d="M96.93,65.331v-6.542h-2.337v-1.332h6.258v1.332H98.52v6.542H96.93z"/>
		<path d="M101.876,65.331v-7.874h5.839v1.332h-4.249v1.745h3.953v1.327h-3.953v2.144h4.399v1.326
			C107.865,65.331,101.876,65.331,101.876,65.331z"/>
		<path d="M109.229,65.331v-7.874h1.547l3.223,5.259v-5.259h1.477v7.874h-1.595l-3.175-5.135v5.135H109.229z"/>
		<path d="M117.108,65.331v-7.874h1.59v7.874H117.108z"/>
		<path d="M120.208,57.457h2.905c0.655,0,1.155,0.05,1.499,0.15c0.462,0.136,0.857,0.378,1.187,0.726
			c0.33,0.347,0.58,0.772,0.752,1.275s0.258,1.123,0.258,1.861c0,0.647-0.08,1.206-0.241,1.676
			c-0.197,0.572-0.479,1.036-0.844,1.391c-0.275,0.269-0.647,0.479-1.117,0.629c-0.351,0.11-0.819,0.166-1.407,0.166h-2.991v-7.874
			H120.208z M121.798,58.789v5.216h1.187c0.444,0,0.765-0.025,0.962-0.076c0.258-0.064,0.472-0.173,0.642-0.327
			s0.309-0.407,0.416-0.76s0.161-0.834,0.161-1.442s-0.054-1.076-0.161-1.402c-0.107-0.325-0.258-0.58-0.451-0.762
			c-0.193-0.184-0.438-0.307-0.735-0.371c-0.223-0.05-0.657-0.075-1.306-0.075h-0.715V58.789z"/>
		<path d="M127.835,61.442c0-0.802,0.12-1.476,0.359-2.02c0.18-0.401,0.424-0.761,0.733-1.08c0.31-0.318,0.649-0.555,1.018-0.709
			c0.491-0.207,1.057-0.311,1.697-0.311c1.16,0,2.089,0.359,2.785,1.079s1.045,1.721,1.045,3.003c0,1.271-0.346,2.266-1.037,2.983
			c-0.69,0.718-1.614,1.077-2.771,1.077c-1.171,0-2.102-0.357-2.793-1.072C128.181,63.68,127.835,62.695,127.835,61.442z
			 M129.473,61.389c0,0.892,0.206,1.567,0.618,2.027c0.411,0.46,0.935,0.69,1.568,0.69s1.153-0.229,1.56-0.685
			c0.407-0.457,0.61-1.142,0.61-2.055c0-0.902-0.198-1.575-0.594-2.02s-0.921-0.666-1.576-0.666s-1.184,0.225-1.585,0.674
			C129.674,59.805,129.473,60.482,129.473,61.389z"/>
	</g>
	<g id="XMLID_11_">
		<path id="XMLID_12_" fill="#FFFFFF" d="M73.676,7.621v10.153c0,0.622,0.503,1.125,1.125,1.125h3.951v3.055H63.661
			c-0.622,0-1.125,0.503-1.125,1.125v4.015h-3.951c-0.622,0-1.125,0.503-1.125,1.125v10.153c0,0.622,0.503,1.125,1.125,1.125h10.153
			c0.622,0,1.125-0.503,1.125-1.125V28.218c0-0.622-0.503-1.125-1.125-1.125h-3.96v-2.899h13.966v2.899h-3.951
			c-0.622,0-1.125,0.503-1.125,1.125v10.153c0,0.622,0.503,1.125,1.125,1.125h10.152c0.622,0,1.125-0.503,1.125-1.125V28.218
			c0-0.622-0.503-1.125-1.125-1.125h-3.951v-2.899H94.96v2.899h-3.951c-0.622,0-1.125,0.503-1.125,1.125v10.153
			c0,0.622,0.503,1.125,1.125,1.125h10.152c0.622,0,1.125-0.503,1.125-1.125V28.218c0-0.622-0.503-1.125-1.125-1.125H97.21v-4.015
			c0-0.622-0.503-1.125-1.125-1.125H80.993v-3.055h3.951c0.622,0,1.125-0.503,1.125-1.125V7.621c0-0.622-0.503-1.125-1.125-1.125
			H74.792C74.179,6.496,73.676,6.998,73.676,7.621L73.676,7.621z M67.612,37.236H59.71v-7.911h7.903L67.612,37.236L67.612,37.236z
			 M83.819,37.236h-7.912v-7.911h7.912V37.236z M100.027,37.236h-7.903v-7.911h7.911v7.911H100.027z M75.917,8.737h7.912v7.911
			h-7.912V8.737z"/>
	</g>
</g>
</svg>
