<?xml version="1.0" encoding="utf-8"?>
<!-- Generator: Adobe Illustrator 17.0.0, SVG Export Plug-In . SVG Version: 6.00 Build 0)  -->
<!DOCTYPE svg PUBLIC "-//W3C//DTD SVG 1.1//EN" "http://www.w3.org/Graphics/SVG/1.1/DTD/svg11.dtd" [
	<!ENTITY ns_extend "http://ns.adobe.com/Extensibility/1.0/">
	<!ENTITY ns_ai "http://ns.adobe.com/AdobeIllustrator/10.0/">
	<!ENTITY ns_graphs "http://ns.adobe.com/Graphs/1.0/">
	<!ENTITY ns_vars "http://ns.adobe.com/Variables/1.0/">
	<!ENTITY ns_imrep "http://ns.adobe.com/ImageReplacement/1.0/">
	<!ENTITY ns_sfw "http://ns.adobe.com/SaveForWeb/1.0/">
	<!ENTITY ns_custom "http://ns.adobe.com/GenericCustomNamespace/1.0/">
	<!ENTITY ns_adobe_xpath "http://ns.adobe.com/XPath/1.0/">
]>
<svg version="1.1" id="Capa_1" xmlns:x="&ns_extend;" xmlns:i="&ns_ai;" xmlns:graph="&ns_graphs;"
	 xmlns="http://www.w3.org/2000/svg" xmlns:xlink="http://www.w3.org/1999/xlink" x="0px" y="0px" width="155.706px"
	 height="74.254px" viewBox="0 0 155.706 74.254" enable-background="new 0 0 155.706 74.254" xml:space="preserve">
<metadata><?xpacket begin="﻿" id="W5M0MpCehiHzreSzNTczkc9d"?>
<x:xmpmeta xmlns:x="adobe:ns:meta/" x:xmptk="Adobe XMP Core 5.5-c014 79.151739, 2013/04/03-12:12:15        ">
   <rdf:RDF xmlns:rdf="http://www.w3.org/1999/02/22-rdf-syntax-ns#">
      <rdf:Description rdf:about=""
            xmlns:dc="http://purl.org/dc/elements/1.1/"
            xmlns:xmp="http://ns.adobe.com/xap/1.0/"
            xmlns:xmpGImg="http://ns.adobe.com/xap/1.0/g/img/"
            xmlns:xmpMM="http://ns.adobe.com/xap/1.0/mm/"
            xmlns:stRef="http://ns.adobe.com/xap/1.0/sType/ResourceRef#"
            xmlns:stEvt="http://ns.adobe.com/xap/1.0/sType/ResourceEvent#"
            xmlns:illustrator="http://ns.adobe.com/illustrator/1.0/"
            xmlns:xmpTPg="http://ns.adobe.com/xap/1.0/t/pg/"
            xmlns:stDim="http://ns.adobe.com/xap/1.0/sType/Dimensions#"
            xmlns:xmpG="http://ns.adobe.com/xap/1.0/g/"
            xmlns:pdf="http://ns.adobe.com/pdf/1.3/">
         <dc:format>image/svg+xml</dc:format>
         <dc:title>
            <rdf:Alt>
               <rdf:li xml:lang="x-default">Imprimir</rdf:li>
            </rdf:Alt>
         </dc:title>
         <xmp:MetadataDate>2017-04-11T01:59:07-05:00</xmp:MetadataDate>
         <xmp:ModifyDate>2017-04-11T01:59:07-05:00</xmp:ModifyDate>
         <xmp:CreateDate>2017-04-11T01:59:07-05:00</xmp:CreateDate>
         <xmp:CreatorTool>Adobe Illustrator CC (Windows)</xmp:CreatorTool>
         <xmp:Thumbnails>
            <rdf:Alt>
               <rdf:li rdf:parseType="Resource">
                  <xmpGImg:width>256</xmpGImg:width>
                  <xmpGImg:height>124</xmpGImg:height>
                  <xmpGImg:format>JPEG</xmpGImg:format>
                  <xmpGImg:image>/9j/4AAQSkZJRgABAgEASABIAAD/7QAsUGhvdG9zaG9wIDMuMAA4QklNA+0AAAAAABAASAAAAAEA&#xA;AQBIAAAAAQAB/+4ADkFkb2JlAGTAAAAAAf/bAIQABgQEBAUEBgUFBgkGBQYJCwgGBggLDAoKCwoK&#xA;DBAMDAwMDAwQDA4PEA8ODBMTFBQTExwbGxscHx8fHx8fHx8fHwEHBwcNDA0YEBAYGhURFRofHx8f&#xA;Hx8fHx8fHx8fHx8fHx8fHx8fHx8fHx8fHx8fHx8fHx8fHx8fHx8fHx8fHx8f/8AAEQgAfAEAAwER&#xA;AAIRAQMRAf/EAaIAAAAHAQEBAQEAAAAAAAAAAAQFAwIGAQAHCAkKCwEAAgIDAQEBAQEAAAAAAAAA&#xA;AQACAwQFBgcICQoLEAACAQMDAgQCBgcDBAIGAnMBAgMRBAAFIRIxQVEGE2EicYEUMpGhBxWxQiPB&#xA;UtHhMxZi8CRygvElQzRTkqKyY3PCNUQnk6OzNhdUZHTD0uIIJoMJChgZhJRFRqS0VtNVKBry4/PE&#xA;1OT0ZXWFlaW1xdXl9WZ2hpamtsbW5vY3R1dnd4eXp7fH1+f3OEhYaHiImKi4yNjo+Ck5SVlpeYmZ&#xA;qbnJ2en5KjpKWmp6ipqqusra6voRAAICAQIDBQUEBQYECAMDbQEAAhEDBCESMUEFURNhIgZxgZEy&#xA;obHwFMHR4SNCFVJicvEzJDRDghaSUyWiY7LCB3PSNeJEgxdUkwgJChgZJjZFGidkdFU38qOzwygp&#xA;0+PzhJSktMTU5PRldYWVpbXF1eX1RlZmdoaWprbG1ub2R1dnd4eXp7fH1+f3OEhYaHiImKi4yNjo&#xA;+DlJWWl5iZmpucnZ6fkqOkpaanqKmqq6ytrq+v/aAAwDAQACEQMRAD8AgnnH/lLtc/7aF1/yebOr&#xA;w/RH3B57L9R96T5awdirsVdirsVdirsVdirsVdirsVdirsVdirsVdirsVdirsVdirsVdirsVdirs&#xA;VdirsVdirsVdirsVTjzj/wApdrn/AG0Lr/k82VYfoj7gzy/Ufek+WsHYq7FXYq7FXYq7FXYq7FXY&#xA;q7FXYq7FXYq7FXYq7FXoPkv8o7rzd5R1HV9L1CGTVrSQLFpA+2VAJPNjTiz/AO6/2dtz4YWfWDHM&#xA;RI2PVycWm44kg79zAri3nt55Le4jaKeJiksTgqyspoVYHcEHMwG9w4xFKeFXYq7FXYq7FXYq7FXY&#xA;q7FXYq7FXYqnHnH/AJS7XP8AtoXX/J5sqw/RH3Bnl+o+9J8tYOxV2KuxV2KuxV2KuxV2KuxV2Kon&#xA;S9OudT1K0021Aa6vZo7eAE0BeVgi1PzORnIRBJ6JjGzQfUWhf847/l5ZafHDqdtJqt7QetcyTTQg&#xA;t34JC8YC+Fan3zQZO0cpOxoO3hooAb7pj/yob8qP+rH/ANPV5/1WyH5/N/O+wfqZ/k8Xd97v+VDf&#xA;lR/1Y/8Ap6vP+q2P5/N/O+wfqX8ni7vvY954/L/8jvJ2ivqep6NVjVbS0W7u/UnkpsiD1un8zdAM&#xA;uwajUZZUD9g/U1ZcOGAsj7S8v0vydrnl6Ww/MLUvLUcnloXHrNpAeR3hgb+7kZZCzcQTVS7GpHxU&#xA;BGbCWaM7xCXq73DjiMamY+nuegeYNJWwZfzY/LWaOS3dGl1nTRtHLF9qYlP2WFKyL1B+Ib9cLHO/&#xA;3OX4Fypxr97j+Lyb81POuj+cPMSarpum/o+sCJcuxBkmlA3Z+Pw/D9kHqQN/AbHSYJY40TbhajKJ&#xA;ysCmG5lNDsVdirsVdirsVdirsVdirsVdirsVTjzj/wApdrn/AG0Lr/k82VYfoj7gzy/Ufek+WsHY&#xA;q7FXYq7FXYq7FXYq7FXYq7FWT/lh/wCTE8uf9tC3/wCJjMfVf3Uvc26f+8HvfSn57X17Y/ltqFxZ&#xA;XElrcLLbhZoXaNwDMoNGUg7jNHoIg5QC7bVkjGafLn+MfN3/AFfNQ/6Spv8AmrN/4MP5o+Tp/Fl3&#xA;l3+MfN3/AFfNQ/6Spv8AmrHwYfzR8l8WXeXtn5R/lTqmrPa+a/PEs94sYD6Tp947ymh3EsokJovd&#xA;U79T76vWasRuGPbvIdhptOZeqfwe43rWaWc7XpjFmI2NyZqen6dDz58vh48etc1Mbvbm7A1W75C8&#xA;2Suq69L5Oa7g8gTXkUUqsxWCS44lgqKdyvwkgdePHl2zpMI+njrxKdJk68H0WwfMtx3Yq7FXYq7F&#xA;XYq7FXYq7FXYq7FXYq7FU484/wDKXa5/20Lr/k82VYfoj7gzy/Ufek+WsHYq7FXYq7FXYq7FXYq7&#xA;FXYq7FWT/lh/5MTy5/20Lf8A4mMx9V/dS9zbp/7we99G/wDOQX/krtS/4y23/J9M0nZ398Pi7XW/&#xA;3ZfJedG6V71+Sn5J+p6HmfzRb/u9pNN0yUfa7rNMp7d1U9ep266jXa7+CHxLsdLpf4pPfbi4gt4J&#xA;Li4kWKCJS8srkKqqoqWYnYADNOBewdkTT598z/mB/wArN87af5J0y5ks/K885W5uIxSW69JTITQ9&#xA;E+D4Af8AWYdANzi0/gYzkIuf3OtyZvFmID6WRfn1oumaJ+VFnpmmW621lbX0CRRJ/qSVJPUsTuSd&#xA;yco7PmZZiTzpt1kRHEAO980ZvXUuxV2KuxV2KuxV2KuxV2KuxV2KuxV2Kpx5x/5S7XP+2hdf8nmy&#xA;rD9EfcGeX6j70ny1g7FXYq7FXYq7FXYq7FXYq7FXYqyf8sP/ACYnlz/toW//ABMZj6r+6l7m3T/3&#xA;g976N/5yC/8AJXal/wAZbb/k+maTs7++Hxdrrf7svnbyPoOvzLd+aNHtYr8+WZba4uLKVfU5pIZG&#xA;5cP2gno/FTcdR0zd58kRUJGuK3V4oS+ob8L6n8k/mL5e81+Xm1i2mW2+rLXUreZgGtmAq3Mmg4UB&#xA;Kv0I96gc/n00scuE/DzdxizxnG3gf5yfnJP5onk0XRZGi8uxNSSQVVrtlOzMOojB+yvfqewG30Wi&#xA;8P1S+r7nW6rVcew+lIPyU/8AJo6D/wAZZP8AkxJl2u/uZNWl/vA9u/5yU/8AJdx/9tCD/iEmavsz&#xA;+9+DsNd/d/F8tZv3UOxV2KuxV2KuxV2KuxV2KuxV2KuxV2Kpx5x/5S7XP+2hdf8AJ5sqw/RH3Bnl&#xA;+o+9J8tYOxV2KuxV2KuxV2KuxV2KuxV2Ksn/ACw/8mJ5c/7aFv8A8TGY+q/upe5t0/8AeD3vo3/n&#xA;IL/yV2pf8Zbb/k+maTs7++Hxdrrf7svn78uvzQ1fyL+kP0daW91+kfR9X6xz+H0OfHjwZevqmubn&#xA;U6WOWrPJ1mDUHHddUl13zLNqWpXt5aW6aRFqIH12ysmkS3kIbkaoWOxYBuPSvTLceLhAB3rva55L&#xA;JI2tJstYM3/JT/yaOg/8ZZP+TEmYmu/uZN+l/vA9u/5yU/8AJdx/9tCD/iEmavsz+9+DsNd/d/F8&#xA;tZv3UOxV2KuxV2KuxV2KuxV2KuxV2KuxV2Kpx5x/5S7XP+2hdf8AJ5sqw/RH3Bnl+o+9J8tYOxV2&#xA;KuxV2KuxV2KuxV2KuxV2Kpr5T1lNE8z6Vq8iGSKwuoZ5EHUojgsB78emV5ocUDHvDPHLhkD3PsqW&#xA;Lyr528uqrmLVdFvOD0Vm4kqQ4B4lWVlPVTuO+cwDPFLukHe1HJHvCSf8qU/K7/qwxf8AIyf/AKqZ&#xA;d+ezfzmv8rj7nf8AKlPyu/6sMX/Iyf8A6qY/ns385fyuPud/ypT8rv8Aqwxf8jJ/+qmP57N/OX8r&#xA;j7kZpH5WeQNH1KDUtN0eO2vrYloJ1eUlSVKnZnI6E9shPV5JCidmUdPCJsDd5p/zkv5x0mTSrTyx&#xA;azrNqAuVurxIyGESRo6qj06MzPWnWg36jM7szDKzM8qcTX5RXCOb56zdOsdirsVdirsVdirsVdir&#xA;sVdirsVdirsVTjzj/wApdrn/AG0Lr/k82VYfoj7gzy/Ufek+WsHYq7FXYq7FXYq7FXYq7FXYq7FX&#xA;YqqRXNxDURSvGD14MVr92AgFbVP0hf8A/LTL/wAG39cHCE8Rd+kL/wD5aZf+Db+uPCF4i79IX/8A&#xA;y0y/8G39ceELxF36Qv8A/lpl/wCDb+uPCF4ihya7nrkkOxV2KuxV2KuxV2KuxV2KuxV2KuxV2Kux&#xA;Vlvm3yl5ql81azLFo19JFJfXLI620xVlMzEEELuDmNhzQ4BuOQ6t2THLiOx5pV/g7zd/1Y9Q/wCk&#xA;Wb/mnLPGh/OHzYeFLuLv8Hebv+rHqH/SLN/zTj40P5w+a+FLuLv8Hebv+rHqH/SLN/zTj40P5w+a&#xA;+FLuLv8AB3m7/qx6h/0izf8ANOPjQ/nD5r4Uu4u/wd5u/wCrHqH/AEizf804+ND+cPmvhS7i7/B3&#xA;m7/qx6h/0izf804+ND+cPmvhS7i7/B3m7/qx6h/0izf804+ND+cPmvhS7i7/AAd5u/6seof9Is3/&#xA;ADTj40P5w+a+FLuLv8Hebv8Aqx6h/wBIs3/NOPjQ/nD5r4Uu4u/wd5u/6seof9Is3/NOPjQ/nD5r&#xA;4Uu4u/wd5u/6seof9Is3/NOPjQ/nD5r4Uu4u/wAHebv+rHqH/SLN/wA04+ND+cPmvhS7i7/B3m7/&#xA;AKseof8ASLN/zTj40P5w+a+FLuLv8Hebv+rHqH/SLN/zTj40P5w+a+FLuLv8Hebv+rHqH/SLN/zT&#xA;j40P5w+a+FLuLv8AB3m7/qx6h/0izf8ANOPjQ/nD5r4Uu4u/wd5u/wCrHqH/AEizf804+ND+cPmv&#xA;hS7i7/B3m7/qx6h/0izf804+ND+cPmvhS7i7/B3m7/qx6h/0izf804+ND+cPmvhS7i7/AAd5u/6s&#xA;eof9Is3/ADTj40P5w+a+FLuLv8Hebv8Aqx6h/wBIs3/NOPjQ/nD5r4Uu4u/wd5u/6seof9Is3/NO&#xA;PjQ/nD5r4Uu4u/wd5u/6seof9Is3/NOPjQ/nD5r4Uu4u/wAHebv+rHqH/SLN/wA04+ND+cPmvhS7&#xA;i7/B3m7/AKseof8ASLN/zTj40P5w+a+FLuLv8Hebv+rHqH/SLN/zTj40P5w+a+FLuLv8Hebv+rHq&#xA;H/SLN/zTj40P5w+a+FLuLv8AB3m7/qx6h/0izf8ANOPjQ/nD5r4Uu4u/wd5u/wCrHqH/AEizf804&#xA;+ND+cPmvhS7i7/B3m7/qx6h/0izf804+ND+cPmvhS7i7/B3m7/qx6h/0izf804+ND+cPmvhS7i+5&#xA;M5R6F2KuxV2KuxV2KuxV2KuxV2KuxV2KuxV2KuxV2KuxV2KuxV2KuxV2KuxV2KuxV2KuxV2KuxV2&#xA;KuxV2KuxV2KuxVD6jqFlp1hc6hfTLb2VnE89zO/2UijUs7H2CiuKpd5T85eWfN2lnVfLl+mo2Cyt&#xA;A08YdQJEALKQ4VgQGB6YqlPm783fy28n3q2PmLXrexvmCt9VpJNKqufhLpCsjIDXqwG2+Krr/wDN&#xA;n8ubHyxa+abnXbcaBezC2ttQTnKjTFXb06RqzK1I2qCNqYqk1r/zkR+TN1cxW1v5ngknndYokENy&#xA;CzueKjeLuTiqNu/zv/Ku0S7e51+KJLG8/R127RT8Y7o8z6TN6dK/un36bYqyLzR5t8ueVtIbWNfv&#xA;ksNNRkjNw4ZhykNFACBmNfYYqlsP5o+Q5rjUraPVkM+kWC6tqURjmVobJoUuBMwZB/uqVW4j4t+l&#xA;cVSbT/8AnIH8mtQu47S281WnrSkKnqiWBSSQAOcqIg3Pc4qz24u7W3tJLyaVUtYY2mkmJ+FY1XkW&#xA;J8AN8VSfyh558qecdPl1Dy1qMepWcEpgmljDrxkCh+JWRUb7LjtirHNR/P38oNN1S60q+8yQW9/Z&#xA;TyWt1C0dx8E0TmN1LCPj8LKRWtMVZno2t6Rremw6npF5Df6fcDlDdW7iSNux3XuDsR1B64qkHnD8&#xA;1vy+8m30Nj5l1iPTbu4i9eGJ45nLR8ivKsaOPtKRiqM8p+f/ACZ5vhll8t6xb6mIaeskLfvE5dC8&#xA;bBXUH3GKpY35yflovl2bzG2uRDRbe8OmzXnpzcVuwgk9Ljw5V4mtaUxV3ln85fyv8z6imm6J5itb&#xA;q/kr6VqS8MjkCtI1mWMuadlriqI/NLzm/k3yJqnmCH0Dd2yKlkl0xWFp5XEcfOhVioLciAQSBiqO&#xA;8jazda15R0rVrq7s764vrdZ5LnTkkjtWL70iWZ5JKL9n4jWo6DoFUi1v88vym0PWX0bU/MtrBqMT&#xA;enNCoklWNwaFZJI0eNGB6hmFO+KorzJ+b/5a+W1sX1nXre2j1OH6zp8qiSZJoenqI8KyKV+nFUHo&#xA;v57flNreopp2l+YYbq9kSWVIViuFJSCJppTVo1Hwxxs30Yqnmn/mB5M1Dys3mu21aD/Dqcy2pyEw&#xA;xD024NX1Qh+2OPTc9MVSryv+dH5XeadVGk6F5ht7vUmr6dsVlhaTiOR9P1kjD0G/w1xVOfN3nfyr&#xA;5P06PUvMuoR6bZTSi3imkDtylZWcKBGrt9lCemKptZ3lre2cF5aSrNa3MaTW8yGqvHIoZGU+BU1x&#xA;VWxV2KuxV2KuxV2KvDf+cuPOq6N+X0Hl2GcQXvme4Fu7kkBLSEq87mlTSpRDtuGOKsK/5xw8z+V/&#xA;Ln5r675G0DVRqnlnWYkutFuqOtbqCINKnGQKwJQuD/qDFUz/AOcc/K/ljzhqvnvzB5s0y11bzC2r&#xA;ywzR38aXHoROGPFUkDKvI8kqB0WnTFXpP5b/AJf/AJN2unavpnlg2mt2BvzNf2U0sd/Fb3SBowBE&#xA;3JYiFqoNKle5xVgX/ONvlfy1eav+YLXek2Vw1l5hmSzaW3icwqrvxWLkp4AU2C4qwnyr5LPm/wAr&#xA;fnfpcSGS+h1Y3unhRVjcWs11Kqr7yAGP/ZYqsPm+X83tP/Kf8vvUM0gc3Hmhamvp6fyhVmYdGe3i&#xA;kb5uuKsh8wKq/m/+eiqAqr5NlCqNgANMtthiqL8veRPJWpf84mNqd/pFmdSt9G1C8h1H0o0uRcW7&#xA;TtC3rABz8SKtK7jbFUk138yL/Tf+cQvL1pPcMdY8xJNpEDMaOLK3uZY3O/VRbRpF/shiqz/nHrzJ&#xA;5W8pfnBc+UNA1ldW8t+YrG3+r3QEij9JW0HJwfVWOnNhNTbeqDFWRfkX5Z8ua7+Z/wCcset6Vaan&#xA;HHrZWNbyCOcKJLu/58fUVuPLiK08MVRv/OMSrpnnf80PLOmuW8uaXqo/R8dSUiYzXERVak1qkKqT&#xA;34A4qr/mNp2n6j/zlT+X9nqFtFeWculXnq21wiyxtxhvWXkjgqaMAR74ql2r6PpXlP8A5yx8qW/l&#xA;a3j02LW9OlOr2FooSJwVuSWMSABa+grmnda+OKvI7n/1mTW//A5f/qCjxV6n/wA5NeU/KuhflpoP&#xA;mbRtPtdH8w2d9Zi0v7KKO3mJMTyULRheXFkDivQj54qo/wDOSHnHRtY8x+SPI2v336N0dzFq3mqX&#xA;4j6aspCR/uwxDcRL2O7KcVUPyF/MGW0/Kr8wfK2nX31q+8p2upX3l68QN+9tzHKyPEhAaizrz33/&#xA;AHgxVOvyD/Lb8stY/IhdT17TbS4uNTS+Os6pOqNPCsU8yBkmcFoTHEquCO/xYqzvTvJP5Wp+VUsH&#xA;l+Kz13R7CxvP0bfTGK/aMsryuEmYNw/eMSVFKHtirCv+cfdA0I/84+/pg6banVlt9WC6iYY/rIFZ&#xA;koJuPP7B49em2KvJIHF5+Uv5Q+Xr9mTy7q3mK7GsNyKrxS9SMciKH+7nlPXtir6L82flZ+Rtlqvl&#xA;m61GCy8t3tndKNFa1ePTjPMhV0R2UIZSrKCtTWp6/Fuq8m/5yL8yeV/NH5t6b5L1/WF0ry3oVnPL&#xA;f3dHal/cwlolpGrluP7nttVhir0D/nEvzyNf/LYaJcS+pqHlqX6m29S1q9Xtm37Acox7Jir23FXY&#xA;q7FXYq7FXYqwPX/yi0jX/wAydM87avdPdrpFu1vZ6LLHG1qCwesjcgSzVk5fML4Yqoeb/wAlvL2u&#xA;+YvLvmHT5f0Dqnl249eGSxhiVZhyRvTlWi1HwU+TEYqx/wA2/wDON9hqXmm98y+WPMupeUdQ1Tkd&#xA;VXT2IjnZ93aiPEylySW+Iiu9BirM/wAr/wArvLv5deXjo+jGSZppDPe3s5BmnlIAq3EABVAoqjp8&#xA;ySVVn5d/lnY+SbnzDPa3st2fMN++ozLKqqI3kLHgvHqPi74qpflz+Vmn+R9S8yX9rfS3j+ZLz69O&#xA;kqqoibnI/FOPUfve+KpP+XH5AeVvInnPVfNGm3Es82oLLHbWkioI7WOaUSskZG5pxCgnenzxVF3/&#xA;AOS+mXnmvzn5ibUp1m856S2j3UAROMEbW8dv6kZ6s1Iq0OKsMtf+cUrUabDot9551+68txEV0RZ/&#xA;TtSA3PiIyXjUct9k64qzHVPyO8tah5q8r6tJKy6P5Stvq2l+XRGrWuwI9Ry3Ji1eBPjwFe+Kr/Pn&#xA;5J+XPM99oWpWLjQNU0C6F3aXljBEpZgVYLIAF5ANGpH0+OKsWu/+cZ3/AMSa7rmk+eda0N/MF5Ne&#xA;30GnSfV1YyyvKEYxsvMJ6rBeXj74q9B/Lb8s/LX5e6E+k6GJZBPKZ7y8uWDzzykAcnYBRsBsAKD5&#xA;k4qx78y/yRj86+atO8zQeY7/AMv6nplsbW2n04iOQKzOWYSgq6lllKmh6Yqq/l3+R+h+UNduPMt1&#xA;ql/5j8zXMZgOrapL60iRGlVStTUhaciSabCgriqQyf8AOM2hP+Xd55JOtXQtbzWTrjXfpx+oshhW&#xA;H0gvTjRa1xVdpP8AzjVpg1bT7/zT5q1rzZDpUizWGnanOZLVZFpTkjmSq7D4QQD0NRtirJNI/JvQ&#xA;rX8wNf8AO2pzHWdR1tViSC7ijaK2hUrxSMHlWixotT4e+KrU/JnQbb8zk896bObBns2sdQ0eGKMW&#xA;t1GyFD6gFKfsGg2qg98VYRf/APOJ2l+vfW2g+bdW0Ty1qb877QIHLwOCalKl1BXw9RWPucVesaH5&#xA;F0PQfJKeT9IRrbS47WS1RiQ0n74NzkY7BnZnLH3xVLfIv5Z2PlH8vT5Ktr2W6tSlyn1uRVWSl0zM&#xA;x4jb4ee2Ksfh/wCcefKL/lbb/l7qFxPeWdpNJdWepAJHcwzyOz80oGXb1CtCKEYqlHln/nGawsfM&#xA;mm615m80al5rGikNo9lfsTDCVIZK8nlJVSAQq8RUCtRtirKPJn5L+XvL+s+Ydav5Br2p+Yrr61cz&#xA;X0MTCL4nbhEpDcVrIfoA8MVVPLX5Q6T5b/MbV/OWkXclrFrUIhu9ESNFtQyhP3iUoQ3JC3+ybFWf&#xA;Yq7FXYq7FXYq7FXYq7FXYq7FXYq7FXYq7FXYq7FXYq7FXYq7FXYq7FXYq7FXYq7FXYq7FXYq7FXY&#xA;q7FXYq7FXYq7FXYq7FXYq7FXYq7FXYq7FXYq7FXYq7FXYq7FXYq7FXYq7FXYq7FXYq7FXYq7FXYq&#xA;7FXYq7FXYq7FXYq//9k=</xmpGImg:image>
               </rdf:li>
            </rdf:Alt>
         </xmp:Thumbnails>
         <xmpMM:InstanceID>xmp.iid:9abfa668-2609-c146-aeb5-945099e7e6e3</xmpMM:InstanceID>
         <xmpMM:DocumentID>xmp.did:9abfa668-2609-c146-aeb5-945099e7e6e3</xmpMM:DocumentID>
         <xmpMM:OriginalDocumentID>uuid:5D20892493BFDB11914A8590D31508C8</xmpMM:OriginalDocumentID>
         <xmpMM:RenditionClass>proof:pdf</xmpMM:RenditionClass>
         <xmpMM:DerivedFrom rdf:parseType="Resource">
            <stRef:instanceID>uuid:ff470bc6-f939-440e-8f31-27b0eb70075c</stRef:instanceID>
            <stRef:documentID>xmp.did:4de20fe2-e96f-dd46-b8bd-1606dc72d06f</stRef:documentID>
            <stRef:originalDocumentID>uuid:5D20892493BFDB11914A8590D31508C8</stRef:originalDocumentID>
            <stRef:renditionClass>proof:pdf</stRef:renditionClass>
         </xmpMM:DerivedFrom>
         <xmpMM:History>
            <rdf:Seq>
               <rdf:li rdf:parseType="Resource">
                  <stEvt:action>saved</stEvt:action>
                  <stEvt:instanceID>xmp.iid:9abfa668-2609-c146-aeb5-945099e7e6e3</stEvt:instanceID>
                  <stEvt:when>2017-04-11T01:59:07-05:00</stEvt:when>
                  <stEvt:softwareAgent>Adobe Illustrator CC (Windows)</stEvt:softwareAgent>
                  <stEvt:changed>/</stEvt:changed>
               </rdf:li>
            </rdf:Seq>
         </xmpMM:History>
         <illustrator:StartupProfile>Print</illustrator:StartupProfile>
         <xmpTPg:HasVisibleOverprint>False</xmpTPg:HasVisibleOverprint>
         <xmpTPg:HasVisibleTransparency>True</xmpTPg:HasVisibleTransparency>
         <xmpTPg:NPages>1</xmpTPg:NPages>
         <xmpTPg:MaxPageSize rdf:parseType="Resource">
            <stDim:w>54.929614</stDim:w>
            <stDim:h>26.195160</stDim:h>
            <stDim:unit>Millimeters</stDim:unit>
         </xmpTPg:MaxPageSize>
         <xmpTPg:PlateNames>
            <rdf:Seq>
               <rdf:li>Cyan</rdf:li>
               <rdf:li>Magenta</rdf:li>
               <rdf:li>Yellow</rdf:li>
               <rdf:li>Black</rdf:li>
            </rdf:Seq>
         </xmpTPg:PlateNames>
         <xmpTPg:SwatchGroups>
            <rdf:Seq>
               <rdf:li rdf:parseType="Resource">
                  <xmpG:groupName>Grupo de muestras por defecto</xmpG:groupName>
                  <xmpG:groupType>0</xmpG:groupType>
               </rdf:li>
            </rdf:Seq>
         </xmpTPg:SwatchGroups>
         <pdf:Producer>Adobe PDF library 10.01</pdf:Producer>
      </rdf:Description>
   </rdf:RDF>
</x:xmpmeta>
                                                                                                    
                                                                                                    
                                                                                                    
                                                                                                    
                                                                                                    
                                                                                                    
                                                                                                    
                                                                                                    
                                                                                                    
                                                                                                    
                                                                                                    
                                                                                                    
                                                                                                    
                                                                                                    
                                                                                                    
                                                                                                    
                                                                                                    
                                                                                                    
                                                                                                    
                                                                                                    
                           
<?xpacket end="w"?>
	</metadata>
<g>
	<rect id="XMLID_96_" x="0.541" opacity="0.5" fill="#FFFFFF" enable-background="new    " width="154.914" height="74.254"/>
	<rect id="XMLID_93_" x="0.541" y="0" fill="#154A8C" width="155.165" height="48.154"/>
	<rect id="XMLID_92_" y="57.455" fill="none" width="155.706" height="13.102"/>
	<g enable-background="new    ">
		<path d="M24.034,65.331h-1.729l-0.688-1.789H18.47l-0.65,1.789h-1.687l3.067-7.874h1.681L24.034,65.331z M21.107,62.216
			l-1.085-2.922l-1.063,2.922H21.107z"/>
		<path d="M29.916,62.437l1.542,0.488c-0.236,0.859-0.629,1.498-1.179,1.915c-0.55,0.417-1.247,0.626-2.092,0.626
			c-1.045,0-1.905-0.357-2.578-1.072c-0.673-0.714-1.01-1.69-1.01-2.93c0-1.311,0.338-2.328,1.015-3.054
			c0.677-0.725,1.566-1.087,2.669-1.087c0.963,0,1.746,0.284,2.347,0.854c0.358,0.337,0.626,0.82,0.806,1.45l-1.574,0.376
			c-0.093-0.408-0.288-0.73-0.583-0.967c-0.296-0.236-0.655-0.354-1.077-0.354c-0.583,0-1.057,0.21-1.421,0.628
			c-0.363,0.42-0.545,1.098-0.545,2.036c0,0.995,0.179,1.704,0.537,2.127s0.824,0.634,1.396,0.634c0.422,0,0.786-0.135,1.09-0.402
			C29.564,63.435,29.783,63.013,29.916,62.437z"/>
		<path d="M34.594,65.331v-6.542h-2.336v-1.332h6.257v1.332h-2.331v6.542H34.594z"/>
		<path d="M39.492,65.331v-7.874h1.59v7.874H39.492z"/>
		<path d="M44.605,65.331l-2.814-7.874h1.724l1.993,5.827l1.928-5.827h1.687l-2.82,7.874H44.605z"/>
		<path d="M49.885,65.331v-7.874h1.59v7.874H49.885z"/>
		<path d="M52.984,57.457h2.906c0.655,0,1.155,0.05,1.499,0.15c0.462,0.136,0.857,0.378,1.187,0.726
			c0.33,0.347,0.58,0.772,0.752,1.275s0.258,1.123,0.258,1.861c0,0.647-0.081,1.206-0.242,1.676
			c-0.197,0.572-0.478,1.036-0.843,1.391c-0.276,0.269-0.648,0.479-1.117,0.629c-0.351,0.11-0.82,0.166-1.407,0.166h-2.992
			L52.984,57.457L52.984,57.457z M54.574,58.789v5.216h1.187c0.444,0,0.765-0.025,0.961-0.076c0.258-0.064,0.472-0.173,0.642-0.327
			s0.309-0.407,0.417-0.76s0.161-0.834,0.161-1.442s-0.054-1.076-0.161-1.402c-0.107-0.325-0.258-0.58-0.451-0.762
			c-0.193-0.184-0.438-0.307-0.736-0.371c-0.222-0.05-0.657-0.075-1.305-0.075h-0.715V58.789z"/>
		<path d="M68.034,65.331h-1.729l-0.688-1.789H62.47l-0.65,1.789h-1.687l3.067-7.874h1.681L68.034,65.331z M65.107,62.216
			l-1.085-2.922l-1.063,2.922H65.107z"/>
		<path d="M68.872,57.457h2.906c0.655,0,1.155,0.05,1.499,0.15c0.462,0.136,0.857,0.378,1.187,0.726
			c0.33,0.347,0.58,0.772,0.752,1.275s0.258,1.123,0.258,1.861c0,0.647-0.081,1.206-0.242,1.676
			c-0.197,0.572-0.478,1.036-0.843,1.391c-0.276,0.269-0.648,0.479-1.117,0.629c-0.351,0.11-0.82,0.166-1.407,0.166h-2.992v-7.874
			H68.872z M70.462,58.789v5.216h1.187c0.444,0,0.765-0.025,0.961-0.076c0.258-0.064,0.472-0.173,0.642-0.327
			s0.309-0.407,0.417-0.76s0.161-0.834,0.161-1.442s-0.054-1.076-0.161-1.402c-0.107-0.325-0.258-0.58-0.451-0.762
			c-0.193-0.184-0.438-0.307-0.736-0.371c-0.222-0.05-0.657-0.075-1.305-0.075h-0.715V58.789z"/>
		<path d="M79.872,57.457h2.906c0.655,0,1.154,0.05,1.498,0.15c0.462,0.136,0.857,0.378,1.188,0.726
			c0.329,0.347,0.58,0.772,0.752,1.275s0.258,1.123,0.258,1.861c0,0.647-0.081,1.206-0.242,1.676
			c-0.196,0.572-0.478,1.036-0.843,1.391c-0.276,0.269-0.648,0.479-1.117,0.629c-0.352,0.11-0.82,0.166-1.407,0.166h-2.992v-7.874
			H79.872z M81.461,58.789v5.216h1.188c0.443,0,0.765-0.025,0.961-0.076c0.258-0.064,0.472-0.173,0.642-0.327
			c0.171-0.154,0.31-0.407,0.417-0.76s0.161-0.834,0.161-1.442s-0.054-1.076-0.161-1.402c-0.107-0.325-0.258-0.58-0.451-0.762
			c-0.193-0.184-0.438-0.307-0.736-0.371c-0.222-0.05-0.657-0.075-1.305-0.075h-0.716V58.789z"/>
		<path d="M87.773,65.331v-7.874h1.59v7.874H87.773z"/>
		<path d="M90.872,57.457h2.906c0.655,0,1.154,0.05,1.498,0.15c0.462,0.136,0.857,0.378,1.188,0.726
			c0.329,0.347,0.58,0.772,0.752,1.275s0.258,1.123,0.258,1.861c0,0.647-0.081,1.206-0.242,1.676
			c-0.196,0.572-0.478,1.036-0.843,1.391c-0.276,0.269-0.648,0.479-1.117,0.629c-0.352,0.11-0.82,0.166-1.407,0.166h-2.992v-7.874
			H90.872z M92.461,58.789v5.216h1.188c0.443,0,0.765-0.025,0.961-0.076c0.258-0.064,0.472-0.173,0.642-0.327
			c0.171-0.154,0.31-0.407,0.417-0.76s0.161-0.834,0.161-1.442s-0.054-1.076-0.161-1.402c-0.107-0.325-0.258-0.58-0.451-0.762
			c-0.193-0.184-0.438-0.307-0.736-0.371c-0.222-0.05-0.657-0.075-1.305-0.075h-0.716V58.789z"/>
		<path d="M105.921,65.331h-1.729l-0.688-1.789h-3.147l-0.649,1.789h-1.687l3.066-7.874h1.682L105.921,65.331z M102.995,62.216
			l-1.085-2.922l-1.063,2.922H102.995z M100.997,57.006l0.741-1.606h1.691l-1.477,1.606H100.997z"/>
		<path d="M111.803,62.437l1.541,0.488c-0.236,0.859-0.629,1.498-1.179,1.915s-1.247,0.626-2.092,0.626
			c-1.046,0-1.905-0.357-2.578-1.072c-0.674-0.714-1.01-1.69-1.01-2.93c0-1.311,0.338-2.328,1.015-3.054
			c0.677-0.725,1.566-1.087,2.67-1.087c0.963,0,1.745,0.284,2.347,0.854c0.358,0.337,0.627,0.82,0.806,1.45l-1.573,0.376
			c-0.094-0.408-0.288-0.73-0.583-0.967c-0.296-0.236-0.654-0.354-1.077-0.354c-0.583,0-1.057,0.21-1.421,0.628
			c-0.363,0.42-0.545,1.098-0.545,2.036c0,0.995,0.18,1.704,0.537,2.127c0.358,0.423,0.824,0.634,1.396,0.634
			c0.423,0,0.786-0.135,1.091-0.402C111.452,63.435,111.67,63.013,111.803,62.437z"/>
		<path d="M116.481,65.331v-6.542h-2.336v-1.332h6.257v1.332h-2.331v6.542H116.481z"/>
		<path d="M121.379,65.331v-7.874h1.59v7.874H121.379z"/>
		<path d="M129.522,62.437l1.542,0.488c-0.236,0.859-0.63,1.498-1.179,1.915c-0.55,0.417-1.247,0.626-2.093,0.626
			c-1.045,0-1.904-0.357-2.578-1.072c-0.673-0.714-1.01-1.69-1.01-2.93c0-1.311,0.339-2.328,1.016-3.054
			c0.677-0.725,1.566-1.087,2.669-1.087c0.964,0,1.746,0.284,2.348,0.854c0.357,0.337,0.626,0.82,0.806,1.45l-1.574,0.376
			c-0.093-0.408-0.287-0.73-0.582-0.967c-0.296-0.236-0.655-0.354-1.077-0.354c-0.584,0-1.058,0.21-1.421,0.628
			c-0.363,0.42-0.545,1.098-0.545,2.036c0,0.995,0.179,1.704,0.537,2.127c0.357,0.423,0.823,0.634,1.396,0.634
			c0.422,0,0.786-0.135,1.09-0.402C129.171,63.435,129.39,63.013,129.522,62.437z"/>
		<path d="M139.529,65.331H137.8l-0.688-1.789h-3.147l-0.65,1.789h-1.687l3.067-7.874h1.681L139.529,65.331z M136.601,62.216
			l-1.085-2.922l-1.063,2.922H136.601z"/>
	</g>
	<path id="XMLID_85_" fill="#FEFEFE" d="M90.634,18.201v16.996c0,2.098-1.752,3.85-4.033,3.85H66.636
		c-2.28,0-4.027-1.752-4.027-3.85V15.049c0-2.275,1.747-4.028,4.027-4.028h16.991l-4.029,4.028H66.636v20.149H86.6V22.234
		L90.634,18.201z M87.654,9.796l-1.398,1.574l4.206,4.207l1.401-1.403L87.654,9.796z M90.461,6.994l-1.4,1.398l4.199,4.381
		l1.41-1.404L90.461,6.994z M72.07,25.383l4.199,4.383l12.792-12.787l-4.208-4.205L72.07,25.383z M70.665,31.163h4.031l-4.031-4.028
		V31.163z"/>
</g>
</svg>
