<?xml version="1.0" encoding="utf-8"?>
<!-- Generator: Adobe Illustrator 17.0.0, SVG Export Plug-In . SVG Version: 6.00 Build 0)  -->
<!DOCTYPE svg PUBLIC "-//W3C//DTD SVG 1.1//EN" "http://www.w3.org/Graphics/SVG/1.1/DTD/svg11.dtd" [
	<!ENTITY ns_extend "http://ns.adobe.com/Extensibility/1.0/">
	<!ENTITY ns_ai "http://ns.adobe.com/AdobeIllustrator/10.0/">
	<!ENTITY ns_graphs "http://ns.adobe.com/Graphs/1.0/">
	<!ENTITY ns_vars "http://ns.adobe.com/Variables/1.0/">
	<!ENTITY ns_imrep "http://ns.adobe.com/ImageReplacement/1.0/">
	<!ENTITY ns_sfw "http://ns.adobe.com/SaveForWeb/1.0/">
	<!ENTITY ns_custom "http://ns.adobe.com/GenericCustomNamespace/1.0/">
	<!ENTITY ns_adobe_xpath "http://ns.adobe.com/XPath/1.0/">
]>
<svg version="1.1" id="Capa_1" xmlns:x="&ns_extend;" xmlns:i="&ns_ai;" xmlns:graph="&ns_graphs;"
	 xmlns="http://www.w3.org/2000/svg" xmlns:xlink="http://www.w3.org/1999/xlink" x="0px" y="0px" width="155.706px"
	 height="74.254px" viewBox="0 0 155.706 74.254" enable-background="new 0 0 155.706 74.254" xml:space="preserve">
<metadata><?xpacket begin="﻿" id="W5M0MpCehiHzreSzNTczkc9d"?>
<x:xmpmeta xmlns:x="adobe:ns:meta/" x:xmptk="Adobe XMP Core 5.5-c014 79.151739, 2013/04/03-12:12:15        ">
   <rdf:RDF xmlns:rdf="http://www.w3.org/1999/02/22-rdf-syntax-ns#">
      <rdf:Description rdf:about=""
            xmlns:dc="http://purl.org/dc/elements/1.1/"
            xmlns:xmp="http://ns.adobe.com/xap/1.0/"
            xmlns:xmpGImg="http://ns.adobe.com/xap/1.0/g/img/"
            xmlns:xmpMM="http://ns.adobe.com/xap/1.0/mm/"
            xmlns:stRef="http://ns.adobe.com/xap/1.0/sType/ResourceRef#"
            xmlns:stEvt="http://ns.adobe.com/xap/1.0/sType/ResourceEvent#"
            xmlns:illustrator="http://ns.adobe.com/illustrator/1.0/"
            xmlns:xmpTPg="http://ns.adobe.com/xap/1.0/t/pg/"
            xmlns:stDim="http://ns.adobe.com/xap/1.0/sType/Dimensions#"
            xmlns:xmpG="http://ns.adobe.com/xap/1.0/g/"
            xmlns:pdf="http://ns.adobe.com/pdf/1.3/">
         <dc:format>image/svg+xml</dc:format>
         <dc:title>
            <rdf:Alt>
               <rdf:li xml:lang="x-default">Imprimir</rdf:li>
            </rdf:Alt>
         </dc:title>
         <xmp:MetadataDate>2017-04-11T01:59:07-05:00</xmp:MetadataDate>
         <xmp:ModifyDate>2017-04-11T01:59:07-05:00</xmp:ModifyDate>
         <xmp:CreateDate>2017-04-11T01:59:07-05:00</xmp:CreateDate>
         <xmp:CreatorTool>Adobe Illustrator CC (Windows)</xmp:CreatorTool>
         <xmp:Thumbnails>
            <rdf:Alt>
               <rdf:li rdf:parseType="Resource">
                  <xmpGImg:width>256</xmpGImg:width>
                  <xmpGImg:height>124</xmpGImg:height>
                  <xmpGImg:format>JPEG</xmpGImg:format>
                  <xmpGImg:image>/9j/4AAQSkZJRgABAgEASABIAAD/7QAsUGhvdG9zaG9wIDMuMAA4QklNA+0AAAAAABAASAAAAAEA&#xA;AQBIAAAAAQAB/+4ADkFkb2JlAGTAAAAAAf/bAIQABgQEBAUEBgUFBgkGBQYJCwgGBggLDAoKCwoK&#xA;DBAMDAwMDAwQDA4PEA8ODBMTFBQTExwbGxscHx8fHx8fHx8fHwEHBwcNDA0YEBAYGhURFRofHx8f&#xA;Hx8fHx8fHx8fHx8fHx8fHx8fHx8fHx8fHx8fHx8fHx8fHx8fHx8fHx8fHx8f/8AAEQgAfAEAAwER&#xA;AAIRAQMRAf/EAaIAAAAHAQEBAQEAAAAAAAAAAAQFAwIGAQAHCAkKCwEAAgIDAQEBAQEAAAAAAAAA&#xA;AQACAwQFBgcICQoLEAACAQMDAgQCBgcDBAIGAnMBAgMRBAAFIRIxQVEGE2EicYEUMpGhBxWxQiPB&#xA;UtHhMxZi8CRygvElQzRTkqKyY3PCNUQnk6OzNhdUZHTD0uIIJoMJChgZhJRFRqS0VtNVKBry4/PE&#xA;1OT0ZXWFlaW1xdXl9WZ2hpamtsbW5vY3R1dnd4eXp7fH1+f3OEhYaHiImKi4yNjo+Ck5SVlpeYmZ&#xA;qbnJ2en5KjpKWmp6ipqqusra6voRAAICAQIDBQUEBQYECAMDbQEAAhEDBCESMUEFURNhIgZxgZEy&#xA;obHwFMHR4SNCFVJicvEzJDRDghaSUyWiY7LCB3PSNeJEgxdUkwgJChgZJjZFGidkdFU38qOzwygp&#xA;0+PzhJSktMTU5PRldYWVpbXF1eX1RlZmdoaWprbG1ub2R1dnd4eXp7fH1+f3OEhYaHiImKi4yNjo&#xA;+DlJWWl5iZmpucnZ6fkqOkpaanqKmqq6ytrq+v/aAAwDAQACEQMRAD8A86fmF/yn3mX/ALat9/1E&#xA;virH8VdirsVdirsVdirsVdirsVdirsVdirsVdirsVdirsVdirsVdirsVdirsVdirsVdirsVdirsV&#xA;dirsVZB+YX/KfeZf+2rff9RL4qx/FXYq7FXYq7FXYq7FXYq7FXYq7FXYq7FXYq7FXYq7FXrH5cfk&#xA;He+ffIGra/omrW8uvafMEg0EbSMiqSfVZuPBpf8AdX7JoQT/ACqvLLq1ubS5ltbqJ4LmB2jngkUo&#xA;6OhoyspoQQRQg4qpYq7FXYq7FXYq7FXYq7FXYq7FXYq7FWQfmF/yn3mX/tq33/US+KsfxV2KuxV2&#xA;KuxV2KuxV2KuxV2KuxVG6JpF7rOs2Gj2Khr3UbiK0tlY0BlncRpU70HJsVfbflf/AJxI/KTTdKhg&#xA;1qzm13UeI+sXstxcW6l/2vTjt5Igq16BuR98VTb/AKFc/Ir/AKln/p+1D/soxV3/AEK5+RX/AFLP&#xA;/T9qH/ZRirEvzM/Kj/nGb8vfLkms6z5d5O1UsLBL+/8AWuZqVCIDcbAftN0UfQCq8T0X8vfMvlKb&#xA;SvzZ1nybFL5NF39YbQBJLJJb2zf3MzJKzvwBYFDKxqR8YAYEqvV/NehLpbp+e/5N3EU1pJG8/mLR&#xA;xtDPBXlcMY9uDLSsqbEEcl36qvCPzx/Mjy/+YPm6LXdH0b9FE20cd7I7Ay3EwFWZwvwfB9hW6sBU&#xA;9lVV51irsVdirsVdirsVdirsVdirsVdirsVZB+YX/KfeZf8Atq33/US+KsfxV2KuxV2KuxV2KuxV&#xA;2KuxV2KuxVmv5Kf+Tc8of9tW1/5ODFX2R/zk/qepab+Tmq3enXc1ldpNaBLi3kaKQBrhAQHQqwqM&#xA;VfEX/KwvP3/Uy6r/ANJ1z/zXirv+Vhefv+pl1X/pOuf+a8VfSX5B/kXreuyWPnn8y5rnUFiAk0HS&#xA;dQkknYqTyWeYSlqJ3SPv9o7Uqq+mdRfT49PuX1ExLp6xObxrjj6Ih4n1PU5/Dw415V2pir4B8+TS&#xA;Inmmf8vHv7b8q7jUIIZ0dylrLdcWdVjU0Zk+EsqncLx5/s4q8yxV2KuxV2KuxV2KuxV2KuxV2Kux&#xA;V2KuxVkH5hf8p95l/wC2rff9RL4qx/FXYq7FXYq7FXYq7FXYq7FXYq7FWa/kp/5Nzyh/21bX/k4M&#xA;VfX/APzlf/5JLWP+M9n/ANRKYq+C8VfUv/ON/wDzjcZTa+dPO1rSEUm0bRZl+33W4uEP7PdEPXqd&#xA;qAqvqm6ura0tpbq6lSC2gRpJ55GCIiIKszMaAAAVJOKvk/zr+a5/Oj8ydK/LfRbybTvJN1clLy7i&#xA;FJr30VaUtRvsx/u/3anv8TA7KFWX/wDOUvlzRfLf5E6foui2qWem2epWqQQJ2/dzEsxO7Mx3ZjuT&#xA;ucVfGWKuxV2KuxV2KuxV2KuxV2KuxV2KuxV2Ksg/ML/lPvMv/bVvv+ol8VY/irsVdirsVdirsVdi&#xA;rsVdirsVdirNfyU/8m55Q/7atr/ycGKvr/8A5yv/APJJax/xns/+olMVfIv5Z+V/NVwl/wCdvL9l&#xA;BqjeTJ7O7u9NmT1fUjlMrc/T/bWP6v8AFT4hXkOmKvuL8tvzd8p+evKb+YLO4Sz+ppXWLSd1VrNl&#xA;Us3qMaD06AlZOhHgQQFXyx/zkP8A85D3Pna5l8ueXJXg8pQPSWUVR790OzuNiIQRVEPX7Tb0CqsU&#xA;/wCcb/8Aydvlb/jPN/1DS4q+lf8AnMj/AMlHD/21bb/k3Nir4gxV2KuxV2KuxV2KuxV2KuxV2Kux&#xA;V2KuxVkH5hf8p95l/wC2rff9RL4qx/FXYq7FXYq7FXYq7FXYq7FXYq7FWa/kp/5Nzyh/21bX/k4M&#xA;VfX/APzlf/5JLWP+M9n/ANRKYq+UPyh/O3X/AMsP0t+ibG0vf0v9X9f636nwfVvV48PTdOvrmtcV&#xA;Y55o85T6zrGpahYWkegQauANR03TnljtZSG5msbM3wlwG4/ZDbgDFWO4q9K/5xv/APJ2+Vv+M83/&#xA;AFDS4q+lf+cyP/JRw/8AbVtv+Tc2KviDFXYq7FXYq7FXYq7FXYq7FXYq7FXYq7FWQfmF/wAp95l/&#xA;7at9/wBRL4qx/FXYq7FXYq7FXYq7FXYq7FXYq7FU98ieYY/LfnXQ9fljMsOl31vdTRL9po4pAzhf&#xA;fiDT3xV+iE8Hkb8yfKKrIYNd8uahwlojsEYoQ6huBR1ZWpVTQg7EYqxv/oW/8kv+pWg/5HXP/VXF&#xA;Xf8AQt/5Jf8AUrQf8jrn/qrirv8AoW/8kv8AqVoP+R1z/wBVcVTDy/8Akf8AlV5e1i21nRvL8Nnq&#xA;dmxa2uVlnYoWUoSA8jL9liNxirxr/nMv8wtBl0Kw8lWV0lzqwvFvdQjiIcQRxRyIschH2XdpKheo&#xA;C79RVV8l4q7FXYq7FXYq7FXYq7FXYq7FXYq7FXYqyD8wv+U+8y/9tW+/6iXxVj+KuxV2KuxV2Kux&#xA;V2KuxV2KuxV2KuxVWgvLu3BEE8kIb7QjZlrTxocVVf0tqv8Ay2z/API1/wCuKu/S2q/8ts//ACNf&#xA;+uKu/S2q/wDLbP8A8jX/AK4q79Lar/y2z/8AI1/64qhSSTU7k9TirWKuxV2KuxV2KuxV2KuxV2Ku&#xA;xV2KuxV2Ks98+eQ/PM/nnzFND5d1OWGXU7x4pUs7hlZWuHKsrBKEEdDiqRf8q98/f9S1qv8A0g3P&#xA;/NGKu/5V75+/6lrVf+kG5/5oxV3/ACr3z9/1LWq/9INz/wA0Yq7/AJV75+/6lrVf+kG5/wCaMVd/&#xA;yr3z9/1LWq/9INz/AM0Yq7/lXvn7/qWtV/6Qbn/mjFXf8q98/f8AUtar/wBINz/zRirv+Ve+fv8A&#xA;qWtV/wCkG5/5oxV3/KvfP3/Utar/ANINz/zRirv+Ve+fv+pa1X/pBuf+aMVd/wAq98/f9S1qv/SD&#xA;c/8ANGKu/wCVe+fv+pa1X/pBuf8AmjFXf8q98/f9S1qv/SDc/wDNGKu/5V75+/6lrVf+kG5/5oxV&#xA;3/KvfP3/AFLWq/8ASDc/80Yq7/lXvn7/AKlrVf8ApBuf+aMVd/yr3z9/1LWq/wDSDc/80Yq7/lXv&#xA;n7/qWtV/6Qbn/mjFXf8AKvfP3/Utar/0g3P/ADRirv8AlXvn7/qWtV/6Qbn/AJoxV3/KvfP3/Uta&#xA;r/0g3P8AzRirv+Ve+fv+pa1X/pBuf+aMVd/yr3z9/wBS1qv/AEg3P/NGKu/5V75+/wCpa1X/AKQb&#xA;n/mjFXf8q98/f9S1qv8A0g3P/NGKu/5V75+/6lrVf+kG5/5oxV3/ACr3z9/1LWq/9INz/wA0Yq7/&#xA;AJV75+/6lrVf+kG5/wCaMVd/yr3z9/1LWq/9INz/AM0Yq7/lXvn7/qWtV/6Qbn/mjFXf8q98/f8A&#xA;Utar/wBINz/zRir9NMVdirsVdirsVdirsVdirsVdirsVdirsVdirsVdirsVdirsVdirsVdirsVdi&#xA;rsVdirsVdirsVdirsVdirsVdirsVQ+o6hZadYXOoX0y29lZxPPczv9lIo1LOx9goriqXeU/OXlnz&#xA;dpZ1Xy5fpqNgsrQNPGHUCRACykOFYEBgemKpT5u/N38t/KF6th5i163sb5grfVaSSyqrfZLpCsjI&#xA;D4sBiq6//Nn8ubHyxa+abnXbcaBezC2ttQTnKjTFXb06RqzK1I2qCNqYqk1r/wA5EfkzdXMVtb+Z&#xA;4JJ53WKJBDcgs7nio3i7k4qjbv8AO/8AKu0S7e51+KJLG8/R127RT8Y7o8z6TN6dK/un36bYqyLz&#xA;R5t8ueVtIbWNfvksNNRkjNw4ZhykNFACBmNfYYqlsP5o+Q5rjUraPVkM+kWC6tqURjmVobJoUuBM&#xA;wZB/uqVW4j4t+lcVSbT/APnIH8mtQu47S281WnrSkKnqiWBSSQAOcqIg3Pc4qz24u7W3tJLyaVUt&#xA;YY2mkmJ+FY1XkWJ8AN8VSfyh558qecdPl1Dy1qMepWcEpgmljDrxkCh+JWRUb7LjtirHNR/P38oN&#xA;N1S60q+8yQW9/ZTyWt1C0dx8E0TmN1LCPj8LKRWtMVZno2t6Rremw6npF5Df6fcDlDdW7iSNux3X&#xA;uDsR1B64qkHnD81vy+8m30Nj5l1iPTbu4i9eGJ45nLR8ivKsaOPtKRiqM8p+f/Jnm+GWXy3rFvqY&#xA;hp6yQt+8Tl0LxsFdQfcYqljfnJ+Wi+XZvMba5ENFt7w6bNeenNxW7CCT0uPDlXia1pTFXeWfzl/K&#xA;/wAz6imm6J5itbq/kr6VqS8MjkCtI1mWMuadlriqI/NLzm/k3yJqnmCH0Dd2yKlkl0xWFp5XEcfO&#xA;hVioLciAQSBiqO8jazda15R0rVrq7s764vrdZ5LnTkkjtWL70iWZ5JKL9n4jWo6DoFUi1v8APL8p&#xA;tD1h9G1PzLawajE/pzQr6kojetCskkaPGhB+0GYU74qivMn5v/lr5bWxfWdet7aPU4frOnyqJJkm&#xA;h6eojwrIpX6cVQei/nt+U2t6imnaX5hhur2RJZUhWK4UlIImmlNWjUfDHGzfRiqeaf8AmB5M1Dys&#xA;3mu21aD/AA6nMtqchMMQ9NuDV9UIftjj03PTFUq8sfnR+V/mjVRpOheYbe71F6+nbESRO/EVPp+q&#xA;kfOg3+GuKpz5u87+VfJ+nR6l5l1CPTbKaUW8U0gduUrKzhQI1dvsoT0xVNrO8tb2zgvLSVZrW5jS&#xA;a3mQ1V45FDIynwKmuKq2KuxV2KuxV2KuxV4b/wA5cedV0b8voPLsM4gvfM9wLd3JICWkJV53NKml&#xA;SiHbcMcVYV/zjh5n8r+XPzX13yNoGqjVPLOsxJdaLdUda3UEQaVOMgVgShcH/UGKpn/zjn5X8sec&#xA;NV89+YPNmmWureYW1eWGaO/jS49CJwx4qkgZV5HklQOi06Yq9J/Lf8v/AMm7XTtX0zywbTW7A35m&#xA;v7KaWO/it7pA0YAibksRC1UGlSvc4qwL/nG3yv5avNX/ADBa70myuGsvMMyWbS28TmFVd+KxclPA&#xA;CmwXFWE+VfJZ83+Vvzv0uJDJfQ6sb3TwoqxuLWa6lVV95ADH/ssVWHzfL+b2n/lP+X3qGaQObjzQ&#xA;tTX09P5QqzMOjPbxSN83XFWQ+YFVfzf/AD0VQFVfJsoVRsABpltsMVRnlzyH5I1T/nE/9JajpNn+&#xA;kINHv7yLU/RjW5W4t2naJvWAEh+JQKV3G2KpHrv5kX+m/wDOIXl60nuGOseYkm0iBmNHFlb3Msbn&#xA;fqoto0i/2QxVZ/zj15k8reUvzgufKGgayureW/MVjb/V7oCRR+kraDk4PqrHTmwmptvVBirIvyK8&#xA;teXdc/M/85Y9a0u01NI9bKxreQRzhRJd34cL6itx5cRWmKo//nGZE0vzx+Z/lnTGLeXNL1RTYRcu&#xA;aRM0s8RVT3qkKqT/AJAxVV/MbTtP1H/nKn8v7PULaK8s5dKvPVtrhFljbjDesvJHBU0YAj3xVL9X&#xA;0bSfKf8Azlh5Ug8rW8emx63p0p1ewtFVInBW4JYxIAFr6CuabVWvjiryK5/9Zk1v/wADl/8AqCjx&#xA;V6r/AM5MeUvKWh/lnofmbR7G10bzFZXtl9RvrKFLeZmMbOVLRha8SnqAnoR74qh/+ckfOOjav5j8&#xA;keRdfvhpuju0Wreaphy+BWUhI/gDMG4iXsd2U4qofkL+YMtp+VX5g+VtOvvrV95TtdSvvL14gb97&#xA;bmOVkeJCA1FnXnvv+8GKp1+Qf5a/llq/5EJqev6bZ3Fxqcd8dZ1SdUaeFYp5kDLM4ZoTHEiuCKfz&#xA;YqzvTvJP5Wp+VUsHl+Kz13R7CxvP0bfTGK/aMsryuEmYNw/eMSVFKHtirCv+cfdA0I/84+/pg6ba&#xA;nVlt9WC6iYY/rIFZkoJuPP7B49em2KvJYGF5+Un5Q+X79inlzVvMV2usNy4rxW9SMcqUP93PKfbF&#xA;X0V5s/K38jbLVfLN1qMFl5bvbO5UaK1rJHpxnnQq6IzIEMpVlBFTWp6/Fuq8m/5yL8yeV/NH5t6b&#xA;5L1/WF0ry3oVnPLf3dHal/cwlolpGrluP7nttVhir0D/AJxL88jX/wAtholxL6moeWpfqbb1LWr1&#xA;e2bfsByjHsmKvbcVdirsVdirsVdirA9f/KLSNf8AzJ0zztq9092ukW7W9nosscbWoLB6yNyBLNWT&#xA;l8wvhiqh5v8AyW8va75i8u+YdPl/QOqeXbj14ZLGGJVmHJG9OVaLUfBT5MRirH/Nv/ON9hqXmm98&#xA;y+WPMupeUdQ1TkdVXT2IjnZ93aiPEylySW+Iiu9BirM/yv8Ayu8u/l15eOj6MZJmmkM97ezkGaeU&#xA;gCrcQAFUCiqOnzJJVWfl3+Wdj5JufMM9rey3Z8w376jMsqqojeQseC8eo+Lviql+XP5Waf5H1LzJ&#xA;f2t9LeP5kvPr06SqqiJucj8U49R+974qk/5cfkB5W8iec9V80abcSzzagssdtaSKgjtY5pRKyRkb&#xA;mnEKCd6fPFUXf/kvpl55r85+Ym1KdZvOekto91AETjBG1vHb+pGerNSKtDirDLX/AJxStRpsOi33&#xA;nnX7ry3ERXRFn9O1IDc+IjJeNRy32TrirMdU/I7y1qHmryvq0krLo/lK2+raX5dEata7Aj1HLcmL&#xA;V4E+PAV74qv8+fkn5c8z32halYuNA1TQLoXdpeWMESlmBVgsgAXkA0akfT44qxa7/wCcZ3/xJruu&#xA;aT551rQ38wXk17fQadJ9XVjLK8oRjGy8wnqsF5ePvir0H8tvyz8tfl7oT6ToYlkE8pnvLy5YPPPK&#xA;QBydgFGwGwAoPmTirHvzL/JGPzr5q07zNB5jv/L+p6ZbG1tp9OIjkCszlmEoKupZZSpoemKqv5d/&#xA;kfoflDXbjzLdapf+Y/M1zGYDq2qS+tIkRpVUrU1IWnIkmmwoK4qkMn/OM2hP+Xd55JOtXQtbzWTr&#xA;jXfpx+oshhWH0gvTjRa1xVdpP/ONWmDVtPv/ADT5q1rzZDpUizWGnanOZLVZFpTkjmSq7D4QQD0N&#xA;RtirJNI/JvQrX8wNf87anMdZ1HW1WJILuKNoraFSvFIweVaLGi1Ph74qtT8mdBtvzOTz3ps5sGez&#xA;ax1DR4Yoxa3UbIUPqAUp+waDaqD3xVhF/wD84naX699baD5t1bRPLWpvzvtAgcvA4JqUqXUFfD1F&#xA;Y+5xV6xofkXQ9B8kp5P0hGttLjtZLVGJDSfvg3ORjsGdmcsffFUt8i/lnY+Ufy9Pkq2vZbq1KXKf&#xA;W5FVZKXTMzHiNvh57Yqx+H/nHnyi/wCVtv8Al7qFxPeWdpNJdWepAJHcwzyOz80oGXb1CtCKEYql&#xA;Hln/AJxmsLHzJputeZvNGpeaxopDaPZX7EwwlSGSvJ5SVUgEKvEVArUbYqyjyZ+S/l7y/rPmHWr+&#xA;Qa9qfmK6+tXM19DEwi+J24RKQ3FayH6APDFVTy1+UOk+W/zG1fzlpF3Jaxa1CIbvREjRbUMoT94l&#xA;KENyQt/smxVn2KuxV2KuxV2KuxV2KuxV2KuxV2KuxV2KuxV2KuxV2KuxV2KuxV2KuxV2KuxV2Kux&#xA;V2KuxV2KuxV2KuxV2KuxV2KuxV2KuxV2KuxV2KuxV2KuxV2KuxV2KuxV2KuxV2KuxV2KuxV2KuxV&#xA;2KuxV2KuxV2KuxV2KuxV2KuxV2Kv/9k=</xmpGImg:image>
               </rdf:li>
            </rdf:Alt>
         </xmp:Thumbnails>
         <xmpMM:InstanceID>xmp.iid:9abfa668-2609-c146-aeb5-945099e7e6e3</xmpMM:InstanceID>
         <xmpMM:DocumentID>xmp.did:9abfa668-2609-c146-aeb5-945099e7e6e3</xmpMM:DocumentID>
         <xmpMM:OriginalDocumentID>uuid:5D20892493BFDB11914A8590D31508C8</xmpMM:OriginalDocumentID>
         <xmpMM:RenditionClass>proof:pdf</xmpMM:RenditionClass>
         <xmpMM:DerivedFrom rdf:parseType="Resource">
            <stRef:instanceID>uuid:ff470bc6-f939-440e-8f31-27b0eb70075c</stRef:instanceID>
            <stRef:documentID>xmp.did:4de20fe2-e96f-dd46-b8bd-1606dc72d06f</stRef:documentID>
            <stRef:originalDocumentID>uuid:5D20892493BFDB11914A8590D31508C8</stRef:originalDocumentID>
            <stRef:renditionClass>proof:pdf</stRef:renditionClass>
         </xmpMM:DerivedFrom>
         <xmpMM:History>
            <rdf:Seq>
               <rdf:li rdf:parseType="Resource">
                  <stEvt:action>saved</stEvt:action>
                  <stEvt:instanceID>xmp.iid:9abfa668-2609-c146-aeb5-945099e7e6e3</stEvt:instanceID>
                  <stEvt:when>2017-04-11T01:59:07-05:00</stEvt:when>
                  <stEvt:softwareAgent>Adobe Illustrator CC (Windows)</stEvt:softwareAgent>
                  <stEvt:changed>/</stEvt:changed>
               </rdf:li>
            </rdf:Seq>
         </xmpMM:History>
         <illustrator:StartupProfile>Print</illustrator:StartupProfile>
         <xmpTPg:HasVisibleOverprint>False</xmpTPg:HasVisibleOverprint>
         <xmpTPg:HasVisibleTransparency>True</xmpTPg:HasVisibleTransparency>
         <xmpTPg:NPages>1</xmpTPg:NPages>
         <xmpTPg:MaxPageSize rdf:parseType="Resource">
            <stDim:w>155.705994</stDim:w>
            <stDim:h>74.254028</stDim:h>
            <stDim:unit>Pixels</stDim:unit>
         </xmpTPg:MaxPageSize>
         <xmpTPg:PlateNames>
            <rdf:Seq>
               <rdf:li>Cyan</rdf:li>
               <rdf:li>Magenta</rdf:li>
               <rdf:li>Yellow</rdf:li>
               <rdf:li>Black</rdf:li>
            </rdf:Seq>
         </xmpTPg:PlateNames>
         <xmpTPg:SwatchGroups>
            <rdf:Seq>
               <rdf:li rdf:parseType="Resource">
                  <xmpG:groupName>Grupo de muestras por defecto</xmpG:groupName>
                  <xmpG:groupType>0</xmpG:groupType>
               </rdf:li>
            </rdf:Seq>
         </xmpTPg:SwatchGroups>
         <pdf:Producer>Adobe PDF library 10.01</pdf:Producer>
      </rdf:Description>
   </rdf:RDF>
</x:xmpmeta>
                                                                                                    
                                                                                                    
                                                                                                    
                                                                                                    
                                                                                                    
                                                                                                    
                                                                                                    
                                                                                                    
                                                                                                    
                                                                                                    
                                                                                                    
                                                                                                    
                                                                                                    
                                                                                                    
                                                                                                    
                                                                                                    
                                                                                                    
                                                                                                    
                                                                                                    
                                                                                                    
                           
<?xpacket end="w"?>
	</metadata>
<g>
	
		<rect id="XMLID_248_" x="0.541" y="0" opacity="0.5" fill="#FFFFFF" enable-background="new    " width="154.914" height="74.254"/>
	<rect id="XMLID_257_" x="0.541" y="0" width="155.165" height="48.154"/>
	<rect id="XMLID_320_" x="0" y="57.455" fill="none" width="155.706" height="13.102"/>
	<g enable-background="new    ">
		<path d="M24.034,65.331h-1.729l-0.688-1.789H18.47l-0.65,1.789h-1.687l3.067-7.874h1.681L24.034,65.331z M21.107,62.216
			l-1.085-2.922l-1.063,2.922H21.107z"/>
		<path d="M29.916,62.437l1.542,0.488c-0.236,0.859-0.629,1.498-1.179,1.915c-0.55,0.417-1.247,0.626-2.092,0.626
			c-1.045,0-1.905-0.357-2.578-1.072c-0.673-0.714-1.01-1.69-1.01-2.93c0-1.311,0.338-2.328,1.015-3.054
			c0.677-0.725,1.566-1.087,2.669-1.087c0.963,0,1.746,0.284,2.347,0.854c0.358,0.337,0.626,0.82,0.806,1.45l-1.574,0.376
			c-0.093-0.408-0.288-0.73-0.583-0.967c-0.296-0.236-0.655-0.354-1.077-0.354c-0.583,0-1.057,0.21-1.421,0.628
			c-0.363,0.42-0.545,1.098-0.545,2.036c0,0.995,0.179,1.704,0.537,2.127s0.824,0.634,1.396,0.634c0.422,0,0.786-0.135,1.09-0.402
			C29.564,63.435,29.783,63.013,29.916,62.437z"/>
		<path d="M34.594,65.331v-6.542h-2.336v-1.332h6.257v1.332h-2.331v6.542H34.594z"/>
		<path d="M39.492,65.331v-7.874h1.59v7.874H39.492z"/>
		<path d="M44.605,65.331l-2.814-7.874h1.724l1.993,5.827l1.928-5.827h1.687l-2.82,7.874H44.605z"/>
		<path d="M49.885,65.331v-7.874h1.59v7.874H49.885z"/>
		<path d="M52.984,57.457h2.906c0.655,0,1.155,0.05,1.499,0.15c0.462,0.136,0.857,0.378,1.187,0.726
			c0.33,0.347,0.58,0.772,0.752,1.275s0.258,1.123,0.258,1.861c0,0.647-0.081,1.206-0.242,1.676
			c-0.197,0.572-0.478,1.036-0.843,1.391c-0.276,0.269-0.648,0.479-1.117,0.629c-0.351,0.11-0.82,0.166-1.407,0.166h-2.992V57.457z
			 M54.574,58.789v5.216h1.187c0.444,0,0.765-0.025,0.961-0.076c0.258-0.064,0.472-0.173,0.642-0.327
			c0.17-0.154,0.309-0.407,0.417-0.76s0.161-0.834,0.161-1.442s-0.054-1.076-0.161-1.402c-0.107-0.325-0.258-0.58-0.451-0.762
			c-0.193-0.184-0.438-0.307-0.736-0.371c-0.222-0.05-0.657-0.075-1.305-0.075H54.574z"/>
		<path d="M68.034,65.331h-1.729l-0.688-1.789H62.47l-0.65,1.789h-1.687l3.067-7.874h1.681L68.034,65.331z M65.107,62.216
			l-1.085-2.922l-1.063,2.922H65.107z"/>
		<path d="M68.872,57.457h2.906c0.655,0,1.155,0.05,1.499,0.15c0.462,0.136,0.857,0.378,1.187,0.726
			c0.33,0.347,0.58,0.772,0.752,1.275s0.258,1.123,0.258,1.861c0,0.647-0.081,1.206-0.242,1.676
			c-0.197,0.572-0.478,1.036-0.843,1.391c-0.276,0.269-0.648,0.479-1.117,0.629c-0.351,0.11-0.82,0.166-1.407,0.166h-2.992V57.457z
			 M70.462,58.789v5.216h1.187c0.444,0,0.765-0.025,0.961-0.076c0.258-0.064,0.472-0.173,0.642-0.327
			c0.17-0.154,0.309-0.407,0.417-0.76s0.161-0.834,0.161-1.442s-0.054-1.076-0.161-1.402c-0.107-0.325-0.258-0.58-0.451-0.762
			c-0.193-0.184-0.438-0.307-0.736-0.371c-0.222-0.05-0.657-0.075-1.305-0.075H70.462z"/>
		<path d="M79.872,57.457h2.906c0.655,0,1.154,0.05,1.498,0.15c0.462,0.136,0.857,0.378,1.188,0.726
			c0.329,0.347,0.58,0.772,0.752,1.275s0.258,1.123,0.258,1.861c0,0.647-0.081,1.206-0.242,1.676
			c-0.196,0.572-0.478,1.036-0.843,1.391c-0.276,0.269-0.648,0.479-1.117,0.629c-0.352,0.11-0.82,0.166-1.407,0.166h-2.992V57.457z
			 M81.461,58.789v5.216h1.188c0.443,0,0.765-0.025,0.961-0.076c0.258-0.064,0.472-0.173,0.642-0.327
			c0.171-0.154,0.31-0.407,0.417-0.76s0.161-0.834,0.161-1.442s-0.054-1.076-0.161-1.402c-0.107-0.325-0.258-0.58-0.451-0.762
			c-0.193-0.184-0.438-0.307-0.736-0.371c-0.222-0.05-0.657-0.075-1.305-0.075H81.461z"/>
		<path d="M87.773,65.331v-7.874h1.59v7.874H87.773z"/>
		<path d="M90.872,57.457h2.906c0.655,0,1.154,0.05,1.498,0.15c0.462,0.136,0.857,0.378,1.188,0.726
			c0.329,0.347,0.58,0.772,0.752,1.275s0.258,1.123,0.258,1.861c0,0.647-0.081,1.206-0.242,1.676
			c-0.196,0.572-0.478,1.036-0.843,1.391c-0.276,0.269-0.648,0.479-1.117,0.629c-0.352,0.11-0.82,0.166-1.407,0.166h-2.992V57.457z
			 M92.461,58.789v5.216h1.188c0.443,0,0.765-0.025,0.961-0.076c0.258-0.064,0.472-0.173,0.642-0.327
			c0.171-0.154,0.31-0.407,0.417-0.76s0.161-0.834,0.161-1.442s-0.054-1.076-0.161-1.402c-0.107-0.325-0.258-0.58-0.451-0.762
			c-0.193-0.184-0.438-0.307-0.736-0.371c-0.222-0.05-0.657-0.075-1.305-0.075H92.461z"/>
		<path d="M105.921,65.331h-1.729l-0.688-1.789h-3.147l-0.649,1.789h-1.687l3.066-7.874h1.682L105.921,65.331z M102.995,62.216
			l-1.085-2.922l-1.063,2.922H102.995z M100.997,57.006l0.741-1.606h1.691l-1.477,1.606H100.997z"/>
		<path d="M111.803,62.437l1.541,0.488c-0.236,0.859-0.629,1.498-1.179,1.915s-1.247,0.626-2.092,0.626
			c-1.046,0-1.905-0.357-2.578-1.072c-0.674-0.714-1.01-1.69-1.01-2.93c0-1.311,0.338-2.328,1.015-3.054
			c0.677-0.725,1.566-1.087,2.67-1.087c0.963,0,1.745,0.284,2.347,0.854c0.358,0.337,0.627,0.82,0.806,1.45l-1.573,0.376
			c-0.094-0.408-0.288-0.73-0.583-0.967c-0.296-0.236-0.654-0.354-1.077-0.354c-0.583,0-1.057,0.21-1.421,0.628
			c-0.363,0.42-0.545,1.098-0.545,2.036c0,0.995,0.18,1.704,0.537,2.127c0.358,0.423,0.824,0.634,1.396,0.634
			c0.423,0,0.786-0.135,1.091-0.402C111.452,63.435,111.67,63.013,111.803,62.437z"/>
		<path d="M116.481,65.331v-6.542h-2.336v-1.332h6.257v1.332h-2.331v6.542H116.481z"/>
		<path d="M121.379,65.331v-7.874h1.59v7.874H121.379z"/>
		<path d="M129.522,62.437l1.542,0.488c-0.236,0.859-0.63,1.498-1.179,1.915c-0.55,0.417-1.247,0.626-2.093,0.626
			c-1.045,0-1.904-0.357-2.578-1.072c-0.673-0.714-1.01-1.69-1.01-2.93c0-1.311,0.339-2.328,1.016-3.054
			c0.677-0.725,1.566-1.087,2.669-1.087c0.964,0,1.746,0.284,2.348,0.854c0.357,0.337,0.626,0.82,0.806,1.45l-1.574,0.376
			c-0.093-0.408-0.287-0.73-0.582-0.967c-0.296-0.236-0.655-0.354-1.077-0.354c-0.584,0-1.058,0.21-1.421,0.628
			c-0.363,0.42-0.545,1.098-0.545,2.036c0,0.995,0.179,1.704,0.537,2.127c0.357,0.423,0.823,0.634,1.396,0.634
			c0.422,0,0.786-0.135,1.09-0.402C129.171,63.435,129.39,63.013,129.522,62.437z"/>
		<path d="M139.529,65.331h-1.729l-0.688-1.789h-3.147l-0.65,1.789h-1.687l3.067-7.874h1.681L139.529,65.331z M136.601,62.216
			l-1.085-2.922l-1.063,2.922H136.601z"/>
	</g>
	<path id="XMLID_284_" fill="#FEFEFE" d="M90.634,18.201v16.996c0,2.098-1.752,3.85-4.033,3.85H66.636
		c-2.28,0-4.027-1.752-4.027-3.85V15.049c0-2.275,1.747-4.028,4.027-4.028h16.991l-4.029,4.028H66.636v20.149H86.6V22.234
		L90.634,18.201z M87.654,9.796l-1.398,1.574l4.206,4.207l1.401-1.403L87.654,9.796z M90.461,6.994l-1.4,1.398l4.199,4.381
		l1.41-1.404L90.461,6.994z M72.07,25.383l4.199,4.383l12.792-12.787l-4.208-4.205L72.07,25.383z M70.665,31.163h4.031l-4.031-4.028
		V31.163z"/>
</g>
</svg>
