<?xml version="1.0" encoding="utf-8"?>
<!-- Generator: Adobe Illustrator 17.0.0, SVG Export Plug-In . SVG Version: 6.00 Build 0)  -->
<!DOCTYPE svg PUBLIC "-//W3C//DTD SVG 1.1//EN" "http://www.w3.org/Graphics/SVG/1.1/DTD/svg11.dtd" [
	<!ENTITY ns_extend "http://ns.adobe.com/Extensibility/1.0/">
	<!ENTITY ns_ai "http://ns.adobe.com/AdobeIllustrator/10.0/">
	<!ENTITY ns_graphs "http://ns.adobe.com/Graphs/1.0/">
	<!ENTITY ns_vars "http://ns.adobe.com/Variables/1.0/">
	<!ENTITY ns_imrep "http://ns.adobe.com/ImageReplacement/1.0/">
	<!ENTITY ns_sfw "http://ns.adobe.com/SaveForWeb/1.0/">
	<!ENTITY ns_custom "http://ns.adobe.com/GenericCustomNamespace/1.0/">
	<!ENTITY ns_adobe_xpath "http://ns.adobe.com/XPath/1.0/">
]>
<svg version="1.1" id="Capa_1" xmlns:x="&ns_extend;" xmlns:i="&ns_ai;" xmlns:graph="&ns_graphs;"
	 xmlns="http://www.w3.org/2000/svg" xmlns:xlink="http://www.w3.org/1999/xlink" x="0px" y="0px" width="155.706px"
	 height="74.254px" viewBox="0 0 155.706 74.254" enable-background="new 0 0 155.706 74.254" xml:space="preserve">
<metadata><?xpacket begin="﻿" id="W5M0MpCehiHzreSzNTczkc9d"?>
<x:xmpmeta xmlns:x="adobe:ns:meta/" x:xmptk="Adobe XMP Core 5.5-c014 79.151739, 2013/04/03-12:12:15        ">
   <rdf:RDF xmlns:rdf="http://www.w3.org/1999/02/22-rdf-syntax-ns#">
      <rdf:Description rdf:about=""
            xmlns:dc="http://purl.org/dc/elements/1.1/"
            xmlns:xmp="http://ns.adobe.com/xap/1.0/"
            xmlns:xmpGImg="http://ns.adobe.com/xap/1.0/g/img/"
            xmlns:xmpMM="http://ns.adobe.com/xap/1.0/mm/"
            xmlns:stRef="http://ns.adobe.com/xap/1.0/sType/ResourceRef#"
            xmlns:stEvt="http://ns.adobe.com/xap/1.0/sType/ResourceEvent#"
            xmlns:illustrator="http://ns.adobe.com/illustrator/1.0/"
            xmlns:xmpTPg="http://ns.adobe.com/xap/1.0/t/pg/"
            xmlns:stDim="http://ns.adobe.com/xap/1.0/sType/Dimensions#"
            xmlns:xmpG="http://ns.adobe.com/xap/1.0/g/"
            xmlns:pdf="http://ns.adobe.com/pdf/1.3/">
         <dc:format>image/svg+xml</dc:format>
         <dc:title>
            <rdf:Alt>
               <rdf:li xml:lang="x-default">Imprimir</rdf:li>
            </rdf:Alt>
         </dc:title>
         <xmp:MetadataDate>2017-04-11T01:59:07-05:00</xmp:MetadataDate>
         <xmp:ModifyDate>2017-04-11T01:59:07-05:00</xmp:ModifyDate>
         <xmp:CreateDate>2017-04-11T01:59:07-05:00</xmp:CreateDate>
         <xmp:CreatorTool>Adobe Illustrator CC (Windows)</xmp:CreatorTool>
         <xmp:Thumbnails>
            <rdf:Alt>
               <rdf:li rdf:parseType="Resource">
                  <xmpGImg:width>256</xmpGImg:width>
                  <xmpGImg:height>124</xmpGImg:height>
                  <xmpGImg:format>JPEG</xmpGImg:format>
                  <xmpGImg:image>/9j/4AAQSkZJRgABAgEASABIAAD/7QAsUGhvdG9zaG9wIDMuMAA4QklNA+0AAAAAABAASAAAAAEA&#xA;AQBIAAAAAQAB/+4ADkFkb2JlAGTAAAAAAf/bAIQABgQEBAUEBgUFBgkGBQYJCwgGBggLDAoKCwoK&#xA;DBAMDAwMDAwQDA4PEA8ODBMTFBQTExwbGxscHx8fHx8fHx8fHwEHBwcNDA0YEBAYGhURFRofHx8f&#xA;Hx8fHx8fHx8fHx8fHx8fHx8fHx8fHx8fHx8fHx8fHx8fHx8fHx8fHx8fHx8f/8AAEQgAfAEAAwER&#xA;AAIRAQMRAf/EAaIAAAAHAQEBAQEAAAAAAAAAAAQFAwIGAQAHCAkKCwEAAgIDAQEBAQEAAAAAAAAA&#xA;AQACAwQFBgcICQoLEAACAQMDAgQCBgcDBAIGAnMBAgMRBAAFIRIxQVEGE2EicYEUMpGhBxWxQiPB&#xA;UtHhMxZi8CRygvElQzRTkqKyY3PCNUQnk6OzNhdUZHTD0uIIJoMJChgZhJRFRqS0VtNVKBry4/PE&#xA;1OT0ZXWFlaW1xdXl9WZ2hpamtsbW5vY3R1dnd4eXp7fH1+f3OEhYaHiImKi4yNjo+Ck5SVlpeYmZ&#xA;qbnJ2en5KjpKWmp6ipqqusra6voRAAICAQIDBQUEBQYECAMDbQEAAhEDBCESMUEFURNhIgZxgZEy&#xA;obHwFMHR4SNCFVJicvEzJDRDghaSUyWiY7LCB3PSNeJEgxdUkwgJChgZJjZFGidkdFU38qOzwygp&#xA;0+PzhJSktMTU5PRldYWVpbXF1eX1RlZmdoaWprbG1ub2R1dnd4eXp7fH1+f3OEhYaHiImKi4yNjo&#xA;+DlJWWl5iZmpucnZ6fkqOkpaanqKmqq6ytrq+v/aAAwDAQACEQMRAD8A555h/wCO/qX/ADFT/wDJ&#xA;xs63H9I9zzs/qKX5Ni7FXYq7FXYq7FXYq7FXYq7FXYq7FXYq7FXYq7FXYq7FXYq7FXYq7FXYq7FX&#xA;Yq7FXYq7FXYq7FUw8vf8d/Tf+YqD/k4uQyfSfcyh9Qd5h/47+pf8xU//ACcbHH9I9yz+opfk2LsV&#xA;dirsVdirsVdirsVdirsVdirsVdir1r8rfyN1jXn0rzBqht4/L0kgme2dmM88SMfhCKKBXK03cGm9&#xA;M12q10YXEfU5un0hlUj9L0n8xPySTzJpEQ0m30zS9Ytbh/Qkgia3hezJISOX01c+oq8Ty4kVqBQH&#xA;MHTa7gl6rMf0uVn0vGNqBfN3mPy/qfl7W7vRtTQR3tmwWVVPJTyUOrKfBlYEZvMeQTiJDkXVTgYm&#xA;iluTYuxV2KuxV2KuxV2KuxV2KuxV2KuxV2KuxVMPL3/Hf03/AJioP+Ti5DJ9J9zKH1B3mH/jv6l/&#xA;zFT/APJxscf0j3LP6il+TYuxV2KuxV2KuxV2KuxV2KuxV2Ksw/KKws7/APMjQrW8hW4tnnZnhkAZ&#xA;WMcbutQdj8SjMbWSIxSIbtMAcgBfZiqFAVRQDYAdAM5h3zDIPJXmnS0Nn5d8yJYaOjM1rY3Nil2Y&#xA;FdixjSX1YWKAk8QwJA2rmUc8JbyjcvfTQMUhtGVD3Kn+H/zL/wCpvtP+4Qv/AGU4PExfzD/pv2Lw&#xA;ZP532ftTfy35dGjx3ck109/qWozfWdQvpFVDJIEWNQqLsiIiBVXtleXJxVtQHJnjhw+ZLzn/AJyZ&#xA;sLKTyPa3zwobyC9jjiuKfGqOknJQ3XiaDbM3syR8QjpTi68DgvzfMOb51LsVdirsVdirsVdirsVd&#xA;irsVdirsVdiqYeXv+O/pv/MVB/ycXIZPpPuZQ+oO8w/8d/Uv+Yqf/k42OP6R7ln9RS/JsXYq7FXY&#xA;q7FXYq7FXYq7FXYq7FWb/kn/AOTR0D/jLJ/yYkzE139zJyNL/eB6N+bemaxrn5sw6NY62mjq2mRz&#xA;B7i4eCElXkqBx6sf1DMLRyjDDxEXu5WpiZZaBrZKf+VP+b/+p70//pOm/plv5yH8w/Jr/LS/nD5u&#xA;/wCVP+b/APqe9P8A+k6b+mP5yH8w/Jfy0v5w+aVeZ/y981aBolzq0vnO0ultgp+rQXsxlfkwWiA9&#xA;Tvk8WohOQHAfkwyYZRF8Q+bPfznd3/I/QXdizsdPZmY1JJtmJJJzE0X+MS+P3uTqv7kfB84Zu3Vu&#xA;xV2KuxV2KuxV2KuxV2KuxV2KuxV2Kph5e/47+m/8xUH/ACcXIZPpPuZQ+oO8w/8AHf1L/mKn/wCT&#xA;jY4/pHuWf1FL8mxdirsVdirsVdirsVdirsVdirsVZv8Akn/5NHQP+Msn/JiTMTXf3MnI0v8AeBnf&#xA;5y+WofMf5uw6bLqdrpKtpccgurxuEZKPJ8AO3xH55iaLLwYbon1dHI1WPiy1dbJJ/wAqL0//AKnj&#xA;Rf8Akcv/ADXlv58/zJNf5Qfzou/5UXp//U8aL/yOX/mvH8+f5kl/KD+dFK/Mv5S2ei6JdanH5t0m&#xA;/e2UMLSCUGWSrBaIAzVO/hlmLVmUgOGQYZNMIi+IF6V+cZB/Izy+Qaj/AHHb/wDRq2YOi/xiXx+9&#xA;y9V/cj4PnLN26t2KuxV2KuxV2KuxV2KuxV2KuxV2KuxVMPL3/Hf03/mKg/5OLkMn0n3MofUHeYf+&#xA;O/qX/MVP/wAnGxx/SPcs/qKX5Ni7FXYq7FXYq7FXYq7FXYq7FXYqzf8AJP8A8mjoH/GWT/kxJmJr&#xA;v7mTkaX+8DO/zlsfKl7+bsMPmjUZdL0r9Fxs1zBG0rmQPJwWirIRXx4nMTRSmMPoFnicjVCJy+o0&#xA;KST/AAv/AM48/wDU5ah/0izf9kuW+Lqf5g+f7Wvw8H84/j4I3y9+T3krzZraR+V9VvbrQbMBtW1O&#xA;ZBHV2PwW9urxRsZCASzEcVFOtcjk1mTHH1gcR5D9LKGmhM+kmurI73XP+cc/Ksp0ldKj1WWGqTzp&#xA;ALyjDY1mmYKT/qGgyiOPVZPVdfY2meCG1Wr6n5C8k+fvKdzN+X2oNaNEwkk0lXdbZp1DFBLbSH9y&#xA;53Cuop164I6jJhn+9F+f7UywwyR9B+D51ubee2uJba4jMU8DtHNEwoyuh4spHiCM3QNiw6silPCr&#xA;sVdirsVdirsVdirsVdirsVdirsVTDy9/x39N/wCYqD/k4uQyfSfcyh9Qd5h/47+pf8xU/wDycbHH&#xA;9I9yz+opfk2LsVdirsVdirsVdirsVdirsVdirN/yT/8AJo6B/wAZZP8AkxJmJrv7mTkaX+8DPfzh&#xA;s/KF3+cEEPmy+n07SDpcZa4tlLv6geTguyTEA/6h/jmJozMYPQLlxORqRE5fUaFJV/hr/nGr/qbN&#xA;V/5FSf8AZDlni6r+bH8f5zDw9P8Azj+PgyzR5o9E/wCccdSvdAdjJM11+/G0nGS9Nr6h2BDC3APQ&#xA;ZjTHHqgJeX3X97fE8OAmP43fOmbt1b0f/nH7U7+0/MzT7e2JMF+k8N3GOjRrC0oJ/wBV4wf9vMHt&#xA;CIOIk9HK0ciMg80L+etnbWv5o60luAqyGGaRB2klgR3+lmPL6cloCThFsdWKyFgWZjjuxV2KuxV2&#xA;KuxV2KuxV2KuxV2KuxVMPL3/AB39N/5ioP8Ak4uQyfSfcyh9Qd5h/wCO/qX/ADFT/wDJxscf0j3L&#xA;P6il+TYuxV2KuxV2KuxV2KuxV2KuxV2Kss/KnVtP0n8w9Ev9QmW3s4pyJZ3NFT1I2jDMewqwqe2Y&#xA;+rgZYiBzbtPIRmCX0P5x8gflj5x1VNY1PVx9Y9FIVNveQKhRSWU0If8An8c0uHUZcQ4QPsdnlw45&#xA;myftSL/lRf5Of9XeX/pOt/8AmjLvz+fu+wtf5TF3/ajdBHlPyjPdeSL29huvKOuBjplzLMknCWVA&#xA;lxaTunHhzpzjag6kVrkMnHkrIB648/0FlDhh6CfSfxTB/MH/ADjH5ijv3OgahbXOnOaxC6Z4pkB6&#xA;K3FHVqfzClfAZl4+1I16gbceeglfpOz0X8pvyctPJMj6hf3KXuvToUV4wRFDHtzWLlRmJNKuQPCg&#xA;3rhavWnLsNouVptKMe55vEPzr8q+ZdI86X2oat+/t9VmeazvkBEbJ+zF34tGtF4k9M2uhywljAj0&#xA;dfqscozJPV59mY4zsVdirsVdirsVdirsVdirsVdirsVTDy9/x39N/wCYqD/k4uQyfSfcyh9Qd5h/&#xA;47+pf8xU/wDycbHH9I9yz+opfk2LsVdirsVdirsVdirsVdirsVdirsVdirsVdiqe6b5786aZbLa2&#xA;GuX1tbJskEdxIEUf5K1oPoymWDHI2YhsjmmNgS3pvnrzZYeYIfMEepzzapDt69xI83ND1jfmTyRu&#xA;4xlggY8NbLHNIS4r3ev+c/zw8k+aPy5urC7s5f03cxhUsynJIrgdJkm6cVPT9rtTNbh0OTHlBB9L&#xA;nZdXCeOiN3gWbh1rsVdirsVdirsVdirsVdirsVdirsVTDy9/x39N/wCYqD/k4uQyfSfcyh9QTbXv&#xA;KPmt9c1F00W/ZGuZmVltZiCDISCCFyvHmhwjccu9nPHKzsUD/g7zd/1Y9Q/6RZv+acl40P5w+bHw&#xA;pdxd/g7zd/1Y9Q/6RZv+acfGh/OHzXwpdxd/g7zd/wBWPUP+kWb/AJpx8aH84fNfCl3F3+DvN3/V&#xA;j1D/AKRZv+acfGh/OHzXwpdxd/g7zd/1Y9Q/6RZv+acfGh/OHzXwpdxd/g7zd/1Y9Q/6RZv+acfG&#xA;h/OHzXwpdxd/g7zd/wBWPUP+kWb/AJpx8aH84fNfCl3F3+DvN3/Vj1D/AKRZv+acfGh/OHzXwpdx&#xA;d/g7zd/1Y9Q/6RZv+acfGh/OHzXwpdxd/g7zd/1Y9Q/6RZv+acfGh/OHzXwpdxd/g7zd/wBWPUP+&#xA;kWb/AJpx8aH84fNfCl3F3+DvN3/Vj1D/AKRZv+acfGh/OHzXwpdxd/g7zd/1Y9Q/6RZv+acfGh/O&#xA;HzXwpdxd/g7zd/1Y9Q/6RZv+acfGh/OHzXwpdxd/g7zd/wBWPUP+kWb/AJpx8aH84fNfCl3F3+Dv&#xA;N3/Vj1D/AKRZv+acfGh/OHzXwpdxd/g7zd/1Y9Q/6RZv+acfGh/OHzXwpdxd/g7zd/1Y9Q/6RZv+&#xA;acfGh/OHzXwpdxd/g7zd/wBWPUP+kWb/AJpx8aH84fNfCl3F3+DvN3/Vj1D/AKRZv+acfGh/OHzX&#xA;wpdxd/g7zd/1Y9Q/6RZv+acfGh/OHzXwpdxd/g7zd/1Y9Q/6RZv+acfGh/OHzXwpdxd/g7zd/wBW&#xA;PUP+kWb/AJpx8aH84fNfCl3F3+DvN3/Vj1D/AKRZv+acfGh/OHzXwpdxd/g7zd/1Y9Q/6RZv+acf&#xA;Gh/OHzXwpdxd/g7zd/1Y9Q/6RZv+acfGh/OHzXwpdxd/g7zd/wBWPUP+kWb/AJpx8aH84fNfCl3F&#xA;3+DvN3/Vj1D/AKRZv+acfGh/OHzXwpdxd/g7zd/1Y9Q/6RZv+acfGh/OHzXwpdxd/g7zd/1Y9Q/6&#xA;RZv+acfGh/OHzXwpdxR2g+UfNaa5pzvot+qLcwszNazAACQEkkrkcmaHCdxy72UMcrGxfa2cs792&#xA;KuxV2KuxV2KuxV2KuxV2KuxV2KuxV2KuxV2KuxV2KuxV2KuxV2KuxV2KuxV2KuxV2KuxV2KuxV2K&#xA;uxV2KuxV2KuxV2KuxV2KuxV2KsT84fmt+Xfk64jtvMmuW9hdSLzW2POWbj2YxQrI6g9iRviqL0b8&#xA;w/JOt+X7vzDpWsW13o9gkkt9dRttAkSGRzKpAdKIOVGHTFUx0DzBo3mDSYNX0W7jvtMuef1e6iJK&#xA;P6btG9K06OhGKpb5x/MTyT5Ngim8zavBponr6EchZ5Xp1KRRh5GA7kLTFW/KH5g+S/ONvLP5Z1eD&#xA;U0gIE6RErJHyrxLxOFkUNQ0JXfFUm1j88/yl0fVpNJ1HzNaQ38L+nNEPUkVHrQq8kasikd6tt3xV&#xA;mSajYSaeNRjuI3sGi+sLdqwaIwlefqBxsV471xVKfJ/nvyl5ysZr7yzqUepWtvL6E8kaunGTiGoV&#xA;kVG6MN6Yqx7V/wA+vyj0fVLrStS8xw22oWUrQXUDRXBKSIaMpKxkbHwOKpzF+ZfkObytc+aoNat5&#xA;/L9ntdX8RMixksEo6oC4NWG3HFVfU/P3k3S/LVt5m1HVoLTQ7yKOe0vJSVEqTIHj9NCPUYsprxC1&#xA;9sVQHlD82/y484XT2flzXre+vEBY2vxwzFV+0yxzLG7AdyoOKsuxV2KuxV2KuxV2KuxV2KuxV2Ku&#xA;xV2KuxV2KuxV2KuxV2KuxV2KvmD8nNO0rXNf/NbzZ5h0WPzL5p028nEGl3EazPxjE3C3hSRZArSe&#xA;l6KmhoBT5qoLyxqnlYWv5t6Xpvk688n6xJ5av7zU7G4uS0Sg27NGiWojiWIUn5L4A0GxxV6v/wA4&#xA;uf8AkifLP/R9/wB1C4xVg3ljSNI82f8AOU3nMea7eLUJdGtI10bT7xVliSJfSAkWNwVNBJyG3Vye&#xA;u+KteYNN0Dyf/wA5VeVT5dSHSotW06d9ds7cLFb8BHcEyOi0VKiEOegqnLxxVgEfkzzT5W8t+YFs&#xA;NB0L8yvIFzNPNc+YLR4Zb+NVUcitxGxljeNRzPFJFVqmtDuqzfz7+ZnljS/+cXdOXygk1jbeYEfS&#xA;rCznkMs8EYkcXqs5JZlVVZFPgy7Yqx3/AJx/8yeVvJ35w/4X0LWU1Xy95l0+1j+sqHRRqkENWr6o&#xA;UjnIJQop+2o7Yqlia/qGg/mr+aeqQeSbfzlZ2t9JLf8A1kRsLONZpT6gVo5WIbflxGwWpxVE+XdB&#xA;Cf8AOOv5mebo5LWK280XEMtvpFixMNisN2G9HgQvpsPX48f5FU98VTGC0s/Mf5mfkx5Z8yKs3lyL&#xA;ylYXVvYT7wT3DWcjfEp+E8mgRSp68ad8VZD/AM5F+XPL3lfzL+X/AJg8tWkGk+YW1eO3RLGNIDPC&#xA;pSvJIwobiSE6bh6HbFX0jirsVdirsVdirsVdirsVdirsVdirsVdirsVdirsVdirsVdirsVeTecP+&#xA;cfLDVfNdx5s8seYdQ8oa7fArqM2nN+7nrSrMgaMhmpVvioTvTluVXeVf+cdtA0LTPMqTaxqGq655&#xA;q0+fTNS1q8cPII7lCjMiHq1aGrsx264qkel/84x6rpFhFp+lfmX5j0+wg5ejZ2tw8MKc2LtxjjkV&#xA;V5MxY0HU4qyHzx+QWmeZNV0/zDp+uX+gebbCCO2bXbNv3k6xoEDTiqsz8duQcVGxqKYqr/l5+RWj&#xA;eVdcu/Mmq6peeaPM97G0EuqakeXGJgAyohL05KOJLMfh2FBWqrErj/nFG2gbULLy/wCdNX0Ty1qj&#xA;s95oULFoWVxRkJDxhl4/D8asabEnFWTN/wA48eUf0p5QkW4mOieTYnWw0WVY5IpZpHaWSeZ2G7vJ&#xA;xZgBT4e2Kph+YH5J+W/NcmjXdm48v6poV2LyyvrCCJW5CjcWWig/GiMPl74qi/Jv5U6b5Y83eavM&#xA;kd7Jdy+a5RNdWsqKI4/jdyq0qWB9QjfFWLW//ONmi2Ol+bNE03Wrq00DzXxaTSxHG8dq8cyyo0BO&#xA;/wAIBSh6rSteIxVNPNf5BeWPMflXy5o815c2eqeVbW3tdJ161IjuVFvGiAsOhBMYbahDfZI3qqgf&#xA;Kv8AzjzZ2Hmqz80+a/Mmo+cNX0wg6W2oN+6gZd1cIWlJZW+JfioDvSu+KvXMVdirsVdirsVdirsV&#xA;dirsVdirsVdirsVdirsVdirsVdirsVdirsVdirsVdirsVdirsVdirsVdirsVdirsVdirsVdirsVd&#xA;irsVdirsVdirsVdirsVdirsVdirsVdirsVdirsVdirsVdirsVdirsVdirsVdirsVdirsVdirsVdi&#xA;rsVdirsVdirsVdir/9k=</xmpGImg:image>
               </rdf:li>
            </rdf:Alt>
         </xmp:Thumbnails>
         <xmpMM:InstanceID>xmp.iid:9abfa668-2609-c146-aeb5-945099e7e6e3</xmpMM:InstanceID>
         <xmpMM:DocumentID>xmp.did:9abfa668-2609-c146-aeb5-945099e7e6e3</xmpMM:DocumentID>
         <xmpMM:OriginalDocumentID>uuid:5D20892493BFDB11914A8590D31508C8</xmpMM:OriginalDocumentID>
         <xmpMM:RenditionClass>proof:pdf</xmpMM:RenditionClass>
         <xmpMM:DerivedFrom rdf:parseType="Resource">
            <stRef:instanceID>uuid:ff470bc6-f939-440e-8f31-27b0eb70075c</stRef:instanceID>
            <stRef:documentID>xmp.did:4de20fe2-e96f-dd46-b8bd-1606dc72d06f</stRef:documentID>
            <stRef:originalDocumentID>uuid:5D20892493BFDB11914A8590D31508C8</stRef:originalDocumentID>
            <stRef:renditionClass>proof:pdf</stRef:renditionClass>
         </xmpMM:DerivedFrom>
         <xmpMM:History>
            <rdf:Seq>
               <rdf:li rdf:parseType="Resource">
                  <stEvt:action>saved</stEvt:action>
                  <stEvt:instanceID>xmp.iid:9abfa668-2609-c146-aeb5-945099e7e6e3</stEvt:instanceID>
                  <stEvt:when>2017-04-11T01:59:07-05:00</stEvt:when>
                  <stEvt:softwareAgent>Adobe Illustrator CC (Windows)</stEvt:softwareAgent>
                  <stEvt:changed>/</stEvt:changed>
               </rdf:li>
            </rdf:Seq>
         </xmpMM:History>
         <illustrator:StartupProfile>Print</illustrator:StartupProfile>
         <xmpTPg:HasVisibleOverprint>False</xmpTPg:HasVisibleOverprint>
         <xmpTPg:HasVisibleTransparency>True</xmpTPg:HasVisibleTransparency>
         <xmpTPg:NPages>1</xmpTPg:NPages>
         <xmpTPg:MaxPageSize rdf:parseType="Resource">
            <stDim:w>54.929614</stDim:w>
            <stDim:h>26.195160</stDim:h>
            <stDim:unit>Millimeters</stDim:unit>
         </xmpTPg:MaxPageSize>
         <xmpTPg:PlateNames>
            <rdf:Seq>
               <rdf:li>Cyan</rdf:li>
               <rdf:li>Magenta</rdf:li>
               <rdf:li>Yellow</rdf:li>
               <rdf:li>Black</rdf:li>
            </rdf:Seq>
         </xmpTPg:PlateNames>
         <xmpTPg:SwatchGroups>
            <rdf:Seq>
               <rdf:li rdf:parseType="Resource">
                  <xmpG:groupName>Grupo de muestras por defecto</xmpG:groupName>
                  <xmpG:groupType>0</xmpG:groupType>
               </rdf:li>
            </rdf:Seq>
         </xmpTPg:SwatchGroups>
         <pdf:Producer>Adobe PDF library 10.01</pdf:Producer>
      </rdf:Description>
   </rdf:RDF>
</x:xmpmeta>
                                                                                                    
                                                                                                    
                                                                                                    
                                                                                                    
                                                                                                    
                                                                                                    
                                                                                                    
                                                                                                    
                                                                                                    
                                                                                                    
                                                                                                    
                                                                                                    
                                                                                                    
                                                                                                    
                                                                                                    
                                                                                                    
                                                                                                    
                                                                                                    
                                                                                                    
                                                                                                    
                           
<?xpacket end="w"?>
	</metadata>
<g>
	<rect id="XMLID_54_" x="0.397" opacity="0.5" fill="#FFFFFF" enable-background="new    " width="154.914" height="74.254"/>
	<rect id="XMLID_51_" x="0.397" y="0" fill="#154A8C" width="154.914" height="48.154"/>
	<rect id="XMLID_50_" y="57.455" fill="none" width="155.706" height="13.102"/>
	<g enable-background="new    ">
		<path d="M52.981,62.437V61.11h3.427v3.137c-0.333,0.322-0.815,0.606-1.448,0.852c-0.632,0.245-1.272,0.368-1.92,0.368
			c-0.824,0-1.541-0.173-2.154-0.519s-1.072-0.84-1.38-1.482s-0.462-1.342-0.462-2.098c0-0.82,0.172-1.549,0.516-2.187
			c0.344-0.637,0.847-1.126,1.509-1.466c0.505-0.262,1.133-0.392,1.885-0.392c0.978,0,1.741,0.204,2.291,0.614
			c0.549,0.41,0.903,0.977,1.061,1.7l-1.579,0.295c-0.111-0.387-0.319-0.691-0.626-0.915c-0.306-0.224-0.688-0.336-1.146-0.336
			c-0.695,0-1.247,0.22-1.657,0.661c-0.41,0.439-0.615,1.094-0.615,1.96c0,0.935,0.208,1.636,0.623,2.103
			c0.416,0.468,0.959,0.701,1.633,0.701c0.333,0,0.667-0.065,1.001-0.196c0.335-0.131,0.623-0.289,0.862-0.476v-0.998h-1.821V62.437
			z"/>
		<path d="M57.917,65.331v-7.81h1.59v6.483h3.953v1.326h-5.543V65.331z"/>
		<path d="M64.271,61.442c0-0.802,0.12-1.476,0.36-2.02c0.179-0.401,0.423-0.761,0.733-1.08c0.31-0.318,0.649-0.555,1.018-0.709
			c0.491-0.207,1.056-0.311,1.697-0.311c1.16,0,2.088,0.359,2.785,1.079c0.696,0.72,1.044,1.721,1.044,3.003
			c0,1.271-0.346,2.266-1.037,2.983c-0.691,0.717-1.615,1.077-2.771,1.077c-1.171,0-2.102-0.357-2.793-1.072
			C64.617,63.68,64.271,62.695,64.271,61.442z M65.91,61.389c0,0.892,0.206,1.567,0.618,2.027s0.935,0.69,1.568,0.69
			s1.154-0.229,1.56-0.685c0.407-0.457,0.61-1.142,0.61-2.055c0-0.902-0.198-1.575-0.593-2.02c-0.396-0.444-0.921-0.666-1.577-0.666
			s-1.184,0.225-1.584,0.674S65.91,60.482,65.91,61.389z"/>
		<path d="M72.747,62.769l1.547-0.15c0.093,0.52,0.282,0.901,0.566,1.145c0.285,0.243,0.669,0.365,1.152,0.365
			c0.512,0,0.898-0.108,1.157-0.325c0.26-0.217,0.39-0.47,0.39-0.76c0-0.187-0.055-0.345-0.164-0.476s-0.3-0.244-0.572-0.341
			c-0.186-0.064-0.61-0.179-1.273-0.344c-0.852-0.211-1.45-0.471-1.794-0.778c-0.483-0.434-0.725-0.962-0.725-1.585
			c0-0.401,0.114-0.776,0.341-1.125c0.227-0.35,0.555-0.615,0.982-0.798c0.428-0.183,0.945-0.273,1.55-0.273
			c0.988,0,1.732,0.216,2.231,0.649c0.5,0.434,0.762,1.012,0.787,1.735l-1.589,0.069c-0.068-0.404-0.214-0.695-0.438-0.873
			c-0.224-0.177-0.56-0.266-1.007-0.266c-0.462,0-0.824,0.095-1.085,0.284c-0.168,0.122-0.252,0.285-0.252,0.489
			c0,0.187,0.079,0.346,0.236,0.478c0.201,0.169,0.688,0.344,1.461,0.527c0.773,0.182,1.346,0.371,1.716,0.566
			c0.371,0.195,0.661,0.462,0.87,0.8c0.21,0.339,0.314,0.757,0.314,1.255c0,0.451-0.125,0.873-0.376,1.268
			c-0.25,0.394-0.604,0.687-1.063,0.878s-1.029,0.287-1.713,0.287c-0.996,0-1.76-0.23-2.293-0.69S72.851,63.649,72.747,62.769z"/>
		<path d="M87.587,65.331h-1.729l-0.688-1.789h-3.147l-0.65,1.789h-1.687l3.067-7.874h1.681L87.587,65.331z M84.66,62.216
			l-1.085-2.922l-1.063,2.922H84.66z"/>
		<path d="M88.436,65.331v-7.874h3.346c0.842,0,1.453,0.07,1.835,0.212c0.381,0.142,0.687,0.394,0.915,0.755
			c0.229,0.361,0.344,0.775,0.344,1.241c0,0.59-0.174,1.078-0.521,1.463c-0.348,0.385-0.867,0.628-1.558,0.729
			c0.344,0.2,0.627,0.42,0.852,0.66c0.224,0.24,0.525,0.666,0.904,1.278l0.962,1.536h-1.901l-1.149-1.713
			c-0.408-0.613-0.688-0.999-0.838-1.158s-0.31-0.269-0.479-0.327c-0.168-0.06-0.435-0.089-0.8-0.089h-0.322v3.287
			C90.026,65.331,88.436,65.331,88.436,65.331z M90.026,60.787h1.176c0.763,0,1.239-0.032,1.429-0.097
			c0.19-0.064,0.339-0.176,0.446-0.333s0.161-0.354,0.161-0.591c0-0.265-0.071-0.479-0.212-0.642c-0.142-0.163-0.342-0.267-0.6-0.31
			c-0.129-0.018-0.516-0.026-1.16-0.026h-1.24C90.026,58.788,90.026,60.787,90.026,60.787z"/>
		<path d="M96.326,65.331v-7.874h1.59v7.874H96.326z"/>
		<path d="M99.108,61.442c0-0.802,0.12-1.476,0.36-2.02c0.179-0.401,0.423-0.761,0.733-1.08c0.31-0.318,0.648-0.555,1.018-0.709
			c0.49-0.207,1.056-0.311,1.697-0.311c1.16,0,2.088,0.359,2.785,1.079c0.696,0.72,1.044,1.721,1.044,3.003
			c0,1.271-0.346,2.266-1.036,2.983c-0.691,0.718-1.615,1.077-2.771,1.077c-1.171,0-2.103-0.357-2.793-1.072
			C99.454,63.68,99.108,62.695,99.108,61.442z M100.747,61.389c0,0.892,0.206,1.567,0.617,2.027c0.412,0.46,0.935,0.69,1.568,0.69
			s1.154-0.229,1.561-0.685c0.406-0.457,0.609-1.142,0.609-2.055c0-0.902-0.197-1.575-0.593-2.02
			c-0.396-0.444-0.922-0.666-1.577-0.666s-1.184,0.225-1.584,0.674C100.947,59.805,100.747,60.482,100.747,61.389z"/>
	</g>
	<g id="XMLID_25_">
		<path id="XMLID_45_" fill="#FFFFFF" d="M91.133,39.693l-3.417-3.423c0.715-1.129,1.135-2.463,1.135-3.898
			c0-4.013-3.272-7.285-7.285-7.285c-4.015,0-7.286,3.272-7.286,7.285c0,4.021,3.272,7.286,7.286,7.286
			c1.428,0,2.767-0.421,3.89-1.135l3.423,3.423c0.31,0.31,0.721,0.469,1.129,0.469c0.404,0,0.813-0.159,1.123-0.469
			C91.759,41.32,91.759,40.313,91.133,39.693L91.133,39.693z M81.566,37.381c-2.762,0-5.009-2.247-5.009-5.009
			c0-2.761,2.247-5.008,5.009-5.008c2.761,0,5.008,2.247,5.008,5.008C86.574,35.134,84.327,37.381,81.566,37.381L81.566,37.381z"/>
		<path id="XMLID_42_" fill="#FFFFFF" d="M75.621,26.404h-8.643c-0.292,0-0.526,0.234-0.526,0.527v0.526
			c0,0.288,0.234,0.521,0.526,0.521h7.409C74.737,27.405,75.146,26.879,75.621,26.404L75.621,26.404z"/>
		<path id="XMLID_38_" fill="#FFFFFF" d="M70.636,11.191h6.852c0.86,0,1.562-0.703,1.562-1.562v-0.03
			c0-0.86-0.703-1.556-1.562-1.556H76.68c-0.433,0-0.779-0.351-0.779-0.783V7.23c0-1.001-0.813-1.814-1.819-1.814H74.04
			c-1.001,0-1.814,0.813-1.814,1.814v0.03c0,0.433-0.351,0.783-0.783,0.783h-0.807c-0.86,0-1.556,0.697-1.556,1.556v0.03
			C69.079,10.488,69.776,11.191,70.636,11.191L70.636,11.191z M74.065,6.463c0.433,0,0.783,0.357,0.783,0.789
			c0,0.433-0.351,0.789-0.783,0.789c-0.439,0-0.791-0.357-0.791-0.789C73.274,6.82,73.626,6.463,74.065,6.463L74.065,6.463z"/>
		<path id="XMLID_35_" fill="#FFFFFF" d="M66.978,31.126c-0.292,0-0.526,0.241-0.526,0.527v0.527c0,0.286,0.234,0.526,0.526,0.526
			h6.173c-0.005-0.111-0.017-0.222-0.017-0.328c0-0.427,0.04-0.842,0.099-1.252L66.978,31.126z"/>
		<path id="XMLID_32_" fill="#FFFFFF" d="M81.671,23.257V22.73c0-0.286-0.234-0.521-0.527-0.521H66.978
			c-0.292,0-0.526,0.235-0.526,0.521v0.527c0,0.292,0.234,0.526,0.526,0.526h14.166C81.438,23.783,81.671,23.549,81.671,23.257
			L81.671,23.257z"/>
		<path id="XMLID_29_" fill="#FFFFFF" d="M64.878,35.849v-20.99h18.368v9.251c0.942,0.193,1.825,0.55,2.621,1.023V11.67
			c0-1.019-0.825-1.843-1.838-1.843h-3.955c-0.118,1.357-1.224,2.41-2.587,2.41h-6.852c-1.363,0-2.47-1.053-2.587-2.382h-3.955
			c-1.019,0-1.838,0.819-1.838,1.838v24.938c0,1.019,0.825,1.844,1.838,1.844h11.668c-0.779-0.743-1.417-1.633-1.873-2.627
			L64.878,35.849L64.878,35.849z"/>
		<path id="XMLID_26_" fill="#FFFFFF" d="M81.671,18.008c0-0.288-0.234-0.521-0.527-0.521H66.978c-0.292,0-0.526,0.234-0.526,0.521
			v0.526c0,0.294,0.234,0.527,0.526,0.527h14.166c0.294,0,0.527-0.234,0.527-0.527V18.008z"/>
	</g>
</g>
</svg>
