<?xml version="1.0" encoding="utf-8"?>
<!-- Generator: Adobe Illustrator 17.0.0, SVG Export Plug-In . SVG Version: 6.00 Build 0)  -->
<!DOCTYPE svg PUBLIC "-//W3C//DTD SVG 1.1//EN" "http://www.w3.org/Graphics/SVG/1.1/DTD/svg11.dtd" [
	<!ENTITY ns_extend "http://ns.adobe.com/Extensibility/1.0/">
	<!ENTITY ns_ai "http://ns.adobe.com/AdobeIllustrator/10.0/">
	<!ENTITY ns_graphs "http://ns.adobe.com/Graphs/1.0/">
	<!ENTITY ns_vars "http://ns.adobe.com/Variables/1.0/">
	<!ENTITY ns_imrep "http://ns.adobe.com/ImageReplacement/1.0/">
	<!ENTITY ns_sfw "http://ns.adobe.com/SaveForWeb/1.0/">
	<!ENTITY ns_custom "http://ns.adobe.com/GenericCustomNamespace/1.0/">
	<!ENTITY ns_adobe_xpath "http://ns.adobe.com/XPath/1.0/">
]>
<svg version="1.1" id="Capa_1" xmlns:x="&ns_extend;" xmlns:i="&ns_ai;" xmlns:graph="&ns_graphs;"
	 xmlns="http://www.w3.org/2000/svg" xmlns:xlink="http://www.w3.org/1999/xlink" x="0px" y="0px" width="155.706px"
	 height="74.254px" viewBox="0 0 155.706 74.254" enable-background="new 0 0 155.706 74.254" xml:space="preserve">
<metadata><?xpacket begin="﻿" id="W5M0MpCehiHzreSzNTczkc9d"?>
<x:xmpmeta xmlns:x="adobe:ns:meta/" x:xmptk="Adobe XMP Core 5.5-c014 79.151739, 2013/04/03-12:12:15        ">
   <rdf:RDF xmlns:rdf="http://www.w3.org/1999/02/22-rdf-syntax-ns#">
      <rdf:Description rdf:about=""
            xmlns:dc="http://purl.org/dc/elements/1.1/"
            xmlns:xmp="http://ns.adobe.com/xap/1.0/"
            xmlns:xmpGImg="http://ns.adobe.com/xap/1.0/g/img/"
            xmlns:xmpMM="http://ns.adobe.com/xap/1.0/mm/"
            xmlns:stRef="http://ns.adobe.com/xap/1.0/sType/ResourceRef#"
            xmlns:stEvt="http://ns.adobe.com/xap/1.0/sType/ResourceEvent#"
            xmlns:illustrator="http://ns.adobe.com/illustrator/1.0/"
            xmlns:xmpTPg="http://ns.adobe.com/xap/1.0/t/pg/"
            xmlns:stDim="http://ns.adobe.com/xap/1.0/sType/Dimensions#"
            xmlns:xmpG="http://ns.adobe.com/xap/1.0/g/"
            xmlns:pdf="http://ns.adobe.com/pdf/1.3/">
         <dc:format>image/svg+xml</dc:format>
         <dc:title>
            <rdf:Alt>
               <rdf:li xml:lang="x-default">Imprimir</rdf:li>
            </rdf:Alt>
         </dc:title>
         <xmp:MetadataDate>2017-04-11T01:59:07-05:00</xmp:MetadataDate>
         <xmp:ModifyDate>2017-04-11T01:59:07-05:00</xmp:ModifyDate>
         <xmp:CreateDate>2017-04-11T01:59:07-05:00</xmp:CreateDate>
         <xmp:CreatorTool>Adobe Illustrator CC (Windows)</xmp:CreatorTool>
         <xmp:Thumbnails>
            <rdf:Alt>
               <rdf:li rdf:parseType="Resource">
                  <xmpGImg:width>256</xmpGImg:width>
                  <xmpGImg:height>124</xmpGImg:height>
                  <xmpGImg:format>JPEG</xmpGImg:format>
                  <xmpGImg:image>/9j/4AAQSkZJRgABAgEASABIAAD/7QAsUGhvdG9zaG9wIDMuMAA4QklNA+0AAAAAABAASAAAAAEA&#xA;AQBIAAAAAQAB/+4ADkFkb2JlAGTAAAAAAf/bAIQABgQEBAUEBgUFBgkGBQYJCwgGBggLDAoKCwoK&#xA;DBAMDAwMDAwQDA4PEA8ODBMTFBQTExwbGxscHx8fHx8fHx8fHwEHBwcNDA0YEBAYGhURFRofHx8f&#xA;Hx8fHx8fHx8fHx8fHx8fHx8fHx8fHx8fHx8fHx8fHx8fHx8fHx8fHx8fHx8f/8AAEQgAfAEAAwER&#xA;AAIRAQMRAf/EAaIAAAAHAQEBAQEAAAAAAAAAAAQFAwIGAQAHCAkKCwEAAgIDAQEBAQEAAAAAAAAA&#xA;AQACAwQFBgcICQoLEAACAQMDAgQCBgcDBAIGAnMBAgMRBAAFIRIxQVEGE2EicYEUMpGhBxWxQiPB&#xA;UtHhMxZi8CRygvElQzRTkqKyY3PCNUQnk6OzNhdUZHTD0uIIJoMJChgZhJRFRqS0VtNVKBry4/PE&#xA;1OT0ZXWFlaW1xdXl9WZ2hpamtsbW5vY3R1dnd4eXp7fH1+f3OEhYaHiImKi4yNjo+Ck5SVlpeYmZ&#xA;qbnJ2en5KjpKWmp6ipqqusra6voRAAICAQIDBQUEBQYECAMDbQEAAhEDBCESMUEFURNhIgZxgZEy&#xA;obHwFMHR4SNCFVJicvEzJDRDghaSUyWiY7LCB3PSNeJEgxdUkwgJChgZJjZFGidkdFU38qOzwygp&#xA;0+PzhJSktMTU5PRldYWVpbXF1eX1RlZmdoaWprbG1ub2R1dnd4eXp7fH1+f3OEhYaHiImKi4yNjo&#xA;+DlJWWl5iZmpucnZ6fkqOkpaanqKmqq6ytrq+v/aAAwDAQACEQMRAD8A5ZnYPNuxV2KuxV2KuxV2&#xA;KuxV2KuxV2KuxV2KuxV2KuxV2KuxV2KuxV2KuxV2KuxV2KuxV2KuxV2KuxV2Kph5e/47+mf8xcH/&#xA;ACcXIZPpPuZQ+oJfk2LsVdirsVdirsVdirsVdirsVdirsVdirPfy2/J/XPPENxeQ3Edhplu/otdS&#xA;guXloGKoi0rxDCpJHXvmHqdZHFtzLkYNMcm/IM5/6FXv/wDqYov+kVv+qmYn8qj+b9rk/wAnnvd/&#xA;0Kvf/wDUxRf9Irf9VMf5VH837V/k897v+hV7/wD6mKL/AKRW/wCqmP8AKo/m/av8nnvef/mP+U/m&#xA;DyPLFJcst7plweMWoQqVUP8A77kU14N3G9D270zdNq45eWx7nFz6eWP3MJzKaHYq7FXYq7FXYq7F&#xA;XYq7FXYq7FXYq7FUw8vf8d/TP+YuD/k4uQyfSfcyh9QS/JsXYq7FXYq7FXYq7FXYq7FXYq7FXYq7&#xA;FX0x+QsskP5Q6pLExSSOe8ZHXYhlgQgj5ZoteLzD4O20f90fi8O/5Wh+Yn/Ux6h/0kP/AFza/lcX&#xA;80Ou/MZO8u/5Wh+Yn/Ux6h/0kP8A1x/K4v5oX8xk7yzb8mfPnnPVPzK0ew1HWry7spvrPq280zuj&#xA;cbWV1qpPZlBzF1unhHESAAdvvcjS5pnIASfwH0pq2k6dq+nT6bqUC3NlcqUmhcVBB/UR1BG4OaOE&#xA;zE2ObtZREhRfI35sflrP5H1yOGOUz6Vfh5NOmb7fFCOccnbknIbjqCD7Z0ek1Pix8xzdLqcHhnyL&#xA;B8y3HdirsVdirsVdirsVdirsVdirsVdiqYeXv+O/pn/MXB/ycXIZPpPuZQ+oJfk2LsVdirsVdirs&#xA;VdirsVdirsVdirsVdir6W/Iv/wAk5q//ABlvv+odM0ev/vx8PvdrpP7o/F5r+UXmn8sdFtNQj836&#xA;Ul7dTSI1tPLbJdqIwKFArg8Dy3qBv9GZusxZZEcBoe+nF02THEHiDONV/Mb/AJx8l0y7ih8v27TP&#xA;C6xLHpsMTlipC8ZAFKGv7VdsxYabU2PV9rkSz4K5fY8J0PW9T0PVrbVtMmNvfWjc4ZQAaEgqQQag&#xA;hlJBHhm2nATFHkXXQmYmxzer+Uvz6/MHU/NWi6bdTWxtb6+tracLAqsY5ZlRqGuxo2a/NoMcYEi9&#xA;gXMx6yZkAe9Of+crP+mX/wCj/wD7Fsq7J/i+H6WztH+H4/oeA5uHWuxV2KuxV2KuxV2KuxV2KuxV&#xA;2KuxVMPL3/Hf0z/mLg/5OLkMn0n3MofUEvybF2KuxV2KuxV2KuxV2KuxV2KuxV2KuxV9LfkX/wCS&#xA;c1f/AIy33/UOmaPX/wB+Ph97tdJ/dH4vOPyd0j8pr+21BvO1xGl4jqLWG4nktovSI3ZWjaPk3LYg&#xA;npmbrJ5gR4fJxdNHEb42daz5Z/5xqj0m8eC6tY51hcxPb31xLKHCnjwjMsgZq9ipzEhl1XENj8g5&#xA;Esenr9r52zdOsT/8vf8AlPvLX/bVsf8AqJTKdR/dy/qn7mzD9cfeHr//ADlZ/wBMv/0f/wDYtmt7&#xA;J/i+H6XO7R/h+P6HgObh1rsVdirsVdirsVdirsVdirsVdirsVTDy9/x39M/5i4P+Ti5DJ9J9zKH1&#xA;BL8mxdirsVdirsVdirsVdirsVdirsVdirsVfS35F/wDknNX/AOMt9/1Dpmj1/wDfj4fe7XSf3R+L&#xA;5pzeOqdirPvL/wCR/wCYOu6Tb6raWkUdpdLztzPKsbOh+y4Xc8W7VzDya7HCVE7uRDSTkLDJ/KX5&#xA;C/mDpnmrRdSuobYWtjfW1zOVnVmEcUyu1BTc0XKM2vxygQL3BbsejmJAnveg/nt+XPmXzn+g/wBC&#xA;JE/1D619Y9WQR09b0eFK9f7s5haDUwxcXF1r9Lk6vBLJVdHzb5l8s6z5a1eXSdYg+r3kQDFQQysj&#xA;CqsrLUEH/PfN5iyxnHijydXkxmBopXljB2KuxV2KuxV2KuxV2KuxV2KuxVMPL3/Hf0z/AJi4P+Ti&#xA;5DJ9J9zKH1BL8mxdirsVdirsVdirsVdirsVdirsVdirsVfS35F/+Sc1f/jLff9Q6Zo9f/fj4fe7X&#xA;Sf3R+L5pzeOqdir68vdMvdU/Lbyxa6fbR3wePTWkt5JHjgeFYVJ9R4ldgnTopzm4yEcsiTXN3ZiT&#xA;jiB5JXL5bTTr60g8x6fearALa4ayi01Lu5jtZZbkyLBHOnBk4IQFeQr9AG1gy8QPCQNxzrfZgYUf&#xA;UCfdaM8qeUvMj+ZotU8wRxSy2tnZKLi4DyS+qsUgcROkgj5KxHqEqancZHLmjwVHvLLHjlxXLuDy&#xA;n/nJ6n+PrGnX9FQ1+f1i4zYdl/3Z/rfoDha/6x7nkObJwnYq7FXYq7FXYq7FXYq7FXYq7FUw8vf8&#xA;d/TP+YuD/k4uQyfSfcyh9QS/JsXYq7FXYq7FXYq7FXYq7FXYq7FXYq7FX01+QNvLc/lLqVtCOUs1&#xA;xeRxrWnxPAgAqfnmi7QNZgfc7bRi8R+Lyz/oXz80f+rdF/0kwf8ANeZ/8o4e/wCxw/yWTud/0L5+&#xA;aP8A1bov+kmD/mvH+UcPf9i/ksnczXy/oH/OSeg6ZFpmnmEWUA4wRSyWcpRf5VZ6tT2rt2zFyZNL&#xA;M2efxciENREUP0Mg0L/oY79N6f8Apb6t+ivrMP6Q4/U+X1f1B6tOPxV4V6b5Tk/K8J4butubZDx7&#xA;F8vgq/n3+YXmjygdDGg3KW5vfrX1kPHHLX0vR4fbDU+22Ds/TwycXEOVfpTrM0oVwvm7Xtf1jX9T&#xA;l1PWLpru+moHmeg2UUAVVCqoHgopm8x44wFRFB1U5mRs80vybF2KuxV2KuxV2KuxV2KuxV2KuxVM&#xA;PL3/AB39M/5i4P8Ak4uQyfSfcyh9QS/JsXYq7FXYq7FXYq7FXYq7FXYq7FXYq7FWWeSPzO81+TFu&#xA;ItHmjNtckPLa3CepHzApzABUhqbbHfv0zHz6WGX6m7FqJY+TK/8AoZX8xP8AfWn/APIh/wDqpmN/&#xA;JmLzbvz2Tyd/0Mr+Yn++tP8A+RD/APVTH+TMXmv57J5O/wChlfzE/wB9af8A8iH/AOqmP8mYvNfz&#xA;2Tyd/wBDK/mJ/vrT/wDkQ/8A1Ux/kzF5r+eyeTBvOPnbzB5v1NdQ1qcSSRr6cEUahI40rXiij36k&#xA;knMvDgjjFRcfLllM2Uhy5rdirsVdirsVdirsVdirsVdirsVdiqYeXv8Ajv6Z/wAxcH/Jxchk+k+5&#xA;lD6giP8AB3m7/qx6h/0izf8ANOR8aH84fNPhS7i7/B3m7/qx6h/0izf804+ND+cPmvhS7i7/AAd5&#xA;u/6seof9Is3/ADTj40P5w+a+FLuLv8Hebv8Aqx6h/wBIs3/NOPjQ/nD5r4Uu4u/wd5u/6seof9Is&#xA;3/NOPjQ/nD5r4Uu4u/wd5u/6seof9Is3/NOPjQ/nD5r4Uu4u/wAHebv+rHqH/SLN/wA04+ND+cPm&#xA;vhS7i7/B3m7/AKseof8ASLN/zTj40P5w+a+FLuLv8Hebv+rHqH/SLN/zTj40P5w+a+FLuLv8Hebv&#xA;+rHqH/SLN/zTj40P5w+a+FLuLv8AB3m7/qx6h/0izf8ANOPjQ/nD5r4Uu4u/wd5u/wCrHqH/AEiz&#xA;f804+ND+cPmvhS7i7/B3m7/qx6h/0izf804+ND+cPmvhS7i7/B3m7/qx6h/0izf804+ND+cPmvhS&#xA;7i7/AAd5u/6seof9Is3/ADTj40P5w+a+FLuLv8Hebv8Aqx6h/wBIs3/NOPjQ/nD5r4Uu4u/wd5u/&#xA;6seof9Is3/NOPjQ/nD5r4Uu4u/wd5u/6seof9Is3/NOPjQ/nD5r4Uu4u/wAHebv+rHqH/SLN/wA0&#xA;4+ND+cPmvhS7i7/B3m7/AKseof8ASLN/zTj40P5w+a+FLuLv8Hebv+rHqH/SLN/zTj40P5w+a+FL&#xA;uLv8Hebv+rHqH/SLN/zTj40P5w+a+FLuLv8AB3m7/qx6h/0izf8ANOPjQ/nD5r4Uu4u/wd5u/wCr&#xA;HqH/AEizf804+ND+cPmvhS7i7/B3m7/qx6h/0izf804+ND+cPmvhS7i7/B3m7/qx6h/0izf804+N&#xA;D+cPmvhS7i7/AAd5u/6seof9Is3/ADTj40P5w+a+FLuLv8Hebv8Aqx6h/wBIs3/NOPjQ/nD5r4Uu&#xA;4u/wd5u/6seof9Is3/NOPjQ/nD5r4Uu4u/wd5u/6seof9Is3/NOPjQ/nD5r4Uu4u/wAHebv+rHqH&#xA;/SLN/wA04+ND+cPmvhS7ijtB8o+a01zTnfRb9UW6hZma1mAAEgJJJXI5M0OE7jl3soY5WNi+1s5Z&#xA;37sVdirsVdirsVdirsVdirsVdirsVdirsVdirsVdirsVdirsVdirsVdirsVdirsVdirsVdirsVdi&#xA;rsVdirsVdirsVdirsVYV5n/Oj8sPK+sS6Nr2vRWOpwKjS2zxzsVEih1NUjZd1NeuKpzoXnjyjr+j&#xA;Tazouq29/ptsGa4uIH5+nwXkwkUfGpC70IrirEf+hkfyS/6mmD/kTc/9UsVZDq35o/l/pGgWHmDU&#xA;tbt7XSdUQSadcScgZ0ZeQMcfH1Dt1+HbFVfyd+YfkrznBNP5Y1aHUltyBcJHySSPl9kvHIEdQaGh&#xA;K4qk+u/nl+U2havJpGqeZbWHUIW9OaFRJKI3GxWR4kdEYdwx274qzO0vrK9sor6zuI7iynQSwXMT&#xA;q8TxsKh1dSVKkdxiqS+T/wAwPJvnKG6m8s6pFqcdk6x3RjDrwZwStQ6qd6GhG2KpN5g/PH8qvL2s&#xA;XOjaz5gis9Ts2C3Ns0U7FCyhwCUjZfssDscVZD5X85eVvNdi1/5d1ODU7WNvTkkgbkUeleLqaMpp&#xA;vuMVYxqH5/fk7p+pvpt15ptFu43McgQSyxqwNCDLGjRCh6/FirOrK9s760hvLKeO5tLhFkt7iFg8&#xA;ciMKqyMpIYEdCMVSTyj+YXkzzgLw+WtVi1P9HsqXnpBx6Zk5cK81Wobg1CNtsVSbzB+eP5VeXtYu&#xA;dG1nzBFZ6nZsFubZop2KFlDgEpGy/ZYHY4qn/lXzt5T82WUl75c1SDU7eJgkzQNUoxFQHQ0ZajxG&#xA;KoXzn+ZHkjyV9T/xRqsemfX/AFPqfqJK/qejw9Snpo9OPqL18cVa8o/mZ5D84PLH5b1u21GaFecs&#xA;EZKyqlePIxyBH4170xVj0H/ORf5KTSrEnmq2DNsC6Txr9LPGqj6TirJvMv5g+TPLWiW2u61qsNtp&#xA;F5IkNrfLymjkeRGkQIYRJWqRsa9MVSby/wDnj+VXmHWLbRtG8wRXmp3jFba2WKdS5VS5ALxqv2VJ&#xA;3OKs6xV2KuxV2KuxV2KuxV2KuxV2KuxV2KvnWHSNJ1X/AJzB1211Sygv7YaLG4guYkmTkIrYBuLh&#xA;hUV64qlOn6fY+Wf+cg/Pvl/y1Ctrol35cmuL7TreiQQyC2jkUhBsKNJsBSnM02xVJPyRsfP835d2&#xA;D6P+XGgeYrAyXHp6rqL2y3EhEzclYSfFRD8I9sVZh+cPknVtW8y+Sr3y82gt5u0exAP5f30luYmB&#xA;QyMYLdiqsiEOK/CKKCpqMVSHyX5ht9K8x+evrvk4+T/zOTy9fXUIsZWWxmWGBXAhtwWjRi8SuGUs&#xA;GPI1B6qp9+QH5bflnq/5GfpXX9NtLm51Rb5ta1S5VHnhEU0qBkmcM0PCJFeq03+LFUb+YPmLyV+X&#xA;n/OOs9n5F1Jb2w1IyaZpFwlyLk87tma5IkFeJRPUNBTi1OhxV5t+RHmPyt5J/NzR9I0TWU1LR/NW&#xA;l2trqjL6gSHVuOyj1FjJ/fKVTrtJiqN17V9T0j89/wAx9Qs/Jdv5zhtoreW8guBG31aJIIiZVV0l&#xA;LeB4iuKqXkWDUIfyg/NP8xNGa105dfT0LbRdMY8bFEkYTcgAvBliuCUp0G+1RRVk+jeWfJmlf84+&#xA;+X7mz8gjzjNrlv8A7lZbREN5E8kbmWf6x6crp6TrwWlOJxVdF+Z/l7Qv+cWrm/8ALVpPpEVzLcaP&#xA;o9nc3JupVmuGYyuspCfZRpJAAKAjFWC/kf5j8reRvzV8t2mjawmo6b5o0yCy13iJALfVJDVVHqLH&#xA;UCYKqt4M2Kpjr2qanpf/ADkL+YN/Y+ToPOa29skl1ZXARhBEkVuzTqrpKWIpxoq13xVm/wDzinpq&#xA;anqPmvz/AAJZabZa3Mtvb6Bp7/Ba+kzOwljooQ7rwp2LGgBGKrf+cqLg23nb8rbgaWdbMV7fONHV&#xA;Q5uqPZ/uQpVwefT7JxVD/lz5K8161+eln59/wV/gPy/p1nJFLZErGbmV4pYQ3pKsXxH1QT8AWiDf&#xA;kd1VL/nGPyL5J8yfktqI8xaVZ3SyX13FLezRR+tHGIojVJiOacKkgg7Yq8jvtR1C8/5xRsYbuRpI&#xA;rDzibayDV+GE6dJNxWvb1JnOKvpX8s7Lzw/mdX8yflhovlezhheSDVrJrGSZZ6hVRRAzuOSs2+Kv&#xA;XsVdirsVdirsVdirsVdirsVdirsVdiryPzp/zj8PMPnu7852HmzVPL2p3cMdu501vRYRxxqnH1EZ&#xA;Ho3AEjFU38j/AJIeXPKVlrfpXt5qmteYInh1PXNQcTXLK6kUU0FBU8jWpJ6nYUVYdpP/ADjBqWj2&#xA;KWGkfmT5i06xjLGO0tJ3giUseTERxyKoqTU7Yqnfmv8A5x6svMNjoE7eZdTtvNfl6H6vbeaFkL3c&#xA;qBmcGYlg5ZWduJDg7nriqO/Lf8jdO8o67f8AmTVNZvPNHmXUITbS6lqBJ4wGlUVC0lahFFWY7Cgo&#xA;K1VYpqP/ADihpn1m/g8v+bNV0Hy7qjFr/Qbdi0Dg9U+2gKdgHVvpxVkl3/zjz5SlbyfaRXE0Wg+T&#xA;naa20hlSRLqd5BI8ty5pzZ2UV2p1AoDTFUw/Mf8AJLyt5zsbCKHjoN9pt0t3a6jp8ESShlBHHoNq&#xA;8W+YGKo/y1+WFnofn3zB5zF9Jc3nmKKGK5tmRViT0VVapQk/Fw6HFUp8pfkXoHlfzD5ivNPu5G8v&#xA;+Zo5I9Q8syIpswJOvClCKcnUD+VqeGKsVf8A5xb+qJc6boHnrW9H8sXbs02hxSFo6Ps6Bg6ChG3x&#xA;Iaj7VcVTiT/nGvyf9V8q6ZDe3S6H5Yunvv0dLwlF5PI6O7XDEAUPpheKqBQnxxVO/wAyfyS8p+dt&#xA;ItrFEXQ7qzuUu7bUdPhiSZWQEcagL8J5V+YGKq/lf8qLTQvzE1rzydSmu9Q1y2jt7qB40SNSgiBd&#xA;eO/xGGtPfFUP5N/JvS/J3nrWfMuhahNbWGuVa80AIn1USV5B4z9peLlio6AMR0xVMPO35Z2PmvzR&#xA;5T8wXF7LbTeU7mS6t4I1VlmaVoWKuTuAPQHTxxVmeKvA9N/5xPTT9Nk0i28+69b6JcFjdaZbS+jB&#xA;LzAD8o1YxnkAAaqcVZX5t/5x98p65+XOl+QrGebSNJ0m7W9hkiCyyvII5UYyF+pczlifu2xV6jir&#xA;sVdirsVdirsVdirsVdirsVdirsVdirsVdirsVdirsVdirsVdirsVdirsVdirsVdirsVdirsVdirs&#xA;VdirsVdirsVdirsVdirsVdirsVdirsVdirsVdirsVdirsVdirsVdirsVdirsVdirsVdirsVdirsV&#xA;dirsVdirsVdirsVdirsVdir/AP/Z</xmpGImg:image>
               </rdf:li>
            </rdf:Alt>
         </xmp:Thumbnails>
         <xmpMM:InstanceID>xmp.iid:9abfa668-2609-c146-aeb5-945099e7e6e3</xmpMM:InstanceID>
         <xmpMM:DocumentID>xmp.did:9abfa668-2609-c146-aeb5-945099e7e6e3</xmpMM:DocumentID>
         <xmpMM:OriginalDocumentID>uuid:5D20892493BFDB11914A8590D31508C8</xmpMM:OriginalDocumentID>
         <xmpMM:RenditionClass>proof:pdf</xmpMM:RenditionClass>
         <xmpMM:DerivedFrom rdf:parseType="Resource">
            <stRef:instanceID>uuid:ff470bc6-f939-440e-8f31-27b0eb70075c</stRef:instanceID>
            <stRef:documentID>xmp.did:4de20fe2-e96f-dd46-b8bd-1606dc72d06f</stRef:documentID>
            <stRef:originalDocumentID>uuid:5D20892493BFDB11914A8590D31508C8</stRef:originalDocumentID>
            <stRef:renditionClass>proof:pdf</stRef:renditionClass>
         </xmpMM:DerivedFrom>
         <xmpMM:History>
            <rdf:Seq>
               <rdf:li rdf:parseType="Resource">
                  <stEvt:action>saved</stEvt:action>
                  <stEvt:instanceID>xmp.iid:9abfa668-2609-c146-aeb5-945099e7e6e3</stEvt:instanceID>
                  <stEvt:when>2017-04-11T01:59:07-05:00</stEvt:when>
                  <stEvt:softwareAgent>Adobe Illustrator CC (Windows)</stEvt:softwareAgent>
                  <stEvt:changed>/</stEvt:changed>
               </rdf:li>
            </rdf:Seq>
         </xmpMM:History>
         <illustrator:StartupProfile>Print</illustrator:StartupProfile>
         <xmpTPg:HasVisibleOverprint>False</xmpTPg:HasVisibleOverprint>
         <xmpTPg:HasVisibleTransparency>True</xmpTPg:HasVisibleTransparency>
         <xmpTPg:NPages>1</xmpTPg:NPages>
         <xmpTPg:MaxPageSize rdf:parseType="Resource">
            <stDim:w>54.929614</stDim:w>
            <stDim:h>26.195160</stDim:h>
            <stDim:unit>Millimeters</stDim:unit>
         </xmpTPg:MaxPageSize>
         <xmpTPg:PlateNames>
            <rdf:Seq>
               <rdf:li>Cyan</rdf:li>
               <rdf:li>Magenta</rdf:li>
               <rdf:li>Yellow</rdf:li>
               <rdf:li>Black</rdf:li>
            </rdf:Seq>
         </xmpTPg:PlateNames>
         <xmpTPg:SwatchGroups>
            <rdf:Seq>
               <rdf:li rdf:parseType="Resource">
                  <xmpG:groupName>Grupo de muestras por defecto</xmpG:groupName>
                  <xmpG:groupType>0</xmpG:groupType>
               </rdf:li>
            </rdf:Seq>
         </xmpTPg:SwatchGroups>
         <pdf:Producer>Adobe PDF library 10.01</pdf:Producer>
      </rdf:Description>
   </rdf:RDF>
</x:xmpmeta>
                                                                                                    
                                                                                                    
                                                                                                    
                                                                                                    
                                                                                                    
                                                                                                    
                                                                                                    
                                                                                                    
                                                                                                    
                                                                                                    
                                                                                                    
                                                                                                    
                                                                                                    
                                                                                                    
                                                                                                    
                                                                                                    
                                                                                                    
                                                                                                    
                                                                                                    
                                                                                                    
                           
<?xpacket end="w"?>
	</metadata>
<g>
	<rect id="XMLID_75_" x="0.541" opacity="0.5" fill="#FFFFFF" enable-background="new    " width="154.914" height="74.254"/>
	<rect id="XMLID_70_" y="0" fill="#154A8C" width="155.336" height="48.154"/>
	<rect id="XMLID_69_" y="57.455" fill="none" width="155.706" height="13.102"/>
	<g enable-background="new    ">
		<path d="M30.673,57.457h2.906c0.655,0,1.155,0.05,1.499,0.15c0.462,0.136,0.857,0.378,1.187,0.726
			c0.33,0.347,0.58,0.772,0.752,1.275s0.258,1.123,0.258,1.861c0,0.647-0.081,1.206-0.242,1.676
			c-0.197,0.572-0.478,1.036-0.843,1.391c-0.276,0.269-0.648,0.479-1.117,0.629c-0.351,0.11-0.82,0.166-1.407,0.166h-2.992
			L30.673,57.457L30.673,57.457z M32.263,58.789v5.216h1.187c0.444,0,0.765-0.025,0.961-0.076c0.258-0.064,0.472-0.173,0.642-0.327
			s0.309-0.407,0.417-0.76s0.161-0.834,0.161-1.442s-0.054-1.076-0.161-1.402c-0.107-0.325-0.258-0.58-0.451-0.762
			c-0.193-0.184-0.438-0.307-0.736-0.371c-0.222-0.05-0.657-0.075-1.305-0.075h-0.715C32.263,58.79,32.263,58.789,32.263,58.789z"/>
		<path d="M38.623,65.331v-7.874h5.838v1.332h-4.249v1.745h3.953v1.327h-3.953v2.144h4.399v1.326
			C44.611,65.331,38.623,65.331,38.623,65.331z"/>
		<path d="M45.557,62.769l1.547-0.15c0.093,0.52,0.282,0.901,0.566,1.145c0.285,0.243,0.669,0.365,1.152,0.365
			c0.512,0,0.898-0.108,1.157-0.325c0.26-0.217,0.39-0.47,0.39-0.76c0-0.187-0.055-0.345-0.164-0.476s-0.3-0.244-0.572-0.341
			c-0.186-0.064-0.61-0.179-1.273-0.344c-0.852-0.211-1.45-0.471-1.794-0.778c-0.483-0.434-0.725-0.962-0.725-1.585
			c0-0.401,0.114-0.776,0.341-1.125c0.227-0.35,0.555-0.615,0.982-0.798c0.428-0.183,0.945-0.273,1.55-0.273
			c0.988,0,1.732,0.216,2.231,0.649c0.5,0.434,0.762,1.012,0.787,1.735l-1.59,0.069c-0.068-0.404-0.214-0.695-0.438-0.873
			c-0.224-0.177-0.56-0.266-1.007-0.266c-0.462,0-0.824,0.095-1.085,0.284c-0.168,0.122-0.252,0.285-0.252,0.489
			c0,0.187,0.079,0.346,0.236,0.478c0.201,0.169,0.688,0.344,1.461,0.527c0.773,0.182,1.346,0.371,1.716,0.566
			c0.371,0.195,0.661,0.462,0.87,0.8c0.21,0.339,0.314,0.757,0.314,1.255c0,0.451-0.125,0.873-0.376,1.268
			c-0.25,0.394-0.605,0.687-1.063,0.878s-1.029,0.287-1.713,0.287c-0.996,0-1.76-0.23-2.293-0.69S45.661,63.649,45.557,62.769z"/>
		<path d="M58.334,62.437l1.542,0.488c-0.236,0.859-0.629,1.498-1.179,1.915s-1.247,0.626-2.092,0.626
			c-1.045,0-1.905-0.357-2.578-1.072c-0.673-0.714-1.01-1.69-1.01-2.93c0-1.311,0.338-2.328,1.015-3.054
			c0.677-0.725,1.566-1.087,2.669-1.087c0.963,0,1.746,0.284,2.347,0.854c0.358,0.337,0.626,0.82,0.806,1.45l-1.574,0.376
			c-0.093-0.408-0.288-0.73-0.583-0.967c-0.296-0.236-0.655-0.354-1.077-0.354c-0.583,0-1.057,0.21-1.421,0.628
			c-0.363,0.42-0.545,1.098-0.545,2.036c0,0.995,0.179,1.704,0.537,2.127s0.824,0.634,1.396,0.634c0.422,0,0.786-0.135,1.09-0.402
			C57.983,63.435,58.202,63.013,58.334,62.437z"/>
		<path d="M68.341,65.331h-1.729l-0.688-1.789h-3.147l-0.65,1.789H60.44l3.067-7.874h1.681L68.341,65.331z M65.414,62.216
			l-1.085-2.922l-1.063,2.922H65.414z"/>
		<path d="M69.189,65.331v-7.874h3.346c0.841,0,1.453,0.07,1.834,0.212c0.381,0.142,0.687,0.394,0.916,0.755
			s0.344,0.775,0.344,1.241c0,0.59-0.174,1.078-0.521,1.463s-0.867,0.628-1.558,0.729c0.344,0.2,0.627,0.42,0.852,0.66
			c0.224,0.24,0.525,0.666,0.905,1.278l0.961,1.536h-1.901l-1.149-1.713c-0.408-0.613-0.688-0.999-0.838-1.158
			s-0.31-0.269-0.478-0.327c-0.168-0.06-0.435-0.089-0.8-0.089H70.78v3.287C70.78,65.331,69.189,65.331,69.189,65.331z
			 M70.779,60.787h1.176c0.763,0,1.239-0.032,1.429-0.097s0.338-0.176,0.446-0.333s0.161-0.354,0.161-0.591
			c0-0.265-0.071-0.479-0.212-0.642c-0.142-0.163-0.341-0.267-0.599-0.31c-0.129-0.018-0.516-0.026-1.16-0.026h-1.241
			C70.779,58.788,70.779,60.787,70.779,60.787z"/>
		<path d="M80.791,62.437V61.11h3.427v3.137c-0.333,0.322-0.815,0.606-1.447,0.852s-1.272,0.368-1.92,0.368
			c-0.824,0-1.542-0.173-2.154-0.519s-1.072-0.84-1.38-1.482s-0.462-1.342-0.462-2.098c0-0.82,0.172-1.549,0.516-2.187
			c0.344-0.637,0.847-1.126,1.509-1.466c0.505-0.262,1.134-0.392,1.886-0.392c0.978,0,1.741,0.204,2.291,0.614
			c0.549,0.41,0.902,0.977,1.061,1.7l-1.579,0.295c-0.111-0.387-0.319-0.691-0.626-0.915c-0.306-0.224-0.688-0.336-1.146-0.336
			c-0.695,0-1.247,0.22-1.657,0.661c-0.41,0.439-0.615,1.094-0.615,1.96c0,0.935,0.208,1.636,0.623,2.103
			c0.416,0.468,0.96,0.701,1.633,0.701c0.333,0,0.667-0.065,1.002-0.196s0.622-0.289,0.862-0.476v-0.998h-1.824L80.791,62.437
			L80.791,62.437z"/>
		<path d="M92.785,65.331h-1.729l-0.688-1.789H87.22l-0.65,1.789h-1.687l3.067-7.874h1.681L92.785,65.331z M89.857,62.216
			l-1.085-2.922l-1.063,2.922H89.857z"/>
		<path d="M93.633,65.331v-7.874h3.346c0.842,0,1.453,0.07,1.835,0.212c0.381,0.142,0.687,0.394,0.915,0.755
			c0.229,0.361,0.344,0.775,0.344,1.241c0,0.59-0.174,1.078-0.521,1.463c-0.348,0.385-0.867,0.628-1.558,0.729
			c0.344,0.2,0.627,0.42,0.852,0.66c0.224,0.24,0.525,0.666,0.904,1.278l0.962,1.536h-1.901l-1.149-1.713
			c-0.408-0.613-0.688-0.999-0.838-1.158s-0.31-0.269-0.479-0.327c-0.168-0.06-0.435-0.089-0.8-0.089h-0.322v3.287
			C95.223,65.331,93.633,65.331,93.633,65.331z M95.223,60.787h1.176c0.763,0,1.239-0.032,1.429-0.097
			c0.19-0.064,0.339-0.176,0.446-0.333s0.161-0.354,0.161-0.591c0-0.265-0.071-0.479-0.212-0.642c-0.142-0.163-0.342-0.267-0.6-0.31
			c-0.129-0.018-0.516-0.026-1.16-0.026h-1.24C95.223,58.788,95.223,60.787,95.223,60.787z"/>
		<path d="M104.627,65.331v-7.874h2.552c0.967,0,1.597,0.039,1.891,0.118c0.451,0.118,0.829,0.375,1.133,0.771
			c0.305,0.396,0.457,0.907,0.457,1.534c0,0.482-0.088,0.89-0.264,1.219c-0.175,0.329-0.398,0.588-0.668,0.776
			c-0.271,0.188-0.546,0.313-0.825,0.373c-0.379,0.075-0.929,0.112-1.648,0.112h-1.037v2.971H104.627z M106.217,58.789v2.234h0.87
			c0.627,0,1.046-0.041,1.257-0.124c0.212-0.082,0.377-0.211,0.497-0.387c0.12-0.175,0.18-0.379,0.18-0.611
			c0-0.287-0.084-0.523-0.252-0.709c-0.169-0.187-0.382-0.303-0.64-0.35c-0.189-0.036-0.571-0.054-1.144-0.054L106.217,58.789
			L106.217,58.789z"/>
		<path d="M111.959,57.457h2.905c0.655,0,1.155,0.05,1.499,0.15c0.462,0.136,0.857,0.378,1.187,0.726
			c0.33,0.347,0.58,0.772,0.752,1.275s0.258,1.123,0.258,1.861c0,0.647-0.08,1.206-0.241,1.676
			c-0.197,0.572-0.479,1.036-0.844,1.391c-0.275,0.269-0.647,0.479-1.117,0.629c-0.351,0.11-0.819,0.166-1.407,0.166h-2.991v-7.874
			H111.959z M113.549,58.789v5.216h1.187c0.444,0,0.765-0.025,0.962-0.076c0.258-0.064,0.472-0.173,0.642-0.327
			s0.309-0.407,0.416-0.76s0.161-0.834,0.161-1.442s-0.054-1.076-0.161-1.402c-0.107-0.325-0.258-0.58-0.451-0.762
			c-0.193-0.184-0.438-0.307-0.735-0.371c-0.223-0.05-0.657-0.075-1.306-0.075h-0.715V58.789z"/>
		<path d="M119.919,65.331v-7.874h5.397v1.332h-3.808v1.864h3.287v1.332h-3.287v3.346H119.919z"/>
	</g>
	<g id="XMLID_55_">
		<path id="XMLID_67_" fill="#FFFFFF" d="M76.332,15.24h-4.789c-0.738,0-1.337,0.598-1.337,1.337s0.598,1.337,1.337,1.337h4.789
			c0.738,0,1.337-0.598,1.337-1.337S77.071,15.24,76.332,15.24z"/>
		<path id="XMLID_66_" fill="#FFFFFF" d="M76.332,20.795h-4.789c-0.738,0-1.337,0.598-1.337,1.337s0.598,1.337,1.337,1.337h4.789
			c0.738,0,1.337-0.598,1.337-1.337S77.071,20.795,76.332,20.795z"/>
		<path id="XMLID_65_" fill="#FFFFFF" d="M81.952,30.154v1.302h0.688c0.834,0,0.834-0.499,0.834-0.663c0-0.158,0-0.639-0.834-0.639
			H81.952L81.952,30.154z"/>
		<path id="XMLID_58_" fill="#FFFFFF" d="M92.105,27.694H89.93V14.145c0-0.351-0.139-0.687-0.387-0.934l-5.247-5.247
			c-0.248-0.248-0.584-0.387-0.934-0.387H67.573c-1.431,0-2.594,1.164-2.594,2.594v27.811c0,1.431,1.164,2.594,2.594,2.594h19.763
			c1.43,0,2.594-1.164,2.594-2.594v-2.678h2.175c1.131,0,2.047-0.917,2.047-2.047V29.74C94.152,28.611,93.236,27.694,92.105,27.694z
			 M87.113,37.688H67.796V10.465h13.731v3.883c0,0.941,0.762,1.703,1.702,1.703h3.883v11.643h-6.61
			c-1.131,0-2.047,0.917-2.047,2.047v3.517c0,1.131,0.917,2.047,2.047,2.047h6.61L87.113,37.688L87.113,37.688z M84.32,30.793
			c0,0.93-0.644,1.508-1.68,1.508h-0.688v0.8c0,0.206-0.167,0.374-0.374,0.374H81.48c-0.207,0-0.374-0.168-0.374-0.374v-3.419
			c0-0.206,0.167-0.374,0.374-0.374h1.159C83.676,29.308,84.32,29.877,84.32,30.793z M86.44,33.475h-1.345
			c-0.207,0-0.374-0.168-0.374-0.374v-3.419c0-0.206,0.167-0.374,0.374-0.374h1.345c1.172,0,2.125,0.936,2.125,2.086
			C88.565,32.542,87.612,33.475,86.44,33.475z M91.8,29.78c0,0.207-0.167,0.374-0.374,0.374h-1.519v0.896h1.294
			c0.206,0,0.374,0.167,0.374,0.374v0.098c0,0.206-0.168,0.374-0.374,0.374h-1.294v1.206c0,0.206-0.167,0.374-0.374,0.374h-0.098
			c-0.207,0-0.374-0.168-0.374-0.374v-3.419c0-0.206,0.167-0.374,0.374-0.374h1.99c0.207,0,0.374,0.168,0.374,0.374L91.8,29.78
			L91.8,29.78z"/>
		<path id="XMLID_57_" fill="#FFFFFF" d="M86.44,30.154h-0.874v2.476h0.874c0.705,0,1.279-0.554,1.279-1.235
			C87.719,30.71,87.145,30.154,86.44,30.154z"/>
	</g>
</g>
</svg>
