<?xml version="1.0" encoding="utf-8"?>
<!-- Generator: Adobe Illustrator 17.0.0, SVG Export Plug-In . SVG Version: 6.00 Build 0)  -->
<!DOCTYPE svg PUBLIC "-//W3C//DTD SVG 1.1//EN" "http://www.w3.org/Graphics/SVG/1.1/DTD/svg11.dtd" [
	<!ENTITY ns_extend "http://ns.adobe.com/Extensibility/1.0/">
	<!ENTITY ns_ai "http://ns.adobe.com/AdobeIllustrator/10.0/">
	<!ENTITY ns_graphs "http://ns.adobe.com/Graphs/1.0/">
	<!ENTITY ns_vars "http://ns.adobe.com/Variables/1.0/">
	<!ENTITY ns_imrep "http://ns.adobe.com/ImageReplacement/1.0/">
	<!ENTITY ns_sfw "http://ns.adobe.com/SaveForWeb/1.0/">
	<!ENTITY ns_custom "http://ns.adobe.com/GenericCustomNamespace/1.0/">
	<!ENTITY ns_adobe_xpath "http://ns.adobe.com/XPath/1.0/">
]>
<svg version="1.1" id="Capa_1" xmlns:x="&ns_extend;" xmlns:i="&ns_ai;" xmlns:graph="&ns_graphs;"
	 xmlns="http://www.w3.org/2000/svg" xmlns:xlink="http://www.w3.org/1999/xlink" x="0px" y="0px" width="155.706px"
	 height="74.254px" viewBox="0 0 155.706 74.254" enable-background="new 0 0 155.706 74.254" xml:space="preserve">
<metadata><?xpacket begin="﻿" id="W5M0MpCehiHzreSzNTczkc9d"?>
<x:xmpmeta xmlns:x="adobe:ns:meta/" x:xmptk="Adobe XMP Core 5.5-c014 79.151739, 2013/04/03-12:12:15        ">
   <rdf:RDF xmlns:rdf="http://www.w3.org/1999/02/22-rdf-syntax-ns#">
      <rdf:Description rdf:about=""
            xmlns:dc="http://purl.org/dc/elements/1.1/"
            xmlns:xmp="http://ns.adobe.com/xap/1.0/"
            xmlns:xmpGImg="http://ns.adobe.com/xap/1.0/g/img/"
            xmlns:xmpMM="http://ns.adobe.com/xap/1.0/mm/"
            xmlns:stRef="http://ns.adobe.com/xap/1.0/sType/ResourceRef#"
            xmlns:stEvt="http://ns.adobe.com/xap/1.0/sType/ResourceEvent#"
            xmlns:illustrator="http://ns.adobe.com/illustrator/1.0/"
            xmlns:xmpTPg="http://ns.adobe.com/xap/1.0/t/pg/"
            xmlns:stDim="http://ns.adobe.com/xap/1.0/sType/Dimensions#"
            xmlns:xmpG="http://ns.adobe.com/xap/1.0/g/"
            xmlns:pdf="http://ns.adobe.com/pdf/1.3/">
         <dc:format>image/svg+xml</dc:format>
         <dc:title>
            <rdf:Alt>
               <rdf:li xml:lang="x-default">Imprimir</rdf:li>
            </rdf:Alt>
         </dc:title>
         <xmp:MetadataDate>2017-04-11T01:59:07-05:00</xmp:MetadataDate>
         <xmp:ModifyDate>2017-04-11T01:59:07-05:00</xmp:ModifyDate>
         <xmp:CreateDate>2017-04-11T01:59:07-05:00</xmp:CreateDate>
         <xmp:CreatorTool>Adobe Illustrator CC (Windows)</xmp:CreatorTool>
         <xmp:Thumbnails>
            <rdf:Alt>
               <rdf:li rdf:parseType="Resource">
                  <xmpGImg:width>256</xmpGImg:width>
                  <xmpGImg:height>124</xmpGImg:height>
                  <xmpGImg:format>JPEG</xmpGImg:format>
                  <xmpGImg:image>/9j/4AAQSkZJRgABAgEASABIAAD/7QAsUGhvdG9zaG9wIDMuMAA4QklNA+0AAAAAABAASAAAAAEA&#xA;AQBIAAAAAQAB/+4ADkFkb2JlAGTAAAAAAf/bAIQABgQEBAUEBgUFBgkGBQYJCwgGBggLDAoKCwoK&#xA;DBAMDAwMDAwQDA4PEA8ODBMTFBQTExwbGxscHx8fHx8fHx8fHwEHBwcNDA0YEBAYGhURFRofHx8f&#xA;Hx8fHx8fHx8fHx8fHx8fHx8fHx8fHx8fHx8fHx8fHx8fHx8fHx8fHx8fHx8f/8AAEQgAfAEAAwER&#xA;AAIRAQMRAf/EAaIAAAAHAQEBAQEAAAAAAAAAAAQFAwIGAQAHCAkKCwEAAgIDAQEBAQEAAAAAAAAA&#xA;AQACAwQFBgcICQoLEAACAQMDAgQCBgcDBAIGAnMBAgMRBAAFIRIxQVEGE2EicYEUMpGhBxWxQiPB&#xA;UtHhMxZi8CRygvElQzRTkqKyY3PCNUQnk6OzNhdUZHTD0uIIJoMJChgZhJRFRqS0VtNVKBry4/PE&#xA;1OT0ZXWFlaW1xdXl9WZ2hpamtsbW5vY3R1dnd4eXp7fH1+f3OEhYaHiImKi4yNjo+Ck5SVlpeYmZ&#xA;qbnJ2en5KjpKWmp6ipqqusra6voRAAICAQIDBQUEBQYECAMDbQEAAhEDBCESMUEFURNhIgZxgZEy&#xA;obHwFMHR4SNCFVJicvEzJDRDghaSUyWiY7LCB3PSNeJEgxdUkwgJChgZJjZFGidkdFU38qOzwygp&#xA;0+PzhJSktMTU5PRldYWVpbXF1eX1RlZmdoaWprbG1ub2R1dnd4eXp7fH1+f3OEhYaHiImKi4yNjo&#xA;+DlJWWl5iZmpucnZ6fkqOkpaanqKmqq6ytrq+v/aAAwDAQACEQMRAD8A555h/wCO/qX/ADFT/wDJ&#xA;xs63H9I9zzs/qKX5Ni7FXYq7FXYq7FXYq7FXYq7FXYq7FXYq7FXYq7FXYq7FXYq7FXYq7FXYq7FX&#xA;Yq7FXYq7FXYq7FUw8vf8d/Tf+YqD/k4uQyfSfcyh9Qd5h/47+pf8xU//ACcbHH9I9yz+opfk2LsV&#xA;dirsVdirsVdirsVdirsVdirsVdirsVdirsVdirsVdirsVdirsVdirsVdirsVdirsVdirsVTDy9/x&#xA;39N/5ioP+Ti5DJ9J9zKH1B3mH/jv6l/zFT/8nGxx/SPcs/qKX5Ni7FXYq7FXYq7FXYq7FXYq7FXY&#xA;q7FXYq7FX1v+QVrbRflbpM0USJLcNctPIqgM7LdSopYjrRVAznO0CfGPw+53WjH7sN/n7bW8v5Wa&#xA;vLJGryW7WzwOwBKM11EhKnsSrEfLHs8nxh8fuXWD92XyPnRuldirsVdirsVdirsVdirsVdirsVdi&#xA;rsVdiqYeXv8Ajv6b/wAxUH/Jxchk+k+5lD6g7zD/AMd/Uv8AmKn/AOTjY4/pHuWf1FL8mxdirsVd&#xA;irsVdirsVdirsVdirsVdirsVdir68/Ib/wAlRof/AEdf9Rk2c3r/AO+l8PuDu9H/AHQ/HV358/8A&#xA;kqNc/wCjX/qMhx0H99H4/cV1n90fx1fIedI6R2KuxV2KuxV2KuxV2KuxV2KuxV2KuxV2Kph5e/47&#xA;+m/8xUH/ACcXIZPpPuZQ+oO8w/8AHf1L/mKn/wCTjY4/pHuWf1FL8mxdirsVdirsVdirsVdirsVd&#xA;irsVdirsVTTRfK/mPXPVOj6Zc34hp6rW8TSBSegYqKCuVzyxh9RAZRxylyFvrL8mdL1HS/y20ew1&#xA;G2ktL2H6z6tvMpR15XUrrVT4qwOc7rZiWUkbjb7ndaWJGMA/jd35zaXqOqfltrFhp1tJd3s31b0r&#xA;eFS7txuonaijwVScdFMRygnYb/cuqiTjIH43fJuteVvMmhiJtY0y5sFnqIWuImjDFeoUsKGlc6KG&#xA;WM/pILppY5R5ikryxg7FXYq7FXYq7FXYq7FXYq7FXYq7FXYqmHl7/jv6b/zFQf8AJxchk+k+5lD6&#xA;g7zD/wAd/Uv+Yqf/AJONjj+ke5Z/UUvybF2KuxV2KuxV2KuxV2KuxV2KuxV2KuxVmX5ZfmVqfkfW&#xA;DPEpuNLuiq6jZdOarWjoT0damnj0OYuq0wyxrr0b8Gc4z5PrnQNf0rX9Kg1XSp1uLK4Xkjr1B7qw&#xA;6qynYg5zmTGYGjzd3CYkLC/Wta0zRNMuNT1O4W2srZecsr/gAOpYnYAbk4wgZGhzWUhEWXyH+Zv5&#xA;lan541gTyqbfS7UsunWXXgrUq7kdXagr4dBnR6XTDFGuvV0mfOch8mG5lNDsVdirsVdirsVdirsV&#xA;dirsVdirsVdiqYeXv+O/pv8AzFQf8nFyGT6T7mUPqDvMP/Hf1L/mKn/5ONjj+ke5Z/UUvybF2Kux&#xA;V2KuxV2KuxV2KuxV2KuxV2Kvpf8A5x58reXrjyHJfXWn291dXlzMk0s8SSkxpRRH8YPw96e+aLtH&#xA;LIZKB5B22ixxMLIeDefdOs9M8665YWSelaW17PHBEOioHPFR7Dpm308jLHEnnTrc0QJkDvTT8tfz&#xA;N1jyPqbSwA3Wl3B/03Tmbir02DoaHi48ab9Dlep0sco3597PBnOM+Sp+Zn5p6x54vk9RTZ6Tb72u&#xA;nK3IBqUMkjUXm57bbDYd6ul0kcQ7z3rn1ByHySDyfYW2o+bdE0+6Xna3l/a286VpWOWZUYV+Ry7N&#xA;IxhIjoC14hcgD3voD/nITyr5etvIMV5aafb2txZXMKQPBGkZEbgqyfCB8PTb2zTdnZZHJRPMOz1u&#xA;OIhYD5ozeupdirsVdirsVdirsVdirsVdirsVdiqYeXv+O/pv/MVB/wAnFyGT6T7mUPqDvMP/AB39&#xA;S/5ip/8Ak42OP6R7ln9RS/JsXYq7FXYq7FXYq7FXYq7FXYq7FXYq+j/+cf8Azz5TsPJL6Xqeq2un&#xA;XltcyOY7uZIOaS0ZWQyFQ3cGnT7s0naGCZyWASKdpo80RCiaZ/L5m/KiWRpZdV0GSRzyd2uLNmJP&#xA;cktvmGMWYdJfa5XiYu+P2Lf8Q/lH/wBXLQP+R9l/zVj4ebul9qOPF3x+x3+Ifyj/AOrloH/I+y/5&#xA;qx8PN3S+1ePF3x+xdH5l/KeKRZI9V0FJEIZHW4swwYGoIIbYjE4s3dL7V8TF3x+xgH/OQHnnynf+&#xA;SV0zTdVtdRvLm5iYR2kyT8UjqzM5jLBew3zM7PwTGSyCBTjazNEwoG3zhm7dW7FXYq7FXYq7FXYq&#xA;7FXYq7FXYq7FUw8vf8d/Tf8AmKg/5OLkMn0n3MofUHeYf+O/qX/MVP8A8nGxx/SPcs/qKX5Ni7FX&#xA;Yq7FXYq7FXYq7FXYq7FXYq7FXYq7FXYq7FXYq7FXYq7FXYq7FXYq7FXYq7FXYq7FXYq7FUw8vf8A&#xA;Hf03/mKg/wCTi5DJ9J9zKH1BNte8o+a31zUXTRb9ka5mZWW1mIIMhIIIXK8eaHCNxy72c8crOxQP&#xA;+DvN3/Vj1D/pFm/5pyXjQ/nD5sfCl3F3+DvN3/Vj1D/pFm/5px8aH84fNfCl3F3+DvN3/Vj1D/pF&#xA;m/5px8aH84fNfCl3F3+DvN3/AFY9Q/6RZv8AmnHxofzh818KXcXf4O83f9WPUP8ApFm/5px8aH84&#xA;fNfCl3F3+DvN3/Vj1D/pFm/5px8aH84fNfCl3F3+DvN3/Vj1D/pFm/5px8aH84fNfCl3F3+DvN3/&#xA;AFY9Q/6RZv8AmnHxofzh818KXcXf4O83f9WPUP8ApFm/5px8aH84fNfCl3F3+DvN3/Vj1D/pFm/5&#xA;px8aH84fNfCl3F3+DvN3/Vj1D/pFm/5px8aH84fNfCl3F3+DvN3/AFY9Q/6RZv8AmnHxofzh818K&#xA;XcXf4O83f9WPUP8ApFm/5px8aH84fNfCl3F3+DvN3/Vj1D/pFm/5px8aH84fNfCl3F3+DvN3/Vj1&#xA;D/pFm/5px8aH84fNfCl3F3+DvN3/AFY9Q/6RZv8AmnHxofzh818KXcXf4O83f9WPUP8ApFm/5px8&#xA;aH84fNfCl3F3+DvN3/Vj1D/pFm/5px8aH84fNfCl3F3+DvN3/Vj1D/pFm/5px8aH84fNfCl3F3+D&#xA;vN3/AFY9Q/6RZv8AmnHxofzh818KXcXf4O83f9WPUP8ApFm/5px8aH84fNfCl3F3+DvN3/Vj1D/p&#xA;Fm/5px8aH84fNfCl3F3+DvN3/Vj1D/pFm/5px8aH84fNfCl3F3+DvN3/AFY9Q/6RZv8AmnHxofzh&#xA;818KXcXf4O83f9WPUP8ApFm/5px8aH84fNfCl3F3+DvN3/Vj1D/pFm/5px8aH84fNfCl3F3+DvN3&#xA;/Vj1D/pFm/5px8aH84fNfCl3F3+DvN3/AFY9Q/6RZv8AmnHxofzh818KXcXf4O83f9WPUP8ApFm/&#xA;5px8aH84fNfCl3F3+DvN3/Vj1D/pFm/5px8aH84fNfCl3FHaD5R81prmnO+i36otzCzM1rMAAJAS&#xA;SSuRyZocJ3HLvZQxysbF9rZyzv3Yq7FXYq7FXYq7FXYq7FXYq7FXYq7FXYq7FXYq7FXYq7FXYq7F&#xA;XYq7FXYq7FXYq7FXYq7FXYq7FXYq7FXYq7FVC/vrWwsbi+u5BFaWkTz3EpBIWONSzsQKnZRXFWB2&#xA;X/OQn5MXtyltD5qtBLIQq+qJYUqTTd5URB9JxVP/ADd+Y/kjyfb2dx5j1WPT4NQ5CzkZZJFk4AFu&#xA;JiV+zjFUp8v/AJ4/lV5h1i20bRvMEV5qd4xW2tlinUuVUuQC8ar9lSdzireu/nj+U+hatJpGqeZb&#xA;WDUIW9OeFRJL6bjqrtEjopHcE7Yqye68y+XrTQjr9zqVtFogiWf9JNKn1cxvTiwkrxIao4069sVY&#xA;75W/Of8AK/zVqY0vQfMNvd6g1fTtWEkMknEEn0xMkfqUAr8NdsVTfzf558qeTtPi1DzLqMem2c8o&#xA;ghlkDtykKl+IWNXb7KHtiqL1LzJoem6BJ5hvbtItGihW5e9ozIIWAKv8IZiCGHQYqwy0/wCch/yX&#xA;urhIIvNVqJJCFUyrNElSabvJGiD6TirMdd80+XNA0c6zrOo29jpY40u5XARuYqoQ/tlh0C1JxVIP&#xA;Kv5y/lj5r1IaZoHmC3vNQYMY7UiSGR+NeXprMkfOgBPw1236YqnHm7zr5W8n6amp+ZNQj02xllW3&#xA;jmkDtylZWYIAis1eKMenbFUTdeZNDtfLzeY5rtF0RLYXrXw5Mn1cp6gkHEEkcTXYYqwu3/5yJ/JW&#xA;4mWGPzVaq7mgMiTxL9LyRqo+k4q9EililiSWJ1kikUNHIpDKysKggjYgjFWJ+bvzb/LjyfeJY+Yt&#xA;et7G9cBha0eWUK32WdIVkZAexYDFUdZfmB5Lv/K9x5pstXt7nQLRHkur6El1iEY5OHVQXVlG5UrX&#xA;2xVjVr/zkR+S1zOkEfmu1V5DRTKs0SVP8zyRoi/MnFXocckcsayRsHjcBkdSCrKRUEEdQcVYmn5t&#xA;/l2+i6traa1GdL0KZbbVrr05qQSvIIlRhw5GrsB8IOKpLF/zkZ+SssqRR+aIGkkYKi+jc7kmgH91&#xA;iqvqf5//AJP6XqV3pl/5khgvrGaS2u4DFcEpLC5SRCVjI+FlI2OKproH5r/l3r+l6jqula5bzabp&#xA;IVtSu35wxwhwSpdplj68TiqB0H88/wApte1WPSdL8y2s2oTP6cMLiSH1HNKLG0yRq5NaAKd+2Ks6&#xA;xV2KuxV2KuxV2KuxVj/5h/8AKAeZv+2Vff8AUM+KvCPy+8ieSdX/AOcT/r+q6VZtex6fq1yNTaKN&#xA;blJbe5ujE4npzqvADc9NumKvNtb1DWNR/Kb8m2kiXUryPVL22s7e5PwTJDdxxwwuW24UAj8OOKvo&#xA;HyHp/nmLzNbTa9+W/l7y7psSyvJq9i9q08LCNuPHh8Q5HYnwxV4u3kzzV5d0vzRNo+iaF+ZnkbUZ&#xA;7ma71q1kimv4hxDMFuI2MqSItGogcK2464qifN+qeVdf8n/ktoeiQzWPkfVdYli1PTbiZpGidLuG&#xA;OSOSdjuF+szFCf2SDQdAq9r80flf+R1hrvle71CKy8t6lZT/AO4P6tJHpxuJYijqrFeBlKMF41Na&#xA;n/KxV5B/zkP5k8rebPzetvKGv6wuleXfL1hcme6YSMDqVzByjAESuTwJh6js474qivJ3nr/Ef/OJ&#xA;fmbS7iTnqPlu0awlBILG35K1q237PCsY/wBTFXnd/r1235W+X/Kl/wCRtL0qPXY4otL87XZjUvwm&#xA;BaYypHWM/styfZTvtir03zz5Wt0/M38nvy88yXBvfLthpqJKr19G4u4o2QKa8eSu8EaBT0U074q3&#xA;+ZOqeStB/M3RZb78tbnTW07UY7bR9dsZV0+2unDxlHKxQr6gjpsOXSo6Yqg/+cjPMnlbzP8Am1pf&#xA;krX9XXSvLeh2k82pXdJGpfXMBaFQsYYsU/dfLk2Kq35a+eP09/zi55x0K4mEuoeWbC7tCQalrWSN&#xA;3tn7bCjxj2TFXnV/5ivIvym0Py3qHkHTNOg1yFLfTPOt0YxyKygmdpEj5IwH8z9N6EYq+yfy+8uz&#xA;eW/I+haDPcC7m02xgt5bhSWR2RAGKEgHhXZP8mmKvDf+cafL+headV89eZPM9nb6p5jfVXt5lvY0&#xA;nMMTAmipIG4hjyT5LTpirE76ys/L3n787vLPl9Rb+Wv8NzXRs4v7lLkR2zUUD4V4NczKF7DbtirH&#xA;YbDz9dfkIoh/LzS5PL6WzzSeb62r34hinZ5JlQSLOGTiVrT7I8MVfUf5SeZvJsvkPyjpel6xFNJJ&#xA;pcSWFtcyRxXsyWqmGR/q/N2+F4XB41AoRXbFXzRYf+SJ/OX/ALblp/3UIsVeleQdK/MSXS/Lnqfl&#xA;b5bfSngsueqs9obhrcolbgqfiMhT46da4qqf85beXPL1p5O0a/tdLtLe+u/MdsLq7igiSWUSQXLu&#xA;JJFUM3JhVqnc4qh/+cn9H0bTbTyboVlZ2+keXtb1mNdd+pxR2qSJEUVPVaMLXissjCvhXtiqY/8A&#xA;OTf5feQdL/J26v7DSLPTNQ0mS0Gkz2sSQSAvcJG8fJArMDGzsQT1HLqMVevfl/f3+o+QvLeoaizN&#xA;qF5pVlcXjMCGM0tujyEg9+ROKp/irsVdirsVdirsVQOu6VHq+iahpMkhij1C2mtXlUAsqzxmMsAe&#xA;45Yq8Us/+cUbeLS49DuPPWvy+W1Px6JHN6VsVLmRgIqvEKuSx+Drv1xVlPn78g9A80aL5a0iwv7j&#xA;y/a+VeX6MNkAXUkIFbmx5B1MfLlWtd+uKrPKX5LeYNB8w2erXX5ieYdZt7VmaTTL65kkt5gyMnGR&#xA;GkYEDlXp1GKsbvv+cVraK41KDy15y1by95f1Z2e90K3JaBg+zIOLxArx+Ec1Y8diTirMNV/IPyFq&#xA;H5bWXkFopotN00mWwvVcG6juGLM83MjixdpG5KV477AUFFWP+Vf+cabHT/M2m6/5l8z6l5qm0Uq2&#xA;j218x9KAoeSfaeUkIwDAKVFRvirJfJH5LeXPLepa/qt841/U/MN2bu6ur+CJihJZuEYo3EcpD+Hh&#xA;iqUXv/OPGhSar5uu7DU59OsfONp9VvtMhij9CJwUYTRdPi5Ixp0+NvbFU11H8k/Lep/lTafl3fzS&#xA;TWlhEi2eo8VE8U0ZJSZRuoPxFSO6kjviqD1v8g9D1/yNo3lrWtUu7m/8vCmj+Yo+MV7CoI4rUclY&#xA;BVVf9iD13xVI9P8A+cZobjXbHVvOXnHWPNf6MkSWxtbuRljVkII5FnmalVFeJWvfFWVeTfyW8u6B&#xA;rvmLXb+Qa7qfmK5+tXE19DEwi+J39OJaMFWsn3AeGKpZef8AOP2gvr/mrVNO1GbTLXzbp76df6XB&#xA;FH9XT1EVfWjG1GDJy/2TeOKpre/kv5c1D8qbb8udQmkuLGzhWO1v6Ks8csZLRzL1AYciD4io74qy&#xA;LyL5Xn8q+VbDy/LqUuqrp0foQXlwqrL6Kn92jcdv3a0UewGKvPvNH/OOtpe+ar3zR5T8zal5P1XV&#xA;CW1P9HsfSmZt3birRMCzfEfiIruADiqN8uf84++V9C8neYtBhvbq61HzTC8Or69ckSXL8ww+EHYA&#xA;Fy1NyT1J2oqxiD/nFaSPSV0NvzC8wf4fp6cmkJMUtjEW5Mgi5NEATU/YIrvTFU680f8AONnl2/h8&#xA;vv5a1e+8ran5btjY2OpWblpTAWd2DkNG3MvLI3JWH2m2p0VRVr/zj15btfyo1P8AL6C/uAusTR3W&#xA;paw4V7iWeOeOblxPwgfuVUDw33NTiqTW/wDzjj5itreK2tvzT80QW8CLHDDHdSoiIg4qqqsgAUAU&#xA;AGKs7/NT8s7H8w9EsdJvL2Wxjsb+LUUlhVXZnhjkjCEN2PrYqjfzE/Lvy35+8tyaDr0btbs4lgni&#xA;IWaCZQQskbEMK0YjcEEHFXmVt/zi5Bd3FhF5s85av5l0PTGDWWi3LlYVC7KrEvJ8PH4fhCmmwIGK&#xA;vcY444o1jjUJGgCoigBVUCgAA6AYquxV2KuxV2KuxV2KuxV2KuxV2KuxV2KuxV2KuxV2KuxV2Kux&#xA;V2KuxV2KuxV2KuxV2KuxV2KuxV2KuxV2KuxV2KuxV2KuxV2KuxV2KuxV2KuxV2KuxV2KuxV2KuxV&#xA;2KuxV2KuxV2KuxV2KuxV2KuxV2KuxV2KuxV2KuxV2KuxV//Z</xmpGImg:image>
               </rdf:li>
            </rdf:Alt>
         </xmp:Thumbnails>
         <xmpMM:InstanceID>xmp.iid:9abfa668-2609-c146-aeb5-945099e7e6e3</xmpMM:InstanceID>
         <xmpMM:DocumentID>xmp.did:9abfa668-2609-c146-aeb5-945099e7e6e3</xmpMM:DocumentID>
         <xmpMM:OriginalDocumentID>uuid:5D20892493BFDB11914A8590D31508C8</xmpMM:OriginalDocumentID>
         <xmpMM:RenditionClass>proof:pdf</xmpMM:RenditionClass>
         <xmpMM:DerivedFrom rdf:parseType="Resource">
            <stRef:instanceID>uuid:ff470bc6-f939-440e-8f31-27b0eb70075c</stRef:instanceID>
            <stRef:documentID>xmp.did:4de20fe2-e96f-dd46-b8bd-1606dc72d06f</stRef:documentID>
            <stRef:originalDocumentID>uuid:5D20892493BFDB11914A8590D31508C8</stRef:originalDocumentID>
            <stRef:renditionClass>proof:pdf</stRef:renditionClass>
         </xmpMM:DerivedFrom>
         <xmpMM:History>
            <rdf:Seq>
               <rdf:li rdf:parseType="Resource">
                  <stEvt:action>saved</stEvt:action>
                  <stEvt:instanceID>xmp.iid:9abfa668-2609-c146-aeb5-945099e7e6e3</stEvt:instanceID>
                  <stEvt:when>2017-04-11T01:59:07-05:00</stEvt:when>
                  <stEvt:softwareAgent>Adobe Illustrator CC (Windows)</stEvt:softwareAgent>
                  <stEvt:changed>/</stEvt:changed>
               </rdf:li>
            </rdf:Seq>
         </xmpMM:History>
         <illustrator:StartupProfile>Print</illustrator:StartupProfile>
         <xmpTPg:HasVisibleOverprint>False</xmpTPg:HasVisibleOverprint>
         <xmpTPg:HasVisibleTransparency>True</xmpTPg:HasVisibleTransparency>
         <xmpTPg:NPages>1</xmpTPg:NPages>
         <xmpTPg:MaxPageSize rdf:parseType="Resource">
            <stDim:w>54.929614</stDim:w>
            <stDim:h>26.195160</stDim:h>
            <stDim:unit>Millimeters</stDim:unit>
         </xmpTPg:MaxPageSize>
         <xmpTPg:PlateNames>
            <rdf:Seq>
               <rdf:li>Cyan</rdf:li>
               <rdf:li>Magenta</rdf:li>
               <rdf:li>Yellow</rdf:li>
               <rdf:li>Black</rdf:li>
            </rdf:Seq>
         </xmpTPg:PlateNames>
         <xmpTPg:SwatchGroups>
            <rdf:Seq>
               <rdf:li rdf:parseType="Resource">
                  <xmpG:groupName>Grupo de muestras por defecto</xmpG:groupName>
                  <xmpG:groupType>0</xmpG:groupType>
               </rdf:li>
            </rdf:Seq>
         </xmpTPg:SwatchGroups>
         <pdf:Producer>Adobe PDF library 10.01</pdf:Producer>
      </rdf:Description>
   </rdf:RDF>
</x:xmpmeta>
                                                                                                    
                                                                                                    
                                                                                                    
                                                                                                    
                                                                                                    
                                                                                                    
                                                                                                    
                                                                                                    
                                                                                                    
                                                                                                    
                                                                                                    
                                                                                                    
                                                                                                    
                                                                                                    
                                                                                                    
                                                                                                    
                                                                                                    
                                                                                                    
                                                                                                    
                                                                                                    
                           
<?xpacket end="w"?>
	</metadata>
<g>
	<rect id="XMLID_84_" x="0.397" opacity="0.5" fill="#FFFFFF" enable-background="new    " width="154.914" height="74.254"/>
	<rect id="XMLID_81_" x="0.397" y="0" fill="#154A8C" width="154.914" height="48.154"/>
	<rect id="XMLID_80_" y="57.455" fill="none" width="155.706" height="13.102"/>
	<g enable-background="new    ">
		<path d="M19.058,57.457h2.906c0.655,0,1.155,0.05,1.499,0.15c0.462,0.136,0.857,0.378,1.187,0.726
			c0.33,0.347,0.58,0.772,0.752,1.275s0.258,1.123,0.258,1.861c0,0.647-0.081,1.206-0.242,1.676
			c-0.197,0.572-0.478,1.036-0.843,1.391c-0.276,0.269-0.648,0.479-1.117,0.629c-0.351,0.11-0.82,0.166-1.407,0.166h-2.992
			L19.058,57.457L19.058,57.457z M20.648,58.789v5.216h1.187c0.444,0,0.765-0.025,0.961-0.076c0.258-0.064,0.472-0.173,0.642-0.327
			s0.309-0.407,0.417-0.76s0.161-0.834,0.161-1.442s-0.054-1.076-0.161-1.402c-0.107-0.325-0.258-0.58-0.451-0.762
			c-0.193-0.184-0.438-0.307-0.736-0.371c-0.222-0.05-0.657-0.075-1.305-0.075h-0.715V58.789z"/>
		<path d="M27.007,65.331v-7.874h5.838v1.332h-4.249v1.745h3.953v1.327h-3.953v2.144h4.399v1.326
			C32.995,65.331,27.007,65.331,27.007,65.331z"/>
		<path d="M33.941,62.769l1.547-0.15c0.093,0.52,0.282,0.901,0.566,1.145c0.285,0.243,0.669,0.365,1.152,0.365
			c0.512,0,0.898-0.108,1.157-0.325c0.26-0.217,0.39-0.47,0.39-0.76c0-0.187-0.055-0.345-0.164-0.476s-0.3-0.244-0.572-0.341
			c-0.186-0.064-0.61-0.179-1.273-0.344c-0.852-0.211-1.45-0.471-1.794-0.778c-0.483-0.434-0.725-0.962-0.725-1.585
			c0-0.401,0.114-0.776,0.341-1.125c0.227-0.35,0.555-0.615,0.982-0.798c0.428-0.183,0.945-0.273,1.55-0.273
			c0.988,0,1.732,0.216,2.231,0.649c0.5,0.434,0.762,1.012,0.787,1.735l-1.59,0.069c-0.068-0.404-0.214-0.695-0.438-0.873
			c-0.224-0.177-0.56-0.266-1.007-0.266c-0.462,0-0.824,0.095-1.085,0.284c-0.168,0.122-0.252,0.285-0.252,0.489
			c0,0.187,0.079,0.346,0.236,0.478c0.201,0.169,0.688,0.344,1.461,0.527c0.773,0.182,1.346,0.371,1.716,0.566
			c0.371,0.195,0.661,0.462,0.87,0.8c0.21,0.339,0.314,0.757,0.314,1.255c0,0.451-0.125,0.873-0.376,1.268
			c-0.25,0.394-0.605,0.687-1.063,0.878s-1.029,0.287-1.713,0.287c-0.996,0-1.76-0.23-2.293-0.69S34.045,63.649,33.941,62.769z"/>
		<path d="M46.719,62.437l1.542,0.488c-0.236,0.859-0.629,1.498-1.179,1.915s-1.247,0.626-2.092,0.626
			c-1.045,0-1.905-0.357-2.578-1.072c-0.673-0.714-1.01-1.69-1.01-2.93c0-1.311,0.338-2.328,1.015-3.054
			c0.677-0.725,1.566-1.087,2.669-1.087c0.963,0,1.746,0.284,2.347,0.854c0.358,0.337,0.626,0.82,0.806,1.45l-1.574,0.376
			c-0.093-0.408-0.288-0.73-0.582-0.967c-0.296-0.236-0.655-0.354-1.077-0.354c-0.583,0-1.057,0.21-1.421,0.628
			c-0.363,0.42-0.545,1.098-0.545,2.036c0,0.995,0.179,1.704,0.537,2.127s0.824,0.634,1.396,0.634c0.422,0,0.786-0.135,1.09-0.402
			C46.368,63.435,46.587,63.013,46.719,62.437z"/>
		<path d="M56.726,65.331h-1.729l-0.688-1.789h-3.147l-0.65,1.789h-1.687l3.067-7.874h1.681L56.726,65.331z M53.798,62.216
			l-1.085-2.922l-1.063,2.922H53.798z"/>
		<path d="M57.574,65.331v-7.874h3.346c0.841,0,1.453,0.07,1.834,0.212c0.381,0.142,0.687,0.394,0.916,0.755
			s0.344,0.775,0.344,1.241c0,0.59-0.174,1.078-0.521,1.463s-0.867,0.628-1.558,0.729c0.344,0.2,0.627,0.42,0.852,0.66
			c0.224,0.24,0.525,0.666,0.905,1.278l0.961,1.536h-1.901l-1.149-1.713c-0.408-0.613-0.688-0.999-0.838-1.158
			s-0.31-0.269-0.478-0.327c-0.168-0.06-0.435-0.089-0.8-0.089h-0.322v3.287C59.165,65.331,57.574,65.331,57.574,65.331z
			 M59.164,60.787h1.176c0.763,0,1.239-0.032,1.429-0.097s0.338-0.176,0.446-0.333s0.161-0.354,0.161-0.591
			c0-0.265-0.071-0.479-0.212-0.642c-0.142-0.163-0.341-0.267-0.599-0.31c-0.129-0.018-0.516-0.026-1.16-0.026h-1.241
			C59.164,58.788,59.164,60.787,59.164,60.787z"/>
		<path d="M69.176,62.437V61.11h3.427v3.137c-0.333,0.322-0.815,0.606-1.448,0.852c-0.632,0.245-1.272,0.368-1.92,0.368
			c-0.824,0-1.542-0.173-2.154-0.519s-1.072-0.84-1.38-1.482s-0.462-1.342-0.462-2.098c0-0.82,0.172-1.549,0.516-2.187
			c0.344-0.637,0.847-1.126,1.509-1.466c0.505-0.262,1.133-0.392,1.885-0.392c0.978,0,1.741,0.204,2.291,0.614
			c0.549,0.41,0.903,0.977,1.061,1.7l-1.579,0.295c-0.111-0.387-0.319-0.691-0.626-0.915c-0.306-0.224-0.688-0.336-1.146-0.336
			c-0.695,0-1.247,0.22-1.657,0.661c-0.41,0.439-0.615,1.094-0.615,1.96c0,0.935,0.208,1.636,0.623,2.103
			c0.416,0.468,0.959,0.701,1.633,0.701c0.333,0,0.667-0.065,1.001-0.196c0.335-0.131,0.623-0.289,0.862-0.476v-0.998h-1.821V62.437
			z"/>
		<path d="M81.169,65.331H79.44l-0.688-1.789h-3.147l-0.65,1.789h-1.687l3.067-7.874h1.681L81.169,65.331z M78.242,62.216
			l-1.085-2.922l-1.063,2.922H78.242z"/>
		<path d="M82.018,65.331v-7.874h3.346c0.842,0,1.453,0.07,1.835,0.212c0.381,0.142,0.687,0.394,0.915,0.755
			c0.229,0.361,0.344,0.775,0.344,1.241c0,0.59-0.174,1.078-0.521,1.463c-0.348,0.385-0.867,0.628-1.558,0.729
			c0.344,0.2,0.627,0.42,0.852,0.66c0.224,0.24,0.525,0.666,0.904,1.278l0.962,1.536h-1.901l-1.149-1.713
			c-0.408-0.613-0.688-0.999-0.838-1.158s-0.31-0.269-0.479-0.327c-0.168-0.06-0.435-0.089-0.8-0.089h-0.322v3.287
			C83.608,65.331,82.018,65.331,82.018,65.331z M83.608,60.787h1.176c0.763,0,1.239-0.032,1.429-0.097
			c0.19-0.064,0.339-0.176,0.446-0.333s0.161-0.354,0.161-0.591c0-0.265-0.071-0.479-0.212-0.642c-0.142-0.163-0.342-0.267-0.6-0.31
			c-0.129-0.018-0.516-0.026-1.16-0.026h-1.24C83.608,58.788,83.608,60.787,83.608,60.787z"/>
		<path d="M92.69,61.442c0-0.802,0.12-1.476,0.36-2.02c0.179-0.401,0.423-0.761,0.733-1.08c0.31-0.318,0.648-0.555,1.018-0.709
			c0.49-0.207,1.056-0.311,1.697-0.311c1.16,0,2.088,0.359,2.785,1.079c0.696,0.72,1.044,1.721,1.044,3.003
			c0,1.271-0.346,2.266-1.036,2.983c-0.691,0.718-1.615,1.077-2.771,1.077c-1.171,0-2.103-0.357-2.793-1.072
			C93.036,63.68,92.69,62.695,92.69,61.442z M94.329,61.389c0,0.892,0.206,1.567,0.617,2.027c0.412,0.46,0.935,0.69,1.568,0.69
			s1.154-0.229,1.561-0.685c0.406-0.457,0.609-1.142,0.609-2.055c0-0.902-0.197-1.575-0.593-2.02
			c-0.396-0.444-0.922-0.666-1.577-0.666s-1.184,0.225-1.584,0.674C94.529,59.805,94.329,60.482,94.329,61.389z"/>
		<path d="M101.574,57.457h3.147c0.623,0,1.088,0.026,1.394,0.078c0.307,0.052,0.58,0.16,0.822,0.325
			c0.241,0.164,0.443,0.384,0.604,0.657c0.161,0.274,0.241,0.581,0.241,0.921c0,0.369-0.1,0.708-0.298,1.016
			c-0.199,0.308-0.468,0.539-0.809,0.693c0.48,0.139,0.849,0.377,1.106,0.714c0.258,0.337,0.387,0.732,0.387,1.187
			c0,0.358-0.083,0.707-0.25,1.045c-0.166,0.339-0.394,0.609-0.682,0.812s-0.644,0.326-1.066,0.373
			c-0.265,0.028-0.904,0.047-1.917,0.054h-2.681v-7.875H101.574z M103.164,58.768v1.821h1.042c0.62,0,1.005-0.01,1.155-0.027
			c0.271-0.032,0.485-0.126,0.642-0.282c0.155-0.155,0.233-0.36,0.233-0.614c0-0.244-0.067-0.441-0.201-0.594
			c-0.135-0.152-0.334-0.244-0.599-0.277c-0.158-0.018-0.61-0.026-1.359-0.026L103.164,58.768L103.164,58.768z M103.164,61.899
			v2.105h1.472c0.573,0,0.937-0.017,1.091-0.049c0.236-0.043,0.429-0.147,0.577-0.314c0.148-0.166,0.223-0.389,0.223-0.668
			c0-0.236-0.057-0.438-0.172-0.602c-0.114-0.165-0.28-0.285-0.497-0.36c-0.216-0.075-0.687-0.112-1.409-0.112H103.164z"/>
		<path d="M112.354,57.457h1.584v4.984c0,0.651-0.057,1.153-0.172,1.504c-0.153,0.458-0.433,0.826-0.838,1.104
			c-0.404,0.277-0.938,0.417-1.601,0.417c-0.776,0-1.375-0.218-1.794-0.653s-0.63-1.073-0.634-1.915l1.499-0.172
			c0.018,0.451,0.084,0.771,0.198,0.957c0.172,0.282,0.434,0.424,0.784,0.424c0.354,0,0.605-0.102,0.752-0.304
			c0.147-0.202,0.221-0.622,0.221-1.259L112.354,57.457L112.354,57.457z"/>
		<path d="M115.63,65.331v-7.874h5.838v1.332h-4.248v1.745h3.953v1.327h-3.953v2.144h4.398v1.326
			C121.618,65.331,115.63,65.331,115.63,65.331z"/>
		<path d="M124.74,65.331v-6.542h-2.337v-1.332h6.258v1.332h-2.331v6.542H124.74z"/>
		<path d="M129.166,61.442c0-0.802,0.12-1.476,0.359-2.02c0.18-0.401,0.424-0.761,0.733-1.08c0.31-0.318,0.649-0.555,1.018-0.709
			c0.491-0.207,1.057-0.311,1.697-0.311c1.16,0,2.089,0.359,2.785,1.079s1.045,1.721,1.045,3.003c0,1.271-0.346,2.266-1.037,2.983
			c-0.69,0.718-1.614,1.077-2.771,1.077c-1.171,0-2.102-0.357-2.793-1.072C129.511,63.68,129.166,62.695,129.166,61.442z
			 M130.803,61.389c0,0.892,0.206,1.567,0.618,2.027c0.411,0.46,0.935,0.69,1.568,0.69s1.153-0.229,1.56-0.685
			c0.407-0.457,0.61-1.142,0.61-2.055c0-0.902-0.198-1.575-0.594-2.02s-0.921-0.666-1.576-0.666s-1.184,0.225-1.585,0.674
			C131.004,59.805,130.803,60.482,130.803,61.389z"/>
	</g>
	<path id="XMLID_76_" fill="#FEFEFE" d="M89.046,29.529c-1.168,0-1.944,0.972-1.944,1.945v2.921H68.807v-2.921
		c0-0.973-0.977-1.945-1.954-1.945c-1.161,0-1.941,0.972-1.941,1.945v4.869c0,1.164,0.781,1.941,1.941,1.941h22.192
		c0.972,0,1.75-0.777,1.75-1.941v-4.869C90.796,30.501,90.018,29.529,89.046,29.529L89.046,29.529z M77.371,31.67
		c0.191,0.199,0.773,0.199,1.163,0l6.624-6.808c0.187-0.196,0.187-0.391,0.187-0.784c-0.187-0.194-0.38-0.388-0.577-0.388h-3.313
		V11.43c0-0.973-0.577-1.561-1.362-1.561h-4.285c-0.967,0-1.556,0.588-1.556,1.561v12.259h-3.11c-0.388,0-0.587,0.194-0.78,0.388
		c0,0.393,0,0.588,0.194,0.784L77.371,31.67z"/>
</g>
</svg>
