<?xml version="1.0" encoding="utf-8"?>
<!-- Generator: Adobe Illustrator 17.0.0, SVG Export Plug-In . SVG Version: 6.00 Build 0)  -->
<!DOCTYPE svg PUBLIC "-//W3C//DTD SVG 1.1//EN" "http://www.w3.org/Graphics/SVG/1.1/DTD/svg11.dtd" [
	<!ENTITY ns_extend "http://ns.adobe.com/Extensibility/1.0/">
	<!ENTITY ns_ai "http://ns.adobe.com/AdobeIllustrator/10.0/">
	<!ENTITY ns_graphs "http://ns.adobe.com/Graphs/1.0/">
	<!ENTITY ns_vars "http://ns.adobe.com/Variables/1.0/">
	<!ENTITY ns_imrep "http://ns.adobe.com/ImageReplacement/1.0/">
	<!ENTITY ns_sfw "http://ns.adobe.com/SaveForWeb/1.0/">
	<!ENTITY ns_custom "http://ns.adobe.com/GenericCustomNamespace/1.0/">
	<!ENTITY ns_adobe_xpath "http://ns.adobe.com/XPath/1.0/">
]>
<svg version="1.1" id="Capa_1" xmlns:x="&ns_extend;" xmlns:i="&ns_ai;" xmlns:graph="&ns_graphs;"
	 xmlns="http://www.w3.org/2000/svg" xmlns:xlink="http://www.w3.org/1999/xlink" x="0px" y="0px" width="154.914px"
	 height="74.254px" viewBox="0 0 154.914 74.254" enable-background="new 0 0 154.914 74.254" xml:space="preserve">
<metadata><?xpacket begin="﻿" id="W5M0MpCehiHzreSzNTczkc9d"?>
<x:xmpmeta xmlns:x="adobe:ns:meta/" x:xmptk="Adobe XMP Core 5.5-c014 79.151739, 2013/04/03-12:12:15        ">
   <rdf:RDF xmlns:rdf="http://www.w3.org/1999/02/22-rdf-syntax-ns#">
      <rdf:Description rdf:about=""
            xmlns:dc="http://purl.org/dc/elements/1.1/"
            xmlns:xmp="http://ns.adobe.com/xap/1.0/"
            xmlns:xmpGImg="http://ns.adobe.com/xap/1.0/g/img/"
            xmlns:xmpMM="http://ns.adobe.com/xap/1.0/mm/"
            xmlns:stRef="http://ns.adobe.com/xap/1.0/sType/ResourceRef#"
            xmlns:stEvt="http://ns.adobe.com/xap/1.0/sType/ResourceEvent#"
            xmlns:illustrator="http://ns.adobe.com/illustrator/1.0/"
            xmlns:xmpTPg="http://ns.adobe.com/xap/1.0/t/pg/"
            xmlns:stDim="http://ns.adobe.com/xap/1.0/sType/Dimensions#"
            xmlns:xmpG="http://ns.adobe.com/xap/1.0/g/"
            xmlns:pdf="http://ns.adobe.com/pdf/1.3/">
         <dc:format>image/svg+xml</dc:format>
         <dc:title>
            <rdf:Alt>
               <rdf:li xml:lang="x-default">Imprimir</rdf:li>
            </rdf:Alt>
         </dc:title>
         <xmp:MetadataDate>2017-04-11T01:59:07-05:00</xmp:MetadataDate>
         <xmp:ModifyDate>2017-04-11T01:59:07-05:00</xmp:ModifyDate>
         <xmp:CreateDate>2017-04-11T01:59:07-05:00</xmp:CreateDate>
         <xmp:CreatorTool>Adobe Illustrator CC (Windows)</xmp:CreatorTool>
         <xmp:Thumbnails>
            <rdf:Alt>
               <rdf:li rdf:parseType="Resource">
                  <xmpGImg:width>256</xmpGImg:width>
                  <xmpGImg:height>124</xmpGImg:height>
                  <xmpGImg:format>JPEG</xmpGImg:format>
                  <xmpGImg:image>/9j/4AAQSkZJRgABAgEASABIAAD/7QAsUGhvdG9zaG9wIDMuMAA4QklNA+0AAAAAABAASAAAAAEA&#xA;AQBIAAAAAQAB/+4ADkFkb2JlAGTAAAAAAf/bAIQABgQEBAUEBgUFBgkGBQYJCwgGBggLDAoKCwoK&#xA;DBAMDAwMDAwQDA4PEA8ODBMTFBQTExwbGxscHx8fHx8fHx8fHwEHBwcNDA0YEBAYGhURFRofHx8f&#xA;Hx8fHx8fHx8fHx8fHx8fHx8fHx8fHx8fHx8fHx8fHx8fHx8fHx8fHx8fHx8f/8AAEQgAfAEAAwER&#xA;AAIRAQMRAf/EAaIAAAAHAQEBAQEAAAAAAAAAAAQFAwIGAQAHCAkKCwEAAgIDAQEBAQEAAAAAAAAA&#xA;AQACAwQFBgcICQoLEAACAQMDAgQCBgcDBAIGAnMBAgMRBAAFIRIxQVEGE2EicYEUMpGhBxWxQiPB&#xA;UtHhMxZi8CRygvElQzRTkqKyY3PCNUQnk6OzNhdUZHTD0uIIJoMJChgZhJRFRqS0VtNVKBry4/PE&#xA;1OT0ZXWFlaW1xdXl9WZ2hpamtsbW5vY3R1dnd4eXp7fH1+f3OEhYaHiImKi4yNjo+Ck5SVlpeYmZ&#xA;qbnJ2en5KjpKWmp6ipqqusra6voRAAICAQIDBQUEBQYECAMDbQEAAhEDBCESMUEFURNhIgZxgZEy&#xA;obHwFMHR4SNCFVJicvEzJDRDghaSUyWiY7LCB3PSNeJEgxdUkwgJChgZJjZFGidkdFU38qOzwygp&#xA;0+PzhJSktMTU5PRldYWVpbXF1eX1RlZmdoaWprbG1ub2R1dnd4eXp7fH1+f3OEhYaHiImKi4yNjo&#xA;+DlJWWl5iZmpucnZ6fkqOkpaanqKmqq6ytrq+v/aAAwDAQACEQMRAD8A5ZnYPNuxV2KuxV2KuxV2&#xA;KuxV2KuxV2KuxV2KuxV2KuxV2KuxV2KuxV2KuxV2KuxV2KuxV2KuxV2KuxV2KuxV2KuxV2KuxV2K&#xA;uxV2KuxV2KuxV2KuxV2KuxV2KpxpPk3zZq/E6Zo95do3SWKCQx/S9OI+k5VPNCPMgM44pS5Asv03&#xA;/nH38zb1Q0ljDYqehuZ4wen8sZkYfSMxpdoYh1tvjosh6Iu4/wCcb/zIij5ItlO3++456N/w6oPx&#xA;yI7SxeaTocnkx+//ACd/Myxr63l+5en/ACz8Lj7vRaTLo6zEf4ms6bIOjHL/AEDXtOr+kNNurOnX&#xA;6xDJFTt+2o8MvjkjLkQWowkOYQGTYuxV2KuxV2KuxV2KuxV2KuxV2KuxV2KuxV2KuxV2KuxV2Kux&#xA;V2KuxV2KuxV7b5G/5x1W+0aLWPNmoSabBOglSzh4JIkbCoaWSQMqEj9njt332zVZ+0alwwFufi0V&#xA;i5Gnomi/kB+V9qiTG2l1QEApLc3DMp96Q+kh+7MKfaGU9acqOjxjzZnpPk3ynpHE6Zo9naOvSSKC&#xA;NZPpenI/Scxp5py5klvjijHkAnGVNjsVdiqF1DVdL06L1dQvILOL/flxIkS/e5AyUYGXIWgyA5lh&#xA;2rfnh+WWm1VtZS6kHSO0SSev+zVfT/4bMmGhyy6OPLV4x1fNv5q+aNA8z+b5tY0SCW3tZoo0kWdE&#xA;jZpIxwLBUZxQqFzeaTFLHDhk6rUZIzlYYhmS0uxV2KuxV2KuxV2KuxV2KuxV2KuxV2KuxV2KuxV2&#xA;KuxV2KuxV2KuxVEadJbR6hayXQ5WyTRtOtK1QMCwp8sjK6NJjzfSn/ORWjeZta8taXNoSSXumQyP&#xA;LfwW1XLh1X0JeC15qvxfKtc0fZ04RmeLYu11sZSiOHk+fdD83ebPLc5/ROpXNgyt8cCsfTLf5cTV&#xA;Rv8AZLm5yYYT+oAushklDkaeoeXP+cnfMNqFi1/TodRQAD6xAfq8vzYUeNvkAuYGTsuJ+k05kNfI&#xA;fULZLJ/zlJ5dEQMeiXjS0NUaSJVr2+Icj+GUDsqXeG3+UI9zGNZ/5yg8z3FV0nS7WxQ9HmZ7mQe4&#xA;p6S/epy+HZcB9RJapa+R5CmDav8Am5+Y+q8hda9cojdY7Yi2Wnh+4EdfpzLho8UeUQ40tTkPMsWJ&#xA;vb653Ml1dSmg+1JIx/EnMjYBq3LKNK/KX8yNUTnaaBdBCKhrgLbAj29cx1zHnq8Uecg2x02Q8gxa&#xA;6tri1uZrW5jMVxA7RTRMKMroeLKR4gjMgEEWGkitlLCrsVdirsVdirsVdirsVdirsVdirsVdirsV&#xA;dirsVdirsVdirsVdirsVVrK0mvLyCzgHKe5kSGJfF3YKo+84JGhagWafWOs+a9B/KTydpGmXb3Gp&#xA;3CxmG1j5Vkk9OhkYsxokalwFHYUAznYYpaiZI2d1LJHDAA7seX80PyR87hYfMlilrdMAPUvoaEHp&#xA;RbqEllHzZcu/K58X0n5fqavzGHJ9QQmqf845+TdagN95T1swxPUoOSXtsT2CurK4+lmycO0px2mP&#xA;0IlooS3if0sKf/nGv8xBd+islg0NaC59ZwlPEj0+f/C5lfynirq4/wCRyX0ZRpH/ADi2qqJNb16g&#xA;Aq8VnFQDx/eyn/jTMefav82Pzbo9n95TX/Bv/OO/lQV1O9t724i+0Lm5a6l2/mgttv8AknlfjanJ&#xA;yFfCvvZ+FghzKyX8/vyx0CNoPLWiPJQUH1eCKzhb6ft/8JhHZ+Wf1n9KDrMcfpH6GJaz/wA5Oeb7&#xA;nkulafaadGejPzuJR8mJjT70zIh2XAcyS0y18jyFPJtV1O91XUrnUr5xJeXkjTXEgVUDO5qx4oFU&#xA;VPgM2MIiIAHIOFKRJsoXJIdirsVdirsVdirsVdirsVdirsVdirsVdirsVdirsVdirsVdirsVdiqI&#xA;0+9lsb+2vYf761lSaOvTlGwYfiMjKNikxNG31R5s8m6N+bnlLSNXtp5dNuAjS2U0kRJAkoJIpEJQ&#xA;sOSCjA+4qDnP4c0tNMxO7uMmIZog8ni/mP8AID8xNH5SW9qmrW439Sybk9PeJwklf9UHNpj7QxS5&#xA;mve4E9Hkj5sJt7zzH5c1BhBNd6RqCbSKrSW0o9mHwt9+ZREZjoQ44MonuLLB+e35pC0+rfpo0pQS&#xA;mC3MlP8AX9Ov09cx/wAhhu6+9v8AzeSubFtY81+ZtZJOq6rdXoP7E0zug+SE8R9AzIhihHkAGmWS&#xA;UuZRmjfl9531nidN0S7njb7MxiaOI/8APSTin45Geoxx5yCY4Zy5As50b/nGrz3ecX1Ga00yM/aV&#xA;5DNKPksQZD/weYk+08Y5WXJjoZnnszC3/wCcbfJemWxm8xeYZqUP71TDZxA0/wCLfW6f62Yx7SyS&#xA;Ppj+luGhgPqLwHWbKCw1e9sre4S7t7aeSKG7iYMkqI5VZFKkghgK5uISuIJ2dbIUSEHkkOxV2Kux&#xA;V2KuxV2KuxV2KuxV2KuxV2KuxV2KuxV2KuxV2KuxV2KuxVG6Ha295rWn2ly3C3uLmGKZvBHkCsfu&#xA;OQmSIkjuZQFkB9Hf85AebvMnlXR9HsvLrNp1pdGSOW6gUAosKoI4UNPgqGJ2odtu+aTs/DHJImW5&#xA;dprMkoACOzzPy7/zkP8AmDpZRL2WHV7Zdit0gWSntLHwNfdg2Z+Ts7HLls4kNbMc93oNn+e/5Y+a&#xA;IFtPN2kfVa/8tMS3sC1/ldV9QH39MfPMOWgy4zcD+hyRq8c9pD9K8+Tv+cay/wCkvr9j6JHP6qNR&#xA;am+/916nqj/V/DB42q5UfknwtPzsfNr/AJWx+Rnlfby/pi3M8f2ZbOzVGqPGaf03Pz3x/KajJ9R+&#xA;ZX8xhh9I+xj+s/8AOUmrSVXRtEgth0Et3I85PvwjEIH/AARy6HZUf4i1S7QPQMF1j86/zL1TkJNa&#xA;ktYz0js1W3p8njAk/wCGzLhocUenzceWqyHqw+4udQ1Ccy3Es13cEEtJIzSvQbmpNTmSABy2aCSU&#xA;PkkOxV2KuxV2KuxV2KuxV2KuxV2KuxV2KuxV2KuxV2KuxV2KuxV2KuxV2KuBpuOuKvoDyl+fnlfU&#xA;9Di0Xz/Z+syqsct20IuYJgvR5Y/iZX8eKnffbpmnzdnzjLixl2WPWRIqYTOb8nvyd84wtP5V1JbS&#xA;cgtxspxMoJ7yW8pLr8gVysazPi2mL9/62Z02Kf0lgnmP/nG7zxp3KTSpINZgHQRsIJqDxjlPH7nO&#xA;ZePtLHLn6XGnoZjluwU+QfPAujaHy/qP1gHjwFrMd/mFpT3zL/MY6viHzcfwZ3VFlOj/APOP35l6&#xA;jQy2UWnRt0kvJlH/AAkXquPpXMefaGKPW/c3R0eQ9KZzpH/OLlui+rrmvMVG7xWkQQADqfVlLf8A&#xA;EMxZ9qn+GLkR7P7ymQ8r/wDOOXlTe/u7a+uI+vrTveSVHZobeq/emV+LqsnIEfYz8PBDn+tTuP8A&#xA;nIT8udDia38s6HJIB0EMUNjAadOgZv8AhMI7Oyz3nL9KDrccfpH6Hz7rN9BqGr3t/Bbi0hu55J47&#xA;VW5CISOWCBqLULWg2zcwjUQOdOskbJKDySHYq7FXYq7FXYq7FXYq7FXYq7FXYq7FXYq7FXYq7FXY&#xA;q7FXYq7FXYq7FXYqvhmmglWaF2ilQ8kkQlWUjuCNxgItQWd+XPzy/MbRCqfpH9JWy/7ovx69f+el&#xA;Vl/4fMTJocU+le5yYavJHrfvZx/0NRqH1QL/AIdi+t03m+st6df+Mfp8v+HzE/koX9W3ucj+UDXJ&#xA;ims/85C/mTqNVt7qDTIzsVtIVrT/AF5vVYfMEZkw7OxR5i2iWtyHyYNq3mXzFrDV1XU7q+3qBcTP&#xA;Io+SsSB9GZUMUY8gA48skpczaW5YxdirsVdirsVdirsVdirsVdirsVdirsVdiqI/R9//AMs0v/AN&#xA;/TI8Q700Xfo+/wD+WaX/AIBv6Y8Q71ou/R9//wAs0v8AwDf0x4h3rRd+j7//AJZpf+Ab+mPEO9aL&#xA;v0ff/wDLNL/wDf0x4h3rRd+j7/8A5Zpf+Ab+mPEO9aLv0ff/APLNL/wDf0x4h3rRd+j7/wD5Zpf+&#xA;Ab+mPEO9aLv0ff8A/LNL/wAA39MeId60Xfo+/wD+WaX/AIBv6Y8Q71ou/R9//wAs0v8AwDf0x4h3&#xA;rRd+j7//AJZpf+Ab+mPEO9aLv0ff/wDLNL/wDf0x4h3rRd+j7/8A5Zpf+Ab+mPEO9aLv0ff/APLN&#xA;L/wDf0x4h3rRd+j7/wD5Zpf+Ab+mPEO9aLv0ff8A/LNL/wAA39MeId60Xfo+/wD+WaX/AIBv6Y8Q&#xA;71ou/R9//wAs0v8AwDf0x4h3rRd+j7//AJZpf+Ab+mPEO9aLv0ff/wDLNL/wDf0x4h3rRd+j7/8A&#xA;5Zpf+Ab+mPEO9aLv0ff/APLNL/wDf0x4h3rRd+j7/wD5Zpf+Ab+mPEO9aLv0ff8A/LNL/wAA39Me&#xA;Id60Xfo+/wD+WaX/AIBv6Y8Q71ou/R9//wAs0v8AwDf0x4h3rRd+j7//AJZpf+Ab+mPEO9aLv0ff&#xA;/wDLNL/wDf0x4h3rRd+j7/8A5Zpf+Ab+mPEO9aLv0ff/APLNL/wDf0x4h3rRd+j7/wD5Zpf+Ab+m&#xA;PEO9aL70zkXo3Yq7FXYq7FXYq7FXYq7FXYq7FXYq7FXYq7FXYq7FXYq7FXYq7FXYq7FXYq7FXYq7&#xA;FXYq7FXYq7FXYq7FXYq7FXYq7FXYq7FVK6ura0tZru6kWG2t0aWeZzRURAWZmJ6AAVOKsSh/Ob8p&#xA;ppViTzfpPNzReV5Cor82YDFU91bzZ5Z0h7BNU1S2s31RxFpomlVfrDniAsVT8RPNenjiqU6p+a/5&#xA;aaVqE+nal5m06zvrZuFxbTXEaSIw7MpNQcVTa381+V7jRX12DWLKXRIwWl1NbiI2yAUrymDcFpXe&#xA;pxVG6fqOn6jZQ32n3MV5ZXC84Lq3dZYpF/mR0JVh8jiqDsPNHlzUNWvdHsdSt7nVdOp9fsopFaWG&#xA;poPUQbr9OKpPe/mz+WVjqraTeeaNMg1CNjHLBJcxKUcGhR2J4qwPZjXFWTyXdrFatdyTRpaInqtc&#xA;MwEYjA5cy5PHjTeuKsZ0v81/y01XU10vTfM+m3V+7cIreO5jLSMf2Y96SH/VriqK8w/mH5G8t3qW&#xA;Ov67ZaXeSRieO3upkidomZlDhWI2LIwr7YqiPLvnPyl5lWVvL+s2Wq+hT11tJ45mj5VC81QkrXia&#xA;V64qu1bzd5X0fUbLTNV1W1sdQ1JglhazypHJMxYIBGrEFqswHzxVV1/zL5f8u2Iv9d1CDTLIuIhc&#xA;XLrGnNgSq8m2qQpxVJtL/Nf8tNV1CDTtN8zadeX1y3C3tobiN5HY9lUGpOKoL8qfPeq+ddN1PVrq&#xA;CztbOG+ls7G3tZ1uZlSKhrcvGzRrIVdTwHTr3GKsh0jzd5X1jUL7TdK1W1vr/TWMeoWsEqvJCwYo&#xA;RIoNV+JSMVTfFXYq7FXYq7FXYq7FXYq7FXYq7FXYq7FXYq7FWP8A5h/8oB5m/wC2Vff9Qz4q+NNF&#xA;try4/JBkg/KhdRP1e6b/AB0rgyBVuJGab00i9T9wAU/vKfDvttirL/NM2my+TPyFGm37albRaisP&#xA;1plKNziuLdJI+Dbr6bgoPYDFVOYSn87/AMxfT/LuP8wD9aj/AHMjogtNj8XxxTV9Tp26Yqo+Rvqt&#xA;t+T35x2EqPperCQzXHldlkVbCIuQgRpN2r9g96IteoxV9D/kD/5Jryn/AMwK/wDEmxV4Hqmt6non&#xA;nT899S0yZre+itYkhnTZk9a4jiZlPYhXND2xV6J+V/5F/lXqf5MaW+oaZbXN3rGnrd3utSD/AEmO&#xA;aZObGOY0Mfok8aD4fh3rvirxC1816/qv5CeV/LF7eSwaRdeZ30q4uyx2so44JkjYncor3LEDcDgB&#xA;2pir0P8AO7yz+SnlVLTRrjyTrFpb6dFBcf4k0KOOMAMxjEU91NyVnLUqXBapFDiqX/mvqlnefnX5&#xA;L1P/AAxP5xtbrynb3CaC6iWeZZWu3VnASQM8deTUXqMVRn/OP9rZ+afznv8Azl5c0SDynoGl2TWV&#xA;3o8U6NI9xIOPxwAIyKSOVeAWqdzXFWDfnDrmmeevPnnXzAddgsJPKUUFn5XtnlSN7qS2uP3phqat&#xA;9mZ1471ZMVehfnx50i86f84zaB5jQr617fWn1xF6JcxxzRzrTtSRTT2pirKvywsIbrzfa/XPyVg8&#xA;niBXnh131IpDFKg+FVC28Rq1evLFWK/kh50i8l/kH568xuV9ay1y++po3R7mS3tY4Fp3rIwr7VxV&#xA;55+UOuaX5B89+SteXXYL8ea7eW08028cyyPay3M5MRm3qlOULty7q+KvuHFXYq7FXYq7FXYq7FXY&#xA;q7FXYq7FXYq7FXYq7FUv8w6T+mNA1PSPV9D9I2k9p6/Hnw9eNo+fGq8uPKtKjFXiVh/zjd+YVh5W&#xA;XypafmjcW/l1UliNhFpaIDHcMzTJzFzzo5katT3xVO7/AP5xx0ttF8jaRpmrvZ23ku8a+LSwCd7u&#xA;SSZJ5OREkQjq6GmzUB9sVUNR/ITzknnTzF5m8tfmBJ5fbzHKJLu3i01JiFQfCvqvcKdqncKMVX6L&#xA;/wA44QWHlfzdYXnmKfU/MXnCMRX+v3EFSoDc/hg9Uk1Y1asnh0piqhof5G/mzoWk2ukaT+bE1rp1&#xA;mnp21uuj27BEBrQFp2bv3OKsg0r8j9Nt/OHnXXNTvhqWn+dITb3WlGAxelG32h6wlYsfAhVpirDU&#xA;/wCcbPPVhpdx5X0T8yLuz8l3DODpj2weVIZWJkiEokTZqnlx4g1NV3NVWaX3/OP/AJFuvyvh/L0L&#xA;LHYWzfWLbUAVNyt3uTcE8eJZuRVhSnHYU2oqw2//AOccvzD12yh0PzR+Zt5qPlmEryskthHLKsZB&#xA;QSOZX5EEA1k50I6d8VZwn5O20H5l+XPOVrqbR23lzRl0SDS3h5tJGizKsjXHqLQ0n6en2677KpXq&#xA;X5FXcH5j3/njyh5i/wAOXWq2stvqVkLP6zFLLMpDTgrPb8Tz4SUp9ta13OKr/IX/ADjd+XXlzy3D&#xA;pmsabZeZNRV5JJ9Wu7RFeTmxKqEZpSqqtBTkfHvirGpP+cWZv8Bal5Ji81lNIutWj1bTw1iXa14p&#xA;JG8O9yPU5qyfF8O6k0+LZV73irwX/oVyZvJyeUpfNZbSZNdk17UFWxKNOHiihW3qLn4AqxueW9Sw&#xA;PEcd1WSeff8AnG78uvMflubTNH02y8t6izxyQataWiM8fBgWUorRFlZainIePbFXpOiWd9ZaPY2d&#xA;/d/X722gjhub7h6XryIgVpfT5Px5kVpyOKo3FXYq7FXYq7FXYq7FXYq7FXYq7FXYq7FXYq7FXYq7&#xA;FXYq7FXYq7FXYq7FXYq7FXYq7FXYq7FXYq7FXYq7FXYq7FXYq7FXYq7FXYq7FXYq7FXYq7FXYq7F&#xA;XYq7FXYq7FXYq7FXYq7FXYq7FXYq7FXYq7FXYq7FXYq7FXYq7FXYq7FXYq7FX//Z</xmpGImg:image>
               </rdf:li>
            </rdf:Alt>
         </xmp:Thumbnails>
         <xmpMM:InstanceID>xmp.iid:9abfa668-2609-c146-aeb5-945099e7e6e3</xmpMM:InstanceID>
         <xmpMM:DocumentID>xmp.did:9abfa668-2609-c146-aeb5-945099e7e6e3</xmpMM:DocumentID>
         <xmpMM:OriginalDocumentID>uuid:5D20892493BFDB11914A8590D31508C8</xmpMM:OriginalDocumentID>
         <xmpMM:RenditionClass>proof:pdf</xmpMM:RenditionClass>
         <xmpMM:DerivedFrom rdf:parseType="Resource">
            <stRef:instanceID>uuid:ff470bc6-f939-440e-8f31-27b0eb70075c</stRef:instanceID>
            <stRef:documentID>xmp.did:4de20fe2-e96f-dd46-b8bd-1606dc72d06f</stRef:documentID>
            <stRef:originalDocumentID>uuid:5D20892493BFDB11914A8590D31508C8</stRef:originalDocumentID>
            <stRef:renditionClass>proof:pdf</stRef:renditionClass>
         </xmpMM:DerivedFrom>
         <xmpMM:History>
            <rdf:Seq>
               <rdf:li rdf:parseType="Resource">
                  <stEvt:action>saved</stEvt:action>
                  <stEvt:instanceID>xmp.iid:9abfa668-2609-c146-aeb5-945099e7e6e3</stEvt:instanceID>
                  <stEvt:when>2017-04-11T01:59:07-05:00</stEvt:when>
                  <stEvt:softwareAgent>Adobe Illustrator CC (Windows)</stEvt:softwareAgent>
                  <stEvt:changed>/</stEvt:changed>
               </rdf:li>
            </rdf:Seq>
         </xmpMM:History>
         <illustrator:StartupProfile>Print</illustrator:StartupProfile>
         <xmpTPg:HasVisibleOverprint>False</xmpTPg:HasVisibleOverprint>
         <xmpTPg:HasVisibleTransparency>True</xmpTPg:HasVisibleTransparency>
         <xmpTPg:NPages>1</xmpTPg:NPages>
         <xmpTPg:MaxPageSize rdf:parseType="Resource">
            <stDim:w>54.650217</stDim:w>
            <stDim:h>26.195160</stDim:h>
            <stDim:unit>Millimeters</stDim:unit>
         </xmpTPg:MaxPageSize>
         <xmpTPg:PlateNames>
            <rdf:Seq>
               <rdf:li>Cyan</rdf:li>
               <rdf:li>Magenta</rdf:li>
               <rdf:li>Yellow</rdf:li>
               <rdf:li>Black</rdf:li>
            </rdf:Seq>
         </xmpTPg:PlateNames>
         <xmpTPg:SwatchGroups>
            <rdf:Seq>
               <rdf:li rdf:parseType="Resource">
                  <xmpG:groupName>Grupo de muestras por defecto</xmpG:groupName>
                  <xmpG:groupType>0</xmpG:groupType>
               </rdf:li>
            </rdf:Seq>
         </xmpTPg:SwatchGroups>
         <pdf:Producer>Adobe PDF library 10.01</pdf:Producer>
      </rdf:Description>
   </rdf:RDF>
</x:xmpmeta>
                                                                                                    
                                                                                                    
                                                                                                    
                                                                                                    
                                                                                                    
                                                                                                    
                                                                                                    
                                                                                                    
                                                                                                    
                                                                                                    
                                                                                                    
                                                                                                    
                                                                                                    
                                                                                                    
                                                                                                    
                                                                                                    
                                                                                                    
                                                                                                    
                                                                                                    
                                                                                                    
                           
<?xpacket end="w"?>
	</metadata>
<g>
	<rect id="XMLID_10_" opacity="0.5" fill="#FFFFFF" enable-background="new    " width="154.914" height="74.254"/>
	<rect id="XMLID_7_" y="0" fill="#154A8C" width="154.914" height="48.154"/>
	<rect id="XMLID_6_" x="0" y="57.455" fill="none" width="154.494" height="13.102"/>
	<g enable-background="new    ">
		<path d="M38.333,57.457h3.147c0.623,0,1.088,0.026,1.394,0.078c0.307,0.052,0.58,0.16,0.822,0.325
			c0.241,0.164,0.443,0.384,0.604,0.657c0.161,0.274,0.242,0.581,0.242,0.921c0,0.369-0.1,0.708-0.298,1.016
			c-0.199,0.308-0.468,0.539-0.809,0.693c0.48,0.139,0.849,0.377,1.106,0.714s0.387,0.732,0.387,1.187
			c0,0.358-0.083,0.707-0.25,1.045c-0.166,0.339-0.394,0.609-0.682,0.812c-0.289,0.202-0.644,0.326-1.066,0.373
			c-0.265,0.028-0.904,0.047-1.917,0.054h-2.68V57.457z M39.923,58.768v1.821h1.042c0.62,0,1.004-0.01,1.155-0.027
			c0.272-0.032,0.486-0.126,0.642-0.282c0.155-0.155,0.233-0.36,0.233-0.614c0-0.244-0.067-0.441-0.201-0.594
			c-0.135-0.152-0.334-0.244-0.599-0.277c-0.158-0.018-0.61-0.026-1.359-0.026L39.923,58.768L39.923,58.768z M39.923,61.899v2.105
			h1.472c0.573,0,0.937-0.017,1.09-0.049c0.236-0.043,0.429-0.147,0.578-0.314c0.148-0.166,0.223-0.389,0.223-0.668
			c0-0.236-0.057-0.438-0.172-0.602c-0.115-0.165-0.28-0.285-0.497-0.36c-0.216-0.075-0.687-0.112-1.41-0.112H39.923z"/>
		<path d="M46.223,65.331v-7.874h1.59v7.874H46.223z"/>
		<path d="M49.333,57.457h3.147c0.623,0,1.088,0.026,1.394,0.078c0.307,0.052,0.58,0.16,0.822,0.325
			c0.241,0.164,0.443,0.384,0.604,0.657c0.161,0.274,0.242,0.581,0.242,0.921c0,0.369-0.1,0.708-0.298,1.016
			c-0.199,0.308-0.468,0.539-0.809,0.693c0.48,0.139,0.849,0.377,1.106,0.714s0.387,0.732,0.387,1.187
			c0,0.358-0.083,0.707-0.25,1.045c-0.166,0.339-0.394,0.609-0.682,0.812c-0.289,0.202-0.644,0.326-1.066,0.373
			c-0.265,0.028-0.904,0.047-1.917,0.054h-2.68V57.457z M50.923,58.768v1.821h1.042c0.62,0,1.004-0.01,1.155-0.027
			c0.272-0.032,0.486-0.126,0.642-0.282c0.155-0.155,0.233-0.36,0.233-0.614c0-0.244-0.067-0.441-0.201-0.594
			c-0.135-0.152-0.334-0.244-0.599-0.277c-0.158-0.018-0.61-0.026-1.359-0.026L50.923,58.768L50.923,58.768z M50.923,61.899v2.105
			h1.472c0.573,0,0.937-0.017,1.09-0.049c0.236-0.043,0.429-0.147,0.578-0.314c0.148-0.166,0.223-0.389,0.223-0.668
			c0-0.236-0.057-0.438-0.172-0.602c-0.115-0.165-0.28-0.285-0.497-0.36c-0.216-0.075-0.687-0.112-1.41-0.112H50.923z"/>
		<path d="M57.314,65.331v-7.81h1.59v6.483h3.953v1.326h-5.543V65.331z"/>
		<path d="M63.942,65.331v-7.874h1.59v7.874H63.942z"/>
		<path d="M66.725,61.442c0-0.802,0.12-1.476,0.36-2.02c0.179-0.401,0.423-0.761,0.733-1.08c0.31-0.318,0.649-0.555,1.018-0.709
			c0.491-0.207,1.056-0.311,1.697-0.311c1.16,0,2.088,0.359,2.785,1.079c0.696,0.72,1.044,1.721,1.044,3.003
			c0,1.271-0.346,2.266-1.037,2.983c-0.691,0.717-1.615,1.077-2.771,1.077c-1.171,0-2.102-0.357-2.793-1.072
			C67.07,63.68,66.725,62.695,66.725,61.442z M68.363,61.389c0,0.892,0.206,1.567,0.618,2.027s0.935,0.69,1.568,0.69
			s1.154-0.229,1.56-0.685c0.407-0.457,0.61-1.142,0.61-2.055c0-0.902-0.198-1.575-0.593-2.02c-0.396-0.444-0.921-0.666-1.577-0.666
			s-1.184,0.225-1.584,0.674S68.363,60.482,68.363,61.389z"/>
		<path d="M79.266,62.437V61.11h3.428v3.137c-0.334,0.322-0.816,0.606-1.448,0.852s-1.272,0.368-1.92,0.368
			c-0.823,0-1.542-0.173-2.154-0.519s-1.072-0.84-1.38-1.482s-0.462-1.342-0.462-2.098c0-0.82,0.172-1.549,0.516-2.187
			c0.344-0.637,0.847-1.126,1.509-1.466c0.505-0.262,1.133-0.392,1.885-0.392c0.978,0,1.741,0.204,2.291,0.614
			s0.903,0.977,1.061,1.7l-1.579,0.295c-0.111-0.387-0.319-0.691-0.626-0.915c-0.306-0.224-0.688-0.336-1.146-0.336
			c-0.694,0-1.247,0.22-1.657,0.661c-0.41,0.439-0.615,1.094-0.615,1.96c0,0.935,0.208,1.636,0.623,2.103
			c0.416,0.468,0.959,0.701,1.632,0.701c0.334,0,0.668-0.065,1.002-0.196c0.335-0.131,0.623-0.289,0.862-0.476v-0.998h-1.822V62.437
			z"/>
		<path d="M84.164,65.331v-7.874h3.347c0.841,0,1.452,0.07,1.835,0.212c0.381,0.142,0.686,0.394,0.915,0.755
			s0.344,0.775,0.344,1.241c0,0.59-0.174,1.078-0.521,1.463c-0.348,0.385-0.867,0.628-1.559,0.729c0.344,0.2,0.628,0.42,0.852,0.66
			c0.225,0.24,0.525,0.666,0.905,1.278l0.962,1.536h-1.902l-1.148-1.713c-0.408-0.613-0.688-0.999-0.838-1.158
			s-0.311-0.269-0.479-0.327c-0.168-0.06-0.436-0.089-0.801-0.089h-0.322v3.287C85.754,65.331,84.164,65.331,84.164,65.331z
			 M85.754,60.787h1.177c0.763,0,1.239-0.032,1.429-0.097s0.338-0.176,0.445-0.333s0.162-0.354,0.162-0.591
			c0-0.265-0.071-0.479-0.213-0.642c-0.141-0.163-0.341-0.267-0.599-0.31c-0.129-0.018-0.516-0.026-1.16-0.026h-1.241
			C85.754,58.788,85.754,60.787,85.754,60.787z"/>
		<path d="M99.203,65.331h-1.729l-0.688-1.789h-3.148l-0.649,1.789h-1.687l3.066-7.874h1.682L99.203,65.331z M96.276,62.216
			l-1.085-2.922l-1.063,2.922H96.276z"/>
		<path d="M100.058,65.331v-7.874h5.397v1.332h-3.808v1.864h3.287v1.332h-3.287v3.346H100.058z"/>
		<path d="M106.535,57.006l0.741-1.606h1.692l-1.478,1.606H106.535z M106.718,65.331v-7.874h1.59v7.874H106.718z"/>
		<path d="M116.923,65.331h-1.729l-0.688-1.789h-3.147l-0.649,1.789h-1.688l3.067-7.874h1.681L116.923,65.331z M113.996,62.216
			l-1.086-2.922l-1.063,2.922H113.996z"/>
	</g>
	<g id="XMLID_1_">
		<path id="XMLID_2_" fill="#FFFFFF" d="M63.582,14.26l7.044,2.37c0.578,0.253,3.331,1.259,8.215,0.049
			c6.168-1.528,19.52-4.179,19.656-4.208l-0.501-2.51c-0.005,0-0.039,0.01-0.087,0.02L85.184,8.184
			c-1.401-0.194-3.657-0.141-5.049,0.132L63.12,11.613c-2.213-0.112-4.315,1.245-5.019,3.454c-0.408,1.269-0.296,2.626,0.316,3.808
			c0.316,0.609,0.74,1.129,1.25,1.557c-0.768,0.599-1.367,1.421-1.688,2.413c-0.403,1.269-0.291,2.626,0.321,3.813
			c0.331,0.643,0.793,1.183,1.342,1.615c-0.753,0.594-1.347,1.416-1.664,2.393c-0.403,1.275-0.291,2.626,0.321,3.814
			c0.613,1.187,1.649,2.062,2.919,2.471l12.268,3.92c0.671,0.214,1.774,0.263,2.466,0.102l21.533-4.932c0,0-0.132-0.554-0.286-1.245
			c-0.157-0.685-0.847-1.118-1.533-0.963l-19.602,4.49c-0.691,0.159-1.796,0.111-2.467-0.103l-11.6-3.706
			c-0.618-0.199-1.123-0.628-1.426-1.207c-0.296-0.579-0.355-1.24-0.156-1.858c0.413-1.284,1.786-1.985,3.069-1.581
			c0.005-0.014,7.096,2.253,10.002,3.177c0.671,0.214,1.774,0.263,2.466,0.107l21.533-4.932c0,0-0.132-0.559-0.286-1.25
			c-0.157-0.685-0.842-1.118-1.533-0.958l-19.602,4.489c-0.691,0.156-1.796,0.107-2.467-0.107l-11.6-3.706
			c-0.618-0.199-1.123-0.628-1.426-1.207c-0.296-0.579-0.355-1.24-0.156-1.858c0.413-1.284,1.786-1.985,3.069-1.581
			c0-0.005,7.19,2.291,10.117,3.225c0.676,0.219,1.781,0.263,2.467,0.107l21.533-4.932c0,0-0.127-0.559-0.288-1.25
			c-0.156-0.686-0.842-1.118-1.532-0.958l-19.602,4.484c-0.691,0.161-1.791,0.112-2.467-0.102L62.119,18.91
			c-0.623-0.199-1.129-0.628-1.426-1.207c-0.301-0.579-0.355-1.24-0.156-1.858C60.946,14.566,62.318,13.851,63.582,14.26
			L63.582,14.26z"/>
	</g>
</g>
</svg>
