<?xml version="1.0" encoding="utf-8"?>
<!-- Generator: Adobe Illustrator 17.0.0, SVG Export Plug-In . SVG Version: 6.00 Build 0)  -->
<!DOCTYPE svg PUBLIC "-//W3C//DTD SVG 1.1//EN" "http://www.w3.org/Graphics/SVG/1.1/DTD/svg11.dtd" [
	<!ENTITY ns_extend "http://ns.adobe.com/Extensibility/1.0/">
	<!ENTITY ns_ai "http://ns.adobe.com/AdobeIllustrator/10.0/">
	<!ENTITY ns_graphs "http://ns.adobe.com/Graphs/1.0/">
	<!ENTITY ns_vars "http://ns.adobe.com/Variables/1.0/">
	<!ENTITY ns_imrep "http://ns.adobe.com/ImageReplacement/1.0/">
	<!ENTITY ns_sfw "http://ns.adobe.com/SaveForWeb/1.0/">
	<!ENTITY ns_custom "http://ns.adobe.com/GenericCustomNamespace/1.0/">
	<!ENTITY ns_adobe_xpath "http://ns.adobe.com/XPath/1.0/">
]>
<svg version="1.1" id="Capa_1" xmlns:x="&ns_extend;" xmlns:i="&ns_ai;" xmlns:graph="&ns_graphs;"
	 xmlns="http://www.w3.org/2000/svg" xmlns:xlink="http://www.w3.org/1999/xlink" x="0px" y="0px" width="155.706px"
	 height="74.254px" viewBox="0 0 155.706 74.254" enable-background="new 0 0 155.706 74.254" xml:space="preserve">
<metadata><?xpacket begin="﻿" id="W5M0MpCehiHzreSzNTczkc9d"?>
<x:xmpmeta xmlns:x="adobe:ns:meta/" x:xmptk="Adobe XMP Core 5.5-c014 79.151739, 2013/04/03-12:12:15        ">
   <rdf:RDF xmlns:rdf="http://www.w3.org/1999/02/22-rdf-syntax-ns#">
      <rdf:Description rdf:about=""
            xmlns:dc="http://purl.org/dc/elements/1.1/"
            xmlns:xmp="http://ns.adobe.com/xap/1.0/"
            xmlns:xmpGImg="http://ns.adobe.com/xap/1.0/g/img/"
            xmlns:xmpMM="http://ns.adobe.com/xap/1.0/mm/"
            xmlns:stRef="http://ns.adobe.com/xap/1.0/sType/ResourceRef#"
            xmlns:stEvt="http://ns.adobe.com/xap/1.0/sType/ResourceEvent#"
            xmlns:illustrator="http://ns.adobe.com/illustrator/1.0/"
            xmlns:xmpTPg="http://ns.adobe.com/xap/1.0/t/pg/"
            xmlns:stDim="http://ns.adobe.com/xap/1.0/sType/Dimensions#"
            xmlns:xmpG="http://ns.adobe.com/xap/1.0/g/"
            xmlns:pdf="http://ns.adobe.com/pdf/1.3/">
         <dc:format>image/svg+xml</dc:format>
         <dc:title>
            <rdf:Alt>
               <rdf:li xml:lang="x-default">Imprimir</rdf:li>
            </rdf:Alt>
         </dc:title>
         <xmp:MetadataDate>2017-04-11T01:59:07-05:00</xmp:MetadataDate>
         <xmp:ModifyDate>2017-04-11T01:59:07-05:00</xmp:ModifyDate>
         <xmp:CreateDate>2017-04-11T01:59:07-05:00</xmp:CreateDate>
         <xmp:CreatorTool>Adobe Illustrator CC (Windows)</xmp:CreatorTool>
         <xmp:Thumbnails>
            <rdf:Alt>
               <rdf:li rdf:parseType="Resource">
                  <xmpGImg:width>256</xmpGImg:width>
                  <xmpGImg:height>124</xmpGImg:height>
                  <xmpGImg:format>JPEG</xmpGImg:format>
                  <xmpGImg:image>/9j/4AAQSkZJRgABAgEASABIAAD/7QAsUGhvdG9zaG9wIDMuMAA4QklNA+0AAAAAABAASAAAAAEA&#xA;AQBIAAAAAQAB/+4ADkFkb2JlAGTAAAAAAf/bAIQABgQEBAUEBgUFBgkGBQYJCwgGBggLDAoKCwoK&#xA;DBAMDAwMDAwQDA4PEA8ODBMTFBQTExwbGxscHx8fHx8fHx8fHwEHBwcNDA0YEBAYGhURFRofHx8f&#xA;Hx8fHx8fHx8fHx8fHx8fHx8fHx8fHx8fHx8fHx8fHx8fHx8fHx8fHx8fHx8f/8AAEQgAfAEAAwER&#xA;AAIRAQMRAf/EAaIAAAAHAQEBAQEAAAAAAAAAAAQFAwIGAQAHCAkKCwEAAgIDAQEBAQEAAAAAAAAA&#xA;AQACAwQFBgcICQoLEAACAQMDAgQCBgcDBAIGAnMBAgMRBAAFIRIxQVEGE2EicYEUMpGhBxWxQiPB&#xA;UtHhMxZi8CRygvElQzRTkqKyY3PCNUQnk6OzNhdUZHTD0uIIJoMJChgZhJRFRqS0VtNVKBry4/PE&#xA;1OT0ZXWFlaW1xdXl9WZ2hpamtsbW5vY3R1dnd4eXp7fH1+f3OEhYaHiImKi4yNjo+Ck5SVlpeYmZ&#xA;qbnJ2en5KjpKWmp6ipqqusra6voRAAICAQIDBQUEBQYECAMDbQEAAhEDBCESMUEFURNhIgZxgZEy&#xA;obHwFMHR4SNCFVJicvEzJDRDghaSUyWiY7LCB3PSNeJEgxdUkwgJChgZJjZFGidkdFU38qOzwygp&#xA;0+PzhJSktMTU5PRldYWVpbXF1eX1RlZmdoaWprbG1ub2R1dnd4eXp7fH1+f3OEhYaHiImKi4yNjo&#xA;+DlJWWl5iZmpucnZ6fkqOkpaanqKmqq6ytrq+v/aAAwDAQACEQMRAD8A80+bP+Up1n/mOuf+TzYq&#xA;lWKuxV2KuxV2KuxV2KuxV2KuxV2KuxV2KuxV2KuxV2KuxV2KuxV2KuxV2KuxV2KuxV2KuxV2KuxV&#xA;NfKf/KU6N/zHW3/J5cVd5s/5SnWf+Y65/wCTzYqlWKuxV2KuxV2KuxV2KuxV2KuxV2KuxV2KuxV2&#xA;KuxV2KuxV2KuxV2KuxV2KuxV2KuxV2KuxV2KuxVNfKf/AClOjf8AMdbf8nlxV3mz/lKdZ/5jrn/k&#xA;82KpVirsVdirsVdirsVdirsVdirsVdirsVdirsVffH/OK1lZwfkjoNxDBHHPdtePdSqoDSsl7PGp&#xA;dhuxCKFFe2Ku/wCcqbO0n/JDXppoUkmtXspLaRlBaN2vYY2ZCfsko7Lt2OKvgfFXYq7FXYq7FXYq&#xA;7FXYq7FXYq7FXYq7FXYqmvlP/lKdG/5jrb/k8uKu82f8pTrP/Mdc/wDJ5sVSrFXYq7FXYq7FXYq7&#xA;FXYq7FXYq7FXYq7FXYq+/v8AnFz/AMkV5Z/6Pv8AuoXGKu/5yj/8kV5m/wCjH/uoW+KvgHFXYq7F&#xA;XYq7FXYq7FXYq7FXYq7FXYq7FXYqmvlP/lKdG/5jrb/k8uKu82f8pTrP/Mdc/wDJ5sVSrFXYq7FX&#xA;Yq7FXYq7FXYq7FXYq7FXYq7FU78ueSPOHmUTHy/o15qq29BO1pC8qoW6BmUEAnwxV94/847aJq+i&#xA;fk55f0vV7OWw1G3+uevaXCGOROd9O68lO4qjAj2xV3/OROiavrf5OeYNL0izlv8AUbj6n6FpboZJ&#xA;H4X0DtxUbmiKSfbFXwf5j8j+cfLKwN5g0W80pLksLd7uF4lcrTkFLAAkVxVI8VdirsVdirsVdirs&#xA;VdirsVdirsVdirsVTXyn/wApTo3/ADHW3/J5cVd5s/5SnWf+Y65/5PNiqVYq7FXYq7FXYq7FXYq7&#xA;FXYq7FXYq7FXYq9E/Jf849Z/LTzCbqFTd6JelE1bTqgeoi14yRk/ZkTkePY9D4hV98+VvNOheadC&#xA;tdc0O6W7067XlHIvUH9pHXqrqdmU9MVVPMfmPRfLei3Wta1dJZ6bZpznnft2CqBuzMdlUbk7DFXw&#xA;F+dH5x6z+ZfmEXUym00SyLppOnVB9NGpykkI+1I/Ecuw6DxKrzvFXYq7FXYq7FXYq7FXYq7FXYq7&#xA;FXYq7FU18p/8pTo3/Mdbf8nlxV3mz/lKdZ/5jrn/AJPNiqVYq7FXYq7FXYq7FXYq7FXYq7FXYq7F&#xA;X2b/AM4l+R/KV1+V0up32k2l7e6heXEVzNdQxzMYowqLEOYb4Opp4nFXy3+aWkafo35j+ZdK06L0&#xA;LCz1K5itoRuEjWQ8UFeyjYYqnf5OfnR5h/LTWWmtQb3RLsj9I6S78UkoKCSNqNwkX+am42Paiqr+&#xA;c/53+YPzM1SP1kOn6DaGtjpKvzUPSjSytRfUkPQGlFGw7kqsV/L7SrLV/PvlrSr5PUstQ1WytbqM&#xA;GhaKa4SNxX3Vjir6t/5yz8j+UrP8q4dQsNJtbG7028gjtZbWGOEiKQMjR/AF+DoaeIGKvjPFXYq7&#xA;FXYq7FXYq7FXYq7FXYq7FXYqmvlP/lKdG/5jrb/k8uKu82f8pTrP/Mdc/wDJ5sVSrFXYq7FXYq7F&#xA;XYq7FXYq7FXYq7FXYq+wf+cUvzN8iaX+W0miazrllpOoWd7M5iv7iO25xzcWR42lKK29QQDUU36j&#xA;FXq0/nP8iZ5nmn13yvLNIS0kj3WnszMepJL1JxVZ/iz8g/8Aq8+Vf+knTv8AmrFXf4s/IP8A6vPl&#xA;X/pJ07/mrFV0PnL8iIZUmh1zytHLGweORLrT1ZWU1DKQ1QQcVeV/85Wfmb5D1T8tk0XRtcstW1C8&#xA;vYXWKwuIrnhHDyZnkMTOFHQCpqa7d8VfHuKuxV2KuxV2KuxV2KuxV2KuxV2KuxVNfKf/AClOjf8A&#xA;Mdbf8nlxV3mz/lKdZ/5jrn/k82KpVirsVdirsVdirsVdirsVdirsVdirsVdirsVdirsVdirsVdir&#xA;sVdirsVdirsVdirsVdirsVdirsVTXyn/AMpTo3/Mdbf8nlxVPvNHkHz3L5m1eSPy5qjxve3DI62V&#xA;wVKmViCCE3BxVLP+Ve+fv+pa1X/pBuf+aMVd/wAq98/f9S1qv/SDc/8ANGKu/wCVe+fv+pa1X/pB&#xA;uf8AmjFXf8q98/f9S1qv/SDc/wDNGKu/5V75+/6lrVf+kG5/5oxV3/KvfP3/AFLWq/8ASDc/80Yq&#xA;7/lXvn7/AKlrVf8ApBuf+aMVd/yr3z9/1LWq/wDSDc/80Yq7/lXvn7/qWtV/6Qbn/mjFXf8AKvfP&#xA;3/Utar/0g3P/ADRirv8AlXvn7/qWtV/6Qbn/AJoxV3/KvfP3/Utar/0g3P8AzRirv+Ve+fv+pa1X&#xA;/pBuf+aMVd/yr3z9/wBS1qv/AEg3P/NGKu/5V75+/wCpa1X/AKQbn/mjFXf8q98/f9S1qv8A0g3P&#xA;/NGKu/5V75+/6lrVf+kG5/5oxV3/ACr3z9/1LWq/9INz/wA0Yq7/AJV75+/6lrVf+kG5/wCaMVd/&#xA;yr3z9/1LWq/9INz/AM0Yq7/lXvn7/qWtV/6Qbn/mjFXf8q98/f8AUtar/wBINz/zRirv+Ve+fv8A&#xA;qWtV/wCkG5/5oxV3/KvfP3/Utar/ANINz/zRirv+Ve+fv+pa1X/pBuf+aMVd/wAq98/f9S1qv/SD&#xA;c/8ANGKu/wCVe+fv+pa1X/pBuf8AmjFXf8q98/f9S1qv/SDc/wDNGKu/5V75+/6lrVf+kG5/5oxV&#xA;3/KvfP3/AFLWq/8ASDc/80YqmflfyD57i8zaRJJ5c1RI0vbdndrK4ChRKpJJKbAYq/SHFXYq7FXY&#xA;q7FXYq7FXYq7FXYq7FXYq7FXYq7FXYq7FXYq7FXYq7FXYq7FXYq7FXYq7FXYq7FXYq7FXYq7FXYq&#xA;7FVC/vrWwsbi+u5BFaWkTz3EpBIWONSzsQKnZRXFWB2X/OQn5MXtyltD5qtBLIQq+qJYUqTTd5UR&#xA;B9JxVP8Azd+Y/kjyfb2dx5j1WPT4NQ5CzkZZJFk4AFuJiV+zjFUp8v8A54/lV5h1i20bRvMEV5qd&#xA;4xW2tlinUuVUuQC8ar9lSdzirtd/PL8ptB1aTSNU8y2sGoQv6c0KiSX03HVZHiR0QjuGO2KsouvM&#xA;vl600I6/c6lbRaIIln/STSp9XMb04sJK8SGqONOvbFWO+Vvzm/K/zVqY0vQvMNtd6g1fTtSJIXko&#xA;Kn0xMsfqUAr8NcVTfzf558qeTtPi1DzLqMem2c8oghlkDtykKl+IWNXb7KHtiqL1LzJoem6BJ5hv&#xA;btItGihW5e9ozIIWAKv8IZiCGHQYqwy0/wCch/yXurhIIvNVqJJCFUyrNElSabvJGiD6TirMdd80&#xA;+XNA0c6zrOo29jpY40u5XARuYqoQ/tlh0C1JxVIPKv5y/lj5r1IaZoHmC3vNQYMY7UiSGR+NeXpr&#xA;MkfOgBPw1236YqnHm7zr5W8n6amp+ZNQj02xllW3jmkDtylZWYIAis1eKMenbFUTdeZNDtfLzeY5&#xA;rtF0RLYXrXw5Mn1cp6gkHEEkcTXYYqwu3/5yJ/JW4mWGPzVaq7mgMiTxL9LyRqo+k4q9EililiSW&#xA;J1kikUNHIpDKysKggjYgjFWJ+bvzb/LjyfeJY+Ytet7G9cBha0eWUK32WdIVkZAexYDFUdZfmB5L&#xA;v/K9x5pstXt7nQLRHkur6El1iEY5OHVQXVlG5UrX2xVjVr/zkR+S1zOkEfmu1V5DRTKs0SVP8zyR&#xA;oi/MnFXocckcsayRsHjcBkdSCrKRUEEdQcVYmn5t/l2+i6traa1GdL0KZbbVrr05qQSvIIlRhw5G&#xA;rsB8IOKpLF/zkZ+SssqRR+aIGkkYKi+jc7kmgH91iqvqf5//AJP6XqV3pl/5khgvrGaS2u4DFcEp&#xA;LC5SRCVjI+FlI2OKproH5r/l3r+l6jqula5bzabpIVtSu35wxwhwSpdplj68TiqB0H88/wApte1W&#xA;PSdL8y2s2oTP6cMLiSH1HNKLG0yRq5NaAKd+2Ks6xV2KuxV2KuxV2KuxVj/5h/8AKAeZv+2Vff8A&#xA;UM+KvCfy+8i+SdX/AOcUPr+raTZvex6fq1yNTaKNbhJbe5ujE/r05/DwA69NumKvNdb1DWNR/Kb8&#xA;m2kiXUryPVL22s7e5PwTJDdxxwwuW24UAj8OOKvoHyHp/nmLzNbTa9+W/l7y7psSyvJq9i9q08LC&#xA;NuPHh8Q5HYnwxV4u3kzzV5d0vzRNo+iaF+ZnkbUZ7ma71q1kimv4hxDMFuI2MqSItGogcK2464qi&#xA;fN+qeVdf8n/ktoeiQzWPkfVdYli1PTbiZpGidLuGOSOSdjuF+szFCf2SDQdAq9r80flf+R1hrvle&#xA;71CKy8t6lZT/AO4P6tJHpxuJYijqrFeBlKMF41Nan/KxV5B/zkP5k8rebPzetvKGv6wuleXfL1hc&#xA;me6YSMDqVzByjAESuTwJh6js474qi/J/nn/Ef/OJnmfSriX1NR8tWjWEoJqTb8la1b/V4VjH+pir&#xA;zq/167b8rfL/AJUv/I2l6VHrscUWl+drsxqX4TAtMZUjrGf2W5Psp32xV6b558rW6fmb+T35eeZL&#xA;g3vl2w01ElV6+jcXcUbIFNePJXeCNAp6Kad8Vd+ZOqeSdA/M3RZb38tLnTW07UY7bR9dsZV062up&#xA;OcbI5WKFfUEfYculR0xVCf8AORnmTyt5n/NrS/JWv6uuleW9DtJ5tSu6SNS+uYC0KhYwxYp+6+XJ&#xA;sVVvy188fp7/AJxc846FcTCXUPLNhd2hINS1rJG72z9thR4x7Jirzq/8xXkX5TaH5b1DyDpmnQa5&#xA;ClvpnnW6MY5FZQTO0iR8kYD+Z+m9CMVfZP5feXZvLfkfQtBnuBdzabYwW8twpLI7IgDFCQDwrsn+&#xA;TTFXhv8AzjT5e0HzTqnnnzJ5nsrfVfMb6q8Ey3saTmGI1aipIG48mqvyWmKsTvrKz8vefvzu8s+X&#xA;1Fv5a/w3NdGzi/uUuRHbNRQPhXg1zMoXsNu2KsdhsPP11+QiiH8vNLk8vpbPNJ5vravfiGKdnkmV&#xA;BIs4ZOJWtPsjwxV9R/lJ5m8my+Q/KOl6XrEU0kmlxJYW1zJHFezJaqYZH+r83b4XhcHjUChFdsVf&#xA;NFh/5In85f8AtuWn/dQixV6V5B0r8xJdL8uep+Vvlt9KeCy56qz2huGtyiVuCp+IyFPjp1riqp/z&#xA;lt5c8vWnk7Rr+10u0t7678x2wuruKCJJZRJBcu4kkVQzcmFWqdziqH/5yf0fRtNtPJuhWVnb6R5e&#xA;1vWY1136nFHapIkRRU9VowteKyyMK+Fe2Kpj/wA5N/l95B0v8nbq/sNIs9M1DSZLQaTPaxJBIC9w&#xA;kbx8kCswMbOxBPUcuoxV69+X9/f6j5C8t6hqLM2oXmlWVxeMwIYzS26PISD35E4qn+KuxV2KuxV2&#xA;KuxVA67pUer6JqGkySGKPULaa1eVQCyrPGYywB7jlirxSz/5xRt4tLj0O489a/L5bU/Hokc3pWxU&#xA;uZGAiq8Qq5LH4Ou/XFWU+fvyD0DzRovlrSLC/uPL9r5V5fow2QBdSQgVubHkHUx8uVa1364qs8pf&#xA;kt5g0HzDZ6tdfmJ5h1m3tWZpNMvrmSS3mDIycZEaRgQOVenUYqxu+/5xWtorjUoPLXnLVvL3l/Vn&#xA;Z73QrcloGD7Mg4vECvH4RzVjx2JOKsv1T8gvIOoflvZeQmimi07TmM1heo4+tR3DFmebmRxYuXbk&#xA;pXjToBRaKpB5V/5xpsdP8zabr/mXzPqXmqbRSraPbXzH0oCh5J9p5SQjAMApUVG+Ksl8kfkt5c8t&#xA;6lr+q3zjX9T8w3Zu7q6v4ImKElm4RijcRykP4eGKpRe/848aFJqvm67sNTn06x842n1W+0yGKP0I&#xA;nBRhNF0+LkjGnT429sVTXUfyT8t6n+VNp+Xd/NJNaWESLZ6jxUTxTRklJlG6g/EVI7qSO+KoPW/y&#xA;D0PX/I2jeWta1S7ub/y8KaP5ij4xXsKgjitRyVgFVV/2IPXfFUj0/wD5xmhuNdsdW85ecdY81/oy&#xA;RJbG1u5GWNWQgjkWeZqVUV4la98VZV5N/Jby7oGu+Ytdv5Brup+Yrn61cTX0MTCL4nf04lowVayf&#xA;cB4Yqll5/wA4/aC+v+atU07UZtMtfNunvp1/pcEUf1dPURV9aMbUYMnL/ZN44qmt7+S/lzUPyptv&#xA;y51CaS4sbOFY7W/oqzxyxktHMvUBhyIPiKjvirIvIvlefyr5VsPL8upS6qunR+hBeXCqsvoqf3aN&#xA;x2/drRR7AYq8+80f8462l75qvfNHlPzNqXk/VdUJbU/0ex9KZm3duKtEwLN8R+Iiu4AOKo3y5/zj&#xA;75X0Lyd5i0GG9urrUfNMLw6vr1yRJcvzDD4QdgAXLU3JPUnairGIP+cVpI9JXQ2/MLzB/h+npyaQ&#xA;kxS2MRbkyCLk0QBNT9giu9MVTrzR/wA42eXb+Hy+/lrV77ytqflu2NjY6lZuWlMBZ3YOQ0bcy8sj&#xA;clYfabanRVFWv/OPXlu1/KjU/wAvoL+4C6xNHdalrDhXuJZ4545uXE/CB+5VQPDfc1OKpNb/APOO&#xA;PmK2t4ra2/NPzRBbwIscMMd1KiIiDiqqqyABQBQAYqzv81PyzsfzD0Sx0m8vZbGOxv4tRSWFVdme&#xA;GOSMIQ3Y+tiqN/MT8u/Lfn7y3JoOvRu1uziWCeIhZoJlBCyRsQwrRiNwQQcVeZW3/OLkF3cWEXmz&#xA;zlq/mXQ9MYNZaLcuVhULsqsS8nw8fh+EKabAgYq9xjjjijWONQkaAKiKAFVQKAADoBiq7FXYq7FX&#xA;Yq7FXYq7FXYq7FXYq7FXYq7FXYq7FXYq7FXYq7FXYq7FXYq7FXYq7FXYq7FXYq7FXYq7FXYq7FXY&#xA;q7FXYq7FXYq7FXYq7FXYq7FXYq7FXYq7FXYq7FXYq7FXYq7FXYq7FXYq7FXYq7FXYq7FXYq7FXYq&#xA;7FXYq7FX/9k=</xmpGImg:image>
               </rdf:li>
            </rdf:Alt>
         </xmp:Thumbnails>
         <xmpMM:InstanceID>xmp.iid:9abfa668-2609-c146-aeb5-945099e7e6e3</xmpMM:InstanceID>
         <xmpMM:DocumentID>xmp.did:9abfa668-2609-c146-aeb5-945099e7e6e3</xmpMM:DocumentID>
         <xmpMM:OriginalDocumentID>uuid:5D20892493BFDB11914A8590D31508C8</xmpMM:OriginalDocumentID>
         <xmpMM:RenditionClass>proof:pdf</xmpMM:RenditionClass>
         <xmpMM:DerivedFrom rdf:parseType="Resource">
            <stRef:instanceID>uuid:ff470bc6-f939-440e-8f31-27b0eb70075c</stRef:instanceID>
            <stRef:documentID>xmp.did:4de20fe2-e96f-dd46-b8bd-1606dc72d06f</stRef:documentID>
            <stRef:originalDocumentID>uuid:5D20892493BFDB11914A8590D31508C8</stRef:originalDocumentID>
            <stRef:renditionClass>proof:pdf</stRef:renditionClass>
         </xmpMM:DerivedFrom>
         <xmpMM:History>
            <rdf:Seq>
               <rdf:li rdf:parseType="Resource">
                  <stEvt:action>saved</stEvt:action>
                  <stEvt:instanceID>xmp.iid:9abfa668-2609-c146-aeb5-945099e7e6e3</stEvt:instanceID>
                  <stEvt:when>2017-04-11T01:59:07-05:00</stEvt:when>
                  <stEvt:softwareAgent>Adobe Illustrator CC (Windows)</stEvt:softwareAgent>
                  <stEvt:changed>/</stEvt:changed>
               </rdf:li>
            </rdf:Seq>
         </xmpMM:History>
         <illustrator:StartupProfile>Print</illustrator:StartupProfile>
         <xmpTPg:HasVisibleOverprint>False</xmpTPg:HasVisibleOverprint>
         <xmpTPg:HasVisibleTransparency>True</xmpTPg:HasVisibleTransparency>
         <xmpTPg:NPages>1</xmpTPg:NPages>
         <xmpTPg:MaxPageSize rdf:parseType="Resource">
            <stDim:w>155.705994</stDim:w>
            <stDim:h>74.254028</stDim:h>
            <stDim:unit>Pixels</stDim:unit>
         </xmpTPg:MaxPageSize>
         <xmpTPg:PlateNames>
            <rdf:Seq>
               <rdf:li>Cyan</rdf:li>
               <rdf:li>Magenta</rdf:li>
               <rdf:li>Yellow</rdf:li>
               <rdf:li>Black</rdf:li>
            </rdf:Seq>
         </xmpTPg:PlateNames>
         <xmpTPg:SwatchGroups>
            <rdf:Seq>
               <rdf:li rdf:parseType="Resource">
                  <xmpG:groupName>Grupo de muestras por defecto</xmpG:groupName>
                  <xmpG:groupType>0</xmpG:groupType>
               </rdf:li>
            </rdf:Seq>
         </xmpTPg:SwatchGroups>
         <pdf:Producer>Adobe PDF library 10.01</pdf:Producer>
      </rdf:Description>
   </rdf:RDF>
</x:xmpmeta>
                                                                                                    
                                                                                                    
                                                                                                    
                                                                                                    
                                                                                                    
                                                                                                    
                                                                                                    
                                                                                                    
                                                                                                    
                                                                                                    
                                                                                                    
                                                                                                    
                                                                                                    
                                                                                                    
                                                                                                    
                                                                                                    
                                                                                                    
                                                                                                    
                                                                                                    
                                                                                                    
                           
<?xpacket end="w"?>
	</metadata>
<g>
	
		<rect id="XMLID_282_" x="0.397" y="0" opacity="0.5" fill="#FFFFFF" enable-background="new    " width="154.914" height="74.254"/>
	<rect id="XMLID_265_" x="0.397" y="0" width="154.914" height="48.154"/>
	<rect id="XMLID_275_" x="0" y="57.455" fill="none" width="155.706" height="13.102"/>
	<g enable-background="new    ">
		<path d="M19.058,57.457h2.906c0.655,0,1.155,0.05,1.499,0.15c0.462,0.136,0.857,0.378,1.187,0.726
			c0.33,0.347,0.58,0.772,0.752,1.275s0.258,1.123,0.258,1.861c0,0.647-0.081,1.206-0.242,1.676
			c-0.197,0.572-0.478,1.036-0.843,1.391c-0.276,0.269-0.648,0.479-1.117,0.629c-0.351,0.11-0.82,0.166-1.407,0.166h-2.992V57.457z
			 M20.648,58.789v5.216h1.187c0.444,0,0.765-0.025,0.961-0.076c0.258-0.064,0.472-0.173,0.642-0.327
			c0.17-0.154,0.309-0.407,0.417-0.76s0.161-0.834,0.161-1.442s-0.054-1.076-0.161-1.402c-0.107-0.325-0.258-0.58-0.451-0.762
			c-0.193-0.184-0.438-0.307-0.736-0.371c-0.222-0.05-0.657-0.075-1.305-0.075H20.648z"/>
		<path d="M27.007,65.331v-7.874h5.838v1.332h-4.249v1.745h3.953v1.327h-3.953v2.144h4.399v1.326H27.007z"/>
		<path d="M33.941,62.769l1.547-0.15c0.093,0.52,0.282,0.901,0.566,1.145c0.285,0.243,0.669,0.365,1.152,0.365
			c0.512,0,0.898-0.108,1.157-0.325c0.26-0.217,0.39-0.47,0.39-0.76c0-0.187-0.055-0.345-0.164-0.476
			c-0.109-0.131-0.3-0.244-0.572-0.341c-0.186-0.064-0.61-0.179-1.273-0.344c-0.852-0.211-1.45-0.471-1.794-0.778
			c-0.483-0.434-0.725-0.962-0.725-1.585c0-0.401,0.114-0.776,0.341-1.125c0.227-0.35,0.555-0.615,0.982-0.798
			c0.428-0.183,0.945-0.273,1.55-0.273c0.988,0,1.732,0.216,2.231,0.649c0.5,0.434,0.762,1.012,0.787,1.735l-1.59,0.069
			c-0.068-0.404-0.214-0.695-0.438-0.873c-0.224-0.177-0.56-0.266-1.007-0.266c-0.462,0-0.824,0.095-1.085,0.284
			c-0.168,0.122-0.252,0.285-0.252,0.489c0,0.187,0.079,0.346,0.236,0.478c0.201,0.169,0.688,0.344,1.461,0.527
			c0.773,0.182,1.346,0.371,1.716,0.566c0.371,0.195,0.661,0.462,0.87,0.8c0.21,0.339,0.314,0.757,0.314,1.255
			c0,0.451-0.125,0.873-0.376,1.268c-0.25,0.394-0.605,0.687-1.063,0.878s-1.029,0.287-1.713,0.287c-0.996,0-1.76-0.23-2.293-0.69
			S34.045,63.649,33.941,62.769z"/>
		<path d="M46.719,62.437l1.542,0.488c-0.236,0.859-0.629,1.498-1.179,1.915c-0.55,0.417-1.247,0.626-2.092,0.626
			c-1.045,0-1.905-0.357-2.578-1.072c-0.673-0.714-1.01-1.69-1.01-2.93c0-1.311,0.338-2.328,1.015-3.054
			c0.677-0.725,1.566-1.087,2.669-1.087c0.963,0,1.746,0.284,2.347,0.854c0.358,0.337,0.626,0.82,0.806,1.45l-1.574,0.376
			c-0.093-0.408-0.288-0.73-0.583-0.967c-0.296-0.236-0.655-0.354-1.077-0.354c-0.583,0-1.057,0.21-1.421,0.628
			c-0.363,0.42-0.545,1.098-0.545,2.036c0,0.995,0.179,1.704,0.537,2.127s0.824,0.634,1.396,0.634c0.422,0,0.786-0.135,1.09-0.402
			C46.368,63.435,46.587,63.013,46.719,62.437z"/>
		<path d="M56.726,65.331h-1.729l-0.688-1.789h-3.147l-0.65,1.789h-1.687l3.067-7.874h1.681L56.726,65.331z M53.798,62.216
			l-1.085-2.922l-1.063,2.922H53.798z"/>
		<path d="M57.574,65.331v-7.874h3.346c0.841,0,1.453,0.07,1.834,0.212c0.381,0.142,0.687,0.394,0.916,0.755
			s0.344,0.775,0.344,1.241c0,0.59-0.174,1.078-0.521,1.463s-0.867,0.628-1.558,0.729c0.344,0.2,0.627,0.42,0.852,0.66
			c0.224,0.24,0.525,0.666,0.905,1.278l0.961,1.536h-1.901l-1.149-1.713c-0.408-0.613-0.688-0.999-0.838-1.158
			s-0.31-0.269-0.478-0.327c-0.168-0.06-0.435-0.089-0.8-0.089h-0.322v3.287H57.574z M59.164,60.787h1.176
			c0.763,0,1.239-0.032,1.429-0.097s0.338-0.176,0.446-0.333s0.161-0.354,0.161-0.591c0-0.265-0.071-0.479-0.212-0.642
			c-0.142-0.163-0.341-0.267-0.599-0.31c-0.129-0.018-0.516-0.026-1.16-0.026h-1.241V60.787z"/>
		<path d="M69.176,62.437v-1.327h3.427v3.137c-0.333,0.322-0.815,0.606-1.448,0.852c-0.632,0.245-1.272,0.368-1.92,0.368
			c-0.824,0-1.542-0.173-2.154-0.519s-1.072-0.84-1.38-1.482s-0.462-1.342-0.462-2.098c0-0.82,0.172-1.549,0.516-2.187
			c0.344-0.637,0.847-1.126,1.509-1.466c0.505-0.262,1.133-0.392,1.885-0.392c0.978,0,1.741,0.204,2.291,0.614
			c0.549,0.41,0.903,0.977,1.061,1.7l-1.579,0.295c-0.111-0.387-0.319-0.691-0.626-0.915c-0.306-0.224-0.688-0.336-1.146-0.336
			c-0.695,0-1.247,0.22-1.657,0.661c-0.41,0.439-0.615,1.094-0.615,1.96c0,0.935,0.208,1.636,0.623,2.103
			c0.416,0.468,0.959,0.701,1.633,0.701c0.333,0,0.667-0.065,1.001-0.196c0.335-0.131,0.623-0.289,0.862-0.476v-0.998H69.176z"/>
		<path d="M81.169,65.331H79.44l-0.688-1.789h-3.147l-0.65,1.789h-1.687l3.067-7.874h1.681L81.169,65.331z M78.242,62.216
			l-1.085-2.922l-1.063,2.922H78.242z"/>
		<path d="M82.018,65.331v-7.874h3.346c0.842,0,1.453,0.07,1.835,0.212c0.381,0.142,0.687,0.394,0.915,0.755
			c0.229,0.361,0.344,0.775,0.344,1.241c0,0.59-0.174,1.078-0.521,1.463c-0.348,0.385-0.867,0.628-1.558,0.729
			c0.344,0.2,0.627,0.42,0.852,0.66c0.224,0.24,0.525,0.666,0.904,1.278l0.962,1.536h-1.901l-1.149-1.713
			c-0.408-0.613-0.688-0.999-0.838-1.158s-0.31-0.269-0.479-0.327c-0.168-0.06-0.435-0.089-0.8-0.089h-0.322v3.287H82.018z
			 M83.608,60.787h1.176c0.763,0,1.239-0.032,1.429-0.097c0.19-0.064,0.339-0.176,0.446-0.333s0.161-0.354,0.161-0.591
			c0-0.265-0.071-0.479-0.212-0.642c-0.142-0.163-0.342-0.267-0.6-0.31c-0.129-0.018-0.516-0.026-1.16-0.026h-1.24V60.787z"/>
		<path d="M92.69,61.442c0-0.802,0.12-1.476,0.36-2.02c0.179-0.401,0.423-0.761,0.733-1.08c0.31-0.318,0.648-0.555,1.018-0.709
			c0.49-0.207,1.056-0.311,1.697-0.311c1.16,0,2.088,0.359,2.785,1.079c0.696,0.72,1.044,1.721,1.044,3.003
			c0,1.271-0.346,2.266-1.036,2.983c-0.691,0.718-1.615,1.077-2.771,1.077c-1.171,0-2.103-0.357-2.793-1.072
			C93.036,63.68,92.69,62.695,92.69,61.442z M94.329,61.389c0,0.892,0.206,1.567,0.617,2.027c0.412,0.46,0.935,0.69,1.568,0.69
			s1.154-0.229,1.561-0.685c0.406-0.457,0.609-1.142,0.609-2.055c0-0.902-0.197-1.575-0.593-2.02
			c-0.396-0.444-0.922-0.666-1.577-0.666s-1.184,0.225-1.584,0.674C94.529,59.805,94.329,60.482,94.329,61.389z"/>
		<path d="M101.574,57.457h3.147c0.623,0,1.088,0.026,1.394,0.078c0.307,0.052,0.58,0.16,0.822,0.325
			c0.241,0.164,0.443,0.384,0.604,0.657c0.161,0.274,0.241,0.581,0.241,0.921c0,0.369-0.1,0.708-0.298,1.016
			c-0.199,0.308-0.468,0.539-0.809,0.693c0.48,0.139,0.849,0.377,1.106,0.714s0.387,0.732,0.387,1.187
			c0,0.358-0.083,0.707-0.25,1.045c-0.166,0.339-0.394,0.609-0.682,0.812s-0.644,0.326-1.066,0.373
			c-0.265,0.028-0.904,0.047-1.917,0.054h-2.681V57.457z M103.164,58.768v1.821h1.042c0.62,0,1.005-0.01,1.155-0.027
			c0.271-0.032,0.485-0.126,0.642-0.282c0.155-0.155,0.233-0.36,0.233-0.614c0-0.244-0.067-0.441-0.201-0.594
			c-0.135-0.152-0.334-0.244-0.599-0.277c-0.158-0.018-0.61-0.026-1.359-0.026H103.164z M103.164,61.899v2.105h1.472
			c0.573,0,0.937-0.017,1.091-0.049c0.236-0.043,0.429-0.147,0.577-0.314c0.148-0.166,0.223-0.389,0.223-0.668
			c0-0.236-0.057-0.438-0.172-0.602c-0.114-0.165-0.28-0.285-0.497-0.36c-0.216-0.075-0.687-0.112-1.409-0.112H103.164z"/>
		<path d="M112.354,57.457h1.584v4.984c0,0.651-0.057,1.153-0.172,1.504c-0.153,0.458-0.433,0.826-0.838,1.104
			c-0.404,0.277-0.938,0.417-1.601,0.417c-0.776,0-1.375-0.218-1.794-0.653c-0.419-0.435-0.63-1.073-0.634-1.915l1.499-0.172
			c0.018,0.451,0.084,0.771,0.198,0.957c0.172,0.282,0.434,0.424,0.784,0.424c0.354,0,0.605-0.102,0.752-0.304
			c0.147-0.202,0.221-0.622,0.221-1.259V57.457z"/>
		<path d="M115.63,65.331v-7.874h5.838v1.332h-4.248v1.745h3.953v1.327h-3.953v2.144h4.398v1.326H115.63z"/>
		<path d="M124.74,65.331v-6.542h-2.337v-1.332h6.258v1.332h-2.331v6.542H124.74z"/>
		<path d="M129.166,61.442c0-0.802,0.12-1.476,0.359-2.02c0.18-0.401,0.424-0.761,0.733-1.08c0.31-0.318,0.649-0.555,1.018-0.709
			c0.491-0.207,1.057-0.311,1.697-0.311c1.16,0,2.089,0.359,2.785,1.079s1.045,1.721,1.045,3.003c0,1.271-0.346,2.266-1.037,2.983
			c-0.69,0.718-1.614,1.077-2.771,1.077c-1.171,0-2.102-0.357-2.793-1.072C129.511,63.68,129.166,62.695,129.166,61.442z
			 M130.803,61.389c0,0.892,0.206,1.567,0.618,2.027c0.411,0.46,0.935,0.69,1.568,0.69s1.153-0.229,1.56-0.685
			c0.407-0.457,0.61-1.142,0.61-2.055c0-0.902-0.198-1.575-0.594-2.02s-0.921-0.666-1.576-0.666s-1.184,0.225-1.585,0.674
			C131.004,59.805,130.803,60.482,130.803,61.389z"/>
	</g>
	<path id="XMLID_292_" fill="#FEFEFE" d="M89.046,29.529c-1.168,0-1.944,0.972-1.944,1.945v2.921H68.807v-2.921
		c0-0.973-0.977-1.945-1.954-1.945c-1.161,0-1.941,0.972-1.941,1.945v4.869c0,1.164,0.781,1.941,1.941,1.941h22.192
		c0.972,0,1.75-0.777,1.75-1.941v-4.869C90.796,30.501,90.018,29.529,89.046,29.529L89.046,29.529z M77.371,31.67
		c0.191,0.199,0.773,0.199,1.163,0l6.624-6.808c0.187-0.196,0.187-0.391,0.187-0.784c-0.187-0.194-0.38-0.388-0.577-0.388h-3.313
		V11.43c0-0.973-0.577-1.561-1.362-1.561h-4.285c-0.967,0-1.556,0.588-1.556,1.561v12.259h-3.11c-0.388,0-0.587,0.194-0.78,0.388
		c0,0.393,0,0.588,0.194,0.784L77.371,31.67z"/>
</g>
</svg>
