<?xml version="1.0" encoding="utf-8"?>
<!-- Generator: Adobe Illustrator 17.0.0, SVG Export Plug-In . SVG Version: 6.00 Build 0)  -->
<!DOCTYPE svg PUBLIC "-//W3C//DTD SVG 1.1//EN" "http://www.w3.org/Graphics/SVG/1.1/DTD/svg11.dtd" [
	<!ENTITY ns_extend "http://ns.adobe.com/Extensibility/1.0/">
	<!ENTITY ns_ai "http://ns.adobe.com/AdobeIllustrator/10.0/">
	<!ENTITY ns_graphs "http://ns.adobe.com/Graphs/1.0/">
	<!ENTITY ns_vars "http://ns.adobe.com/Variables/1.0/">
	<!ENTITY ns_imrep "http://ns.adobe.com/ImageReplacement/1.0/">
	<!ENTITY ns_sfw "http://ns.adobe.com/SaveForWeb/1.0/">
	<!ENTITY ns_custom "http://ns.adobe.com/GenericCustomNamespace/1.0/">
	<!ENTITY ns_adobe_xpath "http://ns.adobe.com/XPath/1.0/">
]>
<svg version="1.1" id="Capa_1" xmlns:x="&ns_extend;" xmlns:i="&ns_ai;" xmlns:graph="&ns_graphs;"
	 xmlns="http://www.w3.org/2000/svg" xmlns:xlink="http://www.w3.org/1999/xlink" x="0px" y="0px" width="154.914px"
	 height="74.254px" viewBox="0 0 154.914 74.254" enable-background="new 0 0 154.914 74.254" xml:space="preserve">
<metadata><?xpacket begin="﻿" id="W5M0MpCehiHzreSzNTczkc9d"?>
<x:xmpmeta xmlns:x="adobe:ns:meta/" x:xmptk="Adobe XMP Core 5.5-c014 79.151739, 2013/04/03-12:12:15        ">
   <rdf:RDF xmlns:rdf="http://www.w3.org/1999/02/22-rdf-syntax-ns#">
      <rdf:Description rdf:about=""
            xmlns:dc="http://purl.org/dc/elements/1.1/"
            xmlns:xmp="http://ns.adobe.com/xap/1.0/"
            xmlns:xmpGImg="http://ns.adobe.com/xap/1.0/g/img/"
            xmlns:xmpMM="http://ns.adobe.com/xap/1.0/mm/"
            xmlns:stRef="http://ns.adobe.com/xap/1.0/sType/ResourceRef#"
            xmlns:stEvt="http://ns.adobe.com/xap/1.0/sType/ResourceEvent#"
            xmlns:illustrator="http://ns.adobe.com/illustrator/1.0/"
            xmlns:xmpTPg="http://ns.adobe.com/xap/1.0/t/pg/"
            xmlns:stDim="http://ns.adobe.com/xap/1.0/sType/Dimensions#"
            xmlns:xmpG="http://ns.adobe.com/xap/1.0/g/"
            xmlns:pdf="http://ns.adobe.com/pdf/1.3/">
         <dc:format>image/svg+xml</dc:format>
         <dc:title>
            <rdf:Alt>
               <rdf:li xml:lang="x-default">Imprimir</rdf:li>
            </rdf:Alt>
         </dc:title>
         <xmp:MetadataDate>2017-04-11T01:59:07-05:00</xmp:MetadataDate>
         <xmp:ModifyDate>2017-04-11T01:59:07-05:00</xmp:ModifyDate>
         <xmp:CreateDate>2017-04-11T01:59:07-05:00</xmp:CreateDate>
         <xmp:CreatorTool>Adobe Illustrator CC (Windows)</xmp:CreatorTool>
         <xmp:Thumbnails>
            <rdf:Alt>
               <rdf:li rdf:parseType="Resource">
                  <xmpGImg:width>256</xmpGImg:width>
                  <xmpGImg:height>124</xmpGImg:height>
                  <xmpGImg:format>JPEG</xmpGImg:format>
                  <xmpGImg:image>/9j/4AAQSkZJRgABAgEASABIAAD/7QAsUGhvdG9zaG9wIDMuMAA4QklNA+0AAAAAABAASAAAAAEA&#xA;AQBIAAAAAQAB/+4ADkFkb2JlAGTAAAAAAf/bAIQABgQEBAUEBgUFBgkGBQYJCwgGBggLDAoKCwoK&#xA;DBAMDAwMDAwQDA4PEA8ODBMTFBQTExwbGxscHx8fHx8fHx8fHwEHBwcNDA0YEBAYGhURFRofHx8f&#xA;Hx8fHx8fHx8fHx8fHx8fHx8fHx8fHx8fHx8fHx8fHx8fHx8fHx8fHx8fHx8f/8AAEQgAfAEAAwER&#xA;AAIRAQMRAf/EAaIAAAAHAQEBAQEAAAAAAAAAAAQFAwIGAQAHCAkKCwEAAgIDAQEBAQEAAAAAAAAA&#xA;AQACAwQFBgcICQoLEAACAQMDAgQCBgcDBAIGAnMBAgMRBAAFIRIxQVEGE2EicYEUMpGhBxWxQiPB&#xA;UtHhMxZi8CRygvElQzRTkqKyY3PCNUQnk6OzNhdUZHTD0uIIJoMJChgZhJRFRqS0VtNVKBry4/PE&#xA;1OT0ZXWFlaW1xdXl9WZ2hpamtsbW5vY3R1dnd4eXp7fH1+f3OEhYaHiImKi4yNjo+Ck5SVlpeYmZ&#xA;qbnJ2en5KjpKWmp6ipqqusra6voRAAICAQIDBQUEBQYECAMDbQEAAhEDBCESMUEFURNhIgZxgZEy&#xA;obHwFMHR4SNCFVJicvEzJDRDghaSUyWiY7LCB3PSNeJEgxdUkwgJChgZJjZFGidkdFU38qOzwygp&#xA;0+PzhJSktMTU5PRldYWVpbXF1eX1RlZmdoaWprbG1ub2R1dnd4eXp7fH1+f3OEhYaHiImKi4yNjo&#xA;+DlJWWl5iZmpucnZ6fkqOkpaanqKmqq6ytrq+v/aAAwDAQACEQMRAD8A8qYq7FXYq7FXYq7FXYq7&#xA;FXYq7FXYq7FXYq7FXYq7FXYq7FXYq7FXYq7FXYq7FXYq7FXYq7FXYq7FXYq7FXYq7FXYq7FXYq7F&#xA;XYq7FXYq7FXYq7FXYq7FXYq+n/y6/I/8lX/KPSPOvni8uLU6hyM9y1wYoUYzPFGiqi+Cd674qjP8&#xA;Af8AOG3/AFMf/T7L/wA0Yqg/zF/I/wDJVPyj1fzr5HvLi6On8TBcrcGWF2EyRSIyuvg/am+KvmDF&#xA;XYq7FXYq7FXYq7FXYq7FXYq7FXYq7FXYq7FXYq7FXYq7FXYq7FXYq7FXYq7FXYq7FXYq7FX1B5s/&#xA;9Yt8v/8AGeL/AKjJsVfL+KvqDyn/AOsW+YP+M8v/AFGQ4q+X8VdirsVdirsVdirsVdirsVdirsVd&#xA;irsVdirsVdirsVdirsVdirsVdirsVdirsVdirsVdirsVfYPkux/L7zt/zjh5f8o6x5qs9HkjJknB&#xA;uLdZ43iupWCtHK6kVDV3xVLv+hQvy2/RP6Y/xxJ+iP8Aq41tfq32/T/vuXD7fw9eu2Kpj50sfy+8&#xA;k/8AOOHmDyjo/mqz1iSQiSAC4t2nkeW6iYqscTsTQLXbFXx9irsVdirsVdirsVdirsVdirsVdirs&#xA;VdirsVdirsVdirsVdirsVdirsVdirsVdirsVRui6XNq2s2GlQMqTahcRWsTvXiGmcRqWp2BbFX0k&#xA;P+cHNVpv5ugr3/0J/wDqtirf/Qjmq/8AU3Qf9IT/APVbFXf9COar/wBTdB/0hP8A9VsVetf8qOuv&#xA;+VBf8qr/AEvH9Y/6uvonh/x0fr391zr0+D7XviryX/oRzVf+pug/6Qn/AOq2Ku/6Ec1X/qboP+kJ&#xA;/wDqtirR/wCcHNVpt5ugr2/0J/8Aqtir5t1rS5tJ1m/0qdlebT7iW1ldK8S0LmNitexK4qgsVdir&#xA;sVdirsVdirsVdirsVdirsVdirsVdirsVdirsVdirsVdirsVdiqZeWtAvvMPmDTtCsOAvdTuIrW3M&#xA;h4oHlYKCx3oorU7Yq+i/K/8Azh1550jzLpOqz61pkkOn3tvdSxobjkywyrIwWsQFSF2xV6B/zkD/&#xA;AM4/eZfzK8y6dqulajZWcNnZfVZI7r1eRb1XkqPTRxSj4q+XPzZ/KLX/AMtNVstP1e6trw38BuIJ&#xA;rQuVorFGVhIqEEHFWZ+Rf+cUvO/m7yrp/mO21PT7O21JDLBBO0xkCBioLcI2X4uNevTFX0F/ypLX&#xA;/wDoXP8A5Vd9ftP0v/y2/vPq3/HT+vfyc/sfD9nrir568/f84redPJnlO/8AMt5qunXVppyo88MB&#xA;mEhV5FjqvONV2LjvirD/AMpvyi1/8y9VvdP0i6trM2EAuJ5rsuFozBFVRGrkknFX1H/zj9/zj95l&#xA;/LXzLqOq6rqNleQ3ll9VjjtfV5BvVSSp9REFKJirz/zR/wA4deedX8y6tqsGtaZHDqF7cXUUbm45&#xA;Ks0rSKGpERUBt8VfOnmTQb7y95g1HQr/AIm90y5ltLgxnkheFyhKkgVU0qNsVS3FXYq7FXYq7FXY&#xA;q7FXYq7FXYq7FXYq7FXYq7FXYq7FXYq7FXYq7FWa/kp/5Nzyh/21bX/k6MVenf8AOXmu63Y/mtDD&#xA;Zahc2sJ0u2b0oZpI15GSap4qQK7Yq8m8q+avM7+Z9HR9YvWRr22DKbmUggyqCCC2Kva/+c3v+Up8&#xA;tf8AMDN/yexVPPOd9e2X/OHnluezuJLacCzAlhdo3oZXqOSkHFXzJ/izzV/1eb7/AKSZv+asVfSP&#xA;l++vb3/nDTzDPeXElzOZpAZZnaR6C8hoOTEnFUt/5wh/5SnzL/zAw/8AJ7FXhWq+a/NK6peAaxfA&#xA;CeQAC5moBzP+Vir2P/nEPXdbvvzWmhvdQubqEaXct6U00ki8hJDQ8WJFd8VeY/nX/wCTc83/APbV&#xA;uv8Ak6cVYVirsVdirsVdirsVdirsVdirsVdirsVdirsVdirsVdirsVdirsVdirNfyU/8m55Q/wC2&#xA;ra/8nRir6G/5yK/IP8wvPfn+PW/L8Ns9ithDbFpp1ib1I3kZvhI6UcYq890D/nE783rLXdOvJ7ey&#xA;EFtdQzSkXSk8I5FZqCngMVTz/nN7/lKfLX/MDN/yexVmz+Rdf88f84q+WdC0FYpNQeO2mVZnEacY&#xA;pHLfEa4q8f8A+hQvzk/5ZrH/AKS1/pir1a/8ia/5H/5xN8x6DryRpqCO0zLC4kThJdwlfiGKsT/5&#xA;wh/5SnzL/wAwMP8AyexVjl//AM4kfnDPfXMyW9jwlld1rdKDRmJHbFXpP/OOv5B/mF5E8/ya35gh&#xA;tksWsJrYNDOsrepI8bL8IHSiHFXzz+df/k3PN/8A21br/k6cVYVirsVdirsVdirsVdirsVdirsVd&#xA;irsVdirsVdirsVdirsVdirsVdiqra3VzaXMV1ayvBc27rLBPGxV0kQ8ldWG4ZSKgjFWdj8/fzkAA&#xA;Hmy/oNt3Un7yuKu/5X9+cv8A1Nl9/wAEv/NOKsX8z+b/ADP5pvkv/MOpz6ndxoIo5bhy3FASeKjo&#xA;oqSdsVTby/8Am3+ZXl3TI9L0XzFeWWnQljDao9Y05Hk3AMG4gkk0HfFUy/5X9+cv/U2X3/BL/wA0&#xA;4qlvmD82/wAyvMWmSaXrXmK8vdOmKma1d6RvxPJeYULyAIBoe+KpT5Y84eaPK18995d1O40y6kQx&#xA;SyW7leaE14sOjCoruMVZR/yv785f+psvv+CX/mnFXH8/fzkIIPmy/odtnUH7wuKsEurq5u7mW6up&#xA;Xnubh2lnnkYs7yOeTOzHcsxNSTiqlirsVdirsVdirsVdirsVdirsVRf6J1X/AJY5/wDkW/8ATFXf&#xA;onVf+WOf/kW/9MVd+idV/wCWOf8A5Fv/AExV36J1X/ljn/5Fv/TFXfonVf8Aljn/AORb/wBMVd+i&#xA;dV/5Y5/+Rb/0xV36J1X/AJY5/wDkW/8ATFXfonVf+WOf/kW/9MVd+idV/wCWOf8A5Fv/AExV36J1&#xA;X/ljn/5Fv/TFXfonVf8Aljn/AORb/wBMVd+idV/5Y5/+Rb/0xV36J1X/AJY5/wDkW/8ATFXfonVf&#xA;+WOf/kW/9MVd+idV/wCWOf8A5Fv/AExV36J1X/ljn/5Fv/TFXfonVf8Aljn/AORb/wBMVd+idV/5&#xA;Y5/+Rb/0xV36J1X/AJY5/wDkW/8ATFXfonVf+WOf/kW/9MVd+idV/wCWOf8A5Fv/AExV36J1X/lj&#xA;n/5Fv/TFXfonVf8Aljn/AORb/wBMVd+idV/5Y5/+Rb/0xV36J1X/AJY5/wDkW/8ATFXfonVf+WOf&#xA;/kW/9MVd+idV/wCWOf8A5Fv/AExV36J1X/ljn/5Fv/TFXfonVf8Aljn/AORb/wBMVd+idV/5Y5/+&#xA;Rb/0xV36J1X/AJY5/wDkW/8ATFXfonVf+WOf/kW/9MVfqTirsVdirsVdirsVdirsVdirsVdirsVd&#xA;irsVdirsVdirsVdirsVdirsVdirsVdirsVdirsVdirsVdirsVdirsVdiqA1zXtF0HTpNS1m9h0/T&#xA;4iqyXVw4jjUuQqgs225NMVQsXnPynN5dbzLFq9o+gIGL6oJUNuAr+m1ZK8dn+H54qr6B5l8v+YrE&#xA;3+hahBqdkHMRuLZ1kTmoBZeS7VAYYqpaH5u8r6/PeW+i6ra6jPp7CO+jtpUlaFmLABwpPGpRvuxV&#xA;Aa3+Zv5e6DqMmm6z5isNP1CIK0lrcTpHIocBlJVjXcGuKpxouu6JrlguoaLf2+pWLkqtzaSpNGWH&#xA;VeSFhUdx2xVDaD5v8r+YJbuLQ9VtdSksGEd6trKkpiZiwUPxJpXg1PliqN1TVNO0rT59R1K5js7C&#xA;2XncXMzBI0XpVmOwGKpBpX5qflrq19HYab5o0y6vZjxhto7qIyOx/ZReVWPsMVRfmPz55L8tTwwe&#xA;YNas9LmuFLwR3UyRM6g0JUMRUVxVR0L8yvIHmDUBp2ieYLDUb9lZ1tradJJCq7seKmtBiqf3V1a2&#xA;ltJdXcyW9tCpeaeVgiIo3LMzEAAeJxVj2hfmb+Xmv6idM0XzFp9/qArxtYLiNpH4jkxjWvxgDcla&#xA;4qjvMvnLyp5Yt0uPMOrWulxS1EJupVjMhUVYRqTycj/JGKr/AC75r8s+ZLRrvQNUtdUtkPGSS1lS&#xA;Xgx/ZcKSVPscVd5d81eWvMlpJd6BqdtqltE/pSzWsqyqrgBuLFSaGhBxVK5vzU/LeHTLbVJvMunR&#xA;6ddvJFa3bXEYikeKnqKjVoSvIVxVT0782/yx1K+gsLDzRpt1e3TrFb28VzGzyOxoqqoNSScVUX/O&#xA;j8po3ZH83aUroSrKbqOoI2I64qmH/Kx/IQ06y1I6/YjT9SmNvYXZnQRTTKeLJG1aMwO2Kpjq3mXy&#xA;/pF1YWmqahBZXOqTC306GZ1Rp5iVURxg/aarqKDxxVCyeefJ0b6qkms2ivoYDawplUG1DbAzb/BX&#xA;3xVA6X+a35Z6rfRWGneaNMub2chYLdLqLnIxNAqKWqzHwG+Kp/q2r6Vo9hLqOq3kNhYQCs11cyLF&#xA;EoJoKu5A3OwxVKPLf5i+RPM1w9toGvWOpXUYLPbwTI0oVTQt6deXH3pTFWRYq7FXYq7FXYq7FXYq&#xA;8g/5yw/8klq//Gez/wColMVfPGnavqEXkO7/ACUErfpHU/M9jFbV6mwvAsgYDwEsUbn/AF8VZ3+T&#xA;nnceSv8AnFrzBrqPxvUv7q307ehN1cRwxxEdK8C3M+ynFWLfkfrOkfl/+ZHlI2+twajaecNOW216&#xA;OGVZPqt9cSloY5FWvFkb0lJbxfFWR+f9R8u2H/OTPmObXvKlx5wtG0m3SPTLW2W7eOUpbETlG6Kq&#xA;hl5f5Xviqj5KuPMH5a+Q/wAyvOs2j3HlfTtaeO38qaLdF1lSaV5VRgknF/3KSq1WA5BTTpiqTfkV&#xA;rGj+QPzL8qw2utW+pWXnHTI7fWkhlWQ2uoTuWiicKdmR/TjqT+02KvpH8/v/ACTXmz/mBb/iS4q8&#xA;b1/8qvIE3/OL9p5kXSLe11+20e1vk1SBRFM054cvUYfb51IPKvXbffFWLeddW1XXtS/JvUL/AEke&#xA;atRu9K/faVM6x/XnWQrxd5FZQX48iSOuKvbPyl0uVPM8k1z+Udr5G9K1kaHWYrm2uHZy6L6AWGKN&#xA;hzVmatf2ad8VST/nLG7ubix8m+WGne30nzBrEcOqSIeNY0aNVVidqfvS+/dQe2Kp7r3/ADj5+Tlt&#xA;eeX7u3P+FbvTblPqFxZXCW81zKv7xI2ef1DK/wAHKv26V3xVhflXy/o35h/85G+eZvONumpR+XFS&#xA;10jS7kc4ViV+Af0zswFC1DtWSuKrhoel+Qf+cq9A03ylCtlpvmXTZW1XSoDSIELcNyVNwihrZHAA&#xA;2oaUBxV5V/zj75r1j8ub3TvNF8f+dG8zXb6NqktTxguYArxSv2HES1B7pz8MVexf84zeTfKnmb8l&#xA;9PTzDpNrqqWt/etbrdxLKELsoYryBpXiMVSr/nDryb5U1LyPda7f6Ta3Ws2OtyrZ6hLErTxCO2tn&#xA;QI5FRxZyR7nFWC/k7ZXc+i6w8P5TW3nxRq9yDq891bQNEfTi/wBGCzRSMQv261p8eKsr/PXyzLqn&#xA;kj8tvL9voMPk+61fWWtBoqMksVrLdP6QJeJUVqlg5ovfFWMv+YWpeYta/Kny55iVovN3lLzRDp+q&#xA;xS/bdEubZIpSe7H0yrGvVeX7QxVONZ/46v8AzkN/xgtv+JtiqPm/KvyBe/8AOLUHmN9Lt7TXrbSv&#xA;r0erRKI52njckB2BHP1KcPir123piqUzX99+Yuu/kx5b82XEkuj3+nPd38Lsy/WZoGnjVpGXdmlS&#xA;1UV6/Gd98VZB/wA5K+TPK/kCy8redPJlhBomvWOqxW8cdighE0Zikk+JE2ahhCk03DkNXFX05irs&#xA;VdirsVdirsVdirEPzY/L7/lYHki88r/X/wBGfW5IZPrno+vx9GVZKenzirXjT7WKsRg/5x502P8A&#xA;NbSfP7apzOm20EUum/VqCae2tfqqT+r6vw0ARuPA7r1xVILT/nFcp5U0PyreeaDc6JpmryavqFuL&#xA;H0/rnNYkERP1hvT4ojry+L7fTbdVkX5gf842eQfMehpZaDZ2nlXVIriO4g1aytVMi8KgoVR4SQa/&#xA;zbEA9sVTny7+VV3pf5pX35gXmtC+u9Q0iHSri0W19FTJGLfncB/VkoHa2rw47cvtGm6rX5rflL/y&#xA;sS68vR3uq/VdE0a8F7faV9X9UXpBUcGk9VPT+DmteLfaOKpN+YH/ADjZ5D8xaNFa+X7W18qapb3E&#xA;dzDq1laqZBwqChVXhJBrX7WxAOKs185+ULnzT5Bv/K13qAiutRtFtp9SWCq+p8PKUQc12YrXjz28&#xA;cVeVf9Czear3R7Hy3r35kXt95Ss1ij/QtvZJaK0UBrGnqCaWvGm3JW7HqBirIPzA/IafzBrPlnVP&#xA;LXmD/Cr+VbYWumJFZLdhFX7BXlNEBxUUoQcVTfyd5B/M7R9fgv8AXvzFl8w6ZGriXS302C1EhZCq&#xA;n1UldhwY8um+Kpp+aX5ZaJ+YnlhtE1OR7aSOQXFhfQgGSCdQQHAP2lIYhl7jwNCFXnGm/wDONmv3&#xA;+uaReefvO915q0zQn56fp0kTR8mDBqyyPLKxqVXl1Zhtypiqe+ffyKu9W85jzx5O8xzeVPNEkYhv&#xA;poohPDcooCjmhZKHiq1ryU8R8Nd8VV/y1/JB/Lfmi785eZtdm80ebrpDCt/NH6UcMRAUiNOT7lRx&#xA;rsANgBvVVDeWv+cedJ038pNT/LrU9S/SkGoTy3UWoi39BoJmVBE6R+rLvG0YP2xyG3TFWT/lD+W/&#xA;/Ku/Jsflv9I/pT055Z/rfo/V6+qQePp+pN0p15YqhfyU/Kj/AJVl5VutB/Sn6X+s30l99Z9D6tx9&#xA;SGKLhw9SatPRrXl36Yqwjy3/AM48/mJ5Xt7u08tfmdJpdjd3Ul7JbJpEMg9WUKpblJcMfsoo+jFW&#xA;R335OeYtXg8ot5g83tquo+VtZTWGvnsUiNykciOtvwSYLHThTn8XyxVR86/84+aR5i/NDRPzAtNR&#xA;/Rd7ptza3WoWq24lW8azlSRDz9SP02KJwLUbam226rV7+Qn1m6/MO4/TvD/HsccfH6rX6n6ZJrX1&#xA;h61a/wCRirHI/wDnGPzRcaHaeWNZ/Mi9u/KNsEQ6NbWUdqGjjbmq+p60o2bf40bf5YqzH8xPyK8v&#xA;+atE0Sz0u6k8u6l5ZCLoGp2gLNbogUBCvJCw+BWB5BgwrXrVVj+m/wDOPev6n5m0zW/zG84z+a49&#xA;FYSadp3oLbwCRSG5SAMwYVUVAUFqCpptir2zFXYq7FXYq7FXYq7FXYq7FXYq7FXYq7FXYq7FXYq7&#xA;FXYq7FXYq7FXYq7FXYq7FXYq7FXYq7FXYq7FXYq7FXYq7FXYq7FXYq7FXYq7FXYq7FXYq7FXYq7F&#xA;XYq7FXYq7FXYq7FXYq7FXYq7FXYq7FXYq7FXYq7FXYq7FXYq7FXYq//Z</xmpGImg:image>
               </rdf:li>
            </rdf:Alt>
         </xmp:Thumbnails>
         <xmpMM:InstanceID>xmp.iid:9abfa668-2609-c146-aeb5-945099e7e6e3</xmpMM:InstanceID>
         <xmpMM:DocumentID>xmp.did:9abfa668-2609-c146-aeb5-945099e7e6e3</xmpMM:DocumentID>
         <xmpMM:OriginalDocumentID>uuid:5D20892493BFDB11914A8590D31508C8</xmpMM:OriginalDocumentID>
         <xmpMM:RenditionClass>proof:pdf</xmpMM:RenditionClass>
         <xmpMM:DerivedFrom rdf:parseType="Resource">
            <stRef:instanceID>uuid:ff470bc6-f939-440e-8f31-27b0eb70075c</stRef:instanceID>
            <stRef:documentID>xmp.did:4de20fe2-e96f-dd46-b8bd-1606dc72d06f</stRef:documentID>
            <stRef:originalDocumentID>uuid:5D20892493BFDB11914A8590D31508C8</stRef:originalDocumentID>
            <stRef:renditionClass>proof:pdf</stRef:renditionClass>
         </xmpMM:DerivedFrom>
         <xmpMM:History>
            <rdf:Seq>
               <rdf:li rdf:parseType="Resource">
                  <stEvt:action>saved</stEvt:action>
                  <stEvt:instanceID>xmp.iid:9abfa668-2609-c146-aeb5-945099e7e6e3</stEvt:instanceID>
                  <stEvt:when>2017-04-11T01:59:07-05:00</stEvt:when>
                  <stEvt:softwareAgent>Adobe Illustrator CC (Windows)</stEvt:softwareAgent>
                  <stEvt:changed>/</stEvt:changed>
               </rdf:li>
            </rdf:Seq>
         </xmpMM:History>
         <illustrator:StartupProfile>Print</illustrator:StartupProfile>
         <xmpTPg:HasVisibleOverprint>False</xmpTPg:HasVisibleOverprint>
         <xmpTPg:HasVisibleTransparency>True</xmpTPg:HasVisibleTransparency>
         <xmpTPg:NPages>1</xmpTPg:NPages>
         <xmpTPg:MaxPageSize rdf:parseType="Resource">
            <stDim:w>154.914001</stDim:w>
            <stDim:h>74.254028</stDim:h>
            <stDim:unit>Pixels</stDim:unit>
         </xmpTPg:MaxPageSize>
         <xmpTPg:PlateNames>
            <rdf:Seq>
               <rdf:li>Cyan</rdf:li>
               <rdf:li>Magenta</rdf:li>
               <rdf:li>Yellow</rdf:li>
               <rdf:li>Black</rdf:li>
            </rdf:Seq>
         </xmpTPg:PlateNames>
         <xmpTPg:SwatchGroups>
            <rdf:Seq>
               <rdf:li rdf:parseType="Resource">
                  <xmpG:groupName>Grupo de muestras por defecto</xmpG:groupName>
                  <xmpG:groupType>0</xmpG:groupType>
               </rdf:li>
            </rdf:Seq>
         </xmpTPg:SwatchGroups>
         <pdf:Producer>Adobe PDF library 10.01</pdf:Producer>
      </rdf:Description>
   </rdf:RDF>
</x:xmpmeta>
                                                                                                    
                                                                                                    
                                                                                                    
                                                                                                    
                                                                                                    
                                                                                                    
                                                                                                    
                                                                                                    
                                                                                                    
                                                                                                    
                                                                                                    
                                                                                                    
                                                                                                    
                                                                                                    
                                                                                                    
                                                                                                    
                                                                                                    
                                                                                                    
                                                                                                    
                                                                                                    
                           
<?xpacket end="w"?>
	</metadata>
<g>
	<rect id="XMLID_72_" x="0" y="0" opacity="0.5" fill="#FFFFFF" enable-background="new    " width="154.914" height="74.254"/>
	<rect id="XMLID_56_" x="0" y="0" width="154.914" height="48.154"/>
	<rect id="XMLID_330_" x="0" y="57.455" fill="none" width="154.494" height="13.102"/>
	<g enable-background="new    ">
		<path d="M18.135,65.331v-7.874h2.379l1.429,5.371l1.413-5.371h2.385v7.874h-1.477v-6.198l-1.563,6.198H21.17l-1.558-6.198v6.198
			H18.135z"/>
		<path d="M34.42,65.331h-1.729l-0.688-1.789h-3.147l-0.65,1.789H26.52l3.067-7.874h1.681L34.42,65.331z M31.493,62.216
			l-1.085-2.922l-1.063,2.922H31.493z"/>
		<path d="M35.264,65.331v-7.874h2.551c0.967,0,1.597,0.039,1.891,0.118c0.451,0.118,0.829,0.375,1.133,0.771
			s0.457,0.907,0.457,1.534c0,0.482-0.088,0.89-0.263,1.219s-0.398,0.588-0.668,0.776c-0.271,0.188-0.545,0.313-0.825,0.373
			c-0.379,0.075-0.929,0.112-1.649,0.112h-1.037v2.971H35.264z M36.854,58.789v2.234h0.87c0.626,0,1.045-0.041,1.257-0.124
			c0.211-0.082,0.377-0.211,0.497-0.387c0.12-0.175,0.18-0.379,0.18-0.611c0-0.287-0.084-0.523-0.252-0.709
			c-0.168-0.187-0.381-0.303-0.639-0.35c-0.19-0.036-0.571-0.054-1.144-0.054H36.854z"/>
		<path d="M48.885,65.331h-1.729l-0.688-1.789H43.32l-0.65,1.789h-1.687l3.067-7.874h1.681L48.885,65.331z M45.958,62.216
			l-1.085-2.922l-1.063,2.922H45.958z"/>
		<path d="M52.371,57.457h2.906c0.655,0,1.155,0.05,1.499,0.15c0.462,0.136,0.857,0.378,1.187,0.726
			c0.33,0.347,0.58,0.772,0.752,1.275s0.258,1.123,0.258,1.861c0,0.647-0.081,1.206-0.242,1.676
			c-0.197,0.572-0.478,1.036-0.843,1.391c-0.276,0.269-0.648,0.479-1.117,0.629c-0.351,0.11-0.82,0.166-1.407,0.166h-2.992V57.457z
			 M53.96,58.789v5.216h1.187c0.444,0,0.765-0.025,0.961-0.076c0.258-0.064,0.472-0.173,0.642-0.327
			c0.17-0.154,0.309-0.407,0.417-0.76s0.161-0.834,0.161-1.442s-0.054-1.076-0.161-1.402c-0.107-0.325-0.258-0.58-0.451-0.762
			c-0.193-0.184-0.438-0.307-0.736-0.371c-0.222-0.05-0.657-0.075-1.305-0.075H53.96z"/>
		<path d="M60.32,65.331v-7.874h5.838v1.332H61.91v1.745h3.953v1.327H61.91v2.144h4.399v1.326H60.32z"/>
		<path d="M75.751,62.437l1.542,0.488c-0.236,0.859-0.629,1.498-1.179,1.915c-0.55,0.417-1.247,0.626-2.092,0.626
			c-1.045,0-1.905-0.357-2.578-1.072c-0.673-0.714-1.01-1.69-1.01-2.93c0-1.311,0.338-2.328,1.015-3.054
			c0.677-0.725,1.566-1.087,2.669-1.087c0.963,0,1.746,0.284,2.347,0.854c0.358,0.337,0.626,0.82,0.806,1.45l-1.574,0.376
			c-0.093-0.408-0.288-0.73-0.583-0.967c-0.296-0.236-0.655-0.354-1.077-0.354c-0.583,0-1.057,0.21-1.421,0.628
			c-0.363,0.42-0.545,1.098-0.545,2.036c0,0.995,0.179,1.704,0.537,2.127s0.824,0.634,1.396,0.634c0.422,0,0.786-0.135,1.09-0.402
			C75.4,63.435,75.619,63.013,75.751,62.437z"/>
		<path d="M78.335,61.442c0-0.802,0.12-1.476,0.359-2.02c0.18-0.401,0.424-0.761,0.733-1.08c0.31-0.318,0.649-0.555,1.018-0.709
			c0.491-0.207,1.057-0.311,1.697-0.311c1.16,0,2.089,0.359,2.785,1.079s1.045,1.721,1.045,3.003c0,1.271-0.346,2.266-1.037,2.983
			c-0.69,0.718-1.614,1.077-2.771,1.077c-1.171,0-2.102-0.357-2.793-1.072C78.681,63.68,78.335,62.695,78.335,61.442z
			 M79.973,61.389c0,0.892,0.206,1.567,0.618,2.027c0.411,0.46,0.935,0.69,1.568,0.69s1.153-0.229,1.56-0.685
			c0.407-0.457,0.61-1.142,0.61-2.055c0-0.902-0.198-1.575-0.594-2.02s-0.921-0.666-1.576-0.666s-1.184,0.225-1.585,0.674
			C80.174,59.805,79.973,60.482,79.973,61.389z"/>
		<path d="M87.229,65.331v-7.874h1.547l3.223,5.259v-5.259h1.477v7.874h-1.595l-3.175-5.135v5.135H87.229z"/>
		<path d="M96.93,65.331v-6.542h-2.337v-1.332h6.258v1.332H98.52v6.542H96.93z"/>
		<path d="M101.876,65.331v-7.874h5.839v1.332h-4.249v1.745h3.953v1.327h-3.953v2.144h4.399v1.326H101.876z"/>
		<path d="M109.229,65.331v-7.874h1.547l3.223,5.259v-5.259h1.477v7.874h-1.595l-3.175-5.135v5.135H109.229z"/>
		<path d="M117.108,65.331v-7.874h1.59v7.874H117.108z"/>
		<path d="M120.208,57.457h2.905c0.655,0,1.155,0.05,1.499,0.15c0.462,0.136,0.857,0.378,1.187,0.726
			c0.33,0.347,0.58,0.772,0.752,1.275s0.258,1.123,0.258,1.861c0,0.647-0.08,1.206-0.241,1.676
			c-0.197,0.572-0.479,1.036-0.844,1.391c-0.275,0.269-0.647,0.479-1.117,0.629c-0.351,0.11-0.819,0.166-1.407,0.166h-2.991V57.457z
			 M121.798,58.789v5.216h1.187c0.444,0,0.765-0.025,0.962-0.076c0.258-0.064,0.472-0.173,0.642-0.327s0.309-0.407,0.416-0.76
			s0.161-0.834,0.161-1.442s-0.054-1.076-0.161-1.402c-0.107-0.325-0.258-0.58-0.451-0.762c-0.193-0.184-0.438-0.307-0.735-0.371
			c-0.223-0.05-0.657-0.075-1.306-0.075H121.798z"/>
		<path d="M127.835,61.442c0-0.802,0.12-1.476,0.359-2.02c0.18-0.401,0.424-0.761,0.733-1.08c0.31-0.318,0.649-0.555,1.018-0.709
			c0.491-0.207,1.057-0.311,1.697-0.311c1.16,0,2.089,0.359,2.785,1.079s1.045,1.721,1.045,3.003c0,1.271-0.346,2.266-1.037,2.983
			c-0.69,0.718-1.614,1.077-2.771,1.077c-1.171,0-2.102-0.357-2.793-1.072C128.181,63.68,127.835,62.695,127.835,61.442z
			 M129.473,61.389c0,0.892,0.206,1.567,0.618,2.027c0.411,0.46,0.935,0.69,1.568,0.69s1.153-0.229,1.56-0.685
			c0.407-0.457,0.61-1.142,0.61-2.055c0-0.902-0.198-1.575-0.594-2.02s-0.921-0.666-1.576-0.666s-1.184,0.225-1.585,0.674
			C129.674,59.805,129.473,60.482,129.473,61.389z"/>
	</g>
	<g id="XMLID_386_">
		<path id="XMLID_387_" fill="#FFFFFF" d="M73.676,7.621v10.153c0,0.622,0.503,1.125,1.125,1.125h3.951v3.055H63.661
			c-0.622,0-1.125,0.503-1.125,1.125v4.015h-3.951c-0.622,0-1.125,0.503-1.125,1.125v10.153c0,0.622,0.503,1.125,1.125,1.125h10.153
			c0.622,0,1.125-0.503,1.125-1.125V28.218c0-0.622-0.503-1.125-1.125-1.125h-3.96v-2.899h13.966v2.899h-3.951
			c-0.622,0-1.125,0.503-1.125,1.125v10.153c0,0.622,0.503,1.125,1.125,1.125h10.152c0.622,0,1.125-0.503,1.125-1.125V28.218
			c0-0.622-0.503-1.125-1.125-1.125h-3.951v-2.899H94.96v2.899h-3.951c-0.622,0-1.125,0.503-1.125,1.125v10.153
			c0,0.622,0.503,1.125,1.125,1.125h10.152c0.622,0,1.125-0.503,1.125-1.125V28.218c0-0.622-0.503-1.125-1.125-1.125H97.21v-4.015
			c0-0.622-0.503-1.125-1.125-1.125H80.993v-3.055h3.951c0.622,0,1.125-0.503,1.125-1.125V7.621c0-0.622-0.503-1.125-1.125-1.125
			H74.792C74.179,6.496,73.676,6.998,73.676,7.621L73.676,7.621z M67.612,37.236H59.71v-7.911h7.903L67.612,37.236L67.612,37.236z
			 M83.819,37.236h-7.912v-7.911h7.912V37.236z M100.027,37.236h-7.903v-7.911h7.911v7.911H100.027z M75.917,8.737h7.912v7.911
			h-7.912V8.737z"/>
	</g>
</g>
</svg>
