<?xml version="1.0" encoding="utf-8"?>
<!-- Generator: Adobe Illustrator 17.0.0, SVG Export Plug-In . SVG Version: 6.00 Build 0)  -->
<!DOCTYPE svg PUBLIC "-//W3C//DTD SVG 1.1//EN" "http://www.w3.org/Graphics/SVG/1.1/DTD/svg11.dtd" [
	<!ENTITY ns_extend "http://ns.adobe.com/Extensibility/1.0/">
	<!ENTITY ns_ai "http://ns.adobe.com/AdobeIllustrator/10.0/">
	<!ENTITY ns_graphs "http://ns.adobe.com/Graphs/1.0/">
	<!ENTITY ns_vars "http://ns.adobe.com/Variables/1.0/">
	<!ENTITY ns_imrep "http://ns.adobe.com/ImageReplacement/1.0/">
	<!ENTITY ns_sfw "http://ns.adobe.com/SaveForWeb/1.0/">
	<!ENTITY ns_custom "http://ns.adobe.com/GenericCustomNamespace/1.0/">
	<!ENTITY ns_adobe_xpath "http://ns.adobe.com/XPath/1.0/">
]>
<svg version="1.1" id="Capa_1" xmlns:x="&ns_extend;" xmlns:i="&ns_ai;" xmlns:graph="&ns_graphs;"
	 xmlns="http://www.w3.org/2000/svg" xmlns:xlink="http://www.w3.org/1999/xlink" x="0px" y="0px" width="433.207px"
	 height="604.809px" viewBox="0 0 433.207 604.809" enable-background="new 0 0 433.207 604.809" xml:space="preserve">
<metadata>
	<sfw  xmlns="&ns_sfw;">
		<slices></slices>
		<sliceSourceBounds  width="433.207" height="604.808" x="465.896" y="448.097" bottomLeftOrigin="true"></sliceSourceBounds>
	</sfw>
</metadata>
<g>
	<g>
		<defs>
			<rect id="SVGID_1_" x="0" y="0" width="433.207" height="537.826"/>
		</defs>
		<clipPath id="SVGID_2_">
			<use xlink:href="#SVGID_1_"  overflow="visible"/>
		</clipPath>
		<g clip-path="url(#SVGID_2_)">
			<path fill="#0E3C66" d="M318.5,244.101c0,7.814-7.495,14.153-16.743,14.153c-9.246,0-16.745-6.339-16.745-14.153
				c0-7.815,0-17.268,16.745-14.151C311.005,229.949,322.641,235.069,318.5,244.101"/>
			<path fill="none" stroke="#0E3C66" stroke-miterlimit="10" d="M318.5,244.101c0,7.814-7.495,14.153-16.743,14.153
				c-9.246,0-16.745-6.339-16.745-14.153c0-7.815,0-17.268,16.745-14.151C311.005,229.949,322.641,235.069,318.5,244.101z"/>
			<path fill="#574A35" d="M155.092,56.637c0,0-11.753,8.796-9.274,19.859c2.477,11.063,1.739,12.739,4.601,22.117
				c2.86,9.377-2.124,18.706,7.844,19.024c9.963,0.315,19.936-10.88,21.926-14.249C182.176,100.016,163.959,52.572,155.092,56.637"
				/>
			<path fill="none" stroke="#4C3617" stroke-miterlimit="10" d="M155.092,56.637c0,0-11.753,8.796-9.274,19.859
				c2.477,11.063,1.739,12.739,4.601,22.117c2.86,9.377-2.124,18.706,7.844,19.024c9.963,0.315,19.936-10.88,21.926-14.249
				C182.176,100.016,163.959,52.572,155.092,56.637z"/>
			<path fill="#FFC691" d="M278.474,174.504c0,1.387,18.579,70.381,22.93,76.107c4.349,5.729-18.77,58.833-25.704,58.867
				c-6.936,0.032-80.395,24.076-80.395,24.076s-9.764-62.158-10.919-63.445c-1.156-1.286,46.004-26.715,47.391-27.176
				c1.388-0.464,38.836-27.742,39.762-31.441C272.461,207.794,278.474,174.504,278.474,174.504"/>
			<path fill="none" stroke="#F1B486" stroke-miterlimit="10" d="M278.474,174.504c0,1.387,18.579,70.381,22.93,76.107
				c4.349,5.729-18.77,58.833-25.704,58.867c-6.936,0.032-80.395,24.076-80.395,24.076s-9.764-62.158-10.919-63.445
				c-1.156-1.286,46.004-26.715,47.391-27.176c1.388-0.464,38.836-27.742,39.762-31.441
				C272.461,207.794,278.474,174.504,278.474,174.504z"/>
			<path fill="#F1B486" d="M279.818,180.276c0,0,17.286,65.01,19.51,65.896c2.226,0.891,3.804,10.671,4.118,12.083
				c0.315,1.409-28.668,17.788-28.668,17.788s-8.82-12.69-7.245-18.315c1.576-5.623,10.689-27.048,10.689-27.048
				s-20.38,34.791-43.73,42.124c-23.35,7.336-35.814-4.636-38.087-4.636c-2.274,0,7.63-16.697,7.63-16.697
				s37.732-23.311,39.116-24.568C244.535,225.641,279.818,180.276,279.818,180.276"/>
			<path fill="#18252B" d="M403.322,570.494l1.498,13.276c0,0-10.41,8.276-15.944,11.042c-5.536,2.767-17.225,13.842-38.445,8.611
				c-21.22-5.228-55.313-24.602-76.861-28.906c-21.552-4.309-21.71-15.381-52.386-15.686c-30.676-0.309-83.298-14.862-94.829-18.454
				c-11.526-3.591-21.036-10.456-20.113-11.377c0.923-0.926,33.829-15.687,34.753-15.687c0.922,0,88.166,21.222,88.166,21.222
				l92.154,36.905c0,0,48.185,2.46,49.105,2.153C371.343,573.285,403.322,570.494,403.322,570.494"/>
			<path fill="#154A8C" d="M319.272,238.949c0,0,3.434,17.238,4.665,19.086c1.236,1.848,33.291,32.058,41.308,39.455
				c8.011,7.397,25.271,28.973,33.288,35.139c8.011,6.166,7.397,4.932,11.097,25.274c3.697,20.343,11.097,49.933,13.56,61.648
				c2.465,11.714,3.698,25.891,3.698,33.29c0,7.397-53.808-14.796-53.808-14.796s15.695,84.456,20.88,96.786
				c5.187,12.328,18.134,19.726,16.9,30.206c-1.231,10.479-34.521,36.37-54.249,32.675c-19.727-3.7-91.237-41.306-101.102-41.306
				c-9.861,0-54.865-6.779-72.743-10.479c-17.877-3.699-38.221-12.947-53.017-12.329c-14.796,0.615-17.876-22.193-17.876-22.193
				s22.194-155.966,21.574-157.816c-0.616-1.849,10.481-51.168,10.481-51.168s50.549,14.182,84.458-5.548
				c33.904-19.726,70.584-39.453,76.903-51.166C311.609,233.991,317.883,232.283,319.272,238.949"/>
			<path fill="none" stroke="#0E3C66" stroke-miterlimit="10" d="M319.272,238.949c0,0,3.434,17.238,4.665,19.086
				c1.236,1.848,33.291,32.058,41.308,39.455c8.011,7.397,25.271,28.973,33.288,35.139c8.011,6.166,7.397,4.932,11.097,25.274
				c3.697,20.343,11.097,49.933,13.56,61.648c2.465,11.714,3.698,25.891,3.698,33.29c0,7.397-53.808-14.796-53.808-14.796
				s15.695,84.456,20.88,96.786c5.187,12.328,18.134,19.726,16.9,30.206c-1.231,10.479-34.521,36.37-54.249,32.675
				c-19.727-3.7-91.237-41.306-101.102-41.306c-9.861,0-54.865-6.779-72.743-10.479c-17.877-3.699-38.221-12.947-53.017-12.329
				c-14.796,0.615-17.876-22.193-17.876-22.193s22.194-155.966,21.574-157.816c-0.616-1.849,10.481-51.168,10.481-51.168
				s50.549,14.182,84.458-5.548c33.904-19.726,70.584-39.453,76.903-51.166C311.609,233.991,317.883,232.283,319.272,238.949z"/>
			<path fill="#FFC691" d="M159.647,64.28c-0.467,1.309-6.472,3.882-5.085,27.925c1.387,24.042,2.248,35.139-0.991,43.926
				c-3.235,8.782-16.577,44.383-16.117,59.641c0.465,15.259,16.161,69.151,25.188,74.338c9.028,5.188,72.843,5.781,99.649-25.328
				c0,0,21.269-23.115,18.495-50.395c-2.775-27.28-5.087-44.85-5.087-44.85s3.236-44.569-20.807-62.139
				C230.851,69.83,225.303,48.1,218.83,46.711C212.355,45.324,162.648,55.895,159.647,64.28"/>
			<path fill="none" stroke="#F1B486" stroke-miterlimit="10" d="M159.647,64.28c-0.467,1.309-6.472,3.882-5.085,27.925
				c1.387,24.042,2.248,35.139-0.991,43.926c-3.235,8.782-16.577,44.383-16.117,59.641c0.465,15.259,16.161,69.151,25.188,74.338
				c9.028,5.188,72.843,5.781,99.649-25.328c0,0,21.269-23.115,18.495-50.395c-2.775-27.28-5.087-44.85-5.087-44.85
				s3.236-44.569-20.807-62.139C230.851,69.83,225.303,48.1,218.83,46.711C212.355,45.324,162.648,55.895,159.647,64.28z"/>
			<path fill="#FFC691" d="M205.42,238.949c-1.848,0.746-35.6-3.885-36.988-3.88c-1.385,0.005-18.029-5.546-24.503,7.864
				c-6.475,13.406-27.933,78.6-26.679,81.373c1.249,2.773-5.377,10.634-5.377,10.634s-82.608,84.353-80.297,105.751
				c2.313,21.397-0.926,56.997,36.063,57.459c36.988,0.462,51.743-14.332,57.772-38.836c6.033-24.506,22.677-61.031,23.142-73.053
				c0.461-12.02,9.245-32.365,6.471-42.998c0,0,24.969,2.772,29.593-20.344c0,0,4.161-15.584,0-15.587c0,0,4.622,1.255,10.634,1.716
				c0,0-6.474,24.043,4.622,29.128c0,0,18.958-14.332,16.183-31.901c0,0,5.085-5.549,2.775-12.023c0,0,5.448-7.397-0.236-12.02
				c0,0-5.773-21.73-14.559-24.968c0,0,9.71-2.311,7.859-8.322C210.045,242.934,205.42,238.949,205.42,238.949"/>
			<path fill="none" stroke="#F1B486" stroke-miterlimit="10" d="M205.42,238.949c-1.848,0.746-35.6-3.885-36.988-3.88
				c-1.385,0.005-18.029-5.546-24.503,7.864c-6.475,13.406-27.933,78.6-26.679,81.373c1.249,2.773-5.377,10.634-5.377,10.634
				s-82.608,84.353-80.297,105.751c2.313,21.397-0.926,56.997,36.063,57.459c36.988,0.462,51.743-14.332,57.772-38.836
				c6.033-24.506,22.677-61.031,23.142-73.053c0.461-12.02,9.245-32.365,6.471-42.998c0,0,24.969,2.772,29.593-20.344
				c0,0,4.161-15.584,0-15.587c0,0,4.622,1.255,10.634,1.716c0,0-6.474,24.043,4.622,29.128c0,0,18.958-14.332,16.183-31.901
				c0,0,5.085-5.549,2.775-12.023c0,0,5.448-7.397-0.236-12.02c0,0-5.773-21.73-14.559-24.968c0,0,9.71-2.311,7.859-8.322
				C210.045,242.934,205.42,238.949,205.42,238.949z"/>
			<path fill="#F1B486" d="M184.362,317.413c0,0-1.003,10.202-5.277,11.517c-4.278,1.312-14.015,7.892-20.825,7.892h-10.098
				c0,0,3.619,7.566,3.949,10.528c0.327,2.96-5.265,20.395-5.594,24.341c-0.329,3.948-2.303,12.829-2.631,15.132
				c-0.329,2.303-6.455,17.188-6.445,19.079c0.013,1.893-3.095,10.668-3.095,10.668h5.28c0,0,6.561-20.865,7.22-23.827
				c0.659-2.96,7.314-35.283,7.896-37.168c0.676-2.203,0.944-9.504,0.944-9.504l-0.313-3.099c0,0,7.957,0.609,12.24-1.07
				C171.896,340.217,184.707,337.149,184.362,317.413"/>
			<path fill="#0E3C66" d="M409.44,468.742l2.348-22.584c0,0,19.894,3.236,13.423,12.945
				C418.736,468.815,409.44,468.742,409.44,468.742"/>
			<path fill="none" stroke="#0E3C66" stroke-miterlimit="10" d="M409.44,468.742l2.348-22.584c0,0,19.894,3.236,13.423,12.945
				C418.736,468.815,409.44,468.742,409.44,468.742z"/>
			<path fill="#0E3C66" d="M330.258,452.886c0,0-11.953,2.233-11.758-8.368c0.198-10.601,0.459-15.719,5.877-16.181
				c5.416-0.464,11.428,3.542,12.123,6.396c0.692,2.852-3.467,18.153-3.467,18.153H330.258z"/>
			<path fill="none" stroke="#0E3C66" stroke-miterlimit="10" d="M330.258,452.886c0,0-11.953,2.233-11.758-8.368
				c0.198-10.601,0.459-15.719,5.877-16.181c5.416-0.464,11.428,3.542,12.123,6.396c0.692,2.852-3.467,18.153-3.467,18.153H330.258z
				"/>
			<path fill="#FFFFFF" d="M1.061,385.337c0,0,49.472,6.475,51.321,6.475s57.023-26.561,59.49-25.763
				c2.464,0.796,3.057,0.624,10.324,10.042c3.345,4.337,7.193,18.266,18.529,37.473c3.435,5.817,7.525,13.125,11.387,18.977
				c5.656,5.809,8.97,11.729,12.79,16.721c6.234,8.143,10.579,14.242,10.579,14.242l14.938,55.557c0,0-69.007,18.281-78.548,17.93
				c-9.541-0.357-7.707,5.547-18.805-9.711C81.973,512.021,1.061,385.337,1.061,385.337"/>
			<path fill="none" stroke="#6D6E71" stroke-miterlimit="10" d="M1.061,385.337c0,0,49.472,6.475,51.321,6.475
				s57.023-26.561,59.49-25.763c2.464,0.796,3.057,0.624,10.324,10.042c3.345,4.337,7.193,18.266,18.529,37.473
				c3.435,5.817,7.525,13.125,11.387,18.977c5.656,5.809,8.97,11.729,12.79,16.721c6.234,8.143,10.579,14.242,10.579,14.242
				l14.938,55.557c0,0-69.007,18.281-78.548,17.93c-9.541-0.357-7.707,5.547-18.805-9.711
				C81.973,512.021,1.061,385.337,1.061,385.337z"/>
			<path fill="#FFC691" d="M333.801,434.348l-6.781,21.576c0,0-53.633,8.014-69.66,11.712c-16.03,3.7-24.66-1.234-32.674,0
				c-8.015,1.233-11.098-13.561-16.646-20.343c-5.548-6.784-32.056-15.411-45-12.945l-9.865-0.434c0,0,21.577,27.559,21.577,30.023
				c0,2.464,1.232,20.343-11.097,24.043c-12.33,3.698-38.838,2.462-46.236,0c-7.398-2.465-9.99,0.881-9.246,2.334
				c0,0,1.715,10.18,9.074,13.058c0,0,4.254,11.253,9.763,11.841c-1.62,4.498,10.24,10.882,10.24,10.882s9.279,3.362,16.481,3.042
				c7.2-0.319,44.164-4.8,50.406-7.523c6.238-2.718,13.168-3.838,15.782-4.158c2.614-0.319,5.977,2.723,7.896,1.44
				c1.921-1.281,12.743,4.686,18.521,6.072c5.781,1.388,60.338,12.946,72.822,14.796c12.484,1.851,34.675,4.624,43.462,5.086
				c8.782,0.463,23.115,0,26.814,0s13.872,2.772,15.259-19.882c1.386-22.654,8.771-72.533,8.771-72.533
				S370.173,433.422,333.801,434.348"/>
			<path fill="none" stroke="#F1B486" stroke-miterlimit="10" d="M333.801,434.348l-6.781,21.576c0,0-53.633,8.014-69.66,11.712
				c-16.03,3.7-24.66-1.234-32.674,0c-8.015,1.233-11.098-13.561-16.646-20.343c-5.548-6.784-32.056-15.411-45-12.945l-9.865-0.434
				c0,0,21.577,27.559,21.577,30.023c0,2.464,1.232,20.343-11.097,24.043c-12.33,3.698-38.838,2.462-46.236,0
				c-7.398-2.465-9.99,0.881-9.246,2.334c0,0,1.715,10.18,9.074,13.058c0,0,4.254,11.253,9.763,11.841
				c-1.62,4.498,10.24,10.882,10.24,10.882s9.279,3.362,16.481,3.042c7.2-0.319,44.164-4.8,50.406-7.523
				c6.238-2.718,13.168-3.838,15.782-4.158c2.614-0.319,5.977,2.723,7.896,1.44c1.921-1.281,12.743,4.686,18.521,6.072
				c5.781,1.388,60.338,12.946,72.822,14.796c12.484,1.851,34.675,4.624,43.462,5.086c8.782,0.463,23.115,0,26.814,0
				s13.872,2.772,15.259-19.882c1.386-22.654,8.771-72.533,8.771-72.533S370.173,433.422,333.801,434.348z"/>
			<path fill="none" stroke="#F1B486" stroke-linecap="round" stroke-linejoin="round" stroke-miterlimit="10" d="M345.977,459.315
				c0,0-3.086-5.819-18.956-3.391"/>
			<path fill="#F1B486" d="M330.088,446.158c0,0,11.403-4.504,20.168-3.273c8.765,1.236,33.691,12.695,38.076,14.564
				c4.38,1.872,15.199,4.197,15.199,4.883c0,0.688-4.537,49.642-4.537,52.286c0,2.643-1.745,17.745-5.032,20.214
				c-3.29,2.465-14.697,8.447-37.503,2.99c-22.811-5.459-81.991-11.621-89.082-12.857c-7.089-1.229-38.215-6.204-38.215-6.204
				s15.77,5.961,24.695,7.869c8.923,1.906,51.803,10.952,60.41,12.313c8.604,1.356,32.326,6.32,40.341,6.112
				c8.013-0.207,33.009,2.203,38.529,0.008c5.518-2.2,9.044-3.215,10.393-13.005c1.348-9.791,2.332-30.607,3.554-36.202
				c1.219-5.594,4.868-32.95,5.386-36.541c0.514-3.596,0.994-6.884,0.994-6.884L350.6,430.032l-16.644,1.849L330.088,446.158z"/>
			<path fill="#154A8C" d="M426.888,452.842l-11.685,0.044c-11.686,0.042-51.657-19.925-65.989-18.972
				c-14.333,0.956-32.827,2.281-30.516,0c2.311-2.279,4.624-23.608,8.322-37.018c3.698-13.407,5.548-53.633,5.548-53.633"/>
			<path fill="none" stroke="#0E3C66" stroke-miterlimit="10" d="M426.888,452.842l-11.685,0.044
				c-11.686,0.042-51.657-19.925-65.989-18.972c-14.333,0.956-32.827,2.281-30.516,0c2.311-2.279,4.624-23.608,8.322-37.018
				c3.698-13.407,5.548-53.633,5.548-53.633"/>
			<path fill="none" stroke="#F1B486" stroke-linecap="round" stroke-linejoin="round" stroke-miterlimit="10" d="M184.616,500.927
				c0,0-26.354,9.708-38.377,9.247c-12.02-0.464-28.989-6.802-28.989-6.802"/>
			<path fill="none" stroke="#F1B486" stroke-linecap="round" stroke-linejoin="round" stroke-miterlimit="10" d="M187.391,510.189
				c-0.465-0.479-25.622,11.586-43.001,8.304l-17.381-3.277"/>
			<path fill="none" stroke="#F1B486" stroke-linecap="round" stroke-linejoin="round" stroke-miterlimit="10" d="M164.732,257.728
				c0,0,33.753-1.85,39.303-0.464"/>
			<path fill="none" stroke="#F1B486" stroke-linecap="round" stroke-linejoin="round" stroke-miterlimit="10" d="M176.756,273.91
				c0,0,18.955-5.547,27.279-3.234c8.32,2.311,14.249,19.027,14.795,23.576"/>
			<path fill="none" stroke="#F1B486" stroke-linecap="round" stroke-linejoin="round" stroke-miterlimit="10" d="M176.756,282.182
				c0,0,24.505-3.748,27.279,0c2.774,3.75,12.046,16.843,12.02,24.094"/>
			<path fill="none" stroke="#F1B486" stroke-linecap="round" stroke-linejoin="round" stroke-miterlimit="10" d="M181.841,298.416
				c0,0-2.311,5.085,5.55,7.859c7.859,2.773,10.916,5.547,11.933,0"/>
			<path fill="none" stroke="#F1B486" stroke-linecap="round" stroke-linejoin="round" stroke-miterlimit="10" d="M122.197,333.555
				c0,0-5.453-5.587-4.947-9.248"/>
			<path fill="none" stroke="#231F20" stroke-miterlimit="10" d="M158.262,217.504c0,0,48.548,10.633,71.664-22.193"/>
			<path fill="none" stroke="#F1B486" stroke-linecap="round" stroke-linejoin="round" stroke-miterlimit="10" d="M174.936,166.508
				c0,0-3.055-0.17-11.998-0.631c-8.941-0.463-12.029,1.588-12.521,1.307"/>
			<path fill="none" stroke="#231F20" stroke-miterlimit="10" d="M224.379,187.91c0,0,10.17,2.313,10.17,11.098"/>
			<path fill="none" stroke="#F1B486" stroke-linecap="round" stroke-linejoin="round" stroke-miterlimit="10" d="M205.201,163.07
				c0,0,9.977-1.41,15.799-1.324c5.822,0.088,13.38,0.594,16.168,1.324"/>
			<path fill="#574A35" d="M171.714,11.555c0,0-30.009,0.896-30.009,27.098c0,26.201,12.988,35.159,26.201,34.487
				c13.214-0.672,20.605-7.165,25.083-9.63c4.48-2.463,12.349-1.565,16.253,0.447c3.898,2.018,8.381,8.734,13.081,8.063
				c4.705-0.671,5.823-3.737,8.738,1.152c2.91,4.892,0,22.565,8.282,26.596c8.285,4.031,16.348,3.808,17.917,9.183
				c1.566,5.375,0.894,18.141,2.017,21.947l3.805-2.02c0,0,3.885-12.512,7.59-12.498c3.706,0.014,15.312,9.857,13.355-2.573
				c-0.575-5.309-8.414-15.212-7.74-21.484c0.672-6.27-8.053-5.521-10.518-11.794c-2.463-6.269-6.717-9.404-7.615-14.331
				c-0.894-4.928,0.898-12.347-8.061-19.609c-8.955-7.265-29.113-14.431-31.352-13.76c-2.24,0.675,4.479-8.286-0.898-9.851
				c-5.372-1.57-19.48,0.447-27.543,6.27c0,0,2.913-8.063-1.568-9.186c-4.478-1.117-16.124,6.049-21.051,14.334
				C167.682,34.396,178.434,12.9,171.714,11.555"/>
			<path fill="none" stroke="#4C3617" stroke-miterlimit="10" d="M171.714,11.555c0,0-30.009,0.896-30.009,27.098
				c0,26.201,12.988,35.159,26.201,34.487c13.214-0.672,20.605-7.165,25.083-9.63c4.48-2.463,12.349-1.565,16.253,0.447
				c3.898,2.018,8.381,8.734,13.081,8.063c4.705-0.671,5.823-3.737,8.738,1.152c2.91,4.892,0,22.565,8.282,26.596
				c8.285,4.031,16.348,3.808,17.917,9.183c1.566,5.375,0.894,18.141,2.017,21.947l3.805-2.02c0,0,3.885-12.512,7.59-12.498
				c3.706,0.014,15.312,9.857,13.355-2.573c-0.575-5.309-8.414-15.212-7.74-21.484c0.672-6.27-8.053-5.521-10.518-11.794
				c-2.463-6.269-6.717-9.404-7.615-14.331c-0.894-4.928,0.898-12.347-8.061-19.609c-8.955-7.265-29.113-14.431-31.352-13.76
				c-2.24,0.675,4.479-8.286-0.898-9.851c-5.372-1.57-19.48,0.447-27.543,6.27c0,0,2.913-8.063-1.568-9.186
				c-4.478-1.117-16.124,6.049-21.051,14.334C167.682,34.396,178.434,12.9,171.714,11.555z"/>
			<path fill="none" stroke="#4C3617" stroke-linecap="round" stroke-linejoin="round" stroke-miterlimit="10" d="M162.758,43.803
				c0,0,3.445-7.213,4.926-9.406"/>
			<path fill="none" stroke="#4C3617" stroke-linecap="round" stroke-linejoin="round" stroke-miterlimit="10" d="M182.91,39.1
				c0,0,4.377-7.99,7.391-9.853"/>
			<path fill="none" stroke="#4C3617" stroke-linecap="round" stroke-linejoin="round" stroke-miterlimit="10" d="M206.173,41.563
				c0,0,10.776-6.271,12.569-8.732"/>
			<path fill="#231F20" d="M243.6,133.064c-0.025,1.556-1.277,10.924-1.277,10.924l20.762-11.325v-4.836
				C263.084,127.826,253.036,133.581,243.6,133.064"/>
			<path fill="#FFC691" d="M263.084,132.689c0,0,0.468-18.248,9.75-18.867c9.284-0.617,16.225,18.42,15.778,25.138
				c-0.447,6.716-1.121,11.644-2.911,13.883c-1.792,2.24-2.463,3.359-0.447,7.165c2.016,3.81,7.165,13.888,2.016,16.127
				c-5.151,2.238-10.977-0.897-13.44-4.929"/>
			<path fill="none" stroke="#F1B486" stroke-miterlimit="10" d="M263.084,132.689c0,0,0.468-18.248,9.75-18.867
				c9.284-0.617,16.225,18.42,15.778,25.138c-0.447,6.716-1.121,11.644-2.911,13.883c-1.792,2.24-2.463,3.359-0.447,7.165
				c2.016,3.81,7.165,13.888,2.016,16.127c-5.151,2.238-10.977-0.897-13.44-4.929"/>
			<path fill="#FFC691" d="M270.695,141.198c-0.222-0.896,1.009-15.164,3.977-16.65c2.967-1.488,7.671,0.526,9.013,6.351
				c0,0,4.703,13.657,0,11.868c-4.704-1.792-2.97-4.251-5.463-4.704"/>
			<path fill="none" stroke="#F1B486" stroke-linecap="round" stroke-linejoin="round" stroke-miterlimit="10" d="M270.695,141.198
				c-0.222-0.896,1.009-15.164,3.977-16.65c2.967-1.488,7.671,0.526,9.013,6.351c0,0,4.703,13.657,0,11.868
				c-4.704-1.792-2.97-4.251-5.463-4.704"/>
			<path fill="#FFC691" d="M118.352,506.402c-2.026-4.567,5.436-0.233,5.436-0.233l-0.352,3.988
				C123.055,510.366,119.523,508.744,118.352,506.402"/>
			<path fill="none" stroke="#F1B486" stroke-miterlimit="10" d="M118.352,506.402c-2.026-4.567,5.436-0.233,5.436-0.233
				l-0.352,3.988C123.055,510.366,119.523,508.744,118.352,506.402z"/>
			<path fill="#FFC691" d="M108.399,491.577c-2.028-4.569,5.367-0.577,5.367-0.577l-0.619,5.264
				C113.1,495.542,109.57,493.923,108.399,491.577"/>
			<path fill="none" stroke="#F1B486" stroke-miterlimit="10" d="M108.399,491.577c-2.028-4.569,5.367-0.577,5.367-0.577
				l-0.619,5.264C113.1,495.542,109.57,493.923,108.399,491.577z"/>
			<path fill="#FFC691" d="M127.148,517.563c-2.028-4.566,5.433-0.232,5.433-0.232l-0.347,3.988
				C131.85,521.527,128.319,519.906,127.148,517.563"/>
			<path fill="none" stroke="#F1B486" stroke-miterlimit="10" d="M127.148,517.563c-2.028-4.566,5.433-0.232,5.433-0.232
				l-0.347,3.988C131.85,521.527,128.319,519.906,127.148,517.563z"/>
			<path fill="none" stroke="#D69F7B" stroke-linecap="round" stroke-linejoin="round" stroke-miterlimit="10" d="M196.573,185.764
				c3.804-0.896,8.286,0.223,6.044,6.493c-2.24,6.272-6.494,3.36-8.523,3.809c-2.031,0.448-1.553-5.375-4.24-5.822
				c-2.688-0.45-2.912,2.687-4.704,5.067c-1.79,2.379-2.686,2.545-12.1,2.545c-9.411,0-8.28-8.063-7.159-13.211
				c1.119-5.151,13.213-17.244,14.107-20.381c0.898-3.136-0.982-12.963-0.982-12.963"/>
			<path fill="#231F20" d="M188.373,126.683c-35.939,0-53.742,2.914-53.742,2.914l1.617,12.305
				c4.53,26.548,14.568,23.635,21.692,23.635c7.122,0,17.483,3.235,22.015-11.656c4.535-14.895,8.418-15.54,8.418-15.54
				s8.081-3.547,12.611,11.349c4.535,14.889,14.895,11.653,22.016,11.653c7.125,0,17.161,2.912,21.694-23.636l1.122-14.042
				C245.816,123.664,225.038,120.928,188.373,126.683 M177.891,152.468c-4.886,11.889-11.4,10.749-11.4,10.749h-7.814
				c-21.172,0-17.104-18.729-17.918-26.058c-0.813-7.329,18.893-7.165,18.893-7.165s8.47-0.324,16.445,1.299
				C184.08,132.925,182.775,140.579,177.891,152.468 M240.184,132.966c-0.814,7.328,3.254,26.057-17.917,26.057h-7.814
				c0,0-6.516,1.141-11.401-10.75c-4.884-11.887-6.188-19.542,1.789-21.17c7.983-1.627,16.453-1.302,16.453-1.302
				S240.999,125.636,240.184,132.966"/>
			<path fill="#574A35" d="M176.693,123.171c0,0-15.338-3.808-22.583,3.132l-7.928-1.715c0,0,2.175-11.883,15.117-13.524
				c12.943-1.638,20.863,9.749,20.863,9.749L176.693,123.171z"/>
			<path fill="#574A35" d="M204.229,120.982c0,0,9.264-5.567,16.139-5.234c6.879,0.337,12.438,6.547,12.438,6.547l7.568-1.457
				c0,0-9.134-14.505-22.343-13.577c-13.21,0.925-18.123,10.796-18.123,10.796L204.229,120.982z"/>
			<path fill="#75654E" d="M214.938,45.871c0,0,17.365-6.178,25.845-1.375c8.48,4.802,10.829,12.759,11.663,14.495
				c0,0-5.654-9.193-13.434-10.811C231.235,46.566,214.938,45.871,214.938,45.871"/>
			<path fill="#75654E" d="M169.947,34.958c9.57-11.559,15.44-13.022,18.362-11.849c0,0,1.143,1.135-0.184,2.959
				c0,0,0.979-2.245-1.152-1.495C184.842,25.326,178.213,27.191,169.947,34.958"/>
			<path fill="#75654E" d="M153.914,19.299c-0.684-1.494,14.399-6.632,17.061-4.95c0,0,0.92,1.327-0.719,2.875
				c0,0,1.368-2.025-0.861-1.674C167.16,15.903,162.906,15.569,153.914,19.299"/>
			<path fill="#4C3617" d="M188.727,57.416c-0.392,0.006-6.313,4.467-9.832,5.401c-3.517,0.935-20.044-2.208-24.791-7.459
				c-3.686-4.079-12.794-19.833-0.967-31.52c-0.092,0.071-0.172,0.13-0.286,0.227c-2.513,2.143-10.469,10.93-9.148,22.851
				c1.525,13.759,16.538,22.214,35.633,18.843C187.248,63.667,188.561,58.855,188.727,57.416"/>
			<path fill="#75654E" d="M190.767,33.403c11.809-11.311,24.797-8.599,25.699-8.027c0,0-0.813,1.143-1.623,1.627
				c-0.809,0.483-0.015-0.665-0.015-0.665S207.023,25.036,190.767,33.403"/>
			<path opacity="0.2" enable-background="new    " d="M310.363,239.584c0,0,2.858,7.594,2.858,10.721
				c0,3.128,8.967,17.931,12.927,21.478c3.962,3.544,25.647,21.474,28.565,24.188c2.919,2.71,23.978,28.771,27.522,31.483
				c3.545,2.71,13.97,14.177,15.221,17.097c1.252,2.921,9.177,31.276,11.26,37.532c2.085,6.254,15.077,46.482,15.077,46.482
				s-0.872-5.471-2.503-12.882c-3.193-14.507-8.373-36.584-9.203-40.586c-1.251-6.049-3.264-15.773-4.223-20.774
				c-0.458-2.397-1.141-12.311-4.469-16.39c-0.998-1.227-2.357-2.061-4.395-3.782c-8.695-7.355-11.029-10.507-13.137-12.78
				c-2.27-2.441-13.227-15.765-20.549-22.593c-7.324-6.831-33.542-31.545-34.248-32.151c-1.288-1.11-7.824-7.722-7.824-7.722
				s-2.746-8.913-3.27-11.345c-0.523-2.435-0.51-10.071-3.528-11.298C313.949,235.247,310.363,239.584,310.363,239.584"/>
		</g>
	</g>
</g>
</svg>
