<?xml version="1.0" encoding="utf-8"?>
<!-- Generator: Adobe Illustrator 17.0.0, SVG Export Plug-In . SVG Version: 6.00 Build 0)  -->
<!DOCTYPE svg PUBLIC "-//W3C//DTD SVG 1.1//EN" "http://www.w3.org/Graphics/SVG/1.1/DTD/svg11.dtd" [
	<!ENTITY ns_extend "http://ns.adobe.com/Extensibility/1.0/">
	<!ENTITY ns_ai "http://ns.adobe.com/AdobeIllustrator/10.0/">
	<!ENTITY ns_graphs "http://ns.adobe.com/Graphs/1.0/">
	<!ENTITY ns_vars "http://ns.adobe.com/Variables/1.0/">
	<!ENTITY ns_imrep "http://ns.adobe.com/ImageReplacement/1.0/">
	<!ENTITY ns_sfw "http://ns.adobe.com/SaveForWeb/1.0/">
	<!ENTITY ns_custom "http://ns.adobe.com/GenericCustomNamespace/1.0/">
	<!ENTITY ns_adobe_xpath "http://ns.adobe.com/XPath/1.0/">
]>
<svg version="1.1" id="Capa_1" xmlns:x="&ns_extend;" xmlns:i="&ns_ai;" xmlns:graph="&ns_graphs;"
	 xmlns="http://www.w3.org/2000/svg" xmlns:xlink="http://www.w3.org/1999/xlink" x="0px" y="0px" width="484.088px"
	 height="553.885px" viewBox="0 0 484.088 553.885" enable-background="new 0 0 484.088 553.885" xml:space="preserve">
<metadata>
	<sfw  xmlns="&ns_sfw;">
		<slices></slices>
		<sliceSourceBounds  width="484.088" height="553.884" x="440.456" y="473.558" bottomLeftOrigin="true"></sliceSourceBounds>
	</sfw>
</metadata>
<g>
	<g>
		<path fill="#F9A86C" stroke="#6B452A" stroke-miterlimit="10" d="M190.883,308.449c-0.159-0.401-0.342-0.803-0.551-1.2
			l-3.554-6.744c-3.183-6.039-6.321-16.54-6.974-23.337l-3.49-36.331c-0.653-6.798-1.821-14.398-2.596-16.898
			c-0.774-2.498-2.175-4.304-3.112-4.014c-0.937,0.289-6.04-2.993-11.339-7.296l-15.67-12.726c-5.3-4.303-11.98-4.996-14.844-1.54
			c-2.865,3.454-2.54,11.191,0.722,17.188l2.622,4.82c3.263,5.997,5.866,16.487,5.786,23.316l-0.185,15.778
			c-0.08,6.828,3.044,16.998,6.943,22.6l0.424,0.611c3.899,5.606,9.485,15.235,12.414,21.401l5.495,11.568l11.207,29.014
			l35.149-10.905L190.883,308.449z"/>
		<g>
			<g>
				<path fill="#5B5B5B" stroke="#5B5B5B" stroke-width="1.3547" stroke-miterlimit="10" d="M162.527,272.245
					c1.392,4.488-1.141,9.3-5.629,10.692L39.175,319.452c-4.488,1.391-9.299-1.14-10.692-5.629L1.06,225.409
					c-1.393-4.487,1.141-9.3,5.628-10.69l117.724-36.517c4.488-1.392,9.299,1.144,10.69,5.628L162.527,272.245z"/>
				
					<rect x="22.946" y="204.999" transform="matrix(-0.9551 0.2962 -0.2962 -0.9551 233.2442 461.5383)" fill="#FFFFFF" width="117.427" height="86.878"/>
			</g>
		</g>
		<g>
			<g>
				<path fill="#FFCD07" d="M72.638,226.017c-1.657,0.536-2.955,1.775-3.564,3.401c-1.094,2.923,0.394,6.196,3.317,7.286
					c1.211,0.457,2.501,0.486,3.728,0.09c1.656-0.538,2.953-1.777,3.561-3.405c1.093-2.923-0.394-6.195-3.315-7.286
					C75.153,225.647,73.864,225.617,72.638,226.017"/>
				<path fill="#154A8B" d="M80.063,248.97c-3.948,1.28-8.268,1.183-12.156-0.273c-9.535-3.569-14.389-14.229-10.822-23.763
					c1.988-5.307,6.218-9.351,11.608-11.096c3.949-1.28,8.267-1.182,12.157,0.275c4.619,1.728,8.287,5.15,10.33,9.64
					c0.975,2.138,1.526,4.395,1.646,6.709c0.074,1.443-0.024,2.9-0.293,4.323c-0.126,0.658-0.758,1.09-1.416,0.968
					c-0.66-0.122-1.09-0.758-0.969-1.415c0.233-1.235,0.322-2.498,0.256-3.751c-0.102-2.011-0.584-3.97-1.429-5.829
					c-1.775-3.898-4.965-6.876-8.976-8.375c-3.382-1.265-7.131-1.351-10.56-0.239c-4.685,1.518-8.361,5.029-10.085,9.638
					c-3.101,8.283,1.116,17.544,9.4,20.644c3.382,1.269,7.133,1.349,10.561,0.24c0.637-0.208,1.319,0.143,1.525,0.778
					C81.046,248.081,80.7,248.765,80.063,248.97"/>
				<path fill="#154A8B" d="M78.383,243.784c-2.783,0.902-5.823,0.831-8.566-0.195c-6.717-2.514-10.138-10.028-7.622-16.746
					c1.397-3.736,4.377-6.587,8.178-7.817c2.78-0.9,5.826-0.833,8.564,0.191c3.254,1.221,5.843,3.631,7.283,6.796
					c0.718,1.581,1.111,3.255,1.167,4.971c0.019,0.666-0.504,1.228-1.172,1.249c-0.671,0.021-1.228-0.504-1.249-1.17
					c-0.047-1.396-0.368-2.756-0.953-4.047c-1.173-2.573-3.274-4.533-5.923-5.528c-2.232-0.835-4.705-0.889-6.97-0.156
					c-3.092,1.002-5.52,3.321-6.658,6.363c-2.045,5.465,0.737,11.576,6.204,13.623c2.231,0.839,4.705,0.895,6.97,0.161
					c0.636-0.208,1.318,0.142,1.524,0.778C79.365,242.892,79.019,243.577,78.383,243.784"/>
				<circle fill="none" stroke="#FFFFFF" stroke-width="0.115" stroke-miterlimit="10" cx="74.378" cy="231.404" r="6.345"/>
				<path fill="#154A8B" d="M76.702,238.594c-1.615,0.523-3.38,0.484-4.975-0.112c-3.901-1.459-5.888-5.825-4.427-9.726
					c0.812-2.172,2.545-3.829,4.753-4.545c1.616-0.523,3.381-0.48,4.972,0.116c3.906,1.459,5.889,5.823,4.429,9.728
					C80.643,236.225,78.909,237.88,76.702,238.594 M72.8,226.518c-1.503,0.487-2.678,1.61-3.232,3.085
					c-0.991,2.65,0.358,5.618,3.01,6.608c1.096,0.409,2.265,0.44,3.377,0.078c1.499-0.486,2.677-1.609,3.23-3.087
					c0.99-2.649-0.358-5.613-3.007-6.606C75.08,226.186,73.913,226.157,72.8,226.518"/>
				<g>
					<path fill="#FFFFFF" d="M88.725,249.981c1.634-0.528,2.531-2.285,2.001-3.923l-2.454-7.574
						c-0.716-2.207-3.084-3.417-5.292-2.701l-4.052,1.303l-1.917-5.924c-0.404-1.248-1.721-1.998-2.988-1.637
						c-1.323,0.376-2.063,1.775-1.641,3.077l3.351,10.347l-1.012-1.065c-0.552-0.58-1.3-0.768-1.94-0.562
						c-0.299,0.098-0.569,0.277-0.79,0.537c-0.7,0.836-0.616,2.2,0.193,3.05c0,0,3.508,4.023,5.925,6.621
						c0.82,0.887,2.083,1.217,3.236,0.842L88.725,249.981z"/>
					<path fill="none" stroke="#000101" stroke-width="1.714" stroke-miterlimit="10" d="M88.725,249.981
						c1.634-0.528,2.531-2.285,2.001-3.923l-2.454-7.574c-0.716-2.207-3.084-3.417-5.292-2.701l-4.052,1.303l-1.917-5.924
						c-0.404-1.248-1.721-1.998-2.988-1.637c-1.323,0.376-2.063,1.775-1.641,3.077l3.351,10.347l-1.012-1.065
						c-0.552-0.58-1.3-0.768-1.94-0.562c-0.299,0.098-0.569,0.277-0.79,0.537c-0.7,0.836-0.616,2.2,0.193,3.05
						c0,0,3.508,4.023,5.925,6.621c0.82,0.887,2.083,1.217,3.236,0.842L88.725,249.981z"/>
				</g>
			</g>
			<g>
				<path fill="#000101" d="M42.142,279.646l1.154-0.076c0.06,0.949-0.126,1.746-0.558,2.395c-0.432,0.647-1.067,1.108-1.906,1.38
					c-0.869,0.281-1.632,0.333-2.291,0.156c-0.659-0.179-1.239-0.556-1.74-1.135s-0.876-1.253-1.125-2.022
					c-0.272-0.839-0.349-1.622-0.23-2.352c0.118-0.729,0.421-1.351,0.908-1.866c0.487-0.517,1.085-0.891,1.797-1.12
					c0.806-0.262,1.55-0.275,2.233-0.043c0.683,0.233,1.252,0.686,1.71,1.359l-0.97,0.587c-0.376-0.525-0.786-0.864-1.228-1.017
					s-0.933-0.142-1.471,0.033c-0.619,0.2-1.089,0.517-1.408,0.948c-0.32,0.432-0.483,0.925-0.49,1.479
					c-0.006,0.555,0.076,1.098,0.249,1.63c0.222,0.686,0.516,1.25,0.881,1.697c0.365,0.446,0.799,0.728,1.302,0.844
					c0.504,0.116,1.001,0.096,1.492-0.063c0.597-0.193,1.047-0.53,1.35-1.008C42.1,280.974,42.215,280.372,42.142,279.646z"/>
				<path fill="#000101" d="M44.962,281.854l-2.61-8.059l0.99-0.32l2.61,8.059L44.962,281.854z"/>
				<path fill="#000101" d="M44.922,274.221l-0.369-1.139l0.99-0.32l0.369,1.139L44.922,274.221z M47.164,281.141l-1.891-5.838
					l0.99-0.32l1.891,5.838L47.164,281.141z"/>
				<path fill="#000101" d="M52.45,277.065l1.014-0.189c0.111,0.705,0.009,1.319-0.306,1.841c-0.315,0.521-0.792,0.885-1.429,1.091
					c-0.799,0.259-1.526,0.206-2.18-0.159c-0.655-0.364-1.14-1.034-1.456-2.009c-0.204-0.63-0.278-1.216-0.222-1.757
					s0.259-0.998,0.609-1.373c0.351-0.373,0.776-0.643,1.279-0.806c0.634-0.205,1.204-0.213,1.712-0.022
					c0.507,0.19,0.913,0.562,1.217,1.114l-0.914,0.46c-0.219-0.361-0.476-0.604-0.773-0.726c-0.296-0.123-0.61-0.132-0.94-0.025
					c-0.499,0.162-0.846,0.472-1.041,0.93c-0.196,0.459-0.168,1.074,0.082,1.847c0.254,0.784,0.589,1.306,1.004,1.564
					c0.416,0.258,0.865,0.309,1.349,0.152c0.388-0.126,0.674-0.351,0.857-0.673C52.494,278.003,52.541,277.583,52.45,277.065z"/>
				<path fill="#000101" d="M56.476,276.198l0.929-0.471c0.182,0.375,0.432,0.625,0.751,0.753s0.703,0.118,1.154-0.027
					c0.454-0.147,0.762-0.349,0.922-0.604c0.16-0.257,0.199-0.51,0.118-0.76c-0.072-0.223-0.226-0.367-0.462-0.433
					c-0.164-0.043-0.538-0.046-1.12-0.008c-0.785,0.052-1.339,0.058-1.663,0.015s-0.596-0.16-0.818-0.35
					c-0.221-0.189-0.378-0.427-0.471-0.713c-0.084-0.261-0.103-0.521-0.055-0.781c0.047-0.261,0.15-0.496,0.308-0.71
					c0.117-0.163,0.296-0.327,0.536-0.491c0.24-0.165,0.512-0.298,0.816-0.396c0.458-0.148,0.882-0.213,1.271-0.193
					c0.389,0.02,0.703,0.116,0.94,0.288c0.238,0.172,0.449,0.437,0.634,0.795l-0.925,0.445c-0.141-0.287-0.345-0.48-0.61-0.581
					c-0.265-0.1-0.59-0.088-0.975,0.037c-0.454,0.146-0.754,0.327-0.9,0.54s-0.186,0.421-0.12,0.623
					c0.042,0.128,0.119,0.23,0.233,0.307c0.115,0.08,0.27,0.127,0.465,0.141c0.111,0.005,0.429-0.005,0.956-0.03
					c0.76-0.039,1.299-0.044,1.614-0.016c0.315,0.029,0.588,0.133,0.82,0.309s0.402,0.434,0.51,0.771
					c0.107,0.33,0.111,0.671,0.013,1.025c-0.098,0.353-0.302,0.668-0.614,0.946c-0.311,0.275-0.696,0.488-1.154,0.637
					c-0.759,0.246-1.388,0.274-1.888,0.089C57.192,277.167,56.787,276.782,56.476,276.198z"/>
				<path fill="#000101" d="M61.425,273.296c-0.35-1.08-0.309-1.979,0.124-2.693c0.362-0.596,0.904-1.01,1.625-1.244
					c0.803-0.26,1.544-0.209,2.224,0.151c0.679,0.362,1.169,1.006,1.469,1.932c0.243,0.752,0.322,1.379,0.236,1.883
					s-0.306,0.944-0.659,1.322c-0.353,0.377-0.785,0.648-1.294,0.813c-0.817,0.265-1.563,0.217-2.236-0.145
					C62.241,274.956,61.745,274.281,61.425,273.296z M62.442,272.967c0.242,0.748,0.586,1.254,1.033,1.521
					c0.447,0.266,0.917,0.318,1.412,0.158c0.491-0.159,0.839-0.478,1.044-0.957c0.205-0.48,0.183-1.103-0.064-1.868
					c-0.234-0.723-0.575-1.216-1.023-1.48c-0.449-0.268-0.917-0.32-1.404-0.163c-0.495,0.16-0.845,0.478-1.051,0.955
					C62.182,271.607,62.2,272.22,62.442,272.967z"/>
				<path fill="#000101" d="M69.586,273.878l-0.918,0.297l-2.61-8.059l0.99-0.32l0.931,2.876c0.248-0.659,0.696-1.095,1.345-1.305
					c0.359-0.116,0.722-0.154,1.09-0.113c0.367,0.041,0.697,0.159,0.989,0.354s0.556,0.459,0.794,0.792
					c0.237,0.331,0.424,0.708,0.561,1.13c0.324,0.999,0.327,1.854,0.009,2.559c-0.318,0.707-0.823,1.172-1.515,1.396
					c-0.689,0.224-1.323,0.11-1.901-0.338L69.586,273.878z M68.615,270.919c0.227,0.7,0.486,1.175,0.777,1.425
					c0.476,0.408,0.98,0.526,1.512,0.354c0.432-0.141,0.745-0.449,0.939-0.927c0.193-0.478,0.17-1.089-0.072-1.833
					c-0.247-0.762-0.58-1.275-1-1.54c-0.42-0.266-0.844-0.328-1.273-0.189c-0.433,0.14-0.746,0.448-0.939,0.928
					C68.367,269.613,68.385,270.208,68.615,270.919z"/>
				<path fill="#000101" d="M74.597,272.255l-1.891-5.838l0.891-0.288l0.287,0.885c0.093-0.488,0.214-0.829,0.364-1.023
					s0.34-0.328,0.571-0.403c0.333-0.107,0.707-0.111,1.121-0.01l-0.043,1.028c-0.288-0.065-0.553-0.059-0.795,0.021
					c-0.216,0.069-0.389,0.198-0.519,0.384s-0.194,0.406-0.193,0.661c0.003,0.387,0.073,0.79,0.208,1.207l0.99,3.057L74.597,272.255
					z"/>
				<path fill="#000101" d="M81.418,267.969l1.064-0.204c0.032,0.649-0.117,1.208-0.446,1.68c-0.329,0.471-0.833,0.816-1.51,1.036
					c-0.854,0.276-1.616,0.233-2.287-0.131c-0.671-0.363-1.159-1.02-1.467-1.97c-0.318-0.981-0.312-1.825,0.018-2.532
					c0.33-0.706,0.898-1.189,1.704-1.451c0.781-0.253,1.504-0.193,2.171,0.178s1.156,1.039,1.468,2.003
					c0.019,0.059,0.046,0.146,0.08,0.266l-4.354,1.41c0.244,0.629,0.585,1.061,1.021,1.297c0.436,0.235,0.898,0.273,1.386,0.115
					c0.363-0.117,0.642-0.313,0.836-0.586S81.402,268.436,81.418,267.969z M77.651,267.421l3.26-1.056
					c-0.203-0.477-0.447-0.805-0.732-0.984c-0.439-0.278-0.909-0.337-1.411-0.174c-0.454,0.146-0.787,0.423-0.998,0.827
					C77.558,266.439,77.519,266.901,77.651,267.421z"/>
				<path fill="#000101" d="M89.883,264.94l1.014-0.188c0.111,0.705,0.009,1.318-0.306,1.84c-0.315,0.521-0.792,0.885-1.429,1.091
					c-0.799,0.259-1.526,0.206-2.18-0.158c-0.655-0.364-1.14-1.035-1.456-2.01c-0.204-0.63-0.278-1.216-0.223-1.757
					c0.056-0.54,0.259-0.998,0.609-1.372c0.35-0.374,0.776-0.644,1.278-0.806c0.634-0.206,1.205-0.214,1.712-0.022
					c0.507,0.189,0.913,0.561,1.217,1.114l-0.914,0.46c-0.219-0.362-0.476-0.604-0.773-0.727c-0.297-0.123-0.61-0.131-0.94-0.024
					c-0.499,0.161-0.846,0.472-1.041,0.93s-0.168,1.074,0.082,1.847c0.254,0.784,0.589,1.306,1.004,1.563
					c0.416,0.259,0.865,0.31,1.349,0.152c0.389-0.126,0.674-0.35,0.858-0.673C89.927,265.878,89.973,265.458,89.883,264.94z"/>
				<path fill="#000101" d="M95.645,264.643c-0.266,0.429-0.547,0.764-0.845,1.002s-0.64,0.42-1.029,0.546
					c-0.641,0.207-1.185,0.21-1.631,0.009c-0.446-0.202-0.748-0.547-0.906-1.034c-0.092-0.285-0.112-0.567-0.059-0.846
					c0.054-0.279,0.163-0.523,0.327-0.735c0.164-0.211,0.367-0.396,0.607-0.555c0.177-0.113,0.454-0.259,0.831-0.434
					c0.768-0.354,1.319-0.658,1.654-0.912c-0.041-0.137-0.066-0.223-0.078-0.26c-0.131-0.403-0.316-0.657-0.556-0.762
					c-0.325-0.142-0.737-0.131-1.236,0.03c-0.465,0.15-0.782,0.344-0.952,0.578c-0.169,0.234-0.239,0.577-0.211,1.025l-1.01,0.182
					c-0.046-0.442-0.01-0.823,0.109-1.145c0.119-0.32,0.347-0.61,0.684-0.871c0.336-0.261,0.756-0.473,1.258-0.635
					c0.498-0.162,0.923-0.233,1.272-0.217c0.35,0.015,0.626,0.089,0.831,0.219c0.204,0.13,0.379,0.321,0.526,0.574
					c0.087,0.157,0.202,0.456,0.345,0.896l0.427,1.319c0.298,0.92,0.508,1.495,0.629,1.726c0.121,0.229,0.28,0.437,0.477,0.619
					l-1.033,0.335C95.906,265.126,95.763,264.907,95.645,264.643z M94.846,262.459c-0.312,0.263-0.81,0.562-1.495,0.897
					c-0.388,0.19-0.654,0.349-0.799,0.478c-0.145,0.128-0.24,0.276-0.286,0.448c-0.046,0.17-0.041,0.341,0.015,0.514
					c0.085,0.264,0.256,0.451,0.513,0.563c0.257,0.11,0.577,0.104,0.962-0.021c0.381-0.123,0.693-0.317,0.936-0.579
					c0.243-0.264,0.387-0.562,0.433-0.896c0.034-0.259-0.02-0.605-0.161-1.041L94.846,262.459z"/>
				<path fill="#000101" d="M101.79,263.447l-0.239-0.736c-0.183,0.697-0.633,1.164-1.351,1.396
					c-0.466,0.151-0.935,0.161-1.408,0.031s-0.892-0.39-1.255-0.78s-0.642-0.886-0.835-1.482c-0.188-0.583-0.263-1.143-0.222-1.68
					c0.04-0.538,0.214-0.995,0.521-1.374c0.306-0.379,0.699-0.646,1.18-0.802c0.352-0.114,0.689-0.142,1.012-0.082
					s0.609,0.181,0.858,0.363l-0.937-2.892l0.984-0.319l2.61,8.059L101.79,263.447z M97.719,261.547
					c0.242,0.747,0.581,1.255,1.016,1.523s0.867,0.332,1.296,0.193c0.432-0.14,0.743-0.436,0.93-0.887
					c0.188-0.452,0.165-1.041-0.071-1.767c-0.259-0.799-0.603-1.335-1.031-1.609c-0.429-0.274-0.869-0.338-1.32-0.191
					c-0.44,0.143-0.749,0.439-0.927,0.896C97.433,260.16,97.469,260.773,97.719,261.547z"/>
				<path fill="#000101" d="M107.513,260.798c-0.266,0.43-0.547,0.765-0.844,1.002c-0.297,0.238-0.64,0.42-1.029,0.546
					c-0.641,0.208-1.185,0.21-1.631,0.009s-0.748-0.546-0.906-1.033c-0.092-0.285-0.112-0.568-0.059-0.847
					c0.054-0.278,0.163-0.523,0.327-0.735c0.164-0.21,0.367-0.395,0.607-0.555c0.177-0.113,0.454-0.258,0.831-0.433
					c0.768-0.354,1.32-0.658,1.654-0.913c-0.04-0.137-0.066-0.222-0.078-0.259c-0.131-0.403-0.316-0.657-0.556-0.762
					c-0.325-0.143-0.737-0.132-1.236,0.029c-0.465,0.151-0.782,0.345-0.951,0.578c-0.169,0.235-0.239,0.577-0.211,1.025l-1.01,0.182
					c-0.046-0.442-0.01-0.823,0.109-1.145c0.119-0.32,0.347-0.609,0.684-0.871c0.336-0.261,0.756-0.473,1.258-0.635
					c0.498-0.161,0.922-0.233,1.272-0.217c0.349,0.016,0.626,0.09,0.83,0.219c0.204,0.13,0.38,0.321,0.526,0.574
					c0.087,0.157,0.203,0.457,0.345,0.896l0.427,1.319c0.298,0.92,0.507,1.495,0.629,1.726c0.121,0.229,0.28,0.436,0.477,0.619
					l-1.033,0.334C107.775,261.281,107.632,261.063,107.513,260.798z M106.715,258.614c-0.312,0.264-0.81,0.562-1.495,0.897
					c-0.388,0.19-0.654,0.35-0.799,0.479c-0.145,0.128-0.24,0.276-0.286,0.447c-0.046,0.171-0.041,0.342,0.015,0.515
					c0.085,0.264,0.256,0.451,0.513,0.563c0.257,0.11,0.577,0.104,0.962-0.02c0.381-0.124,0.693-0.317,0.936-0.58
					c0.242-0.263,0.387-0.561,0.432-0.896c0.034-0.259-0.02-0.605-0.161-1.041L106.715,258.614z"/>
				<path fill="#000101" d="M113.586,259.626l-0.918,0.298l-2.61-8.059l0.99-0.32l0.931,2.876c0.248-0.66,0.696-1.096,1.345-1.306
					c0.359-0.116,0.722-0.154,1.09-0.113c0.367,0.042,0.697,0.159,0.989,0.354s0.556,0.458,0.794,0.791
					c0.237,0.331,0.424,0.709,0.561,1.131c0.324,0.999,0.327,1.854,0.009,2.559c-0.318,0.706-0.823,1.172-1.515,1.396
					c-0.689,0.223-1.323,0.109-1.901-0.339L113.586,259.626z M112.615,256.667c0.227,0.7,0.486,1.176,0.777,1.425
					c0.476,0.408,0.98,0.526,1.512,0.354c0.432-0.14,0.745-0.448,0.939-0.927c0.193-0.477,0.17-1.089-0.072-1.833
					c-0.247-0.762-0.58-1.275-1-1.539c-0.42-0.266-0.844-0.329-1.273-0.19c-0.433,0.141-0.746,0.449-0.939,0.928
					C112.366,255.362,112.385,255.956,112.615,256.667z"/>
				<path fill="#000101" d="M117.294,255.2c-0.35-1.08-0.309-1.979,0.124-2.693c0.362-0.597,0.903-1.011,1.625-1.244
					c0.802-0.26,1.544-0.209,2.224,0.151c0.679,0.361,1.169,1.006,1.47,1.932c0.243,0.752,0.322,1.379,0.236,1.883
					s-0.306,0.944-0.659,1.321c-0.354,0.378-0.785,0.649-1.294,0.814c-0.817,0.265-1.563,0.217-2.236-0.145
					C118.11,256.859,117.613,256.186,117.294,255.2z M118.311,254.871c0.242,0.748,0.586,1.254,1.033,1.521s0.917,0.319,1.412,0.159
					c0.491-0.159,0.839-0.478,1.044-0.958c0.205-0.479,0.183-1.102-0.065-1.867c-0.234-0.723-0.575-1.216-1.023-1.481
					c-0.448-0.267-0.917-0.32-1.404-0.162c-0.495,0.16-0.845,0.478-1.051,0.954C118.051,253.512,118.069,254.124,118.311,254.871z"
					/>
				<path fill="#000101" d="M126.415,254.492l0.426,0.829c-0.26,0.148-0.499,0.259-0.719,0.33c-0.359,0.116-0.656,0.149-0.891,0.1
					c-0.234-0.05-0.422-0.153-0.563-0.313c-0.14-0.158-0.307-0.534-0.499-1.128l-1.088-3.358l-0.726,0.235l-0.25-0.771l0.726-0.235
					l-0.468-1.445l0.792-0.912l0.66,2.039l0.995-0.322l0.25,0.771l-0.995,0.322l1.105,3.413c0.092,0.282,0.167,0.457,0.229,0.527
					c0.061,0.069,0.138,0.115,0.233,0.137c0.094,0.022,0.215,0.01,0.361-0.038C126.104,254.637,126.244,254.577,126.415,254.492z"/>
				<path fill="#000101" d="M126.029,252.371c-0.35-1.08-0.309-1.979,0.124-2.693c0.362-0.597,0.904-1.011,1.625-1.244
					c0.802-0.261,1.544-0.209,2.224,0.151c0.679,0.361,1.169,1.006,1.469,1.932c0.243,0.752,0.322,1.379,0.236,1.883
					c-0.086,0.503-0.306,0.943-0.659,1.321s-0.785,0.649-1.294,0.814c-0.817,0.265-1.563,0.217-2.236-0.145
					C126.845,254.03,126.349,253.356,126.029,252.371z M127.046,252.041c0.242,0.748,0.586,1.254,1.033,1.521
					c0.446,0.267,0.917,0.319,1.412,0.159c0.491-0.159,0.839-0.479,1.044-0.958c0.205-0.479,0.183-1.102-0.064-1.867
					c-0.234-0.723-0.575-1.217-1.024-1.481c-0.448-0.267-0.917-0.32-1.404-0.162c-0.495,0.16-0.845,0.478-1.051,0.954
					C126.786,250.682,126.805,251.294,127.046,252.041z M127.037,248.018l0.233-1.776l1.297-0.42l-0.711,1.931L127.037,248.018z"/>
				<path fill="#000101" d="M133.278,253.248l-1.891-5.838l0.89-0.288l0.269,0.83c0.221-0.779,0.736-1.302,1.546-1.564
					c0.352-0.113,0.696-0.155,1.032-0.123c0.336,0.03,0.61,0.124,0.823,0.282c0.213,0.157,0.395,0.367,0.545,0.631
					c0.096,0.172,0.218,0.486,0.366,0.944l1.163,3.59l-0.99,0.32l-1.15-3.551c-0.131-0.403-0.267-0.691-0.408-0.867
					c-0.142-0.174-0.33-0.29-0.564-0.346c-0.235-0.055-0.484-0.041-0.748,0.045c-0.421,0.137-0.742,0.388-0.961,0.755
					c-0.219,0.366-0.208,0.924,0.034,1.671l1.033,3.188L133.278,253.248z"/>
				<path fill="#000101" d="M42.439,300.069l-2.615-8.075l0.902-0.292l0.246,0.76c0.116-0.367,0.284-0.667,0.504-0.901
					c0.219-0.236,0.52-0.416,0.901-0.539c0.498-0.161,0.98-0.175,1.444-0.042c0.464,0.134,0.869,0.402,1.215,0.806
					c0.345,0.405,0.608,0.886,0.789,1.443c0.193,0.597,0.26,1.169,0.201,1.716c-0.059,0.548-0.252,1.017-0.578,1.403
					c-0.327,0.387-0.715,0.653-1.166,0.8c-0.33,0.106-0.648,0.132-0.956,0.078c-0.307-0.055-0.579-0.161-0.817-0.319l0.92,2.842
					L42.439,300.069z M41.676,294.656c0.243,0.75,0.575,1.257,0.996,1.517c0.42,0.262,0.847,0.321,1.279,0.182
					c0.44-0.143,0.756-0.45,0.949-0.924s0.163-1.101-0.09-1.881c-0.241-0.744-0.574-1.251-1-1.522s-0.852-0.337-1.276-0.199
					c-0.422,0.137-0.731,0.453-0.927,0.953C41.409,293.28,41.432,293.904,41.676,294.656z"/>
				<path fill="#000101" d="M51.225,293.956c-0.266,0.43-0.547,0.764-0.844,1.003c-0.298,0.237-0.641,0.42-1.029,0.546
					c-0.641,0.207-1.185,0.21-1.631,0.008c-0.446-0.201-0.748-0.546-0.906-1.034c-0.093-0.285-0.112-0.566-0.058-0.846
					c0.053-0.277,0.162-0.523,0.327-0.734c0.165-0.212,0.367-0.396,0.607-0.555c0.177-0.113,0.454-0.26,0.831-0.434
					c0.768-0.354,1.319-0.658,1.654-0.912c-0.04-0.137-0.066-0.224-0.078-0.261c-0.131-0.403-0.316-0.657-0.556-0.761
					c-0.325-0.143-0.737-0.132-1.235,0.029c-0.466,0.15-0.783,0.344-0.952,0.578c-0.169,0.235-0.239,0.578-0.211,1.025l-1.01,0.182
					c-0.046-0.441-0.01-0.823,0.109-1.144s0.347-0.611,0.683-0.872c0.337-0.26,0.756-0.473,1.258-0.635
					c0.498-0.162,0.923-0.233,1.272-0.217s0.626,0.089,0.83,0.22c0.204,0.129,0.379,0.321,0.526,0.574
					c0.087,0.157,0.203,0.456,0.345,0.896l0.427,1.319c0.298,0.919,0.507,1.494,0.629,1.725c0.121,0.229,0.28,0.437,0.477,0.619
					l-1.033,0.335C51.487,294.439,51.344,294.222,51.225,293.956z M50.427,291.772c-0.312,0.263-0.81,0.563-1.495,0.897
					c-0.388,0.19-0.654,0.35-0.799,0.478s-0.24,0.277-0.286,0.448c-0.046,0.171-0.041,0.342,0.015,0.515
					c0.085,0.264,0.256,0.45,0.513,0.563c0.256,0.111,0.577,0.104,0.962-0.021c0.381-0.123,0.693-0.316,0.936-0.579
					c0.243-0.264,0.387-0.562,0.432-0.896c0.034-0.258-0.02-0.605-0.161-1.041L50.427,291.772z"/>
				<path fill="#000101" d="M53.572,293.991l-1.891-5.838l0.891-0.289l0.287,0.886c0.093-0.487,0.214-0.829,0.364-1.023
					c0.15-0.193,0.34-0.329,0.571-0.403c0.333-0.108,0.707-0.11,1.121-0.01l-0.043,1.028c-0.288-0.064-0.553-0.058-0.795,0.021
					c-0.216,0.07-0.389,0.197-0.519,0.384s-0.195,0.405-0.193,0.661c0.004,0.387,0.074,0.789,0.209,1.207l0.99,3.056L53.572,293.991
					z"/>
				<path fill="#000101" d="M60.582,290.925c-0.266,0.431-0.547,0.765-0.845,1.003s-0.64,0.42-1.029,0.546
					c-0.641,0.208-1.185,0.21-1.631,0.009s-0.748-0.546-0.906-1.034c-0.093-0.285-0.112-0.567-0.059-0.847
					c0.054-0.277,0.163-0.522,0.327-0.733c0.165-0.212,0.367-0.396,0.607-0.555c0.177-0.114,0.455-0.26,0.831-0.434
					c0.768-0.354,1.32-0.658,1.654-0.912c-0.04-0.138-0.066-0.224-0.078-0.261c-0.131-0.403-0.316-0.657-0.556-0.761
					c-0.325-0.143-0.737-0.133-1.236,0.029c-0.465,0.15-0.782,0.344-0.951,0.577c-0.169,0.236-0.239,0.578-0.211,1.026l-1.01,0.182
					c-0.046-0.442-0.01-0.824,0.109-1.145c0.119-0.319,0.347-0.61,0.683-0.871s0.756-0.473,1.258-0.636
					c0.498-0.161,0.923-0.232,1.272-0.217c0.349,0.017,0.626,0.09,0.83,0.22c0.204,0.13,0.379,0.322,0.526,0.574
					c0.087,0.157,0.203,0.457,0.345,0.896l0.427,1.319c0.298,0.919,0.507,1.494,0.628,1.725c0.121,0.229,0.28,0.436,0.477,0.619
					l-1.033,0.335C60.844,291.409,60.7,291.191,60.582,290.925z M59.784,288.742c-0.312,0.263-0.81,0.562-1.495,0.897
					c-0.388,0.19-0.654,0.35-0.799,0.478s-0.24,0.277-0.286,0.447c-0.046,0.172-0.041,0.343,0.015,0.516
					c0.085,0.264,0.256,0.45,0.513,0.563c0.257,0.11,0.577,0.104,0.962-0.021c0.381-0.124,0.693-0.316,0.936-0.58
					c0.242-0.263,0.387-0.561,0.432-0.896c0.034-0.259-0.02-0.605-0.161-1.041L59.784,288.742z"/>
				<path fill="#000101" d="M65.742,290.049l-1.891-5.838l0.885-0.286l0.265,0.819c0.09-0.346,0.26-0.654,0.507-0.927
					c0.248-0.271,0.566-0.472,0.955-0.598c0.432-0.141,0.816-0.165,1.151-0.075c0.335,0.091,0.611,0.278,0.829,0.564
					c0.241-0.832,0.731-1.368,1.472-1.607c0.579-0.188,1.076-0.171,1.491,0.049s0.731,0.663,0.947,1.33l1.298,4.007l-0.984,0.318
					l-1.191-3.677c-0.128-0.396-0.253-0.67-0.373-0.823c-0.121-0.154-0.283-0.257-0.486-0.308c-0.203-0.052-0.418-0.042-0.645,0.032
					c-0.411,0.133-0.707,0.38-0.89,0.741s-0.177,0.843,0.018,1.442l1.099,3.392l-0.989,0.32l-1.229-3.793
					c-0.142-0.439-0.33-0.743-0.563-0.911c-0.232-0.167-0.532-0.192-0.898-0.073c-0.279,0.09-0.512,0.246-0.701,0.471
					c-0.189,0.223-0.291,0.493-0.306,0.809c-0.015,0.317,0.064,0.741,0.236,1.272l0.981,3.028L65.742,290.049z"/>
				<path fill="#000101" d="M78.369,285.164c-0.266,0.43-0.547,0.764-0.844,1.003c-0.297,0.237-0.64,0.42-1.029,0.546
					c-0.641,0.207-1.185,0.21-1.631,0.008c-0.446-0.201-0.748-0.545-0.906-1.033c-0.093-0.285-0.112-0.567-0.059-0.847
					c0.054-0.277,0.163-0.523,0.327-0.734c0.165-0.212,0.367-0.396,0.607-0.555c0.177-0.113,0.455-0.259,0.831-0.434
					c0.768-0.354,1.32-0.658,1.654-0.912c-0.04-0.137-0.066-0.224-0.078-0.261c-0.131-0.403-0.316-0.657-0.556-0.761
					c-0.325-0.143-0.737-0.132-1.236,0.029c-0.465,0.151-0.782,0.344-0.951,0.578c-0.169,0.236-0.239,0.578-0.211,1.025l-1.01,0.182
					c-0.046-0.441-0.01-0.823,0.109-1.144s0.347-0.61,0.683-0.872c0.337-0.26,0.756-0.473,1.258-0.635
					c0.498-0.162,0.922-0.233,1.272-0.217c0.349,0.017,0.626,0.09,0.83,0.22c0.204,0.129,0.379,0.321,0.526,0.574
					c0.087,0.157,0.203,0.456,0.345,0.896l0.427,1.319c0.298,0.919,0.507,1.494,0.629,1.725c0.121,0.229,0.28,0.437,0.477,0.62
					l-1.033,0.334C78.631,285.647,78.487,285.43,78.369,285.164z M74.47,279.97l0.233-1.774l1.297-0.42l-0.711,1.93L74.47,279.97z
					 M77.571,282.98c-0.312,0.263-0.81,0.563-1.495,0.897c-0.388,0.19-0.654,0.351-0.799,0.479c-0.145,0.127-0.24,0.277-0.286,0.447
					c-0.046,0.171-0.041,0.342,0.015,0.516c0.085,0.264,0.256,0.449,0.513,0.562c0.257,0.111,0.577,0.104,0.962-0.021
					c0.381-0.123,0.693-0.315,0.936-0.579c0.242-0.263,0.387-0.562,0.432-0.896c0.034-0.258-0.02-0.605-0.161-1.041L77.571,282.98z"
					/>
				<path fill="#000101" d="M79.767,283.581l0.929-0.47c0.182,0.374,0.432,0.625,0.751,0.753c0.319,0.127,0.703,0.117,1.154-0.029
					c0.454-0.146,0.762-0.348,0.922-0.604c0.16-0.258,0.199-0.509,0.119-0.759c-0.072-0.223-0.226-0.367-0.462-0.434
					c-0.164-0.044-0.538-0.047-1.12-0.008c-0.785,0.052-1.339,0.057-1.663,0.014s-0.596-0.158-0.818-0.349
					c-0.221-0.189-0.378-0.427-0.471-0.713c-0.084-0.26-0.103-0.521-0.055-0.781c0.047-0.26,0.15-0.497,0.308-0.71
					c0.117-0.163,0.296-0.327,0.536-0.492c0.24-0.165,0.512-0.297,0.816-0.396c0.458-0.148,0.881-0.213,1.271-0.192
					c0.389,0.02,0.703,0.116,0.94,0.287c0.238,0.173,0.449,0.437,0.634,0.794l-0.925,0.445c-0.141-0.286-0.345-0.479-0.61-0.58
					c-0.265-0.1-0.59-0.088-0.975,0.037c-0.455,0.147-0.754,0.327-0.9,0.541c-0.146,0.212-0.186,0.42-0.12,0.621
					c0.042,0.128,0.119,0.23,0.233,0.307c0.115,0.081,0.27,0.129,0.465,0.141c0.111,0.006,0.429-0.004,0.956-0.028
					c0.76-0.041,1.298-0.046,1.614-0.016c0.315,0.029,0.588,0.132,0.82,0.309c0.231,0.175,0.401,0.432,0.51,0.769
					c0.107,0.33,0.111,0.672,0.013,1.026c-0.098,0.353-0.303,0.668-0.614,0.945s-0.696,0.49-1.154,0.639
					c-0.759,0.245-1.388,0.274-1.887,0.088C80.482,284.551,80.077,284.165,79.767,283.581z"/>
				<path fill="#000101" d="M86.595,275.648l-0.369-1.138l0.989-0.32l0.369,1.138L86.595,275.648z M88.836,282.568l-1.891-5.838
					l0.989-0.32l1.891,5.838L88.836,282.568z"/>
				<path fill="#000101" d="M91.005,281.866l-1.891-5.838l0.891-0.288l0.269,0.831c0.221-0.781,0.736-1.303,1.546-1.565
					c0.352-0.113,0.696-0.155,1.032-0.123c0.336,0.031,0.61,0.125,0.823,0.282s0.395,0.368,0.544,0.632
					c0.096,0.171,0.218,0.486,0.367,0.944l1.163,3.589l-0.99,0.32l-1.15-3.551c-0.131-0.402-0.267-0.691-0.408-0.866
					s-0.33-0.29-0.564-0.346s-0.484-0.042-0.748,0.044c-0.421,0.137-0.742,0.388-0.961,0.755c-0.219,0.366-0.208,0.925,0.034,1.671
					l1.033,3.188L91.005,281.866z"/>
				<path fill="#000101" d="M97.176,279.867l-1.641-5.067l-0.874,0.283l-0.25-0.771l0.874-0.283l-0.201-0.62
					c-0.127-0.393-0.187-0.694-0.178-0.907c0.012-0.288,0.112-0.55,0.301-0.787c0.188-0.237,0.499-0.426,0.931-0.566
					c0.278-0.09,0.597-0.156,0.955-0.199l0.131,0.91c-0.217,0.029-0.417,0.074-0.601,0.134c-0.3,0.097-0.492,0.231-0.575,0.399
					s-0.068,0.429,0.046,0.78l0.174,0.538l1.138-0.368l0.25,0.771l-1.138,0.368l1.641,5.067L97.176,279.867z"/>
				<path fill="#000101" d="M98.427,276.237c-0.35-1.08-0.309-1.979,0.124-2.693c0.362-0.596,0.904-1.011,1.626-1.244
					c0.802-0.26,1.544-0.209,2.223,0.152c0.68,0.36,1.17,1.005,1.47,1.932c0.243,0.751,0.322,1.378,0.236,1.883
					c-0.086,0.503-0.306,0.943-0.659,1.32c-0.354,0.379-0.785,0.65-1.294,0.815c-0.817,0.265-1.563,0.216-2.236-0.145
					C99.243,277.897,98.746,277.224,98.427,276.237z M99.444,275.907c0.243,0.748,0.587,1.255,1.033,1.521
					c0.447,0.267,0.917,0.319,1.412,0.159c0.491-0.159,0.839-0.479,1.044-0.957c0.205-0.48,0.184-1.103-0.064-1.868
					c-0.234-0.722-0.575-1.216-1.023-1.481c-0.449-0.266-0.917-0.32-1.404-0.162c-0.495,0.16-0.845,0.479-1.052,0.954
					C99.184,274.549,99.202,275.161,99.444,275.907z"/>
				<path fill="#000101" d="M105.665,277.118l-1.891-5.838l0.891-0.288l0.287,0.886c0.093-0.488,0.214-0.829,0.364-1.023
					s0.34-0.329,0.571-0.404c0.333-0.107,0.707-0.11,1.121-0.01l-0.043,1.028c-0.288-0.064-0.553-0.058-0.795,0.021
					c-0.216,0.069-0.39,0.197-0.52,0.383c-0.13,0.187-0.195,0.406-0.193,0.661c0.004,0.388,0.074,0.79,0.209,1.208l0.99,3.056
					L105.665,277.118z"/>
				<path fill="#000101" d="M109.098,276.006l-1.891-5.838l0.885-0.286l0.266,0.819c0.09-0.346,0.26-0.654,0.507-0.927
					c0.248-0.272,0.566-0.473,0.954-0.598c0.432-0.141,0.816-0.165,1.151-0.075c0.335,0.091,0.612,0.277,0.83,0.564
					c0.241-0.833,0.731-1.368,1.472-1.607c0.579-0.188,1.076-0.171,1.491,0.049c0.415,0.219,0.731,0.663,0.947,1.33l1.298,4.007
					l-0.984,0.318l-1.191-3.677c-0.128-0.396-0.253-0.67-0.373-0.823c-0.121-0.154-0.283-0.257-0.486-0.308
					c-0.203-0.052-0.418-0.042-0.646,0.032c-0.41,0.133-0.707,0.38-0.889,0.741c-0.183,0.361-0.177,0.843,0.018,1.442l1.099,3.392
					l-0.989,0.32l-1.229-3.793c-0.143-0.439-0.33-0.743-0.563-0.911s-0.532-0.192-0.898-0.073c-0.279,0.09-0.512,0.246-0.701,0.471
					c-0.189,0.223-0.291,0.493-0.306,0.809c-0.015,0.316,0.064,0.741,0.236,1.272l0.981,3.028L109.098,276.006z"/>
				<path fill="#000101" d="M121.725,271.121c-0.266,0.43-0.547,0.764-0.844,1.003c-0.297,0.237-0.64,0.42-1.029,0.545
					c-0.641,0.208-1.185,0.211-1.631,0.009c-0.446-0.201-0.748-0.546-0.906-1.034c-0.093-0.285-0.112-0.566-0.059-0.846
					c0.054-0.278,0.163-0.523,0.327-0.734c0.165-0.212,0.367-0.396,0.607-0.555c0.177-0.113,0.455-0.26,0.831-0.434
					c0.768-0.354,1.32-0.658,1.654-0.912c-0.04-0.137-0.066-0.224-0.078-0.261c-0.131-0.403-0.316-0.657-0.556-0.761
					c-0.325-0.143-0.737-0.132-1.236,0.029c-0.465,0.15-0.782,0.344-0.951,0.578c-0.169,0.235-0.239,0.578-0.211,1.025l-1.01,0.182
					c-0.046-0.441-0.01-0.823,0.109-1.144s0.347-0.611,0.683-0.872c0.337-0.26,0.756-0.473,1.258-0.635
					c0.498-0.162,0.922-0.233,1.272-0.217c0.349,0.016,0.626,0.089,0.83,0.22c0.204,0.129,0.379,0.321,0.526,0.574
					c0.087,0.157,0.203,0.456,0.345,0.896l0.427,1.319c0.298,0.919,0.507,1.494,0.629,1.725c0.121,0.229,0.28,0.437,0.477,0.619
					l-1.033,0.335C121.987,271.605,121.844,271.387,121.725,271.121z M120.927,268.938c-0.312,0.263-0.81,0.563-1.495,0.897
					c-0.388,0.19-0.654,0.35-0.799,0.478c-0.145,0.128-0.24,0.277-0.286,0.448c-0.046,0.171-0.041,0.342,0.015,0.515
					c0.085,0.264,0.256,0.45,0.513,0.563c0.257,0.111,0.577,0.104,0.962-0.021c0.381-0.123,0.693-0.316,0.936-0.579
					c0.242-0.264,0.387-0.562,0.432-0.896c0.034-0.258-0.02-0.605-0.161-1.041L120.927,268.938z"/>
				<path fill="#000101" d="M127.2,267.78l1.014-0.188c0.111,0.705,0.009,1.317-0.306,1.839s-0.792,0.886-1.429,1.092
					c-0.799,0.26-1.526,0.205-2.18-0.158c-0.655-0.365-1.14-1.036-1.456-2.011c-0.204-0.63-0.278-1.216-0.222-1.756
					c0.055-0.54,0.259-0.999,0.609-1.372c0.351-0.375,0.776-0.645,1.279-0.807c0.634-0.206,1.204-0.213,1.711-0.022
					c0.507,0.189,0.913,0.561,1.218,1.114l-0.914,0.461c-0.219-0.363-0.476-0.604-0.773-0.728s-0.61-0.13-0.94-0.023
					c-0.499,0.161-0.846,0.471-1.041,0.929c-0.196,0.459-0.168,1.074,0.082,1.848c0.254,0.784,0.589,1.306,1.004,1.563
					c0.416,0.26,0.865,0.31,1.349,0.152c0.388-0.126,0.675-0.35,0.858-0.672C127.244,268.717,127.291,268.298,127.2,267.78z"/>
				<path fill="#000101" d="M127.15,262.513l-0.369-1.138l0.989-0.32l0.369,1.138L127.15,262.513z M129.391,269.433l-1.891-5.838
					l0.989-0.32l1.891,5.838L129.391,269.433z"/>
				<path fill="#000101" d="M130.247,265.931c-0.35-1.08-0.309-1.979,0.124-2.693c0.362-0.595,0.904-1.01,1.626-1.244
					c0.802-0.26,1.544-0.209,2.224,0.152s1.17,1.005,1.47,1.932c0.243,0.751,0.322,1.378,0.237,1.883
					c-0.086,0.503-0.306,0.944-0.659,1.32c-0.354,0.379-0.785,0.65-1.294,0.815c-0.817,0.265-1.563,0.216-2.236-0.145
					C131.063,267.591,130.566,266.917,130.247,265.931z M131.264,265.602c0.242,0.748,0.587,1.255,1.033,1.521
					c0.447,0.266,0.917,0.318,1.412,0.158c0.491-0.159,0.839-0.478,1.044-0.956c0.205-0.481,0.184-1.104-0.064-1.869
					c-0.234-0.722-0.575-1.215-1.023-1.48c-0.449-0.267-0.917-0.32-1.404-0.163c-0.495,0.16-0.845,0.479-1.051,0.955
					C131.003,264.243,131.022,264.855,131.264,265.602z M131.254,261.577l0.233-1.774l1.297-0.42l-0.711,1.93L131.254,261.577z"/>
				<path fill="#000101" d="M137.495,266.809l-1.891-5.838l0.89-0.289l0.269,0.831c0.221-0.78,0.736-1.302,1.546-1.564
					c0.352-0.114,0.696-0.155,1.032-0.124s0.61,0.125,0.824,0.283c0.213,0.157,0.394,0.368,0.544,0.631
					c0.096,0.171,0.218,0.486,0.367,0.944l1.163,3.589l-0.99,0.32l-1.15-3.551c-0.131-0.402-0.267-0.691-0.408-0.865
					c-0.142-0.176-0.33-0.291-0.564-0.347c-0.235-0.055-0.484-0.041-0.748,0.044c-0.421,0.137-0.742,0.389-0.961,0.755
					c-0.219,0.367-0.208,0.925,0.034,1.671l1.033,3.188L137.495,266.809z"/>
			</g>
		</g>
		<path fill="#F9A86C" stroke="#6B452A" stroke-miterlimit="10" d="M163.073,237.31l-0.746-0.39
			c-6.048-3.166-15.877-8.47-21.841-11.794l-8.563-4.771c-5.964-3.321-12.094-3.582-13.624-0.578
			c-1.527,3.002,0.024,7.897,3.449,10.876c3.426,2.98,9.753,6.708,14.063,8.289c4.309,1.579,9.502,5.033,11.54,7.67
			c2.039,2.639,6.339,5.848,9.558,7.129"/>
		<path fill="#FAE1CA" d="M122.722,219.019c0,0-3.137,3.433-1.984,5.311c0,0,2.441,2.638,4.48,2.064l2.859-5.888
			C128.077,220.506,123.696,217.773,122.722,219.019z"/>
		<path fill="#FAE1CA" d="M164.485,217.765c0,0,10.84,2.971,9.851,20.011C174.336,237.775,173.342,222.274,164.485,217.765z"/>
		<path fill="#FAE1CA" d="M150.29,288.611c0,0,18.469-1.398,14.169-19.917C164.459,268.694,174.051,288.821,150.29,288.611z"/>
	</g>
	<path fill="#878686" d="M268.979,424.153c22.528,13.945,97.443,28.031,128.145,21.356c0,0,18.689,61.405,5.34,80.093
		s-2.694,16.285-34.523,26.342c-26.24,8.292-87.129-10.5-92.47-46.54C270.131,469.364,268.979,424.153,268.979,424.153"/>
	<path fill="#878686" d="M268.979,424.153c22.528,13.945,97.443,28.031,128.145,21.356c0,0,18.689,61.405,5.34,80.093
		s-2.694,16.285-34.523,26.342c-26.24,8.292-24.003-64.446-60.433-63.894C263.458,488.719,268.979,424.153,268.979,424.153"/>
	<path fill="#FFFFFF" d="M184.843,292.337c4.656,1.837,6.699,13.375,6.699,13.375s-9.34,19.723-26.265,21.392
		c-4.201-1.789-7.078-16.162-7.078-16.162C162.758,311.198,180.624,306.343,184.843,292.337"/>
	
		<path fill="none" stroke="#7888A1" stroke-width="0.691" stroke-linecap="round" stroke-linejoin="round" stroke-miterlimit="10" d="
		M184.843,292.337c4.656,1.837,6.699,13.375,6.699,13.375s-9.34,19.723-26.265,21.392c-4.201-1.789-7.078-16.162-7.078-16.162
		C162.758,311.198,180.624,306.343,184.843,292.337z"/>
	<path fill="#EEF3FA" d="M188.111,309.859c2.176-2.417,3.43-4.147,3.43-4.147s-2.002-11.422-6.625-13.341l-0.118,0.097
		c-0.619,2.001-1.518,3.76-2.616,5.315C186.468,301.421,188.522,304.25,188.111,309.859"/>
	<path fill="#C8D7ED" d="M158.231,311.213c0,0,2.85,14.138,7.046,15.891c1.287-0.128,2.529-0.4,3.733-0.765
		c-2.412-1.781-2.538-2.921-4.982-10.242c-0.597-1.796-1.407-3.342-1.98-5.25C160.432,311.15,159.096,311.26,158.231,311.213"/>
	<path fill="#154A8B" d="M276.612,238.964c-1.44-0.567-2.335-1.599-2.785-2.775c-0.37-0.233-0.711-0.511-1.014-0.821
		c-8.285,12.382-15.784,28.43-21.226,41.603c-3.644,8.818-23.975,56.402-28.193,68.509c-6.187-12.107-33.477-54.72-33.477-54.72
		c0,13.122-31.078,28.304-31.078,28.304s20.781,60.509,40.238,83.034c14.732,17.05,27.13,14.527,41.472,5.814
		c10.783-6.552,59.85-80.397,63.438-98.625c1.41-7.161,1.788-24.041,0.848-41.436C299.183,255.211,290.662,244.467,276.612,238.964"
		/>
	<path fill="none" stroke="#304A56" stroke-linecap="round" stroke-linejoin="round" stroke-miterlimit="10" d="M276.612,238.964
		c-1.44-0.567-2.335-1.599-2.785-2.775c-0.37-0.233-0.711-0.511-1.014-0.821c-8.285,12.382-15.784,28.43-21.226,41.603
		c-3.644,8.818-23.975,56.402-28.193,68.509c-6.187-12.107-33.477-54.72-33.477-54.72c0,13.122-31.078,28.304-31.078,28.304
		s20.781,60.509,40.238,83.034c14.732,17.05,27.13,14.527,41.472,5.814c10.783-6.552,59.85-80.397,63.438-98.625
		c1.41-7.161,1.788-24.041,0.848-41.436C299.183,255.211,290.662,244.467,276.612,238.964z"/>
	<path fill="#123C66" d="M273.819,236.158c-0.15-0.096-0.306-0.178-0.444-0.286c-8.505,12.491-16.223,28.965-21.786,42.429
		c-3.643,8.82-23.974,56.404-28.192,68.511c-6.187-12.107-33.478-54.721-33.478-54.721c0,1.811-0.607,3.656-1.622,5.496
		c0.202,0.718,0.335,1.497,0.389,2.359c0.437,7.096,12.073,19.281,19.244,31.937c7.171,12.653,11.811,15.062,14.764,22.505
		c2.952,7.446,4.64,9.13,3.796,12.929c0,0,2.544-9.291,0.64-13.294c-1.905-4.001,1.891-9.486,8.64-22.984
		c6.75-13.498,24.465-65.635,30.793-73.732c3.918-5.014,6.273-12.191,9.527-18.612C274.949,238.095,274.206,237.19,273.819,236.158"
		/>
	<g opacity="0.4">
		<g>
			<g>
				<defs>
					<rect id="SVGID_1_" x="158.841" y="299.158" width="146.206" height="114.702"/>
				</defs>
				<clipPath id="SVGID_2_">
					<use xlink:href="#SVGID_1_"  overflow="visible"/>
				</clipPath>
				<path clip-path="url(#SVGID_2_)" fill="#545554" d="M199.079,401.254c14.732,17.054,27.13,14.526,41.472,5.814
					c10.783-6.556,59.85-79.551,63.438-97.783c0.471-2.397,0.829-5.893,1.058-10.126c-3.523,3.277-6.448,5.946-8.22,7.454
					c-8.539,7.283-31.954,54.73-42.92,70.759c-10.968,16.026-17.295,22.384-28.684,29.131c-11.388,6.75-17.278-0.421-26.559-10.544
					c-9.28-10.123-32.251-74.326-35.145-76.895c-0.662-0.586-1.159-1.088-1.566-1.619c-1.913,1.03-3.112,1.618-3.112,1.618
					S179.622,378.728,199.079,401.254"/>
			</g>
		</g>
	</g>
	<path fill="#FFFFFF" d="M392.452,197.229l-61.169,68.489c0,0-9.468,167.701-6.908,186.467
		c17.353,10.679,83.194,11.708,83.194,11.708l16.252-228.621L392.452,197.229z"/>
	<path fill="none" stroke="#585B5B" stroke-miterlimit="10" d="M392.452,197.229l-61.169,68.489c0,0-9.468,167.701-6.908,186.467
		c17.353,10.679,83.194,11.708,83.194,11.708l16.252-228.621L392.452,197.229z"/>
	<path fill="#FFFFFF" d="M323.04,211.91l8.243,53.808c0,0-9.468,167.701-6.908,186.467c-28.032,0-41.381-18.688-41.381-18.688
		s-14.015-190.883-4.004-198.225C289.001,227.929,323.04,211.91,323.04,211.91"/>
	<path fill="none" stroke="#585B5B" stroke-miterlimit="10" d="M323.04,211.91l8.243,53.808c0,0-9.468,167.701-6.908,186.467
		c-28.032,0-41.381-18.688-41.381-18.688s-14.015-190.883-4.004-198.225C289.001,227.929,323.04,211.91,323.04,211.91z"/>
	<path fill="#154A8B" d="M400.015,199.451c1.6,6.565,51.392,38.27,62.695,49.925c2.051,11.276-11.245,59.182-14.203,80.174
		c-0.926,6.588-16.305,67.683-20.683,103.946c-6.228,51.614,16.909,67.633,21.358,96.998c3.771,24.889-71.191,17.801-71.191,17.801
		c-10.68-63.185-39.155-64.963-37.705-78.883c-3.497-11.595,11.82-104.702,16.324-135.662
		C361.115,302.788,388.919,218.639,400.015,199.451"/>
	<path fill="none" stroke="#304A56" stroke-linecap="round" stroke-linejoin="round" stroke-miterlimit="10" d="M400.015,199.451
		c1.6,6.565,51.392,38.27,62.695,49.925c2.051,11.276-11.245,59.182-14.203,80.174c-0.926,6.588-16.305,67.683-20.683,103.946
		c-6.228,51.614,16.909,67.633,21.358,96.998c3.771,24.889-71.191,17.801-71.191,17.801c-10.68-63.185-39.155-64.963-37.705-78.883
		c-3.497-11.595,11.82-104.702,16.324-135.662C361.115,302.788,388.919,218.639,400.015,199.451z"/>
	<g opacity="0.4">
		<g>
			<g>
				<defs>
					<rect id="SVGID_3_" x="340.284" y="195.446" width="76.274" height="253.595"/>
				</defs>
				<clipPath id="SVGID_4_">
					<use xlink:href="#SVGID_3_"  overflow="visible"/>
				</clipPath>
				<path clip-path="url(#SVGID_4_)" fill="#123C66" d="M397.347,195.446c1.599,6.566,7.342,7.567,18.643,19.222
					c2.051,11.278-1.9,33.819-4.856,54.813c-0.928,6.587-21.698,11.354-21.698,11.354l19.447,18.48
					c-22.518,33.213-61.896,110.41-66.344,148.674c-0.35,3.004-2.318-1.104-2.251-3.94c0.281-12.109,18.495-108.706,22.998-139.668
					C367.79,273.422,386.248,214.637,397.347,195.446"/>
			</g>
		</g>
	</g>
	<path fill="#154A8B" d="M393.342,187.437c1.6,6.566,7.342,7.566,18.643,19.224c2.051,11.278-3.235,40.492-6.192,61.484
		c-0.926,6.59-21.696,11.355-21.696,11.355l19.446,18.481c-22.518,33.214-56.658,108.306-61.107,146.568
		c-0.348,3.004-0.697-1.671-0.815-5.839c-0.344-12.107,11.822-104.702,16.325-135.664
		C362.449,272.087,382.245,206.627,393.342,187.437"/>
	<path fill="none" stroke="#304A56" stroke-linecap="round" stroke-linejoin="round" stroke-miterlimit="10" d="M393.342,187.437
		c1.6,6.566,7.342,7.566,18.643,19.224c2.051,11.278-3.235,40.492-6.192,61.484c-0.926,6.59-21.696,11.355-21.696,11.355
		l19.446,18.481c-22.518,33.214-56.658,108.306-61.107,146.568c-0.348,3.004-0.697-1.671-0.815-5.839
		c-0.344-12.107,11.822-104.702,16.325-135.664C362.449,272.087,382.245,206.627,393.342,187.437z"/>
	<g opacity="0.4">
		<g>
			<g>
				<defs>
					<rect id="SVGID_5_" x="256.2" y="217.917" width="62.834" height="249.092"/>
				</defs>
				<clipPath id="SVGID_6_">
					<use xlink:href="#SVGID_5_"  overflow="visible"/>
				</clipPath>
				<path clip-path="url(#SVGID_6_)" fill="#545554" d="M282.328,235.271c-7.927,1.763-8.677,6.674-8.01,12.683
					c0.667,6.005,2.67,46.054-2.67,72.749c-5.339,26.696,3.337,78.088-2.669,98.779c-6.008,20.688-12.778,46.594-12.778,46.594
					s12.216,1.744,17.986,0.461c7.99-1.774,7.021-13.502,16.994-23.084c11.63-11.174,14.326-51.956,17.663-81.326
					c3.337-29.363,10.193-144.21,10.193-144.21S294.341,232.604,282.328,235.271"/>
			</g>
		</g>
	</g>
	<path fill="#154A8B" d="M278.322,232.604c-7.927,1.758-8.677,6.673-8.009,12.681c0.668,6.009,2.669,46.051-2.67,72.748
		c-5.34,26.697,3.337,78.089-2.67,98.78c-6.006,20.689-9.08,49.437-9.08,49.437s8.518-1.1,14.29-2.382
		c7.989-1.772,7.02-13.503,16.993-23.082c11.629-11.175,11.837-50.003,15.174-79.368c3.336-29.368,12.682-146.167,12.682-146.167
		S290.336,229.931,278.322,232.604"/>
	<path fill="none" stroke="#304A56" stroke-linecap="round" stroke-linejoin="round" stroke-miterlimit="10" d="M278.322,232.604
		c-7.927,1.758-8.677,6.673-8.009,12.681c0.668,6.009,2.669,46.051-2.67,72.748c-5.34,26.697,3.337,78.089-2.67,98.78
		c-6.006,20.689-9.08,49.437-9.08,49.437s8.518-1.1,14.29-2.382c7.989-1.772,7.02-13.503,16.993-23.082
		c11.629-11.175,11.837-50.003,15.174-79.368c3.336-29.368,12.682-146.167,12.682-146.167S290.336,229.931,278.322,232.604z"/>
	<g opacity="0.4">
		<g>
			<g>
				<defs>
					<rect id="SVGID_7_" x="417.554" y="264.868" width="31.274" height="275.933"/>
				</defs>
				<clipPath id="SVGID_8_">
					<use xlink:href="#SVGID_7_"  overflow="visible"/>
				</clipPath>
				<path clip-path="url(#SVGID_8_)" fill="#123C66" d="M448.398,526.318c-5.851-26.819-26.499-43.712-20.572-92.822
					c2.006-16.63,6.328-38.481,10.508-57.901c-2.847-41.609-5.149-74.868-5.149-74.868c0.092-14.182-4.573-29.234,0.547-35.858
					l-1.063,0.397c0,0-13.722,22.558-13.722,53.703c0.238,15.209,2.023,98.336-1.092,131.706
					c-3.112,33.373,18.721,94.475,26.697,89.879c0.473-0.271,0.893-0.449,1.273-0.641c0.823-0.771,1.514-1.607,2.06-2.509
					c0.32-0.861,0.626-2.038,0.941-3.721C448.727,531.8,448.578,529.308,448.398,526.318"/>
			</g>
		</g>
	</g>
	<path fill="#154A8B" d="M320.371,205.237c0,0-31.37,40.047-29.368,46.056l15.351,13.346l-24.207,12.412
		c-0.83,0.379-1.614,1.862-0.929,3.403c5.158,11.623,21.277,66.477,12.456,132.354c0,0,12.681-36.042,16.019-80.759
		C313.028,287.33,313.696,219.253,320.371,205.237"/>
	<path fill="none" stroke="#304A56" stroke-linecap="round" stroke-linejoin="round" stroke-miterlimit="10" d="M320.371,205.237
		c0,0-31.37,40.047-29.368,46.056l15.351,13.346l-24.207,12.412c-0.83,0.379-1.614,1.862-0.929,3.403
		c5.158,11.623,21.277,66.477,12.456,132.354c0,0,12.681-36.042,16.019-80.759C313.028,287.33,313.696,219.253,320.371,205.237z"/>
	<g opacity="0.4">
		<g>
			<g>
				<defs>
					<rect id="SVGID_9_" x="281.208" y="309.636" width="106.594" height="105.032"/>
				</defs>
				<clipPath id="SVGID_10_">
					<use xlink:href="#SVGID_9_"  overflow="visible"/>
				</clipPath>
				<path clip-path="url(#SVGID_10_)" fill="#545554" d="M385.13,395.054c0,0-8.01,1.784-14.684,2.229
					c-6.673,0.441-15.422-3.956-26.545-3.511c-11.123,0.446-11.274-8.063-16.169-22.744c-4.895-14.685-1.557-27.807,8.676-28.698
					c10.234-0.89,18.911-1.112,31.37,10.01c12.458,11.126,20.022,10.234,20.022,10.234L385.13,395.054z"/>
			</g>
			<g>
				<defs>
					<rect id="SVGID_11_" x="281.208" y="309.636" width="106.594" height="105.032"/>
				</defs>
				<clipPath id="SVGID_12_">
					<use xlink:href="#SVGID_11_"  overflow="visible"/>
				</clipPath>
				<path clip-path="url(#SVGID_12_)" fill="#545554" d="M344.196,342.553c-8.498-0.112-34.957-2.392-38.078,1.27
					c-3.124,3.663-17.581,12.748-24.274,19.523c-3.563,3.61,8.756,5.522,13.932,3.445c5.174-2.075,13.576-8.694,18.152-9.495
					c4.577-0.801,17.938-0.114,17.938-0.114"/>
			</g>
			<g>
				<defs>
					<rect id="SVGID_13_" x="281.208" y="309.636" width="106.594" height="105.032"/>
				</defs>
				<clipPath id="SVGID_14_">
					<use xlink:href="#SVGID_13_"  overflow="visible"/>
				</clipPath>
				<path clip-path="url(#SVGID_14_)" fill="#545554" d="M332.956,355.599c-10.583,2.113-25.031,5.529-26.812,8.507
					c-2.469,4.131-15.21,15.498-20.68,23.294c-2.915,4.153,9.55,3.986,14.308,1.076c4.756-2.91,11.938-10.833,16.318-12.386
					c3.028-1.072,10.315-2.145,14.522-2.701"/>
			</g>
			<g>
				<defs>
					<rect id="SVGID_15_" x="281.208" y="309.636" width="106.594" height="105.032"/>
				</defs>
				<clipPath id="SVGID_16_">
					<use xlink:href="#SVGID_15_"  overflow="visible"/>
				</clipPath>
				<path clip-path="url(#SVGID_16_)" fill="#545554" d="M335.426,364.691c-9.521,2.699-20.759,6.468-22.149,9.228
					c-2.047,4.066-13.585,18.162-18.208,25.89c-2.464,4.117,9.28,3.103,13.568,0.034c4.287-3.064,10.816-13.539,14.84-15.304
					c2.011-0.879,10.004-2.761,13.613-3.57"/>
			</g>
			<g>
				<defs>
					<rect id="SVGID_17_" x="281.208" y="309.636" width="106.594" height="105.032"/>
				</defs>
				<clipPath id="SVGID_18_">
					<use xlink:href="#SVGID_17_"  overflow="visible"/>
				</clipPath>
				<path clip-path="url(#SVGID_18_)" fill="#545554" d="M337.61,380.81c-7.92,2.562-16.512,5.853-17.591,8.154
					c-1.71,3.65-11.571,16.422-15.472,23.376c-2.078,3.709,8.293,2.517,12.014-0.305c3.719-2.822,9.237-12.26,12.754-13.922
					c3.518-1.662,14.458-4.065,14.458-4.065"/>
			</g>
			<g>
				<defs>
					<rect id="SVGID_19_" x="281.208" y="309.636" width="106.594" height="105.032"/>
				</defs>
				<clipPath id="SVGID_20_">
					<use xlink:href="#SVGID_19_"  overflow="visible"/>
				</clipPath>
				<path clip-path="url(#SVGID_20_)" fill="#545554" d="M372.789,356.671c-7.112-4.201-4.122-20.35-10.796-24.798
					c-6.675-4.449-12.014-2.669-24.028-18.688c-9.061-12.084-12.014,9.789-2.226,19.58c4.804,4.8,10.68,9.787,10.68,9.787"/>
			</g>
		</g>
	</g>
	<path fill="#154A8B" d="M462.957,249.785c0,0,21.376,147.333,20.611,161.839c-0.764,14.503-33.589,11.074-33.589,11.074
		s-17.558,4.197-20.61-8.019c-3.054-12.214-7.636-117.565-7.636-117.565c0.148-22.806,17.609-38.523,17.609-38.523"/>
	<path fill="none" stroke="#304A56" stroke-miterlimit="10" d="M462.957,249.785c0,0,21.376,147.333,20.611,161.839
		c-0.764,14.503-33.589,11.074-33.589,11.074s-17.558,4.197-20.61-8.019c-3.054-12.214-7.636-117.565-7.636-117.565
		c0.148-22.806,17.609-38.523,17.609-38.523"/>
	<g opacity="0.4">
		<g>
			<g>
				<defs>
					<rect id="SVGID_21_" x="370.997" y="356.24" width="63.543" height="74.218"/>
				</defs>
				<clipPath id="SVGID_22_">
					<use xlink:href="#SVGID_21_"  overflow="visible"/>
				</clipPath>
				<path clip-path="url(#SVGID_22_)" fill="#123C66" d="M380.104,415.054c-8.81-9.151-9.734-18.523-8.831-27.546
					c0.902-9.023,5.258-32.733,11.839-31.198c4.439-0.26,36.555,3.705,47.593,4.355c1.319,0.078,2.59,0.218,3.834,0.393
					c-3.78,19.939-6.273,37.825-5.993,48.194c0.146,5.419,0.343,10.764,0.567,21.207
					C421.461,430.458,381.365,416.363,380.104,415.054"/>
			</g>
		</g>
	</g>
	<path fill="#273F49" d="M375.293,382.185c0.905-9.026,3.637-28.744,10.216-27.207c11.929,4.398,13.28,22.125,12.917,33.956
		c-0.554,18.137-5.518,19.486-12.639,21.12c-1.557,0.36-3.695-1.595-4.959-2.904C372.022,397.996,374.392,391.208,375.293,382.185"
		/>
	<path fill="none" stroke="#304A56" stroke-linecap="round" stroke-linejoin="round" stroke-miterlimit="10" d="M375.293,382.185
		c0.905-9.026,3.637-28.744,10.216-27.207c11.929,4.398,13.28,22.125,12.917,33.956c-0.554,18.137-5.518,19.486-12.639,21.12
		c-1.557,0.36-3.695-1.595-4.959-2.904C372.022,397.996,374.392,391.208,375.293,382.185z"/>
	<path fill="#F9A86C" d="M383.795,392.387c0,0-8.009,1.778-14.683,2.225c-6.675,0.441-15.422-3.954-26.546-3.508
		c-11.124,0.441-11.276-8.063-16.17-22.747c-4.894-14.682-1.557-27.808,8.677-28.7c10.234-0.887,18.912-1.108,31.369,10.014
		c12.458,11.124,20.023,10.235,20.023,10.235L383.795,392.387z"/>
	<path fill="none" stroke="#6B4529" stroke-linecap="round" stroke-linejoin="round" stroke-miterlimit="10" d="M383.795,392.387
		c0,0-8.009,1.778-14.683,2.225c-6.675,0.441-15.422-3.954-26.546-3.508c-11.124,0.441-11.276-8.063-16.17-22.747
		c-4.894-14.682-1.557-27.808,8.677-28.7c10.234-0.887,18.912-1.108,31.369,10.014c12.458,11.124,20.023,10.235,20.023,10.235
		L383.795,392.387z"/>
	<path fill="#F9A86C" d="M342.86,339.882c-8.499-0.113-34.956-2.391-38.077,1.27c-3.123,3.661-17.581,12.748-24.274,19.524
		c-3.565,3.613,8.756,5.522,13.931,3.445c5.175-2.075,13.576-8.693,18.152-9.498c4.578-0.798,17.938-0.108,17.938-0.108"/>
	<path fill="none" stroke="#6B4529" stroke-linecap="round" stroke-linejoin="round" stroke-miterlimit="10" d="M342.86,339.882
		c-8.499-0.113-34.956-2.391-38.077,1.27c-3.123,3.661-17.581,12.748-24.274,19.524c-3.565,3.613,8.756,5.522,13.931,3.445
		c5.175-2.075,13.576-8.693,18.152-9.498c4.578-0.798,17.938-0.108,17.938-0.108"/>
	<path fill="#F9A86C" d="M331.622,352.929c-10.583,2.115-25.033,5.529-26.811,8.506c-2.471,4.133-15.212,15.498-20.682,23.293
		c-2.914,4.157,9.552,3.987,14.309,1.08c4.756-2.91,11.938-10.836,16.317-12.387c3.028-1.074,10.315-2.146,14.522-2.704"/>
	<path fill="none" stroke="#6B4529" stroke-linecap="round" stroke-linejoin="round" stroke-miterlimit="10" d="M331.622,352.929
		c-10.583,2.115-25.033,5.529-26.811,8.506c-2.471,4.133-15.212,15.498-20.682,23.293c-2.914,4.157,9.552,3.987,14.309,1.08
		c4.756-2.91,11.938-10.836,16.317-12.387c3.028-1.074,10.315-2.146,14.522-2.704"/>
	<path fill="#F9A86C" d="M334.091,362.021c-9.522,2.699-20.761,6.468-22.15,9.228c-2.045,4.063-13.583,18.162-18.207,25.89
		c-2.465,4.115,9.279,3.103,13.567,0.036c4.287-3.067,10.815-13.538,14.84-15.303c2.011-0.882,10.004-2.761,13.613-3.574"/>
	<path fill="none" stroke="#6B4529" stroke-linecap="round" stroke-linejoin="round" stroke-miterlimit="10" d="M334.091,362.021
		c-9.522,2.699-20.761,6.468-22.15,9.228c-2.045,4.063-13.583,18.162-18.207,25.89c-2.465,4.115,9.279,3.103,13.567,0.036
		c4.287-3.067,10.815-13.538,14.84-15.303c2.011-0.882,10.004-2.761,13.613-3.574"/>
	<path fill="#F9A86C" d="M336.277,378.141c-7.922,2.56-16.512,5.852-17.593,8.154c-1.711,3.651-11.57,16.421-15.471,23.377
		c-2.079,3.705,8.293,2.513,12.013-0.307c3.72-2.824,9.236-12.262,12.752-13.923c3.521-1.659,14.46-4.067,14.46-4.067"/>
	<path fill="none" stroke="#6B4529" stroke-linecap="round" stroke-linejoin="round" stroke-miterlimit="10" d="M336.277,378.141
		c-7.922,2.56-16.512,5.852-17.593,8.154c-1.711,3.651-11.57,16.421-15.471,23.377c-2.079,3.705,8.293,2.513,12.013-0.307
		c3.72-2.824,9.236-12.262,12.752-13.923c3.521-1.659,14.46-4.067,14.46-4.067"/>
	<path fill="#F9A86C" d="M371.455,354c-6.51-3.841-4.586-16.577-10.692-20.652c-6.105-4.069-10.175-4.475-21.165-19.129
		c-8.291-11.056-10.994,8.955-2.037,17.911c4.393,4.392,7.1,8.955,7.1,8.955"/>
	
		<path fill="none" stroke="#6B4529" stroke-width="0.915" stroke-linecap="round" stroke-linejoin="round" stroke-miterlimit="10" d="
		M371.455,354c-6.51-3.841-4.586-16.577-10.692-20.652c-6.105-4.069-10.175-4.475-21.165-19.129
		c-8.291-11.056-10.994,8.955-2.037,17.911c4.393,4.392,7.1,8.955,7.1,8.955"/>
	<path fill="#FFFFFF" d="M427.83,361.561c0,0-34.756-3.56-39.268-2.203c-4.513,1.353-8.606-0.939-8.606-0.939
		s5.446,6.945,3.034,20.644c-1.635,9.295-4.64,14.398-10.057,15.301c-5.414,0.905,0.593,2.728,5.105,4.984
		c4.513,2.253,51.823,12.559,65.132,10.301C456.482,407.394,427.83,361.561,427.83,361.561"/>
	<path fill="none" stroke="#585B5B" stroke-miterlimit="10" d="M427.83,361.561c0,0-34.756-3.56-39.268-2.203
		c-4.513,1.353-8.606-0.939-8.606-0.939s5.446,6.945,3.034,20.644c-1.635,9.295-4.64,14.398-10.057,15.301
		c-5.414,0.905,0.593,2.728,5.105,4.984c4.513,2.253,51.823,12.559,65.132,10.301C456.482,407.394,427.83,361.561,427.83,361.561z"
		/>
	<path fill="#154A8B" d="M479.75,418.493c0,0-5.343,8.395-13.74,10.686c-8.265,2.253-66.139-8.254-80.223-19.124
		c7.121-1.636,12.084-4.318,12.639-22.46c0.363-11.829-0.99-28.22-12.917-32.618c4.441-0.261,38.162,3.703,49.203,4.351
		c25.955,1.526,37.406,22.902,37.406,22.902"/>
	<path fill="none" stroke="#304A56" stroke-linecap="round" stroke-linejoin="round" stroke-miterlimit="10" d="M479.75,418.493
		c0,0-5.343,8.395-13.74,10.686c-8.265,2.253-66.139-8.254-80.223-19.124c7.121-1.636,12.084-4.318,12.639-22.46
		c0.363-11.829-0.99-28.22-12.917-32.618c4.441-0.261,38.162,3.703,49.203,4.351c25.955,1.526,37.406,22.902,37.406,22.902"/>
	<path fill="#123C66" d="M456.281,256.459l6.675-6.674c0,0,21.376,147.333,20.611,161.839c-0.23,4.398-3.418,7.881-7.741,10.602
		c0.614-1.219,0.404-2.69,1.066-3.928C483.879,405.229,458.471,256.964,456.281,256.459"/>
	<path fill="#123C66" d="M441.46,364.19c-10.869-2.174-47.629-6.886-52.213-7.111c-0.909-0.712-1.905-1.313-2.993-1.787
		l-0.081-0.351c4.467-0.227,38.028,3.771,48.538,4.388c25.957,1.526,37.407,22.902,37.407,22.902
		c0.431-0.511,2.365,2.404,2.932,6.929c0.279,2.226-2.402-2.686-2.402-2.686S456.262,367.15,441.46,364.19"/>
	<path fill="#F9A86C" d="M390.269,138.762c0,0-6.494,62.471-1.382,73.661c-0.104,4.828-52.689,37.523-58.878,52.707
		c-7.443-16.988-4.702-27.523-4.702-35.15l0.888-54.283L390.269,138.762z"/>
	<path fill="none" stroke="#6B4529" stroke-miterlimit="10" d="M390.269,138.762c0,0-6.494,62.471-1.382,73.661
		c-0.104,4.828-52.689,37.523-58.878,52.707c-7.443-16.988-4.702-27.523-4.702-35.15l0.888-54.283L390.269,138.762z"/>
	<path fill="#CE8451" d="M390.269,138.762c0.848-7.165-64.074,36.935-64.074,36.935L326,187.651
		c4.06,4.144,23.936,7.558,27.662,7.797c10.545,0.681,13.01-5.476,20.546-16.016C383.997,165.736,390.269,138.762,390.269,138.762"
		/>
	<path fill="#C7C6C6" d="M355.567,232.604c-13.839,11.256-25.63,35.148-25.63,35.148c16.019-19.131,40.237-25.05,40.237-25.05
		S369.406,221.342,355.567,232.604"/>
	<path fill="none" stroke="#585B5B" stroke-linecap="round" stroke-linejoin="round" stroke-miterlimit="10" d="M355.567,232.604
		c-13.839,11.256-25.63,35.148-25.63,35.148c16.019-19.131,40.237-25.05,40.237-25.05S369.406,221.342,355.567,232.604z"/>
	<path fill="#F9A86C" d="M357.637,13.395c-17.882-0.916-53.427,17.418-53.07,39.981c0.359,22.562,3.844,46.783,3.844,46.783
		s-7.098,13.088-6.741,20.608c0.359,7.521,2.168,46.297,7.62,58.8c3.517,8.06,42.642,14.1,48.705,10.385
		c3.007-1.843,25.07-27.575,30.441-46.556c5.373-18.983,18.981-74.133,10.743-93.115C390.941,31.301,385.571,14.825,357.637,13.395"
		/>
	<path fill="none" stroke="#6B4529" stroke-miterlimit="10" d="M357.637,13.395c-17.882-0.916-53.427,17.418-53.07,39.981
		c0.359,22.562,3.844,46.783,3.844,46.783s-7.098,13.088-6.741,20.608c0.359,7.521,2.168,46.297,7.62,58.8
		c3.517,8.06,42.642,14.1,48.705,10.385c3.007-1.843,25.07-27.575,30.441-46.556c5.373-18.983,18.981-74.133,10.743-93.115
		C390.941,31.301,385.571,14.825,357.637,13.395z"/>
	<path fill="#FBBD92" d="M308.801,82.03c-1.617-9.095,1.645-12.186,1.528-19.623c-0.129-8.209-4.457-12.138,2.043-20.024
		c10.597-12.861,34.385-27.448,46.772-28.884c-0.5-0.034-0.992-0.077-1.507-0.104c-17.882-0.916-53.427,17.418-53.07,39.981
		c0.359,22.562,3.843,46.783,3.843,46.783S309.611,86.596,308.801,82.03"/>
	<path fill="#FBBD92" d="M312.372,177.097c-5.453-12.498-6.339-48.807-6.698-56.328c-0.357-7.522,2.736-20.608,2.736-20.608
		s-7.097,13.086-6.74,20.608c0.359,7.521,2.168,46.297,7.62,58.8c1.355,3.109,8.007,5.918,16.014,7.979
		C335.824,190.256,315.191,183.57,312.372,177.097"/>
	<path fill="#CE8451" d="M353.991,189.953c-0.65,0.399-1.702,0.679-3.033,0.86c3.305,0.123,5.839-0.128,7.036-0.86
		c3.007-1.843,25.068-27.575,30.441-46.556c0.441-1.562,0.938-3.361,1.474-5.37C378.51,163.987,356.997,188.11,353.991,189.953"/>
	<g opacity="0.4">
		<g>
			<g>
				<defs>
					<rect id="SVGID_23_" x="335.439" y="31.511" width="54.443" height="50.226"/>
				</defs>
				<clipPath id="SVGID_24_">
					<use xlink:href="#SVGID_23_"  overflow="visible"/>
				</clipPath>
				<path clip-path="url(#SVGID_24_)" fill="#3F4242" d="M335.44,37.647c9.127-4.915,21.271-8.195,35.367-4.644
					c14.101,3.549,31.681,25.147,5.881,48.733c0,0-0.518-1.72,0.433-4.986c0.948-3.269,13.981-34.309-9.874-37.354
					C343.395,36.354,335.44,37.647,335.44,37.647"/>
			</g>
		</g>
	</g>
	<path fill="#564F4C" d="M351.761,73.268c-1.496-3.288,10.543-4.079,13.264-3.739c2.721,0.339,3.06,3.739,7.141,4.422
		c4.083,0.679,4.763,3.401,3.744,4.421c-1.023,1.02-7.825,0.34-12.245-2.721C359.242,72.588,353.46,77.01,351.761,73.268"/>
	<path fill="none" stroke="#47403D" stroke-miterlimit="10" d="M351.761,73.268c-1.496-3.288,10.543-4.079,13.264-3.739
		c2.721,0.339,3.06,3.739,7.141,4.422c4.083,0.679,4.763,3.401,3.744,4.421c-1.023,1.02-7.825,0.34-12.245-2.721
		C359.242,72.588,353.46,77.01,351.761,73.268z"/>
	<path fill="#CE8451" d="M317.498,130.916c-0.025,2.154,0.47,8.184,8.333,9.17c4.815,0.605,8.625-1.318,11.142-3.26"/>
	<path fill="#F9A86C" d="M335.942,94.222c-0.692,4.977-3.643,15.346-10.642,22.103c-6.998,6.756-12.483,12.791-6.776,17.425
		c5.704,4.636,10.642,4.483,15.392,3.334c3.405-0.82,4.217-1.552,4.217-1.552"/>
	<path fill="none" stroke="#6B4529" stroke-linecap="round" stroke-linejoin="round" stroke-miterlimit="10" d="M335.942,94.222
		c-0.692,4.977-3.643,15.346-10.642,22.103c-6.998,6.756-12.483,12.791-6.776,17.425c5.704,4.636,10.642,4.483,15.392,3.334
		c3.405-0.82,4.217-1.552,4.217-1.552"/>
	<path fill="#CE8451" d="M342.661,169.912c-3.783-2.003-12.014-6.229-19.356-2.892"/>
	<path fill="#564F4C" d="M312.402,32.946c0,0-7.382,11.663-10.72,13.325c-3.337,1.661-4.809,6.822-1.361,15.024
		c4.218,10.039,8.089,38.865,8.089,38.865c0.063-1.701,0.34-7.474-0.054-8.946c-1.779-6.674-2.969-17.081-1.113-25.025
		c1.994-8.535-3.558-8.786-0.889-19.131C308.667,38.09,316.295,34.724,312.402,32.946"/>
	<path fill="none" stroke="#47403D" stroke-linecap="round" stroke-linejoin="round" stroke-miterlimit="10" d="M312.402,32.946
		c0,0-7.382,11.663-10.72,13.325c-3.337,1.661-4.809,6.822-1.361,15.024c4.218,10.039,8.089,38.865,8.089,38.865
		c0.063-1.701,0.34-7.474-0.054-8.946c-1.779-6.674-2.969-17.081-1.113-25.025c1.994-8.535-3.558-8.786-0.889-19.131
		C308.667,38.09,316.295,34.724,312.402,32.946z"/>
	<path fill="#564F4C" d="M419.83,58.591c1.457,9.896-3.024,30.254-8.246,37.46c-5.221,7.206-13.526,25.092-13.526,25.092
		s-5.339,5.792-5.163-1.115c0.668-25.945-2.57-34.871-4.589-44.229c-1.85-8.568,8.369-12.616,5.529-22.915
		C391.373,43.958,418.869,52.092,419.83,58.591"/>
	<path fill="none" stroke="#47403D" stroke-miterlimit="10" d="M419.83,58.591c1.457,9.896-3.024,30.254-8.246,37.46
		c-5.221,7.206-13.526,25.092-13.526,25.092s-5.339,5.792-5.163-1.115c0.668-25.945-2.57-34.871-4.589-44.229
		c-1.85-8.568,8.369-12.616,5.529-22.915C391.373,43.958,418.869,52.092,419.83,58.591z"/>
	<path fill="#564F4C" d="M389.048,38.338c-1.861-2.45,12.967-11.687,17.421-11.749c4.452-0.064,14.815,22.86,14.817,31.146
		c0.008,21.43-12.475,28.56-18.598,21.43C393.683,68.685,390.908,40.79,389.048,38.338"/>
	<path fill="none" stroke="#47403D" stroke-linecap="round" stroke-linejoin="round" stroke-miterlimit="10" d="M389.048,38.338
		c-1.861-2.45,12.967-11.687,17.421-11.749c4.452-0.064,14.815,22.86,14.817,31.146c0.008,21.43-12.475,28.56-18.598,21.43
		C393.683,68.685,390.908,40.79,389.048,38.338z"/>
	<path fill="#564F4C" d="M305.874,43.414c0,0-1.702-25.602,17.813-34.997c19.518-9.396,36.12-12.027,60.307,1.145
		c24.182,13.177,22.494,10.811,23.377,14.796c0.882,3.983-14.075,10.992-20.407,8.68c-6.33-2.309-24.398-8.063-43.49-1.287
		C324.378,38.518,312.094,49.152,305.874,43.414"/>
	
		<path fill="none" stroke="#47403D" stroke-width="1.034" stroke-linecap="round" stroke-linejoin="round" stroke-miterlimit="10" d="
		M305.874,43.414c0,0-1.702-25.602,17.813-34.997c19.518-9.396,36.12-12.027,60.307,1.145
		c24.182,13.177,22.494,10.811,23.377,14.796c0.882,3.983-14.075,10.992-20.407,8.68c-6.33-2.309-24.398-8.063-43.49-1.287
		C324.378,38.518,312.094,49.152,305.874,43.414z"/>
	<path fill="#736A67" d="M328.808,37.556c4.2-2.074,8.918-4.26,14.194-6.134c4.611-1.634,9.153-2.405,13.478-2.608
		c0.033-0.041,0.063-0.08,0.093-0.122c10.336-13.664,29.613-13.749,43.279-10.766c-2.415-1.846-6.191-2.965-12.899-6.717
		C368.254,12.449,333.759,16.751,328.808,37.556"/>
	<path fill="#736A67" d="M322.157,40.248c0,0-4.97-18.326,14.517-26.93c11.558-5.102,27.405-7.377,41.226-6.812
		c-2.265-1.032-4.464-1.931-6.611-2.681c-21.499-0.412-43.071,3.874-49.487,10.863C312.33,25,314.11,38.501,316.175,43.604
		c1.823-0.714,3.818-1.657,5.999-2.733C322.161,40.479,322.157,40.248,322.157,40.248"/>
	<path fill="#564F4C" d="M322.157,40.248c0,0,0.004,0.23,0.017,0.623c2.047-1.016,4.258-2.144,6.634-3.315
		c4.953-20.805,39.446-25.106,58.146-26.347c-1.392-0.779-1.324-0.753-2.96-1.646c-2.087-1.136-4.114-2.144-6.094-3.058
		c-13.82-0.565-29.668,1.71-41.226,6.812C317.187,21.922,322.157,40.248,322.157,40.248"/>
	<path fill="#736A67" d="M336.295,37.088c9.131-4.914,20.644-10.295,34.741-6.744c14.097,3.55,31.678,25.15,5.883,48.734
		c0,0-0.522-1.718,0.428-4.988c0.948-3.269,14.211-36.967-9.646-40.012C343.848,31.035,336.295,37.088,336.295,37.088"/>
	<path fill="none" stroke="#47403D" stroke-linecap="round" stroke-linejoin="round" stroke-miterlimit="10" d="M336.295,37.088
		c9.131-4.914,20.644-10.295,34.741-6.744c14.097,3.55,31.678,25.15,5.883,48.734c0,0-0.522-1.718,0.428-4.988
		c0.948-3.269,14.211-36.967-9.646-40.012C343.848,31.035,336.295,37.088,336.295,37.088z"/>
	<path fill="#564F4C" d="M332.194,38.075c0,0,18.899-13.455,41.483-11.19c22.58,2.266,28.769,12.173,27.319,29.131
		c-1.451,16.959-14.604,25.881-14.604,25.881s11.43-31.847-1.987-43.375C370.99,26.992,343.707,32.695,332.194,38.075"/>
	<path fill="none" stroke="#47403D" stroke-linecap="round" stroke-linejoin="round" stroke-miterlimit="10" d="M332.194,38.075
		c0,0,18.899-13.455,41.483-11.19c22.58,2.266,28.769,12.173,27.319,29.131c-1.451,16.959-14.604,25.881-14.604,25.881
		s11.43-31.847-1.987-43.375C370.99,26.992,343.707,32.695,332.194,38.075z"/>
	<path fill="#564F4C" d="M335.676,72.545c0,0-2.468-4.779-12.338-5.366c-9.869-0.589-12.775,8.638-12.775,8.638
		s1.6,0.892,4.472-0.109c2.875-1,11.403-3.326,14.689-2.218C333.009,74.601,335.676,72.545,335.676,72.545"/>
	<path fill="none" stroke="#47403D" stroke-miterlimit="10" d="M335.676,72.545c0,0-2.468-4.779-12.338-5.366
		c-9.869-0.589-12.775,8.638-12.775,8.638s1.6,0.892,4.472-0.109c2.875-1,11.403-3.326,14.689-2.218
		C333.009,74.601,335.676,72.545,335.676,72.545z"/>
	<path fill="#F9A86C" d="M313.919,149.84c4.45,4.008,22.642,10.234,37.127,0.889"/>
	
		<path fill="none" stroke="#6B4529" stroke-width="0.898" stroke-linecap="round" stroke-linejoin="round" stroke-miterlimit="10" d="
		M313.919,149.84c4.45,4.008,22.642,10.234,37.127,0.889"/>
	<path fill="#F9A86C" d="M392.389,109.657c0,0,9.673-11.538,15.706-5.699c6.031,5.84-2.024,29.767-9.439,35.973
		c-7.414,6.203-9.458-2.402-9.458-2.402"/>
	<path fill="none" stroke="#6B4529" stroke-width="0.74" stroke-miterlimit="10" d="M392.389,109.657c0,0,9.673-11.538,15.706-5.699
		c6.031,5.84-2.024,29.767-9.439,35.973c-7.414,6.203-9.458-2.402-9.458-2.402"/>
	<path fill="#F9A86C" d="M400.025,113.908c4.967-1.053,2.553,9.22-1.362,11.117c-3.914,1.899-2.89,7.233-2.718,9.499"/>
	<path fill="none" stroke="#6B4529" stroke-width="0.74" stroke-miterlimit="10" d="M400.025,113.908
		c4.967-1.053,2.553,9.22-1.362,11.117c-3.914,1.899-2.89,7.233-2.718,9.499"/>
	<path fill="#FFFFFF" d="M387.335,181.654c0,0,1.558,2.098-3.114,10.504c-4.672,8.405-28.476,39.329-28.476,39.329
		s-1.335,2.003,3.336,2.227c4.673,0.222,13.348,12.236,18.911,17.352c5.563,5.116,14.24,9.716,18.466,8.531
		c4.227-1.188-6.007-8.304-5.562-18.984c0.444-10.682,0.222-25.587,2.893-34.264C396.457,197.671,396.899,182.101,387.335,181.654"
		/>
	<path fill="none" stroke="#585B5B" stroke-linecap="round" stroke-linejoin="round" stroke-miterlimit="10" d="M387.335,181.654
		c0,0,1.558,2.098-3.114,10.504c-4.672,8.405-28.476,39.329-28.476,39.329s-1.335,2.003,3.336,2.227
		c4.673,0.222,13.348,12.236,18.911,17.352c5.563,5.116,14.24,9.716,18.466,8.531c4.227-1.188-6.007-8.304-5.562-18.984
		c0.444-10.682,0.222-25.587,2.893-34.264C396.457,197.671,396.899,182.101,387.335,181.654z"/>
	<path fill="#C7C6C6" d="M319.437,232.156c2.447,6.006,0.933,15.128,3.603,21.137c2.669,6.004,6.898,10.454,6.897,14.461
		c0,4.005,0.666-14.558-2.004-21.405c-2.669-6.853-1.779-54.192-1.779-54.192s-6.229,11.211-6.229,18.931
		C319.924,218.807,316.991,226.15,319.437,232.156"/>
	<path fill="none" stroke="#585B5B" stroke-linecap="round" stroke-linejoin="round" stroke-miterlimit="10" d="M319.437,232.156
		c2.447,6.006,0.933,15.128,3.603,21.137c2.669,6.004,6.898,10.454,6.897,14.461c0,4.005,0.666-14.558-2.004-21.405
		c-2.669-6.853-1.779-54.192-1.779-54.192s-6.229,11.211-6.229,18.931C319.924,218.807,316.991,226.15,319.437,232.156z"/>
	<path fill="#FFFFFF" d="M326.154,192.156c0,0-8.675,17.085-13.792,21.533c-5.119,4.451-13.126,37.837-8.676,49.844
		c0,0,0.667-10.559,5.338-17.184c4.672-6.631,10.9-15.749,11.567-20.198C321.258,221.697,320.815,206.222,326.154,192.156"/>
	<path fill="none" stroke="#585B5B" stroke-miterlimit="10" d="M326.154,192.156c0,0-8.675,17.085-13.792,21.533
		c-5.119,4.451-13.126,37.837-8.676,49.844c0,0,0.667-10.559,5.338-17.184c4.672-6.631,10.9-15.749,11.567-20.198
		C321.258,221.697,320.815,206.222,326.154,192.156z"/>
	<path fill="#629BBC" d="M449.184,530.494c-0.217-1.423-0.488-2.81-0.788-4.176c0.184,2.989,0.329,5.481,0.43,7.365
		c-0.315,1.681-0.621,2.859-0.941,3.724C449.086,535.433,449.585,533.146,449.184,530.494"/>
	<path fill="none" stroke="#304A56" stroke-linecap="round" stroke-linejoin="round" stroke-miterlimit="10" d="M449.184,530.494
		c-0.217-1.423-0.488-2.81-0.788-4.176c0.184,2.989,0.329,5.481,0.43,7.365c-0.315,1.681-0.621,2.859-0.941,3.724
		C449.086,535.433,449.585,533.146,449.184,530.494z"/>
	<g opacity="0.4">
		<g>
			<g>
				<defs>
					<rect id="SVGID_25_" x="445.826" y="537.404" width="2.06" height="2.507"/>
				</defs>
				<clipPath id="SVGID_26_">
					<use xlink:href="#SVGID_25_"  overflow="visible"/>
				</clipPath>
				<path clip-path="url(#SVGID_26_)" fill="#545554" d="M447.886,537.407c-0.547,0.898-1.238,1.734-2.061,2.506
					C446.647,539.5,447.291,539.02,447.886,537.407"/>
			</g>
		</g>
	</g>
</g>
</svg>
