<?xml version="1.0" encoding="utf-8"?>
<!-- Generator: Adobe Illustrator 17.0.0, SVG Export Plug-In . SVG Version: 6.00 Build 0)  -->
<!DOCTYPE svg PUBLIC "-//W3C//DTD SVG 1.1//EN" "http://www.w3.org/Graphics/SVG/1.1/DTD/svg11.dtd" [
	<!ENTITY ns_extend "http://ns.adobe.com/Extensibility/1.0/">
	<!ENTITY ns_ai "http://ns.adobe.com/AdobeIllustrator/10.0/">
	<!ENTITY ns_graphs "http://ns.adobe.com/Graphs/1.0/">
	<!ENTITY ns_vars "http://ns.adobe.com/Variables/1.0/">
	<!ENTITY ns_imrep "http://ns.adobe.com/ImageReplacement/1.0/">
	<!ENTITY ns_sfw "http://ns.adobe.com/SaveForWeb/1.0/">
	<!ENTITY ns_custom "http://ns.adobe.com/GenericCustomNamespace/1.0/">
	<!ENTITY ns_adobe_xpath "http://ns.adobe.com/XPath/1.0/">
]>
<svg version="1.1" id="Capa_1" xmlns:x="&ns_extend;" xmlns:i="&ns_ai;" xmlns:graph="&ns_graphs;"
	 xmlns="http://www.w3.org/2000/svg" xmlns:xlink="http://www.w3.org/1999/xlink" x="0px" y="0px" width="426.323px"
	 height="571.589px" viewBox="0 0 426.323 571.589" enable-background="new 0 0 426.323 571.589" xml:space="preserve">
<metadata>
	<sfw  xmlns="&ns_sfw;">
		<slices></slices>
		<sliceSourceBounds  width="426.323" height="571.59" x="469.339" y="464.705" bottomLeftOrigin="true"></sliceSourceBounds>
	</sfw>
</metadata>
<g>
	<g>
		<defs>
			<rect id="SVGID_1_" y="0" width="426.323" height="490.375"/>
		</defs>
		<clipPath id="SVGID_2_">
			<use xlink:href="#SVGID_1_"  overflow="visible"/>
		</clipPath>
		<g clip-path="url(#SVGID_2_)">
			<path fill="#878686" d="M199.696,441.858c22.528,13.945,97.444,28.031,128.145,21.356c0,0,18.689,61.405,5.34,80.093
				c-13.348,18.688-2.694,16.285-34.523,26.342c-26.24,8.292-87.129-10.5-92.47-46.54
				C200.848,487.068,199.696,441.858,199.696,441.858"/>
			<path fill="#878686" d="M199.696,441.858c22.528,13.945,97.444,28.031,128.145,21.356c0,0,18.689,61.405,5.34,80.093
				c-13.348,18.688-2.694,16.285-34.523,26.342c-26.24,8.292-24.003-64.446-60.433-63.894
				C194.174,506.423,199.696,441.858,199.696,441.858"/>
			<path fill="#CE8451" d="M90.206,239.007c0,0,5.632,10.217,7.04,15.759c1.412,5.539-11.66,10.915-13.169,7.106
				c-1.509-3.813-9.424-16.822-6.343-18.229C80.813,242.242,87.418,237.493,90.206,239.007"/>
			<path fill="none" stroke="#6B4529" stroke-miterlimit="10" d="M90.206,239.007c0,0,5.632,10.217,7.04,15.759
				c1.412,5.539-11.66,10.915-13.169,7.106c-1.509-3.813-9.424-16.822-6.343-18.229C80.813,242.242,87.418,237.493,90.206,239.007z"
				/>
			<path fill="#F9A86C" d="M157.846,374.398c-15.539-31.031-44.812-48.489-44.221-71.547c1.945-7.411,2.113-17.509-0.821-28.767
				c-2.936-11.26-2.76-13.898-5.459-15.983c-2.696-2.084-7.576-5.931-19.822-0.86c-12.248,5.074-26.827,13.584-23.587,26.017
				c3.24,12.434,11.593,28.485,17.329,33.435c11.241,9.702,31.987,82.994,43.759,94.296
				C136.797,422.291,173.384,405.426,157.846,374.398"/>
			<path fill="none" stroke="#6B4529" stroke-linecap="round" stroke-linejoin="round" stroke-miterlimit="10" d="M157.846,374.398
				c-15.539-31.031-44.812-48.489-44.221-71.547c1.945-7.411,2.113-17.509-0.821-28.767c-2.936-11.26-2.76-13.898-5.459-15.983
				c-2.696-2.084-7.576-5.931-19.822-0.86c-12.248,5.074-26.827,13.584-23.587,26.017c3.24,12.434,11.593,28.485,17.329,33.435
				c11.241,9.702,31.987,82.994,43.759,94.296C136.797,422.291,173.384,405.426,157.846,374.398z"/>
			<path fill="#F9A86C" d="M92.904,264.358c-1.585-6.082-1.73-17.615-1.537-20.896c0.218-3.683-1.208-10.808-9.056-8.692
				c-5.433,1.467-5.95,5.27-5.132,10.884c0.787,5.408,2.203,18.702,4.521,24.365c1.199-0.04,2.992-0.322,5.506-1.259
				C90.578,267.507,92.181,265.588,92.904,264.358"/>
			<path fill="none" stroke="#6B4529" stroke-linecap="round" stroke-linejoin="round" stroke-miterlimit="10" d="M92.904,264.358
				c-1.585-6.082-1.73-17.615-1.537-20.896c0.218-3.683-1.208-10.808-9.056-8.692c-5.433,1.467-5.95,5.27-5.132,10.884
				c0.787,5.408,2.203,18.702,4.521,24.365c1.199-0.04,2.992-0.322,5.506-1.259C90.578,267.507,92.181,265.588,92.904,264.358z"/>
			<path fill="#CE8451" d="M90.904,276.828c4.908-1.827,4.838-5.402,2.646-10.505c-0.238-0.554-0.451-1.223-0.644-1.965
				c-0.724,1.229-2.328,3.148-5.699,4.405c-2.514,0.933-4.307,1.215-5.506,1.255c0.086,0.216,0.175,0.421,0.264,0.616
				C84.441,275.885,85.996,278.652,90.904,276.828"/>
			<path fill="none" stroke="#6B4529" stroke-miterlimit="10" d="M90.904,276.828c4.908-1.827,4.838-5.402,2.646-10.505
				c-0.238-0.554-0.451-1.223-0.644-1.965c-0.724,1.229-2.328,3.148-5.699,4.405c-2.514,0.933-4.307,1.215-5.506,1.255
				c0.086,0.216,0.175,0.421,0.264,0.616C84.441,275.885,85.996,278.652,90.904,276.828z"/>
			<path fill="#F9A86C" d="M72.352,279.684c-2.357-4.389-4.433-13.551-4.827-16.227c-0.442-3.006-2.843-8.273-9.043-4.269
				c-4.292,2.773-4.077,5.963-2.443,10.204c1.574,4.085,5.012,14.28,7.908,18.116c0.995-0.385,2.447-1.141,4.39-2.629
				C70.941,282.884,71.957,280.879,72.352,279.684"/>
			<path fill="none" stroke="#6B4529" stroke-linecap="round" stroke-linejoin="round" stroke-miterlimit="10" d="M72.352,279.684
				c-2.357-4.389-4.433-13.551-4.827-16.227c-0.442-3.006-2.843-8.273-9.043-4.269c-4.292,2.773-4.077,5.963-2.443,10.204
				c1.574,4.085,5.012,14.28,7.908,18.116c0.995-0.385,2.447-1.141,4.39-2.629C70.941,282.884,71.957,280.879,72.352,279.684z"/>
			<path fill="#CE8451" d="M72.794,290.229c3.793-2.904,3.127-5.742,0.431-9.169c-0.295-0.371-0.584-0.84-0.872-1.375
				c-0.395,1.194-1.411,3.198-4.015,5.195c-1.943,1.488-3.394,2.241-4.39,2.629c0.11,0.146,0.219,0.283,0.327,0.411
				C67.234,291.381,69.001,293.131,72.794,290.229"/>
			<path fill="none" stroke="#6B4529" stroke-miterlimit="10" d="M72.794,290.229c3.793-2.904,3.127-5.742,0.431-9.169
				c-0.295-0.371-0.584-0.84-0.872-1.375c-0.395,1.194-1.411,3.198-4.015,5.195c-1.943,1.488-3.394,2.241-4.39,2.629
				c0.11,0.146,0.219,0.283,0.327,0.411C67.234,291.381,69.001,293.131,72.794,290.229z"/>
			<path fill="#F9A86C" d="M83.128,272.948c-2.41-5.683-4.97-20.114-5.235-23.388c-0.299-3.677-2.698-10.42-10.142-6.769
				c-5.154,2.525-5.132,6.378-3.544,11.751c1.532,5.176,5.587,21.094,8.661,26.215c1.177-0.277,2.907-0.913,5.255-2.333
				C81.272,276.515,82.585,274.308,83.128,272.948"/>
			<path fill="none" stroke="#6B4529" stroke-linecap="round" stroke-linejoin="round" stroke-miterlimit="10" d="M83.128,272.948
				c-2.41-5.683-4.97-20.114-5.235-23.388c-0.299-3.677-2.698-10.42-10.142-6.769c-5.154,2.525-5.132,6.378-3.544,11.751
				c1.532,5.176,5.587,21.094,8.661,26.215c1.177-0.277,2.907-0.913,5.255-2.333C81.272,276.515,82.585,274.308,83.128,272.948z"/>
			<path fill="#CE8451" d="M82.894,285.641c4.585-2.777,4.016-6.287,1.145-10.885c-0.313-0.498-0.616-1.113-0.91-1.808
				c-0.541,1.359-1.856,3.566-5.005,5.476c-2.348,1.421-4.077,2.057-5.254,2.334c0.116,0.195,0.232,0.384,0.349,0.552
				C76.391,285.998,78.308,288.42,82.894,285.641"/>
			<path fill="none" stroke="#6B4529" stroke-miterlimit="10" d="M82.894,285.641c4.585-2.777,4.016-6.287,1.145-10.885
				c-0.313-0.498-0.616-1.113-0.91-1.808c-0.541,1.359-1.856,3.566-5.005,5.476c-2.348,1.421-4.077,2.057-5.254,2.334
				c0.116,0.195,0.232,0.384,0.349,0.552C76.391,285.998,78.308,288.42,82.894,285.641z"/>
			<path fill="#CE8451" d="M98.632,294.412c0,0-3.175-2.207-3.286-4.71c-0.112-2.503-3.518,1.946-6.414,0.409
				c-2.896-1.54-5.66-6.16-5.66-6.16s14.111-5.852,19.121-0.648c5.007,5.201,5.524,7.181,5.524,7.181l-7.648,3.322L98.632,294.412z"
				/>
			<path fill="#F9A86C" d="M101.851,314.695c0,0,10.76-1.688,14.055-12.175c3.297-10.491,4.298-19.868,1.642-24.284
				c-2.66-4.417-15.266-8.986-19.106-8.844c-3.839,0.141-7.486,4.33-9.978,5.512c-2.492,1.184-9.189,1.104-10.529,3.402
				c-1.339,2.298,2.936,11.261,8.8,10.619c5.864-0.637,7.229-4.489,11.951-2.9c1.069,0.36,2.016,0.757,2.841,1.155
				c2.813,1.362,4.205,2.745,4.205,2.745s-3.031-3.594-5.257-0.448c-2.225,3.143-4.645,7.902-4.479,13.501"/>
			<path fill="none" stroke="#6B4529" stroke-linecap="round" stroke-linejoin="round" stroke-miterlimit="10" d="M101.851,314.695
				c0,0,10.76-1.688,14.055-12.175c3.297-10.491,4.298-19.868,1.642-24.284c-2.66-4.417-15.266-8.986-19.106-8.844
				c-3.839,0.141-7.486,4.33-9.978,5.512c-2.492,1.184-9.189,1.104-10.529,3.402c-1.339,2.298,2.936,11.261,8.8,10.619
				c5.864-0.637,7.229-4.489,11.951-2.9c1.069,0.36,2.016,0.757,2.841,1.155c2.813,1.362,4.205,2.745,4.205,2.745
				s-3.031-3.594-5.257-0.448c-2.225,3.143-4.645,7.902-4.479,13.501"/>
			<path fill="#E8AE85" d="M85.523,278.465c0.92,1.138,1.392,2.299,1.281,3.49c0,0-4.618,2.529-7.153-1.307"/>
			<path fill="none" stroke="#7C5337" stroke-linecap="round" stroke-linejoin="round" stroke-miterlimit="10" d="M85.523,278.465
				c0.92,1.138,1.392,2.299,1.281,3.49c0,0-4.618,2.529-7.153-1.307"/>
			<path fill="#F9A86C" d="M109.962,262.534c0,0-4.379-23.546-5.962-30.486c-1.585-6.944-15.457-37.324-18.235-41.938
				c-2.779-4.614-4.702,10.937-1.07,21.419c3.631,10.482,8.195,26.264,8.195,26.264s0.563,9.644,1.831,18.54"/>
			<path fill="none" stroke="#6B4529" stroke-linecap="round" stroke-linejoin="round" stroke-miterlimit="10" d="M109.962,262.534
				c0,0-4.379-23.546-5.962-30.486c-1.585-6.944-15.457-37.324-18.235-41.938c-2.779-4.614-4.702,10.937-1.07,21.419
				c3.631,10.482,8.195,26.264,8.195,26.264s0.563,9.644,1.831,18.54"/>
			<path fill="#CE8451" d="M84.696,211.529c3.632,10.482,8.195,26.264,8.195,26.264s0.563,9.644,1.831,18.54l1.813,0.739
				c0,0,0.627-13.98-0.87-20.233c-1.498-6.251-7.065-20.87-8.58-26.452c-1.516-5.582-1.985-11.567-1.985-11.567l-1.502-4.641
				C81.673,196.701,82.759,205.939,84.696,211.529"/>
			<path fill="#CE8451" d="M81.266,316.693c11.241,9.702,31.986,82.994,43.759,94.296c-10.394-19.121-24.413-63.688-26.645-65.693
				c-2.584-2.313-2.481-3.169-4.17-11.262c-1.69-8.095-5.481-17.217-7.944-23.564c-2.147-5.534-6.378-7.817-19.729-19.159
				C70.523,301.858,76.716,312.768,81.266,316.693"/>
			<path fill="#FFFFFF" d="M115.56,310.041c4.656,1.837,6.699,13.375,6.699,13.375s-9.34,19.723-26.265,21.392
				c-4.201-1.789-7.078-16.162-7.078-16.162C93.474,328.902,111.341,324.047,115.56,310.041"/>
			
				<path fill="none" stroke="#7888A1" stroke-width="0.691" stroke-linecap="round" stroke-linejoin="round" stroke-miterlimit="10" d="
				M115.56,310.041c4.656,1.837,6.699,13.375,6.699,13.375s-9.34,19.723-26.265,21.392c-4.201-1.789-7.078-16.162-7.078-16.162
				C93.474,328.902,111.341,324.047,115.56,310.041z"/>
			<path fill="#EEF3FA" d="M118.828,327.564c2.176-2.417,3.43-4.147,3.43-4.147s-2.002-11.422-6.625-13.341l-0.118,0.097
				c-0.619,2.001-1.519,3.76-2.616,5.314C117.185,319.125,119.238,321.954,118.828,327.564"/>
			<path fill="#C8D7ED" d="M88.947,328.917c0,0,2.849,14.138,7.046,15.891c1.287-0.128,2.529-0.4,3.733-0.765
				c-2.412-1.781-2.538-2.921-4.982-10.242c-0.597-1.796-1.407-3.342-1.98-5.25C91.148,328.854,89.812,328.964,88.947,328.917"/>
			<path fill="#154A8B" d="M207.329,256.668c-1.44-0.567-2.335-1.599-2.785-2.775c-0.37-0.233-0.712-0.511-1.014-0.821
				c-8.285,12.382-15.784,28.43-21.226,41.603c-3.644,8.818-23.975,56.402-28.193,68.509c-6.187-12.107-33.477-54.72-33.477-54.72
				c0,13.122-31.078,28.304-31.078,28.304s20.781,60.509,40.238,83.034c14.731,17.05,27.13,14.527,41.472,5.813
				c10.783-6.552,59.85-80.396,63.439-98.625c1.41-7.161,1.788-24.041,0.848-41.436
				C229.899,272.915,221.378,262.171,207.329,256.668"/>
			<path fill="none" stroke="#304A56" stroke-linecap="round" stroke-linejoin="round" stroke-miterlimit="10" d="M207.329,256.668
				c-1.44-0.567-2.335-1.599-2.785-2.775c-0.37-0.233-0.712-0.511-1.014-0.821c-8.285,12.382-15.784,28.43-21.226,41.603
				c-3.644,8.818-23.975,56.402-28.193,68.509c-6.187-12.107-33.477-54.72-33.477-54.72c0,13.122-31.078,28.304-31.078,28.304
				s20.781,60.509,40.238,83.034c14.731,17.05,27.13,14.527,41.472,5.813c10.783-6.552,59.85-80.396,63.439-98.625
				c1.41-7.161,1.788-24.041,0.848-41.436C229.899,272.915,221.378,262.171,207.329,256.668z"/>
			<path fill="#123C66" d="M204.536,253.862c-0.15-0.096-0.306-0.178-0.444-0.286c-8.505,12.491-16.222,28.965-21.786,42.429
				c-3.643,8.82-23.974,56.404-28.192,68.511c-6.187-12.106-33.478-54.721-33.478-54.721c0,1.81-0.607,3.656-1.622,5.496
				c0.202,0.718,0.335,1.497,0.389,2.359c0.437,7.096,12.073,19.281,19.244,31.937c7.171,12.653,11.811,15.061,14.764,22.505
				c2.952,7.446,4.64,9.13,3.796,12.929c0,0,2.544-9.291,0.64-13.294c-1.905-4.001,1.891-9.486,8.64-22.984
				c6.749-13.498,24.465-65.635,30.793-73.732c3.918-5.014,6.273-12.191,9.527-18.612
				C205.666,255.799,204.922,254.895,204.536,253.862"/>
			<g>
				<g opacity="0.4">
					<g>
						<defs>
							<rect id="SVGID_3_" x="89.557" y="316.862" width="146.206" height="114.702"/>
						</defs>
						<clipPath id="SVGID_4_">
							<use xlink:href="#SVGID_3_"  overflow="visible"/>
						</clipPath>
						<path clip-path="url(#SVGID_4_)" fill="#545554" d="M129.795,418.958c14.731,17.054,27.13,14.526,41.472,5.814
							c10.783-6.556,59.85-79.551,63.439-97.783c0.471-2.397,0.829-5.893,1.058-10.126c-3.523,3.277-6.448,5.946-8.22,7.454
							c-8.54,7.283-31.954,54.729-42.92,70.759c-10.968,16.026-17.295,22.384-28.684,29.131c-11.388,6.75-17.278-0.421-26.56-10.544
							c-9.28-10.123-32.251-74.326-35.145-76.895c-0.662-0.586-1.158-1.088-1.565-1.619c-1.912,1.03-3.112,1.618-3.112,1.618
							S110.338,396.432,129.795,418.958"/>
					</g>
				</g>
				<path fill="#FFFFFF" d="M323.168,214.933L262,283.422c0,0-9.468,167.701-6.908,186.467
					c17.353,10.679,83.194,11.708,83.194,11.708l16.252-228.621L323.168,214.933z"/>
				<path fill="none" stroke="#585B5B" stroke-miterlimit="10" d="M323.168,214.933L262,283.422c0,0-9.468,167.701-6.908,186.467
					c17.353,10.679,83.194,11.708,83.194,11.708l16.252-228.621L323.168,214.933z"/>
				<path fill="#FFFFFF" d="M253.757,229.614L262,283.422c0,0-9.468,167.701-6.908,186.467c-28.032,0-41.381-18.689-41.381-18.689
					s-14.015-190.883-4.005-198.225C219.718,245.633,253.757,229.614,253.757,229.614"/>
				<path fill="none" stroke="#585B5B" stroke-miterlimit="10" d="M253.757,229.614L262,283.422c0,0-9.468,167.701-6.908,186.467
					c-28.032,0-41.381-18.689-41.381-18.689s-14.015-190.883-4.005-198.225C219.718,245.633,253.757,229.614,253.757,229.614z"/>
				<path fill="#154A8B" d="M330.732,217.155c1.6,6.565,51.392,38.27,62.695,49.925c2.051,11.276-11.245,59.182-14.203,80.174
					c-0.926,6.588-16.305,67.683-20.683,103.946c-6.228,51.614,16.909,67.633,21.358,96.998
					c3.771,24.889-71.192,17.801-71.192,17.801c-10.68-63.185-39.155-64.963-37.705-78.883
					c-3.497-11.595,11.82-104.702,16.324-135.662C291.832,320.492,319.635,236.343,330.732,217.155"/>
				<path fill="none" stroke="#304A56" stroke-linecap="round" stroke-linejoin="round" stroke-miterlimit="10" d="M330.732,217.155
					c1.6,6.565,51.392,38.27,62.695,49.925c2.051,11.276-11.245,59.182-14.203,80.174c-0.926,6.588-16.305,67.683-20.683,103.946
					c-6.228,51.614,16.909,67.633,21.358,96.998c3.771,24.889-71.192,17.801-71.192,17.801
					c-10.68-63.185-39.155-64.963-37.705-78.883c-3.497-11.595,11.82-104.702,16.324-135.662
					C291.832,320.492,319.635,236.343,330.732,217.155z"/>
				<g>
					<g opacity="0.4">
						<g>
							<defs>
								<rect id="SVGID_5_" x="271" y="213.15" width="76.274" height="253.595"/>
							</defs>
							<clipPath id="SVGID_6_">
								<use xlink:href="#SVGID_5_"  overflow="visible"/>
							</clipPath>
							<path clip-path="url(#SVGID_6_)" fill="#123C66" d="M328.064,213.15c1.599,6.566,7.341,7.567,18.643,19.222
								c2.051,11.278-1.9,33.819-4.856,54.814c-0.928,6.587-21.698,11.353-21.698,11.353l19.447,18.48
								c-22.518,33.213-61.896,110.41-66.344,148.674c-0.35,3.004-2.318-1.104-2.252-3.939
								c0.281-12.109,18.495-108.706,22.998-139.668C298.506,291.126,316.965,232.341,328.064,213.15"/>
						</g>
					</g>
					<path fill="#154A8B" d="M324.058,205.142c1.6,6.566,7.342,7.566,18.643,19.224c2.051,11.278-3.235,40.492-6.192,61.484
						c-0.926,6.59-21.696,11.354-21.696,11.354l19.446,18.482c-22.518,33.214-56.658,108.306-61.107,146.568
						c-0.348,3.004-0.697-1.671-0.815-5.839c-0.345-12.107,11.822-104.702,16.325-135.664
						C293.166,289.791,312.961,224.331,324.058,205.142"/>
					<path fill="none" stroke="#304A56" stroke-linecap="round" stroke-linejoin="round" stroke-miterlimit="10" d="
						M324.058,205.142c1.6,6.566,7.342,7.566,18.643,19.224c2.051,11.278-3.235,40.492-6.192,61.484
						c-0.926,6.59-21.696,11.354-21.696,11.354l19.446,18.482c-22.518,33.214-56.658,108.306-61.107,146.568
						c-0.348,3.004-0.697-1.671-0.815-5.839c-0.345-12.107,11.822-104.702,16.325-135.664
						C293.166,289.791,312.961,224.331,324.058,205.142z"/>
					<g>
						<g opacity="0.4">
							<g>
								<defs>
									<rect id="SVGID_7_" x="186.916" y="235.621" width="62.835" height="249.092"/>
								</defs>
								<clipPath id="SVGID_8_">
									<use xlink:href="#SVGID_7_"  overflow="visible"/>
								</clipPath>
								<path clip-path="url(#SVGID_8_)" fill="#545554" d="M213.044,252.976c-7.927,1.763-8.677,6.674-8.01,12.683
									c0.668,6.005,2.67,46.054-2.67,72.749c-5.339,26.696,3.337,78.088-2.669,98.779c-6.008,20.688-12.778,46.594-12.778,46.594
									s12.215,1.744,17.986,0.461c7.99-1.774,7.021-13.502,16.994-23.084c11.63-11.174,14.325-51.956,17.663-81.326
									c3.337-29.363,10.193-144.21,10.193-144.21S225.057,250.308,213.044,252.976"/>
							</g>
						</g>
						<path fill="#154A8B" d="M209.039,250.308c-7.927,1.758-8.677,6.673-8.009,12.681c0.667,6.009,2.669,46.051-2.67,72.748
							c-5.34,26.697,3.337,78.089-2.67,98.78c-6.006,20.689-9.08,49.437-9.08,49.437s8.518-1.1,14.29-2.382
							c7.989-1.772,7.02-13.503,16.993-23.082c11.629-11.175,11.837-50.003,15.174-79.368
							c3.336-29.368,12.681-146.167,12.681-146.167S221.053,247.635,209.039,250.308"/>
						<path fill="none" stroke="#304A56" stroke-linecap="round" stroke-linejoin="round" stroke-miterlimit="10" d="
							M209.039,250.308c-7.927,1.758-8.677,6.673-8.009,12.681c0.667,6.009,2.669,46.051-2.67,72.748
							c-5.34,26.697,3.337,78.089-2.67,98.78c-6.006,20.689-9.08,49.437-9.08,49.437s8.518-1.1,14.29-2.382
							c7.989-1.772,7.02-13.503,16.993-23.082c11.629-11.175,11.837-50.003,15.174-79.368
							c3.336-29.368,12.681-146.167,12.681-146.167S221.053,247.635,209.039,250.308z"/>
						<g>
							<g opacity="0.4">
								<g>
									<defs>
										<rect id="SVGID_9_" x="348.271" y="282.572" width="31.274" height="275.933"/>
									</defs>
									<clipPath id="SVGID_10_">
										<use xlink:href="#SVGID_9_"  overflow="visible"/>
									</clipPath>
									<path clip-path="url(#SVGID_10_)" fill="#123C66" d="M379.114,544.023c-5.851-26.819-26.499-43.712-20.572-92.822
										c2.006-16.63,6.327-38.481,10.508-57.901c-2.847-41.609-5.149-74.868-5.149-74.868c0.092-14.182-4.573-29.234,0.547-35.858
										l-1.063,0.397c0,0-13.722,22.558-13.722,53.703c0.239,15.209,2.023,98.336-1.092,131.706
										c-3.113,33.373,18.721,94.475,26.697,89.879c0.473-0.271,0.894-0.449,1.273-0.641c0.823-0.771,1.514-1.607,2.06-2.509
										c0.32-0.861,0.626-2.038,0.941-3.721C379.444,549.504,379.295,547.012,379.114,544.023"/>
								</g>
							</g>
							<path fill="#154A8B" d="M251.087,222.941c0,0-31.37,40.047-29.368,46.056l15.351,13.346l-24.208,12.412
								c-0.83,0.379-1.614,1.862-0.929,3.403c5.158,11.623,21.277,66.477,12.456,132.354c0,0,12.681-36.042,16.018-80.759
								C243.745,305.034,244.413,236.957,251.087,222.941"/>
							<path fill="none" stroke="#304A56" stroke-linecap="round" stroke-linejoin="round" stroke-miterlimit="10" d="
								M251.087,222.941c0,0-31.37,40.047-29.368,46.056l15.351,13.346l-24.208,12.412c-0.83,0.379-1.614,1.862-0.929,3.403
								c5.158,11.623,21.277,66.477,12.456,132.354c0,0,12.681-36.042,16.018-80.759
								C243.745,305.034,244.413,236.957,251.087,222.941z"/>
							<g>
								<g opacity="0.4">
									<g>
										<defs>
											<rect id="SVGID_11_" x="211.925" y="327.34" width="106.594" height="105.032"/>
										</defs>
										<defs>
											<rect id="SVGID_12_" x="211.925" y="327.34" width="106.594" height="105.032"/>
										</defs>
										<defs>
											<rect id="SVGID_13_" x="211.925" y="327.34" width="106.594" height="105.032"/>
										</defs>
										<defs>
											<rect id="SVGID_14_" x="211.925" y="327.34" width="106.594" height="105.032"/>
										</defs>
										<defs>
											<rect id="SVGID_15_" x="211.925" y="327.34" width="106.594" height="105.032"/>
										</defs>
										<defs>
											<rect id="SVGID_16_" x="211.925" y="327.34" width="106.594" height="105.032"/>
										</defs>
										<clipPath id="SVGID_17_">
											<use xlink:href="#SVGID_11_"  overflow="visible"/>
										</clipPath>
										<clipPath id="SVGID_18_" clip-path="url(#SVGID_17_)">
											<use xlink:href="#SVGID_12_"  overflow="visible"/>
										</clipPath>
										<clipPath id="SVGID_19_" clip-path="url(#SVGID_18_)">
											<use xlink:href="#SVGID_13_"  overflow="visible"/>
										</clipPath>
										<clipPath id="SVGID_20_" clip-path="url(#SVGID_19_)">
											<use xlink:href="#SVGID_14_"  overflow="visible"/>
										</clipPath>
										<clipPath id="SVGID_21_" clip-path="url(#SVGID_20_)">
											<use xlink:href="#SVGID_15_"  overflow="visible"/>
										</clipPath>
										<clipPath id="SVGID_22_" clip-path="url(#SVGID_21_)">
											<use xlink:href="#SVGID_16_"  overflow="visible"/>
										</clipPath>
										<path clip-path="url(#SVGID_22_)" fill="#545554" d="M315.847,412.758c0,0-8.009,1.784-14.684,2.228
											c-6.673,0.441-15.422-3.956-26.546-3.511c-11.123,0.446-11.274-8.063-16.169-22.744
											c-4.895-14.685-1.557-27.807,8.676-28.698c10.234-0.89,18.911-1.112,31.37,10.01
											c12.458,11.126,20.022,10.234,20.022,10.234L315.847,412.758z"/>
										<path clip-path="url(#SVGID_22_)" fill="#545554" d="M274.912,360.257c-8.498-0.112-34.957-2.392-38.078,1.27
											c-3.124,3.663-17.581,12.748-24.274,19.523c-3.563,3.61,8.756,5.521,13.931,3.445c5.175-2.075,13.576-8.694,18.152-9.495
											c4.577-0.801,17.937-0.114,17.937-0.114"/>
										<path clip-path="url(#SVGID_22_)" fill="#545554" d="M263.672,373.303c-10.583,2.113-25.031,5.529-26.812,8.507
											c-2.469,4.131-15.21,15.498-20.679,23.294c-2.915,4.153,9.55,3.986,14.308,1.076c4.756-2.91,11.938-10.833,16.318-12.386
											c3.028-1.072,10.316-2.145,14.523-2.701"/>
										<path clip-path="url(#SVGID_22_)" fill="#545554" d="M266.142,382.396c-9.521,2.699-20.759,6.468-22.149,9.228
											c-2.047,4.066-13.585,18.162-18.208,25.89c-2.464,4.117,9.28,3.103,13.568,0.034c4.287-3.064,10.816-13.539,14.84-15.304
											c2.011-0.879,10.005-2.761,13.613-3.57"/>
										<path clip-path="url(#SVGID_22_)" fill="#545554" d="M268.327,398.514c-7.92,2.561-16.512,5.853-17.591,8.154
											c-1.71,3.65-11.571,16.422-15.472,23.376c-2.078,3.709,8.294,2.517,12.014-0.305c3.719-2.822,9.237-12.26,12.754-13.922
											c3.518-1.662,14.458-4.065,14.458-4.065"/>
										<path clip-path="url(#SVGID_22_)" fill="#545554" d="M303.506,374.375c-7.113-4.201-4.122-20.35-10.796-24.798
											c-6.675-4.449-12.013-2.669-24.028-18.688c-9.061-12.084-12.014,9.789-2.226,19.58c4.804,4.8,10.68,9.787,10.68,9.787"/>
									</g>
								</g>
								<path fill="#154A8B" d="M393.673,267.489c0,0,21.376,147.333,20.612,161.839c-0.764,14.503-33.589,11.074-33.589,11.074
									s-17.558,4.197-20.61-8.019c-3.054-12.214-7.636-117.565-7.636-117.565c0.148-22.806,17.609-38.523,17.609-38.523"/>
								<path fill="none" stroke="#304A56" stroke-miterlimit="10" d="M393.673,267.489c0,0,21.376,147.333,20.612,161.839
									c-0.764,14.503-33.589,11.074-33.589,11.074s-17.558,4.197-20.61-8.019c-3.054-12.214-7.636-117.565-7.636-117.565
									c0.148-22.806,17.609-38.523,17.609-38.523"/>
								<g>
									<g opacity="0.4">
										<g>
											<defs>
												<rect id="SVGID_23_" x="301.713" y="373.944" width="63.543" height="74.218"/>
											</defs>
											<clipPath id="SVGID_24_">
												<use xlink:href="#SVGID_23_"  overflow="visible"/>
											</clipPath>
											<path clip-path="url(#SVGID_24_)" fill="#123C66" d="M310.821,432.758c-8.809-9.151-9.734-18.523-8.83-27.546
												c0.902-9.023,5.258-32.733,11.839-31.198c4.439-0.26,36.555,3.705,47.593,4.354c1.319,0.078,2.59,0.218,3.834,0.393
												c-3.78,19.939-6.273,37.825-5.993,48.194c0.146,5.419,0.343,10.764,0.568,21.207
												C352.177,448.162,312.082,434.067,310.821,432.758"/>
										</g>
									</g>
									<path fill="#273F49" d="M306.01,399.889c0.905-9.026,3.637-28.744,10.216-27.207c11.929,4.398,13.28,22.125,12.918,33.956
										c-0.554,18.137-5.518,19.486-12.639,21.12c-1.557,0.36-3.695-1.595-4.958-2.904
										C302.738,415.7,305.109,408.912,306.01,399.889"/>
									<path fill="none" stroke="#304A56" stroke-linecap="round" stroke-linejoin="round" stroke-miterlimit="10" d="
										M306.01,399.889c0.905-9.026,3.637-28.744,10.216-27.207c11.929,4.398,13.28,22.125,12.918,33.956
										c-0.554,18.137-5.518,19.486-12.639,21.12c-1.557,0.36-3.695-1.595-4.958-2.904
										C302.738,415.7,305.109,408.912,306.01,399.889z"/>
									<path fill="#F9A86C" d="M314.512,410.091c0,0-8.009,1.778-14.683,2.225c-6.675,0.441-15.422-3.954-26.546-3.508
										c-11.123,0.441-11.276-8.063-16.17-22.747c-4.894-14.682-1.557-27.808,8.677-28.7c10.234-0.887,18.912-1.108,31.369,10.014
										c12.458,11.124,20.023,10.235,20.023,10.235L314.512,410.091z"/>
									<path fill="none" stroke="#6B4529" stroke-linecap="round" stroke-linejoin="round" stroke-miterlimit="10" d="
										M314.512,410.091c0,0-8.009,1.778-14.683,2.225c-6.675,0.441-15.422-3.954-26.546-3.508
										c-11.123,0.441-11.276-8.063-16.17-22.747c-4.894-14.682-1.557-27.808,8.677-28.7c10.234-0.887,18.912-1.108,31.369,10.014
										c12.458,11.124,20.023,10.235,20.023,10.235L314.512,410.091z"/>
									<path fill="#F9A86C" d="M273.577,357.586c-8.499-0.113-34.956-2.391-38.077,1.271
										c-3.123,3.661-17.581,12.748-24.274,19.524c-3.565,3.613,8.756,5.523,13.931,3.445c5.175-2.075,13.576-8.693,18.152-9.498
										c4.578-0.798,17.938-0.108,17.938-0.108"/>
									<path fill="none" stroke="#6B4529" stroke-linecap="round" stroke-linejoin="round" stroke-miterlimit="10" d="
										M273.577,357.586c-8.499-0.113-34.956-2.391-38.077,1.271c-3.123,3.661-17.581,12.748-24.274,19.524
										c-3.565,3.613,8.756,5.523,13.931,3.445c5.175-2.075,13.576-8.693,18.152-9.498c4.578-0.798,17.938-0.108,17.938-0.108"/>
									<path fill="#F9A86C" d="M262.338,370.633c-10.584,2.115-25.033,5.529-26.812,8.506
										c-2.471,4.133-15.212,15.498-20.682,23.293c-2.914,4.157,9.552,3.987,14.309,1.08c4.756-2.91,11.937-10.836,16.317-12.387
										c3.029-1.074,10.316-2.146,14.523-2.704"/>
									<path fill="none" stroke="#6B4529" stroke-linecap="round" stroke-linejoin="round" stroke-miterlimit="10" d="
										M262.338,370.633c-10.584,2.115-25.033,5.529-26.812,8.506c-2.471,4.133-15.212,15.498-20.682,23.293
										c-2.914,4.157,9.552,3.987,14.309,1.08c4.756-2.91,11.937-10.836,16.317-12.387c3.029-1.074,10.316-2.146,14.523-2.704"/>
									<path fill="#F9A86C" d="M264.808,379.726c-9.522,2.699-20.761,6.468-22.15,9.228c-2.045,4.063-13.584,18.162-18.207,25.89
										c-2.465,4.115,9.279,3.103,13.567,0.036c4.287-3.067,10.815-13.538,14.84-15.303c2.011-0.882,10.005-2.761,13.613-3.574"/>
									<path fill="none" stroke="#6B4529" stroke-linecap="round" stroke-linejoin="round" stroke-miterlimit="10" d="
										M264.808,379.726c-9.522,2.699-20.761,6.468-22.15,9.228c-2.045,4.063-13.584,18.162-18.207,25.89
										c-2.465,4.115,9.279,3.103,13.567,0.036c4.287-3.067,10.815-13.538,14.84-15.303c2.011-0.882,10.005-2.761,13.613-3.574"/>
									<path fill="#F9A86C" d="M266.994,395.845c-7.922,2.561-16.513,5.852-17.593,8.154c-1.71,3.651-11.57,16.421-15.471,23.377
										c-2.078,3.705,8.293,2.513,12.013-0.307c3.72-2.824,9.236-12.262,12.752-13.923c3.52-1.659,14.459-4.067,14.459-4.067"/>
									<path fill="none" stroke="#6B4529" stroke-linecap="round" stroke-linejoin="round" stroke-miterlimit="10" d="
										M266.994,395.845c-7.922,2.561-16.513,5.852-17.593,8.154c-1.71,3.651-11.57,16.421-15.471,23.377
										c-2.078,3.705,8.293,2.513,12.013-0.307c3.72-2.824,9.236-12.262,12.752-13.923c3.52-1.659,14.459-4.067,14.459-4.067"/>
									<path fill="#F9A86C" d="M302.172,371.704c-6.51-3.841-4.587-16.577-10.692-20.652c-6.105-4.069-10.175-4.475-21.165-19.129
										c-8.291-11.056-10.994,8.955-2.037,17.911c4.393,4.392,7.1,8.955,7.1,8.955"/>
									
										<path fill="none" stroke="#6B4529" stroke-width="0.915" stroke-linecap="round" stroke-linejoin="round" stroke-miterlimit="10" d="
										M302.172,371.704c-6.51-3.841-4.587-16.577-10.692-20.652c-6.105-4.069-10.175-4.475-21.165-19.129
										c-8.291-11.056-10.994,8.955-2.037,17.911c4.393,4.392,7.1,8.955,7.1,8.955"/>
									<path fill="#FFFFFF" d="M358.547,379.265c0,0-34.756-3.56-39.268-2.203c-4.513,1.352-8.606-0.939-8.606-0.939
										s5.445,6.945,3.034,20.643c-1.634,9.295-4.64,14.398-10.056,15.301c-5.414,0.905,0.593,2.728,5.104,4.984
										c4.513,2.253,51.823,12.559,65.132,10.301C387.199,425.098,358.547,379.265,358.547,379.265"/>
									<path fill="none" stroke="#585B5B" stroke-miterlimit="10" d="M358.547,379.265c0,0-34.756-3.56-39.268-2.203
										c-4.513,1.352-8.606-0.939-8.606-0.939s5.445,6.945,3.034,20.643c-1.634,9.295-4.64,14.398-10.056,15.301
										c-5.414,0.905,0.593,2.728,5.104,4.984c4.513,2.253,51.823,12.559,65.132,10.301
										C387.199,425.098,358.547,379.265,358.547,379.265z"/>
									<path fill="#154A8B" d="M410.467,436.197c0,0-5.343,8.396-13.74,10.686c-8.265,2.253-66.139-8.254-80.223-19.124
										c7.121-1.636,12.085-4.318,12.639-22.46c0.363-11.829-0.991-28.22-12.918-32.618c4.441-0.261,38.161,3.703,49.202,4.352
										c25.955,1.526,37.406,22.902,37.406,22.902"/>
									<path fill="none" stroke="#304A56" stroke-linecap="round" stroke-linejoin="round" stroke-miterlimit="10" d="
										M410.467,436.197c0,0-5.343,8.396-13.74,10.686c-8.265,2.253-66.139-8.254-80.223-19.124
										c7.121-1.636,12.085-4.318,12.639-22.46c0.363-11.829-0.991-28.22-12.918-32.618c4.441-0.261,38.161,3.703,49.202,4.352
										c25.955,1.526,37.406,22.902,37.406,22.902"/>
									<path fill="#123C66" d="M386.998,274.163l6.675-6.674c0,0,21.376,147.333,20.612,161.839
										c-0.23,4.398-3.418,7.881-7.741,10.602c0.614-1.219,0.404-2.69,1.066-3.928
										C414.596,422.933,389.187,274.668,386.998,274.163"/>
									<path fill="#123C66" d="M372.177,381.895c-10.868-2.174-47.629-6.886-52.213-7.111c-0.909-0.712-1.905-1.313-2.993-1.787
										l-0.081-0.351c4.467-0.228,38.028,3.771,48.537,4.388c25.957,1.526,37.408,22.902,37.408,22.902
										c0.431-0.511,2.365,2.404,2.932,6.929c0.279,2.226-2.403-2.686-2.403-2.686S386.979,384.854,372.177,381.895"/>
									<path fill="#F9A86C" d="M320.986,156.466c0,0-6.493,62.471-1.382,73.661c-0.104,4.828-52.689,37.523-58.878,52.707
										c-7.443-16.988-4.701-27.523-4.701-35.15l0.888-54.283L320.986,156.466z"/>
									<path fill="none" stroke="#6B4529" stroke-miterlimit="10" d="M320.986,156.466c0,0-6.493,62.471-1.382,73.661
										c-0.104,4.828-52.689,37.523-58.878,52.707c-7.443-16.988-4.701-27.523-4.701-35.15l0.888-54.283L320.986,156.466z"/>
									<path fill="#CE8451" d="M320.986,156.466c0.848-7.165-64.073,36.935-64.073,36.935l-0.195,11.954
										c4.06,4.144,23.936,7.558,27.662,7.797c10.545,0.681,13.01-5.476,20.546-16.016
										C314.713,183.441,320.986,156.466,320.986,156.466"/>
									<path fill="#C7C6C6" d="M286.284,250.308c-13.84,11.256-25.63,35.148-25.63,35.148
										c16.018-19.131,40.237-25.05,40.237-25.05S300.123,239.046,286.284,250.308"/>
									<path fill="none" stroke="#585B5B" stroke-linecap="round" stroke-linejoin="round" stroke-miterlimit="10" d="
										M286.284,250.308c-13.84,11.256-25.63,35.148-25.63,35.148c16.018-19.131,40.237-25.05,40.237-25.05
										S300.123,239.046,286.284,250.308z"/>
									<path fill="#F9A86C" d="M288.353,31.1c-17.882-0.916-53.427,17.418-53.07,39.981c0.359,22.562,3.843,46.783,3.843,46.783
										s-7.098,13.088-6.741,20.608c0.36,7.521,2.168,46.297,7.62,58.8c3.517,8.06,42.643,14.1,48.705,10.385
										c3.007-1.843,25.07-27.575,30.44-46.556c5.373-18.983,18.981-74.133,10.743-93.115
										C321.658,49.005,316.288,32.529,288.353,31.1"/>
									<path fill="none" stroke="#6B4529" stroke-miterlimit="10" d="M288.353,31.1c-17.882-0.916-53.427,17.418-53.07,39.981
										c0.359,22.562,3.843,46.783,3.843,46.783s-7.098,13.088-6.741,20.608c0.36,7.521,2.168,46.297,7.62,58.8
										c3.517,8.06,42.643,14.1,48.705,10.385c3.007-1.843,25.07-27.575,30.44-46.556c5.373-18.983,18.981-74.133,10.743-93.115
										C321.658,49.005,316.288,32.529,288.353,31.1z"/>
									<path fill="#FBBD92" d="M239.518,99.734c-1.617-9.095,1.645-12.186,1.528-19.623c-0.129-8.209-4.458-12.138,2.043-20.024
										c10.597-12.861,34.385-27.448,46.772-28.884c-0.5-0.034-0.991-0.077-1.507-0.104c-17.882-0.916-53.427,17.418-53.07,39.981
										c0.359,22.562,3.842,46.783,3.842,46.783S240.327,104.3,239.518,99.734"/>
									<path fill="#FBBD92" d="M243.088,194.801c-5.453-12.498-6.339-48.807-6.698-56.328c-0.357-7.523,2.736-20.608,2.736-20.608
										s-7.097,13.086-6.74,20.608c0.36,7.521,2.168,46.297,7.62,58.8c1.355,3.109,8.007,5.918,16.014,7.979
										C266.541,207.96,245.908,201.275,243.088,194.801"/>
									<path fill="#CE8451" d="M284.708,207.657c-0.65,0.399-1.702,0.679-3.033,0.86c3.305,0.123,5.839-0.128,7.036-0.86
										c3.007-1.843,25.068-27.575,30.44-46.556c0.441-1.561,0.938-3.361,1.474-5.37
										C309.227,181.691,287.714,205.814,284.708,207.657"/>
									<g>
										<g opacity="0.4">
											<g>
												<defs>
													<rect id="SVGID_25_" x="266.156" y="49.215" width="54.443" height="50.226"/>
												</defs>
												<clipPath id="SVGID_26_">
													<use xlink:href="#SVGID_25_"  overflow="visible"/>
												</clipPath>
												<path clip-path="url(#SVGID_26_)" fill="#3F4242" d="M266.156,55.352c9.127-4.915,21.271-8.195,35.367-4.644
													c14.101,3.549,31.681,25.147,5.881,48.732c0,0-0.518-1.72,0.433-4.986c0.948-3.269,13.981-34.31-9.874-37.354
													C274.112,54.058,266.156,55.352,266.156,55.352"/>
											</g>
										</g>
										<path fill="#564F4C" d="M282.478,90.972c-1.496-3.288,10.543-4.079,13.263-3.739c2.721,0.339,3.06,3.739,7.141,4.422
											c4.083,0.679,4.763,3.401,3.744,4.421c-1.023,1.02-7.825,0.34-12.245-2.721C289.958,90.292,284.177,94.714,282.478,90.972
											"/>
										<path fill="none" stroke="#47403D" stroke-miterlimit="10" d="M282.478,90.972c-1.496-3.288,10.543-4.079,13.263-3.739
											c2.721,0.339,3.06,3.739,7.141,4.422c4.083,0.679,4.763,3.401,3.744,4.421c-1.023,1.02-7.825,0.34-12.245-2.721
											C289.958,90.292,284.177,94.714,282.478,90.972z"/>
										<path fill="#CE8451" d="M248.214,148.62c-0.025,2.154,0.471,8.185,8.333,9.17c4.815,0.605,8.625-1.318,11.142-3.26"/>
										<path fill="#F9A86C" d="M266.659,111.926c-0.693,4.977-3.643,15.346-10.642,22.103
											c-6.998,6.756-12.483,12.791-6.776,17.425c5.704,4.636,10.642,4.483,15.391,3.334c3.405-0.82,4.217-1.552,4.217-1.552"/>
										<path fill="none" stroke="#6B4529" stroke-linecap="round" stroke-linejoin="round" stroke-miterlimit="10" d="
											M266.659,111.926c-0.693,4.977-3.643,15.346-10.642,22.103c-6.998,6.756-12.483,12.791-6.776,17.425
											c5.704,4.636,10.642,4.483,15.391,3.334c3.405-0.82,4.217-1.552,4.217-1.552"/>
										<path fill="#CE8451" d="M273.377,187.616c-3.783-2.003-12.014-6.229-19.356-2.892"/>
										<path fill="#564F4C" d="M243.119,50.65c0,0-7.382,11.663-10.72,13.325c-3.337,1.661-4.809,6.822-1.361,15.023
											c4.218,10.039,8.089,38.865,8.089,38.865c0.063-1.701,0.34-7.474-0.053-8.946c-1.779-6.674-2.969-17.081-1.113-25.025
											c1.993-8.535-3.558-8.786-0.889-19.131C239.383,55.794,247.012,52.428,243.119,50.65"/>
										<path fill="none" stroke="#47403D" stroke-linecap="round" stroke-linejoin="round" stroke-miterlimit="10" d="
											M243.119,50.65c0,0-7.382,11.663-10.72,13.325c-3.337,1.661-4.809,6.822-1.361,15.023
											c4.218,10.039,8.089,38.865,8.089,38.865c0.063-1.701,0.34-7.474-0.053-8.946c-1.779-6.674-2.969-17.081-1.113-25.025
											c1.993-8.535-3.558-8.786-0.889-19.131C239.383,55.794,247.012,52.428,243.119,50.65z"/>
										<path fill="#564F4C" d="M350.546,76.295c1.458,9.896-3.024,30.254-8.246,37.46c-5.221,7.206-13.526,25.092-13.526,25.092
											s-5.339,5.792-5.163-1.115c0.668-25.945-2.57-34.871-4.589-44.23c-1.85-8.568,8.368-12.616,5.529-22.915
											C322.089,61.662,349.585,69.796,350.546,76.295"/>
										<path fill="none" stroke="#47403D" stroke-miterlimit="10" d="M350.546,76.295c1.458,9.896-3.024,30.254-8.246,37.46
											c-5.221,7.206-13.526,25.092-13.526,25.092s-5.339,5.792-5.163-1.115c0.668-25.945-2.57-34.871-4.589-44.23
											c-1.85-8.568,8.368-12.616,5.529-22.915C322.089,61.662,349.585,69.796,350.546,76.295z"/>
										<path fill="#564F4C" d="M319.765,56.042c-1.861-2.45,12.967-11.687,17.421-11.749c4.452-0.063,14.815,22.86,14.817,31.146
											c0.008,21.43-12.475,28.56-18.598,21.43C324.4,86.389,321.625,58.494,319.765,56.042"/>
										<path fill="none" stroke="#47403D" stroke-linecap="round" stroke-linejoin="round" stroke-miterlimit="10" d="
											M319.765,56.042c-1.861-2.45,12.967-11.687,17.421-11.749c4.452-0.063,14.815,22.86,14.817,31.146
											c0.008,21.43-12.475,28.56-18.598,21.43C324.4,86.389,321.625,58.494,319.765,56.042z"/>
										<path fill="#564F4C" d="M236.591,61.118c0,0-1.702-25.602,17.813-34.997c19.518-9.396,36.12-12.027,60.307,1.145
											c24.182,13.177,22.494,10.812,23.377,14.796c0.882,3.983-14.075,10.992-20.407,8.68
											c-6.329-2.308-24.397-8.063-43.49-1.287C255.094,56.222,242.811,66.856,236.591,61.118"/>
										
											<path fill="none" stroke="#47403D" stroke-width="1.034" stroke-linecap="round" stroke-linejoin="round" stroke-miterlimit="10" d="
											M236.591,61.118c0,0-1.702-25.602,17.813-34.997c19.518-9.396,36.12-12.027,60.307,1.145
											c24.182,13.177,22.494,10.812,23.377,14.796c0.882,3.983-14.075,10.992-20.407,8.68
											c-6.329-2.308-24.397-8.063-43.49-1.287C255.094,56.222,242.811,66.856,236.591,61.118z"/>
										<path fill="#736A67" d="M259.524,55.26c4.2-2.074,8.918-4.26,14.194-6.134c4.611-1.634,9.153-2.405,13.478-2.608
											c0.033-0.041,0.063-0.08,0.094-0.122c10.336-13.664,29.613-13.749,43.279-10.766c-2.415-1.846-6.191-2.965-12.899-6.717
											C298.971,30.153,264.476,34.455,259.524,55.26"/>
										<path fill="#736A67" d="M252.874,57.952c0,0-4.97-18.326,14.517-26.93c11.558-5.102,27.405-7.377,41.226-6.813
											c-2.265-1.032-4.464-1.931-6.611-2.681c-21.499-0.412-43.071,3.874-49.487,10.863
											c-9.472,10.312-7.691,23.813-5.626,28.916c1.822-0.714,3.818-1.657,5.998-2.733
											C252.877,58.183,252.874,57.952,252.874,57.952"/>
										<path fill="#564F4C" d="M252.874,57.952c0,0,0.004,0.23,0.017,0.623c2.047-1.016,4.258-2.143,6.634-3.315
											c4.953-20.805,39.446-25.106,58.146-26.347c-1.392-0.779-1.324-0.753-2.96-1.646c-2.087-1.136-4.115-2.144-6.094-3.058
											c-13.82-0.564-29.668,1.71-41.226,6.813C247.903,39.626,252.874,57.952,252.874,57.952"/>
										<path fill="#736A67" d="M267.012,54.792c9.131-4.914,20.644-10.295,34.741-6.744c14.097,3.55,31.678,25.15,5.883,48.734
											c0,0-0.522-1.718,0.428-4.988c0.948-3.269,14.211-36.967-9.646-40.012C274.565,48.739,267.012,54.792,267.012,54.792"/>
										<path fill="none" stroke="#47403D" stroke-linecap="round" stroke-linejoin="round" stroke-miterlimit="10" d="
											M267.012,54.792c9.131-4.914,20.644-10.295,34.741-6.744c14.097,3.55,31.678,25.15,5.883,48.734
											c0,0-0.522-1.718,0.428-4.988c0.948-3.269,14.211-36.967-9.646-40.012C274.565,48.739,267.012,54.792,267.012,54.792z"/>
										<path fill="#564F4C" d="M262.911,55.779c0,0,18.899-13.455,41.482-11.19c22.58,2.266,28.769,12.173,27.319,29.131
											c-1.451,16.959-14.604,25.881-14.604,25.881s11.43-31.847-1.987-43.375C301.707,44.696,274.423,50.4,262.911,55.779"/>
										<path fill="none" stroke="#47403D" stroke-linecap="round" stroke-linejoin="round" stroke-miterlimit="10" d="
											M262.911,55.779c0,0,18.899-13.455,41.482-11.19c22.58,2.266,28.769,12.173,27.319,29.131
											c-1.451,16.959-14.604,25.881-14.604,25.881s11.43-31.847-1.987-43.375C301.707,44.696,274.423,50.4,262.911,55.779z"/>
										<path fill="#564F4C" d="M266.393,90.249c0,0-2.468-4.779-12.338-5.366c-9.869-0.589-12.776,8.638-12.776,8.638
											s1.6,0.892,4.472-0.109c2.875-1,11.403-3.326,14.689-2.218C263.726,92.305,266.393,90.249,266.393,90.249"/>
										<path fill="none" stroke="#47403D" stroke-miterlimit="10" d="M266.393,90.249c0,0-2.468-4.779-12.338-5.366
											c-9.869-0.589-12.776,8.638-12.776,8.638s1.6,0.892,4.472-0.109c2.875-1,11.403-3.326,14.689-2.218
											C263.726,92.305,266.393,90.249,266.393,90.249z"/>
										<path fill="#F9A86C" d="M244.635,167.544c4.449,4.008,22.642,10.234,37.127,0.889"/>
										
											<path fill="none" stroke="#6B4529" stroke-width="0.898" stroke-linecap="round" stroke-linejoin="round" stroke-miterlimit="10" d="
											M244.635,167.544c4.449,4.008,22.642,10.234,37.127,0.889"/>
										<path fill="#F9A86C" d="M323.105,127.361c0,0,9.673-11.538,15.706-5.699c6.031,5.84-2.024,29.767-9.44,35.973
											c-7.414,6.203-9.458-2.402-9.458-2.402"/>
										<path fill="none" stroke="#6B4529" stroke-width="0.74" stroke-miterlimit="10" d="M323.105,127.361
											c0,0,9.673-11.538,15.706-5.699c6.031,5.84-2.024,29.767-9.44,35.973c-7.414,6.203-9.458-2.402-9.458-2.402"/>
										<path fill="#F9A86C" d="M330.742,131.612c4.967-1.053,2.553,9.22-1.362,11.117c-3.914,1.899-2.89,7.232-2.718,9.499"/>
										<path fill="none" stroke="#6B4529" stroke-width="0.74" stroke-miterlimit="10" d="M330.742,131.612
											c4.967-1.053,2.553,9.22-1.362,11.117c-3.914,1.899-2.89,7.232-2.718,9.499"/>
										<path fill="#FFFFFF" d="M318.051,199.358c0,0,1.558,2.098-3.114,10.504c-4.672,8.405-28.476,39.329-28.476,39.329
											s-1.335,2.003,3.336,2.227c4.673,0.222,13.348,12.236,18.91,17.352c5.563,5.116,14.24,9.716,18.466,8.531
											c4.227-1.188-6.007-8.304-5.562-18.984c0.444-10.682,0.222-25.587,2.893-34.264
											C327.174,215.375,327.616,199.805,318.051,199.358"/>
										<path fill="none" stroke="#585B5B" stroke-linecap="round" stroke-linejoin="round" stroke-miterlimit="10" d="
											M318.051,199.358c0,0,1.558,2.098-3.114,10.504c-4.672,8.405-28.476,39.329-28.476,39.329s-1.335,2.003,3.336,2.227
											c4.673,0.222,13.348,12.236,18.91,17.352c5.563,5.116,14.24,9.716,18.466,8.531c4.227-1.188-6.007-8.304-5.562-18.984
											c0.444-10.682,0.222-25.587,2.893-34.264C327.174,215.375,327.616,199.805,318.051,199.358z"/>
										<path fill="#C7C6C6" d="M250.153,249.86c2.447,6.006,0.933,15.128,3.603,21.137c2.669,6.004,6.898,10.454,6.897,14.461
											c-0.001,4.005,0.666-14.559-2.004-21.405c-2.67-6.853-1.779-54.192-1.779-54.192s-6.229,11.211-6.229,18.931
											C250.641,236.511,247.708,243.855,250.153,249.86"/>
										<path fill="none" stroke="#585B5B" stroke-linecap="round" stroke-linejoin="round" stroke-miterlimit="10" d="
											M250.153,249.86c2.447,6.006,0.933,15.128,3.603,21.137c2.669,6.004,6.898,10.454,6.897,14.461
											c-0.001,4.005,0.666-14.559-2.004-21.405c-2.67-6.853-1.779-54.192-1.779-54.192s-6.229,11.211-6.229,18.931
											C250.641,236.511,247.708,243.855,250.153,249.86z"/>
										<path fill="#FFFFFF" d="M256.87,209.86c0,0-8.675,17.085-13.792,21.533c-5.119,4.451-13.126,37.837-8.676,49.844
											c0,0,0.667-10.559,5.339-17.185c4.672-6.631,10.9-15.749,11.567-20.198C251.974,239.401,251.532,223.926,256.87,209.86"/>
										<path fill="none" stroke="#585B5B" stroke-miterlimit="10" d="M256.87,209.86c0,0-8.675,17.085-13.792,21.533
											c-5.119,4.451-13.126,37.837-8.676,49.844c0,0,0.667-10.559,5.339-17.185c4.672-6.631,10.9-15.749,11.567-20.198
											C251.974,239.401,251.532,223.926,256.87,209.86z"/>
										<path fill="#629BBC" d="M379.9,548.198c-0.217-1.423-0.487-2.81-0.787-4.176c0.184,2.989,0.329,5.481,0.43,7.365
											c-0.315,1.681-0.621,2.859-0.941,3.724C379.803,553.137,380.302,550.851,379.9,548.198"/>
										<path fill="none" stroke="#304A56" stroke-linecap="round" stroke-linejoin="round" stroke-miterlimit="10" d="
											M379.9,548.198c-0.217-1.423-0.487-2.81-0.787-4.176c0.184,2.989,0.329,5.481,0.43,7.365
											c-0.315,1.681-0.621,2.859-0.941,3.724C379.803,553.137,380.302,550.851,379.9,548.198z"/>
										<g>
											<g opacity="0.4">
												<g>
													<defs>
														<rect id="SVGID_27_" x="376.543" y="555.108" width="2.06" height="2.507"/>
													</defs>
													<clipPath id="SVGID_28_">
														<use xlink:href="#SVGID_27_"  overflow="visible"/>
													</clipPath>
													<path clip-path="url(#SVGID_28_)" fill="#545554" d="M378.603,555.111c-0.547,0.898-1.238,1.734-2.061,2.506
														C377.363,557.204,378.007,556.724,378.603,555.111"/>
												</g>
											</g>
										</g>
									</g>
								</g>
							</g>
						</g>
					</g>
				</g>
			</g>
		</g>
	</g>
</g>
</svg>
