<!-- Generator: Adobe Illustrator 17.0.0, SVG Export Plug-In  -->
<svg version="1.1"
	 xmlns="http://www.w3.org/2000/svg" xmlns:xlink="http://www.w3.org/1999/xlink" xmlns:a="http://ns.adobe.com/AdobeSVGViewerExtensions/3.0/"
	 x="0px" y="0px" width="259.924px" height="147.153px" viewBox="0 0 259.924 147.153" enable-background="new 0 0 259.924 147.153"
	 xml:space="preserve">
<defs>
</defs>
<polygon fill="#F2F2F2" stroke="#000000" stroke-width="2" stroke-linecap="round" stroke-linejoin="round" stroke-miterlimit="10" points="
	258.924,1 1,1 1,98.371 165.876,98.371 165.876,146.153 213.656,98.371 258.924,98.371 "/>
<g>
	<path d="M67.353,54.995V38.414h6.221c1.267,0,2.283,0.168,3.048,0.503c0.765,0.336,1.365,0.853,1.798,1.55s0.65,1.427,0.65,2.188
		c0,0.709-0.192,1.376-0.577,2.002c-0.385,0.626-0.965,1.131-1.742,1.516c1.003,0.294,1.774,0.796,2.313,1.505
		c0.539,0.708,0.809,1.545,0.809,2.511c0,0.776-0.164,1.498-0.492,2.166c-0.328,0.667-0.733,1.182-1.216,1.544
		c-0.483,0.361-1.088,0.635-1.815,0.819c-0.728,0.186-1.619,0.277-2.675,0.277H67.353z M69.547,45.381h3.585
		c0.973,0,1.67-0.063,2.093-0.191c0.558-0.166,0.978-0.441,1.261-0.826c0.283-0.385,0.424-0.867,0.424-1.447
		c0-0.551-0.132-1.035-0.396-1.454c-0.264-0.418-0.641-0.705-1.131-0.859c-0.49-0.154-1.331-0.231-2.522-0.231h-3.314V45.381z
		 M69.547,53.038h4.128c0.709,0,1.206-0.026,1.493-0.079c0.505-0.09,0.927-0.241,1.267-0.452s0.618-0.519,0.837-0.922
		s0.328-0.869,0.328-1.396c0-0.618-0.158-1.155-0.475-1.612c-0.317-0.456-0.756-0.776-1.318-0.961
		c-0.562-0.185-1.371-0.277-2.426-0.277h-3.834V53.038z"/>
	<path d="M90.505,54.995V53.23c-0.935,1.357-2.206,2.036-3.812,2.036c-0.709,0-1.371-0.136-1.985-0.407s-1.071-0.612-1.368-1.023
		c-0.298-0.411-0.507-0.914-0.628-1.51c-0.083-0.399-0.124-1.033-0.124-1.9v-7.442h2.036v6.662c0,1.063,0.041,1.779,0.124,2.148
		c0.128,0.536,0.4,0.956,0.814,1.262c0.415,0.305,0.927,0.458,1.538,0.458c0.611,0,1.184-0.156,1.719-0.47
		c0.535-0.313,0.914-0.738,1.137-1.278c0.222-0.539,0.334-1.321,0.334-2.347v-6.436h2.036v12.012H90.505z"/>
	<path d="M103.739,51.127l2.104,0.26c-0.332,1.229-0.946,2.184-1.844,2.862c-0.897,0.679-2.043,1.018-3.438,1.018
		c-1.757,0-3.15-0.541-4.179-1.623s-1.544-2.6-1.544-4.553c0-2.021,0.52-3.589,1.561-4.705c1.041-1.115,2.39-1.674,4.049-1.674
		c1.606,0,2.918,0.547,3.936,1.64c1.018,1.094,1.527,2.632,1.527,4.615c0,0.12-0.004,0.302-0.011,0.543h-8.958
		c0.075,1.319,0.449,2.33,1.12,3.031c0.671,0.701,1.508,1.052,2.511,1.052c0.746,0,1.384-0.196,1.911-0.588
		C103.011,52.612,103.429,51.986,103.739,51.127z M97.054,47.836h6.707c-0.091-1.011-0.347-1.769-0.769-2.273
		c-0.649-0.784-1.489-1.177-2.522-1.177c-0.935,0-1.721,0.313-2.358,0.939S97.122,46.788,97.054,47.836z"/>
	<path d="M108.398,54.995V42.983h1.832v1.708c0.882-1.319,2.156-1.979,3.823-1.979c0.724,0,1.389,0.13,1.996,0.391
		c0.607,0.26,1.061,0.602,1.363,1.023c0.302,0.422,0.513,0.924,0.633,1.504c0.075,0.377,0.113,1.037,0.113,1.979v7.386h-2.036
		v-7.307c0-0.829-0.079-1.449-0.238-1.86s-0.439-0.739-0.843-0.984c-0.404-0.245-0.877-0.367-1.42-0.367
		c-0.867,0-1.615,0.275-2.245,0.825c-0.63,0.551-0.944,1.595-0.944,3.134v6.56H108.398z"/>
	<path d="M120.523,48.989c0-2.225,0.618-3.872,1.855-4.942c1.033-0.89,2.292-1.335,3.778-1.335c1.651,0,3.001,0.541,4.049,1.623
		s1.572,2.577,1.572,4.484c0,1.546-0.232,2.762-0.696,3.647c-0.464,0.887-1.139,1.574-2.025,2.064s-1.853,0.735-2.901,0.735
		c-1.681,0-3.041-0.539-4.077-1.617C121.042,52.571,120.523,51.018,120.523,48.989z M122.616,48.989c0,1.538,0.335,2.69,1.007,3.455
		c0.671,0.766,1.516,1.148,2.533,1.148c1.01,0,1.851-0.385,2.522-1.153c0.671-0.77,1.007-1.942,1.007-3.518
		c0-1.485-0.337-2.611-1.012-3.377c-0.675-0.765-1.514-1.147-2.517-1.147c-1.018,0-1.863,0.381-2.533,1.143
		C122.951,46.302,122.616,47.451,122.616,48.989z"/>
	<path d="M133.349,51.41l2.013-0.317c0.113,0.808,0.428,1.426,0.944,1.855c0.516,0.43,1.239,0.645,2.166,0.645
		c0.935,0,1.629-0.19,2.081-0.571s0.679-0.827,0.679-1.34c0-0.46-0.2-0.822-0.6-1.086c-0.279-0.182-0.973-0.411-2.081-0.69
		c-1.493-0.377-2.528-0.703-3.105-0.979c-0.577-0.274-1.014-0.655-1.312-1.142s-0.447-1.024-0.447-1.612
		c0-0.535,0.123-1.031,0.368-1.487c0.245-0.456,0.579-0.835,1.001-1.137c0.317-0.233,0.748-0.432,1.295-0.594
		c0.546-0.162,1.133-0.243,1.759-0.243c0.943,0,1.77,0.136,2.483,0.407c0.713,0.271,1.239,0.639,1.578,1.103
		s0.573,1.084,0.701,1.861l-1.99,0.271c-0.091-0.618-0.353-1.101-0.786-1.447s-1.046-0.521-1.838-0.521
		c-0.935,0-1.603,0.155-2.002,0.464c-0.4,0.31-0.6,0.671-0.6,1.086c0,0.264,0.083,0.502,0.249,0.713
		c0.166,0.219,0.426,0.399,0.78,0.543c0.204,0.075,0.803,0.248,1.798,0.52c1.44,0.385,2.445,0.7,3.014,0.944
		c0.569,0.245,1.016,0.602,1.34,1.069s0.486,1.048,0.486,1.741c0,0.679-0.198,1.318-0.594,1.918
		c-0.396,0.599-0.967,1.063-1.713,1.391c-0.747,0.328-1.591,0.492-2.534,0.492c-1.561,0-2.75-0.324-3.568-0.973
		C134.097,53.646,133.575,52.685,133.349,51.41z"/>
	<path d="M159.974,54.995v-1.516c-0.762,1.191-1.882,1.787-3.359,1.787c-0.958,0-1.838-0.264-2.641-0.792
		c-0.803-0.527-1.425-1.265-1.866-2.211s-0.662-2.034-0.662-3.263c0-1.199,0.2-2.287,0.599-3.264s0.999-1.725,1.798-2.245
		s1.693-0.78,2.681-0.78c0.724,0,1.369,0.152,1.934,0.458s1.025,0.703,1.38,1.193v-5.949h2.024v16.581H159.974z M153.538,49.001
		c0,1.538,0.324,2.688,0.973,3.449c0.648,0.762,1.414,1.143,2.296,1.143c0.89,0,1.646-0.364,2.268-1.092s0.933-1.838,0.933-3.331
		c0-1.644-0.317-2.85-0.95-3.619c-0.633-0.769-1.414-1.153-2.341-1.153c-0.905,0-1.661,0.369-2.268,1.108
		C153.842,46.245,153.538,47.41,153.538,49.001z"/>
	<path d="M165.674,41.49l1.504-3.167h2.669l-2.488,3.167H165.674z M165.776,54.995V42.983h2.036v12.012H165.776z"/>
	<path d="M179.337,53.514c-0.754,0.641-1.48,1.093-2.177,1.357c-0.698,0.264-1.446,0.396-2.245,0.396
		c-1.32,0-2.334-0.322-3.042-0.967s-1.063-1.469-1.063-2.472c0-0.588,0.134-1.125,0.402-1.611c0.268-0.486,0.618-0.877,1.052-1.171
		s0.922-0.517,1.465-0.667c0.399-0.105,1.003-0.208,1.81-0.306c1.644-0.196,2.854-0.43,3.631-0.701
		c0.008-0.279,0.011-0.456,0.011-0.532c0-0.829-0.192-1.413-0.577-1.753c-0.52-0.46-1.293-0.689-2.319-0.689
		c-0.958,0-1.665,0.168-2.121,0.503c-0.456,0.336-0.794,0.93-1.012,1.781l-1.991-0.271c0.181-0.852,0.479-1.54,0.894-2.063
		c0.415-0.524,1.014-0.928,1.798-1.211c0.784-0.282,1.693-0.424,2.726-0.424c1.025,0,1.859,0.121,2.5,0.362
		c0.641,0.241,1.112,0.545,1.414,0.91c0.302,0.366,0.513,0.828,0.634,1.386c0.068,0.347,0.102,0.973,0.102,1.877v2.715
		c0,1.893,0.043,3.09,0.13,3.591c0.086,0.502,0.258,0.982,0.514,1.442h-2.126C179.533,54.573,179.397,54.079,179.337,53.514z
		 M179.168,48.967c-0.739,0.302-1.847,0.558-3.325,0.769c-0.837,0.121-1.429,0.257-1.776,0.407
		c-0.347,0.151-0.615,0.372-0.803,0.662s-0.283,0.612-0.283,0.967c0,0.543,0.205,0.995,0.616,1.357
		c0.411,0.362,1.012,0.543,1.804,0.543c0.784,0,1.482-0.172,2.093-0.515c0.611-0.343,1.059-0.813,1.346-1.408
		c0.219-0.46,0.328-1.139,0.328-2.036V48.967z"/>
	<path d="M183.567,51.41l2.013-0.317c0.113,0.808,0.428,1.426,0.944,1.855c0.516,0.43,1.239,0.645,2.166,0.645
		c0.935,0,1.629-0.19,2.081-0.571s0.679-0.827,0.679-1.34c0-0.46-0.2-0.822-0.6-1.086c-0.279-0.182-0.973-0.411-2.081-0.69
		c-1.493-0.377-2.528-0.703-3.105-0.979c-0.577-0.274-1.014-0.655-1.312-1.142s-0.447-1.024-0.447-1.612
		c0-0.535,0.123-1.031,0.368-1.487c0.245-0.456,0.579-0.835,1.001-1.137c0.317-0.233,0.748-0.432,1.295-0.594
		c0.546-0.162,1.133-0.243,1.759-0.243c0.943,0,1.77,0.136,2.483,0.407c0.713,0.271,1.239,0.639,1.578,1.103
		s0.573,1.084,0.701,1.861l-1.99,0.271c-0.091-0.618-0.353-1.101-0.786-1.447s-1.046-0.521-1.838-0.521
		c-0.935,0-1.603,0.155-2.002,0.464c-0.4,0.31-0.6,0.671-0.6,1.086c0,0.264,0.083,0.502,0.249,0.713
		c0.166,0.219,0.426,0.399,0.78,0.543c0.204,0.075,0.803,0.248,1.798,0.52c1.44,0.385,2.445,0.7,3.014,0.944
		c0.569,0.245,1.016,0.602,1.34,1.069s0.486,1.048,0.486,1.741c0,0.679-0.198,1.318-0.594,1.918
		c-0.396,0.599-0.967,1.063-1.713,1.391c-0.747,0.328-1.591,0.492-2.534,0.492c-1.561,0-2.75-0.324-3.568-0.973
		C184.315,53.646,183.793,52.685,183.567,51.41z"/>
</g>
</svg>