<?xml version="1.0" encoding="utf-8"?>
<!-- Generator: Adobe Illustrator 17.0.0, SVG Export Plug-In . SVG Version: 6.00 Build 0)  -->
<!DOCTYPE svg PUBLIC "-//W3C//DTD SVG 1.1//EN" "http://www.w3.org/Graphics/SVG/1.1/DTD/svg11.dtd" [
	<!ENTITY ns_extend "http://ns.adobe.com/Extensibility/1.0/">
	<!ENTITY ns_ai "http://ns.adobe.com/AdobeIllustrator/10.0/">
	<!ENTITY ns_graphs "http://ns.adobe.com/Graphs/1.0/">
	<!ENTITY ns_vars "http://ns.adobe.com/Variables/1.0/">
	<!ENTITY ns_imrep "http://ns.adobe.com/ImageReplacement/1.0/">
	<!ENTITY ns_sfw "http://ns.adobe.com/SaveForWeb/1.0/">
	<!ENTITY ns_custom "http://ns.adobe.com/GenericCustomNamespace/1.0/">
	<!ENTITY ns_adobe_xpath "http://ns.adobe.com/XPath/1.0/">
]>
<svg version="1.1" id="Capa_1" xmlns:x="&ns_extend;" xmlns:i="&ns_ai;" xmlns:graph="&ns_graphs;"
	 xmlns="http://www.w3.org/2000/svg" xmlns:xlink="http://www.w3.org/1999/xlink" x="0px" y="0px" width="199.091px"
	 height="112.917px" viewBox="0 0 199.091 112.917" enable-background="new 0 0 199.091 112.917" xml:space="preserve">
<metadata>
	<sfw  xmlns="&ns_sfw;">
		<slices></slices>
		<sliceSourceBounds  width="199.091" height="112.917" x="367.954" y="624.042" bottomLeftOrigin="true"></sliceSourceBounds>
	</sfw>
</metadata>
<polygon fill="#F2F2F2" stroke="#000000" stroke-width="2" stroke-linecap="round" stroke-linejoin="round" stroke-miterlimit="10" points="
	198.091,1 1,1 1,75.406 126.987,75.406 126.987,111.917 163.5,75.406 198.091,75.406 "/>
<g>
	<path d="M36.539,27.609l0.056,0.48c0.111,0.998-0.24,2.051-1.165,3.16c-0.832,0.998-1.275,1.682-1.275,2.513
		c0,0.943,0.573,1.571,1.755,1.571c0.647,0,1.386-0.203,1.867-0.573l0.443,1.183c-0.628,0.425-1.682,0.739-2.661,0.739
		c-2.106,0-3.086-1.312-3.086-2.716c0-1.257,0.702-2.144,1.608-3.178c0.794-0.979,1.09-1.756,1.035-2.698l-0.019-0.48H36.539z
		 M36.927,24.985c0,0.646-0.425,1.164-1.09,1.164s-1.09-0.518-1.09-1.164c0-0.666,0.443-1.146,1.09-1.146
		C36.502,23.839,36.927,24.319,36.927,24.985z"/>
	<path d="M46.811,27.036h-4.841v4.49h5.396v1.349h-7.003V20.42h6.726v1.349h-5.118v3.936h4.841V27.036z"/>
	<path d="M49.395,26.352c0-0.924-0.019-1.682-0.074-2.42h1.441l0.092,1.478h0.037c0.443-0.85,1.478-1.682,2.957-1.682
		c1.238,0,3.16,0.739,3.16,3.807v5.34h-1.626V27.72c0-1.441-0.536-2.643-2.07-2.643c-1.071,0-1.903,0.758-2.18,1.663
		c-0.074,0.203-0.111,0.48-0.111,0.757v5.377h-1.626V26.352z"/>
	<path d="M69.66,31.489h-0.037c-0.48,0.887-1.478,1.589-2.919,1.589c-2.088,0-3.788-1.811-3.788-4.527
		c0-3.345,2.162-4.823,4.047-4.823c1.386,0,2.31,0.684,2.753,1.552h0.037l0.056-1.349h1.534c-0.037,0.757-0.056,1.534-0.056,2.458
		v10.145H69.66V31.489z M69.66,27.553c0-0.222-0.019-0.48-0.074-0.684c-0.24-0.998-1.109-1.848-2.329-1.848
		c-1.681,0-2.698,1.423-2.698,3.437c0,1.774,0.85,3.326,2.643,3.326c1.053,0,1.958-0.646,2.328-1.774
		c0.074-0.222,0.129-0.536,0.129-0.776V27.553z"/>
	<path d="M81.446,30.436c0,0.924,0.019,1.737,0.074,2.439h-1.441l-0.092-1.46h-0.037c-0.425,0.721-1.367,1.663-2.957,1.663
		c-1.404,0-3.086-0.776-3.086-3.917v-5.229h1.626v4.952c0,1.7,0.518,2.846,1.996,2.846c1.09,0,1.848-0.758,2.144-1.479
		c0.093-0.24,0.148-0.536,0.148-0.832v-5.488h1.626V30.436z"/>
	<path d="M85.046,28.699c0.037,2.199,1.441,3.104,3.067,3.104c1.164,0,1.866-0.203,2.476-0.462l0.277,1.164
		c-0.573,0.259-1.552,0.554-2.975,0.554c-2.753,0-4.398-1.811-4.398-4.508c0-2.698,1.589-4.823,4.195-4.823
		c2.919,0,3.695,2.569,3.695,4.213c0,0.333-0.037,0.591-0.055,0.757H85.046z M89.814,27.535c0.018-1.035-0.425-2.642-2.254-2.642
		c-1.645,0-2.365,1.515-2.495,2.642H89.814z M90.201,20.069l-2.254,2.643h-1.164l1.626-2.643H90.201z"/>
	<path d="M97.311,19.755h1.626v13.12h-1.626V19.755z"/>
	<path d="M109.763,28.329c0,3.308-2.291,4.749-4.453,4.749c-2.421,0-4.287-1.774-4.287-4.601c0-2.994,1.959-4.749,4.435-4.749
		C108.026,23.728,109.763,25.595,109.763,28.329z M102.668,28.422c0,1.958,1.127,3.437,2.717,3.437c1.552,0,2.716-1.46,2.716-3.474
		c0-1.515-0.758-3.437-2.68-3.437C103.5,24.948,102.668,26.722,102.668,28.422z"/>
	<path d="M115.727,26.851c0-1.146-0.037-2.07-0.073-2.919h1.459l0.074,1.534h0.037c0.665-1.09,1.719-1.737,3.179-1.737
		c2.161,0,3.788,1.83,3.788,4.546c0,3.215-1.959,4.804-4.065,4.804c-1.183,0-2.218-0.517-2.754-1.404h-0.037v4.86h-1.607V26.851z
		 M117.335,29.235c0,0.24,0.037,0.462,0.074,0.665c0.296,1.127,1.275,1.903,2.439,1.903c1.719,0,2.716-1.404,2.716-3.456
		c0-1.792-0.942-3.326-2.66-3.326c-1.109,0-2.144,0.795-2.458,2.014c-0.056,0.204-0.111,0.444-0.111,0.666V29.235z"/>
	<path d="M133.722,30.436c0,0.924,0.019,1.737,0.073,2.439h-1.441l-0.092-1.46h-0.037c-0.425,0.721-1.367,1.663-2.957,1.663
		c-1.404,0-3.085-0.776-3.085-3.917v-5.229h1.626v4.952c0,1.7,0.517,2.846,1.995,2.846c1.091,0,1.848-0.758,2.144-1.479
		c0.093-0.24,0.148-0.536,0.148-0.832v-5.488h1.626V30.436z"/>
	<path d="M137.321,28.699c0.037,2.199,1.441,3.104,3.068,3.104c1.164,0,1.866-0.203,2.476-0.462l0.277,1.164
		c-0.573,0.259-1.553,0.554-2.976,0.554c-2.753,0-4.397-1.811-4.397-4.508c0-2.698,1.589-4.823,4.194-4.823
		c2.92,0,3.696,2.569,3.696,4.213c0,0.333-0.037,0.591-0.056,0.757H137.321z M142.088,27.535c0.019-1.035-0.425-2.642-2.254-2.642
		c-1.645,0-2.365,1.515-2.495,2.642H142.088z"/>
	<path d="M153.395,19.755v10.81c0,0.794,0.019,1.7,0.073,2.31h-1.46l-0.073-1.552h-0.037c-0.499,0.998-1.589,1.755-3.049,1.755
		c-2.162,0-3.825-1.829-3.825-4.545c-0.019-2.975,1.829-4.805,4.01-4.805c1.367,0,2.291,0.647,2.698,1.368h0.037v-5.34H153.395z
		 M151.769,27.572c0-0.203-0.019-0.48-0.074-0.684c-0.24-1.035-1.127-1.885-2.347-1.885c-1.682,0-2.68,1.478-2.68,3.455
		c0,1.811,0.887,3.308,2.643,3.308c1.09,0,2.088-0.721,2.384-1.94c0.056-0.222,0.074-0.443,0.074-0.702V27.572z"/>
	<path d="M164.182,28.329c0,3.308-2.291,4.749-4.453,4.749c-2.421,0-4.287-1.774-4.287-4.601c0-2.994,1.959-4.749,4.435-4.749
		C162.445,23.728,164.182,25.595,164.182,28.329z M157.087,28.422c0,1.958,1.127,3.437,2.717,3.437c1.552,0,2.716-1.46,2.716-3.474
		c0-1.515-0.758-3.437-2.68-3.437C157.919,24.948,157.087,26.722,157.087,28.422z"/>
	<path d="M74.223,55.042l-0.129-1.127h-0.056c-0.499,0.702-1.459,1.33-2.735,1.33c-1.811,0-2.734-1.275-2.734-2.568
		c0-2.162,1.921-3.345,5.377-3.326v-0.185c0-0.739-0.203-2.07-2.033-2.07c-0.832,0-1.7,0.259-2.328,0.666l-0.37-1.072
		c0.739-0.48,1.811-0.795,2.938-0.795c2.735,0,3.4,1.867,3.4,3.659v3.345c0,0.776,0.037,1.534,0.148,2.144H74.223z M73.983,50.478
		c-1.774-0.037-3.788,0.277-3.788,2.014c0,1.053,0.702,1.552,1.534,1.552c1.164,0,1.903-0.739,2.162-1.497
		c0.055-0.167,0.092-0.351,0.092-0.518V50.478z"/>
	<path d="M78.618,46.099l1.958,5.285c0.203,0.591,0.425,1.293,0.573,1.829h0.037c0.166-0.536,0.351-1.219,0.573-1.866l1.774-5.248
		h1.718l-2.439,6.375c-1.164,3.067-1.958,4.637-3.067,5.598c-0.794,0.702-1.589,0.979-1.996,1.054l-0.407-1.367
		c0.407-0.13,0.942-0.389,1.423-0.795c0.444-0.351,0.998-0.979,1.368-1.811c0.074-0.167,0.129-0.295,0.129-0.388
		c0-0.092-0.037-0.222-0.111-0.425l-3.308-8.241H78.618z"/>
	<path d="M94.211,52.603c0,0.924,0.019,1.737,0.074,2.439h-1.441l-0.092-1.46h-0.037c-0.425,0.721-1.367,1.663-2.957,1.663
		c-1.404,0-3.086-0.776-3.086-3.917v-5.229h1.626v4.952c0,1.7,0.518,2.846,1.996,2.846c1.09,0,1.848-0.758,2.144-1.479
		c0.093-0.24,0.148-0.536,0.148-0.832v-5.488h1.626V52.603z"/>
	<path d="M104.629,41.922v10.81c0,0.794,0.019,1.7,0.074,2.31h-1.46l-0.074-1.552h-0.037c-0.498,0.998-1.589,1.755-3.049,1.755
		c-2.161,0-3.824-1.829-3.824-4.545c-0.019-2.975,1.83-4.805,4.01-4.805c1.367,0,2.291,0.647,2.697,1.368h0.037v-5.34H104.629z
		 M103.003,49.739c0-0.203-0.019-0.48-0.074-0.684c-0.24-1.035-1.127-1.885-2.347-1.885c-1.681,0-2.679,1.478-2.679,3.455
		c0,1.811,0.887,3.308,2.642,3.308c1.091,0,2.089-0.721,2.384-1.94c0.056-0.222,0.074-0.443,0.074-0.702V49.739z"/>
	<path d="M112.275,55.042l-0.129-1.127h-0.056c-0.499,0.702-1.46,1.33-2.734,1.33c-1.812,0-2.735-1.275-2.735-2.568
		c0-2.162,1.922-3.345,5.378-3.326v-0.185c0-0.739-0.204-2.07-2.033-2.07c-0.831,0-1.7,0.259-2.328,0.666l-0.369-1.072
		c0.738-0.48,1.811-0.795,2.938-0.795c2.735,0,3.4,1.867,3.4,3.659v3.345c0,0.776,0.037,1.534,0.147,2.144H112.275z M112.035,50.478
		c-1.773-0.037-3.788,0.277-3.788,2.014c0,1.053,0.702,1.552,1.534,1.552c1.164,0,1.903-0.739,2.162-1.497
		c0.056-0.167,0.092-0.351,0.092-0.518V50.478z"/>
	<path d="M116.226,48.889c0-1.053-0.019-1.958-0.073-2.79h1.423l0.055,1.755h0.074c0.406-1.201,1.386-1.959,2.477-1.959
		c0.185,0,0.313,0.019,0.462,0.056v1.534c-0.167-0.037-0.333-0.056-0.555-0.056c-1.146,0-1.959,0.869-2.181,2.088
		c-0.037,0.222-0.073,0.48-0.073,0.757v4.768h-1.608V48.889z"/>
	<path d="M123.524,51.513l-0.037-0.48c-0.11-0.998,0.222-2.088,1.146-3.197c0.832-0.979,1.294-1.7,1.294-2.532
		c0-0.942-0.592-1.57-1.756-1.589c-0.665,0-1.404,0.222-1.866,0.573l-0.443-1.164c0.609-0.443,1.663-0.739,2.643-0.739
		c2.125,0,3.086,1.312,3.086,2.716c0,1.256-0.702,2.162-1.589,3.215c-0.813,0.961-1.109,1.774-1.054,2.716l0.019,0.48H123.524z
		 M123.118,54.1c0-0.684,0.462-1.164,1.108-1.164s1.09,0.48,1.09,1.164c0,0.646-0.425,1.146-1.108,1.146
		C123.561,55.245,123.118,54.746,123.118,54.1z"/>
</g>
</svg>
