<?xml version="1.0" encoding="utf-8"?>
<!-- Generator: Adobe Illustrator 17.0.0, SVG Export Plug-In . SVG Version: 6.00 Build 0)  -->
<!DOCTYPE svg PUBLIC "-//W3C//DTD SVG 1.1//EN" "http://www.w3.org/Graphics/SVG/1.1/DTD/svg11.dtd" [
	<!ENTITY ns_extend "http://ns.adobe.com/Extensibility/1.0/">
	<!ENTITY ns_ai "http://ns.adobe.com/AdobeIllustrator/10.0/">
	<!ENTITY ns_graphs "http://ns.adobe.com/Graphs/1.0/">
	<!ENTITY ns_vars "http://ns.adobe.com/Variables/1.0/">
	<!ENTITY ns_imrep "http://ns.adobe.com/ImageReplacement/1.0/">
	<!ENTITY ns_sfw "http://ns.adobe.com/SaveForWeb/1.0/">
	<!ENTITY ns_custom "http://ns.adobe.com/GenericCustomNamespace/1.0/">
	<!ENTITY ns_adobe_xpath "http://ns.adobe.com/XPath/1.0/">
]>
<svg version="1.1" id="Capa_1" xmlns:x="&ns_extend;" xmlns:i="&ns_ai;" xmlns:graph="&ns_graphs;"
	 xmlns="http://www.w3.org/2000/svg" xmlns:xlink="http://www.w3.org/1999/xlink" x="0px" y="0px" width="199.091px"
	 height="112.917px" viewBox="0 0 199.091 112.917" enable-background="new 0 0 199.091 112.917" xml:space="preserve">
<metadata>
	<sfw  xmlns="&ns_sfw;">
		<slices></slices>
		<sliceSourceBounds  width="199.091" height="112.917" x="367.954" y="624.042" bottomLeftOrigin="true"></sliceSourceBounds>
	</sfw>
</metadata>
<polygon fill="#F1F1F1" stroke="#000000" stroke-width="2" stroke-linecap="round" stroke-linejoin="round" stroke-miterlimit="10" points="
	198.091,1 1,1 1,75.406 126.987,75.406 126.987,111.917 163.5,75.406 198.091,75.406 "/>
<g>
	<path d="M37.712,19.527c0,3.583-2.178,5.482-4.833,5.482c-2.749,0-4.679-2.131-4.679-5.281c0-3.305,2.054-5.466,4.833-5.466
		C35.875,14.262,37.712,16.439,37.712,19.527z M29.636,19.697c0,2.224,1.204,4.215,3.32,4.215c2.131,0,3.335-1.961,3.335-4.323
		c0-2.069-1.081-4.231-3.32-4.231C30.748,15.358,29.636,17.412,29.636,19.697z"/>
	<path d="M40.754,20.793h0.031c0.186-0.262,0.448-0.587,0.664-0.849l2.193-2.579h1.637l-2.888,3.073l3.289,4.401h-1.652
		l-2.579-3.583l-0.695,0.772v2.811h-1.343V13.875h1.343V20.793z"/>
	<path d="M46.545,24.037c0-0.572,0.386-0.973,0.926-0.973s0.911,0.401,0.911,0.973c0,0.556-0.355,0.973-0.927,0.973
		C46.915,25.009,46.545,24.592,46.545,24.037z"/>
	<path d="M61.97,26.368c-1.405-0.371-2.78-0.788-3.984-1.205c-0.216-0.077-0.433-0.154-0.633-0.154
		c-2.471-0.093-4.586-1.915-4.586-5.266c0-3.335,2.039-5.482,4.849-5.482c2.826,0,4.664,2.193,4.664,5.266
		c0,2.671-1.235,4.385-2.965,4.988v0.062c1.034,0.263,2.162,0.51,3.042,0.664L61.97,26.368z M60.858,19.589
		c0-2.085-1.081-4.231-3.289-4.231c-2.27,0-3.382,2.1-3.366,4.354c-0.016,2.208,1.204,4.2,3.304,4.2
		C59.653,23.913,60.858,21.967,60.858,19.589z"/>
	<path d="M70.277,22.801c0,0.772,0.015,1.451,0.062,2.038h-1.205l-0.077-1.22h-0.031c-0.355,0.602-1.143,1.39-2.471,1.39
		c-1.173,0-2.579-0.648-2.579-3.274v-4.37h1.359v4.138c0,1.42,0.432,2.378,1.667,2.378c0.911,0,1.544-0.633,1.792-1.235
		c0.077-0.201,0.124-0.448,0.124-0.695v-4.586h1.359V22.801z"/>
	<path d="M73.288,21.35c0.031,1.837,1.205,2.594,2.563,2.594c0.973,0,1.56-0.17,2.069-0.386l0.231,0.973
		c-0.479,0.216-1.297,0.463-2.486,0.463c-2.301,0-3.675-1.513-3.675-3.768c0-2.255,1.328-4.03,3.505-4.03
		c2.439,0,3.088,2.146,3.088,3.521c0,0.278-0.031,0.494-0.046,0.633H73.288z M77.272,20.376c0.015-0.865-0.355-2.208-1.884-2.208
		c-1.374,0-1.977,1.266-2.084,2.208H77.272z M77.596,14.138l-1.884,2.208h-0.973l1.359-2.208H77.596z"/>
	<path d="M85.177,15.219v2.146h1.946V18.4h-1.946v4.03c0,0.927,0.263,1.452,1.019,1.452c0.355,0,0.618-0.046,0.788-0.092
		l0.062,1.019c-0.262,0.108-0.679,0.185-1.204,0.185c-0.633,0-1.143-0.201-1.467-0.571c-0.386-0.401-0.525-1.065-0.525-1.946V18.4
		h-1.158v-1.034h1.158v-1.792L85.177,15.219z"/>
	<path d="M92.79,24.839l-0.108-0.942h-0.046c-0.417,0.587-1.22,1.112-2.286,1.112c-1.513,0-2.285-1.065-2.285-2.146
		c0-1.807,1.606-2.795,4.494-2.779v-0.155c0-0.618-0.17-1.729-1.699-1.729c-0.695,0-1.421,0.216-1.946,0.556l-0.309-0.896
		c0.618-0.402,1.513-0.664,2.455-0.664c2.286,0,2.841,1.56,2.841,3.057v2.795c0,0.648,0.031,1.281,0.124,1.791H92.79z
		 M92.589,21.025c-1.482-0.031-3.166,0.231-3.166,1.683c0,0.88,0.587,1.297,1.282,1.297c0.973,0,1.59-0.618,1.807-1.25
		c0.046-0.139,0.077-0.293,0.077-0.433V21.025z"/>
	<path d="M96.094,13.875h1.359v10.964h-1.359V13.875z"/>
	<path d="M102.827,23.45c0.401,0.262,1.111,0.541,1.791,0.541c0.988,0,1.451-0.494,1.451-1.112c0-0.649-0.386-1.004-1.39-1.375
		c-1.344-0.479-1.977-1.22-1.977-2.116c0-1.204,0.973-2.192,2.579-2.192c0.757,0,1.42,0.216,1.837,0.463l-0.339,0.988
		c-0.294-0.185-0.834-0.432-1.529-0.432c-0.803,0-1.251,0.463-1.251,1.019c0,0.618,0.448,0.896,1.421,1.266
		c1.297,0.494,1.961,1.143,1.961,2.255c0,1.313-1.019,2.239-2.795,2.239c-0.818,0-1.575-0.201-2.1-0.509L102.827,23.45z"/>
	<path d="M110.64,15.265c0.016,0.463-0.324,0.834-0.865,0.834c-0.479,0-0.818-0.371-0.818-0.834c0-0.479,0.355-0.849,0.85-0.849
		C110.316,14.416,110.64,14.787,110.64,15.265z M109.127,24.839v-7.474h1.359v7.474H109.127z"/>
	<path d="M116.012,13.875h1.359v10.964h-1.359V13.875z"/>
	<path d="M126.421,21.041c0,2.764-1.915,3.969-3.722,3.969c-2.022,0-3.582-1.482-3.582-3.845c0-2.501,1.637-3.968,3.706-3.968
		C124.969,17.196,126.421,18.755,126.421,21.041z M120.491,21.118c0,1.637,0.942,2.873,2.271,2.873c1.297,0,2.27-1.22,2.27-2.903
		c0-1.266-0.633-2.872-2.239-2.872C121.186,18.215,120.491,19.697,120.491,21.118z"/>
	<path d="M127.95,23.45c0.401,0.262,1.111,0.541,1.791,0.541c0.988,0,1.451-0.494,1.451-1.112c0-0.649-0.386-1.004-1.39-1.375
		c-1.344-0.479-1.977-1.22-1.977-2.116c0-1.204,0.973-2.192,2.579-2.192c0.757,0,1.42,0.216,1.837,0.463l-0.339,0.988
		c-0.294-0.185-0.834-0.432-1.529-0.432c-0.803,0-1.251,0.463-1.251,1.019c0,0.618,0.448,0.896,1.421,1.266
		c1.297,0.494,1.961,1.143,1.961,2.255c0,1.313-1.019,2.239-2.795,2.239c-0.818,0-1.575-0.201-2.1-0.509L127.95,23.45z"/>
	<path d="M137.522,13.875h1.359v10.964h-1.359V13.875z"/>
	<path d="M141.167,13.875h1.359v10.964h-1.359V13.875z"/>
	<path d="M148.949,24.839l-0.108-0.942h-0.046c-0.417,0.587-1.22,1.112-2.285,1.112c-1.514,0-2.286-1.065-2.286-2.146
		c0-1.807,1.606-2.795,4.494-2.779v-0.155c0-0.618-0.17-1.729-1.699-1.729c-0.694,0-1.42,0.216-1.945,0.556l-0.309-0.896
		c0.617-0.402,1.514-0.664,2.455-0.664c2.285,0,2.842,1.56,2.842,3.057v2.795c0,0.648,0.03,1.281,0.123,1.791H148.949z
		 M148.749,21.025c-1.482-0.031-3.166,0.231-3.166,1.683c0,0.88,0.587,1.297,1.281,1.297c0.974,0,1.591-0.618,1.807-1.25
		c0.047-0.139,0.078-0.293,0.078-0.433V21.025z"/>
	<path d="M152.253,19.388c0-0.772-0.016-1.405-0.062-2.022h1.189l0.062,1.204h0.046c0.417-0.71,1.112-1.374,2.348-1.374
		c1.019,0,1.791,0.618,2.115,1.498h0.031c0.231-0.417,0.524-0.741,0.834-0.973c0.447-0.34,0.941-0.525,1.652-0.525
		c0.988,0,2.455,0.648,2.455,3.243v4.401h-1.328v-4.231c0-1.436-0.525-2.301-1.621-2.301c-0.772,0-1.375,0.571-1.606,1.235
		c-0.062,0.185-0.108,0.432-0.108,0.679v4.617h-1.327v-4.478c0-1.189-0.525-2.054-1.561-2.054c-0.849,0-1.467,0.679-1.683,1.359
		c-0.077,0.201-0.108,0.432-0.108,0.664v4.509h-1.328V19.388z"/>
	<path d="M169.27,24.839l-0.108-0.942h-0.046c-0.417,0.587-1.22,1.112-2.285,1.112c-1.514,0-2.286-1.065-2.286-2.146
		c0-1.807,1.606-2.795,4.494-2.779v-0.155c0-0.618-0.17-1.729-1.698-1.729c-0.695,0-1.421,0.216-1.946,0.556l-0.309-0.896
		c0.617-0.402,1.513-0.664,2.455-0.664c2.285,0,2.842,1.56,2.842,3.057v2.795c0,0.648,0.03,1.281,0.123,1.791H169.27z
		 M169.069,21.025c-1.482-0.031-3.165,0.231-3.165,1.683c0,0.88,0.587,1.297,1.281,1.297c0.974,0,1.591-0.618,1.807-1.25
		c0.047-0.139,0.077-0.293,0.077-0.433V21.025z"/>
	<path d="M41.147,39.879c0.031,1.837,1.205,2.594,2.563,2.594c0.973,0,1.56-0.17,2.069-0.386l0.231,0.973
		c-0.479,0.216-1.297,0.463-2.486,0.463c-2.301,0-3.675-1.513-3.675-3.768s1.328-4.03,3.505-4.03c2.439,0,3.088,2.146,3.088,3.521
		c0,0.278-0.031,0.494-0.046,0.633H41.147z M45.131,38.906c0.015-0.865-0.355-2.208-1.884-2.208c-1.374,0-1.977,1.266-2.084,2.208
		H45.131z"/>
	<path d="M48.127,32.405h1.359v10.964h-1.359V32.405z"/>
	<path d="M61.499,32.405v9.034c0,0.664,0.016,1.42,0.062,1.93h-1.22l-0.062-1.297h-0.031c-0.417,0.834-1.328,1.467-2.548,1.467
		c-1.807,0-3.196-1.529-3.196-3.799c-0.016-2.486,1.529-4.015,3.351-4.015c1.143,0,1.915,0.541,2.255,1.143h0.031v-4.463H61.499z
		 M60.14,38.938c0-0.17-0.016-0.402-0.062-0.572c-0.201-0.864-0.942-1.575-1.961-1.575c-1.405,0-2.239,1.235-2.239,2.888
		c0,1.513,0.741,2.764,2.208,2.764c0.911,0,1.745-0.603,1.992-1.622c0.046-0.186,0.062-0.371,0.062-0.587V38.938z"/>
	<path d="M66.517,32.668l-1.884,2.208H63.66l1.359-2.208H66.517z M63.753,43.369v-7.474h1.359v7.474H63.753z"/>
	<path d="M71.504,43.369l-0.108-0.942H71.35c-0.417,0.587-1.22,1.112-2.286,1.112c-1.513,0-2.285-1.065-2.285-2.146
		c0-1.807,1.606-2.795,4.494-2.78v-0.154c0-0.618-0.17-1.729-1.699-1.729c-0.695,0-1.42,0.216-1.946,0.556l-0.309-0.896
		c0.618-0.401,1.513-0.664,2.455-0.664c2.286,0,2.841,1.56,2.841,3.057v2.795c0,0.649,0.031,1.282,0.124,1.792H71.504z
		 M71.304,39.555c-1.482-0.031-3.166,0.231-3.166,1.683c0,0.88,0.587,1.297,1.282,1.297c0.973,0,1.59-0.618,1.807-1.25
		c0.046-0.139,0.077-0.293,0.077-0.433V39.555z"/>
	<path d="M82.22,43.369l-0.108-0.942h-0.046c-0.417,0.587-1.22,1.112-2.286,1.112c-1.513,0-2.285-1.065-2.285-2.146
		c0-1.807,1.606-2.795,4.494-2.78v-0.154c0-0.618-0.17-1.729-1.699-1.729c-0.695,0-1.42,0.216-1.946,0.556l-0.309-0.896
		c0.618-0.401,1.513-0.664,2.455-0.664c2.286,0,2.841,1.56,2.841,3.057v2.795c0,0.649,0.031,1.282,0.124,1.792H82.22z M82.02,39.555
		c-1.482-0.031-3.166,0.231-3.166,1.683c0,0.88,0.587,1.297,1.282,1.297c0.973,0,1.59-0.618,1.807-1.25
		c0.046-0.139,0.077-0.293,0.077-0.433V39.555z"/>
	<path d="M85.525,37.918c0-0.772-0.016-1.405-0.062-2.023h1.205l0.077,1.235h0.031c0.371-0.71,1.235-1.405,2.471-1.405
		c1.035,0,2.641,0.618,2.641,3.181v4.463h-1.359v-4.308c0-1.205-0.448-2.208-1.729-2.208c-0.896,0-1.59,0.633-1.822,1.39
		c-0.062,0.169-0.092,0.401-0.092,0.633v4.494h-1.359V37.918z"/>
	<path d="M95.67,33.749v2.146h1.946v1.035H95.67v4.031c0,0.926,0.262,1.451,1.019,1.451c0.355,0,0.618-0.046,0.788-0.093l0.062,1.02
		c-0.263,0.108-0.68,0.185-1.205,0.185c-0.633,0-1.143-0.201-1.467-0.571c-0.386-0.401-0.525-1.065-0.525-1.946V36.93h-1.158v-1.035
		h1.158v-1.791L95.67,33.749z"/>
	<path d="M99.808,39.879c0.031,1.837,1.205,2.594,2.564,2.594c0.973,0,1.56-0.17,2.068-0.386l0.232,0.973
		c-0.479,0.216-1.298,0.463-2.486,0.463c-2.301,0-3.675-1.513-3.675-3.768s1.328-4.03,3.505-4.03c2.439,0,3.088,2.146,3.088,3.521
		c0,0.278-0.03,0.494-0.046,0.633H99.808z M103.792,38.906c0.016-0.865-0.354-2.208-1.884-2.208c-1.374,0-1.977,1.266-2.084,2.208
		H103.792z"/>
	<path d="M106.787,38.227c0-0.88-0.015-1.637-0.062-2.332h1.189l0.046,1.467h0.062c0.34-1.004,1.158-1.637,2.069-1.637
		c0.154,0,0.263,0.015,0.386,0.046v1.281c-0.139-0.031-0.277-0.046-0.463-0.046c-0.957,0-1.637,0.726-1.822,1.745
		c-0.03,0.186-0.062,0.401-0.062,0.633v3.984h-1.344V38.227z"/>
	<path d="M113.412,33.795c0.016,0.463-0.324,0.833-0.865,0.833c-0.479,0-0.818-0.371-0.818-0.833c0-0.479,0.355-0.85,0.85-0.85
		C113.087,32.946,113.412,33.316,113.412,33.795z M111.898,43.369v-7.474h1.359v7.474H111.898z"/>
	<path d="M122.275,39.57c0,2.764-1.915,3.969-3.722,3.969c-2.022,0-3.582-1.482-3.582-3.845c0-2.501,1.637-3.968,3.706-3.968
		C120.824,35.726,122.275,37.285,122.275,39.57z M116.345,39.647c0,1.637,0.942,2.873,2.271,2.873c1.297,0,2.27-1.22,2.27-2.903
		c0-1.266-0.633-2.872-2.239-2.872C117.041,36.745,116.345,38.227,116.345,39.647z"/>
	<path d="M123.989,38.227c0-0.88-0.016-1.637-0.062-2.332h1.189l0.046,1.467h0.062c0.34-1.004,1.158-1.637,2.069-1.637
		c0.154,0,0.263,0.015,0.387,0.046v1.281c-0.14-0.031-0.278-0.046-0.464-0.046c-0.957,0-1.637,0.726-1.822,1.745
		c-0.03,0.186-0.062,0.401-0.062,0.633v3.984h-1.344V38.227z"/>
	<path d="M132.311,38.335c0-0.958-0.03-1.729-0.062-2.44h1.22l0.063,1.282h0.03c0.556-0.911,1.437-1.451,2.656-1.451
		c1.807,0,3.165,1.529,3.165,3.798c0,2.687-1.637,4.015-3.396,4.015c-0.988,0-1.854-0.433-2.301-1.174h-0.031v4.062h-1.344V38.335z
		 M133.655,40.327c0,0.201,0.031,0.386,0.062,0.556c0.247,0.942,1.065,1.591,2.038,1.591c1.437,0,2.271-1.174,2.271-2.888
		c0-1.498-0.788-2.78-2.224-2.78c-0.927,0-1.791,0.664-2.054,1.684c-0.047,0.169-0.093,0.37-0.093,0.556V40.327z"/>
	<path d="M145.236,43.369l-0.108-0.942h-0.046c-0.417,0.587-1.22,1.112-2.285,1.112c-1.514,0-2.286-1.065-2.286-2.146
		c0-1.807,1.606-2.795,4.494-2.78v-0.154c0-0.618-0.17-1.729-1.699-1.729c-0.694,0-1.42,0.216-1.945,0.556l-0.309-0.896
		c0.617-0.401,1.514-0.664,2.455-0.664c2.285,0,2.842,1.56,2.842,3.057v2.795c0,0.649,0.03,1.282,0.123,1.792H145.236z
		 M145.036,39.555c-1.482-0.031-3.166,0.231-3.166,1.683c0,0.88,0.587,1.297,1.281,1.297c0.974,0,1.591-0.618,1.807-1.25
		c0.047-0.139,0.078-0.293,0.078-0.433V39.555z"/>
	<path d="M148.54,38.227c0-0.88-0.016-1.637-0.062-2.332h1.189l0.046,1.467h0.062c0.34-1.004,1.158-1.637,2.069-1.637
		c0.154,0,0.263,0.015,0.387,0.046v1.281c-0.14-0.031-0.278-0.046-0.464-0.046c-0.957,0-1.637,0.726-1.822,1.745
		c-0.03,0.186-0.062,0.401-0.062,0.633v3.984h-1.344V38.227z"/>
	<path d="M157.651,43.369l-0.108-0.942h-0.046c-0.417,0.587-1.22,1.112-2.285,1.112c-1.514,0-2.286-1.065-2.286-2.146
		c0-1.807,1.606-2.795,4.494-2.78v-0.154c0-0.618-0.17-1.729-1.698-1.729c-0.695,0-1.421,0.216-1.946,0.556l-0.309-0.896
		c0.617-0.401,1.513-0.664,2.455-0.664c2.285,0,2.842,1.56,2.842,3.057v2.795c0,0.649,0.03,1.282,0.123,1.792H157.651z
		 M157.45,39.555c-1.482-0.031-3.165,0.231-3.165,1.683c0,0.88,0.587,1.297,1.281,1.297c0.974,0,1.591-0.618,1.807-1.25
		c0.047-0.139,0.077-0.293,0.077-0.433V39.555z"/>
	<path d="M66.903,61.899l-0.108-0.942h-0.046c-0.417,0.587-1.22,1.112-2.286,1.112c-1.513,0-2.285-1.065-2.285-2.146
		c0-1.807,1.606-2.795,4.494-2.779v-0.154c0-0.618-0.17-1.73-1.699-1.73c-0.695,0-1.42,0.216-1.946,0.556l-0.309-0.896
		c0.618-0.402,1.513-0.664,2.455-0.664c2.286,0,2.841,1.56,2.841,3.058v2.795c0,0.648,0.031,1.281,0.124,1.791H66.903z
		 M66.702,58.084c-1.482-0.03-3.166,0.231-3.166,1.684c0,0.88,0.587,1.297,1.282,1.297c0.973,0,1.59-0.617,1.807-1.251
		c0.046-0.139,0.077-0.293,0.077-0.432V58.084z"/>
	<path d="M75.535,61.621c-0.355,0.186-1.143,0.433-2.146,0.433c-2.254,0-3.721-1.528-3.721-3.814c0-2.3,1.575-3.968,4.015-3.968
		c0.803,0,1.513,0.201,1.884,0.386l-0.309,1.05c-0.324-0.185-0.834-0.355-1.575-0.355c-1.714,0-2.641,1.266-2.641,2.826
		c0,1.729,1.112,2.795,2.594,2.795c0.772,0,1.282-0.2,1.668-0.37L75.535,61.621z"/>
	<path d="M83.796,58.1c0,2.765-1.915,3.969-3.721,3.969c-2.023,0-3.583-1.482-3.583-3.845c0-2.502,1.637-3.969,3.706-3.969
		C82.344,54.255,83.796,55.815,83.796,58.1z M77.866,58.177c0,1.637,0.942,2.872,2.27,2.872c1.297,0,2.27-1.22,2.27-2.902
		c0-1.267-0.633-2.873-2.239-2.873C78.561,55.274,77.866,56.757,77.866,58.177z"/>
	<path d="M85.51,56.757c0-0.88-0.016-1.637-0.062-2.332h1.189l0.046,1.467h0.062c0.339-1.004,1.158-1.637,2.069-1.637
		c0.155,0,0.263,0.015,0.386,0.046v1.282c-0.139-0.031-0.278-0.046-0.463-0.046c-0.957,0-1.637,0.726-1.822,1.745
		c-0.031,0.186-0.062,0.401-0.062,0.633v3.984H85.51V56.757z"/>
	<path d="M96.859,50.935v9.033c0,0.664,0.015,1.421,0.062,1.931h-1.22l-0.062-1.297h-0.031c-0.417,0.834-1.328,1.467-2.548,1.467
		c-1.807,0-3.196-1.528-3.196-3.799c-0.016-2.486,1.529-4.015,3.351-4.015c1.143,0,1.915,0.54,2.255,1.143h0.031v-4.463H96.859z
		 M95.501,57.467c0-0.17-0.016-0.401-0.062-0.571c-0.201-0.865-0.942-1.575-1.961-1.575c-1.405,0-2.239,1.235-2.239,2.888
		c0,1.513,0.741,2.764,2.208,2.764c0.911,0,1.745-0.602,1.992-1.621c0.046-0.186,0.062-0.371,0.062-0.587V57.467z"/>
	<path d="M103.252,61.899l-0.108-0.942h-0.046c-0.417,0.587-1.22,1.112-2.285,1.112c-1.514,0-2.286-1.065-2.286-2.146
		c0-1.807,1.606-2.795,4.494-2.779v-0.154c0-0.618-0.17-1.73-1.699-1.73c-0.694,0-1.42,0.216-1.945,0.556l-0.309-0.896
		c0.618-0.402,1.514-0.664,2.455-0.664c2.285,0,2.842,1.56,2.842,3.058v2.795c0,0.648,0.03,1.281,0.123,1.791H103.252z
		 M103.051,58.084c-1.482-0.03-3.166,0.231-3.166,1.684c0,0.88,0.587,1.297,1.281,1.297c0.974,0,1.591-0.617,1.807-1.251
		c0.047-0.139,0.078-0.293,0.078-0.432V58.084z"/>
	<path d="M106.555,56.757c0-0.88-0.016-1.637-0.062-2.332h1.189l0.046,1.467h0.062c0.34-1.004,1.158-1.637,2.069-1.637
		c0.154,0,0.263,0.015,0.387,0.046v1.282c-0.14-0.031-0.278-0.046-0.464-0.046c-0.957,0-1.637,0.726-1.822,1.745
		c-0.03,0.186-0.062,0.401-0.062,0.633v3.984h-1.344V56.757z"/>
	<path d="M111.667,50.935h1.359v10.964h-1.359V50.935z"/>
	<path d="M116.068,58.409c0.031,1.838,1.204,2.595,2.563,2.595c0.973,0,1.56-0.17,2.069-0.386l0.231,0.973
		c-0.479,0.216-1.297,0.463-2.486,0.463c-2.301,0-3.675-1.513-3.675-3.768s1.328-4.03,3.505-4.03c2.44,0,3.089,2.146,3.089,3.521
		c0,0.278-0.031,0.494-0.047,0.633H116.068z M120.052,57.436c0.016-0.865-0.355-2.208-1.884-2.208c-1.375,0-1.977,1.266-2.085,2.208
		H120.052z"/>
	<path d="M122.862,60.509c0.401,0.263,1.111,0.54,1.791,0.54c0.988,0,1.451-0.494,1.451-1.111c0-0.648-0.386-1.004-1.39-1.374
		c-1.344-0.479-1.977-1.221-1.977-2.116c0-1.204,0.973-2.192,2.579-2.192c0.757,0,1.42,0.216,1.837,0.463l-0.339,0.988
		c-0.294-0.185-0.834-0.432-1.529-0.432c-0.803,0-1.251,0.463-1.251,1.019c0,0.618,0.448,0.896,1.421,1.267
		c1.297,0.494,1.961,1.143,1.961,2.254c0,1.313-1.019,2.239-2.795,2.239c-0.818,0-1.575-0.2-2.1-0.51L122.862,60.509z"/>
	<path d="M128.668,61.096c0-0.571,0.387-0.973,0.927-0.973s0.911,0.401,0.911,0.973c0,0.556-0.355,0.973-0.927,0.973
		C129.039,62.069,128.668,61.652,128.668,61.096z"/>
	<path d="M131.864,61.096c0-0.571,0.387-0.973,0.927-0.973s0.911,0.401,0.911,0.973c0,0.556-0.355,0.973-0.927,0.973
		C132.235,62.069,131.864,61.652,131.864,61.096z"/>
	<path d="M135.06,61.096c0-0.571,0.387-0.973,0.927-0.973s0.911,0.401,0.911,0.973c0,0.556-0.355,0.973-0.927,0.973
		C135.431,62.069,135.06,61.652,135.06,61.096z"/>
</g>
</svg>
