<?xml version="1.0" encoding="utf-8"?>
<!-- Generator: Adobe Illustrator 17.0.0, SVG Export Plug-In . SVG Version: 6.00 Build 0)  -->
<!DOCTYPE svg PUBLIC "-//W3C//DTD SVG 1.1//EN" "http://www.w3.org/Graphics/SVG/1.1/DTD/svg11.dtd" [
	<!ENTITY ns_extend "http://ns.adobe.com/Extensibility/1.0/">
	<!ENTITY ns_ai "http://ns.adobe.com/AdobeIllustrator/10.0/">
	<!ENTITY ns_graphs "http://ns.adobe.com/Graphs/1.0/">
	<!ENTITY ns_vars "http://ns.adobe.com/Variables/1.0/">
	<!ENTITY ns_imrep "http://ns.adobe.com/ImageReplacement/1.0/">
	<!ENTITY ns_sfw "http://ns.adobe.com/SaveForWeb/1.0/">
	<!ENTITY ns_custom "http://ns.adobe.com/GenericCustomNamespace/1.0/">
	<!ENTITY ns_adobe_xpath "http://ns.adobe.com/XPath/1.0/">
]>
<svg version="1.1" id="Capa_1" xmlns:x="&ns_extend;" xmlns:i="&ns_ai;" xmlns:graph="&ns_graphs;"
	 xmlns="http://www.w3.org/2000/svg" xmlns:xlink="http://www.w3.org/1999/xlink" x="0px" y="0px" width="199.091px"
	 height="112.917px" viewBox="0 0 199.091 112.917" enable-background="new 0 0 199.091 112.917" xml:space="preserve">
<metadata>
	<sfw  xmlns="&ns_sfw;">
		<slices></slices>
		<sliceSourceBounds  width="199.091" height="112.917" x="367.954" y="624.042" bottomLeftOrigin="true"></sliceSourceBounds>
	</sfw>
</metadata>
<polygon fill="#F1F1F1" stroke="#000000" stroke-width="2" stroke-linecap="round" stroke-linejoin="round" stroke-miterlimit="10" points="
	198.091,1 1,1 1,75.406 126.987,75.406 126.987,111.917 163.5,75.406 198.091,75.406 "/>
<g>
	<g>
		<path fill="#221E1F" d="M12.857,19.047l0.048,0.416c0.096,0.864-0.208,1.776-1.008,2.737c-0.72,0.864-1.104,1.456-1.104,2.177
			c0,0.816,0.496,1.36,1.521,1.36c0.561,0,1.201-0.176,1.617-0.496l0.384,1.024c-0.544,0.368-1.457,0.64-2.305,0.64
			c-1.825,0-2.673-1.136-2.673-2.353c0-1.089,0.608-1.856,1.393-2.753c0.688-0.849,0.944-1.521,0.896-2.337l-0.016-0.416h1.247
			V19.047z M13.193,16.773c0,0.561-0.368,1.009-0.944,1.009s-0.944-0.448-0.944-1.009c0-0.576,0.384-0.992,0.944-0.992
			C12.825,15.781,13.193,16.197,13.193,16.773z"/>
		<path fill="#221E1F" d="M25.067,25.193c-1.457-0.385-2.881-0.816-4.13-1.249c-0.224-0.08-0.448-0.16-0.656-0.16
			c-2.561-0.096-4.754-1.984-4.754-5.458c0-3.457,2.113-5.683,5.026-5.683c2.929,0,4.834,2.273,4.834,5.459
			c0,2.769-1.28,4.546-3.073,5.17v0.063c1.073,0.272,2.241,0.528,3.153,0.688L25.067,25.193z M23.915,18.166
			c0-2.161-1.121-4.386-3.41-4.386c-2.353,0-3.505,2.177-3.489,4.514c-0.016,2.289,1.249,4.354,3.425,4.354
			C22.667,22.648,23.915,20.631,23.915,18.166z"/>
		<path fill="#221E1F" d="M33.674,21.495c0,0.801,0.016,1.505,0.064,2.113H32.49l-0.08-1.265h-0.032
			c-0.368,0.624-1.185,1.44-2.561,1.44c-1.216,0-2.673-0.672-2.673-3.394V15.86h1.408v4.29c0,1.473,0.448,2.465,1.729,2.465
			c0.944,0,1.601-0.656,1.856-1.28c0.08-0.209,0.128-0.465,0.128-0.721V15.86h1.408v5.635H33.674z"/>
		<path fill="#221E1F" d="M36.792,19.991c0.032,1.904,1.249,2.688,2.657,2.688c1.008,0,1.617-0.176,2.145-0.399l0.24,1.008
			c-0.496,0.225-1.344,0.48-2.577,0.48c-2.385,0-3.81-1.568-3.81-3.905s1.376-4.178,3.633-4.178c2.529,0,3.201,2.225,3.201,3.649
			c0,0.288-0.032,0.512-0.048,0.656h-5.441V19.991z M40.921,18.982c0.016-0.896-0.368-2.289-1.953-2.289
			c-1.425,0-2.049,1.313-2.161,2.289H40.921z M40.004,13.376h-1l-0.14,1.486h0.723L40.004,13.376z"/>
		<path fill="#221E1F" d="M49.111,13.637v2.225h2.017v1.072h-2.017v4.178c0,0.96,0.272,1.505,1.056,1.505
			c0.368,0,0.641-0.048,0.816-0.097l0.064,1.057c-0.272,0.112-0.704,0.192-1.249,0.192c-0.656,0-1.184-0.208-1.521-0.593
			c-0.4-0.416-0.544-1.104-0.544-2.017v-4.226h-1.201v-1.072h1.201v-1.856L49.111,13.637z"/>
		<path fill="#221E1F" d="M57,23.608l-0.112-0.977H56.84c-0.432,0.608-1.265,1.152-2.369,1.152c-1.569,0-2.369-1.104-2.369-2.225
			c0-1.873,1.665-2.897,4.658-2.881v-0.16c0-0.641-0.176-1.793-1.761-1.793c-0.72,0-1.473,0.225-2.017,0.576l-0.32-0.929
			c0.64-0.416,1.568-0.688,2.545-0.688c2.369,0,2.945,1.616,2.945,3.169v2.897c0,0.672,0.032,1.328,0.128,1.856H57V23.608z
			 M56.792,19.655c-1.537-0.032-3.281,0.239-3.281,1.744c0,0.912,0.608,1.345,1.329,1.345c1.008,0,1.648-0.641,1.873-1.297
			c0.048-0.144,0.08-0.304,0.08-0.448v-1.344H56.792z"/>
		<path fill="#221E1F" d="M60.422,12.244h1.409v11.364h-1.409V12.244z"/>
		<path fill="#221E1F" d="M67.398,22.168c0.416,0.271,1.152,0.561,1.856,0.561c1.024,0,1.505-0.513,1.505-1.153
			c0-0.672-0.4-1.04-1.441-1.424c-1.393-0.496-2.049-1.265-2.049-2.193c0-1.248,1.009-2.272,2.673-2.272
			c0.784,0,1.473,0.224,1.905,0.479l-0.352,1.024c-0.304-0.191-0.865-0.448-1.585-0.448c-0.832,0-1.296,0.48-1.296,1.057
			c0,0.641,0.464,0.929,1.473,1.313c1.345,0.513,2.033,1.185,2.033,2.337c0,1.36-1.056,2.321-2.897,2.321
			c-0.849,0-1.633-0.208-2.177-0.528L67.398,22.168z"/>
		<path fill="#221E1F" d="M75.495,13.685c0.016,0.48-0.336,0.864-0.896,0.864c-0.496,0-0.849-0.384-0.849-0.864
			c0-0.496,0.368-0.881,0.88-0.881C75.159,12.804,75.495,13.189,75.495,13.685z M73.926,23.608v-7.747h1.409v7.747H73.926z"/>
		<path fill="#221E1F" d="M81.062,12.244h1.409v4.834h0.032c0.224-0.4,0.576-0.753,1.009-0.993c0.416-0.239,0.912-0.399,1.44-0.399
			c1.041,0,2.705,0.64,2.705,3.313v4.609h-1.409v-4.45c0-1.248-0.464-2.305-1.792-2.305c-0.913,0-1.633,0.641-1.889,1.409
			c-0.08,0.191-0.096,0.399-0.096,0.672v4.674h-1.409C81.062,23.608,81.062,12.244,81.062,12.244z"/>
		<path fill="#221E1F" d="M94.231,23.608l-0.112-0.977h-0.048c-0.432,0.608-1.265,1.152-2.369,1.152
			c-1.569,0-2.369-1.104-2.369-2.225c0-1.873,1.665-2.897,4.658-2.881v-0.16c0-0.641-0.176-1.793-1.761-1.793
			c-0.72,0-1.473,0.225-2.017,0.576l-0.32-0.929c0.64-0.416,1.568-0.688,2.545-0.688c2.369,0,2.945,1.616,2.945,3.169v2.897
			c0,0.672,0.032,1.328,0.128,1.856h-1.28V23.608z M94.023,19.655c-1.537-0.032-3.281,0.239-3.281,1.744
			c0,0.912,0.608,1.345,1.329,1.345c1.008,0,1.648-0.641,1.873-1.297c0.048-0.144,0.08-0.304,0.08-0.448v-1.344H94.023z"/>
		<path fill="#221E1F" d="M103.176,23.32c-0.368,0.192-1.185,0.448-2.225,0.448c-2.337,0-3.857-1.585-3.857-3.954
			c0-2.385,1.632-4.113,4.162-4.113c0.832,0,1.568,0.208,1.953,0.4l-0.32,1.088c-0.336-0.191-0.864-0.368-1.632-0.368
			c-1.777,0-2.737,1.313-2.737,2.93c0,1.793,1.152,2.897,2.689,2.897c0.801,0,1.329-0.209,1.729-0.385L103.176,23.32z"/>
		<path fill="#221E1F" d="M105.51,19.991c0.032,1.904,1.249,2.688,2.657,2.688c1.008,0,1.617-0.176,2.145-0.399l0.24,1.008
			c-0.496,0.225-1.344,0.48-2.577,0.48c-2.385,0-3.81-1.568-3.81-3.905s1.376-4.178,3.633-4.178c2.529,0,3.201,2.225,3.201,3.649
			c0,0.288-0.032,0.512-0.048,0.656h-5.441V19.991z M109.64,18.982c0.016-0.896-0.368-2.289-1.953-2.289
			c-1.425,0-2.049,1.313-2.161,2.289H109.64z"/>
		<path fill="#221E1F" d="M112.742,17.958c0-0.8-0.016-1.456-0.064-2.097h1.232l0.064,1.248h0.048
			c0.432-0.736,1.152-1.424,2.433-1.424c1.057,0,1.857,0.64,2.193,1.553h0.032c0.24-0.433,0.544-0.769,0.864-1.009
			c0.464-0.353,0.977-0.544,1.713-0.544c1.024,0,2.545,0.672,2.545,3.361v4.562h-1.376v-4.386c0-1.488-0.544-2.385-1.681-2.385
			c-0.8,0-1.425,0.592-1.665,1.28c-0.064,0.192-0.112,0.448-0.112,0.704v4.786h-1.376v-4.642c0-1.232-0.544-2.129-1.617-2.129
			c-0.88,0-1.521,0.704-1.745,1.408c-0.08,0.208-0.112,0.448-0.112,0.688v4.674h-1.376
			C112.742,23.606,112.742,17.958,112.742,17.958z"/>
		<path fill="#221E1F" d="M133.096,19.671c0,2.865-1.985,4.113-3.857,4.113c-2.097,0-3.713-1.536-3.713-3.985
			c0-2.593,1.696-4.113,3.841-4.113C131.592,15.686,133.096,17.302,133.096,19.671z M126.95,19.751c0,1.696,0.977,2.978,2.353,2.978
			c1.345,0,2.353-1.265,2.353-3.01c0-1.313-0.656-2.978-2.321-2.978S126.95,18.278,126.95,19.751z"/>
		<path fill="#221E1F" d="M134.678,22.168c0.416,0.271,1.152,0.561,1.856,0.561c1.024,0,1.505-0.513,1.505-1.153
			c0-0.672-0.4-1.04-1.441-1.424c-1.393-0.496-2.049-1.265-2.049-2.193c0-1.248,1.009-2.272,2.673-2.272
			c0.784,0,1.473,0.224,1.905,0.479l-0.352,1.024c-0.304-0.191-0.865-0.448-1.585-0.448c-0.832,0-1.296,0.48-1.296,1.057
			c0,0.641,0.464,0.929,1.473,1.313c1.345,0.513,2.033,1.185,2.033,2.337c0,1.36-1.056,2.321-2.897,2.321
			c-0.849,0-1.633-0.208-2.177-0.528L134.678,22.168z"/>
		<path fill="#221E1F" d="M149.879,22.408h-0.032c-0.416,0.768-1.28,1.376-2.529,1.376c-1.809,0-3.281-1.568-3.281-3.921
			c0-2.897,1.873-4.178,3.505-4.178c1.2,0,2,0.592,2.385,1.344h0.032l0.048-1.168h1.329c-0.032,0.656-0.048,1.328-0.048,2.129v8.787
			h-1.409L149.879,22.408L149.879,22.408z M149.879,18.999c0-0.192-0.016-0.417-0.064-0.593c-0.208-0.864-0.96-1.601-2.017-1.601
			c-1.457,0-2.337,1.232-2.337,2.978c0,1.536,0.736,2.881,2.289,2.881c0.912,0,1.697-0.561,2.017-1.537
			c0.064-0.191,0.112-0.464,0.112-0.672V18.999z"/>
		<path fill="#221E1F" d="M160.087,21.495c0,0.801,0.016,1.505,0.064,2.113h-1.249l-0.08-1.265h-0.032
			c-0.368,0.624-1.185,1.44-2.561,1.44c-1.216,0-2.673-0.672-2.673-3.394V15.86h1.408v4.29c0,1.473,0.448,2.465,1.729,2.465
			c0.944,0,1.601-0.656,1.856-1.28c0.08-0.209,0.128-0.465,0.128-0.721V15.86h1.408v5.635H160.087z"/>
		<path fill="#221E1F" d="M163.205,19.991c0.032,1.904,1.249,2.688,2.657,2.688c1.008,0,1.617-0.176,2.145-0.399l0.24,1.008
			c-0.496,0.225-1.344,0.48-2.577,0.48c-2.385,0-3.81-1.568-3.81-3.905s1.376-4.178,3.633-4.178c2.529,0,3.201,2.225,3.201,3.649
			c0,0.288-0.032,0.512-0.048,0.656h-5.441V19.991z M167.334,18.982c0.016-0.896-0.368-2.289-1.953-2.289
			c-1.425,0-2.049,1.313-2.161,2.289H167.334z"/>
		<path fill="#221E1F" d="M180.311,21.495c0,0.801,0.016,1.505,0.064,2.113h-1.249l-0.08-1.265h-0.032
			c-0.368,0.624-1.185,1.44-2.561,1.44c-1.216,0-2.673-0.672-2.673-3.394V15.86h1.408v4.29c0,1.473,0.448,2.465,1.729,2.465
			c0.944,0,1.601-0.656,1.856-1.28c0.08-0.209,0.128-0.465,0.128-0.721V15.86h1.408v5.635H180.311z"/>
		<path fill="#221E1F" d="M182.644,17.958c0-0.8-0.016-1.456-0.064-2.097h1.249l0.08,1.28h0.032
			c0.384-0.736,1.281-1.456,2.561-1.456c1.073,0,2.737,0.64,2.737,3.297v4.626h-1.409v-4.466c0-1.248-0.464-2.289-1.792-2.289
			c-0.929,0-1.649,0.656-1.889,1.44c-0.064,0.177-0.096,0.416-0.096,0.656v4.658h-1.409V17.958z"/>
		<path fill="#221E1F" d="M15.136,38.168c0.416,0.271,1.152,0.561,1.856,0.561c1.024,0,1.505-0.513,1.505-1.153
			c0-0.672-0.4-1.04-1.441-1.424c-1.393-0.496-2.049-1.265-2.049-2.193c0-1.248,1.009-2.272,2.673-2.272
			c0.784,0,1.473,0.224,1.905,0.479l-0.352,1.024c-0.304-0.191-0.865-0.448-1.585-0.448c-0.832,0-1.296,0.48-1.296,1.057
			c0,0.641,0.464,0.929,1.473,1.313c1.345,0.513,2.033,1.185,2.033,2.337c0,1.36-1.056,2.321-2.897,2.321
			c-0.849,0-1.633-0.208-2.177-0.528L15.136,38.168z"/>
		<path fill="#221E1F" d="M23.232,29.685c0.016,0.48-0.336,0.864-0.896,0.864c-0.496,0-0.849-0.384-0.849-0.864
			c0-0.496,0.368-0.881,0.88-0.881C22.896,28.804,23.232,29.189,23.232,29.685z M21.664,39.608v-7.747h1.409v7.747H21.664z"/>
		<path fill="#221E1F" d="M25.216,38.168c0.416,0.271,1.152,0.561,1.856,0.561c1.024,0,1.505-0.513,1.505-1.153
			c0-0.672-0.4-1.04-1.441-1.424c-1.393-0.496-2.049-1.265-2.049-2.193c0-1.248,1.009-2.272,2.673-2.272
			c0.784,0,1.473,0.224,1.905,0.479l-0.352,1.024c-0.304-0.191-0.865-0.448-1.585-0.448c-0.832,0-1.296,0.48-1.296,1.057
			c0,0.641,0.464,0.929,1.473,1.313c1.345,0.513,2.033,1.185,2.033,2.337c0,1.36-1.056,2.321-2.897,2.321
			c-0.849,0-1.633-0.208-2.177-0.528L25.216,38.168z"/>
		<path fill="#221E1F" d="M33.44,29.637v2.225h2.017v1.072H33.44v4.178c0,0.96,0.272,1.505,1.056,1.505
			c0.368,0,0.641-0.048,0.816-0.097l0.064,1.057c-0.272,0.112-0.704,0.192-1.249,0.192c-0.656,0-1.184-0.208-1.521-0.593
			c-0.4-0.416-0.544-1.104-0.544-2.017v-4.226h-1.201v-1.072h1.201v-1.856L33.44,29.637z"/>
		<path fill="#221E1F" d="M37.728,35.991c0.032,1.904,1.249,2.688,2.657,2.688c1.008,0,1.617-0.176,2.145-0.399l0.24,1.008
			c-0.496,0.225-1.344,0.48-2.577,0.48c-2.385,0-3.81-1.568-3.81-3.905s1.376-4.178,3.633-4.178c2.529,0,3.201,2.225,3.201,3.649
			c0,0.288-0.032,0.512-0.048,0.656L37.728,35.991L37.728,35.991z M41.858,34.982c0.016-0.896-0.368-2.289-1.953-2.289
			c-1.425,0-2.049,1.313-2.161,2.289H41.858z"/>
		<path fill="#221E1F" d="M44.959,33.958c0-0.8-0.016-1.456-0.064-2.097h1.232l0.064,1.248h0.048
			c0.432-0.736,1.152-1.424,2.433-1.424c1.057,0,1.857,0.64,2.193,1.553h0.032c0.24-0.433,0.544-0.769,0.864-1.009
			c0.464-0.353,0.977-0.544,1.713-0.544c1.024,0,2.545,0.672,2.545,3.361v4.562h-1.376v-4.386c0-1.488-0.544-2.385-1.681-2.385
			c-0.8,0-1.425,0.592-1.665,1.28c-0.064,0.192-0.112,0.448-0.112,0.704v4.786H49.81v-4.642c0-1.232-0.544-2.129-1.617-2.129
			c-0.88,0-1.521,0.704-1.745,1.408c-0.08,0.208-0.112,0.448-0.112,0.688v4.674H44.96v-5.648H44.959z"/>
		<path fill="#221E1F" d="M62.593,39.608l-0.112-0.977h-0.048c-0.432,0.608-1.265,1.152-2.369,1.152
			c-1.569,0-2.369-1.104-2.369-2.225c0-1.873,1.665-2.897,4.658-2.881v-0.16c0-0.641-0.176-1.793-1.761-1.793
			c-0.72,0-1.473,0.225-2.017,0.576l-0.32-0.929c0.64-0.416,1.568-0.687,2.545-0.687c2.369,0,2.945,1.616,2.945,3.169v2.897
			c0,0.672,0.032,1.328,0.128,1.856h-1.28V39.608z M62.385,35.655c-1.537-0.032-3.281,0.239-3.281,1.744
			c0,0.912,0.608,1.345,1.329,1.345c1.008,0,1.648-0.641,1.873-1.297c0.048-0.144,0.08-0.304,0.08-0.448v-1.344H62.385z"/>
		<path fill="#221E1F" d="M76.098,28.244v9.363c0,0.688,0.016,1.473,0.064,2.001h-1.265l-0.064-1.345h-0.032
			c-0.432,0.864-1.376,1.521-2.641,1.521c-1.873,0-3.313-1.584-3.313-3.938c-0.016-2.577,1.584-4.161,3.473-4.161
			c1.185,0,1.985,0.56,2.337,1.185h0.032v-4.626H76.098z M74.689,35.015c0-0.176-0.016-0.416-0.064-0.593
			c-0.208-0.896-0.977-1.632-2.033-1.632c-1.457,0-2.321,1.28-2.321,2.993c0,1.568,0.769,2.865,2.289,2.865
			c0.944,0,1.809-0.625,2.065-1.681c0.048-0.192,0.064-0.385,0.064-0.608C74.689,36.359,74.689,35.015,74.689,35.015z"/>
		<path fill="#221E1F" d="M79.214,35.991c0.032,1.904,1.249,2.688,2.657,2.688c1.008,0,1.617-0.176,2.145-0.399l0.24,1.008
			c-0.496,0.225-1.344,0.48-2.577,0.48c-2.385,0-3.81-1.568-3.81-3.905s1.376-4.178,3.633-4.178c2.529,0,3.201,2.225,3.201,3.649
			c0,0.288-0.032,0.512-0.048,0.656L79.214,35.991L79.214,35.991z M83.344,34.982c0.016-0.896-0.368-2.289-1.953-2.289
			c-1.425,0-2.049,1.313-2.161,2.289H83.344z"/>
		<path fill="#221E1F" d="M91.407,29.685c0.016,0.48-0.336,0.864-0.896,0.864c-0.496,0-0.849-0.384-0.849-0.864
			c0-0.496,0.368-0.881,0.88-0.881C91.071,28.804,91.407,29.189,91.407,29.685z M89.838,39.608v-7.747h1.409v7.747H89.838z"/>
		<path fill="#221E1F" d="M93.583,33.958c0-0.8-0.016-1.456-0.064-2.097h1.249l0.08,1.28h0.032c0.384-0.736,1.281-1.456,2.561-1.456
			c1.073,0,2.737,0.64,2.737,3.297v4.626h-1.409v-4.466c0-1.248-0.464-2.289-1.792-2.289c-0.929,0-1.649,0.656-1.889,1.44
			c-0.064,0.177-0.096,0.416-0.096,0.656v4.658h-1.409V33.958z"/>
		<path fill="#221E1F" d="M102.606,39.608v-6.675h-1.088v-1.072h1.088v-0.368c0-1.089,0.24-2.081,0.896-2.705
			c0.528-0.513,1.232-0.721,1.889-0.721c0.496,0,0.928,0.112,1.201,0.225L106.4,29.38c-0.208-0.096-0.496-0.176-0.896-0.176
			c-1.2,0-1.504,1.057-1.504,2.241v0.416h1.873v1.072H104v6.675C104,39.608,102.606,39.608,102.606,39.608z"/>
		<path fill="#221E1F" d="M113.937,35.671c0,2.865-1.985,4.113-3.857,4.113c-2.097,0-3.713-1.536-3.713-3.985
			c0-2.593,1.696-4.113,3.841-4.113C112.433,31.686,113.937,33.302,113.937,35.671z M107.791,35.751
			c0,1.696,0.977,2.978,2.353,2.978c1.345,0,2.353-1.265,2.353-3.01c0-1.313-0.656-2.978-2.321-2.978
			C108.511,32.741,107.791,34.278,107.791,35.751z"/>
		<path fill="#221E1F" d="M115.71,34.278c0-0.912-0.016-1.696-0.064-2.417h1.232l0.048,1.521h0.064
			c0.352-1.04,1.2-1.696,2.145-1.696c0.16,0,0.272,0.016,0.4,0.048v1.328c-0.144-0.032-0.288-0.048-0.48-0.048
			c-0.992,0-1.696,0.752-1.889,1.809c-0.032,0.192-0.064,0.416-0.064,0.656v4.13h-1.393v-5.331H115.71z"/>
		<path fill="#221E1F" d="M121.006,33.958c0-0.8-0.016-1.456-0.064-2.097h1.232l0.064,1.248h0.048
			c0.432-0.736,1.152-1.424,2.433-1.424c1.057,0,1.857,0.64,2.193,1.553h0.032c0.24-0.433,0.544-0.769,0.864-1.009
			c0.464-0.353,0.977-0.544,1.713-0.544c1.024,0,2.545,0.672,2.545,3.361v4.562h-1.376v-4.386c0-1.488-0.544-2.385-1.681-2.385
			c-0.8,0-1.425,0.592-1.665,1.28c-0.064,0.192-0.112,0.448-0.112,0.704v4.786h-1.376v-4.642c0-1.232-0.544-2.129-1.617-2.129
			c-0.88,0-1.521,0.704-1.745,1.408c-0.08,0.208-0.112,0.448-0.112,0.688v4.674h-1.376
			C121.006,39.606,121.006,33.958,121.006,33.958z"/>
		<path fill="#221E1F" d="M138.64,39.608l-0.112-0.977h-0.048c-0.433,0.608-1.265,1.152-2.369,1.152
			c-1.569,0-2.369-1.104-2.369-2.225c0-1.873,1.665-2.897,4.658-2.881v-0.16c0-0.641-0.176-1.793-1.761-1.793
			c-0.72,0-1.473,0.225-2.017,0.576l-0.32-0.929c0.64-0.416,1.568-0.687,2.545-0.687c2.369,0,2.945,1.616,2.945,3.169v2.897
			c0,0.672,0.032,1.328,0.128,1.856h-1.28V39.608z M138.432,35.655c-1.537-0.032-3.281,0.239-3.281,1.744
			c0,0.912,0.608,1.345,1.329,1.345c1.008,0,1.648-0.641,1.873-1.297c0.048-0.144,0.08-0.304,0.08-0.448L138.432,35.655
			L138.432,35.655z"/>
		<path fill="#221E1F" d="M147.585,39.32c-0.368,0.192-1.185,0.448-2.225,0.448c-2.337,0-3.857-1.585-3.857-3.954
			c0-2.385,1.632-4.113,4.162-4.113c0.832,0,1.568,0.208,1.953,0.4l-0.32,1.088c-0.336-0.191-0.865-0.368-1.633-0.368
			c-1.777,0-2.737,1.313-2.737,2.93c0,1.793,1.152,2.897,2.689,2.897c0.801,0,1.329-0.209,1.729-0.385L147.585,39.32z"/>
		<path fill="#221E1F" d="M150.799,29.685c0.016,0.48-0.336,0.864-0.896,0.864c-0.496,0-0.849-0.384-0.849-0.864
			c0-0.496,0.368-0.881,0.88-0.881C150.463,28.804,150.799,29.189,150.799,29.685z M149.23,39.608v-7.747h1.409v7.747H149.23z"/>
		<path fill="#221E1F" d="M159.985,35.671c0,2.865-1.985,4.113-3.857,4.113c-2.097,0-3.713-1.536-3.713-3.985
			c0-2.593,1.697-4.113,3.841-4.113C158.481,31.686,159.985,33.302,159.985,35.671z M153.839,35.751
			c0,1.696,0.977,2.978,2.353,2.978c1.345,0,2.353-1.265,2.353-3.01c0-1.313-0.656-2.978-2.321-2.978S153.839,34.278,153.839,35.751
			z M158.305,28.516l-1.953,2.289h-1.008l1.408-2.289H158.305z"/>
		<path fill="#221E1F" d="M161.759,33.958c0-0.8-0.016-1.456-0.064-2.097h1.249l0.08,1.28h0.032
			c0.384-0.736,1.281-1.456,2.561-1.456c1.073,0,2.737,0.64,2.737,3.297v4.626h-1.409v-4.466c0-1.248-0.464-2.289-1.792-2.289
			c-0.929,0-1.649,0.656-1.889,1.44c-0.064,0.177-0.096,0.416-0.096,0.656v4.658h-1.409V33.958z"/>
		<path fill="#221E1F" d="M174.03,28.244h1.409v11.364h-1.409V28.244z"/>
		<path fill="#221E1F" d="M178.59,35.991c0.032,1.904,1.249,2.688,2.657,2.688c1.008,0,1.617-0.176,2.145-0.399l0.24,1.008
			c-0.496,0.225-1.344,0.48-2.577,0.48c-2.385,0-3.81-1.568-3.81-3.905s1.376-4.178,3.633-4.178c2.529,0,3.201,2.225,3.201,3.649
			c0,0.288-0.032,0.512-0.048,0.656L178.59,35.991L178.59,35.991z M182.72,34.982c0.016-0.896-0.368-2.289-1.953-2.289
			c-1.425,0-2.049,1.313-2.161,2.289H182.72z"/>
		<path fill="#221E1F" d="M22.144,51.991c0.032,1.904,1.249,2.688,2.657,2.688c1.008,0,1.617-0.176,2.145-0.399l0.24,1.008
			c-0.496,0.225-1.344,0.48-2.577,0.48c-2.385,0-3.81-1.568-3.81-3.905s1.376-4.178,3.633-4.178c2.529,0,3.201,2.225,3.201,3.649
			c0,0.288-0.032,0.512-0.048,0.656h-5.441V51.991z M26.274,50.982c0.016-0.896-0.368-2.289-1.953-2.289
			c-1.425,0-2.049,1.313-2.161,2.289H26.274z"/>
		<path fill="#221E1F" d="M29.375,49.958c0-0.8-0.016-1.456-0.064-2.097h1.249l0.08,1.28h0.032c0.384-0.736,1.281-1.456,2.561-1.456
			c1.073,0,2.737,0.64,2.737,3.297v4.626h-1.409v-4.466c0-1.248-0.464-2.289-1.792-2.289c-0.929,0-1.649,0.656-1.889,1.44
			c-0.064,0.177-0.096,0.416-0.096,0.656v4.658h-1.409V49.958z"/>
		<path fill="#221E1F" d="M38.592,47.861l1.521,4.354c0.256,0.704,0.464,1.345,0.624,1.985h0.048c0.176-0.641,0.4-1.281,0.656-1.985
			l1.504-4.354h1.473l-3.041,7.747h-1.345l-2.945-7.747H38.592z"/>
		<path fill="#221E1F" d="M47.312,45.685c0.016,0.48-0.336,0.864-0.896,0.864c-0.496,0-0.849-0.384-0.849-0.864
			c0-0.496,0.368-0.881,0.88-0.881C46.976,44.804,47.312,45.189,47.312,45.685z M45.744,55.608v-7.747h1.409v7.747H45.744z"/>
		<path fill="#221E1F" d="M50.271,51.991c0.032,1.904,1.249,2.688,2.657,2.688c1.008,0,1.617-0.176,2.145-0.399l0.24,1.008
			c-0.496,0.225-1.344,0.48-2.577,0.48c-2.385,0-3.81-1.568-3.81-3.905s1.376-4.178,3.633-4.178c2.529,0,3.201,2.225,3.201,3.649
			c0,0.288-0.032,0.512-0.048,0.656h-5.441V51.991z M54.401,50.982c0.016-0.896-0.368-2.289-1.953-2.289
			c-1.425,0-2.049,1.313-2.161,2.289H54.401z"/>
		<path fill="#221E1F" d="M67.376,53.495c0,0.801,0.016,1.505,0.064,2.113h-1.249l-0.08-1.265H66.08
			c-0.368,0.624-1.185,1.44-2.561,1.44c-1.216,0-2.673-0.672-2.673-3.394V47.86h1.408v4.29c0,1.473,0.448,2.465,1.729,2.465
			c0.944,0,1.601-0.656,1.856-1.28c0.08-0.209,0.128-0.465,0.128-0.721V47.86h1.408L67.376,53.495L67.376,53.495z"/>
		<path fill="#221E1F" d="M69.71,49.958c0-0.8-0.016-1.456-0.064-2.097h1.249l0.08,1.28h0.032c0.384-0.736,1.281-1.456,2.561-1.456
			c1.073,0,2.737,0.64,2.737,3.297v4.626h-1.409v-4.466c0-1.248-0.464-2.289-1.792-2.289c-0.929,0-1.649,0.656-1.889,1.44
			c-0.064,0.177-0.096,0.416-0.096,0.656v4.658H69.71V49.958z"/>
		<path fill="#221E1F" d="M81.838,53.912c0.624,0.384,1.537,0.704,2.497,0.704c1.424,0,2.257-0.753,2.257-1.841
			c0-1.009-0.576-1.585-2.033-2.145c-1.761-0.625-2.849-1.537-2.849-3.058c0-1.681,1.393-2.93,3.489-2.93
			c1.104,0,1.905,0.257,2.385,0.528L87.2,46.309c-0.352-0.192-1.073-0.512-2.049-0.512c-1.473,0-2.033,0.88-2.033,1.616
			c0,1.009,0.657,1.505,2.145,2.081c1.825,0.704,2.753,1.584,2.753,3.169c0,1.665-1.233,3.105-3.778,3.105
			c-1.041,0-2.177-0.305-2.753-0.688L81.838,53.912z"/>
		<path fill="#221E1F" d="M99.009,50.87c-0.08-1.504-0.176-3.313-0.16-4.657h-0.048c-0.368,1.265-0.816,2.608-1.36,4.098
			l-1.905,5.233h-1.057l-1.745-5.138c-0.512-1.521-0.944-2.913-1.249-4.193h-0.032c-0.032,1.345-0.112,3.153-0.208,4.77
			l-0.288,4.626h-1.329l0.752-10.788h1.777L94,50.038c0.448,1.328,0.816,2.513,1.088,3.634h0.048
			c0.272-1.089,0.656-2.273,1.137-3.634l1.92-5.218h1.777l0.672,10.788h-1.361L99.009,50.87z"/>
		<path fill="#221E1F" d="M102.59,53.912c0.624,0.384,1.537,0.704,2.497,0.704c1.424,0,2.257-0.753,2.257-1.841
			c0-1.009-0.576-1.585-2.033-2.145c-1.761-0.625-2.849-1.537-2.849-3.058c0-1.681,1.393-2.93,3.489-2.93
			c1.104,0,1.905,0.257,2.385,0.528l-0.384,1.137c-0.352-0.192-1.073-0.512-2.049-0.512c-1.473,0-2.033,0.88-2.033,1.616
			c0,1.009,0.657,1.505,2.145,2.081c1.825,0.704,2.753,1.584,2.753,3.169c0,1.665-1.233,3.105-3.778,3.105
			c-1.041,0-2.177-0.305-2.753-0.688L102.59,53.912z"/>
		<path fill="#221E1F" d="M118.303,55.608l-0.112-0.977h-0.048c-0.432,0.608-1.265,1.152-2.369,1.152
			c-1.569,0-2.369-1.104-2.369-2.225c0-1.873,1.665-2.897,4.658-2.881v-0.16c0-0.641-0.176-1.793-1.761-1.793
			c-0.72,0-1.473,0.225-2.017,0.576l-0.32-0.929c0.64-0.416,1.568-0.688,2.545-0.688c2.369,0,2.945,1.616,2.945,3.169v2.897
			c0,0.672,0.032,1.328,0.128,1.856h-1.28V55.608z M118.095,51.655c-1.537-0.032-3.281,0.239-3.281,1.744
			c0,0.912,0.608,1.345,1.329,1.345c1.008,0,1.648-0.641,1.873-1.297c0.048-0.144,0.08-0.304,0.08-0.448v-1.344H118.095z"/>
		<path fill="#221E1F" d="M121.725,44.244h1.409v11.364h-1.409V44.244z"/>
		<path fill="#221E1F" d="M134.416,55.32c-0.368,0.192-1.185,0.448-2.225,0.448c-2.337,0-3.857-1.585-3.857-3.954
			c0-2.385,1.632-4.113,4.162-4.113c0.832,0,1.568,0.208,1.953,0.4l-0.32,1.088c-0.336-0.191-0.864-0.368-1.632-0.368
			c-1.777,0-2.737,1.313-2.737,2.93c0,1.793,1.152,2.897,2.689,2.897c0.801,0,1.329-0.209,1.729-0.385L134.416,55.32z"/>
		<path fill="#221E1F" d="M136.75,51.991c0.032,1.904,1.249,2.688,2.657,2.688c1.008,0,1.617-0.176,2.145-0.399l0.24,1.008
			c-0.496,0.225-1.344,0.48-2.577,0.48c-2.385,0-3.81-1.568-3.81-3.905s1.376-4.178,3.633-4.178c2.529,0,3.201,2.225,3.201,3.649
			c0,0.288-0.032,0.512-0.048,0.656h-5.441V51.991z M140.879,50.982c0.016-0.896-0.368-2.289-1.953-2.289
			c-1.425,0-2.049,1.313-2.161,2.289H140.879z"/>
		<path fill="#221E1F" d="M143.981,44.244h1.409v11.364h-1.409V44.244z"/>
		<path fill="#221E1F" d="M154.239,53.495c0,0.801,0.016,1.505,0.064,2.113h-1.249l-0.08-1.265h-0.032
			c-0.368,0.624-1.185,1.44-2.561,1.44c-1.216,0-2.673-0.672-2.673-3.394V47.86h1.408v4.29c0,1.473,0.448,2.465,1.729,2.465
			c0.944,0,1.601-0.656,1.856-1.28c0.08-0.209,0.128-0.465,0.128-0.721V47.86h1.408v5.635H154.239z"/>
		<path fill="#221E1F" d="M156.573,44.244h1.409v11.364h-1.409V44.244z"/>
		<path fill="#221E1F" d="M164.638,55.608l-0.112-0.977h-0.048c-0.433,0.608-1.265,1.152-2.369,1.152
			c-1.569,0-2.369-1.104-2.369-2.225c0-1.873,1.665-2.897,4.658-2.881v-0.16c0-0.641-0.176-1.793-1.761-1.793
			c-0.72,0-1.473,0.225-2.017,0.576l-0.32-0.929c0.64-0.416,1.568-0.688,2.545-0.688c2.369,0,2.945,1.616,2.945,3.169v2.897
			c0,0.672,0.032,1.328,0.128,1.856h-1.28V55.608z M164.43,51.655c-1.537-0.032-3.281,0.239-3.281,1.744
			c0,0.912,0.608,1.345,1.329,1.345c1.008,0,1.648-0.641,1.873-1.297c0.048-0.144,0.08-0.304,0.08-0.448L164.43,51.655
			L164.43,51.655z"/>
		<path fill="#221E1F" d="M168.061,50.278c0-0.912-0.016-1.696-0.064-2.417h1.232l0.048,1.521h0.064
			c0.352-1.04,1.2-1.696,2.145-1.696c0.16,0,0.272,0.016,0.4,0.048v1.328c-0.144-0.032-0.288-0.048-0.48-0.048
			c-0.992,0-1.697,0.752-1.889,1.809c-0.032,0.192-0.064,0.416-0.064,0.656v4.13h-1.393v-5.331H168.061z"/>
		<path fill="#221E1F" d="M174.381,52.551l-0.032-0.416c-0.096-0.864,0.192-1.809,0.992-2.769c0.72-0.849,1.121-1.473,1.121-2.193
			c0-0.816-0.512-1.36-1.521-1.376c-0.577,0-1.217,0.191-1.617,0.496l-0.384-1.009c0.528-0.384,1.44-0.641,2.289-0.641
			c1.84,0,2.673,1.137,2.673,2.354c0,1.088-0.608,1.873-1.376,2.785c-0.705,0.832-0.96,1.536-0.913,2.353l0.016,0.416H174.381z
			 M174.029,54.792c0-0.592,0.4-1.009,0.96-1.009c0.56,0,0.944,0.417,0.944,1.009c0,0.561-0.368,0.992-0.96,0.992
			C174.413,55.784,174.029,55.353,174.029,54.792z"/>
	</g>
</g>
</svg>
