<!-- Generator: Adobe Illustrator 17.0.0, SVG Export Plug-In  -->
<svg version="1.1"
	 xmlns="http://www.w3.org/2000/svg" xmlns:xlink="http://www.w3.org/1999/xlink" xmlns:a="http://ns.adobe.com/AdobeSVGViewerExtensions/3.0/"
	 x="0px" y="0px" width="289.091px" height="112.917px" viewBox="0 0 289.091 112.917" enable-background="new 0 0 289.091 112.917"
	 xml:space="preserve">
<defs>
</defs>
<polygon fill="#F1F1F1" stroke="#000000" stroke-width="2" stroke-linecap="round" stroke-linejoin="round" stroke-miterlimit="10" points="
	288.091,1 1,1 1,75.406 216.987,75.406 216.987,111.917 253.5,75.406 288.091,75.406 "/>
<g>
	<g>
		<path fill="#221E1F" d="M16.9,12.949c0.672-0.112,1.553-0.208,2.673-0.208c1.376,0,2.385,0.32,3.025,0.896
			c0.592,0.512,0.945,1.296,0.945,2.257c0,0.977-0.288,1.744-0.833,2.305c-0.736,0.784-1.937,1.185-3.297,1.185
			c-0.416,0-0.8-0.017-1.121-0.096v4.321H16.9V12.949z M18.293,18.151c0.304,0.08,0.688,0.112,1.153,0.112
			c1.681,0,2.705-0.816,2.705-2.306c0-1.424-1.009-2.112-2.545-2.112c-0.608,0-1.072,0.048-1.313,0.111V18.151z"/>
		<path fill="#221E1F" d="M31.976,19.671c0,2.865-1.985,4.113-3.857,4.113c-2.097,0-3.713-1.536-3.713-3.985
			c0-2.593,1.697-4.113,3.841-4.113C30.471,15.686,31.976,17.302,31.976,19.671z M25.829,19.751c0,1.696,0.977,2.978,2.353,2.978
			c1.345,0,2.353-1.265,2.353-3.01c0-1.313-0.656-2.978-2.321-2.978C26.549,16.742,25.829,18.279,25.829,19.751z"/>
		<path fill="#221E1F" d="M40.44,12.245v9.363c0,0.688,0.016,1.473,0.064,2.001h-1.265l-0.064-1.345h-0.032
			c-0.432,0.864-1.376,1.521-2.641,1.521c-1.873,0-3.313-1.584-3.313-3.938c-0.016-2.577,1.584-4.161,3.473-4.161
			c1.185,0,1.985,0.56,2.337,1.185h0.032v-4.626H40.44z M39.031,19.015c0-0.176-0.016-0.416-0.064-0.593
			c-0.208-0.896-0.977-1.632-2.033-1.632c-1.457,0-2.321,1.28-2.321,2.993c0,1.568,0.769,2.865,2.289,2.865
			c0.944,0,1.809-0.625,2.065-1.681c0.048-0.192,0.064-0.385,0.064-0.608V19.015z"/>
		<path fill="#221E1F" d="M43.557,19.992c0.032,1.904,1.249,2.688,2.657,2.688c1.008,0,1.617-0.176,2.145-0.399l0.24,1.008
			c-0.496,0.225-1.344,0.48-2.577,0.48c-2.385,0-3.81-1.568-3.81-3.905s1.376-4.178,3.633-4.178c2.529,0,3.201,2.225,3.201,3.649
			c0,0.288-0.032,0.512-0.048,0.656H43.557z M47.687,18.983c0.016-0.896-0.368-2.289-1.953-2.289c-1.425,0-2.049,1.313-2.161,2.289
			H47.687z"/>
		<path fill="#221E1F" d="M50.789,17.958c0-0.8-0.016-1.456-0.064-2.097h1.232l0.064,1.248h0.048
			c0.432-0.736,1.152-1.424,2.433-1.424c1.057,0,1.857,0.64,2.193,1.553h0.032c0.24-0.433,0.544-0.769,0.864-1.009
			c0.464-0.353,0.977-0.544,1.713-0.544c1.024,0,2.545,0.672,2.545,3.361v4.562h-1.376v-4.386c0-1.488-0.544-2.385-1.681-2.385
			c-0.8,0-1.425,0.592-1.665,1.28c-0.064,0.192-0.112,0.448-0.112,0.704v4.786h-1.376v-4.642c0-1.232-0.544-2.129-1.617-2.129
			c-0.88,0-1.521,0.704-1.745,1.408c-0.08,0.208-0.112,0.448-0.112,0.688v4.674h-1.376V17.958z"/>
		<path fill="#221E1F" d="M71.144,19.671c0,2.865-1.985,4.113-3.857,4.113c-2.097,0-3.713-1.536-3.713-3.985
			c0-2.593,1.697-4.113,3.841-4.113C69.639,15.686,71.144,17.302,71.144,19.671z M64.997,19.751c0,1.696,0.977,2.978,2.353,2.978
			c1.345,0,2.353-1.265,2.353-3.01c0-1.313-0.656-2.978-2.321-2.978C65.717,16.742,64.997,18.279,64.997,19.751z"/>
		<path fill="#221E1F" d="M72.725,22.168c0.416,0.271,1.152,0.561,1.856,0.561c1.024,0,1.505-0.513,1.505-1.153
			c0-0.672-0.4-1.04-1.441-1.424c-1.393-0.496-2.049-1.265-2.049-2.193c0-1.248,1.009-2.272,2.673-2.272
			c0.784,0,1.473,0.224,1.905,0.479l-0.352,1.024c-0.304-0.191-0.865-0.448-1.585-0.448c-0.832,0-1.296,0.48-1.296,1.057
			c0,0.641,0.464,0.929,1.473,1.313c1.345,0.513,2.033,1.185,2.033,2.337c0,1.36-1.056,2.321-2.897,2.321
			c-0.849,0-1.633-0.208-2.177-0.528L72.725,22.168z"/>
		<path fill="#221E1F" d="M89.335,12.245v9.363c0,0.688,0.016,1.473,0.064,2.001h-1.265l-0.064-1.345h-0.032
			c-0.432,0.864-1.376,1.521-2.641,1.521c-1.873,0-3.313-1.584-3.313-3.938c-0.016-2.577,1.584-4.161,3.473-4.161
			c1.185,0,1.985,0.56,2.337,1.185h0.032v-4.626H89.335z M87.927,19.015c0-0.176-0.016-0.416-0.064-0.593
			c-0.208-0.896-0.977-1.632-2.033-1.632c-1.457,0-2.321,1.28-2.321,2.993c0,1.568,0.769,2.865,2.289,2.865
			c0.944,0,1.809-0.625,2.065-1.681c0.048-0.192,0.064-0.385,0.064-0.608V19.015z"/>
		<path fill="#221E1F" d="M93.237,13.685c0.016,0.48-0.336,0.864-0.896,0.864c-0.496,0-0.849-0.384-0.849-0.864
			c0-0.496,0.368-0.881,0.88-0.881C92.901,12.804,93.237,13.189,93.237,13.685z M91.668,23.609v-7.747h1.409v7.747H91.668z"/>
		<path fill="#221E1F" d="M95.22,22.168c0.416,0.271,1.152,0.561,1.856,0.561c1.024,0,1.505-0.513,1.505-1.153
			c0-0.672-0.4-1.04-1.441-1.424c-1.393-0.496-2.049-1.265-2.049-2.193c0-1.248,1.009-2.272,2.673-2.272
			c0.784,0,1.473,0.224,1.905,0.479l-0.352,1.024c-0.304-0.191-0.865-0.448-1.585-0.448c-0.832,0-1.296,0.48-1.296,1.057
			c0,0.641,0.464,0.929,1.473,1.313c1.345,0.513,2.033,1.185,2.033,2.337c0,1.36-1.056,2.321-2.897,2.321
			c-0.849,0-1.633-0.208-2.177-0.528L95.22,22.168z"/>
		<path fill="#221E1F" d="M102.532,19.992c0.032,1.904,1.249,2.688,2.657,2.688c1.008,0,1.617-0.176,2.145-0.399l0.24,1.008
			c-0.496,0.225-1.344,0.48-2.577,0.48c-2.385,0-3.81-1.568-3.81-3.905s1.376-4.178,3.633-4.178c2.529,0,3.201,2.225,3.201,3.649
			c0,0.288-0.032,0.512-0.048,0.656H102.532z M106.662,18.983c0.016-0.896-0.368-2.289-1.953-2.289
			c-1.425,0-2.049,1.313-2.161,2.289H106.662z"/>
		<path fill="#221E1F" d="M109.764,17.958c0-0.8-0.016-1.456-0.064-2.097h1.249l0.08,1.28h0.032
			c0.384-0.736,1.281-1.456,2.561-1.456c1.073,0,2.737,0.64,2.737,3.297v4.626h-1.409v-4.466c0-1.248-0.464-2.289-1.792-2.289
			c-0.929,0-1.649,0.656-1.889,1.44c-0.064,0.177-0.096,0.416-0.096,0.656v4.658h-1.409V17.958z M111.076,14.534
			c-0.032-1.041,0.4-1.665,1.088-1.665c0.352,0,0.625,0.144,0.993,0.352c0.256,0.145,0.48,0.272,0.672,0.272
			c0.256,0,0.417-0.144,0.448-0.688h0.752c0.016,1.072-0.352,1.617-1.104,1.617c-0.336,0-0.64-0.145-0.976-0.32
			c-0.32-0.192-0.497-0.288-0.688-0.288c-0.256,0-0.384,0.272-0.416,0.721H111.076z"/>
		<path fill="#221E1F" d="M122.933,23.609l-0.112-0.977h-0.048c-0.433,0.608-1.265,1.152-2.369,1.152
			c-1.569,0-2.369-1.104-2.369-2.225c0-1.873,1.665-2.897,4.658-2.881v-0.16c0-0.641-0.176-1.793-1.761-1.793
			c-0.72,0-1.473,0.225-2.017,0.576l-0.32-0.929c0.64-0.416,1.568-0.688,2.545-0.688c2.369,0,2.945,1.616,2.945,3.169v2.897
			c0,0.672,0.032,1.328,0.128,1.856H122.933z M122.725,19.656c-1.537-0.032-3.281,0.239-3.281,1.744
			c0,0.912,0.608,1.345,1.329,1.345c1.008,0,1.648-0.641,1.873-1.297c0.048-0.144,0.08-0.304,0.08-0.448V19.656z"/>
		<path fill="#221E1F" d="M126.355,18.279c0-0.912-0.016-1.696-0.064-2.417h1.232l0.048,1.521h0.064
			c0.352-1.04,1.2-1.696,2.145-1.696c0.16,0,0.272,0.016,0.4,0.048v1.328c-0.144-0.032-0.288-0.048-0.48-0.048
			c-0.992,0-1.697,0.752-1.889,1.809c-0.032,0.192-0.064,0.416-0.064,0.656v4.13h-1.393V18.279z"/>
		<path fill="#221E1F" d="M141.462,21.496c0,0.801,0.016,1.505,0.064,2.113h-1.249l-0.08-1.265h-0.032
			c-0.368,0.624-1.185,1.44-2.561,1.44c-1.216,0-2.673-0.672-2.673-3.394v-4.529h1.408v4.29c0,1.473,0.448,2.465,1.729,2.465
			c0.944,0,1.601-0.656,1.856-1.28c0.08-0.209,0.128-0.465,0.128-0.721v-4.754h1.408V21.496z"/>
		<path fill="#221E1F" d="M143.795,17.958c0-0.8-0.016-1.456-0.064-2.097h1.249l0.08,1.28h0.032
			c0.384-0.736,1.281-1.456,2.561-1.456c1.073,0,2.737,0.64,2.737,3.297v4.626h-1.409v-4.466c0-1.248-0.464-2.289-1.792-2.289
			c-0.929,0-1.649,0.656-1.889,1.44c-0.064,0.177-0.096,0.416-0.096,0.656v4.658h-1.409V17.958z"/>
		<path fill="#221E1F" d="M155.875,22.168c0.416,0.271,1.152,0.561,1.856,0.561c1.024,0,1.505-0.513,1.505-1.153
			c0-0.672-0.4-1.04-1.441-1.424c-1.393-0.496-2.049-1.265-2.049-2.193c0-1.248,1.009-2.272,2.673-2.272
			c0.784,0,1.473,0.224,1.905,0.479l-0.352,1.024c-0.304-0.191-0.865-0.448-1.585-0.448c-0.832,0-1.296,0.48-1.296,1.057
			c0,0.641,0.464,0.929,1.473,1.313c1.345,0.513,2.033,1.185,2.033,2.337c0,1.36-1.056,2.321-2.897,2.321
			c-0.849,0-1.633-0.208-2.177-0.528L155.875,22.168z"/>
		<path fill="#221E1F" d="M163.972,13.685c0.016,0.48-0.336,0.864-0.896,0.864c-0.496,0-0.849-0.384-0.849-0.864
			c0-0.496,0.368-0.881,0.88-0.881C163.636,12.804,163.972,13.189,163.972,13.685z M162.403,23.609v-7.747h1.409v7.747H162.403z"/>
		<path fill="#221E1F" d="M165.956,22.168c0.416,0.271,1.152,0.561,1.856,0.561c1.024,0,1.505-0.513,1.505-1.153
			c0-0.672-0.4-1.04-1.441-1.424c-1.393-0.496-2.049-1.265-2.049-2.193c0-1.248,1.009-2.272,2.673-2.272
			c0.784,0,1.473,0.224,1.905,0.479l-0.352,1.024c-0.304-0.191-0.865-0.448-1.585-0.448c-0.832,0-1.296,0.48-1.296,1.057
			c0,0.641,0.464,0.929,1.473,1.313c1.345,0.513,2.033,1.185,2.033,2.337c0,1.36-1.056,2.321-2.897,2.321
			c-0.849,0-1.633-0.208-2.177-0.528L165.956,22.168z"/>
		<path fill="#221E1F" d="M174.18,13.637v2.225h2.017v1.072h-2.017v4.178c0,0.96,0.272,1.505,1.056,1.505
			c0.368,0,0.641-0.048,0.816-0.097l0.064,1.057c-0.272,0.112-0.704,0.192-1.249,0.192c-0.656,0-1.184-0.208-1.521-0.593
			c-0.4-0.416-0.544-1.104-0.544-2.017v-4.226h-1.201v-1.072h1.201v-1.856L174.18,13.637z"/>
		<path fill="#221E1F" d="M178.467,19.992c0.032,1.904,1.249,2.688,2.657,2.688c1.008,0,1.617-0.176,2.145-0.399l0.24,1.008
			c-0.496,0.225-1.344,0.48-2.577,0.48c-2.385,0-3.81-1.568-3.81-3.905s1.376-4.178,3.633-4.178c2.529,0,3.201,2.225,3.201,3.649
			c0,0.288-0.032,0.512-0.048,0.656H178.467z M182.597,18.983c0.016-0.896-0.368-2.289-1.953-2.289
			c-1.425,0-2.049,1.313-2.161,2.289H182.597z"/>
		<path fill="#221E1F" d="M185.699,17.958c0-0.8-0.016-1.456-0.064-2.097h1.232l0.064,1.248h0.048
			c0.432-0.736,1.152-1.424,2.433-1.424c1.057,0,1.857,0.64,2.193,1.553h0.032c0.24-0.433,0.544-0.769,0.864-1.009
			c0.464-0.353,0.977-0.544,1.713-0.544c1.024,0,2.545,0.672,2.545,3.361v4.562h-1.376v-4.386c0-1.488-0.544-2.385-1.681-2.385
			c-0.8,0-1.425,0.592-1.665,1.28c-0.064,0.192-0.112,0.448-0.112,0.704v4.786h-1.376v-4.642c0-1.232-0.544-2.129-1.617-2.129
			c-0.88,0-1.521,0.704-1.745,1.408c-0.08,0.208-0.112,0.448-0.112,0.688v4.674h-1.376V17.958z"/>
		<path fill="#221E1F" d="M203.332,23.609l-0.112-0.977h-0.048c-0.432,0.608-1.265,1.152-2.369,1.152
			c-1.569,0-2.369-1.104-2.369-2.225c0-1.873,1.665-2.897,4.658-2.881v-0.16c0-0.641-0.176-1.793-1.761-1.793
			c-0.72,0-1.473,0.225-2.017,0.576l-0.32-0.929c0.64-0.416,1.568-0.688,2.545-0.688c2.369,0,2.945,1.616,2.945,3.169v2.897
			c0,0.672,0.032,1.328,0.128,1.856H203.332z M203.124,19.656c-1.537-0.032-3.281,0.239-3.281,1.744
			c0,0.912,0.608,1.345,1.329,1.345c1.008,0,1.648-0.641,1.873-1.297c0.048-0.144,0.08-0.304,0.08-0.448V19.656z"/>
		<path fill="#221E1F" d="M215.428,22.409h-0.032c-0.416,0.768-1.28,1.376-2.529,1.376c-1.809,0-3.281-1.568-3.281-3.921
			c0-2.897,1.873-4.178,3.505-4.178c1.2,0,2,0.592,2.385,1.344h0.032l0.048-1.168h1.329c-0.032,0.656-0.048,1.328-0.048,2.129v8.787
			h-1.409V22.409z M215.428,18.999c0-0.192-0.016-0.417-0.064-0.593c-0.208-0.864-0.96-1.601-2.017-1.601
			c-1.457,0-2.337,1.232-2.337,2.978c0,1.536,0.736,2.881,2.289,2.881c0.912,0,1.697-0.561,2.017-1.537
			c0.064-0.191,0.112-0.464,0.112-0.672V18.999z"/>
		<path fill="#221E1F" d="M225.636,21.496c0,0.801,0.016,1.505,0.064,2.113h-1.249l-0.08-1.265h-0.032
			c-0.368,0.624-1.185,1.44-2.561,1.44c-1.216,0-2.673-0.672-2.673-3.394v-4.529h1.408v4.29c0,1.473,0.448,2.465,1.729,2.465
			c0.944,0,1.601-0.656,1.856-1.28c0.08-0.209,0.128-0.465,0.128-0.721v-4.754h1.408V21.496z"/>
		<path fill="#221E1F" d="M228.754,19.992c0.032,1.904,1.249,2.688,2.657,2.688c1.008,0,1.617-0.176,2.145-0.399l0.24,1.008
			c-0.496,0.225-1.344,0.48-2.577,0.48c-2.385,0-3.81-1.568-3.81-3.905s1.376-4.178,3.633-4.178c2.529,0,3.201,2.225,3.201,3.649
			c0,0.288-0.032,0.512-0.048,0.656H228.754z M232.884,18.983c0.016-0.896-0.368-2.289-1.953-2.289
			c-1.425,0-2.049,1.313-2.161,2.289H232.884z"/>
		<path fill="#221E1F" d="M241.074,13.637v2.225h2.017v1.072h-2.017v4.178c0,0.96,0.272,1.505,1.056,1.505
			c0.368,0,0.641-0.048,0.816-0.097l0.064,1.057c-0.272,0.112-0.704,0.192-1.249,0.192c-0.656,0-1.184-0.208-1.521-0.593
			c-0.4-0.416-0.544-1.104-0.544-2.017v-4.226h-1.201v-1.072h1.201v-1.856L241.074,13.637z"/>
		<path fill="#221E1F" d="M251.588,19.671c0,2.865-1.985,4.113-3.857,4.113c-2.097,0-3.713-1.536-3.713-3.985
			c0-2.593,1.696-4.113,3.841-4.113C250.084,15.686,251.588,17.302,251.588,19.671z M245.442,19.751
			c0,1.696,0.977,2.978,2.353,2.978c1.345,0,2.353-1.265,2.353-3.01c0-1.313-0.656-2.978-2.321-2.978
			C246.162,16.742,245.442,18.279,245.442,19.751z"/>
		<path fill="#221E1F" d="M253.362,17.958c0-0.8-0.016-1.456-0.064-2.097h1.232l0.064,1.248h0.048
			c0.432-0.736,1.152-1.424,2.433-1.424c1.057,0,1.857,0.64,2.193,1.553h0.032c0.24-0.433,0.544-0.769,0.864-1.009
			c0.464-0.353,0.977-0.544,1.713-0.544c1.024,0,2.545,0.672,2.545,3.361v4.562h-1.376v-4.386c0-1.488-0.544-2.385-1.681-2.385
			c-0.8,0-1.425,0.592-1.665,1.28c-0.064,0.192-0.112,0.448-0.112,0.704v4.786h-1.376v-4.642c0-1.232-0.544-2.129-1.617-2.129
			c-0.88,0-1.521,0.704-1.745,1.408c-0.08,0.208-0.112,0.448-0.112,0.688v4.674h-1.376V17.958z"/>
		<path fill="#221E1F" d="M267.49,19.992c0.032,1.904,1.249,2.688,2.657,2.688c1.008,0,1.617-0.176,2.145-0.399l0.24,1.008
			c-0.496,0.225-1.344,0.48-2.577,0.48c-2.385,0-3.81-1.568-3.81-3.905s1.376-4.178,3.633-4.178c2.529,0,3.201,2.225,3.201,3.649
			c0,0.288-0.032,0.512-0.048,0.656H267.49z M271.62,18.983c0.016-0.896-0.368-2.289-1.953-2.289c-1.425,0-2.049,1.313-2.161,2.289
			H271.62z"/>
		<path fill="#221E1F" d="M7.589,34.391c0-0.993-0.032-1.793-0.064-2.529H8.79l0.064,1.328h0.032
			c0.576-0.944,1.489-1.504,2.753-1.504c1.873,0,3.281,1.584,3.281,3.937c0,2.785-1.697,4.161-3.521,4.161
			c-1.024,0-1.921-0.448-2.385-1.216H8.982v4.209H7.589V34.391z M8.982,36.456c0,0.208,0.032,0.4,0.064,0.576
			c0.256,0.977,1.104,1.648,2.113,1.648c1.489,0,2.353-1.216,2.353-2.993c0-1.553-0.816-2.881-2.305-2.881
			c-0.96,0-1.857,0.688-2.129,1.745c-0.048,0.176-0.096,0.384-0.096,0.576V36.456z"/>
		<path fill="#221E1F" d="M23.704,35.671c0,2.865-1.985,4.113-3.857,4.113c-2.097,0-3.713-1.536-3.713-3.985
			c0-2.593,1.696-4.113,3.841-4.113C22.199,31.686,23.704,33.302,23.704,35.671z M17.557,35.751c0,1.696,0.977,2.978,2.353,2.978
			c1.345,0,2.353-1.265,2.353-3.01c0-1.313-0.656-2.978-2.321-2.978C18.277,32.742,17.557,34.279,17.557,35.751z"/>
		<path fill="#221E1F" d="M25.477,34.279c0-0.912-0.016-1.696-0.064-2.417h1.232l0.048,1.521h0.064
			c0.352-1.04,1.2-1.696,2.145-1.696c0.16,0,0.272,0.016,0.4,0.048v1.328c-0.144-0.032-0.288-0.048-0.48-0.048
			c-0.992,0-1.696,0.752-1.889,1.809c-0.032,0.192-0.064,0.416-0.064,0.656v4.13h-1.393V34.279z"/>
		<path fill="#221E1F" d="M34.885,35.992c0.032,1.904,1.249,2.688,2.657,2.688c1.008,0,1.617-0.176,2.145-0.399l0.24,1.008
			c-0.496,0.225-1.344,0.48-2.577,0.48c-2.385,0-3.81-1.568-3.81-3.905s1.376-4.178,3.633-4.178c2.529,0,3.201,2.225,3.201,3.649
			c0,0.288-0.032,0.512-0.048,0.656H34.885z M39.015,34.983c0.016-0.896-0.368-2.289-1.953-2.289c-1.425,0-2.049,1.313-2.161,2.289
			H39.015z"/>
		<path fill="#221E1F" d="M42.117,33.958c0-0.8-0.016-1.456-0.064-2.097h1.249l0.08,1.28h0.032c0.384-0.736,1.281-1.456,2.561-1.456
			c1.073,0,2.737,0.64,2.737,3.297v4.626h-1.409v-4.466c0-1.248-0.464-2.289-1.792-2.289c-0.929,0-1.649,0.656-1.889,1.44
			c-0.064,0.177-0.096,0.416-0.096,0.656v4.658h-1.409V33.958z"/>
		<path fill="#221E1F" d="M52.629,29.637v2.225h2.017v1.072h-2.017v4.178c0,0.96,0.272,1.505,1.056,1.505
			c0.368,0,0.641-0.048,0.816-0.097l0.064,1.057c-0.272,0.112-0.704,0.192-1.249,0.192c-0.656,0-1.184-0.208-1.521-0.593
			c-0.4-0.416-0.544-1.104-0.544-2.017v-4.226h-1.201v-1.072h1.201v-1.856L52.629,29.637z"/>
		<path fill="#221E1F" d="M56.229,34.279c0-0.912-0.016-1.696-0.064-2.417h1.232l0.048,1.521h0.064
			c0.352-1.04,1.2-1.696,2.145-1.696c0.16,0,0.272,0.016,0.4,0.048v1.328c-0.144-0.032-0.288-0.048-0.48-0.048
			c-0.992,0-1.697,0.752-1.889,1.809c-0.032,0.192-0.064,0.416-0.064,0.656v4.13h-1.393V34.279z"/>
		<path fill="#221E1F" d="M65.67,39.609l-0.112-0.977H65.51c-0.432,0.608-1.265,1.152-2.369,1.152c-1.569,0-2.369-1.104-2.369-2.225
			c0-1.873,1.665-2.897,4.658-2.881v-0.16c0-0.641-0.176-1.793-1.761-1.793c-0.72,0-1.473,0.225-2.017,0.576l-0.32-0.929
			c0.64-0.416,1.568-0.687,2.545-0.687c2.369,0,2.945,1.616,2.945,3.169v2.897c0,0.672,0.032,1.328,0.128,1.856H65.67z
			 M65.462,35.656c-1.537-0.032-3.281,0.239-3.281,1.744c0,0.912,0.608,1.345,1.329,1.345c1.008,0,1.648-0.641,1.873-1.297
			c0.048-0.144,0.08-0.304,0.08-0.448V35.656z"/>
		<path fill="#221E1F" d="M75.783,28.245v9.363c0,0.688,0.016,1.473,0.064,2.001h-1.265l-0.064-1.345h-0.032
			c-0.432,0.864-1.376,1.521-2.641,1.521c-1.873,0-3.313-1.584-3.313-3.938c-0.016-2.577,1.584-4.161,3.473-4.161
			c1.185,0,1.985,0.56,2.337,1.185h0.032v-4.626H75.783z M74.375,35.015c0-0.176-0.016-0.416-0.064-0.593
			c-0.208-0.896-0.977-1.632-2.033-1.632c-1.457,0-2.321,1.28-2.321,2.993c0,1.568,0.769,2.865,2.289,2.865
			c0.944,0,1.809-0.625,2.065-1.681c0.048-0.192,0.064-0.385,0.064-0.608V35.015z"/>
		<path fill="#221E1F" d="M82.406,39.609l-0.112-0.977h-0.048c-0.432,0.608-1.265,1.152-2.369,1.152
			c-1.569,0-2.369-1.104-2.369-2.225c0-1.873,1.665-2.897,4.658-2.881v-0.16c0-0.641-0.176-1.793-1.761-1.793
			c-0.72,0-1.473,0.225-2.017,0.576l-0.32-0.929c0.64-0.416,1.568-0.687,2.545-0.687c2.369,0,2.945,1.616,2.945,3.169v2.897
			c0,0.672,0.032,1.328,0.128,1.856H82.406z M82.198,35.656c-1.537-0.032-3.281,0.239-3.281,1.744c0,0.912,0.608,1.345,1.329,1.345
			c1.008,0,1.648-0.641,1.873-1.297c0.048-0.144,0.08-0.304,0.08-0.448V35.656z"/>
		<path fill="#221E1F" d="M89.22,28.245h1.409v11.364H89.22V28.245z"/>
		<path fill="#221E1F" d="M100.006,35.671c0,2.865-1.985,4.113-3.857,4.113c-2.097,0-3.713-1.536-3.713-3.985
			c0-2.593,1.696-4.113,3.841-4.113C98.502,31.686,100.006,33.302,100.006,35.671z M93.86,35.751c0,1.696,0.977,2.978,2.353,2.978
			c1.345,0,2.353-1.265,2.353-3.01c0-1.313-0.656-2.978-2.321-2.978C94.58,32.742,93.86,34.279,93.86,35.751z"/>
		<path fill="#221E1F" d="M101.588,38.168c0.416,0.271,1.152,0.561,1.856,0.561c1.024,0,1.505-0.513,1.505-1.153
			c0-0.672-0.4-1.04-1.441-1.424c-1.393-0.496-2.049-1.265-2.049-2.193c0-1.248,1.009-2.272,2.673-2.272
			c0.784,0,1.473,0.224,1.905,0.479l-0.352,1.024c-0.304-0.191-0.865-0.448-1.585-0.448c-0.832,0-1.296,0.48-1.296,1.057
			c0,0.641,0.464,0.929,1.473,1.313c1.345,0.513,2.033,1.185,2.033,2.337c0,1.36-1.056,2.321-2.897,2.321
			c-0.849,0-1.633-0.208-2.177-0.528L101.588,38.168z"/>
		<path fill="#221E1F" d="M113.204,29.637v2.225h2.017v1.072h-2.017v4.178c0,0.96,0.272,1.505,1.056,1.505
			c0.368,0,0.641-0.048,0.816-0.097l0.064,1.057c-0.272,0.112-0.704,0.192-1.249,0.192c-0.656,0-1.184-0.208-1.521-0.593
			c-0.4-0.416-0.544-1.104-0.544-2.017v-4.226h-1.201v-1.072h1.201v-1.856L113.204,29.637z"/>
		<path fill="#221E1F" d="M117.491,35.992c0.032,1.904,1.249,2.688,2.657,2.688c1.008,0,1.617-0.176,2.145-0.399l0.24,1.008
			c-0.496,0.225-1.344,0.48-2.577,0.48c-2.385,0-3.81-1.568-3.81-3.905s1.376-4.178,3.633-4.178c2.529,0,3.201,2.225,3.201,3.649
			c0,0.288-0.032,0.512-0.048,0.656H117.491z M121.621,34.983c0.016-0.896-0.368-2.289-1.953-2.289
			c-1.425,0-2.049,1.313-2.161,2.289H121.621z"/>
		<path fill="#221E1F" d="M124.723,28.245h1.409v11.364h-1.409V28.245z"/>
		<path fill="#221E1F" d="M129.283,35.992c0.032,1.904,1.249,2.688,2.657,2.688c1.008,0,1.617-0.176,2.145-0.399l0.24,1.008
			c-0.496,0.225-1.344,0.48-2.577,0.48c-2.385,0-3.81-1.568-3.81-3.905s1.376-4.178,3.633-4.178c2.529,0,3.201,2.225,3.201,3.649
			c0,0.288-0.032,0.512-0.048,0.656H129.283z M133.413,34.983c0.016-0.896-0.368-2.289-1.953-2.289
			c-1.425,0-2.049,1.313-2.161,2.289H133.413z M133.749,28.516l-1.953,2.289h-1.008l1.409-2.289H133.749z"/>
		<path fill="#221E1F" d="M136.659,39.609v-6.675h-1.088v-1.072h1.088v-0.368c0-1.089,0.24-2.081,0.896-2.705
			c0.528-0.513,1.232-0.721,1.889-0.721c0.496,0,0.928,0.112,1.201,0.225l-0.192,1.088c-0.208-0.096-0.496-0.176-0.896-0.176
			c-1.2,0-1.504,1.057-1.504,2.241v0.416h1.873v1.072h-1.873v6.675H136.659z"/>
		<path fill="#221E1F" d="M147.99,35.671c0,2.865-1.985,4.113-3.857,4.113c-2.097,0-3.713-1.536-3.713-3.985
			c0-2.593,1.696-4.113,3.841-4.113C146.485,31.686,147.99,33.302,147.99,35.671z M141.843,35.751c0,1.696,0.977,2.978,2.353,2.978
			c1.345,0,2.353-1.265,2.353-3.01c0-1.313-0.656-2.978-2.321-2.978C142.563,32.742,141.843,34.279,141.843,35.751z"/>
		<path fill="#221E1F" d="M149.763,33.958c0-0.8-0.016-1.456-0.064-2.097h1.249l0.08,1.28h0.032
			c0.384-0.736,1.281-1.456,2.561-1.456c1.073,0,2.737,0.64,2.737,3.297v4.626h-1.409v-4.466c0-1.248-0.464-2.289-1.792-2.289
			c-0.929,0-1.649,0.656-1.889,1.44c-0.064,0.177-0.096,0.416-0.096,0.656v4.658h-1.409V33.958z"/>
		<path fill="#221E1F" d="M165.654,35.671c0,2.865-1.985,4.113-3.857,4.113c-2.097,0-3.713-1.536-3.713-3.985
			c0-2.593,1.696-4.113,3.841-4.113C164.149,31.686,165.654,33.302,165.654,35.671z M159.507,35.751
			c0,1.696,0.977,2.978,2.353,2.978c1.345,0,2.353-1.265,2.353-3.01c0-1.313-0.656-2.978-2.321-2.978
			C160.228,32.742,159.507,34.279,159.507,35.751z"/>
		<path fill="#221E1F" d="M167.235,38.168c0.416,0.271,1.152,0.561,1.856,0.561c1.024,0,1.505-0.513,1.505-1.153
			c0-0.672-0.4-1.04-1.441-1.424c-1.393-0.496-2.049-1.265-2.049-2.193c0-1.248,1.009-2.272,2.673-2.272
			c0.784,0,1.473,0.224,1.905,0.479l-0.352,1.024c-0.304-0.191-0.865-0.448-1.585-0.448c-0.832,0-1.296,0.48-1.296,1.057
			c0,0.641,0.464,0.929,1.473,1.313c1.345,0.513,2.033,1.185,2.033,2.337c0,1.36-1.056,2.321-2.897,2.321
			c-0.849,0-1.633-0.208-2.177-0.528L167.235,38.168z"/>
		<path fill="#221E1F" d="M183.846,28.245v9.363c0,0.688,0.016,1.473,0.064,2.001h-1.265l-0.064-1.345h-0.032
			c-0.432,0.864-1.376,1.521-2.641,1.521c-1.873,0-3.313-1.584-3.313-3.938c-0.016-2.577,1.584-4.161,3.473-4.161
			c1.185,0,1.985,0.56,2.337,1.185h0.032v-4.626H183.846z M182.437,35.015c0-0.176-0.016-0.416-0.064-0.593
			c-0.208-0.896-0.977-1.632-2.033-1.632c-1.457,0-2.321,1.28-2.321,2.993c0,1.568,0.769,2.865,2.289,2.865
			c0.944,0,1.809-0.625,2.065-1.681c0.048-0.192,0.064-0.385,0.064-0.608V35.015z"/>
		<path fill="#221E1F" d="M186.962,35.992c0.032,1.904,1.249,2.688,2.657,2.688c1.008,0,1.617-0.176,2.145-0.399l0.24,1.008
			c-0.496,0.225-1.344,0.48-2.577,0.48c-2.385,0-3.81-1.568-3.81-3.905s1.376-4.178,3.633-4.178c2.529,0,3.201,2.225,3.201,3.649
			c0,0.288-0.032,0.512-0.048,0.656H186.962z M191.092,34.983c0.016-0.896-0.368-2.289-1.953-2.289
			c-1.425,0-2.049,1.313-2.161,2.289H191.092z"/>
		<path fill="#221E1F" d="M197.586,28.245h1.409v11.364h-1.409V28.245z"/>
		<path fill="#221E1F" d="M208.373,35.671c0,2.865-1.985,4.113-3.857,4.113c-2.097,0-3.713-1.536-3.713-3.985
			c0-2.593,1.696-4.113,3.841-4.113C206.868,31.686,208.373,33.302,208.373,35.671z M202.226,35.751
			c0,1.696,0.977,2.978,2.353,2.978c1.345,0,2.353-1.265,2.353-3.01c0-1.313-0.656-2.978-2.321-2.978
			C202.946,32.742,202.226,34.279,202.226,35.751z"/>
		<path fill="#221E1F" d="M209.954,38.168c0.416,0.271,1.152,0.561,1.856,0.561c1.024,0,1.505-0.513,1.505-1.153
			c0-0.672-0.4-1.04-1.441-1.424c-1.393-0.496-2.049-1.265-2.049-2.193c0-1.248,1.009-2.272,2.673-2.272
			c0.784,0,1.473,0.224,1.905,0.479l-0.352,1.024c-0.304-0.191-0.865-0.448-1.585-0.448c-0.832,0-1.296,0.48-1.296,1.057
			c0,0.641,0.464,0.929,1.473,1.313c1.345,0.513,2.033,1.185,2.033,2.337c0,1.36-1.056,2.321-2.897,2.321
			c-0.849,0-1.633-0.208-2.177-0.528L209.954,38.168z"/>
		<path fill="#221E1F" d="M219.874,34.391c0-0.993-0.032-1.793-0.064-2.529h1.265l0.064,1.328h0.032
			c0.576-0.944,1.489-1.504,2.753-1.504c1.873,0,3.281,1.584,3.281,3.937c0,2.785-1.697,4.161-3.521,4.161
			c-1.024,0-1.921-0.448-2.385-1.216h-0.032v4.209h-1.393V34.391z M221.266,36.456c0,0.208,0.032,0.4,0.064,0.576
			c0.256,0.977,1.104,1.648,2.113,1.648c1.489,0,2.353-1.216,2.353-2.993c0-1.553-0.816-2.881-2.305-2.881
			c-0.96,0-1.857,0.688-2.129,1.745c-0.048,0.176-0.096,0.384-0.096,0.576V36.456z"/>
		<path fill="#221E1F" d="M233.267,39.609l-0.112-0.977h-0.048c-0.432,0.608-1.265,1.152-2.369,1.152
			c-1.569,0-2.369-1.104-2.369-2.225c0-1.873,1.665-2.897,4.658-2.881v-0.16c0-0.641-0.176-1.793-1.761-1.793
			c-0.72,0-1.473,0.225-2.017,0.576l-0.32-0.929c0.64-0.416,1.568-0.687,2.545-0.687c2.369,0,2.945,1.616,2.945,3.169v2.897
			c0,0.672,0.032,1.328,0.128,1.856H233.267z M233.059,35.656c-1.537-0.032-3.281,0.239-3.281,1.744
			c0,0.912,0.608,1.345,1.329,1.345c1.008,0,1.648-0.641,1.873-1.297c0.048-0.144,0.08-0.304,0.08-0.448V35.656z"/>
		<path fill="#221E1F" d="M242.211,39.321c-0.368,0.192-1.185,0.448-2.225,0.448c-2.337,0-3.857-1.585-3.857-3.954
			c0-2.385,1.632-4.113,4.162-4.113c0.832,0,1.568,0.208,1.953,0.4l-0.32,1.088c-0.336-0.191-0.864-0.368-1.632-0.368
			c-1.777,0-2.737,1.313-2.737,2.93c0,1.793,1.152,2.897,2.689,2.897c0.801,0,1.329-0.209,1.729-0.385L242.211,39.321z"/>
		<path fill="#221E1F" d="M245.426,29.685c0.016,0.48-0.336,0.864-0.896,0.864c-0.496,0-0.849-0.384-0.849-0.864
			c0-0.496,0.368-0.881,0.88-0.881C245.089,28.804,245.426,29.189,245.426,29.685z M243.857,39.609v-7.747h1.409v7.747H243.857z"/>
		<path fill="#221E1F" d="M248.385,35.992c0.032,1.904,1.249,2.688,2.657,2.688c1.008,0,1.617-0.176,2.145-0.399l0.24,1.008
			c-0.496,0.225-1.344,0.48-2.577,0.48c-2.385,0-3.81-1.568-3.81-3.905s1.376-4.178,3.633-4.178c2.529,0,3.201,2.225,3.201,3.649
			c0,0.288-0.032,0.512-0.048,0.656H248.385z M252.515,34.983c0.016-0.896-0.368-2.289-1.953-2.289
			c-1.425,0-2.049,1.313-2.161,2.289H252.515z"/>
		<path fill="#221E1F" d="M255.617,33.958c0-0.8-0.016-1.456-0.064-2.097h1.249l0.08,1.28h0.032
			c0.384-0.736,1.281-1.456,2.561-1.456c1.073,0,2.737,0.64,2.737,3.297v4.626h-1.409v-4.466c0-1.248-0.464-2.289-1.792-2.289
			c-0.929,0-1.649,0.656-1.889,1.44c-0.064,0.177-0.096,0.416-0.096,0.656v4.658h-1.409V33.958z"/>
		<path fill="#221E1F" d="M266.129,29.637v2.225h2.017v1.072h-2.017v4.178c0,0.96,0.272,1.505,1.056,1.505
			c0.368,0,0.641-0.048,0.816-0.097l0.064,1.057c-0.272,0.112-0.704,0.192-1.249,0.192c-0.656,0-1.184-0.208-1.521-0.593
			c-0.4-0.416-0.544-1.104-0.544-2.017v-4.226h-1.201v-1.072h1.201v-1.856L266.129,29.637z"/>
		<path fill="#221E1F" d="M270.417,35.992c0.032,1.904,1.249,2.688,2.657,2.688c1.008,0,1.617-0.176,2.145-0.399l0.24,1.008
			c-0.496,0.225-1.344,0.48-2.577,0.48c-2.385,0-3.81-1.568-3.81-3.905s1.376-4.178,3.633-4.178c2.529,0,3.201,2.225,3.201,3.649
			c0,0.288-0.032,0.512-0.048,0.656H270.417z M274.546,34.983c0.016-0.896-0.368-2.289-1.953-2.289
			c-1.425,0-2.049,1.313-2.161,2.289H274.546z"/>
		<path fill="#221E1F" d="M277.456,38.168c0.416,0.271,1.152,0.561,1.856,0.561c1.024,0,1.505-0.513,1.505-1.153
			c0-0.672-0.4-1.04-1.441-1.424c-1.393-0.496-2.049-1.265-2.049-2.193c0-1.248,1.009-2.272,2.673-2.272
			c0.784,0,1.473,0.224,1.905,0.479l-0.352,1.024c-0.304-0.191-0.865-0.448-1.585-0.448c-0.832,0-1.296,0.48-1.296,1.057
			c0,0.641,0.464,0.929,1.473,1.313c1.345,0.513,2.033,1.185,2.033,2.337c0,1.36-1.056,2.321-2.897,2.321
			c-0.849,0-1.633-0.208-2.177-0.528L277.456,38.168z"/>
		<path fill="#221E1F" d="M33.277,47.862l1.697,4.578c0.176,0.512,0.368,1.12,0.496,1.584h0.032
			c0.144-0.464,0.304-1.056,0.496-1.616l1.537-4.546h1.488l-2.113,5.522c-1.008,2.657-1.696,4.018-2.657,4.85
			c-0.688,0.608-1.377,0.849-1.729,0.912l-0.352-1.185c0.352-0.111,0.816-0.336,1.232-0.688c0.384-0.305,0.864-0.849,1.185-1.569
			c0.064-0.144,0.112-0.256,0.112-0.336S34.67,55.176,34.606,55l-2.865-7.139H33.277z"/>
		<path fill="#221E1F" d="M44.477,51.992c0.032,1.904,1.249,2.688,2.657,2.688c1.008,0,1.617-0.176,2.145-0.399l0.24,1.008
			c-0.496,0.225-1.344,0.48-2.577,0.48c-2.385,0-3.81-1.568-3.81-3.905s1.376-4.178,3.633-4.178c2.529,0,3.201,2.225,3.201,3.649
			c0,0.288-0.032,0.512-0.048,0.656H44.477z M48.607,50.983c0.016-0.896-0.368-2.289-1.953-2.289c-1.425,0-2.049,1.313-2.161,2.289
			H48.607z"/>
		<path fill="#221E1F" d="M51.708,44.245h1.409v11.364h-1.409V44.245z"/>
		<path fill="#221E1F" d="M58.876,49.958c0-0.8-0.016-1.456-0.064-2.097h1.232l0.064,1.248h0.048
			c0.432-0.736,1.152-1.424,2.433-1.424c1.057,0,1.857,0.64,2.193,1.553h0.032c0.24-0.433,0.544-0.769,0.864-1.009
			c0.464-0.353,0.977-0.544,1.713-0.544c1.024,0,2.545,0.672,2.545,3.361v4.562h-1.376v-4.386c0-1.488-0.544-2.385-1.681-2.385
			c-0.8,0-1.425,0.592-1.665,1.28c-0.064,0.192-0.112,0.448-0.112,0.704v4.786h-1.376v-4.642c0-1.232-0.544-2.129-1.617-2.129
			c-0.88,0-1.521,0.704-1.745,1.408c-0.08,0.208-0.112,0.448-0.112,0.688v4.674h-1.376V49.958z"/>
		<path fill="#221E1F" d="M73.004,51.992c0.032,1.904,1.249,2.688,2.657,2.688c1.008,0,1.617-0.176,2.145-0.399l0.24,1.008
			c-0.496,0.225-1.344,0.48-2.577,0.48c-2.385,0-3.81-1.568-3.81-3.905s1.376-4.178,3.633-4.178c2.529,0,3.201,2.225,3.201,3.649
			c0,0.288-0.032,0.512-0.048,0.656H73.004z M77.134,50.983c0.016-0.896-0.368-2.289-1.953-2.289c-1.425,0-2.049,1.313-2.161,2.289
			H77.134z"/>
		<path fill="#221E1F" d="M80.236,49.958c0-0.8-0.016-1.456-0.064-2.097h1.249l0.08,1.28h0.032c0.384-0.736,1.281-1.456,2.561-1.456
			c1.073,0,2.737,0.64,2.737,3.297v4.626h-1.409v-4.466c0-1.248-0.464-2.289-1.792-2.289c-0.929,0-1.649,0.656-1.889,1.44
			c-0.064,0.177-0.096,0.416-0.096,0.656v4.658h-1.409V49.958z"/>
		<path fill="#221E1F" d="M88.924,54.168c0.416,0.271,1.152,0.561,1.856,0.561c1.024,0,1.505-0.513,1.505-1.153
			c0-0.672-0.4-1.04-1.441-1.424c-1.393-0.496-2.049-1.265-2.049-2.193c0-1.248,1.009-2.272,2.673-2.272
			c0.784,0,1.473,0.224,1.905,0.479l-0.352,1.024c-0.304-0.191-0.865-0.448-1.585-0.448c-0.832,0-1.296,0.48-1.296,1.057
			c0,0.641,0.464,0.929,1.473,1.313c1.345,0.513,2.033,1.185,2.033,2.337c0,1.36-1.056,2.321-2.897,2.321
			c-0.849,0-1.633-0.208-2.177-0.528L88.924,54.168z"/>
		<path fill="#221E1F" d="M99.741,55.609l-0.112-0.977h-0.048c-0.432,0.608-1.265,1.152-2.369,1.152
			c-1.569,0-2.369-1.104-2.369-2.225c0-1.873,1.665-2.897,4.658-2.881v-0.16c0-0.641-0.176-1.793-1.761-1.793
			c-0.72,0-1.473,0.225-2.017,0.576l-0.32-0.929c0.64-0.416,1.568-0.688,2.545-0.688c2.369,0,2.945,1.616,2.945,3.169v2.897
			c0,0.672,0.032,1.328,0.128,1.856H99.741z M99.533,51.656c-1.537-0.032-3.281,0.239-3.281,1.744c0,0.912,0.608,1.345,1.329,1.345
			c1.008,0,1.648-0.641,1.873-1.297c0.048-0.144,0.08-0.304,0.08-0.448V51.656z"/>
		<path fill="#221E1F" d="M101.275,57.85c0.64-0.048,1.2-0.225,1.537-0.593c0.384-0.448,0.528-1.057,0.528-2.913v-6.482h1.408v7.026
			c0,1.505-0.24,2.481-0.928,3.186c-0.624,0.624-1.648,0.881-2.401,0.881L101.275,57.85z M104.908,45.685
			c0.016,0.464-0.32,0.864-0.88,0.864c-0.528,0-0.864-0.4-0.864-0.864c0-0.496,0.368-0.881,0.896-0.881
			C104.572,44.804,104.908,45.189,104.908,45.685z"/>
		<path fill="#221E1F" d="M107.835,51.992c0.032,1.904,1.249,2.688,2.657,2.688c1.008,0,1.617-0.176,2.145-0.399l0.24,1.008
			c-0.496,0.225-1.344,0.48-2.577,0.48c-2.385,0-3.81-1.568-3.81-3.905s1.376-4.178,3.633-4.178c2.529,0,3.201,2.225,3.201,3.649
			c0,0.288-0.032,0.512-0.048,0.656H107.835z M111.965,50.983c0.016-0.896-0.368-2.289-1.953-2.289
			c-1.425,0-2.049,1.313-2.161,2.289H111.965z"/>
		<path fill="#221E1F" d="M123.741,54.409h-0.032c-0.416,0.768-1.28,1.376-2.529,1.376c-1.809,0-3.281-1.568-3.281-3.921
			c0-2.897,1.873-4.178,3.505-4.178c1.2,0,2,0.592,2.385,1.344h0.032l0.048-1.168h1.329c-0.032,0.656-0.048,1.328-0.048,2.129v8.787
			h-1.409V54.409z M123.741,50.999c0-0.192-0.016-0.417-0.064-0.593c-0.208-0.864-0.96-1.601-2.017-1.601
			c-1.457,0-2.337,1.232-2.337,2.978c0,1.536,0.736,2.881,2.289,2.881c0.912,0,1.697-0.561,2.017-1.537
			c0.064-0.191,0.112-0.464,0.112-0.672V50.999z"/>
		<path fill="#221E1F" d="M133.949,53.496c0,0.801,0.016,1.505,0.064,2.113h-1.249l-0.08-1.265h-0.032
			c-0.368,0.624-1.185,1.44-2.561,1.44c-1.216,0-2.673-0.672-2.673-3.394v-4.529h1.408v4.29c0,1.473,0.448,2.465,1.729,2.465
			c0.944,0,1.601-0.656,1.856-1.28c0.08-0.209,0.128-0.465,0.128-0.721v-4.754h1.408V53.496z"/>
		<path fill="#221E1F" d="M137.066,51.992c0.032,1.904,1.249,2.688,2.657,2.688c1.008,0,1.617-0.176,2.145-0.399l0.24,1.008
			c-0.496,0.225-1.344,0.48-2.577,0.48c-2.385,0-3.81-1.568-3.81-3.905s1.376-4.178,3.633-4.178c2.529,0,3.201,2.225,3.201,3.649
			c0,0.288-0.032,0.512-0.048,0.656H137.066z M141.196,50.983c0.016-0.896-0.368-2.289-1.953-2.289
			c-1.425,0-2.049,1.313-2.161,2.289H141.196z"/>
		<path fill="#221E1F" d="M147.69,44.245h1.409v11.364h-1.409V44.245z"/>
		<path fill="#221E1F" d="M152.25,51.992c0.032,1.904,1.249,2.688,2.657,2.688c1.008,0,1.617-0.176,2.145-0.399l0.24,1.008
			c-0.496,0.225-1.344,0.48-2.577,0.48c-2.385,0-3.81-1.568-3.81-3.905s1.376-4.178,3.633-4.178c2.529,0,3.201,2.225,3.201,3.649
			c0,0.288-0.032,0.512-0.048,0.656H152.25z M156.38,50.983c0.016-0.896-0.368-2.289-1.953-2.289c-1.425,0-2.049,1.313-2.161,2.289
			H156.38z"/>
		<path fill="#221E1F" d="M159.29,54.168c0.416,0.271,1.152,0.561,1.856,0.561c1.024,0,1.505-0.513,1.505-1.153
			c0-0.672-0.4-1.04-1.441-1.424c-1.393-0.496-2.049-1.265-2.049-2.193c0-1.248,1.009-2.272,2.673-2.272
			c0.784,0,1.473,0.224,1.905,0.479l-0.352,1.024c-0.304-0.191-0.865-0.448-1.585-0.448c-0.832,0-1.296,0.48-1.296,1.057
			c0,0.641,0.464,0.929,1.473,1.313c1.345,0.513,2.033,1.185,2.033,2.337c0,1.36-1.056,2.321-2.897,2.321
			c-0.849,0-1.633-0.208-2.177-0.528L159.29,54.168z"/>
		<path fill="#221E1F" d="M174.492,54.409h-0.032c-0.416,0.768-1.28,1.376-2.529,1.376c-1.809,0-3.281-1.568-3.281-3.921
			c0-2.897,1.873-4.178,3.505-4.178c1.2,0,2,0.592,2.385,1.344h0.032l0.048-1.168h1.329c-0.032,0.656-0.048,1.328-0.048,2.129v8.787
			h-1.409V54.409z M174.492,50.999c0-0.192-0.016-0.417-0.064-0.593c-0.208-0.864-0.96-1.601-2.017-1.601
			c-1.457,0-2.337,1.232-2.337,2.978c0,1.536,0.736,2.881,2.289,2.881c0.912,0,1.697-0.561,2.017-1.537
			c0.064-0.191,0.112-0.464,0.112-0.672V50.999z"/>
		<path fill="#221E1F" d="M184.7,53.496c0,0.801,0.016,1.505,0.064,2.113h-1.249l-0.08-1.265h-0.032
			c-0.368,0.624-1.185,1.44-2.561,1.44c-1.216,0-2.673-0.672-2.673-3.394v-4.529h1.408v4.29c0,1.473,0.448,2.465,1.729,2.465
			c0.944,0,1.601-0.656,1.856-1.28c0.08-0.209,0.128-0.465,0.128-0.721v-4.754h1.408V53.496z"/>
		<path fill="#221E1F" d="M188.602,45.685c0.016,0.48-0.336,0.864-0.896,0.864c-0.496,0-0.849-0.384-0.849-0.864
			c0-0.496,0.368-0.881,0.88-0.881C188.266,44.804,188.602,45.189,188.602,45.685z M187.033,55.609v-7.747h1.409v7.747H187.033z"/>
		<path fill="#221E1F" d="M191.561,51.992c0.032,1.904,1.249,2.688,2.657,2.688c1.008,0,1.617-0.176,2.145-0.399l0.24,1.008
			c-0.496,0.225-1.344,0.48-2.577,0.48c-2.385,0-3.81-1.568-3.81-3.905s1.376-4.178,3.633-4.178c2.529,0,3.201,2.225,3.201,3.649
			c0,0.288-0.032,0.512-0.048,0.656H191.561z M195.691,50.983c0.016-0.896-0.368-2.289-1.953-2.289
			c-1.425,0-2.049,1.313-2.161,2.289H195.691z"/>
		<path fill="#221E1F" d="M198.792,50.279c0-0.912-0.016-1.696-0.064-2.417h1.232l0.048,1.521h0.064
			c0.352-1.04,1.2-1.696,2.145-1.696c0.16,0,0.272,0.016,0.4,0.048v1.328c-0.144-0.032-0.288-0.048-0.48-0.048
			c-0.992,0-1.696,0.752-1.889,1.809c-0.032,0.192-0.064,0.416-0.064,0.656v4.13h-1.393V50.279z"/>
		<path fill="#221E1F" d="M204.649,51.992c0.032,1.904,1.249,2.688,2.657,2.688c1.008,0,1.617-0.176,2.145-0.399l0.24,1.008
			c-0.496,0.225-1.344,0.48-2.577,0.48c-2.385,0-3.81-1.568-3.81-3.905s1.376-4.178,3.633-4.178c2.529,0,3.201,2.225,3.201,3.649
			c0,0.288-0.032,0.512-0.048,0.656H204.649z M208.779,50.983c0.016-0.896-0.368-2.289-1.953-2.289
			c-1.425,0-2.049,1.313-2.161,2.289H208.779z"/>
		<path fill="#221E1F" d="M216.056,51.992c0.032,1.904,1.249,2.688,2.657,2.688c1.008,0,1.617-0.176,2.145-0.399l0.24,1.008
			c-0.496,0.225-1.344,0.48-2.577,0.48c-2.385,0-3.81-1.568-3.81-3.905s1.376-4.178,3.633-4.178c2.529,0,3.201,2.225,3.201,3.649
			c0,0.288-0.032,0.512-0.048,0.656H216.056z M220.186,50.983c0.016-0.896-0.368-2.289-1.953-2.289
			c-1.425,0-2.049,1.313-2.161,2.289H220.186z"/>
		<path fill="#221E1F" d="M223.288,49.958c0-0.8-0.016-1.456-0.064-2.097h1.249l0.08,1.28h0.032
			c0.384-0.736,1.281-1.456,2.561-1.456c1.073,0,2.737,0.64,2.737,3.297v4.626h-1.409v-4.466c0-1.248-0.464-2.289-1.792-2.289
			c-0.929,0-1.649,0.656-1.889,1.44c-0.064,0.177-0.096,0.416-0.096,0.656v4.658h-1.409V49.958z"/>
		<path fill="#221E1F" d="M232.504,47.862l1.521,4.354c0.256,0.704,0.464,1.345,0.624,1.985h0.048
			c0.176-0.641,0.4-1.281,0.656-1.985l1.504-4.354h1.473l-3.041,7.747h-1.345L231,47.862H232.504z"/>
		<path fill="#221E1F" d="M241.225,45.685c0.016,0.48-0.336,0.864-0.896,0.864c-0.496,0-0.849-0.384-0.849-0.864
			c0-0.496,0.368-0.881,0.88-0.881C240.888,44.804,241.225,45.189,241.225,45.685z M239.656,55.609v-7.747h1.409v7.747H239.656z"/>
		<path fill="#221E1F" d="M247.689,55.609l-0.112-0.977h-0.048c-0.433,0.608-1.265,1.152-2.369,1.152
			c-1.569,0-2.369-1.104-2.369-2.225c0-1.873,1.665-2.897,4.658-2.881v-0.16c0-0.641-0.176-1.793-1.761-1.793
			c-0.72,0-1.473,0.225-2.017,0.576l-0.32-0.929c0.64-0.416,1.568-0.688,2.545-0.688c2.369,0,2.945,1.616,2.945,3.169v2.897
			c0,0.672,0.032,1.328,0.128,1.856H247.689z M247.481,51.656c-1.537-0.032-3.281,0.239-3.281,1.744
			c0,0.912,0.608,1.345,1.329,1.345c1.008,0,1.648-0.641,1.873-1.297c0.048-0.144,0.08-0.304,0.08-0.448V51.656z"/>
		<path fill="#221E1F" d="M251.111,50.279c0-0.912-0.016-1.696-0.064-2.417h1.232l0.048,1.521h0.064
			c0.352-1.04,1.2-1.696,2.145-1.696c0.16,0,0.272,0.016,0.4,0.048v1.328c-0.144-0.032-0.288-0.048-0.48-0.048
			c-0.992,0-1.697,0.752-1.889,1.809c-0.032,0.192-0.064,0.416-0.064,0.656v4.13h-1.393V50.279z"/>
		<path fill="#221E1F" d="M255.16,54.777c0-0.593,0.4-1.009,0.96-1.009c0.56,0,0.944,0.416,0.944,1.009
			c0,0.576-0.368,1.008-0.96,1.008C255.543,55.785,255.16,55.353,255.16,54.777z"/>
	</g>
</g>
</svg>