<!-- Generator: Adobe Illustrator 17.0.0, SVG Export Plug-In  -->
<svg version="1.1"
	 xmlns="http://www.w3.org/2000/svg" xmlns:xlink="http://www.w3.org/1999/xlink" xmlns:a="http://ns.adobe.com/AdobeSVGViewerExtensions/3.0/"
	 x="0px" y="0px" width="199.091px" height="112.917px" viewBox="0 0 199.091 112.917" enable-background="new 0 0 199.091 112.917"
	 xml:space="preserve">
<defs>
</defs>
<polygon fill="#F1F1F1" stroke="#000000" stroke-width="2" stroke-linecap="round" stroke-linejoin="round" stroke-miterlimit="10" points="
	198.091,1 1,1 1,75.406 126.987,75.406 126.987,111.917 163.5,75.406 198.091,75.406 "/>
<g>
	<g>
		<path fill="#221E1F" d="M17.664,23.608V12.82h1.521l3.457,5.458c0.8,1.265,1.425,2.401,1.937,3.505l0.032-0.016
			c-0.128-1.44-0.16-2.753-0.16-4.434V12.82h1.313v10.788h-1.409l-3.425-5.475c-0.752-1.2-1.473-2.433-2.017-3.601l-0.048,0.016
			c0.08,1.36,0.112,2.657,0.112,4.45v4.609H17.664z"/>
		<path fill="#221E1F" d="M35.154,19.671c0,2.865-1.985,4.113-3.857,4.113c-2.097,0-3.713-1.536-3.713-3.985
			c0-2.593,1.697-4.113,3.841-4.113C33.65,15.685,35.154,17.302,35.154,19.671z M29.008,19.751c0,1.696,0.977,2.978,2.353,2.978
			c1.345,0,2.353-1.265,2.353-3.01c0-1.313-0.656-2.978-2.321-2.978C29.728,16.741,29.008,18.278,29.008,19.751z"/>
		<path fill="#221E1F" d="M35.631,25.577c0.353-0.944,0.785-2.657,0.96-3.825l1.569-0.16c-0.368,1.36-1.072,3.137-1.521,3.89
			L35.631,25.577z"/>
		<path fill="#221E1F" d="M43.247,12.244h1.409v11.364h-1.409V12.244z"/>
		<path fill="#221E1F" d="M51.312,23.608L51.2,22.632h-0.048c-0.433,0.608-1.265,1.152-2.369,1.152
			c-1.569,0-2.369-1.104-2.369-2.225c0-1.873,1.665-2.897,4.658-2.881v-0.16c0-0.641-0.176-1.793-1.761-1.793
			c-0.72,0-1.473,0.225-2.017,0.576l-0.32-0.929c0.64-0.416,1.568-0.688,2.545-0.688c2.369,0,2.945,1.616,2.945,3.169v2.897
			c0,0.672,0.032,1.328,0.128,1.856H51.312z M51.104,19.655c-1.537-0.032-3.281,0.239-3.281,1.744c0,0.912,0.608,1.345,1.329,1.345
			c1.008,0,1.648-0.641,1.873-1.297c0.048-0.144,0.08-0.304,0.08-0.448V19.655z"/>
		<path fill="#221E1F" d="M54.542,22.168c0.416,0.271,1.152,0.561,1.856,0.561c1.024,0,1.505-0.513,1.505-1.153
			c0-0.672-0.4-1.04-1.441-1.424c-1.393-0.496-2.049-1.265-2.049-2.193c0-1.248,1.009-2.272,2.673-2.272
			c0.784,0,1.473,0.224,1.905,0.479l-0.352,1.024c-0.304-0.191-0.865-0.448-1.585-0.448c-0.832,0-1.296,0.48-1.296,1.057
			c0,0.641,0.464,0.929,1.473,1.313c1.345,0.513,2.033,1.185,2.033,2.337c0,1.36-1.056,2.321-2.897,2.321
			c-0.849,0-1.633-0.208-2.177-0.528L54.542,22.168z"/>
		<path fill="#221E1F" d="M69.985,23.32c-0.368,0.192-1.185,0.448-2.225,0.448c-2.337,0-3.857-1.585-3.857-3.954
			c0-2.385,1.632-4.113,4.162-4.113c0.832,0,1.568,0.208,1.953,0.4l-0.32,1.088c-0.336-0.191-0.864-0.368-1.632-0.368
			c-1.777,0-2.737,1.313-2.737,2.93c0,1.793,1.152,2.897,2.689,2.897c0.801,0,1.329-0.209,1.729-0.385L69.985,23.32z"/>
		<path fill="#221E1F" d="M73.199,13.684c0.016,0.48-0.336,0.864-0.896,0.864c-0.496,0-0.849-0.384-0.849-0.864
			c0-0.496,0.368-0.881,0.88-0.881C72.863,12.804,73.199,13.188,73.199,13.684z M71.63,23.608v-7.747h1.409v7.747H71.63z"/>
		<path fill="#221E1F" d="M77.071,13.637v2.225h2.017v1.072h-2.017v4.178c0,0.96,0.272,1.505,1.056,1.505
			c0.368,0,0.641-0.048,0.816-0.097l0.064,1.057c-0.272,0.112-0.704,0.192-1.249,0.192c-0.656,0-1.184-0.208-1.521-0.593
			c-0.4-0.416-0.544-1.104-0.544-2.017v-4.226h-1.201v-1.072h1.201v-1.856L77.071,13.637z"/>
		<path fill="#221E1F" d="M84.96,23.608l-0.112-0.977H84.8c-0.432,0.608-1.265,1.152-2.369,1.152c-1.569,0-2.369-1.104-2.369-2.225
			c0-1.873,1.665-2.897,4.658-2.881v-0.16c0-0.641-0.176-1.793-1.761-1.793c-0.72,0-1.473,0.225-2.017,0.576l-0.32-0.929
			c0.64-0.416,1.568-0.688,2.545-0.688c2.369,0,2.945,1.616,2.945,3.169v2.897c0,0.672,0.032,1.328,0.128,1.856H84.96z
			 M84.752,19.655c-1.537-0.032-3.281,0.239-3.281,1.744c0,0.912,0.608,1.345,1.329,1.345c1.008,0,1.648-0.641,1.873-1.297
			c0.048-0.144,0.08-0.304,0.08-0.448V19.655z"/>
		<path fill="#221E1F" d="M88.19,22.168c0.416,0.271,1.152,0.561,1.856,0.561c1.024,0,1.505-0.513,1.505-1.153
			c0-0.672-0.4-1.04-1.441-1.424c-1.393-0.496-2.049-1.265-2.049-2.193c0-1.248,1.009-2.272,2.673-2.272
			c0.784,0,1.473,0.224,1.905,0.479l-0.352,1.024c-0.304-0.191-0.865-0.448-1.585-0.448c-0.832,0-1.296,0.48-1.296,1.057
			c0,0.641,0.464,0.929,1.473,1.313c1.345,0.513,2.033,1.185,2.033,2.337c0,1.36-1.056,2.321-2.897,2.321
			c-0.849,0-1.633-0.208-2.177-0.528L88.19,22.168z"/>
		<path fill="#221E1F" d="M98.11,18.391c0-0.993-0.032-1.793-0.064-2.529h1.265l0.064,1.328h0.032
			c0.576-0.944,1.489-1.504,2.753-1.504c1.873,0,3.281,1.584,3.281,3.938c0,2.785-1.697,4.161-3.521,4.161
			c-1.024,0-1.921-0.448-2.385-1.216h-0.032v4.209H98.11V18.391z M99.502,20.455c0,0.208,0.032,0.4,0.064,0.576
			c0.256,0.977,1.104,1.648,2.113,1.648c1.489,0,2.353-1.216,2.353-2.993c0-1.553-0.816-2.881-2.305-2.881
			c-0.96,0-1.857,0.688-2.129,1.745c-0.048,0.176-0.096,0.384-0.096,0.576V20.455z"/>
		<path fill="#221E1F" d="M107.998,19.991c0.032,1.904,1.249,2.688,2.657,2.688c1.008,0,1.617-0.176,2.145-0.399l0.24,1.008
			c-0.496,0.225-1.344,0.48-2.577,0.48c-2.385,0-3.81-1.568-3.81-3.905s1.376-4.178,3.633-4.178c2.529,0,3.201,2.225,3.201,3.649
			c0,0.288-0.032,0.512-0.048,0.656H107.998z M112.127,18.982c0.016-0.896-0.368-2.289-1.953-2.289
			c-1.425,0-2.049,1.313-2.161,2.289H112.127z"/>
		<path fill="#221E1F" d="M115.229,18.278c0-0.912-0.016-1.696-0.064-2.417h1.232l0.048,1.521h0.064
			c0.352-1.04,1.2-1.696,2.145-1.696c0.16,0,0.272,0.016,0.4,0.048v1.328c-0.144-0.032-0.288-0.048-0.48-0.048
			c-0.992,0-1.696,0.752-1.889,1.809c-0.032,0.192-0.064,0.416-0.064,0.656v4.13h-1.393V18.278z"/>
		<path fill="#221E1F" d="M126.992,12.244v9.363c0,0.688,0.016,1.473,0.064,2.001h-1.265l-0.064-1.345h-0.032
			c-0.432,0.864-1.376,1.521-2.641,1.521c-1.873,0-3.313-1.584-3.313-3.938c-0.016-2.577,1.584-4.161,3.473-4.161
			c1.185,0,1.985,0.56,2.337,1.185h0.032v-4.626H126.992z M125.583,19.015c0-0.176-0.016-0.416-0.064-0.593
			c-0.208-0.896-0.977-1.632-2.033-1.632c-1.457,0-2.321,1.28-2.321,2.993c0,1.568,0.769,2.865,2.289,2.865
			c0.944,0,1.809-0.625,2.065-1.681c0.048-0.192,0.064-0.385,0.064-0.608V19.015z"/>
		<path fill="#221E1F" d="M130.894,13.684c0.016,0.48-0.336,0.864-0.896,0.864c-0.496,0-0.849-0.384-0.849-0.864
			c0-0.496,0.368-0.881,0.88-0.881C130.557,12.804,130.894,13.188,130.894,13.684z M129.325,23.608v-7.747h1.409v7.747H129.325z"/>
		<path fill="#221E1F" d="M139.76,12.244v9.363c0,0.688,0.016,1.473,0.064,2.001h-1.265l-0.064-1.345h-0.032
			c-0.432,0.864-1.376,1.521-2.641,1.521c-1.873,0-3.313-1.584-3.313-3.938c-0.016-2.577,1.584-4.161,3.473-4.161
			c1.185,0,1.985,0.56,2.337,1.185h0.032v-4.626H139.76z M138.351,19.015c0-0.176-0.016-0.416-0.064-0.593
			c-0.208-0.896-0.977-1.632-2.033-1.632c-1.457,0-2.321,1.28-2.321,2.993c0,1.568,0.769,2.865,2.289,2.865
			c0.944,0,1.809-0.625,2.065-1.681c0.048-0.192,0.064-0.385,0.064-0.608V19.015z"/>
		<path fill="#221E1F" d="M146.383,23.608l-0.112-0.977h-0.048c-0.432,0.608-1.265,1.152-2.369,1.152
			c-1.569,0-2.369-1.104-2.369-2.225c0-1.873,1.665-2.897,4.658-2.881v-0.16c0-0.641-0.176-1.793-1.761-1.793
			c-0.72,0-1.473,0.225-2.017,0.576l-0.32-0.929c0.64-0.416,1.568-0.688,2.545-0.688c2.369,0,2.945,1.616,2.945,3.169v2.897
			c0,0.672,0.032,1.328,0.128,1.856H146.383z M146.175,19.655c-1.537-0.032-3.281,0.239-3.281,1.744
			c0,0.912,0.608,1.345,1.329,1.345c1.008,0,1.648-0.641,1.873-1.297c0.048-0.144,0.08-0.304,0.08-0.448V19.655z"/>
		<path fill="#221E1F" d="M149.613,22.168c0.416,0.271,1.152,0.561,1.856,0.561c1.024,0,1.505-0.513,1.505-1.153
			c0-0.672-0.4-1.04-1.441-1.424c-1.393-0.496-2.049-1.265-2.049-2.193c0-1.248,1.009-2.272,2.673-2.272
			c0.784,0,1.473,0.224,1.905,0.479l-0.352,1.024c-0.304-0.191-0.865-0.448-1.585-0.448c-0.832,0-1.296,0.48-1.296,1.057
			c0,0.641,0.464,0.929,1.473,1.313c1.345,0.513,2.033,1.185,2.033,2.337c0,1.36-1.056,2.321-2.897,2.321
			c-0.849,0-1.633-0.208-2.177-0.528L149.613,22.168z"/>
		<path fill="#221E1F" d="M159.341,22.168c0.416,0.271,1.152,0.561,1.856,0.561c1.024,0,1.505-0.513,1.505-1.153
			c0-0.672-0.4-1.04-1.441-1.424c-1.393-0.496-2.049-1.265-2.049-2.193c0-1.248,1.009-2.272,2.673-2.272
			c0.784,0,1.473,0.224,1.905,0.479l-0.352,1.024c-0.304-0.191-0.865-0.448-1.585-0.448c-0.832,0-1.296,0.48-1.296,1.057
			c0,0.641,0.464,0.929,1.473,1.313c1.345,0.513,2.033,1.185,2.033,2.337c0,1.36-1.056,2.321-2.897,2.321
			c-0.849,0-1.633-0.208-2.177-0.528L159.341,22.168z"/>
		<path fill="#221E1F" d="M172.879,19.671c0,2.865-1.985,4.113-3.857,4.113c-2.097,0-3.713-1.536-3.713-3.985
			c0-2.593,1.696-4.113,3.841-4.113C171.375,15.685,172.879,17.302,172.879,19.671z M166.733,19.751
			c0,1.696,0.977,2.978,2.353,2.978c1.345,0,2.353-1.265,2.353-3.01c0-1.313-0.656-2.978-2.321-2.978
			C167.453,16.741,166.733,18.278,166.733,19.751z"/>
		<path fill="#221E1F" d="M174.653,17.958c0-0.8-0.016-1.456-0.064-2.097h1.249l0.08,1.28h0.032
			c0.384-0.736,1.281-1.456,2.561-1.456c1.073,0,2.737,0.64,2.737,3.297v4.626h-1.409v-4.466c0-1.248-0.464-2.289-1.792-2.289
			c-0.929,0-1.649,0.656-1.889,1.44c-0.064,0.177-0.096,0.416-0.096,0.656v4.658h-1.409V17.958z"/>
		<path fill="#221E1F" d="M14.912,33.958c0-0.8-0.016-1.456-0.064-2.097h1.232l0.064,1.248h0.048
			c0.432-0.736,1.152-1.424,2.433-1.424c1.057,0,1.857,0.64,2.193,1.553h0.032c0.24-0.433,0.544-0.769,0.864-1.009
			c0.464-0.353,0.977-0.544,1.713-0.544c1.024,0,2.545,0.672,2.545,3.361v4.562h-1.376v-4.386c0-1.488-0.544-2.385-1.681-2.385
			c-0.8,0-1.425,0.592-1.665,1.28c-0.064,0.192-0.112,0.448-0.112,0.704v4.786h-1.376v-4.642c0-1.232-0.544-2.129-1.617-2.129
			c-0.88,0-1.521,0.704-1.745,1.408c-0.08,0.208-0.112,0.448-0.112,0.688v4.674h-1.376V33.958z"/>
		<path fill="#221E1F" d="M32.545,39.608l-0.112-0.977h-0.048c-0.432,0.608-1.265,1.152-2.369,1.152
			c-1.569,0-2.369-1.104-2.369-2.225c0-1.873,1.665-2.897,4.658-2.881v-0.16c0-0.641-0.176-1.793-1.761-1.793
			c-0.72,0-1.473,0.225-2.017,0.576l-0.32-0.929c0.64-0.416,1.568-0.687,2.545-0.687c2.369,0,2.945,1.616,2.945,3.169v2.897
			c0,0.672,0.032,1.328,0.128,1.856H32.545z M32.337,35.655c-1.537-0.032-3.281,0.239-3.281,1.744c0,0.912,0.608,1.345,1.329,1.345
			c1.008,0,1.648-0.641,1.873-1.297c0.048-0.144,0.08-0.304,0.08-0.448V35.655z M33.042,28.516l-1.953,2.289H30.08l1.409-2.289
			H33.042z"/>
		<path fill="#221E1F" d="M35.775,38.168c0.416,0.271,1.152,0.561,1.856,0.561c1.024,0,1.505-0.513,1.505-1.153
			c0-0.672-0.4-1.04-1.441-1.424c-1.393-0.496-2.049-1.265-2.049-2.193c0-1.248,1.009-2.272,2.673-2.272
			c0.784,0,1.473,0.224,1.905,0.479l-0.352,1.024c-0.304-0.191-0.865-0.448-1.585-0.448c-0.832,0-1.296,0.48-1.296,1.057
			c0,0.641,0.464,0.929,1.473,1.313c1.345,0.513,2.033,1.185,2.033,2.337c0,1.36-1.056,2.321-2.897,2.321
			c-0.849,0-1.633-0.208-2.177-0.528L35.775,38.168z"/>
		<path fill="#221E1F" d="M51.217,39.32c-0.368,0.192-1.185,0.448-2.225,0.448c-2.337,0-3.857-1.585-3.857-3.954
			c0-2.385,1.632-4.113,4.162-4.113c0.832,0,1.568,0.208,1.953,0.4l-0.32,1.088c-0.336-0.191-0.864-0.368-1.632-0.368
			c-1.777,0-2.737,1.313-2.737,2.93c0,1.793,1.152,2.897,2.689,2.897c0.801,0,1.329-0.209,1.729-0.385L51.217,39.32z"/>
		<path fill="#221E1F" d="M59.778,35.671c0,2.865-1.985,4.113-3.857,4.113c-2.097,0-3.713-1.536-3.713-3.985
			c0-2.593,1.696-4.113,3.841-4.113C58.273,31.685,59.778,33.302,59.778,35.671z M53.631,35.751c0,1.696,0.977,2.978,2.353,2.978
			c1.345,0,2.353-1.265,2.353-3.01c0-1.313-0.656-2.978-2.321-2.978C54.352,32.741,53.631,34.278,53.631,35.751z"/>
		<path fill="#221E1F" d="M61.359,38.168c0.416,0.271,1.152,0.561,1.856,0.561c1.024,0,1.505-0.513,1.505-1.153
			c0-0.672-0.4-1.04-1.441-1.424c-1.393-0.496-2.049-1.265-2.049-2.193c0-1.248,1.009-2.272,2.673-2.272
			c0.784,0,1.473,0.224,1.905,0.479l-0.352,1.024c-0.304-0.191-0.865-0.448-1.585-0.448c-0.832,0-1.296,0.48-1.296,1.057
			c0,0.641,0.464,0.929,1.473,1.313c1.345,0.513,2.033,1.185,2.033,2.337c0,1.36-1.056,2.321-2.897,2.321
			c-0.849,0-1.633-0.208-2.177-0.528L61.359,38.168z"/>
		<path fill="#221E1F" d="M69.584,29.637v2.225h2.017v1.072h-2.017v4.178c0,0.96,0.272,1.505,1.056,1.505
			c0.368,0,0.641-0.048,0.816-0.097l0.064,1.057c-0.272,0.112-0.704,0.192-1.249,0.192c-0.656,0-1.184-0.208-1.521-0.593
			c-0.4-0.416-0.544-1.104-0.544-2.017v-4.226h-1.201v-1.072h1.201v-1.856L69.584,29.637z"/>
		<path fill="#221E1F" d="M80.098,35.671c0,2.865-1.985,4.113-3.857,4.113c-2.097,0-3.713-1.536-3.713-3.985
			c0-2.593,1.697-4.113,3.841-4.113C78.593,31.685,80.098,33.302,80.098,35.671z M73.951,35.751c0,1.696,0.977,2.978,2.353,2.978
			c1.345,0,2.353-1.265,2.353-3.01c0-1.313-0.656-2.978-2.321-2.978C74.671,32.741,73.951,34.278,73.951,35.751z"/>
		<path fill="#221E1F" d="M81.679,38.168c0.416,0.271,1.152,0.561,1.856,0.561c1.024,0,1.505-0.513,1.505-1.153
			c0-0.672-0.4-1.04-1.441-1.424c-1.393-0.496-2.049-1.265-2.049-2.193c0-1.248,1.009-2.272,2.673-2.272
			c0.784,0,1.473,0.224,1.905,0.479l-0.352,1.024c-0.304-0.191-0.865-0.448-1.585-0.448c-0.832,0-1.296,0.48-1.296,1.057
			c0,0.641,0.464,0.929,1.473,1.313c1.345,0.513,2.033,1.185,2.033,2.337c0,1.36-1.056,2.321-2.897,2.321
			c-0.849,0-1.633-0.208-2.177-0.528L81.679,38.168z"/>
		<path fill="#221E1F" d="M92.497,39.608l-0.112-0.977h-0.048c-0.433,0.608-1.265,1.152-2.369,1.152
			c-1.569,0-2.369-1.104-2.369-2.225c0-1.873,1.665-2.897,4.658-2.881v-0.16c0-0.641-0.176-1.793-1.761-1.793
			c-0.72,0-1.473,0.225-2.017,0.576l-0.32-0.929c0.64-0.416,1.568-0.687,2.545-0.687c2.369,0,2.945,1.616,2.945,3.169v2.897
			c0,0.672,0.032,1.328,0.128,1.856H92.497z M92.289,35.655c-1.537-0.032-3.281,0.239-3.281,1.744c0,0.912,0.608,1.345,1.329,1.345
			c1.008,0,1.648-0.641,1.873-1.297c0.048-0.144,0.08-0.304,0.08-0.448V35.655z"/>
		<path fill="#221E1F" d="M95.727,38.168c0.416,0.271,1.152,0.561,1.856,0.561c1.024,0,1.505-0.513,1.505-1.153
			c0-0.672-0.4-1.04-1.441-1.424c-1.393-0.496-2.049-1.265-2.049-2.193c0-1.248,1.009-2.272,2.673-2.272
			c0.784,0,1.473,0.224,1.905,0.479l-0.352,1.024c-0.304-0.191-0.865-0.448-1.585-0.448c-0.832,0-1.296,0.48-1.296,1.057
			c0,0.641,0.464,0.929,1.473,1.313c1.345,0.513,2.033,1.185,2.033,2.337c0,1.36-1.056,2.321-2.897,2.321
			c-0.849,0-1.633-0.208-2.177-0.528L95.727,38.168z"/>
		<path fill="#221E1F" d="M110.929,38.408h-0.032c-0.416,0.768-1.28,1.376-2.529,1.376c-1.809,0-3.281-1.568-3.281-3.921
			c0-2.897,1.873-4.178,3.505-4.178c1.2,0,2,0.592,2.385,1.344h0.032l0.048-1.168h1.329c-0.032,0.656-0.048,1.328-0.048,2.129v8.787
			h-1.409V38.408z M110.929,34.999c0-0.192-0.016-0.417-0.064-0.593c-0.208-0.864-0.96-1.601-2.017-1.601
			c-1.457,0-2.337,1.232-2.337,2.978c0,1.536,0.736,2.881,2.289,2.881c0.912,0,1.697-0.561,2.017-1.537
			c0.064-0.191,0.112-0.464,0.112-0.672V34.999z"/>
		<path fill="#221E1F" d="M121.137,37.495c0,0.801,0.016,1.505,0.064,2.113h-1.249l-0.08-1.265h-0.032
			c-0.368,0.624-1.185,1.44-2.561,1.44c-1.216,0-2.673-0.672-2.673-3.394v-4.529h1.408v4.29c0,1.473,0.448,2.465,1.729,2.465
			c0.944,0,1.601-0.656,1.856-1.28c0.08-0.209,0.128-0.465,0.128-0.721v-4.754h1.408V37.495z"/>
		<path fill="#221E1F" d="M124.254,35.991c0.032,1.904,1.249,2.688,2.657,2.688c1.008,0,1.617-0.176,2.145-0.399l0.24,1.008
			c-0.496,0.225-1.344,0.48-2.577,0.48c-2.385,0-3.81-1.568-3.81-3.905s1.376-4.178,3.633-4.178c2.529,0,3.201,2.225,3.201,3.649
			c0,0.288-0.032,0.512-0.048,0.656H124.254z M128.384,34.982c0.016-0.896-0.368-2.289-1.953-2.289
			c-1.425,0-2.049,1.313-2.161,2.289H128.384z"/>
		<path fill="#221E1F" d="M135.662,35.991c0.032,1.904,1.249,2.688,2.657,2.688c1.008,0,1.617-0.176,2.145-0.399l0.24,1.008
			c-0.496,0.225-1.344,0.48-2.577,0.48c-2.385,0-3.81-1.568-3.81-3.905s1.376-4.178,3.633-4.178c2.529,0,3.201,2.225,3.201,3.649
			c0,0.288-0.032,0.512-0.048,0.656H135.662z M139.792,34.982c0.016-0.896-0.368-2.289-1.953-2.289
			c-1.425,0-2.049,1.313-2.161,2.289H139.792z"/>
		<path fill="#221E1F" d="M142.894,28.244h1.409v11.364h-1.409V28.244z"/>
		<path fill="#221E1F" d="M155.584,39.32c-0.368,0.192-1.185,0.448-2.225,0.448c-2.337,0-3.857-1.585-3.857-3.954
			c0-2.385,1.632-4.113,4.162-4.113c0.832,0,1.568,0.208,1.953,0.4l-0.32,1.088c-0.336-0.191-0.865-0.368-1.633-0.368
			c-1.777,0-2.737,1.313-2.737,2.93c0,1.793,1.152,2.897,2.689,2.897c0.801,0,1.329-0.209,1.729-0.385L155.584,39.32z"/>
		<path fill="#221E1F" d="M164.144,35.671c0,2.865-1.985,4.113-3.857,4.113c-2.097,0-3.713-1.536-3.713-3.985
			c0-2.593,1.696-4.113,3.841-4.113C162.64,31.685,164.144,33.302,164.144,35.671z M157.998,35.751c0,1.696,0.977,2.978,2.353,2.978
			c1.345,0,2.353-1.265,2.353-3.01c0-1.313-0.656-2.978-2.321-2.978C158.718,32.741,157.998,34.278,157.998,35.751z"/>
		<path fill="#221E1F" d="M165.726,38.168c0.416,0.271,1.152,0.561,1.856,0.561c1.024,0,1.505-0.513,1.505-1.153
			c0-0.672-0.4-1.04-1.441-1.424c-1.393-0.496-2.049-1.265-2.049-2.193c0-1.248,1.009-2.272,2.673-2.272
			c0.784,0,1.473,0.224,1.905,0.479l-0.352,1.024c-0.304-0.191-0.865-0.448-1.585-0.448c-0.832,0-1.296,0.48-1.296,1.057
			c0,0.641,0.464,0.929,1.473,1.313c1.345,0.513,2.033,1.185,2.033,2.337c0,1.36-1.056,2.321-2.897,2.321
			c-0.849,0-1.633-0.208-2.177-0.528L165.726,38.168z"/>
		<path fill="#221E1F" d="M173.95,29.637v2.225h2.017v1.072h-2.017v4.178c0,0.96,0.272,1.505,1.056,1.505
			c0.368,0,0.641-0.048,0.816-0.097l0.064,1.057c-0.272,0.112-0.704,0.192-1.249,0.192c-0.656,0-1.184-0.208-1.521-0.593
			c-0.4-0.416-0.544-1.104-0.544-2.017v-4.226h-1.201v-1.072h1.201v-1.856L173.95,29.637z"/>
		<path fill="#221E1F" d="M184.464,35.671c0,2.865-1.985,4.113-3.857,4.113c-2.097,0-3.713-1.536-3.713-3.985
			c0-2.593,1.696-4.113,3.841-4.113C182.96,31.685,184.464,33.302,184.464,35.671z M178.318,35.751c0,1.696,0.977,2.978,2.353,2.978
			c1.345,0,2.353-1.265,2.353-3.01c0-1.313-0.656-2.978-2.321-2.978C179.038,32.741,178.318,34.278,178.318,35.751z"/>
		<path fill="#221E1F" d="M23.307,44.244v9.363c0,0.688,0.016,1.473,0.064,2.001h-1.265l-0.064-1.345H22.01
			c-0.432,0.864-1.376,1.521-2.641,1.521c-1.873,0-3.313-1.584-3.313-3.938c-0.016-2.577,1.584-4.161,3.473-4.161
			c1.185,0,1.985,0.56,2.337,1.185h0.032v-4.626H23.307z M21.898,51.015c0-0.176-0.016-0.416-0.064-0.593
			c-0.208-0.896-0.977-1.632-2.033-1.632c-1.457,0-2.321,1.28-2.321,2.993c0,1.568,0.769,2.865,2.289,2.865
			c0.944,0,1.809-0.625,2.065-1.681c0.048-0.192,0.064-0.385,0.064-0.608V51.015z"/>
		<path fill="#221E1F" d="M26.424,51.991c0.032,1.904,1.249,2.688,2.657,2.688c1.008,0,1.617-0.176,2.145-0.399l0.24,1.008
			c-0.496,0.225-1.344,0.48-2.577,0.48c-2.385,0-3.81-1.568-3.81-3.905s1.376-4.178,3.633-4.178c2.529,0,3.201,2.225,3.201,3.649
			c0,0.288-0.032,0.512-0.048,0.656H26.424z M30.554,50.982c0.016-0.896-0.368-2.289-1.953-2.289c-1.425,0-2.049,1.313-2.161,2.289
			H30.554z"/>
		<path fill="#221E1F" d="M37.047,44.244h1.409v11.364h-1.409V44.244z"/>
		<path fill="#221E1F" d="M47.834,51.671c0,2.865-1.985,4.113-3.857,4.113c-2.097,0-3.713-1.536-3.713-3.985
			c0-2.593,1.697-4.113,3.841-4.113C46.33,47.685,47.834,49.302,47.834,51.671z M41.687,51.751c0,1.696,0.977,2.978,2.353,2.978
			c1.345,0,2.353-1.265,2.353-3.01c0-1.313-0.656-2.978-2.321-2.978C42.408,48.741,41.687,50.278,41.687,51.751z"/>
		<path fill="#221E1F" d="M49.415,54.168c0.416,0.271,1.152,0.561,1.856,0.561c1.024,0,1.505-0.513,1.505-1.153
			c0-0.672-0.4-1.04-1.441-1.424c-1.393-0.496-2.049-1.265-2.049-2.193c0-1.248,1.009-2.272,2.673-2.272
			c0.784,0,1.473,0.224,1.905,0.479l-0.352,1.024c-0.304-0.191-0.865-0.448-1.585-0.448c-0.832,0-1.296,0.48-1.296,1.057
			c0,0.641,0.464,0.929,1.473,1.313c1.345,0.513,2.033,1.185,2.033,2.337c0,1.36-1.056,2.321-2.897,2.321
			c-0.849,0-1.633-0.208-2.177-0.528L49.415,54.168z"/>
		<path fill="#221E1F" d="M59.334,49.958c0-0.8-0.016-1.456-0.064-2.097h1.232l0.064,1.248h0.048
			c0.432-0.736,1.152-1.424,2.433-1.424c1.057,0,1.857,0.64,2.193,1.553h0.032c0.24-0.433,0.544-0.769,0.864-1.009
			c0.464-0.353,0.977-0.544,1.713-0.544c1.024,0,2.545,0.672,2.545,3.361v4.562h-1.376v-4.386c0-1.488-0.544-2.385-1.681-2.385
			c-0.8,0-1.425,0.592-1.665,1.28c-0.064,0.192-0.112,0.448-0.112,0.704v4.786h-1.376v-4.642c0-1.232-0.544-2.129-1.617-2.129
			c-0.88,0-1.521,0.704-1.745,1.408c-0.08,0.208-0.112,0.448-0.112,0.688v4.674h-1.376V49.958z"/>
		<path fill="#221E1F" d="M73.462,51.991c0.032,1.904,1.249,2.688,2.657,2.688c1.008,0,1.617-0.176,2.145-0.399l0.24,1.008
			c-0.496,0.225-1.344,0.48-2.577,0.48c-2.385,0-3.81-1.568-3.81-3.905s1.376-4.178,3.633-4.178c2.529,0,3.201,2.225,3.201,3.649
			c0,0.288-0.032,0.512-0.048,0.656H73.462z M77.592,50.982c0.016-0.896-0.368-2.289-1.953-2.289c-1.425,0-2.049,1.313-2.161,2.289
			H77.592z"/>
		<path fill="#221E1F" d="M80.694,49.958c0-0.8-0.016-1.456-0.064-2.097h1.249l0.08,1.28h0.032c0.384-0.736,1.281-1.456,2.561-1.456
			c1.073,0,2.737,0.64,2.737,3.297v4.626H85.88v-4.466c0-1.248-0.464-2.289-1.792-2.289c-0.929,0-1.649,0.656-1.889,1.44
			c-0.064,0.177-0.096,0.416-0.096,0.656v4.658h-1.409V49.958z"/>
		<path fill="#221E1F" d="M89.382,54.168c0.416,0.271,1.152,0.561,1.856,0.561c1.024,0,1.505-0.513,1.505-1.153
			c0-0.672-0.4-1.04-1.441-1.424c-1.393-0.496-2.049-1.265-2.049-2.193c0-1.248,1.009-2.272,2.673-2.272
			c0.784,0,1.473,0.224,1.905,0.479l-0.352,1.024c-0.304-0.191-0.865-0.448-1.585-0.448c-0.832,0-1.296,0.48-1.296,1.057
			c0,0.641,0.464,0.929,1.473,1.313c1.345,0.513,2.033,1.185,2.033,2.337c0,1.36-1.056,2.321-2.897,2.321
			c-0.849,0-1.633-0.208-2.177-0.528L89.382,54.168z"/>
		<path fill="#221E1F" d="M100.199,55.608l-0.112-0.977h-0.048c-0.432,0.608-1.265,1.152-2.369,1.152
			c-1.569,0-2.369-1.104-2.369-2.225c0-1.873,1.665-2.897,4.658-2.881v-0.16c0-0.641-0.176-1.793-1.761-1.793
			c-0.72,0-1.473,0.225-2.017,0.576l-0.32-0.929c0.64-0.416,1.568-0.688,2.545-0.688c2.369,0,2.945,1.616,2.945,3.169v2.897
			c0,0.672,0.032,1.328,0.128,1.856H100.199z M99.991,51.655c-1.537-0.032-3.281,0.239-3.281,1.744c0,0.912,0.608,1.345,1.329,1.345
			c1.008,0,1.648-0.641,1.873-1.297c0.048-0.144,0.08-0.304,0.08-0.448V51.655z"/>
		<path fill="#221E1F" d="M101.733,57.849c0.64-0.048,1.2-0.225,1.537-0.593c0.384-0.448,0.528-1.057,0.528-2.913v-6.482h1.408
			v7.026c0,1.505-0.24,2.481-0.928,3.186c-0.624,0.624-1.648,0.881-2.401,0.881L101.733,57.849z M105.366,45.684
			c0.016,0.464-0.32,0.864-0.88,0.864c-0.528,0-0.864-0.4-0.864-0.864c0-0.496,0.368-0.881,0.896-0.881
			C105.03,44.804,105.366,45.188,105.366,45.684z"/>
		<path fill="#221E1F" d="M108.293,51.991c0.032,1.904,1.249,2.688,2.657,2.688c1.008,0,1.617-0.176,2.145-0.399l0.24,1.008
			c-0.496,0.225-1.344,0.48-2.577,0.48c-2.385,0-3.81-1.568-3.81-3.905s1.376-4.178,3.633-4.178c2.529,0,3.201,2.225,3.201,3.649
			c0,0.288-0.032,0.512-0.048,0.656H108.293z M112.423,50.982c0.016-0.896-0.368-2.289-1.953-2.289
			c-1.425,0-2.049,1.313-2.161,2.289H112.423z"/>
		<path fill="#221E1F" d="M115.333,54.168c0.416,0.271,1.152,0.561,1.856,0.561c1.024,0,1.505-0.513,1.505-1.153
			c0-0.672-0.4-1.04-1.441-1.424c-1.393-0.496-2.049-1.265-2.049-2.193c0-1.248,1.009-2.272,2.673-2.272
			c0.784,0,1.473,0.224,1.905,0.479l-0.352,1.024c-0.304-0.191-0.865-0.448-1.585-0.448c-0.832,0-1.296,0.48-1.296,1.057
			c0,0.641,0.464,0.929,1.473,1.313c1.345,0.513,2.033,1.185,2.033,2.337c0,1.36-1.056,2.321-2.897,2.321
			c-0.849,0-1.633-0.208-2.177-0.528L115.333,54.168z"/>
		<path fill="#221E1F" d="M129.542,55.608l-0.112-0.977h-0.048c-0.432,0.608-1.265,1.152-2.369,1.152
			c-1.569,0-2.369-1.104-2.369-2.225c0-1.873,1.665-2.897,4.658-2.881v-0.16c0-0.641-0.176-1.793-1.761-1.793
			c-0.72,0-1.473,0.225-2.017,0.576l-0.32-0.929c0.64-0.416,1.568-0.688,2.545-0.688c2.369,0,2.945,1.616,2.945,3.169v2.897
			c0,0.672,0.032,1.328,0.128,1.856H129.542z M129.334,51.655c-1.537-0.032-3.281,0.239-3.281,1.744
			c0,0.912,0.608,1.345,1.329,1.345c1.008,0,1.648-0.641,1.873-1.297c0.048-0.144,0.08-0.304,0.08-0.448V51.655z"/>
		<path fill="#221E1F" d="M132.964,44.244h1.409v11.364h-1.409V44.244z"/>
		<path fill="#221E1F" d="M145.655,55.32c-0.368,0.192-1.185,0.448-2.225,0.448c-2.337,0-3.857-1.585-3.857-3.954
			c0-2.385,1.632-4.113,4.162-4.113c0.832,0,1.568,0.208,1.953,0.4l-0.32,1.088c-0.336-0.191-0.864-0.368-1.632-0.368
			c-1.777,0-2.737,1.313-2.737,2.93c0,1.793,1.152,2.897,2.689,2.897c0.801,0,1.329-0.209,1.729-0.385L145.655,55.32z"/>
		<path fill="#221E1F" d="M147.989,51.991c0.032,1.904,1.249,2.688,2.657,2.688c1.008,0,1.617-0.176,2.145-0.399l0.24,1.008
			c-0.496,0.225-1.344,0.48-2.577,0.48c-2.385,0-3.81-1.568-3.81-3.905s1.376-4.178,3.633-4.178c2.529,0,3.201,2.225,3.201,3.649
			c0,0.288-0.032,0.512-0.048,0.656H147.989z M152.119,50.982c0.016-0.896-0.368-2.289-1.953-2.289
			c-1.425,0-2.049,1.313-2.161,2.289H152.119z"/>
		<path fill="#221E1F" d="M155.22,44.244h1.409v11.364h-1.409V44.244z"/>
		<path fill="#221E1F" d="M165.478,53.495c0,0.801,0.016,1.505,0.064,2.113h-1.249l-0.08-1.265h-0.032
			c-0.368,0.624-1.185,1.44-2.561,1.44c-1.216,0-2.673-0.672-2.673-3.394v-4.529h1.408v4.29c0,1.473,0.448,2.465,1.729,2.465
			c0.944,0,1.601-0.656,1.856-1.28c0.08-0.209,0.128-0.465,0.128-0.721v-4.754h1.408V53.495z"/>
		<path fill="#221E1F" d="M167.812,44.244h1.409v11.364h-1.409V44.244z"/>
		<path fill="#221E1F" d="M175.877,55.608l-0.112-0.977h-0.048c-0.432,0.608-1.265,1.152-2.369,1.152
			c-1.569,0-2.369-1.104-2.369-2.225c0-1.873,1.665-2.897,4.658-2.881v-0.16c0-0.641-0.176-1.793-1.761-1.793
			c-0.72,0-1.473,0.225-2.017,0.576l-0.32-0.929c0.64-0.416,1.568-0.688,2.545-0.688c2.369,0,2.945,1.616,2.945,3.169v2.897
			c0,0.672,0.032,1.328,0.128,1.856H175.877z M175.669,51.655c-1.537-0.032-3.281,0.239-3.281,1.744
			c0,0.912,0.608,1.345,1.329,1.345c1.008,0,1.648-0.641,1.873-1.297c0.048-0.144,0.08-0.304,0.08-0.448V51.655z"/>
		<path fill="#221E1F" d="M179.299,50.278c0-0.912-0.016-1.696-0.064-2.417h1.232l0.048,1.521h0.064
			c0.352-1.04,1.2-1.696,2.145-1.696c0.16,0,0.272,0.016,0.4,0.048v1.328c-0.144-0.032-0.288-0.048-0.48-0.048
			c-0.992,0-1.696,0.752-1.889,1.809c-0.032,0.192-0.064,0.416-0.064,0.656v4.13h-1.393V50.278z"/>
	</g>
</g>
</svg>