<!-- Generator: Adobe Illustrator 17.0.0, SVG Export Plug-In  -->
<svg version="1.1"
	 xmlns="http://www.w3.org/2000/svg" xmlns:xlink="http://www.w3.org/1999/xlink" xmlns:a="http://ns.adobe.com/AdobeSVGViewerExtensions/3.0/"
	 x="0px" y="0px" width="199.091px" height="112.917px" viewBox="0 0 199.091 112.917" enable-background="new 0 0 199.091 112.917"
	 xml:space="preserve">
<defs>
</defs>
<polygon fill="#F1F1F1" stroke="#000000" stroke-width="2" stroke-linecap="round" stroke-linejoin="round" stroke-miterlimit="10" points="
	198.091,1 1,1 1,75.406 126.987,75.406 126.987,111.917 163.5,75.406 198.091,75.406 "/>
<g>
	<g>
		<path fill="#221E1F" d="M21.601,20.215l-1.121,3.394h-1.44l3.665-10.788h1.681l3.682,10.788h-1.489l-1.152-3.394H21.601z
			 M25.138,19.127l-1.056-3.105c-0.24-0.704-0.4-1.345-0.561-1.969h-0.032c-0.16,0.64-0.336,1.296-0.544,1.952l-1.056,3.122H25.138z
			"/>
		<path fill="#221E1F" d="M36.099,12.245v9.363c0,0.688,0.016,1.473,0.064,2.001h-1.265l-0.064-1.345h-0.032
			c-0.432,0.864-1.376,1.521-2.641,1.521c-1.873,0-3.313-1.584-3.313-3.938c-0.016-2.577,1.584-4.161,3.473-4.161
			c1.185,0,1.985,0.56,2.337,1.185h0.032v-4.626H36.099z M34.69,19.015c0-0.176-0.016-0.416-0.064-0.593
			c-0.208-0.896-0.977-1.632-2.033-1.632c-1.457,0-2.321,1.28-2.321,2.993c0,1.568,0.769,2.865,2.289,2.865
			c0.944,0,1.809-0.625,2.065-1.681c0.048-0.192,0.064-0.385,0.064-0.608V19.015z"/>
		<path fill="#221E1F" d="M39.216,19.992c0.032,1.904,1.249,2.688,2.657,2.688c1.008,0,1.617-0.176,2.145-0.399l0.24,1.008
			c-0.496,0.225-1.344,0.48-2.577,0.48c-2.385,0-3.81-1.568-3.81-3.905s1.376-4.178,3.633-4.178c2.529,0,3.201,2.225,3.201,3.649
			c0,0.288-0.032,0.512-0.048,0.656H39.216z M43.346,18.983c0.016-0.896-0.368-2.289-1.953-2.289c-1.425,0-2.049,1.313-2.161,2.289
			H43.346z"/>
		<path fill="#221E1F" d="M46.447,17.958c0-0.8-0.016-1.456-0.064-2.097h1.232l0.064,1.248h0.048
			c0.432-0.736,1.152-1.424,2.433-1.424c1.057,0,1.857,0.64,2.193,1.553h0.032c0.24-0.433,0.544-0.769,0.864-1.009
			c0.464-0.353,0.977-0.544,1.713-0.544c1.024,0,2.545,0.672,2.545,3.361v4.562h-1.376v-4.386c0-1.488-0.544-2.385-1.681-2.385
			c-0.8,0-1.425,0.592-1.665,1.28c-0.064,0.192-0.112,0.448-0.112,0.704v4.786h-1.376v-4.642c0-1.232-0.544-2.129-1.617-2.129
			c-0.88,0-1.521,0.704-1.745,1.408c-0.08,0.208-0.112,0.448-0.112,0.688v4.674h-1.376V17.958z"/>
		<path fill="#221E1F" d="M64.081,23.609l-0.112-0.977h-0.048c-0.433,0.608-1.265,1.152-2.369,1.152
			c-1.569,0-2.369-1.104-2.369-2.225c0-1.873,1.665-2.897,4.658-2.881v-0.16c0-0.641-0.176-1.793-1.761-1.793
			c-0.72,0-1.473,0.225-2.017,0.576l-0.32-0.929c0.64-0.416,1.568-0.688,2.545-0.688c2.369,0,2.945,1.616,2.945,3.169v2.897
			c0,0.672,0.032,1.328,0.128,1.856H64.081z M63.873,19.656c-1.537-0.032-3.281,0.239-3.281,1.744c0,0.912,0.608,1.345,1.329,1.345
			c1.008,0,1.648-0.641,1.873-1.297c0.048-0.144,0.08-0.304,0.08-0.448V19.656z M64.577,12.516l-1.953,2.289h-1.008l1.409-2.289
			H64.577z"/>
		<path fill="#221E1F" d="M67.311,22.168c0.416,0.271,1.152,0.561,1.856,0.561c1.024,0,1.505-0.513,1.505-1.153
			c0-0.672-0.4-1.04-1.441-1.424c-1.393-0.496-2.049-1.265-2.049-2.193c0-1.248,1.009-2.272,2.673-2.272
			c0.784,0,1.473,0.224,1.905,0.479l-0.352,1.024c-0.304-0.191-0.865-0.448-1.585-0.448c-0.832,0-1.296,0.48-1.296,1.057
			c0,0.641,0.464,0.929,1.473,1.313c1.345,0.513,2.033,1.185,2.033,2.337c0,1.36-1.056,2.321-2.897,2.321
			c-0.849,0-1.633-0.208-2.177-0.528L67.311,22.168z"/>
		<path fill="#221E1F" d="M77.23,18.391c0-0.993-0.032-1.793-0.064-2.529h1.265l0.064,1.328h0.032
			c0.576-0.944,1.489-1.504,2.753-1.504c1.873,0,3.281,1.584,3.281,3.938c0,2.785-1.697,4.161-3.521,4.161
			c-1.024,0-1.921-0.448-2.385-1.216h-0.032v4.209H77.23V18.391z M78.623,20.456c0,0.208,0.032,0.4,0.064,0.576
			c0.256,0.977,1.104,1.648,2.113,1.648c1.489,0,2.353-1.216,2.353-2.993c0-1.553-0.816-2.881-2.305-2.881
			c-0.96,0-1.857,0.688-2.129,1.745c-0.048,0.176-0.096,0.384-0.096,0.576V20.456z"/>
		<path fill="#221E1F" d="M93.345,19.671c0,2.865-1.985,4.113-3.857,4.113c-2.097,0-3.713-1.536-3.713-3.985
			c0-2.593,1.697-4.113,3.841-4.113C91.84,15.686,93.345,17.302,93.345,19.671z M87.198,19.751c0,1.696,0.977,2.978,2.353,2.978
			c1.345,0,2.353-1.265,2.353-3.01c0-1.313-0.656-2.978-2.321-2.978C87.918,16.742,87.198,18.279,87.198,19.751z"/>
		<path fill="#221E1F" d="M101.809,12.245v9.363c0,0.688,0.016,1.473,0.064,2.001h-1.265l-0.064-1.345h-0.032
			c-0.432,0.864-1.376,1.521-2.641,1.521c-1.873,0-3.313-1.584-3.313-3.938c-0.016-2.577,1.584-4.161,3.473-4.161
			c1.185,0,1.985,0.56,2.337,1.185h0.032v-4.626H101.809z M100.4,19.015c0-0.176-0.016-0.416-0.064-0.593
			c-0.208-0.896-0.977-1.632-2.033-1.632c-1.457,0-2.321,1.28-2.321,2.993c0,1.568,0.769,2.865,2.289,2.865
			c0.944,0,1.809-0.625,2.065-1.681c0.048-0.192,0.064-0.385,0.064-0.608V19.015z"/>
		<path fill="#221E1F" d="M104.142,18.279c0-0.912-0.016-1.696-0.064-2.417h1.232l0.048,1.521h0.064
			c0.352-1.04,1.2-1.696,2.145-1.696c0.16,0,0.272,0.016,0.4,0.048v1.328c-0.144-0.032-0.288-0.048-0.48-0.048
			c-0.992,0-1.696,0.752-1.889,1.809c-0.032,0.192-0.064,0.416-0.064,0.656v4.13h-1.393V18.279z"/>
		<path fill="#221E1F" d="M112.303,12.516l-1.953,2.289h-1.009l1.409-2.289H112.303z M109.438,23.609v-7.747h1.409v7.747H109.438z"
			/>
		<path fill="#221E1F" d="M117.472,23.609l-0.112-0.977h-0.048c-0.432,0.608-1.265,1.152-2.369,1.152
			c-1.569,0-2.369-1.104-2.369-2.225c0-1.873,1.665-2.897,4.658-2.881v-0.16c0-0.641-0.176-1.793-1.761-1.793
			c-0.72,0-1.473,0.225-2.017,0.576l-0.32-0.929c0.64-0.416,1.568-0.688,2.545-0.688c2.369,0,2.945,1.616,2.945,3.169v2.897
			c0,0.672,0.032,1.328,0.128,1.856H117.472z M117.264,19.656c-1.537-0.032-3.281,0.239-3.281,1.744
			c0,0.912,0.608,1.345,1.329,1.345c1.008,0,1.648-0.641,1.873-1.297c0.048-0.144,0.08-0.304,0.08-0.448V19.656z"/>
		<path fill="#221E1F" d="M129.808,23.321c-0.368,0.192-1.185,0.448-2.225,0.448c-2.337,0-3.857-1.585-3.857-3.954
			c0-2.385,1.632-4.113,4.162-4.113c0.832,0,1.568,0.208,1.953,0.4l-0.32,1.088c-0.336-0.191-0.864-0.368-1.632-0.368
			c-1.777,0-2.737,1.313-2.737,2.93c0,1.793,1.152,2.897,2.689,2.897c0.801,0,1.329-0.209,1.729-0.385L129.808,23.321z"/>
		<path fill="#221E1F" d="M135.743,23.609l-0.112-0.977h-0.048c-0.432,0.608-1.265,1.152-2.369,1.152
			c-1.569,0-2.369-1.104-2.369-2.225c0-1.873,1.665-2.897,4.658-2.881v-0.16c0-0.641-0.176-1.793-1.761-1.793
			c-0.72,0-1.473,0.225-2.017,0.576l-0.32-0.929c0.64-0.416,1.568-0.688,2.545-0.688c2.369,0,2.945,1.616,2.945,3.169v2.897
			c0,0.672,0.032,1.328,0.128,1.856H135.743z M135.535,19.656c-1.537-0.032-3.281,0.239-3.281,1.744
			c0,0.912,0.608,1.345,1.329,1.345c1.008,0,1.648-0.641,1.873-1.297c0.048-0.144,0.08-0.304,0.08-0.448V19.656z"/>
		<path fill="#221E1F" d="M139.166,18.279c0-0.912-0.016-1.696-0.064-2.417h1.232l0.048,1.521h0.064
			c0.352-1.04,1.2-1.696,2.145-1.696c0.16,0,0.272,0.016,0.4,0.048v1.328c-0.144-0.032-0.288-0.048-0.48-0.048
			c-0.992,0-1.696,0.752-1.889,1.809c-0.032,0.192-0.064,0.416-0.064,0.656v4.13h-1.393V18.279z"/>
		<path fill="#221E1F" d="M150.944,15.862c-0.032,0.561-0.064,1.185-0.064,2.129v4.498c0,1.776-0.352,2.865-1.104,3.537
			c-0.752,0.704-1.841,0.929-2.817,0.929c-0.928,0-1.953-0.225-2.577-0.641l0.352-1.072c0.512,0.32,1.313,0.608,2.273,0.608
			c1.44,0,2.497-0.753,2.497-2.705v-0.864h-0.032c-0.432,0.72-1.265,1.296-2.465,1.296c-1.921,0-3.297-1.633-3.297-3.777
			c0-2.625,1.712-4.113,3.489-4.113c1.345,0,2.081,0.704,2.417,1.344h0.032l0.064-1.168H150.944z M149.488,18.919
			c0-0.24-0.016-0.448-0.08-0.641c-0.256-0.816-0.944-1.488-1.969-1.488c-1.345,0-2.305,1.136-2.305,2.929
			c0,1.521,0.769,2.785,2.289,2.785c0.864,0,1.648-0.544,1.953-1.44c0.08-0.24,0.112-0.513,0.112-0.752V18.919z"/>
		<path fill="#221E1F" d="M157.503,23.609l-0.112-0.977h-0.048c-0.432,0.608-1.265,1.152-2.369,1.152
			c-1.569,0-2.369-1.104-2.369-2.225c0-1.873,1.665-2.897,4.658-2.881v-0.16c0-0.641-0.176-1.793-1.761-1.793
			c-0.72,0-1.473,0.225-2.017,0.576l-0.32-0.929c0.64-0.416,1.568-0.688,2.545-0.688c2.369,0,2.945,1.616,2.945,3.169v2.897
			c0,0.672,0.032,1.328,0.128,1.856H157.503z M157.295,19.656c-1.537-0.032-3.281,0.239-3.281,1.744
			c0,0.912,0.608,1.345,1.329,1.345c1.008,0,1.648-0.641,1.873-1.297c0.048-0.144,0.08-0.304,0.08-0.448V19.656z"/>
		<path fill="#221E1F" d="M160.925,18.279c0-0.912-0.016-1.696-0.064-2.417h1.232l0.048,1.521h0.064
			c0.352-1.04,1.2-1.696,2.145-1.696c0.16,0,0.272,0.016,0.4,0.048v1.328c-0.144-0.032-0.288-0.048-0.48-0.048
			c-0.992,0-1.696,0.752-1.889,1.809c-0.032,0.192-0.064,0.416-0.064,0.656v4.13h-1.393V18.279z"/>
		<path fill="#221E1F" d="M170.333,19.992c0.032,1.904,1.249,2.688,2.657,2.688c1.008,0,1.617-0.176,2.145-0.399l0.24,1.008
			c-0.496,0.225-1.344,0.48-2.577,0.48c-2.385,0-3.81-1.568-3.81-3.905s1.376-4.178,3.633-4.178c2.529,0,3.201,2.225,3.201,3.649
			c0,0.288-0.032,0.512-0.048,0.656H170.333z M174.463,18.983c0.016-0.896-0.368-2.289-1.953-2.289
			c-1.425,0-2.049,1.313-2.161,2.289H174.463z"/>
		<path fill="#221E1F" d="M177.565,12.245h1.409v11.364h-1.409V12.245z"/>
		<path fill="#221E1F" d="M16.818,39.321c-0.368,0.192-1.185,0.448-2.225,0.448c-2.337,0-3.857-1.585-3.857-3.954
			c0-2.385,1.632-4.113,4.162-4.113c0.832,0,1.568,0.208,1.953,0.4l-0.32,1.088c-0.336-0.191-0.864-0.368-1.632-0.368
			c-1.777,0-2.737,1.313-2.737,2.93c0,1.793,1.152,2.897,2.689,2.897c0.801,0,1.329-0.209,1.729-0.385L16.818,39.321z"/>
		<path fill="#221E1F" d="M25.378,35.671c0,2.865-1.985,4.113-3.857,4.113c-2.097,0-3.713-1.536-3.713-3.985
			c0-2.593,1.696-4.113,3.841-4.113C23.874,31.686,25.378,33.302,25.378,35.671z M19.232,35.751c0,1.696,0.977,2.978,2.353,2.978
			c1.345,0,2.353-1.265,2.353-3.01c0-1.313-0.656-2.978-2.321-2.978C19.952,32.742,19.232,34.279,19.232,35.751z"/>
		<path fill="#221E1F" d="M26.96,38.168c0.416,0.271,1.152,0.561,1.856,0.561c1.024,0,1.505-0.513,1.505-1.153
			c0-0.672-0.4-1.04-1.441-1.424c-1.393-0.496-2.049-1.265-2.049-2.193c0-1.248,1.009-2.272,2.673-2.272
			c0.784,0,1.473,0.224,1.905,0.479l-0.352,1.024c-0.304-0.191-0.865-0.448-1.585-0.448c-0.832,0-1.296,0.48-1.296,1.057
			c0,0.641,0.464,0.929,1.473,1.313c1.345,0.513,2.033,1.185,2.033,2.337c0,1.36-1.056,2.321-2.897,2.321
			c-0.849,0-1.633-0.208-2.177-0.528L26.96,38.168z"/>
		<path fill="#221E1F" d="M35.185,29.637v2.225h2.017v1.072h-2.017v4.178c0,0.96,0.272,1.505,1.056,1.505
			c0.368,0,0.641-0.048,0.816-0.097l0.064,1.057c-0.272,0.112-0.704,0.192-1.249,0.192c-0.656,0-1.184-0.208-1.521-0.593
			c-0.4-0.416-0.544-1.104-0.544-2.017v-4.226h-1.201v-1.072h1.201v-1.856L35.185,29.637z"/>
		<path fill="#221E1F" d="M45.698,35.671c0,2.865-1.985,4.113-3.857,4.113c-2.097,0-3.713-1.536-3.713-3.985
			c0-2.593,1.697-4.113,3.841-4.113C44.194,31.686,45.698,33.302,45.698,35.671z M39.552,35.751c0,1.696,0.977,2.978,2.353,2.978
			c1.345,0,2.353-1.265,2.353-3.01c0-1.313-0.656-2.978-2.321-2.978C40.272,32.742,39.552,34.279,39.552,35.751z"/>
		<path fill="#221E1F" d="M57.554,28.245v9.363c0,0.688,0.016,1.473,0.064,2.001h-1.265l-0.064-1.345h-0.032
			c-0.432,0.864-1.376,1.521-2.641,1.521c-1.873,0-3.313-1.584-3.313-3.938c-0.016-2.577,1.584-4.161,3.473-4.161
			c1.185,0,1.985,0.56,2.337,1.185h0.032v-4.626H57.554z M56.146,35.015c0-0.176-0.016-0.416-0.064-0.593
			c-0.208-0.896-0.977-1.632-2.033-1.632c-1.457,0-2.321,1.28-2.321,2.993c0,1.568,0.769,2.865,2.289,2.865
			c0.944,0,1.809-0.625,2.065-1.681c0.048-0.192,0.064-0.385,0.064-0.608V35.015z"/>
		<path fill="#221E1F" d="M60.671,35.992c0.032,1.904,1.249,2.688,2.657,2.688c1.008,0,1.617-0.176,2.145-0.399l0.24,1.008
			c-0.496,0.225-1.344,0.48-2.577,0.48c-2.385,0-3.81-1.568-3.81-3.905s1.376-4.178,3.633-4.178c2.529,0,3.201,2.225,3.201,3.649
			c0,0.288-0.032,0.512-0.048,0.656H60.671z M64.801,34.983c0.016-0.896-0.368-2.289-1.953-2.289c-1.425,0-2.049,1.313-2.161,2.289
			H64.801z"/>
		<path fill="#221E1F" d="M67.903,28.245h1.409v11.364h-1.409V28.245z"/>
		<path fill="#221E1F" d="M75.071,33.958c0-0.8-0.016-1.456-0.064-2.097h1.232l0.064,1.248h0.048
			c0.432-0.736,1.152-1.424,2.433-1.424c1.057,0,1.857,0.64,2.193,1.553h0.032c0.24-0.433,0.544-0.769,0.864-1.009
			c0.464-0.353,0.977-0.544,1.713-0.544c1.024,0,2.545,0.672,2.545,3.361v4.562h-1.376v-4.386c0-1.488-0.544-2.385-1.681-2.385
			c-0.8,0-1.425,0.592-1.665,1.28c-0.064,0.192-0.112,0.448-0.112,0.704v4.786h-1.376v-4.642c0-1.232-0.544-2.129-1.617-2.129
			c-0.88,0-1.521,0.704-1.745,1.408c-0.08,0.208-0.112,0.448-0.112,0.688v4.674h-1.376V33.958z"/>
		<path fill="#221E1F" d="M89.199,35.992c0.032,1.904,1.249,2.688,2.657,2.688c1.008,0,1.617-0.176,2.145-0.399l0.24,1.008
			c-0.496,0.225-1.344,0.48-2.577,0.48c-2.385,0-3.81-1.568-3.81-3.905s1.376-4.178,3.633-4.178c2.529,0,3.201,2.225,3.201,3.649
			c0,0.288-0.032,0.512-0.048,0.656H89.199z M93.329,34.983c0.016-0.896-0.368-2.289-1.953-2.289c-1.425,0-2.049,1.313-2.161,2.289
			H93.329z"/>
		<path fill="#221E1F" d="M96.431,33.958c0-0.8-0.016-1.456-0.064-2.097h1.249l0.08,1.28h0.032c0.384-0.736,1.281-1.456,2.561-1.456
			c1.073,0,2.737,0.64,2.737,3.297v4.626h-1.409v-4.466c0-1.248-0.464-2.289-1.792-2.289c-0.929,0-1.649,0.656-1.889,1.44
			c-0.064,0.177-0.096,0.416-0.096,0.656v4.658h-1.409V33.958z"/>
		<path fill="#221E1F" d="M105.119,38.168c0.416,0.271,1.152,0.561,1.856,0.561c1.024,0,1.505-0.513,1.505-1.153
			c0-0.672-0.4-1.04-1.441-1.424c-1.393-0.496-2.049-1.265-2.049-2.193c0-1.248,1.009-2.272,2.673-2.272
			c0.784,0,1.473,0.224,1.905,0.479l-0.352,1.024c-0.304-0.191-0.865-0.448-1.585-0.448c-0.832,0-1.296,0.48-1.296,1.057
			c0,0.641,0.464,0.929,1.473,1.313c1.345,0.513,2.033,1.185,2.033,2.337c0,1.36-1.056,2.321-2.897,2.321
			c-0.849,0-1.633-0.208-2.177-0.528L105.119,38.168z"/>
		<path fill="#221E1F" d="M115.936,39.609l-0.112-0.977h-0.048c-0.433,0.608-1.265,1.152-2.369,1.152
			c-1.569,0-2.369-1.104-2.369-2.225c0-1.873,1.665-2.897,4.658-2.881v-0.16c0-0.641-0.176-1.793-1.761-1.793
			c-0.72,0-1.473,0.225-2.017,0.576l-0.32-0.929c0.64-0.416,1.568-0.687,2.545-0.687c2.369,0,2.945,1.616,2.945,3.169v2.897
			c0,0.672,0.032,1.328,0.128,1.856H115.936z M115.728,35.656c-1.537-0.032-3.281,0.239-3.281,1.744
			c0,0.912,0.608,1.345,1.329,1.345c1.008,0,1.648-0.641,1.873-1.297c0.048-0.144,0.08-0.304,0.08-0.448V35.656z"/>
		<path fill="#221E1F" d="M117.47,41.85c0.64-0.048,1.2-0.225,1.537-0.593c0.384-0.448,0.528-1.057,0.528-2.913v-6.482h1.408v7.026
			c0,1.505-0.24,2.481-0.928,3.186c-0.624,0.624-1.648,0.881-2.401,0.881L117.47,41.85z M121.103,29.685
			c0.016,0.464-0.32,0.864-0.88,0.864c-0.528,0-0.864-0.4-0.864-0.864c0-0.496,0.368-0.881,0.896-0.881
			C120.767,28.804,121.103,29.189,121.103,29.685z"/>
		<path fill="#221E1F" d="M124.03,35.992c0.032,1.904,1.249,2.688,2.657,2.688c1.008,0,1.617-0.176,2.145-0.399l0.24,1.008
			c-0.496,0.225-1.344,0.48-2.577,0.48c-2.385,0-3.81-1.568-3.81-3.905s1.376-4.178,3.633-4.178c2.529,0,3.201,2.225,3.201,3.649
			c0,0.288-0.032,0.512-0.048,0.656H124.03z M128.16,34.983c0.016-0.896-0.368-2.289-1.953-2.289c-1.425,0-2.049,1.313-2.161,2.289
			H128.16z"/>
		<path fill="#221E1F" d="M141.344,28.245v9.363c0,0.688,0.016,1.473,0.064,2.001h-1.265l-0.064-1.345h-0.032
			c-0.432,0.864-1.376,1.521-2.641,1.521c-1.873,0-3.313-1.584-3.313-3.938c-0.016-2.577,1.584-4.161,3.473-4.161
			c1.185,0,1.985,0.56,2.337,1.185h0.032v-4.626H141.344z M139.936,35.015c0-0.176-0.016-0.416-0.064-0.593
			c-0.208-0.896-0.977-1.632-2.033-1.632c-1.457,0-2.321,1.28-2.321,2.993c0,1.568,0.769,2.865,2.289,2.865
			c0.944,0,1.809-0.625,2.065-1.681c0.048-0.192,0.064-0.385,0.064-0.608V35.015z"/>
		<path fill="#221E1F" d="M144.461,35.992c0.032,1.904,1.249,2.688,2.657,2.688c1.008,0,1.617-0.176,2.145-0.399l0.24,1.008
			c-0.496,0.225-1.344,0.48-2.577,0.48c-2.385,0-3.81-1.568-3.81-3.905s1.376-4.178,3.633-4.178c2.529,0,3.201,2.225,3.201,3.649
			c0,0.288-0.032,0.512-0.048,0.656H144.461z M148.591,34.983c0.016-0.896-0.368-2.289-1.953-2.289
			c-1.425,0-2.049,1.313-2.161,2.289H148.591z"/>
		<path fill="#221E1F" d="M156.782,29.637v2.225h2.017v1.072h-2.017v4.178c0,0.96,0.272,1.505,1.056,1.505
			c0.368,0,0.641-0.048,0.816-0.097l0.064,1.057c-0.272,0.112-0.704,0.192-1.249,0.192c-0.656,0-1.184-0.208-1.521-0.593
			c-0.4-0.416-0.544-1.104-0.544-2.017v-4.226h-1.201v-1.072h1.201v-1.856L156.782,29.637z"/>
		<path fill="#221E1F" d="M161.069,35.992c0.032,1.904,1.249,2.688,2.657,2.688c1.008,0,1.617-0.176,2.145-0.399l0.24,1.008
			c-0.496,0.225-1.344,0.48-2.577,0.48c-2.385,0-3.81-1.568-3.81-3.905s1.376-4.178,3.633-4.178c2.529,0,3.201,2.225,3.201,3.649
			c0,0.288-0.032,0.512-0.048,0.656H161.069z M165.199,34.983c0.016-0.896-0.368-2.289-1.953-2.289
			c-1.425,0-2.049,1.313-2.161,2.289H165.199z"/>
		<path fill="#221E1F" d="M168.909,31.862l1.104,1.665c0.288,0.432,0.528,0.832,0.784,1.264h0.048
			c0.256-0.464,0.512-0.864,0.768-1.28l1.088-1.648h1.521l-2.641,3.745l2.721,4.002h-1.601l-1.136-1.745
			c-0.304-0.448-0.561-0.88-0.833-1.344h-0.032c-0.256,0.464-0.528,0.88-0.816,1.344l-1.121,1.745h-1.553l2.753-3.953l-2.625-3.794
			H168.909z"/>
		<path fill="#221E1F" d="M177.565,29.637v2.225h2.017v1.072h-2.017v4.178c0,0.96,0.272,1.505,1.056,1.505
			c0.368,0,0.641-0.048,0.816-0.097l0.064,1.057c-0.272,0.112-0.704,0.192-1.249,0.192c-0.656,0-1.184-0.208-1.521-0.593
			c-0.4-0.416-0.544-1.104-0.544-2.017v-4.226h-1.201v-1.072h1.201v-1.856L177.565,29.637z"/>
		<path fill="#221E1F" d="M188.08,35.671c0,2.865-1.985,4.113-3.857,4.113c-2.097,0-3.713-1.536-3.713-3.985
			c0-2.593,1.696-4.113,3.841-4.113C186.575,31.686,188.08,33.302,188.08,35.671z M181.933,35.751c0,1.696,0.977,2.978,2.353,2.978
			c1.345,0,2.353-1.265,2.353-3.01c0-1.313-0.656-2.978-2.321-2.978C182.653,32.742,181.933,34.279,181.933,35.751z"/>
		<path fill="#221E1F" d="M31.513,55.609l-0.112-0.977h-0.048c-0.433,0.608-1.265,1.152-2.369,1.152
			c-1.569,0-2.369-1.104-2.369-2.225c0-1.873,1.665-2.897,4.658-2.881v-0.16c0-0.641-0.176-1.793-1.761-1.793
			c-0.72,0-1.473,0.225-2.017,0.576l-0.32-0.929c0.64-0.416,1.568-0.688,2.545-0.688c2.369,0,2.945,1.616,2.945,3.169v2.897
			c0,0.672,0.032,1.328,0.128,1.856H31.513z M31.305,51.656c-1.537-0.032-3.281,0.239-3.281,1.744c0,0.912,0.608,1.345,1.329,1.345
			c1.008,0,1.648-0.641,1.873-1.297c0.048-0.144,0.08-0.304,0.08-0.448V51.656z"/>
		<path fill="#221E1F" d="M34.936,44.245h1.409v11.364h-1.409V44.245z"/>
		<path fill="#221E1F" d="M42.647,47.862l1.521,4.354c0.256,0.704,0.464,1.345,0.624,1.985h0.048c0.176-0.641,0.4-1.281,0.656-1.985
			l1.504-4.354h1.473l-3.041,7.747h-1.345l-2.945-7.747H42.647z"/>
		<path fill="#221E1F" d="M54.024,55.609l-0.112-0.977h-0.048c-0.432,0.608-1.265,1.152-2.369,1.152
			c-1.569,0-2.369-1.104-2.369-2.225c0-1.873,1.665-2.897,4.658-2.881v-0.16c0-0.641-0.176-1.793-1.761-1.793
			c-0.72,0-1.473,0.225-2.017,0.576l-0.32-0.929c0.64-0.416,1.568-0.688,2.545-0.688c2.369,0,2.945,1.616,2.945,3.169v2.897
			c0,0.672,0.032,1.328,0.128,1.856H54.024z M53.816,51.656c-1.537-0.032-3.281,0.239-3.281,1.744c0,0.912,0.608,1.345,1.329,1.345
			c1.008,0,1.648-0.641,1.873-1.297c0.048-0.144,0.08-0.304,0.08-0.448V51.656z"/>
		<path fill="#221E1F" d="M57.447,44.245h1.409v11.364h-1.409V44.245z"/>
		<path fill="#221E1F" d="M68.233,51.671c0,2.865-1.985,4.113-3.857,4.113c-2.097,0-3.713-1.536-3.713-3.985
			c0-2.593,1.697-4.113,3.841-4.113C66.729,47.686,68.233,49.302,68.233,51.671z M62.087,51.751c0,1.696,0.977,2.978,2.353,2.978
			c1.345,0,2.353-1.265,2.353-3.01c0-1.313-0.656-2.978-2.321-2.978C62.807,48.742,62.087,50.279,62.087,51.751z"/>
		<path fill="#221E1F" d="M70.007,50.279c0-0.912-0.016-1.696-0.064-2.417h1.232l0.048,1.521h0.064
			c0.352-1.04,1.2-1.696,2.145-1.696c0.16,0,0.272,0.016,0.4,0.048v1.328c-0.144-0.032-0.288-0.048-0.48-0.048
			c-0.992,0-1.697,0.752-1.889,1.809c-0.032,0.192-0.064,0.416-0.064,0.656v4.13h-1.393V50.279z"/>
		<path fill="#221E1F" d="M85.322,44.245v9.363c0,0.688,0.016,1.473,0.064,2.001h-1.265l-0.064-1.345h-0.032
			c-0.432,0.864-1.376,1.521-2.641,1.521c-1.873,0-3.313-1.584-3.313-3.938c-0.016-2.577,1.584-4.161,3.473-4.161
			c1.185,0,1.985,0.56,2.337,1.185h0.032v-4.626H85.322z M83.913,51.015c0-0.176-0.016-0.416-0.064-0.593
			c-0.208-0.896-0.977-1.632-2.033-1.632c-1.457,0-2.321,1.28-2.321,2.993c0,1.568,0.769,2.865,2.289,2.865
			c0.944,0,1.809-0.625,2.065-1.681c0.048-0.192,0.064-0.385,0.064-0.608V51.015z"/>
		<path fill="#221E1F" d="M88.439,51.992c0.032,1.904,1.249,2.688,2.657,2.688c1.008,0,1.617-0.176,2.145-0.399l0.24,1.008
			c-0.496,0.225-1.344,0.48-2.577,0.48c-2.385,0-3.81-1.568-3.81-3.905s1.376-4.178,3.633-4.178c2.529,0,3.201,2.225,3.201,3.649
			c0,0.288-0.032,0.512-0.048,0.656H88.439z M92.569,50.983c0.016-0.896-0.368-2.289-1.953-2.289c-1.425,0-2.049,1.313-2.161,2.289
			H92.569z"/>
		<path fill="#221E1F" d="M99.063,44.245h1.409v11.364h-1.409V44.245z"/>
		<path fill="#221E1F" d="M107.128,55.609l-0.112-0.977h-0.048c-0.432,0.608-1.265,1.152-2.369,1.152
			c-1.569,0-2.369-1.104-2.369-2.225c0-1.873,1.665-2.897,4.658-2.881v-0.16c0-0.641-0.176-1.793-1.761-1.793
			c-0.72,0-1.473,0.225-2.017,0.576l-0.32-0.929c0.64-0.416,1.568-0.688,2.545-0.688c2.369,0,2.945,1.616,2.945,3.169v2.897
			c0,0.672,0.032,1.328,0.128,1.856H107.128z M106.92,51.656c-1.537-0.032-3.281,0.239-3.281,1.744c0,0.912,0.608,1.345,1.329,1.345
			c1.008,0,1.648-0.641,1.873-1.297c0.048-0.144,0.08-0.304,0.08-0.448V51.656z"/>
		<path fill="#221E1F" d="M119.465,55.321c-0.368,0.192-1.185,0.448-2.225,0.448c-2.337,0-3.857-1.585-3.857-3.954
			c0-2.385,1.632-4.113,4.162-4.113c0.832,0,1.568,0.208,1.953,0.4l-0.32,1.088c-0.336-0.191-0.865-0.368-1.633-0.368
			c-1.777,0-2.737,1.313-2.737,2.93c0,1.793,1.152,2.897,2.689,2.897c0.801,0,1.329-0.209,1.729-0.385L119.465,55.321z"/>
		<path fill="#221E1F" d="M128.025,51.671c0,2.865-1.985,4.113-3.857,4.113c-2.097,0-3.713-1.536-3.713-3.985
			c0-2.593,1.696-4.113,3.841-4.113C126.521,47.686,128.025,49.302,128.025,51.671z M121.878,51.751
			c0,1.696,0.977,2.978,2.353,2.978c1.345,0,2.353-1.265,2.353-3.01c0-1.313-0.656-2.978-2.321-2.978
			C122.599,48.742,121.878,50.279,121.878,51.751z"/>
		<path fill="#221E1F" d="M129.798,49.958c0-0.8-0.016-1.456-0.064-2.097h1.249l0.08,1.28h0.032
			c0.384-0.736,1.281-1.456,2.561-1.456c1.073,0,2.737,0.64,2.737,3.297v4.626h-1.409v-4.466c0-1.248-0.464-2.289-1.792-2.289
			c-0.929,0-1.649,0.656-1.889,1.44c-0.064,0.177-0.096,0.416-0.096,0.656v4.658h-1.409V49.958z"/>
		<path fill="#221E1F" d="M138.486,54.168c0.416,0.271,1.152,0.561,1.856,0.561c1.024,0,1.505-0.513,1.505-1.153
			c0-0.672-0.4-1.04-1.441-1.424c-1.393-0.496-2.049-1.265-2.049-2.193c0-1.248,1.009-2.272,2.673-2.272
			c0.784,0,1.473,0.224,1.905,0.479l-0.352,1.024c-0.304-0.191-0.865-0.448-1.585-0.448c-0.832,0-1.296,0.48-1.296,1.057
			c0,0.641,0.464,0.929,1.473,1.313c1.345,0.513,2.033,1.185,2.033,2.337c0,1.36-1.056,2.321-2.897,2.321
			c-0.849,0-1.633-0.208-2.177-0.528L138.486,54.168z"/>
		<path fill="#221E1F" d="M151.497,53.496c0,0.801,0.016,1.505,0.064,2.113h-1.249l-0.08-1.265H150.2
			c-0.368,0.624-1.185,1.44-2.561,1.44c-1.216,0-2.673-0.672-2.673-3.394v-4.529h1.408v4.29c0,1.473,0.448,2.465,1.729,2.465
			c0.944,0,1.601-0.656,1.856-1.28c0.08-0.209,0.128-0.465,0.128-0.721v-4.754h1.408V53.496z"/>
		<path fill="#221E1F" d="M153.831,44.245h1.409v11.364h-1.409V44.245z"/>
		<path fill="#221E1F" d="M159.303,45.637v2.225h2.017v1.072h-2.017v4.178c0,0.96,0.272,1.505,1.056,1.505
			c0.368,0,0.641-0.048,0.816-0.097l0.064,1.057c-0.272,0.112-0.704,0.192-1.249,0.192c-0.656,0-1.184-0.208-1.521-0.593
			c-0.4-0.416-0.544-1.104-0.544-2.017v-4.226h-1.201v-1.072h1.201v-1.856L159.303,45.637z"/>
		<path fill="#221E1F" d="M167.191,55.609l-0.112-0.977h-0.048c-0.432,0.608-1.265,1.152-2.369,1.152
			c-1.569,0-2.369-1.104-2.369-2.225c0-1.873,1.665-2.897,4.658-2.881v-0.16c0-0.641-0.176-1.793-1.761-1.793
			c-0.72,0-1.473,0.225-2.017,0.576l-0.32-0.929c0.64-0.416,1.568-0.688,2.545-0.688c2.369,0,2.945,1.616,2.945,3.169v2.897
			c0,0.672,0.032,1.328,0.128,1.856H167.191z M166.983,51.656c-1.537-0.032-3.281,0.239-3.281,1.744
			c0,0.912,0.608,1.345,1.329,1.345c1.008,0,1.648-0.641,1.873-1.297c0.048-0.144,0.08-0.304,0.08-0.448V51.656z"/>
		<path fill="#221E1F" d="M170.278,54.777c0-0.593,0.4-1.009,0.96-1.009c0.56,0,0.944,0.416,0.944,1.009
			c0,0.576-0.368,1.008-0.96,1.008C170.662,55.785,170.278,55.353,170.278,54.777z"/>
	</g>
</g>
</svg>