<!-- Generator: Adobe Illustrator 17.0.0, SVG Export Plug-In  -->
<svg version="1.1"
	 xmlns="http://www.w3.org/2000/svg" xmlns:xlink="http://www.w3.org/1999/xlink" xmlns:a="http://ns.adobe.com/AdobeSVGViewerExtensions/3.0/"
	 x="0px" y="0px" width="199.091px" height="112.917px" viewBox="0 0 199.091 112.917" enable-background="new 0 0 199.091 112.917"
	 xml:space="preserve">
<defs>
</defs>
<polygon fill="#F1F1F1" stroke="#000000" stroke-width="2" stroke-linecap="round" stroke-linejoin="round" stroke-miterlimit="10" points="
	198.091,1 1,1 1,75.406 126.987,75.406 126.987,111.917 163.5,75.406 198.091,75.406 "/>
<g>
	<g>
		<path fill="#221E1F" d="M53.747,18.102c0,3.713-2.257,5.682-5.01,5.682c-2.849,0-4.85-2.209-4.85-5.474
			c0-3.426,2.129-5.667,5.01-5.667C51.842,12.643,53.747,14.901,53.747,18.102z M45.375,18.278c0,2.305,1.249,4.37,3.441,4.37
			c2.209,0,3.458-2.033,3.458-4.482c0-2.145-1.121-4.386-3.441-4.386C46.528,13.78,45.375,15.909,45.375,18.278z"/>
		<path fill="#221E1F" d="M56.896,19.415h0.032c0.192-0.272,0.464-0.608,0.688-0.881l2.273-2.673h1.697l-2.993,3.186l3.409,4.562
			h-1.712l-2.673-3.714l-0.72,0.801v2.913h-1.393V12.244h1.393V19.415z"/>
		<path fill="#221E1F" d="M62.895,22.776c0-0.593,0.4-1.009,0.96-1.009c0.56,0,0.944,0.416,0.944,1.009
			c0,0.576-0.368,1.008-0.96,1.008C63.279,23.784,62.895,23.352,62.895,22.776z"/>
		<path fill="#221E1F" d="M69.982,12.948c0.672-0.112,1.553-0.208,2.673-0.208c1.376,0,2.385,0.32,3.025,0.896
			c0.592,0.512,0.944,1.296,0.944,2.257c0,0.977-0.288,1.744-0.833,2.305c-0.736,0.784-1.937,1.185-3.297,1.185
			c-0.416,0-0.8-0.017-1.121-0.096v4.321h-1.393V12.948z M71.375,18.15c0.304,0.08,0.688,0.112,1.153,0.112
			c1.681,0,2.705-0.816,2.705-2.306c0-1.424-1.009-2.112-2.545-2.112c-0.608,0-1.072,0.048-1.313,0.111V18.15z"/>
		<path fill="#221E1F" d="M78.831,19.991c0.032,1.904,1.249,2.688,2.657,2.688c1.008,0,1.617-0.176,2.145-0.399l0.24,1.008
			c-0.496,0.225-1.344,0.48-2.577,0.48c-2.385,0-3.81-1.568-3.81-3.905s1.376-4.178,3.633-4.178c2.529,0,3.201,2.225,3.201,3.649
			c0,0.288-0.032,0.512-0.048,0.656H78.831z M82.96,18.982c0.016-0.896-0.368-2.289-1.953-2.289c-1.425,0-2.049,1.313-2.161,2.289
			H82.96z"/>
		<path fill="#221E1F" d="M86.062,18.278c0-0.912-0.016-1.696-0.064-2.417h1.232l0.048,1.521h0.064
			c0.352-1.04,1.2-1.696,2.145-1.696c0.16,0,0.272,0.016,0.4,0.048v1.328c-0.144-0.032-0.288-0.048-0.48-0.048
			c-0.992,0-1.696,0.752-1.889,1.809c-0.032,0.192-0.064,0.416-0.064,0.656v4.13h-1.393V18.278z"/>
		<path fill="#221E1F" d="M98.145,19.671c0,2.865-1.985,4.113-3.857,4.113c-2.097,0-3.713-1.536-3.713-3.985
			c0-2.593,1.697-4.113,3.841-4.113C96.64,15.685,98.145,17.302,98.145,19.671z M91.998,19.751c0,1.696,0.977,2.978,2.353,2.978
			c1.345,0,2.353-1.265,2.353-3.01c0-1.313-0.656-2.978-2.321-2.978C92.718,16.741,91.998,18.278,91.998,19.751z"/>
		<path fill="#221E1F" d="M103.309,18.39c0-0.993-0.032-1.793-0.064-2.529h1.265l0.064,1.328h0.032
			c0.576-0.944,1.489-1.504,2.753-1.504c1.873,0,3.281,1.584,3.281,3.938c0,2.785-1.697,4.161-3.521,4.161
			c-1.024,0-1.921-0.448-2.385-1.216h-0.032v4.209h-1.393V18.39z M104.702,20.455c0,0.208,0.032,0.4,0.064,0.576
			c0.256,0.977,1.104,1.648,2.113,1.648c1.489,0,2.353-1.216,2.353-2.993c0-1.553-0.816-2.881-2.305-2.881
			c-0.96,0-1.857,0.688-2.129,1.745c-0.048,0.176-0.096,0.384-0.096,0.576V20.455z"/>
		<path fill="#221E1F" d="M112.413,18.278c0-0.912-0.016-1.696-0.064-2.417h1.232l0.048,1.521h0.064
			c0.352-1.04,1.2-1.696,2.145-1.696c0.16,0,0.272,0.016,0.4,0.048v1.328c-0.144-0.032-0.288-0.048-0.48-0.048
			c-0.992,0-1.696,0.752-1.889,1.809c-0.032,0.192-0.064,0.416-0.064,0.656v4.13h-1.393V18.278z"/>
		<path fill="#221E1F" d="M119.277,13.684c0.016,0.48-0.336,0.864-0.896,0.864c-0.496,0-0.849-0.384-0.849-0.864
			c0-0.496,0.368-0.881,0.88-0.881C118.941,12.803,119.277,13.188,119.277,13.684z M117.708,23.608v-7.747h1.409v7.747H117.708z"/>
		<path fill="#221E1F" d="M121.452,17.958c0-0.8-0.016-1.456-0.064-2.097h1.232l0.064,1.248h0.048
			c0.432-0.736,1.152-1.424,2.433-1.424c1.057,0,1.857,0.64,2.193,1.553h0.032c0.24-0.433,0.544-0.769,0.864-1.009
			c0.464-0.353,0.977-0.544,1.713-0.544c1.024,0,2.545,0.672,2.545,3.361v4.562h-1.376v-4.386c0-1.488-0.544-2.385-1.681-2.385
			c-0.8,0-1.425,0.592-1.665,1.28c-0.064,0.192-0.112,0.448-0.112,0.704v4.786h-1.376v-4.642c0-1.232-0.544-2.129-1.617-2.129
			c-0.88,0-1.521,0.704-1.745,1.408c-0.08,0.208-0.112,0.448-0.112,0.688v4.674h-1.376V17.958z"/>
		<path fill="#221E1F" d="M135.58,19.991c0.032,1.904,1.249,2.688,2.657,2.688c1.008,0,1.617-0.176,2.145-0.399l0.24,1.008
			c-0.496,0.225-1.344,0.48-2.577,0.48c-2.385,0-3.81-1.568-3.81-3.905s1.376-4.178,3.633-4.178c2.529,0,3.201,2.225,3.201,3.649
			c0,0.288-0.032,0.512-0.048,0.656H135.58z M139.71,18.982c0.016-0.896-0.368-2.289-1.953-2.289c-1.425,0-2.049,1.313-2.161,2.289
			H139.71z"/>
		<path fill="#221E1F" d="M142.812,18.278c0-0.912-0.016-1.696-0.064-2.417h1.232l0.048,1.521h0.064
			c0.352-1.04,1.2-1.696,2.145-1.696c0.16,0,0.272,0.016,0.4,0.048v1.328c-0.144-0.032-0.288-0.048-0.48-0.048
			c-0.992,0-1.697,0.752-1.889,1.809c-0.032,0.192-0.064,0.416-0.064,0.656v4.13h-1.393V18.278z"/>
		<path fill="#221E1F" d="M154.894,19.671c0,2.865-1.985,4.113-3.857,4.113c-2.097,0-3.713-1.536-3.713-3.985
			c0-2.593,1.696-4.113,3.841-4.113C153.39,15.685,154.894,17.302,154.894,19.671z M148.748,19.751c0,1.696,0.977,2.978,2.353,2.978
			c1.345,0,2.353-1.265,2.353-3.01c0-1.313-0.656-2.978-2.321-2.978C149.468,16.741,148.748,18.278,148.748,19.751z"/>
		<path fill="#221E1F" d="M47.791,39.608v-6.675h-1.088v-1.072h1.088v-0.368c0-1.089,0.24-2.081,0.896-2.705
			c0.528-0.513,1.232-0.721,1.889-0.721c0.496,0,0.928,0.112,1.201,0.225l-0.192,1.088c-0.208-0.096-0.496-0.176-0.896-0.176
			c-1.2,0-1.504,1.057-1.504,2.241v0.416h1.873v1.072h-1.873v6.675H47.791z"/>
		<path fill="#221E1F" d="M59.122,35.671c0,2.865-1.985,4.113-3.857,4.113c-2.097,0-3.713-1.536-3.713-3.985
			c0-2.593,1.696-4.113,3.841-4.113C57.617,31.685,59.122,33.302,59.122,35.671z M52.975,35.751c0,1.696,0.977,2.978,2.353,2.978
			c1.345,0,2.353-1.265,2.353-3.01c0-1.313-0.656-2.978-2.321-2.978C53.695,32.741,52.975,34.278,52.975,35.751z"/>
		<path fill="#221E1F" d="M60.895,34.278c0-0.912-0.016-1.696-0.064-2.417h1.232l0.048,1.521h0.064
			c0.352-1.04,1.2-1.696,2.145-1.696c0.16,0,0.272,0.016,0.4,0.048v1.328c-0.144-0.032-0.288-0.048-0.48-0.048
			c-0.992,0-1.696,0.752-1.889,1.809c-0.032,0.192-0.064,0.416-0.064,0.656v4.13h-1.393V34.278z"/>
		<path fill="#221E1F" d="M66.191,33.958c0-0.8-0.016-1.456-0.064-2.097h1.232l0.064,1.248h0.048
			c0.432-0.736,1.152-1.424,2.433-1.424c1.057,0,1.857,0.64,2.193,1.553h0.032c0.24-0.433,0.544-0.769,0.864-1.009
			c0.464-0.353,0.977-0.544,1.713-0.544c1.024,0,2.545,0.672,2.545,3.361v4.562h-1.376v-4.386c0-1.488-0.544-2.385-1.681-2.385
			c-0.8,0-1.425,0.592-1.665,1.28c-0.064,0.192-0.112,0.448-0.112,0.704v4.786h-1.376v-4.642c0-1.232-0.544-2.129-1.617-2.129
			c-0.88,0-1.521,0.704-1.745,1.408c-0.08,0.208-0.112,0.448-0.112,0.688v4.674h-1.376V33.958z"/>
		<path fill="#221E1F" d="M83.825,39.608l-0.112-0.977h-0.048c-0.432,0.608-1.265,1.152-2.369,1.152
			c-1.569,0-2.369-1.104-2.369-2.225c0-1.873,1.665-2.897,4.658-2.881v-0.16c0-0.641-0.176-1.793-1.761-1.793
			c-0.72,0-1.473,0.225-2.017,0.576l-0.32-0.929c0.64-0.416,1.568-0.687,2.545-0.687c2.369,0,2.945,1.616,2.945,3.169v2.897
			c0,0.672,0.032,1.328,0.128,1.856H83.825z M83.617,35.655c-1.537-0.032-3.281,0.239-3.281,1.744c0,0.912,0.608,1.345,1.329,1.345
			c1.008,0,1.648-0.641,1.873-1.297c0.048-0.144,0.08-0.304,0.08-0.448V35.655z"/>
		<path fill="#221E1F" d="M87.248,28.244h1.409v11.364h-1.409V28.244z"/>
		<path fill="#221E1F" d="M92.592,29.684c0.016,0.48-0.336,0.864-0.896,0.864c-0.496,0-0.849-0.384-0.849-0.864
			c0-0.496,0.368-0.881,0.88-0.881C92.255,28.803,92.592,29.188,92.592,29.684z M91.023,39.608v-7.747h1.409v7.747H91.023z"/>
		<path fill="#221E1F" d="M100.29,39.32c-0.368,0.192-1.185,0.448-2.225,0.448c-2.337,0-3.857-1.585-3.857-3.954
			c0-2.385,1.632-4.113,4.162-4.113c0.832,0,1.568,0.208,1.953,0.4l-0.32,1.088c-0.336-0.191-0.864-0.368-1.632-0.368
			c-1.777,0-2.737,1.313-2.737,2.93c0,1.793,1.152,2.897,2.689,2.897c0.801,0,1.329-0.209,1.729-0.385L100.29,39.32z"/>
		<path fill="#221E1F" d="M102.623,35.991c0.032,1.904,1.249,2.688,2.657,2.688c1.008,0,1.617-0.176,2.145-0.399l0.24,1.008
			c-0.496,0.225-1.344,0.48-2.577,0.48c-2.385,0-3.81-1.568-3.81-3.905s1.376-4.178,3.633-4.178c2.529,0,3.201,2.225,3.201,3.649
			c0,0.288-0.032,0.512-0.048,0.656H102.623z M106.753,34.982c0.016-0.896-0.368-2.289-1.953-2.289
			c-1.425,0-2.049,1.313-2.161,2.289H106.753z"/>
		<path fill="#221E1F" d="M109.854,33.958c0-0.8-0.016-1.456-0.064-2.097h1.232l0.064,1.248h0.048
			c0.432-0.736,1.152-1.424,2.433-1.424c1.057,0,1.857,0.64,2.193,1.553h0.032c0.24-0.433,0.544-0.769,0.864-1.009
			c0.464-0.353,0.977-0.544,1.713-0.544c1.024,0,2.545,0.672,2.545,3.361v4.562h-1.376v-4.386c0-1.488-0.544-2.385-1.681-2.385
			c-0.8,0-1.425,0.592-1.665,1.28c-0.064,0.192-0.112,0.448-0.112,0.704v4.786h-1.376v-4.642c0-1.232-0.544-2.129-1.617-2.129
			c-0.88,0-1.521,0.704-1.745,1.408c-0.08,0.208-0.112,0.448-0.112,0.688v4.674h-1.376V33.958z"/>
		<path fill="#221E1F" d="M130.209,35.671c0,2.865-1.985,4.113-3.857,4.113c-2.097,0-3.713-1.536-3.713-3.985
			c0-2.593,1.697-4.113,3.841-4.113C128.705,31.685,130.209,33.302,130.209,35.671z M124.063,35.751
			c0,1.696,0.977,2.978,2.353,2.978c1.345,0,2.353-1.265,2.353-3.01c0-1.313-0.656-2.978-2.321-2.978
			C124.783,32.741,124.063,34.278,124.063,35.751z"/>
		<path fill="#221E1F" d="M131.791,38.168c0.416,0.271,1.152,0.561,1.856,0.561c1.024,0,1.505-0.513,1.505-1.153
			c0-0.672-0.4-1.04-1.441-1.424c-1.393-0.496-2.049-1.265-2.049-2.193c0-1.248,1.009-2.272,2.673-2.272
			c0.784,0,1.473,0.224,1.905,0.479l-0.352,1.024c-0.304-0.191-0.865-0.448-1.585-0.448c-0.832,0-1.296,0.48-1.296,1.057
			c0,0.641,0.464,0.929,1.473,1.313c1.345,0.513,2.033,1.185,2.033,2.337c0,1.36-1.056,2.321-2.897,2.321
			c-0.849,0-1.633-0.208-2.177-0.528L131.791,38.168z"/>
		<path fill="#221E1F" d="M142.494,35.991c0.032,1.904,1.249,2.688,2.657,2.688c1.008,0,1.617-0.176,2.145-0.399l0.24,1.008
			c-0.496,0.225-1.344,0.48-2.577,0.48c-2.385,0-3.81-1.568-3.81-3.905s1.376-4.178,3.633-4.178c2.529,0,3.201,2.225,3.201,3.649
			c0,0.288-0.032,0.512-0.048,0.656H142.494z M146.624,34.982c0.016-0.896-0.368-2.289-1.953-2.289
			c-1.425,0-2.049,1.313-2.161,2.289H146.624z"/>
		<path fill="#221E1F" d="M149.726,28.244h1.409v11.364h-1.409V28.244z"/>
		<path fill="#221E1F" d="M51.175,50.278c0-0.912-0.016-1.696-0.064-2.417h1.232l0.048,1.521h0.064
			c0.352-1.04,1.2-1.696,2.145-1.696c0.16,0,0.272,0.016,0.4,0.048v1.328c-0.144-0.032-0.288-0.048-0.48-0.048
			c-0.992,0-1.696,0.752-1.889,1.809c-0.032,0.192-0.064,0.416-0.064,0.656v4.13h-1.393V50.278z"/>
		<path fill="#221E1F" d="M57.032,51.991c0.032,1.904,1.249,2.688,2.657,2.688c1.008,0,1.617-0.176,2.145-0.399l0.24,1.008
			c-0.496,0.225-1.344,0.48-2.577,0.48c-2.385,0-3.81-1.568-3.81-3.905s1.376-4.178,3.633-4.178c2.529,0,3.201,2.225,3.201,3.649
			c0,0.288-0.032,0.512-0.048,0.656H57.032z M61.162,50.982c0.016-0.896-0.368-2.289-1.953-2.289c-1.425,0-2.049,1.313-2.161,2.289
			H61.162z"/>
		<path fill="#221E1F" d="M69.545,54.408h-0.032c-0.416,0.768-1.28,1.376-2.529,1.376c-1.809,0-3.281-1.568-3.281-3.921
			c0-2.897,1.873-4.178,3.505-4.178c1.2,0,2,0.592,2.385,1.344h0.032l0.048-1.168h1.329c-0.032,0.656-0.048,1.328-0.048,2.129v8.787
			h-1.409V54.408z M69.545,50.999c0-0.192-0.016-0.417-0.064-0.593c-0.208-0.864-0.96-1.601-2.017-1.601
			c-1.457,0-2.337,1.232-2.337,2.978c0,1.536,0.736,2.881,2.289,2.881c0.912,0,1.697-0.561,2.017-1.537
			c0.064-0.191,0.112-0.464,0.112-0.672V50.999z"/>
		<path fill="#221E1F" d="M79.753,53.495c0,0.801,0.016,1.505,0.064,2.113h-1.249l-0.08-1.265h-0.032
			c-0.368,0.624-1.185,1.44-2.561,1.44c-1.216,0-2.673-0.672-2.673-3.394v-4.529h1.408v4.29c0,1.473,0.448,2.465,1.729,2.465
			c0.944,0,1.601-0.656,1.856-1.28c0.08-0.209,0.128-0.465,0.128-0.721v-4.754h1.408V53.495z"/>
		<path fill="#221E1F" d="M82.872,51.991c0.032,1.904,1.249,2.688,2.657,2.688c1.008,0,1.617-0.176,2.145-0.399l0.24,1.008
			c-0.496,0.225-1.344,0.48-2.577,0.48c-2.385,0-3.81-1.568-3.81-3.905s1.376-4.178,3.633-4.178c2.529,0,3.201,2.225,3.201,3.649
			c0,0.288-0.032,0.512-0.048,0.656H82.872z M87.001,50.982c0.016-0.896-0.368-2.289-1.953-2.289c-1.425,0-2.049,1.313-2.161,2.289
			H87.001z"/>
		<path fill="#221E1F" d="M90.103,50.278c0-0.912-0.016-1.696-0.064-2.417h1.232l0.048,1.521h0.064
			c0.352-1.04,1.2-1.696,2.145-1.696c0.16,0,0.272,0.016,0.4,0.048v1.328c-0.144-0.032-0.288-0.048-0.48-0.048
			c-0.992,0-1.696,0.752-1.889,1.809c-0.032,0.192-0.064,0.416-0.064,0.656v4.13h-1.393V50.278z"/>
		<path fill="#221E1F" d="M96.968,45.684c0.016,0.48-0.336,0.864-0.896,0.864c-0.496,0-0.849-0.384-0.849-0.864
			c0-0.496,0.368-0.881,0.88-0.881C96.631,44.803,96.968,45.188,96.968,45.684z M95.399,55.608v-7.747h1.409v7.747H95.399z"/>
		<path fill="#221E1F" d="M99.143,49.958c0-0.8-0.016-1.456-0.064-2.097h1.232l0.064,1.248h0.048
			c0.432-0.736,1.152-1.424,2.433-1.424c1.057,0,1.857,0.64,2.193,1.553h0.032c0.24-0.433,0.544-0.769,0.864-1.009
			c0.464-0.353,0.977-0.544,1.713-0.544c1.024,0,2.545,0.672,2.545,3.361v4.562h-1.376v-4.386c0-1.488-0.544-2.385-1.681-2.385
			c-0.8,0-1.425,0.592-1.665,1.28c-0.064,0.192-0.112,0.448-0.112,0.704v4.786h-1.376v-4.642c0-1.232-0.544-2.129-1.617-2.129
			c-0.88,0-1.521,0.704-1.745,1.408c-0.08,0.208-0.112,0.448-0.112,0.688v4.674h-1.376V49.958z"/>
		<path fill="#221E1F" d="M114.056,45.684c0.016,0.48-0.336,0.864-0.896,0.864c-0.496,0-0.849-0.384-0.849-0.864
			c0-0.496,0.368-0.881,0.88-0.881C113.719,44.803,114.056,45.188,114.056,45.684z M112.487,55.608v-7.747h1.409v7.747H112.487z"/>
		<path fill="#221E1F" d="M117.015,51.991c0.032,1.904,1.249,2.688,2.657,2.688c1.008,0,1.617-0.176,2.145-0.399l0.24,1.008
			c-0.496,0.225-1.344,0.48-2.577,0.48c-2.385,0-3.81-1.568-3.81-3.905s1.376-4.178,3.633-4.178c2.529,0,3.201,2.225,3.201,3.649
			c0,0.288-0.032,0.512-0.048,0.656H117.015z M121.145,50.982c0.016-0.896-0.368-2.289-1.953-2.289
			c-1.425,0-2.049,1.313-2.161,2.289H121.145z"/>
		<path fill="#221E1F" d="M124.247,49.958c0-0.8-0.016-1.456-0.064-2.097h1.249l0.08,1.28h0.032
			c0.384-0.736,1.281-1.456,2.561-1.456c1.073,0,2.737,0.64,2.737,3.297v4.626h-1.409v-4.466c0-1.248-0.464-2.289-1.792-2.289
			c-0.929,0-1.649,0.656-1.889,1.44c-0.064,0.177-0.096,0.416-0.096,0.656v4.658h-1.409V49.958z"/>
		<path fill="#221E1F" d="M134.759,45.636v2.225h2.017v1.072h-2.017v4.178c0,0.96,0.272,1.505,1.056,1.505
			c0.368,0,0.641-0.048,0.816-0.097l0.064,1.057c-0.272,0.112-0.704,0.192-1.249,0.192c-0.656,0-1.184-0.208-1.521-0.593
			c-0.4-0.416-0.544-1.104-0.544-2.017v-4.226h-1.201v-1.072h1.201v-1.856L134.759,45.636z"/>
		<path fill="#221E1F" d="M145.273,51.671c0,2.865-1.985,4.113-3.857,4.113c-2.097,0-3.713-1.536-3.713-3.985
			c0-2.593,1.696-4.113,3.841-4.113C143.769,47.685,145.273,49.302,145.273,51.671z M139.126,51.751
			c0,1.696,0.977,2.978,2.353,2.978c1.345,0,2.353-1.265,2.353-3.01c0-1.313-0.656-2.978-2.321-2.978
			C139.847,48.741,139.126,50.278,139.126,51.751z"/>
		<path fill="#221E1F" d="M146.327,54.776c0-0.593,0.4-1.009,0.96-1.009c0.56,0,0.944,0.416,0.944,1.009
			c0,0.576-0.368,1.008-0.96,1.008C146.71,55.784,146.327,55.352,146.327,54.776z"/>
	</g>
</g>
</svg>