<!-- Generator: Adobe Illustrator 17.0.0, SVG Export Plug-In  -->
<svg version="1.1"
	 xmlns="http://www.w3.org/2000/svg" xmlns:xlink="http://www.w3.org/1999/xlink" xmlns:a="http://ns.adobe.com/AdobeSVGViewerExtensions/3.0/"
	 x="0px" y="0px" width="267.046px" height="151.161px" viewBox="0 0 267.046 151.161" enable-background="new 0 0 267.046 151.161"
	 xml:space="preserve">
<defs>
</defs>
<polygon fill="#F2F2F2" stroke="#000000" stroke-width="2" stroke-linecap="round" stroke-linejoin="round" stroke-miterlimit="10" points="
	1,1 266.046,1 266.046,101.058 96.618,101.058 96.618,150.161 47.518,101.058 1,101.058 "/>
<g>
	<path d="M72.263,58.075V41.036h6.393c1.302,0,2.346,0.173,3.132,0.518c0.786,0.345,1.402,0.876,1.848,1.592
		c0.446,0.717,0.668,1.467,0.668,2.249c0,0.729-0.198,1.414-0.593,2.058c-0.395,0.644-0.992,1.162-1.79,1.558
		c1.031,0.302,1.823,0.817,2.377,1.546c0.554,0.729,0.831,1.588,0.831,2.58c0,0.798-0.169,1.54-0.506,2.226
		c-0.337,0.686-0.754,1.215-1.25,1.587c-0.496,0.371-1.118,0.652-1.865,0.842c-0.748,0.19-1.664,0.285-2.749,0.285H72.263z
		 M74.518,48.196h3.684c1,0,1.716-0.066,2.15-0.198c0.573-0.17,1.005-0.453,1.296-0.849c0.291-0.395,0.436-0.891,0.436-1.487
		c0-0.565-0.136-1.063-0.407-1.493c-0.271-0.431-0.659-0.725-1.162-0.884c-0.504-0.158-1.368-0.238-2.592-0.238h-3.405V48.196z
		 M74.518,56.064h4.242c0.728,0,1.24-0.027,1.534-0.081c0.519-0.094,0.953-0.248,1.302-0.465s0.635-0.533,0.86-0.947
		c0.225-0.415,0.337-0.894,0.337-1.436c0-0.636-0.163-1.188-0.488-1.656s-0.777-0.798-1.354-0.988
		c-0.577-0.189-1.408-0.284-2.493-0.284h-3.94V56.064z"/>
	<path d="M96.055,58.075v-1.813c-0.961,1.396-2.266,2.093-3.917,2.093c-0.729,0-1.408-0.14-2.04-0.419
		c-0.632-0.278-1.1-0.629-1.406-1.052c-0.306-0.422-0.521-0.939-0.645-1.552c-0.085-0.41-0.128-1.062-0.128-1.952v-7.648h2.092
		v6.847c0,1.092,0.042,1.828,0.128,2.208c0.132,0.55,0.411,0.982,0.837,1.296c0.426,0.313,0.953,0.471,1.581,0.471
		c0.628,0,1.217-0.161,1.767-0.482c0.55-0.321,0.939-0.76,1.168-1.313s0.343-1.357,0.343-2.412v-6.613h2.092v12.344H96.055z"/>
	<path d="M109.654,54.101l2.162,0.267c-0.341,1.264-0.973,2.243-1.895,2.94c-0.922,0.698-2.1,1.047-3.533,1.047
		c-1.805,0-3.237-0.557-4.294-1.668c-1.058-1.112-1.587-2.672-1.587-4.679c0-2.076,0.535-3.688,1.604-4.835
		c1.069-1.146,2.456-1.72,4.161-1.72c1.651,0,2.999,0.562,4.045,1.686c1.046,1.123,1.569,2.704,1.569,4.741
		c0,0.124-0.004,0.311-0.011,0.559h-9.205c0.077,1.355,0.461,2.394,1.151,3.114s1.55,1.081,2.58,1.081
		c0.767,0,1.422-0.201,1.964-0.604C108.906,55.627,109.336,54.983,109.654,54.101z M102.785,50.718h6.892
		c-0.093-1.038-0.356-1.816-0.79-2.336c-0.667-0.806-1.531-1.209-2.592-1.209c-0.961,0-1.769,0.322-2.423,0.965
		C103.217,48.781,102.855,49.641,102.785,50.718z"/>
	<path d="M114.442,58.075V45.731h1.883v1.756c0.906-1.356,2.216-2.034,3.928-2.034c0.744,0,1.428,0.134,2.052,0.4
		c0.624,0.268,1.091,0.618,1.4,1.053c0.31,0.434,0.527,0.949,0.651,1.545c0.077,0.388,0.116,1.065,0.116,2.034v7.59h-2.092v-7.508
		c0-0.853-0.081-1.49-0.244-1.912c-0.163-0.423-0.451-0.76-0.866-1.012c-0.415-0.251-0.901-0.378-1.459-0.378
		c-0.891,0-1.66,0.283-2.307,0.849c-0.647,0.566-0.97,1.639-0.97,3.22v6.741H114.442z"/>
	<path d="M126.902,51.903c0-2.285,0.635-3.979,1.906-5.079c1.062-0.914,2.355-1.371,3.882-1.371c1.697,0,3.084,0.556,4.161,1.668
		c1.077,1.111,1.616,2.647,1.616,4.608c0,1.588-0.238,2.838-0.715,3.748s-1.17,1.617-2.081,2.121s-1.904,0.756-2.981,0.756
		c-1.728,0-3.125-0.555-4.19-1.662C127.435,55.584,126.902,53.988,126.902,51.903z M129.052,51.903c0,1.581,0.345,2.765,1.034,3.551
		c0.69,0.787,1.558,1.18,2.604,1.18c1.038,0,1.902-0.395,2.592-1.186c0.689-0.79,1.034-1.995,1.034-3.614
		c0-1.526-0.347-2.683-1.04-3.47c-0.694-0.786-1.556-1.18-2.586-1.18c-1.046,0-1.914,0.392-2.604,1.174
		C129.397,49.142,129.052,50.323,129.052,51.903z"/>
	<path d="M140.082,54.391l2.069-0.325c0.116,0.829,0.44,1.465,0.97,1.906s1.273,0.662,2.226,0.662c0.961,0,1.674-0.195,2.139-0.587
		c0.465-0.391,0.697-0.851,0.697-1.377c0-0.473-0.205-0.845-0.616-1.116c-0.287-0.186-1-0.422-2.139-0.709
		c-1.534-0.387-2.598-0.723-3.19-1.005c-0.593-0.283-1.042-0.675-1.348-1.174c-0.306-0.5-0.459-1.052-0.459-1.656
		c0-0.551,0.126-1.06,0.378-1.528c0.252-0.469,0.594-0.858,1.029-1.168c0.325-0.24,0.769-0.444,1.331-0.61
		c0.562-0.167,1.164-0.25,1.807-0.25c0.969,0,1.819,0.14,2.551,0.418c0.732,0.279,1.273,0.657,1.621,1.134
		c0.349,0.477,0.589,1.113,0.721,1.911l-2.046,0.279c-0.093-0.635-0.362-1.131-0.808-1.487c-0.446-0.356-1.075-0.535-1.889-0.535
		c-0.961,0-1.646,0.159-2.057,0.477c-0.411,0.318-0.616,0.69-0.616,1.116c0,0.271,0.085,0.516,0.256,0.732
		c0.17,0.225,0.438,0.41,0.802,0.558c0.209,0.077,0.825,0.256,1.848,0.534c1.48,0.396,2.512,0.719,3.097,0.971
		c0.585,0.252,1.044,0.618,1.377,1.099c0.333,0.48,0.5,1.077,0.5,1.79c0,0.697-0.203,1.354-0.61,1.97s-0.994,1.093-1.761,1.43
		c-0.767,0.337-1.635,0.506-2.603,0.506c-1.604,0-2.826-0.333-3.667-1C140.851,56.688,140.314,55.7,140.082,54.391z"/>
	<path d="M167.442,58.075v-1.558c-0.783,1.225-1.933,1.837-3.452,1.837c-0.984,0-1.889-0.271-2.714-0.813
		c-0.825-0.543-1.465-1.3-1.918-2.272c-0.453-0.973-0.68-2.09-0.68-3.354c0-1.231,0.205-2.35,0.616-3.354
		c0.41-1.003,1.027-1.772,1.848-2.307s1.74-0.802,2.755-0.802c0.744,0,1.406,0.156,1.988,0.471c0.581,0.313,1.053,0.723,1.418,1.226
		v-6.113h2.08v17.039H167.442z M160.829,51.915c0,1.581,0.333,2.763,1,3.545c0.666,0.783,1.453,1.174,2.359,1.174
		c0.914,0,1.691-0.374,2.33-1.121c0.639-0.748,0.959-1.889,0.959-3.423c0-1.689-0.325-2.93-0.976-3.72s-1.453-1.186-2.406-1.186
		c-0.93,0-1.707,0.38-2.33,1.14C161.14,49.083,160.829,50.28,160.829,51.915z"/>
	<path d="M173.3,44.197l1.546-3.254h2.743l-2.557,3.254H173.3z M173.404,58.075V45.731h2.092v12.344H173.404z"/>
	<path d="M187.34,56.553c-0.775,0.658-1.521,1.123-2.237,1.395c-0.717,0.271-1.486,0.407-2.307,0.407
		c-1.356,0-2.398-0.332-3.126-0.994c-0.729-0.662-1.093-1.509-1.093-2.539c0-0.604,0.137-1.157,0.413-1.656
		c0.275-0.5,0.635-0.901,1.081-1.203c0.446-0.303,0.947-0.531,1.505-0.686c0.411-0.108,1.031-0.214,1.86-0.314
		c1.689-0.201,2.933-0.441,3.731-0.721c0.008-0.286,0.012-0.469,0.012-0.546c0-0.853-0.198-1.453-0.593-1.802
		c-0.535-0.473-1.329-0.709-2.383-0.709c-0.984,0-1.71,0.173-2.179,0.518s-0.815,0.955-1.04,1.83l-2.045-0.278
		c0.186-0.876,0.492-1.583,0.918-2.121c0.426-0.539,1.042-0.953,1.848-1.244c0.806-0.29,1.74-0.436,2.801-0.436
		c1.054,0,1.91,0.124,2.569,0.372s1.143,0.56,1.453,0.936c0.31,0.376,0.527,0.851,0.651,1.424c0.07,0.356,0.105,0.999,0.105,1.929
		v2.79c0,1.944,0.044,3.175,0.134,3.69c0.089,0.515,0.265,1.009,0.529,1.481h-2.185C187.541,57.642,187.402,57.134,187.34,56.553z
		 M187.166,51.88c-0.76,0.311-1.898,0.574-3.417,0.791c-0.86,0.124-1.469,0.264-1.825,0.418c-0.357,0.155-0.632,0.382-0.825,0.68
		c-0.194,0.299-0.291,0.63-0.291,0.994c0,0.558,0.211,1.022,0.634,1.395c0.422,0.372,1.04,0.559,1.854,0.559
		c0.806,0,1.523-0.177,2.15-0.529c0.628-0.353,1.089-0.835,1.383-1.447c0.225-0.473,0.337-1.17,0.337-2.092V51.88z"/>
	<path d="M191.687,54.391l2.069-0.325c0.116,0.829,0.44,1.465,0.97,1.906s1.273,0.662,2.226,0.662c0.961,0,1.674-0.195,2.139-0.587
		c0.465-0.391,0.697-0.851,0.697-1.377c0-0.473-0.205-0.845-0.616-1.116c-0.287-0.186-1-0.422-2.139-0.709
		c-1.534-0.387-2.598-0.723-3.19-1.005c-0.593-0.283-1.042-0.675-1.348-1.174c-0.306-0.5-0.459-1.052-0.459-1.656
		c0-0.551,0.126-1.06,0.378-1.528c0.252-0.469,0.594-0.858,1.029-1.168c0.325-0.24,0.769-0.444,1.331-0.61
		c0.562-0.167,1.164-0.25,1.807-0.25c0.969,0,1.819,0.14,2.551,0.418c0.732,0.279,1.273,0.657,1.621,1.134
		c0.349,0.477,0.589,1.113,0.721,1.911l-2.046,0.279c-0.093-0.635-0.362-1.131-0.808-1.487c-0.446-0.356-1.075-0.535-1.889-0.535
		c-0.961,0-1.646,0.159-2.057,0.477c-0.411,0.318-0.616,0.69-0.616,1.116c0,0.271,0.085,0.516,0.256,0.732
		c0.17,0.225,0.438,0.41,0.802,0.558c0.209,0.077,0.825,0.256,1.848,0.534c1.48,0.396,2.512,0.719,3.097,0.971
		c0.585,0.252,1.044,0.618,1.377,1.099c0.333,0.48,0.5,1.077,0.5,1.79c0,0.697-0.203,1.354-0.61,1.97s-0.994,1.093-1.761,1.43
		c-0.767,0.337-1.635,0.506-2.603,0.506c-1.604,0-2.826-0.333-3.667-1C192.456,56.688,191.919,55.7,191.687,54.391z"/>
</g>
</svg>