<!-- Generator: Adobe Illustrator 17.0.0, SVG Export Plug-In  -->
<svg version="1.1"
	 xmlns="http://www.w3.org/2000/svg" xmlns:xlink="http://www.w3.org/1999/xlink" xmlns:a="http://ns.adobe.com/AdobeSVGViewerExtensions/3.0/"
	 x="0px" y="0px" width="289.804px" height="102.063px" viewBox="0 0 289.804 102.063" enable-background="new 0 0 289.804 102.063"
	 xml:space="preserve">
<defs>
</defs>
<polygon fill="#F2F2F2" stroke="#000000" stroke-width="2" stroke-linecap="round" stroke-linejoin="round" stroke-miterlimit="10" points="
	1,1 288.804,1 288.804,68.122 65.145,68.122 65.145,101.063 32.206,68.122 1,68.122 "/>
<g>
	<path d="M30.136,6.545h-3.281V5.36h7.987v1.185h-3.297v9.604h-1.409V6.545z"/>
	<path d="M35.639,12.531c0.032,1.904,1.249,2.688,2.657,2.688c1.008,0,1.617-0.176,2.145-0.399l0.24,1.008
		c-0.496,0.225-1.344,0.48-2.577,0.48c-2.385,0-3.81-1.568-3.81-3.905s1.376-4.178,3.633-4.178c2.529,0,3.201,2.225,3.201,3.649
		c0,0.288-0.032,0.512-0.048,0.656H35.639z M39.769,11.522c0.016-0.896-0.368-2.289-1.953-2.289c-1.425,0-2.049,1.313-2.161,2.289
		H39.769z"/>
	<path d="M42.871,10.498c0-0.8-0.016-1.456-0.064-2.097h1.249l0.08,1.28h0.032c0.384-0.736,1.281-1.456,2.561-1.456
		c1.073,0,2.737,0.64,2.737,3.297v4.626h-1.409v-4.466c0-1.248-0.464-2.289-1.792-2.289c-0.929,0-1.649,0.656-1.889,1.44
		c-0.064,0.177-0.096,0.416-0.096,0.656v4.658h-1.409V10.498z"/>
	<path d="M58.425,8.401c-0.032,0.561-0.064,1.185-0.064,2.129v4.498c0,1.776-0.353,2.865-1.104,3.537
		c-0.752,0.704-1.841,0.929-2.817,0.929c-0.928,0-1.953-0.225-2.577-0.641l0.353-1.072c0.512,0.32,1.313,0.608,2.273,0.608
		c1.44,0,2.497-0.753,2.497-2.705V14.82h-0.032c-0.432,0.72-1.265,1.296-2.465,1.296c-1.921,0-3.297-1.633-3.297-3.777
		c0-2.625,1.712-4.113,3.489-4.113c1.345,0,2.081,0.704,2.417,1.344h0.032l0.064-1.168H58.425z M56.969,11.459
		c0-0.24-0.016-0.448-0.08-0.641c-0.256-0.816-0.944-1.488-1.969-1.488c-1.345,0-2.305,1.136-2.305,2.929
		c0,1.521,0.769,2.785,2.289,2.785c0.864,0,1.648-0.544,1.953-1.44c0.08-0.24,0.112-0.513,0.112-0.752V11.459z"/>
	<path d="M67.705,12.211c0,2.865-1.985,4.113-3.857,4.113c-2.097,0-3.713-1.536-3.713-3.985c0-2.593,1.696-4.113,3.841-4.113
		C66.2,8.226,67.705,9.842,67.705,12.211z M61.558,12.291c0,1.696,0.977,2.978,2.353,2.978c1.345,0,2.353-1.265,2.353-3.01
		c0-1.313-0.656-2.978-2.321-2.978C62.278,9.281,61.558,10.818,61.558,12.291z"/>
	<path d="M72.87,10.931c0-0.993-0.032-1.793-0.064-2.529h1.265l0.064,1.328h0.032c0.576-0.944,1.489-1.504,2.753-1.504
		c1.873,0,3.281,1.584,3.281,3.938c0,2.785-1.697,4.161-3.521,4.161c-1.024,0-1.921-0.448-2.385-1.216h-0.032v4.209H72.87V10.931z
		 M74.262,12.995c0,0.208,0.032,0.4,0.064,0.576c0.256,0.977,1.104,1.648,2.113,1.648c1.489,0,2.353-1.216,2.353-2.993
		c0-1.553-0.816-2.881-2.305-2.881c-0.96,0-1.857,0.688-2.129,1.745c-0.048,0.176-0.096,0.384-0.096,0.576V12.995z"/>
	<path d="M81.973,10.818c0-0.912-0.016-1.696-0.064-2.417h1.232l0.048,1.521h0.064c0.352-1.04,1.2-1.696,2.145-1.696
		c0.16,0,0.272,0.016,0.4,0.048v1.328c-0.144-0.032-0.288-0.048-0.48-0.048c-0.992,0-1.696,0.752-1.889,1.809
		c-0.032,0.192-0.064,0.416-0.064,0.656v4.13h-1.393V10.818z"/>
	<path d="M94.056,12.211c0,2.865-1.985,4.113-3.857,4.113c-2.097,0-3.713-1.536-3.713-3.985c0-2.593,1.697-4.113,3.841-4.113
		C92.551,8.226,94.056,9.842,94.056,12.211z M87.909,12.291c0,1.696,0.977,2.978,2.353,2.978c1.345,0,2.353-1.265,2.353-3.01
		c0-1.313-0.656-2.978-2.321-2.978C88.629,9.281,87.909,10.818,87.909,12.291z"/>
	<path d="M95.765,16.148c0.032-0.528,0.064-1.313,0.064-2.001V4.784h1.393v4.865h0.032c0.496-0.864,1.393-1.424,2.641-1.424
		c1.921,0,3.282,1.601,3.266,3.953c0,2.77-1.745,4.146-3.474,4.146c-1.12,0-2.017-0.432-2.593-1.456h-0.048l-0.064,1.28H95.765z
		 M97.221,13.043c0,0.177,0.032,0.353,0.064,0.513c0.272,0.977,1.088,1.648,2.113,1.648c1.473,0,2.353-1.2,2.353-2.978
		c0-1.553-0.8-2.881-2.305-2.881c-0.96,0-1.857,0.656-2.145,1.729c-0.032,0.16-0.08,0.353-0.08,0.576V13.043z"/>
	<path d="M104.932,4.784h1.409v11.364h-1.409V4.784z"/>
	<path d="M109.492,12.531c0.032,1.904,1.249,2.688,2.657,2.688c1.008,0,1.617-0.176,2.145-0.399l0.24,1.008
		c-0.496,0.225-1.344,0.48-2.577,0.48c-2.385,0-3.81-1.568-3.81-3.905s1.376-4.178,3.633-4.178c2.529,0,3.201,2.225,3.201,3.649
		c0,0.288-0.032,0.512-0.048,0.656H109.492z M113.622,11.522c0.016-0.896-0.368-2.289-1.953-2.289c-1.425,0-2.049,1.313-2.161,2.289
		H113.622z"/>
	<path d="M116.724,10.498c0-0.8-0.016-1.456-0.064-2.097h1.232l0.064,1.248h0.048c0.432-0.736,1.152-1.424,2.433-1.424
		c1.057,0,1.857,0.64,2.193,1.553h0.032c0.24-0.433,0.544-0.769,0.864-1.009c0.464-0.353,0.977-0.544,1.713-0.544
		c1.024,0,2.545,0.672,2.545,3.361v4.562h-1.376v-4.386c0-1.488-0.544-2.385-1.681-2.385c-0.8,0-1.425,0.592-1.665,1.28
		c-0.064,0.192-0.112,0.448-0.112,0.704v4.786h-1.376v-4.642c0-1.232-0.544-2.129-1.617-2.129c-0.88,0-1.521,0.704-1.745,1.408
		c-0.08,0.208-0.112,0.448-0.112,0.688v4.674h-1.376V10.498z"/>
	<path d="M134.357,16.148l-0.112-0.977h-0.048c-0.432,0.608-1.265,1.152-2.369,1.152c-1.569,0-2.369-1.104-2.369-2.225
		c0-1.873,1.665-2.897,4.658-2.881v-0.16c0-0.641-0.176-1.793-1.761-1.793c-0.72,0-1.473,0.225-2.017,0.576l-0.32-0.929
		c0.64-0.416,1.568-0.688,2.545-0.688c2.369,0,2.945,1.616,2.945,3.169v2.897c0,0.672,0.032,1.328,0.128,1.856H134.357z
		 M134.149,12.195c-1.537-0.032-3.281,0.239-3.281,1.744c0,0.912,0.608,1.345,1.329,1.345c1.008,0,1.648-0.641,1.873-1.297
		c0.048-0.144,0.08-0.304,0.08-0.448V12.195z"/>
	<path d="M137.588,14.708c0.416,0.271,1.152,0.561,1.856,0.561c1.024,0,1.505-0.513,1.505-1.153c0-0.672-0.4-1.04-1.441-1.424
		c-1.393-0.496-2.049-1.265-2.049-2.193c0-1.248,1.009-2.272,2.673-2.272c0.784,0,1.473,0.224,1.905,0.479l-0.352,1.024
		c-0.304-0.191-0.865-0.448-1.585-0.448c-0.832,0-1.296,0.48-1.296,1.057c0,0.641,0.464,0.929,1.473,1.313
		c1.345,0.513,2.033,1.185,2.033,2.337c0,1.36-1.056,2.321-2.897,2.321c-0.849,0-1.633-0.208-2.177-0.528L137.588,14.708z"/>
	<path d="M147.507,10.931c0-0.993-0.032-1.793-0.064-2.529h1.265l0.064,1.328h0.032c0.576-0.944,1.489-1.504,2.753-1.504
		c1.873,0,3.281,1.584,3.281,3.938c0,2.785-1.697,4.161-3.521,4.161c-1.024,0-1.921-0.448-2.385-1.216H148.9v4.209h-1.393V10.931z
		 M148.9,12.995c0,0.208,0.032,0.4,0.064,0.576c0.256,0.977,1.104,1.648,2.113,1.648c1.489,0,2.353-1.216,2.353-2.993
		c0-1.553-0.816-2.881-2.305-2.881c-0.96,0-1.857,0.688-2.129,1.745c-0.048,0.176-0.096,0.384-0.096,0.576V12.995z"/>
	<path d="M163.622,12.211c0,2.865-1.985,4.113-3.857,4.113c-2.097,0-3.713-1.536-3.713-3.985c0-2.593,1.696-4.113,3.841-4.113
		C162.117,8.226,163.622,9.842,163.622,12.211z M157.475,12.291c0,1.696,0.977,2.978,2.353,2.978c1.345,0,2.353-1.265,2.353-3.01
		c0-1.313-0.656-2.978-2.321-2.978C158.195,9.281,157.475,10.818,157.475,12.291z"/>
	<path d="M165.395,10.818c0-0.912-0.016-1.696-0.064-2.417h1.232l0.048,1.521h0.064c0.352-1.04,1.2-1.696,2.145-1.696
		c0.16,0,0.272,0.016,0.4,0.048v1.328c-0.144-0.032-0.288-0.048-0.48-0.048c-0.992,0-1.696,0.752-1.889,1.809
		c-0.032,0.192-0.064,0.416-0.064,0.656v4.13h-1.393V10.818z"/>
	<path d="M175.749,14.948h-0.032c-0.416,0.768-1.28,1.376-2.529,1.376c-1.809,0-3.281-1.568-3.281-3.921
		c0-2.897,1.873-4.178,3.505-4.178c1.2,0,2,0.592,2.385,1.344h0.032l0.048-1.168h1.329c-0.032,0.656-0.048,1.328-0.048,2.129v8.787
		h-1.409V14.948z M175.749,11.539c0-0.192-0.016-0.417-0.064-0.593c-0.208-0.864-0.96-1.601-2.017-1.601
		c-1.457,0-2.337,1.232-2.337,2.978c0,1.536,0.736,2.881,2.289,2.881c0.912,0,1.697-0.561,2.017-1.537
		c0.064-0.191,0.112-0.464,0.112-0.672V11.539z"/>
	<path d="M185.957,14.035c0,0.801,0.016,1.505,0.064,2.113h-1.249l-0.08-1.265h-0.032c-0.368,0.624-1.185,1.44-2.561,1.44
		c-1.216,0-2.673-0.672-2.673-3.394V8.401h1.408v4.29c0,1.473,0.448,2.465,1.729,2.465c0.944,0,1.601-0.656,1.856-1.28
		c0.08-0.209,0.128-0.465,0.128-0.721V8.401h1.408V14.035z"/>
	<path d="M189.075,12.531c0.032,1.904,1.249,2.688,2.657,2.688c1.008,0,1.617-0.176,2.145-0.399l0.24,1.008
		c-0.496,0.225-1.344,0.48-2.577,0.48c-2.385,0-3.81-1.568-3.81-3.905s1.376-4.178,3.633-4.178c2.529,0,3.201,2.225,3.201,3.649
		c0,0.288-0.032,0.512-0.048,0.656H189.075z M193.205,11.522c0.016-0.896-0.368-2.289-1.953-2.289c-1.425,0-2.049,1.313-2.161,2.289
		H193.205z"/>
	<path d="M203.987,16.148l-0.112-0.977h-0.048c-0.432,0.608-1.265,1.152-2.369,1.152c-1.569,0-2.369-1.104-2.369-2.225
		c0-1.873,1.665-2.897,4.658-2.881v-0.16c0-0.641-0.176-1.793-1.761-1.793c-0.72,0-1.473,0.225-2.017,0.576l-0.32-0.929
		c0.64-0.416,1.568-0.688,2.545-0.688c2.369,0,2.945,1.616,2.945,3.169v2.897c0,0.672,0.032,1.328,0.128,1.856H203.987z
		 M203.779,12.195c-1.537-0.032-3.281,0.239-3.281,1.744c0,0.912,0.608,1.345,1.329,1.345c1.008,0,1.648-0.641,1.873-1.297
		c0.048-0.144,0.08-0.304,0.08-0.448V12.195z"/>
	<path d="M215.091,16.148l-0.112-0.977h-0.048c-0.432,0.608-1.265,1.152-2.369,1.152c-1.569,0-2.369-1.104-2.369-2.225
		c0-1.873,1.665-2.897,4.658-2.881v-0.16c0-0.641-0.176-1.793-1.761-1.793c-0.72,0-1.473,0.225-2.017,0.576l-0.32-0.929
		c0.64-0.416,1.568-0.688,2.545-0.688c2.369,0,2.945,1.616,2.945,3.169v2.897c0,0.672,0.032,1.328,0.128,1.856H215.091z
		 M214.883,12.195c-1.537-0.032-3.281,0.239-3.281,1.744c0,0.912,0.608,1.345,1.329,1.345c1.008,0,1.648-0.641,1.873-1.297
		c0.048-0.144,0.08-0.304,0.08-0.448V12.195z"/>
	<path d="M218.513,4.784h1.409v11.364h-1.409V4.784z"/>
	<path d="M228.964,8.401c-0.032,0.561-0.064,1.185-0.064,2.129v4.498c0,1.776-0.353,2.865-1.104,3.537
		c-0.752,0.704-1.841,0.929-2.817,0.929c-0.928,0-1.953-0.225-2.577-0.641l0.353-1.072c0.512,0.32,1.313,0.608,2.273,0.608
		c1.44,0,2.497-0.753,2.497-2.705V14.82h-0.032c-0.432,0.72-1.265,1.296-2.465,1.296c-1.921,0-3.297-1.633-3.297-3.777
		c0-2.625,1.712-4.113,3.489-4.113c1.345,0,2.081,0.704,2.417,1.344h0.032l0.064-1.168H228.964z M227.508,11.459
		c0-0.24-0.016-0.448-0.08-0.641c-0.256-0.816-0.944-1.488-1.969-1.488c-1.345,0-2.305,1.136-2.305,2.929
		c0,1.521,0.769,2.785,2.289,2.785c0.864,0,1.648-0.544,1.953-1.44c0.08-0.24,0.112-0.513,0.112-0.752V11.459z"/>
	<path d="M237.715,14.035c0,0.801,0.016,1.505,0.064,2.113h-1.249l-0.08-1.265h-0.032c-0.368,0.624-1.185,1.44-2.561,1.44
		c-1.216,0-2.673-0.672-2.673-3.394V8.401h1.408v4.29c0,1.473,0.448,2.465,1.729,2.465c0.944,0,1.601-0.656,1.856-1.28
		c0.08-0.209,0.128-0.465,0.128-0.721V8.401h1.408V14.035z"/>
	<path d="M240.049,10.498c0-0.8-0.016-1.456-0.064-2.097h1.249l0.08,1.28h0.032c0.384-0.736,1.281-1.456,2.561-1.456
		c1.073,0,2.737,0.64,2.737,3.297v4.626h-1.409v-4.466c0-1.248-0.464-2.289-1.792-2.289c-0.929,0-1.649,0.656-1.889,1.44
		c-0.064,0.177-0.096,0.416-0.096,0.656v4.658h-1.409V10.498z"/>
	<path d="M255.94,12.211c0,2.865-1.985,4.113-3.857,4.113c-2.097,0-3.713-1.536-3.713-3.985c0-2.593,1.696-4.113,3.841-4.113
		C254.436,8.226,255.94,9.842,255.94,12.211z M249.793,12.291c0,1.696,0.977,2.978,2.353,2.978c1.345,0,2.353-1.265,2.353-3.01
		c0-1.313-0.656-2.978-2.321-2.978C250.514,9.281,249.793,10.818,249.793,12.291z"/>
	<path d="M257.52,14.708c0.416,0.271,1.152,0.561,1.856,0.561c1.024,0,1.505-0.513,1.505-1.153c0-0.672-0.4-1.04-1.441-1.424
		c-1.393-0.496-2.049-1.265-2.049-2.193c0-1.248,1.009-2.272,2.673-2.272c0.784,0,1.473,0.224,1.905,0.479l-0.352,1.024
		c-0.304-0.191-0.865-0.448-1.585-0.448c-0.832,0-1.296,0.48-1.296,1.057c0,0.641,0.464,0.929,1.473,1.313
		c1.345,0.513,2.033,1.185,2.033,2.337c0,1.36-1.056,2.321-2.897,2.321c-0.849,0-1.633-0.208-2.177-0.528L257.52,14.708z"/>
	<path d="M21.696,26.931c0-0.993-0.032-1.793-0.064-2.529h1.265l0.064,1.328h0.032c0.576-0.944,1.489-1.504,2.753-1.504
		c1.873,0,3.281,1.584,3.281,3.938c0,2.785-1.697,4.161-3.521,4.161c-1.024,0-1.921-0.448-2.385-1.216h-0.032v4.209h-1.393V26.931z
		 M23.088,28.995c0,0.208,0.032,0.4,0.064,0.576c0.256,0.977,1.104,1.648,2.113,1.648c1.489,0,2.353-1.216,2.353-2.993
		c0-1.553-0.816-2.881-2.305-2.881c-0.96,0-1.857,0.688-2.129,1.745c-0.048,0.176-0.096,0.384-0.096,0.576V28.995z"/>
	<path d="M35.089,32.148l-0.112-0.977h-0.048c-0.432,0.608-1.265,1.152-2.369,1.152c-1.569,0-2.369-1.104-2.369-2.225
		c0-1.873,1.665-2.897,4.658-2.881v-0.16c0-0.641-0.176-1.793-1.761-1.793c-0.72,0-1.473,0.225-2.017,0.576l-0.32-0.929
		c0.64-0.416,1.568-0.688,2.545-0.688c2.369,0,2.945,1.616,2.945,3.169v2.897c0,0.672,0.032,1.328,0.128,1.856H35.089z
		 M34.881,28.195c-1.537-0.032-3.281,0.239-3.281,1.744c0,0.912,0.608,1.345,1.329,1.345c1.008,0,1.648-0.641,1.873-1.297
		c0.048-0.144,0.08-0.304,0.08-0.448V28.195z"/>
	<path d="M44.034,31.86c-0.368,0.192-1.185,0.448-2.225,0.448c-2.337,0-3.857-1.585-3.857-3.954c0-2.385,1.632-4.113,4.162-4.113
		c0.832,0,1.568,0.208,1.953,0.4l-0.32,1.088c-0.336-0.191-0.864-0.368-1.632-0.368c-1.777,0-2.737,1.313-2.737,2.93
		c0,1.793,1.152,2.897,2.689,2.897c0.801,0,1.329-0.209,1.729-0.385L44.034,31.86z"/>
	<path d="M47.248,22.225c0.016,0.48-0.336,0.864-0.896,0.864c-0.496,0-0.849-0.384-0.849-0.864c0-0.496,0.368-0.881,0.88-0.881
		C46.912,21.344,47.248,21.728,47.248,22.225z M45.679,32.148v-7.747h1.409v7.747H45.679z"/>
	<path d="M50.207,28.531c0.032,1.904,1.249,2.688,2.657,2.688c1.008,0,1.617-0.176,2.145-0.399l0.24,1.008
		c-0.496,0.225-1.344,0.48-2.577,0.48c-2.385,0-3.81-1.568-3.81-3.905s1.376-4.178,3.633-4.178c2.529,0,3.201,2.225,3.201,3.649
		c0,0.288-0.032,0.512-0.048,0.656H50.207z M54.337,27.522c0.016-0.896-0.368-2.289-1.953-2.289c-1.425,0-2.049,1.313-2.161,2.289
		H54.337z"/>
	<path d="M57.439,26.498c0-0.8-0.016-1.456-0.064-2.097h1.249l0.08,1.28h0.032c0.384-0.736,1.281-1.456,2.561-1.456
		c1.073,0,2.737,0.64,2.737,3.297v4.626h-1.409v-4.466c0-1.248-0.464-2.289-1.792-2.289c-0.929,0-1.649,0.656-1.889,1.44
		c-0.064,0.177-0.096,0.416-0.096,0.656v4.658h-1.409V26.498z"/>
	<path d="M67.952,22.177v2.225h2.017v1.072h-2.017v4.178c0,0.96,0.272,1.505,1.056,1.505c0.368,0,0.641-0.048,0.816-0.097
		l0.064,1.057c-0.272,0.112-0.704,0.192-1.249,0.192c-0.656,0-1.184-0.208-1.521-0.593c-0.4-0.416-0.544-1.104-0.544-2.017v-4.226
		h-1.201v-1.072h1.201v-1.856L67.952,22.177z"/>
	<path d="M72.239,28.531c0.032,1.904,1.249,2.688,2.657,2.688c1.008,0,1.617-0.176,2.145-0.399l0.24,1.008
		c-0.496,0.225-1.344,0.48-2.577,0.48c-2.385,0-3.81-1.568-3.81-3.905s1.376-4.178,3.633-4.178c2.529,0,3.201,2.225,3.201,3.649
		c0,0.288-0.032,0.512-0.048,0.656H72.239z M76.369,27.522c0.016-0.896-0.368-2.289-1.953-2.289c-1.425,0-2.049,1.313-2.161,2.289
		H76.369z"/>
	<path d="M79.278,30.708c0.416,0.271,1.152,0.561,1.856,0.561c1.024,0,1.505-0.513,1.505-1.153c0-0.672-0.4-1.04-1.441-1.424
		c-1.393-0.496-2.049-1.265-2.049-2.193c0-1.248,1.009-2.272,2.673-2.272c0.784,0,1.473,0.224,1.905,0.479l-0.352,1.024
		c-0.304-0.191-0.865-0.448-1.585-0.448c-0.832,0-1.296,0.48-1.296,1.057c0,0.641,0.464,0.929,1.473,1.313
		C83.312,28.163,84,28.835,84,29.987c0,1.36-1.056,2.321-2.897,2.321c-0.849,0-1.633-0.208-2.177-0.528L79.278,30.708z"/>
	<path d="M89.006,30.708c0.416,0.271,1.152,0.561,1.856,0.561c1.024,0,1.505-0.513,1.505-1.153c0-0.672-0.4-1.04-1.441-1.424
		c-1.393-0.496-2.049-1.265-2.049-2.193c0-1.248,1.009-2.272,2.673-2.272c0.784,0,1.473,0.224,1.905,0.479l-0.352,1.024
		c-0.304-0.191-0.865-0.448-1.585-0.448c-0.832,0-1.296,0.48-1.296,1.057c0,0.641,0.464,0.929,1.473,1.313
		c1.345,0.513,2.033,1.185,2.033,2.337c0,1.36-1.056,2.321-2.897,2.321c-0.849,0-1.633-0.208-2.177-0.528L89.006,30.708z"/>
	<path d="M96.318,28.531c0.032,1.904,1.249,2.688,2.657,2.688c1.008,0,1.617-0.176,2.145-0.399l0.24,1.008
		c-0.496,0.225-1.344,0.48-2.577,0.48c-2.385,0-3.81-1.568-3.81-3.905s1.376-4.178,3.633-4.178c2.529,0,3.201,2.225,3.201,3.649
		c0,0.288-0.032,0.512-0.048,0.656H96.318z M100.448,27.522c0.016-0.896-0.368-2.289-1.953-2.289c-1.425,0-2.049,1.313-2.161,2.289
		H100.448z"/>
	<path d="M106.941,20.784h1.409v11.364h-1.409V20.784z"/>
	<path d="M111.501,28.531c0.032,1.904,1.249,2.688,2.657,2.688c1.008,0,1.617-0.176,2.145-0.399l0.24,1.008
		c-0.496,0.225-1.344,0.48-2.577,0.48c-2.385,0-3.81-1.568-3.81-3.905s1.376-4.178,3.633-4.178c2.529,0,3.201,2.225,3.201,3.649
		c0,0.288-0.032,0.512-0.048,0.656H111.501z M115.631,27.522c0.016-0.896-0.368-2.289-1.953-2.289c-1.425,0-2.049,1.313-2.161,2.289
		H115.631z"/>
	<path d="M118.541,30.708c0.416,0.271,1.152,0.561,1.856,0.561c1.024,0,1.505-0.513,1.505-1.153c0-0.672-0.4-1.04-1.441-1.424
		c-1.393-0.496-2.049-1.265-2.049-2.193c0-1.248,1.009-2.272,2.673-2.272c0.784,0,1.473,0.224,1.905,0.479l-0.352,1.024
		c-0.304-0.191-0.865-0.448-1.585-0.448c-0.832,0-1.296,0.48-1.296,1.057c0,0.641,0.464,0.929,1.473,1.313
		c1.345,0.513,2.033,1.185,2.033,2.337c0,1.36-1.056,2.321-2.897,2.321c-0.849,0-1.633-0.208-2.177-0.528L118.541,30.708z"/>
	<path d="M135.471,28.211c0,2.865-1.985,4.113-3.857,4.113c-2.097,0-3.713-1.536-3.713-3.985c0-2.593,1.696-4.113,3.841-4.113
		C133.967,24.226,135.471,25.842,135.471,28.211z M129.325,28.291c0,1.696,0.977,2.978,2.353,2.978c1.345,0,2.353-1.265,2.353-3.01
		c0-1.313-0.656-2.978-2.321-2.978C130.045,25.281,129.325,26.818,129.325,28.291z"/>
	<path d="M137.245,20.784h1.409v11.364h-1.409V20.784z"/>
	<path d="M141.565,24.401l1.521,4.354c0.256,0.704,0.464,1.345,0.624,1.985h0.048c0.176-0.641,0.4-1.281,0.656-1.985l1.504-4.354
		h1.473l-3.041,7.747h-1.345l-2.945-7.747H141.565z"/>
	<path d="M150.285,22.225c0.016,0.48-0.336,0.864-0.896,0.864c-0.496,0-0.849-0.384-0.849-0.864c0-0.496,0.368-0.881,0.88-0.881
		C149.949,21.344,150.285,21.728,150.285,22.225z M148.716,32.148v-7.747h1.409v7.747H148.716z"/>
	<path d="M159.151,20.784v9.363c0,0.688,0.016,1.473,0.064,2.001h-1.265l-0.064-1.345h-0.032c-0.432,0.864-1.376,1.521-2.641,1.521
		c-1.873,0-3.313-1.584-3.313-3.938c-0.016-2.577,1.584-4.161,3.473-4.161c1.185,0,1.985,0.56,2.337,1.185h0.032v-4.626H159.151z
		 M157.743,27.555c0-0.176-0.016-0.416-0.064-0.593c-0.208-0.896-0.977-1.632-2.033-1.632c-1.457,0-2.321,1.28-2.321,2.993
		c0,1.568,0.769,2.865,2.289,2.865c0.944,0,1.809-0.625,2.065-1.681c0.048-0.192,0.064-0.385,0.064-0.608V27.555z"/>
	<path d="M165.774,32.148l-0.112-0.977h-0.048c-0.432,0.608-1.265,1.152-2.369,1.152c-1.569,0-2.369-1.104-2.369-2.225
		c0-1.873,1.665-2.897,4.658-2.881v-0.16c0-0.641-0.176-1.793-1.761-1.793c-0.72,0-1.473,0.225-2.017,0.576l-0.32-0.929
		c0.64-0.416,1.568-0.688,2.545-0.688c2.369,0,2.945,1.616,2.945,3.169v2.897c0,0.672,0.032,1.328,0.128,1.856H165.774z
		 M165.566,28.195c-1.537-0.032-3.281,0.239-3.281,1.744c0,0.912,0.608,1.345,1.329,1.345c1.008,0,1.648-0.641,1.873-1.297
		c0.048-0.144,0.08-0.304,0.08-0.448V28.195z"/>
	<path d="M169.197,26.498c0-0.8-0.016-1.456-0.064-2.097h1.249l0.08,1.28h0.032c0.384-0.736,1.281-1.456,2.561-1.456
		c1.073,0,2.737,0.64,2.737,3.297v4.626h-1.409v-4.466c0-1.248-0.464-2.289-1.792-2.289c-0.929,0-1.649,0.656-1.889,1.44
		c-0.064,0.177-0.096,0.416-0.096,0.656v4.658h-1.409V26.498z"/>
	<path d="M181.468,20.784h1.409v11.364h-1.409V20.784z"/>
	<path d="M189.534,32.148l-0.112-0.977h-0.048c-0.432,0.608-1.265,1.152-2.369,1.152c-1.569,0-2.369-1.104-2.369-2.225
		c0-1.873,1.665-2.897,4.658-2.881v-0.16c0-0.641-0.176-1.793-1.761-1.793c-0.72,0-1.473,0.225-2.017,0.576l-0.32-0.929
		c0.64-0.416,1.568-0.688,2.545-0.688c2.369,0,2.945,1.616,2.945,3.169v2.897c0,0.672,0.032,1.328,0.128,1.856H189.534z
		 M189.326,28.195c-1.537-0.032-3.281,0.239-3.281,1.744c0,0.912,0.608,1.345,1.329,1.345c1.008,0,1.648-0.641,1.873-1.297
		c0.048-0.144,0.08-0.304,0.08-0.448V28.195z"/>
	<path d="M192.765,30.708c0.416,0.271,1.152,0.561,1.856,0.561c1.024,0,1.505-0.513,1.505-1.153c0-0.672-0.4-1.04-1.441-1.424
		c-1.393-0.496-2.049-1.265-2.049-2.193c0-1.248,1.009-2.272,2.673-2.272c0.784,0,1.473,0.224,1.905,0.479l-0.352,1.024
		c-0.304-0.191-0.865-0.448-1.585-0.448c-0.832,0-1.296,0.48-1.296,1.057c0,0.641,0.464,0.929,1.473,1.313
		c1.345,0.513,2.033,1.185,2.033,2.337c0,1.36-1.056,2.321-2.897,2.321c-0.849,0-1.633-0.208-2.177-0.528L192.765,30.708z"/>
	<path d="M208.207,31.86c-0.368,0.192-1.185,0.448-2.225,0.448c-2.337,0-3.857-1.585-3.857-3.954c0-2.385,1.632-4.113,4.162-4.113
		c0.832,0,1.568,0.208,1.953,0.4l-0.32,1.088c-0.336-0.191-0.864-0.368-1.632-0.368c-1.777,0-2.737,1.313-2.737,2.93
		c0,1.793,1.152,2.897,2.689,2.897c0.801,0,1.329-0.209,1.729-0.385L208.207,31.86z"/>
	<path d="M211.421,22.225c0.016,0.48-0.336,0.864-0.896,0.864c-0.496,0-0.849-0.384-0.849-0.864c0-0.496,0.368-0.881,0.88-0.881
		C211.084,21.344,211.421,21.728,211.421,22.225z M209.852,32.148v-7.747h1.409v7.747H209.852z"/>
	<path d="M215.293,22.177v2.225h2.017v1.072h-2.017v4.178c0,0.96,0.272,1.505,1.056,1.505c0.368,0,0.641-0.048,0.816-0.097
		l0.064,1.057c-0.272,0.112-0.704,0.192-1.249,0.192c-0.656,0-1.184-0.208-1.521-0.593c-0.4-0.416-0.544-1.104-0.544-2.017v-4.226
		h-1.201v-1.072h1.201v-1.856L215.293,22.177z"/>
	<path d="M223.182,32.148l-0.112-0.977h-0.048c-0.432,0.608-1.265,1.152-2.369,1.152c-1.569,0-2.369-1.104-2.369-2.225
		c0-1.873,1.665-2.897,4.658-2.881v-0.16c0-0.641-0.176-1.793-1.761-1.793c-0.72,0-1.473,0.225-2.017,0.576l-0.32-0.929
		c0.64-0.416,1.568-0.688,2.545-0.688c2.369,0,2.945,1.616,2.945,3.169v2.897c0,0.672,0.032,1.328,0.128,1.856H223.182z
		 M222.974,28.195c-1.537-0.032-3.281,0.239-3.281,1.744c0,0.912,0.608,1.345,1.329,1.345c1.008,0,1.648-0.641,1.873-1.297
		c0.048-0.144,0.08-0.304,0.08-0.448V28.195z"/>
	<path d="M226.412,30.708c0.416,0.271,1.152,0.561,1.856,0.561c1.024,0,1.505-0.513,1.505-1.153c0-0.672-0.4-1.04-1.441-1.424
		c-1.393-0.496-2.049-1.265-2.049-2.193c0-1.248,1.009-2.272,2.673-2.272c0.784,0,1.473,0.224,1.905,0.479l-0.352,1.024
		c-0.304-0.191-0.865-0.448-1.585-0.448c-0.832,0-1.296,0.48-1.296,1.057c0,0.641,0.464,0.929,1.473,1.313
		c1.345,0.513,2.033,1.185,2.033,2.337c0,1.36-1.056,2.321-2.897,2.321c-0.849,0-1.633-0.208-2.177-0.528L226.412,30.708z"/>
	<path d="M236.844,24.401l1.697,4.578c0.176,0.512,0.368,1.12,0.496,1.584h0.032c0.144-0.464,0.304-1.056,0.496-1.616l1.537-4.546
		h1.488l-2.113,5.522c-1.008,2.657-1.696,4.018-2.657,4.85c-0.688,0.608-1.377,0.849-1.729,0.912l-0.352-1.185
		c0.352-0.111,0.816-0.336,1.232-0.688c0.384-0.305,0.864-0.849,1.185-1.569c0.064-0.144,0.112-0.256,0.112-0.336
		s-0.032-0.192-0.096-0.368l-2.865-7.139H236.844z"/>
	<path d="M248.043,28.531c0.032,1.904,1.249,2.688,2.657,2.688c1.008,0,1.617-0.176,2.145-0.399l0.24,1.008
		c-0.496,0.225-1.344,0.48-2.577,0.48c-2.385,0-3.81-1.568-3.81-3.905s1.376-4.178,3.633-4.178c2.529,0,3.201,2.225,3.201,3.649
		c0,0.288-0.032,0.512-0.048,0.656H248.043z M252.173,27.522c0.016-0.896-0.368-2.289-1.953-2.289c-1.425,0-2.049,1.313-2.161,2.289
		H252.173z"/>
	<path d="M255.083,30.708c0.416,0.271,1.152,0.561,1.856,0.561c1.024,0,1.505-0.513,1.505-1.153c0-0.672-0.4-1.04-1.441-1.424
		c-1.393-0.496-2.049-1.265-2.049-2.193c0-1.248,1.009-2.272,2.673-2.272c0.784,0,1.473,0.224,1.905,0.479l-0.352,1.024
		c-0.304-0.191-0.865-0.448-1.585-0.448c-0.832,0-1.296,0.48-1.296,1.057c0,0.641,0.464,0.929,1.473,1.313
		c1.345,0.513,2.033,1.185,2.033,2.337c0,1.36-1.056,2.321-2.897,2.321c-0.849,0-1.633-0.208-2.177-0.528L255.083,30.708z"/>
	<path d="M268.622,28.211c0,2.865-1.985,4.113-3.857,4.113c-2.097,0-3.713-1.536-3.713-3.985c0-2.593,1.696-4.113,3.841-4.113
		C267.117,24.226,268.622,25.842,268.622,28.211z M262.475,28.291c0,1.696,0.977,2.978,2.353,2.978c1.345,0,2.353-1.265,2.353-3.01
		c0-1.313-0.656-2.978-2.321-2.978C263.195,25.281,262.475,26.818,262.475,28.291z"/>
	<path d="M24.887,42.818c0-0.912-0.016-1.696-0.064-2.417h1.232l0.048,1.521h0.064c0.352-1.04,1.2-1.696,2.145-1.696
		c0.16,0,0.272,0.016,0.4,0.048v1.328c-0.144-0.032-0.288-0.048-0.48-0.048c-0.992,0-1.696,0.752-1.889,1.809
		c-0.032,0.192-0.064,0.416-0.064,0.656v4.13h-1.393V42.818z"/>
	<path d="M30.744,44.531c0.032,1.904,1.249,2.688,2.657,2.688c1.008,0,1.617-0.176,2.145-0.399l0.24,1.008
		c-0.496,0.225-1.344,0.48-2.577,0.48c-2.385,0-3.81-1.568-3.81-3.905s1.376-4.178,3.633-4.178c2.529,0,3.201,2.225,3.201,3.649
		c0,0.288-0.032,0.512-0.048,0.656H30.744z M34.874,43.522c0.016-0.896-0.368-2.289-1.953-2.289c-1.425,0-2.049,1.313-2.161,2.289
		H34.874z"/>
	<path d="M37.975,42.931c0-0.993-0.032-1.793-0.064-2.529h1.265l0.064,1.328h0.032c0.576-0.944,1.489-1.504,2.753-1.504
		c1.873,0,3.281,1.584,3.281,3.938c0,2.785-1.697,4.161-3.521,4.161c-1.024,0-1.921-0.448-2.385-1.216h-0.032v4.209h-1.393V42.931z
		 M39.368,44.995c0,0.208,0.032,0.4,0.064,0.576c0.256,0.977,1.104,1.648,2.113,1.648c1.489,0,2.353-1.216,2.353-2.993
		c0-1.553-0.816-2.881-2.305-2.881c-0.96,0-1.857,0.688-2.129,1.745c-0.048,0.176-0.096,0.384-0.096,0.576V44.995z"/>
	<path d="M47.079,42.818c0-0.912-0.016-1.696-0.064-2.417h1.232l0.048,1.521h0.064c0.352-1.04,1.2-1.696,2.145-1.696
		c0.16,0,0.272,0.016,0.4,0.048v1.328c-0.144-0.032-0.288-0.048-0.48-0.048c-0.992,0-1.696,0.752-1.889,1.809
		c-0.032,0.192-0.064,0.416-0.064,0.656v4.13h-1.393V42.818z"/>
	<path d="M52.935,44.531c0.032,1.904,1.249,2.688,2.657,2.688c1.008,0,1.617-0.176,2.145-0.399l0.24,1.008
		c-0.496,0.225-1.344,0.48-2.577,0.48c-2.385,0-3.81-1.568-3.81-3.905s1.376-4.178,3.633-4.178c2.529,0,3.201,2.225,3.201,3.649
		c0,0.288-0.032,0.512-0.048,0.656H52.935z M57.065,43.522c0.016-0.896-0.368-2.289-1.953-2.289c-1.425,0-2.049,1.313-2.161,2.289
		H57.065z"/>
	<path d="M59.975,46.708c0.416,0.271,1.152,0.561,1.856,0.561c1.024,0,1.505-0.513,1.505-1.153c0-0.672-0.4-1.04-1.441-1.424
		c-1.393-0.496-2.049-1.265-2.049-2.193c0-1.248,1.009-2.272,2.673-2.272c0.784,0,1.473,0.224,1.905,0.479l-0.352,1.024
		c-0.304-0.191-0.865-0.448-1.585-0.448c-0.832,0-1.296,0.48-1.296,1.057c0,0.641,0.464,0.929,1.473,1.313
		c1.345,0.513,2.033,1.185,2.033,2.337c0,1.36-1.056,2.321-2.897,2.321c-0.849,0-1.633-0.208-2.177-0.528L59.975,46.708z"/>
	<path d="M67.287,44.531c0.032,1.904,1.249,2.688,2.657,2.688c1.008,0,1.617-0.176,2.145-0.399l0.24,1.008
		c-0.496,0.225-1.344,0.48-2.577,0.48c-2.385,0-3.81-1.568-3.81-3.905s1.376-4.178,3.633-4.178c2.529,0,3.201,2.225,3.201,3.649
		c0,0.288-0.032,0.512-0.048,0.656H67.287z M71.417,43.522c0.016-0.896-0.368-2.289-1.953-2.289c-1.425,0-2.049,1.313-2.161,2.289
		H71.417z"/>
	<path d="M74.519,42.498c0-0.8-0.016-1.456-0.064-2.097h1.249l0.08,1.28h0.032c0.384-0.736,1.281-1.456,2.561-1.456
		c1.073,0,2.737,0.64,2.737,3.297v4.626h-1.409v-4.466c0-1.248-0.464-2.289-1.792-2.289c-0.929,0-1.649,0.656-1.889,1.44
		c-0.064,0.177-0.096,0.416-0.096,0.656v4.658h-1.409V42.498z"/>
	<path d="M85.031,38.177v2.225h2.017v1.072h-2.017v4.178c0,0.96,0.272,1.505,1.056,1.505c0.368,0,0.641-0.048,0.816-0.097
		l0.064,1.057c-0.272,0.112-0.704,0.192-1.249,0.192c-0.656,0-1.184-0.208-1.521-0.593c-0.4-0.416-0.544-1.104-0.544-2.017v-4.226
		h-1.201v-1.072h1.201v-1.856L85.031,38.177z"/>
	<path d="M92.92,48.148l-0.112-0.977H92.76c-0.432,0.608-1.265,1.152-2.369,1.152c-1.569,0-2.369-1.104-2.369-2.225
		c0-1.873,1.665-2.897,4.658-2.881v-0.16c0-0.641-0.176-1.793-1.761-1.793c-0.72,0-1.473,0.225-2.017,0.576l-0.32-0.929
		c0.64-0.416,1.568-0.688,2.545-0.688c2.369,0,2.945,1.616,2.945,3.169v2.897c0,0.672,0.032,1.328,0.128,1.856H92.92z
		 M92.712,44.195c-1.537-0.032-3.281,0.239-3.281,1.744c0,0.912,0.608,1.345,1.329,1.345c1.008,0,1.648-0.641,1.873-1.297
		c0.048-0.144,0.08-0.304,0.08-0.448V44.195z"/>
	<path d="M106.216,46.035c0,0.801,0.016,1.505,0.064,2.113h-1.249l-0.08-1.265h-0.032c-0.368,0.624-1.185,1.44-2.561,1.44
		c-1.216,0-2.673-0.672-2.673-3.394v-4.529h1.408v4.29c0,1.473,0.448,2.465,1.729,2.465c0.944,0,1.601-0.656,1.856-1.28
		c0.08-0.209,0.128-0.465,0.128-0.721v-4.754h1.408V46.035z"/>
	<path d="M108.55,42.498c0-0.8-0.016-1.456-0.064-2.097h1.249l0.08,1.28h0.032c0.384-0.736,1.281-1.456,2.561-1.456
		c1.073,0,2.737,0.64,2.737,3.297v4.626h-1.409v-4.466c0-1.248-0.464-2.289-1.792-2.289c-0.929,0-1.649,0.656-1.889,1.44
		c-0.064,0.177-0.096,0.416-0.096,0.656v4.658h-1.409V42.498z"/>
	<path d="M126.344,47.86c-0.368,0.192-1.185,0.448-2.225,0.448c-2.337,0-3.857-1.585-3.857-3.954c0-2.385,1.632-4.113,4.162-4.113
		c0.832,0,1.568,0.208,1.953,0.4l-0.32,1.088c-0.336-0.191-0.864-0.368-1.632-0.368c-1.777,0-2.737,1.313-2.737,2.93
		c0,1.793,1.152,2.897,2.689,2.897c0.801,0,1.329-0.209,1.729-0.385L126.344,47.86z"/>
	<path d="M134.905,44.211c0,2.865-1.985,4.113-3.857,4.113c-2.097,0-3.713-1.536-3.713-3.985c0-2.593,1.696-4.113,3.841-4.113
		C133.4,40.226,134.905,41.842,134.905,44.211z M128.758,44.291c0,1.696,0.977,2.978,2.353,2.978c1.345,0,2.353-1.265,2.353-3.01
		c0-1.313-0.656-2.978-2.321-2.978C129.478,41.281,128.758,42.818,128.758,44.291z"/>
	<path d="M136.486,46.708c0.416,0.271,1.152,0.561,1.856,0.561c1.024,0,1.505-0.513,1.505-1.153c0-0.672-0.4-1.04-1.441-1.424
		c-1.393-0.496-2.049-1.265-2.049-2.193c0-1.248,1.009-2.272,2.673-2.272c0.784,0,1.473,0.224,1.905,0.479l-0.352,1.024
		c-0.304-0.191-0.865-0.448-1.585-0.448c-0.832,0-1.296,0.48-1.296,1.057c0,0.641,0.464,0.929,1.473,1.313
		c1.345,0.513,2.033,1.185,2.033,2.337c0,1.36-1.056,2.321-2.897,2.321c-0.849,0-1.633-0.208-2.177-0.528L136.486,46.708z"/>
	<path d="M144.711,38.177v2.225h2.017v1.072h-2.017v4.178c0,0.96,0.272,1.505,1.056,1.505c0.368,0,0.641-0.048,0.816-0.097
		l0.064,1.057c-0.272,0.112-0.704,0.192-1.249,0.192c-0.656,0-1.184-0.208-1.521-0.593c-0.4-0.416-0.544-1.104-0.544-2.017v-4.226
		h-1.201v-1.072h1.201v-1.856L144.711,38.177z"/>
	<path d="M155.225,44.211c0,2.865-1.985,4.113-3.857,4.113c-2.097,0-3.713-1.536-3.713-3.985c0-2.593,1.697-4.113,3.841-4.113
		C153.72,40.226,155.225,41.842,155.225,44.211z M149.078,44.291c0,1.696,0.977,2.978,2.353,2.978c1.345,0,2.353-1.265,2.353-3.01
		c0-1.313-0.656-2.978-2.321-2.978C149.798,41.281,149.078,42.818,149.078,44.291z"/>
	<path d="M160.39,42.498c0-0.8-0.016-1.456-0.064-2.097h1.232l0.064,1.248h0.048c0.432-0.736,1.152-1.424,2.433-1.424
		c1.057,0,1.857,0.64,2.193,1.553h0.032c0.24-0.433,0.544-0.769,0.864-1.009c0.464-0.353,0.977-0.544,1.713-0.544
		c1.024,0,2.545,0.672,2.545,3.361v4.562h-1.376v-4.386c0-1.488-0.544-2.385-1.681-2.385c-0.8,0-1.425,0.592-1.665,1.28
		c-0.064,0.192-0.112,0.448-0.112,0.704v4.786h-1.376v-4.642c0-1.232-0.544-2.129-1.617-2.129c-0.88,0-1.521,0.704-1.745,1.408
		c-0.08,0.208-0.112,0.448-0.112,0.688v4.674h-1.376V42.498z"/>
	<path d="M180.216,46.035c0,0.801,0.016,1.505,0.064,2.113h-1.249l-0.08-1.265h-0.032c-0.368,0.624-1.185,1.44-2.561,1.44
		c-1.216,0-2.673-0.672-2.673-3.394v-4.529h1.408v4.29c0,1.473,0.448,2.465,1.729,2.465c0.944,0,1.601-0.656,1.856-1.28
		c0.08-0.209,0.128-0.465,0.128-0.721v-4.754h1.408V46.035z"/>
	<path d="M183.061,40.401l1.697,4.578c0.176,0.512,0.368,1.12,0.496,1.584h0.032c0.144-0.464,0.304-1.056,0.496-1.616l1.537-4.546
		h1.488l-2.113,5.522c-1.008,2.657-1.696,4.018-2.657,4.85c-0.688,0.608-1.377,0.849-1.729,0.912l-0.352-1.185
		c0.352-0.111,0.816-0.336,1.232-0.688c0.384-0.305,0.864-0.849,1.185-1.569c0.064-0.144,0.112-0.256,0.112-0.336
		s-0.032-0.192-0.096-0.368l-2.865-7.139H183.061z"/>
	<path d="M197.766,48.148l-0.112-0.977h-0.048c-0.433,0.608-1.265,1.152-2.369,1.152c-1.569,0-2.369-1.104-2.369-2.225
		c0-1.873,1.665-2.897,4.658-2.881v-0.16c0-0.641-0.176-1.793-1.761-1.793c-0.72,0-1.473,0.225-2.017,0.576l-0.32-0.929
		c0.64-0.416,1.568-0.688,2.545-0.688c2.369,0,2.945,1.616,2.945,3.169v2.897c0,0.672,0.032,1.328,0.128,1.856H197.766z
		 M197.558,44.195c-1.537-0.032-3.281,0.239-3.281,1.744c0,0.912,0.608,1.345,1.329,1.345c1.008,0,1.648-0.641,1.873-1.297
		c0.048-0.144,0.08-0.304,0.08-0.448V44.195z"/>
	<path d="M201.188,36.784h1.409v11.364h-1.409V36.784z"/>
	<path d="M206.661,38.177v2.225h2.017v1.072h-2.017v4.178c0,0.96,0.272,1.505,1.056,1.505c0.368,0,0.641-0.048,0.816-0.097
		l0.064,1.057c-0.272,0.112-0.704,0.192-1.249,0.192c-0.656,0-1.184-0.208-1.521-0.593c-0.4-0.416-0.544-1.104-0.544-2.017v-4.226
		h-1.201v-1.072h1.201v-1.856L206.661,38.177z"/>
	<path d="M217.175,44.211c0,2.865-1.985,4.113-3.857,4.113c-2.097,0-3.713-1.536-3.713-3.985c0-2.593,1.696-4.113,3.841-4.113
		C215.671,40.226,217.175,41.842,217.175,44.211z M211.029,44.291c0,1.696,0.977,2.978,2.353,2.978c1.345,0,2.353-1.265,2.353-3.01
		c0-1.313-0.656-2.978-2.321-2.978C211.749,41.281,211.029,42.818,211.029,44.291z"/>
	<path d="M222.339,42.931c0-0.993-0.032-1.793-0.064-2.529h1.265l0.064,1.328h0.032c0.576-0.944,1.489-1.504,2.753-1.504
		c1.873,0,3.281,1.584,3.281,3.938c0,2.785-1.697,4.161-3.521,4.161c-1.024,0-1.921-0.448-2.385-1.216h-0.032v4.209h-1.393V42.931z
		 M223.732,44.995c0,0.208,0.032,0.4,0.064,0.576c0.256,0.977,1.104,1.648,2.113,1.648c1.489,0,2.353-1.216,2.353-2.993
		c0-1.553-0.816-2.881-2.305-2.881c-0.96,0-1.857,0.688-2.129,1.745c-0.048,0.176-0.096,0.384-0.096,0.576V44.995z"/>
	<path d="M235.732,48.148l-0.112-0.977h-0.048c-0.432,0.608-1.265,1.152-2.369,1.152c-1.569,0-2.369-1.104-2.369-2.225
		c0-1.873,1.665-2.897,4.658-2.881v-0.16c0-0.641-0.176-1.793-1.761-1.793c-0.72,0-1.473,0.225-2.017,0.576l-0.32-0.929
		c0.64-0.416,1.568-0.688,2.545-0.688c2.369,0,2.945,1.616,2.945,3.169v2.897c0,0.672,0.032,1.328,0.128,1.856H235.732z
		 M235.524,44.195c-1.537-0.032-3.281,0.239-3.281,1.744c0,0.912,0.608,1.345,1.329,1.345c1.008,0,1.648-0.641,1.873-1.297
		c0.048-0.144,0.08-0.304,0.08-0.448V44.195z"/>
	<path d="M239.155,42.818c0-0.912-0.016-1.696-0.064-2.417h1.232l0.048,1.521h0.064c0.352-1.04,1.2-1.696,2.145-1.696
		c0.16,0,0.272,0.016,0.4,0.048v1.328c-0.144-0.032-0.288-0.048-0.48-0.048c-0.992,0-1.696,0.752-1.889,1.809
		c-0.032,0.192-0.064,0.416-0.064,0.656v4.13h-1.393V42.818z"/>
	<path d="M248.597,48.148l-0.112-0.977h-0.048c-0.432,0.608-1.265,1.152-2.369,1.152c-1.569,0-2.369-1.104-2.369-2.225
		c0-1.873,1.665-2.897,4.658-2.881v-0.16c0-0.641-0.176-1.793-1.761-1.793c-0.72,0-1.473,0.225-2.017,0.576l-0.32-0.929
		c0.64-0.416,1.568-0.688,2.545-0.688c2.369,0,2.945,1.616,2.945,3.169v2.897c0,0.672,0.032,1.328,0.128,1.856H248.597z
		 M248.389,44.195c-1.537-0.032-3.281,0.239-3.281,1.744c0,0.912,0.608,1.345,1.329,1.345c1.008,0,1.648-0.641,1.873-1.297
		c0.048-0.144,0.08-0.304,0.08-0.448V44.195z"/>
	<path d="M256.195,44.531c0.032,1.904,1.249,2.688,2.657,2.688c1.008,0,1.617-0.176,2.145-0.399l0.24,1.008
		c-0.496,0.225-1.344,0.48-2.577,0.48c-2.385,0-3.81-1.568-3.81-3.905s1.376-4.178,3.633-4.178c2.529,0,3.201,2.225,3.201,3.649
		c0,0.288-0.032,0.512-0.048,0.656H256.195z M260.325,43.522c0.016-0.896-0.368-2.289-1.953-2.289c-1.425,0-2.049,1.313-2.161,2.289
		H260.325z"/>
	<path d="M263.427,36.784h1.409v11.364h-1.409V36.784z"/>
	<path d="M101.888,63.86c-0.368,0.192-1.185,0.448-2.225,0.448c-2.337,0-3.857-1.585-3.857-3.954c0-2.385,1.632-4.113,4.162-4.113
		c0.832,0,1.568,0.208,1.953,0.4l-0.32,1.088c-0.336-0.191-0.864-0.368-1.632-0.368c-1.777,0-2.737,1.313-2.737,2.93
		c0,1.793,1.152,2.897,2.689,2.897c0.801,0,1.329-0.209,1.729-0.385L101.888,63.86z"/>
	<path d="M104.222,60.531c0.032,1.904,1.249,2.688,2.657,2.688c1.008,0,1.617-0.176,2.145-0.399l0.24,1.008
		c-0.496,0.225-1.344,0.48-2.577,0.48c-2.385,0-3.81-1.568-3.81-3.905s1.376-4.178,3.633-4.178c2.529,0,3.201,2.225,3.201,3.649
		c0,0.288-0.032,0.512-0.048,0.656H104.222z M108.352,59.522c0.016-0.896-0.368-2.289-1.953-2.289c-1.425,0-2.049,1.313-2.161,2.289
		H108.352z"/>
	<path d="M111.454,58.498c0-0.8-0.016-1.456-0.064-2.097h1.249l0.08,1.28h0.032c0.384-0.736,1.281-1.456,2.561-1.456
		c1.073,0,2.737,0.64,2.737,3.297v4.626h-1.409v-4.466c0-1.248-0.464-2.289-1.792-2.289c-0.929,0-1.649,0.656-1.889,1.44
		c-0.064,0.177-0.096,0.416-0.096,0.656v4.658h-1.409V58.498z"/>
	<path d="M121.966,54.177v2.225h2.017v1.072h-2.017v4.178c0,0.96,0.272,1.505,1.056,1.505c0.368,0,0.641-0.048,0.816-0.097
		l0.064,1.057c-0.272,0.112-0.704,0.192-1.249,0.192c-0.656,0-1.184-0.208-1.521-0.593c-0.4-0.416-0.544-1.104-0.544-2.017v-4.226
		h-1.201v-1.072h1.201v-1.856L121.966,54.177z"/>
	<path d="M125.565,58.818c0-0.912-0.016-1.696-0.064-2.417h1.232l0.048,1.521h0.064c0.352-1.04,1.2-1.696,2.145-1.696
		c0.16,0,0.272,0.016,0.4,0.048v1.328c-0.144-0.032-0.288-0.048-0.48-0.048c-0.992,0-1.696,0.752-1.889,1.809
		c-0.032,0.192-0.064,0.416-0.064,0.656v4.13h-1.393V58.818z"/>
	<path d="M137.648,60.211c0,2.865-1.985,4.113-3.857,4.113c-2.097,0-3.713-1.536-3.713-3.985c0-2.593,1.696-4.113,3.841-4.113
		C136.144,56.226,137.648,57.842,137.648,60.211z M131.501,60.291c0,1.696,0.977,2.978,2.353,2.978c1.345,0,2.353-1.265,2.353-3.01
		c0-1.313-0.656-2.978-2.321-2.978C132.222,57.281,131.501,58.818,131.501,60.291z"/>
	<path d="M142.812,58.498c0-0.8-0.016-1.456-0.064-2.097h1.232l0.064,1.248h0.048c0.432-0.736,1.152-1.424,2.433-1.424
		c1.057,0,1.857,0.64,2.193,1.553h0.032c0.24-0.433,0.544-0.769,0.864-1.009c0.464-0.353,0.977-0.544,1.713-0.544
		c1.024,0,2.545,0.672,2.545,3.361v4.562h-1.376v-4.386c0-1.488-0.544-2.385-1.681-2.385c-0.8,0-1.425,0.592-1.665,1.28
		c-0.064,0.192-0.112,0.448-0.112,0.704v4.786h-1.376v-4.642c0-1.232-0.544-2.129-1.617-2.129c-0.88,0-1.521,0.704-1.745,1.408
		c-0.08,0.208-0.112,0.448-0.112,0.688v4.674h-1.376V58.498z"/>
	<path d="M156.94,60.531c0.032,1.904,1.249,2.688,2.657,2.688c1.008,0,1.617-0.176,2.145-0.399l0.24,1.008
		c-0.496,0.225-1.344,0.48-2.577,0.48c-2.385,0-3.81-1.568-3.81-3.905s1.376-4.178,3.633-4.178c2.529,0,3.201,2.225,3.201,3.649
		c0,0.288-0.032,0.512-0.048,0.656H156.94z M161.07,59.522c0.016-0.896-0.368-2.289-1.953-2.289c-1.425,0-2.049,1.313-2.161,2.289
		H161.07z M161.406,53.056l-1.953,2.289h-1.008l1.408-2.289H161.406z"/>
	<path d="M170.863,52.784v9.363c0,0.688,0.016,1.473,0.064,2.001h-1.265l-0.064-1.345h-0.032c-0.432,0.864-1.376,1.521-2.641,1.521
		c-1.873,0-3.313-1.584-3.313-3.938c-0.016-2.577,1.584-4.161,3.473-4.161c1.185,0,1.985,0.56,2.337,1.185h0.032v-4.626H170.863z
		 M169.454,59.555c0-0.176-0.016-0.416-0.064-0.593c-0.208-0.896-0.977-1.632-2.033-1.632c-1.457,0-2.321,1.28-2.321,2.993
		c0,1.568,0.769,2.865,2.289,2.865c0.944,0,1.809-0.625,2.065-1.681c0.048-0.192,0.064-0.385,0.064-0.608V59.555z"/>
	<path d="M174.765,54.225c0.016,0.48-0.336,0.864-0.896,0.864c-0.496,0-0.849-0.384-0.849-0.864c0-0.496,0.368-0.881,0.88-0.881
		C174.428,53.344,174.765,53.728,174.765,54.225z M173.196,64.148v-7.747h1.409v7.747H173.196z"/>
	<path d="M182.462,63.86c-0.368,0.192-1.185,0.448-2.225,0.448c-2.337,0-3.857-1.585-3.857-3.954c0-2.385,1.632-4.113,4.162-4.113
		c0.832,0,1.568,0.208,1.953,0.4l-0.32,1.088c-0.336-0.191-0.865-0.368-1.633-0.368c-1.777,0-2.737,1.313-2.737,2.93
		c0,1.793,1.152,2.897,2.689,2.897c0.801,0,1.329-0.209,1.729-0.385L182.462,63.86z"/>
	<path d="M191.022,60.211c0,2.865-1.985,4.113-3.857,4.113c-2.097,0-3.713-1.536-3.713-3.985c0-2.593,1.696-4.113,3.841-4.113
		C189.518,56.226,191.022,57.842,191.022,60.211z M184.875,60.291c0,1.696,0.977,2.978,2.353,2.978c1.345,0,2.353-1.265,2.353-3.01
		c0-1.313-0.656-2.978-2.321-2.978C185.596,57.281,184.875,58.818,184.875,60.291z"/>
	<path d="M192.076,63.316c0-0.593,0.4-1.009,0.96-1.009c0.56,0,0.944,0.416,0.944,1.009c0,0.576-0.368,1.008-0.96,1.008
		C192.459,64.324,192.076,63.893,192.076,63.316z"/>
</g>
</svg>