<!-- Generator: Adobe Illustrator 17.0.0, SVG Export Plug-In  -->
<svg version="1.1"
	 xmlns="http://www.w3.org/2000/svg" xmlns:xlink="http://www.w3.org/1999/xlink" xmlns:a="http://ns.adobe.com/AdobeSVGViewerExtensions/3.0/"
	 x="0px" y="0px" width="289.804px" height="102.063px" viewBox="0 0 289.804 102.063" enable-background="new 0 0 289.804 102.063"
	 xml:space="preserve">
<defs>
</defs>
<polygon fill="#F1F1F1" stroke="#000000" stroke-width="2" stroke-linecap="round" stroke-linejoin="round" stroke-miterlimit="10" points="
	1,1 288.804,1 288.804,68.122 65.145,68.122 65.145,101.063 32.206,68.122 1,68.122 "/>
<g>
	<path fill="#221E1F" d="M43.025,21.774h-4.194v3.889h4.674v1.169h-6.066V16.044h5.827v1.168h-4.434v3.409h4.194V21.774z"/>
	<path fill="#221E1F" d="M45.263,21.181c0-0.8-0.016-1.456-0.064-2.097h1.249l0.08,1.28h0.032c0.384-0.736,1.281-1.456,2.561-1.456
		c1.073,0,2.737,0.64,2.737,3.297v4.626h-1.409v-4.466c0-1.248-0.464-2.289-1.792-2.289c-0.929,0-1.649,0.656-1.889,1.44
		c-0.064,0.177-0.096,0.416-0.096,0.656v4.658h-1.409V21.181z"/>
	<path fill="#221E1F" d="M61.824,26.832l-0.112-0.977h-0.048c-0.432,0.608-1.265,1.152-2.369,1.152
		c-1.569,0-2.369-1.104-2.369-2.225c0-1.873,1.665-2.897,4.658-2.881v-0.16c0-0.641-0.176-1.793-1.761-1.793
		c-0.72,0-1.473,0.225-2.017,0.576l-0.32-0.929c0.64-0.416,1.568-0.688,2.545-0.688c2.369,0,2.945,1.616,2.945,3.169v2.897
		c0,0.672,0.032,1.328,0.128,1.856H61.824z M61.616,22.879c-1.537-0.032-3.281,0.239-3.281,1.744c0,0.912,0.608,1.345,1.329,1.345
		c1.008,0,1.648-0.641,1.873-1.297c0.048-0.144,0.08-0.304,0.08-0.448V22.879z"/>
	<path fill="#221E1F" d="M65.246,15.467h1.409v11.364h-1.409V15.467z"/>
	<path fill="#221E1F" d="M75.697,19.085c-0.032,0.561-0.064,1.185-0.064,2.129v4.498c0,1.776-0.352,2.865-1.104,3.537
		c-0.752,0.704-1.841,0.929-2.817,0.929c-0.928,0-1.953-0.225-2.577-0.641l0.352-1.072c0.512,0.32,1.313,0.608,2.273,0.608
		c1.44,0,2.497-0.753,2.497-2.705v-0.864h-0.032c-0.432,0.72-1.265,1.296-2.465,1.296c-1.921,0-3.297-1.633-3.297-3.777
		c0-2.625,1.712-4.113,3.489-4.113c1.345,0,2.081,0.704,2.417,1.344h0.032l0.064-1.168H75.697z M74.24,22.142
		c0-0.24-0.016-0.448-0.08-0.641c-0.256-0.816-0.944-1.488-1.969-1.488c-1.345,0-2.305,1.136-2.305,2.929
		c0,1.521,0.769,2.785,2.289,2.785c0.864,0,1.648-0.544,1.953-1.44c0.08-0.24,0.112-0.513,0.112-0.752V22.142z"/>
	<path fill="#221E1F" d="M84.448,24.718c0,0.801,0.016,1.505,0.064,2.113h-1.249l-0.08-1.265h-0.032
		c-0.368,0.624-1.185,1.44-2.561,1.44c-1.216,0-2.673-0.672-2.673-3.394v-4.529h1.408v4.29c0,1.473,0.448,2.465,1.729,2.465
		c0.944,0,1.601-0.656,1.856-1.28c0.08-0.209,0.128-0.465,0.128-0.721v-4.754h1.408V24.718z"/>
	<path fill="#221E1F" d="M86.782,21.181c0-0.8-0.016-1.456-0.064-2.097h1.249l0.08,1.28h0.032c0.384-0.736,1.281-1.456,2.561-1.456
		c1.073,0,2.737,0.64,2.737,3.297v4.626h-1.409v-4.466c0-1.248-0.464-2.289-1.792-2.289c-0.929,0-1.649,0.656-1.889,1.44
		c-0.064,0.177-0.096,0.416-0.096,0.656v4.658h-1.409V21.181z"/>
	<path fill="#221E1F" d="M102.673,22.894c0,2.865-1.985,4.113-3.857,4.113c-2.097,0-3.713-1.536-3.713-3.985
		c0-2.593,1.697-4.113,3.841-4.113C101.168,18.909,102.673,20.525,102.673,22.894z M96.526,22.974c0,1.696,0.977,2.978,2.353,2.978
		c1.345,0,2.353-1.265,2.353-3.01c0-1.313-0.656-2.978-2.321-2.978C97.246,19.964,96.526,21.502,96.526,22.974z"/>
	<path fill="#221E1F" d="M104.254,25.391c0.416,0.271,1.152,0.561,1.856,0.561c1.024,0,1.505-0.513,1.505-1.153
		c0-0.672-0.4-1.04-1.441-1.424c-1.393-0.496-2.049-1.265-2.049-2.193c0-1.248,1.009-2.272,2.673-2.272
		c0.784,0,1.473,0.224,1.905,0.479l-0.352,1.024c-0.304-0.191-0.865-0.448-1.585-0.448c-0.832,0-1.296,0.48-1.296,1.057
		c0,0.641,0.464,0.929,1.473,1.313c1.345,0.513,2.033,1.185,2.033,2.337c0,1.36-1.056,2.321-2.897,2.321
		c-0.849,0-1.633-0.208-2.177-0.528L104.254,25.391z"/>
	<path fill="#221E1F" d="M119.696,26.544c-0.368,0.192-1.185,0.448-2.225,0.448c-2.337,0-3.857-1.585-3.857-3.954
		c0-2.385,1.632-4.113,4.162-4.113c0.832,0,1.568,0.208,1.953,0.4l-0.32,1.088c-0.336-0.191-0.864-0.368-1.632-0.368
		c-1.777,0-2.737,1.313-2.737,2.93c0,1.793,1.152,2.897,2.689,2.897c0.801,0,1.329-0.209,1.729-0.385L119.696,26.544z"/>
	<path fill="#221E1F" d="M125.631,26.832l-0.112-0.977h-0.048c-0.432,0.608-1.265,1.152-2.369,1.152
		c-1.569,0-2.369-1.104-2.369-2.225c0-1.873,1.665-2.897,4.658-2.881v-0.16c0-0.641-0.176-1.793-1.761-1.793
		c-0.72,0-1.473,0.225-2.017,0.576l-0.32-0.929c0.64-0.416,1.568-0.688,2.545-0.688c2.369,0,2.945,1.616,2.945,3.169v2.897
		c0,0.672,0.032,1.328,0.128,1.856H125.631z M125.423,22.879c-1.537-0.032-3.281,0.239-3.281,1.744c0,0.912,0.608,1.345,1.329,1.345
		c1.008,0,1.648-0.641,1.873-1.297c0.048-0.144,0.08-0.304,0.08-0.448V22.879z"/>
	<path fill="#221E1F" d="M128.861,25.391c0.416,0.271,1.152,0.561,1.856,0.561c1.024,0,1.505-0.513,1.505-1.153
		c0-0.672-0.4-1.04-1.441-1.424c-1.393-0.496-2.049-1.265-2.049-2.193c0-1.248,1.009-2.272,2.673-2.272
		c0.784,0,1.473,0.224,1.905,0.479l-0.352,1.024c-0.304-0.191-0.865-0.448-1.585-0.448c-0.832,0-1.296,0.48-1.296,1.057
		c0,0.641,0.464,0.929,1.473,1.313c1.345,0.513,2.033,1.185,2.033,2.337c0,1.36-1.056,2.321-2.897,2.321
		c-0.849,0-1.633-0.208-2.177-0.528L128.861,25.391z"/>
	<path fill="#221E1F" d="M142.4,22.894c0,2.865-1.985,4.113-3.857,4.113c-2.097,0-3.713-1.536-3.713-3.985
		c0-2.593,1.696-4.113,3.841-4.113C140.895,18.909,142.4,20.525,142.4,22.894z M136.253,22.974c0,1.696,0.977,2.978,2.353,2.978
		c1.345,0,2.353-1.265,2.353-3.01c0-1.313-0.656-2.978-2.321-2.978C136.973,19.964,136.253,21.502,136.253,22.974z"/>
	<path fill="#221E1F" d="M143.981,25.391c0.416,0.271,1.152,0.561,1.856,0.561c1.024,0,1.505-0.513,1.505-1.153
		c0-0.672-0.4-1.04-1.441-1.424c-1.393-0.496-2.049-1.265-2.049-2.193c0-1.248,1.009-2.272,2.673-2.272
		c0.784,0,1.473,0.224,1.905,0.479l-0.352,1.024c-0.304-0.191-0.865-0.448-1.585-0.448c-0.832,0-1.296,0.48-1.296,1.057
		c0,0.641,0.464,0.929,1.473,1.313c1.345,0.513,2.033,1.185,2.033,2.337c0,1.36-1.056,2.321-2.897,2.321
		c-0.849,0-1.633-0.208-2.177-0.528L143.981,25.391z"/>
	<path fill="#221E1F" d="M153.901,21.181c0-0.8-0.016-1.456-0.064-2.097h1.232l0.064,1.248h0.048
		c0.432-0.736,1.152-1.424,2.433-1.424c1.057,0,1.857,0.64,2.193,1.553h0.032c0.24-0.433,0.544-0.769,0.864-1.009
		c0.464-0.353,0.977-0.544,1.713-0.544c1.024,0,2.545,0.672,2.545,3.361v4.562h-1.376v-4.386c0-1.488-0.544-2.385-1.681-2.385
		c-0.8,0-1.425,0.592-1.665,1.28c-0.064,0.192-0.112,0.448-0.112,0.704v4.786h-1.376V22.19c0-1.232-0.544-2.129-1.617-2.129
		c-0.88,0-1.521,0.704-1.745,1.408c-0.08,0.208-0.112,0.448-0.112,0.688v4.674h-1.376V21.181z"/>
	<path fill="#221E1F" d="M168.813,16.908c0.016,0.48-0.336,0.864-0.896,0.864c-0.496,0-0.849-0.384-0.849-0.864
		c0-0.496,0.368-0.881,0.88-0.881C168.477,16.027,168.813,16.412,168.813,16.908z M167.244,26.832v-7.747h1.409v7.747H167.244z"/>
	<path fill="#221E1F" d="M174.188,25.391c0.416,0.271,1.152,0.561,1.856,0.561c1.024,0,1.505-0.513,1.505-1.153
		c0-0.672-0.4-1.04-1.441-1.424c-1.393-0.496-2.049-1.265-2.049-2.193c0-1.248,1.009-2.272,2.673-2.272
		c0.784,0,1.473,0.224,1.905,0.479l-0.352,1.024c-0.304-0.191-0.865-0.448-1.585-0.448c-0.832,0-1.296,0.48-1.296,1.057
		c0,0.641,0.464,0.929,1.473,1.313c1.345,0.513,2.033,1.185,2.033,2.337c0,1.36-1.056,2.321-2.897,2.321
		c-0.849,0-1.633-0.208-2.177-0.528L174.188,25.391z"/>
	<path fill="#221E1F" d="M181.5,23.214c0.032,1.904,1.249,2.688,2.657,2.688c1.008,0,1.617-0.176,2.145-0.399l0.24,1.008
		c-0.496,0.225-1.344,0.48-2.577,0.48c-2.385,0-3.81-1.568-3.81-3.905s1.376-4.178,3.633-4.178c2.529,0,3.201,2.225,3.201,3.649
		c0,0.288-0.032,0.512-0.048,0.656H181.5z M185.63,22.206c0.016-0.896-0.368-2.289-1.953-2.289c-1.425,0-2.049,1.313-2.161,2.289
		H185.63z"/>
	<path fill="#221E1F" d="M194.254,26.544c-0.368,0.192-1.185,0.448-2.225,0.448c-2.337,0-3.857-1.585-3.857-3.954
		c0-2.385,1.632-4.113,4.162-4.113c0.832,0,1.568,0.208,1.953,0.4l-0.32,1.088c-0.336-0.191-0.864-0.368-1.632-0.368
		c-1.777,0-2.737,1.313-2.737,2.93c0,1.793,1.152,2.897,2.689,2.897c0.801,0,1.329-0.209,1.729-0.385L194.254,26.544z"/>
	<path fill="#221E1F" d="M195.9,21.502c0-0.912-0.016-1.696-0.064-2.417h1.232l0.048,1.521h0.064c0.352-1.04,1.2-1.696,2.145-1.696
		c0.16,0,0.272,0.016,0.4,0.048v1.328c-0.144-0.032-0.288-0.048-0.48-0.048c-0.992,0-1.696,0.752-1.889,1.809
		c-0.032,0.192-0.064,0.416-0.064,0.656v4.13H195.9V21.502z"/>
	<path fill="#221E1F" d="M201.756,23.214c0.032,1.904,1.249,2.688,2.657,2.688c1.008,0,1.617-0.176,2.145-0.399l0.24,1.008
		c-0.496,0.225-1.344,0.48-2.577,0.48c-2.385,0-3.81-1.568-3.81-3.905s1.376-4.178,3.633-4.178c2.529,0,3.201,2.225,3.201,3.649
		c0,0.288-0.032,0.512-0.048,0.656H201.756z M205.886,22.206c0.016-0.896-0.368-2.289-1.953-2.289c-1.425,0-2.049,1.313-2.161,2.289
		H205.886z"/>
	<path fill="#221E1F" d="M210.684,16.86v2.225h2.017v1.072h-2.017v4.178c0,0.96,0.272,1.505,1.056,1.505
		c0.368,0,0.641-0.048,0.816-0.097l0.064,1.057c-0.272,0.112-0.704,0.192-1.249,0.192c-0.656,0-1.184-0.208-1.521-0.593
		c-0.4-0.416-0.544-1.104-0.544-2.017v-4.226h-1.201v-1.072h1.201v-1.856L210.684,16.86z"/>
	<path fill="#221E1F" d="M218.573,26.832l-0.112-0.977h-0.048c-0.432,0.608-1.265,1.152-2.369,1.152
		c-1.569,0-2.369-1.104-2.369-2.225c0-1.873,1.665-2.897,4.658-2.881v-0.16c0-0.641-0.176-1.793-1.761-1.793
		c-0.72,0-1.473,0.225-2.017,0.576l-0.32-0.929c0.64-0.416,1.568-0.688,2.545-0.688c2.369,0,2.945,1.616,2.945,3.169v2.897
		c0,0.672,0.032,1.328,0.128,1.856H218.573z M218.365,22.879c-1.537-0.032-3.281,0.239-3.281,1.744c0,0.912,0.608,1.345,1.329,1.345
		c1.008,0,1.648-0.641,1.873-1.297c0.048-0.144,0.08-0.304,0.08-0.448V22.879z"/>
	<path fill="#221E1F" d="M221.995,21.502c0-0.912-0.016-1.696-0.064-2.417h1.232l0.048,1.521h0.064
		c0.352-1.04,1.2-1.696,2.145-1.696c0.16,0,0.272,0.016,0.4,0.048v1.328c-0.144-0.032-0.288-0.048-0.48-0.048
		c-0.992,0-1.696,0.752-1.889,1.809c-0.032,0.192-0.064,0.416-0.064,0.656v4.13h-1.393V21.502z"/>
	<path fill="#221E1F" d="M228.86,16.908c0.016,0.48-0.336,0.864-0.896,0.864c-0.496,0-0.849-0.384-0.849-0.864
		c0-0.496,0.368-0.881,0.88-0.881C228.524,16.027,228.86,16.412,228.86,16.908z M227.291,26.832v-7.747h1.409v7.747H227.291z"/>
	<path fill="#221E1F" d="M235.325,26.832l-0.112-0.977h-0.048c-0.432,0.608-1.265,1.152-2.369,1.152
		c-1.569,0-2.369-1.104-2.369-2.225c0-1.873,1.665-2.897,4.658-2.881v-0.16c0-0.641-0.176-1.793-1.761-1.793
		c-0.72,0-1.473,0.225-2.017,0.576l-0.32-0.929c0.64-0.416,1.568-0.688,2.545-0.688c2.369,0,2.945,1.616,2.945,3.169v2.897
		c0,0.672,0.032,1.328,0.128,1.856H235.325z M235.117,22.879c-1.537-0.032-3.281,0.239-3.281,1.744c0,0.912,0.608,1.345,1.329,1.345
		c1.008,0,1.648-0.641,1.873-1.297c0.048-0.144,0.08-0.304,0.08-0.448V22.879z"/>
	<path fill="#221E1F" d="M242.139,15.467h1.409v11.364h-1.409V15.467z"/>
	<path fill="#221E1F" d="M252.925,22.894c0,2.865-1.985,4.113-3.857,4.113c-2.097,0-3.713-1.536-3.713-3.985
		c0-2.593,1.696-4.113,3.841-4.113C251.421,18.909,252.925,20.525,252.925,22.894z M246.779,22.974c0,1.696,0.977,2.978,2.353,2.978
		c1.345,0,2.353-1.265,2.353-3.01c0-1.313-0.656-2.978-2.321-2.978C247.499,19.964,246.779,21.502,246.779,22.974z"/>
	<path fill="#221E1F" d="M45.87,37.614c0-0.993-0.032-1.793-0.064-2.529h1.265l0.064,1.328h0.032
		c0.576-0.944,1.489-1.504,2.753-1.504c1.873,0,3.281,1.584,3.281,3.938c0,2.785-1.697,4.161-3.521,4.161
		c-1.024,0-1.921-0.448-2.385-1.216h-0.032v4.209H45.87V37.614z M47.263,39.678c0,0.208,0.032,0.4,0.064,0.576
		c0.256,0.977,1.104,1.648,2.113,1.648c1.489,0,2.353-1.216,2.353-2.993c0-1.553-0.816-2.881-2.305-2.881
		c-0.96,0-1.857,0.688-2.129,1.745c-0.048,0.176-0.096,0.384-0.096,0.576V39.678z"/>
	<path fill="#221E1F" d="M61.456,40.718c0,0.801,0.016,1.505,0.064,2.113h-1.249l-0.08-1.265H60.16
		c-0.368,0.624-1.185,1.44-2.561,1.44c-1.216,0-2.673-0.672-2.673-3.394v-4.529h1.408v4.29c0,1.473,0.448,2.465,1.729,2.465
		c0.944,0,1.601-0.656,1.856-1.28c0.08-0.209,0.128-0.465,0.128-0.721v-4.754h1.408V40.718z"/>
	<path fill="#221E1F" d="M64.574,39.214c0.032,1.904,1.249,2.688,2.657,2.688c1.008,0,1.617-0.176,2.145-0.399l0.24,1.008
		c-0.496,0.225-1.344,0.48-2.577,0.48c-2.385,0-3.81-1.568-3.81-3.905s1.376-4.178,3.633-4.178c2.529,0,3.201,2.225,3.201,3.649
		c0,0.288-0.032,0.512-0.048,0.656H64.574z M68.704,38.206c0.016-0.896-0.368-2.289-1.953-2.289c-1.425,0-2.049,1.313-2.161,2.289
		H68.704z"/>
	<path fill="#221E1F" d="M78.497,31.467v9.363c0,0.688,0.016,1.473,0.064,2.001h-1.265l-0.064-1.345H77.2
		c-0.432,0.864-1.376,1.521-2.641,1.521c-1.873,0-3.313-1.584-3.313-3.938c-0.016-2.577,1.584-4.161,3.473-4.161
		c1.185,0,1.985,0.56,2.337,1.185h0.032v-4.626H78.497z M77.088,38.238c0-0.176-0.016-0.416-0.064-0.593
		c-0.208-0.896-0.977-1.632-2.033-1.632c-1.457,0-2.321,1.28-2.321,2.993c0,1.568,0.769,2.865,2.289,2.865
		c0.944,0,1.809-0.625,2.065-1.681c0.048-0.192,0.064-0.385,0.064-0.608V38.238z"/>
	<path fill="#221E1F" d="M87.841,38.894c0,2.865-1.985,4.113-3.857,4.113c-2.097,0-3.713-1.536-3.713-3.985
		c0-2.593,1.697-4.113,3.841-4.113C86.336,34.909,87.841,36.525,87.841,38.894z M81.694,38.974c0,1.696,0.977,2.978,2.353,2.978
		c1.345,0,2.353-1.265,2.353-3.01c0-1.313-0.656-2.978-2.321-2.978C82.414,35.964,81.694,37.502,81.694,38.974z"/>
	<path fill="#221E1F" d="M93.005,31.467h1.409v4.834h0.032c0.224-0.4,0.576-0.753,1.009-0.993c0.416-0.239,0.912-0.399,1.44-0.399
		c1.041,0,2.705,0.64,2.705,3.313v4.609h-1.409v-4.45c0-1.248-0.464-2.305-1.792-2.305c-0.913,0-1.633,0.641-1.889,1.409
		c-0.08,0.191-0.096,0.399-0.096,0.672v4.674h-1.409V31.467z"/>
	<path fill="#221E1F" d="M106.175,42.832l-0.112-0.977h-0.048c-0.432,0.608-1.265,1.152-2.369,1.152
		c-1.569,0-2.369-1.104-2.369-2.225c0-1.873,1.665-2.897,4.658-2.881v-0.16c0-0.641-0.176-1.793-1.761-1.793
		c-0.72,0-1.473,0.225-2.017,0.576l-0.32-0.929c0.64-0.416,1.568-0.688,2.545-0.688c2.369,0,2.945,1.616,2.945,3.169v2.897
		c0,0.672,0.032,1.328,0.128,1.856H106.175z M105.967,38.879c-1.537-0.032-3.281,0.239-3.281,1.744c0,0.912,0.608,1.345,1.329,1.345
		c1.008,0,1.648-0.641,1.873-1.297c0.048-0.144,0.08-0.304,0.08-0.448V38.879z"/>
	<path fill="#221E1F" d="M115.119,42.544c-0.368,0.192-1.185,0.448-2.225,0.448c-2.337,0-3.857-1.585-3.857-3.954
		c0-2.385,1.632-4.113,4.162-4.113c0.832,0,1.568,0.208,1.953,0.4l-0.32,1.088c-0.336-0.191-0.864-0.368-1.632-0.368
		c-1.777,0-2.737,1.313-2.737,2.93c0,1.793,1.152,2.897,2.689,2.897c0.801,0,1.329-0.209,1.729-0.385L115.119,42.544z"/>
	<path fill="#221E1F" d="M117.453,39.214c0.032,1.904,1.249,2.688,2.657,2.688c1.008,0,1.617-0.176,2.145-0.399l0.24,1.008
		c-0.496,0.225-1.344,0.48-2.577,0.48c-2.385,0-3.81-1.568-3.81-3.905s1.376-4.178,3.633-4.178c2.529,0,3.201,2.225,3.201,3.649
		c0,0.288-0.032,0.512-0.048,0.656H117.453z M121.583,38.206c0.016-0.896-0.368-2.289-1.953-2.289c-1.425,0-2.049,1.313-2.161,2.289
		H121.583z"/>
	<path fill="#221E1F" d="M124.685,37.502c0-0.912-0.016-1.696-0.064-2.417h1.232l0.048,1.521h0.064
		c0.352-1.04,1.2-1.696,2.145-1.696c0.16,0,0.272,0.016,0.4,0.048v1.328c-0.144-0.032-0.288-0.048-0.48-0.048
		c-0.992,0-1.696,0.752-1.889,1.809c-0.032,0.192-0.064,0.416-0.064,0.656v4.13h-1.393V37.502z"/>
	<path fill="#221E1F" d="M133.309,37.614c0-0.993-0.032-1.793-0.064-2.529h1.265l0.064,1.328h0.032
		c0.576-0.944,1.489-1.504,2.753-1.504c1.873,0,3.281,1.584,3.281,3.938c0,2.785-1.697,4.161-3.521,4.161
		c-1.024,0-1.921-0.448-2.385-1.216h-0.032v4.209h-1.393V37.614z M134.701,39.678c0,0.208,0.032,0.4,0.064,0.576
		c0.256,0.977,1.104,1.648,2.113,1.648c1.489,0,2.353-1.216,2.353-2.993c0-1.553-0.816-2.881-2.305-2.881
		c-0.96,0-1.857,0.688-2.129,1.745c-0.048,0.176-0.096,0.384-0.096,0.576V39.678z"/>
	<path fill="#221E1F" d="M143.197,39.214c0.032,1.904,1.249,2.688,2.657,2.688c1.008,0,1.617-0.176,2.145-0.399l0.24,1.008
		c-0.496,0.225-1.344,0.48-2.577,0.48c-2.385,0-3.81-1.568-3.81-3.905s1.376-4.178,3.633-4.178c2.529,0,3.201,2.225,3.201,3.649
		c0,0.288-0.032,0.512-0.048,0.656H143.197z M147.326,38.206c0.016-0.896-0.368-2.289-1.953-2.289c-1.425,0-2.049,1.313-2.161,2.289
		H147.326z"/>
	<path fill="#221E1F" d="M150.428,37.502c0-0.912-0.016-1.696-0.064-2.417h1.232l0.048,1.521h0.064
		c0.352-1.04,1.2-1.696,2.145-1.696c0.16,0,0.272,0.016,0.4,0.048v1.328c-0.144-0.032-0.288-0.048-0.48-0.048
		c-0.992,0-1.696,0.752-1.889,1.809c-0.032,0.192-0.064,0.416-0.064,0.656v4.13h-1.393V37.502z"/>
	<path fill="#221E1F" d="M162.51,38.894c0,2.865-1.985,4.113-3.857,4.113c-2.097,0-3.713-1.536-3.713-3.985
		c0-2.593,1.697-4.113,3.841-4.113C161.006,34.909,162.51,36.525,162.51,38.894z M156.364,38.974c0,1.696,0.977,2.978,2.353,2.978
		c1.345,0,2.353-1.265,2.353-3.01c0-1.313-0.656-2.978-2.321-2.978C157.084,35.964,156.364,37.502,156.364,38.974z"/>
	<path fill="#221E1F" d="M168.459,39.214c0.032,1.904,1.249,2.688,2.657,2.688c1.008,0,1.617-0.176,2.145-0.399l0.24,1.008
		c-0.496,0.225-1.344,0.48-2.577,0.48c-2.385,0-3.81-1.568-3.81-3.905s1.376-4.178,3.633-4.178c2.529,0,3.201,2.225,3.201,3.649
		c0,0.288-0.032,0.512-0.048,0.656H168.459z M172.589,38.206c0.016-0.896-0.368-2.289-1.953-2.289c-1.425,0-2.049,1.313-2.161,2.289
		H172.589z"/>
	<path fill="#221E1F" d="M175.691,37.181c0-0.8-0.016-1.456-0.064-2.097h1.249l0.08,1.28h0.032c0.384-0.736,1.281-1.456,2.561-1.456
		c1.073,0,2.737,0.64,2.737,3.297v4.626h-1.409v-4.466c0-1.248-0.464-2.289-1.792-2.289c-0.929,0-1.649,0.656-1.889,1.44
		c-0.064,0.177-0.096,0.416-0.096,0.656v4.658h-1.409V37.181z"/>
	<path fill="#221E1F" d="M194.973,38.894c0,2.865-1.985,4.113-3.857,4.113c-2.097,0-3.713-1.536-3.713-3.985
		c0-2.593,1.696-4.113,3.841-4.113C193.469,34.909,194.973,36.525,194.973,38.894z M188.826,38.974c0,1.696,0.977,2.978,2.353,2.978
		c1.345,0,2.353-1.265,2.353-3.01c0-1.313-0.656-2.978-2.321-2.978C189.547,35.964,188.826,37.502,188.826,38.974z"/>
	<path fill="#221E1F" d="M198.443,32.86v2.225h2.017v1.072h-2.017v4.178c0,0.96,0.272,1.505,1.056,1.505
		c0.368,0,0.641-0.048,0.816-0.097l0.064,1.057c-0.272,0.112-0.704,0.192-1.249,0.192c-0.656,0-1.184-0.208-1.521-0.593
		c-0.4-0.416-0.544-1.104-0.544-2.017v-4.226h-1.201v-1.072h1.201v-1.856L198.443,32.86z"/>
	<path fill="#221E1F" d="M202.042,37.502c0-0.912-0.016-1.696-0.064-2.417h1.232l0.048,1.521h0.064
		c0.352-1.04,1.2-1.696,2.145-1.696c0.16,0,0.272,0.016,0.4,0.048v1.328c-0.144-0.032-0.288-0.048-0.48-0.048
		c-0.992,0-1.696,0.752-1.889,1.809c-0.032,0.192-0.064,0.416-0.064,0.656v4.13h-1.393V37.502z"/>
	<path fill="#221E1F" d="M214.125,38.894c0,2.865-1.985,4.113-3.857,4.113c-2.097,0-3.713-1.536-3.713-3.985
		c0-2.593,1.696-4.113,3.841-4.113C212.621,34.909,214.125,36.525,214.125,38.894z M207.979,38.974c0,1.696,0.977,2.978,2.353,2.978
		c1.345,0,2.353-1.265,2.353-3.01c0-1.313-0.656-2.978-2.321-2.978C208.699,35.964,207.979,37.502,207.979,38.974z"/>
	<path fill="#221E1F" d="M215.706,41.391c0.416,0.271,1.152,0.561,1.856,0.561c1.024,0,1.505-0.513,1.505-1.153
		c0-0.672-0.4-1.04-1.441-1.424c-1.393-0.496-2.049-1.265-2.049-2.193c0-1.248,1.009-2.272,2.673-2.272
		c0.784,0,1.473,0.224,1.905,0.479l-0.352,1.024c-0.304-0.191-0.865-0.448-1.585-0.448c-0.832,0-1.296,0.48-1.296,1.057
		c0,0.641,0.464,0.929,1.473,1.313c1.345,0.513,2.033,1.185,2.033,2.337c0,1.36-1.056,2.321-2.897,2.321
		c-0.849,0-1.633-0.208-2.177-0.528L215.706,41.391z"/>
	<path fill="#221E1F" d="M225.625,37.181c0-0.8-0.016-1.456-0.064-2.097h1.249l0.08,1.28h0.032c0.384-0.736,1.281-1.456,2.561-1.456
		c1.073,0,2.737,0.64,2.737,3.297v4.626h-1.409v-4.466c0-1.248-0.464-2.289-1.792-2.289c-0.929,0-1.649,0.656-1.889,1.44
		c-0.064,0.177-0.096,0.416-0.096,0.656v4.658h-1.409V37.181z"/>
	<path fill="#221E1F" d="M241.516,38.894c0,2.865-1.985,4.113-3.857,4.113c-2.097,0-3.713-1.536-3.713-3.985
		c0-2.593,1.696-4.113,3.841-4.113C240.011,34.909,241.516,36.525,241.516,38.894z M235.369,38.974c0,1.696,0.977,2.978,2.353,2.978
		c1.345,0,2.353-1.265,2.353-3.01c0-1.313-0.656-2.978-2.321-2.978C236.09,35.964,235.369,37.502,235.369,38.974z"/>
	<path fill="#221E1F" d="M242.57,42c0-0.593,0.4-1.009,0.96-1.009c0.56,0,0.944,0.416,0.944,1.009c0,0.576-0.368,1.008-0.96,1.008
		C242.953,43.007,242.57,42.576,242.57,42z"/>
</g>
</svg>