<!-- Generator: Adobe Illustrator 17.0.0, SVG Export Plug-In  -->
<svg version="1.1"
	 xmlns="http://www.w3.org/2000/svg" xmlns:xlink="http://www.w3.org/1999/xlink" xmlns:a="http://ns.adobe.com/AdobeSVGViewerExtensions/3.0/"
	 x="0px" y="0px" width="289.804px" height="102.063px" viewBox="0 0 289.804 102.063" enable-background="new 0 0 289.804 102.063"
	 xml:space="preserve">
<defs>
</defs>
<polygon fill="#F1F1F1" stroke="#000000" stroke-width="2" stroke-linecap="round" stroke-linejoin="round" stroke-miterlimit="10" points="
	1,1 288.804,1 288.804,68.122 65.145,68.122 65.145,101.063 32.206,68.122 1,68.122 "/>
<g>
	<path fill="#221E1F" d="M65.546,22.221c-0.08-1.504-0.176-3.313-0.16-4.657h-0.048c-0.368,1.265-0.816,2.608-1.36,4.098
		l-1.905,5.233h-1.057l-1.745-5.138c-0.512-1.521-0.944-2.913-1.249-4.193h-0.032c-0.032,1.345-0.112,3.153-0.208,4.77l-0.288,4.626
		h-1.329l0.752-10.788h1.777l1.841,5.218c0.448,1.328,0.816,2.513,1.088,3.634h0.048c0.272-1.089,0.656-2.273,1.137-3.634
		l1.92-5.218h1.777l0.672,10.788h-1.361L65.546,22.221z"/>
	<path fill="#221E1F" d="M70.151,23.342c0.032,1.904,1.249,2.688,2.657,2.688c1.008,0,1.617-0.176,2.145-0.399l0.24,1.008
		c-0.496,0.225-1.344,0.48-2.577,0.48c-2.385,0-3.81-1.568-3.81-3.905s1.376-4.178,3.633-4.178c2.529,0,3.201,2.225,3.201,3.649
		c0,0.288-0.032,0.512-0.048,0.656H70.151z M74.281,22.333c0.016-0.896-0.368-2.289-1.953-2.289c-1.425,0-2.049,1.313-2.161,2.289
		H74.281z"/>
	<path fill="#221E1F" d="M80.774,21.741c0-0.993-0.032-1.793-0.064-2.529h1.265l0.064,1.328h0.032
		c0.576-0.944,1.489-1.504,2.753-1.504c1.873,0,3.281,1.584,3.281,3.938c0,2.785-1.697,4.161-3.521,4.161
		c-1.024,0-1.921-0.448-2.385-1.216h-0.032v4.209h-1.393V21.741z M82.166,23.806c0,0.208,0.032,0.4,0.064,0.576
		c0.256,0.977,1.104,1.648,2.113,1.648c1.489,0,2.353-1.216,2.353-2.993c0-1.553-0.816-2.881-2.305-2.881
		c-0.96,0-1.857,0.688-2.129,1.745c-0.048,0.176-0.096,0.384-0.096,0.576V23.806z"/>
	<path fill="#221E1F" d="M94.167,26.959l-0.112-0.977h-0.048c-0.432,0.608-1.265,1.152-2.369,1.152
		c-1.569,0-2.369-1.104-2.369-2.225c0-1.873,1.665-2.897,4.658-2.881v-0.16c0-0.641-0.176-1.793-1.761-1.793
		c-0.72,0-1.473,0.225-2.017,0.576l-0.32-0.929c0.64-0.416,1.568-0.688,2.545-0.688c2.369,0,2.945,1.616,2.945,3.169v2.897
		c0,0.672,0.032,1.328,0.128,1.856H94.167z M93.959,23.006c-1.537-0.032-3.281,0.239-3.281,1.744c0,0.912,0.608,1.345,1.329,1.345
		c1.008,0,1.648-0.641,1.873-1.297c0.048-0.144,0.08-0.304,0.08-0.448V23.006z"/>
	<path fill="#221E1F" d="M97.589,21.629c0-0.912-0.016-1.696-0.064-2.417h1.232l0.048,1.521h0.064c0.352-1.04,1.2-1.696,2.145-1.696
		c0.16,0,0.272,0.016,0.4,0.048v1.328c-0.144-0.032-0.288-0.048-0.48-0.048c-0.992,0-1.696,0.752-1.889,1.809
		c-0.032,0.192-0.064,0.416-0.064,0.656v4.13h-1.393V21.629z"/>
	<path fill="#221E1F" d="M103.446,23.342c0.032,1.904,1.249,2.688,2.657,2.688c1.008,0,1.617-0.176,2.145-0.399l0.24,1.008
		c-0.496,0.225-1.344,0.48-2.577,0.48c-2.385,0-3.81-1.568-3.81-3.905s1.376-4.178,3.633-4.178c2.529,0,3.201,2.225,3.201,3.649
		c0,0.288-0.032,0.512-0.048,0.656H103.446z M107.575,22.333c0.016-0.896-0.368-2.289-1.953-2.289c-1.425,0-2.049,1.313-2.161,2.289
		H107.575z"/>
	<path fill="#221E1F" d="M116.2,26.671c-0.368,0.192-1.185,0.448-2.225,0.448c-2.337,0-3.857-1.585-3.857-3.954
		c0-2.385,1.632-4.113,4.162-4.113c0.832,0,1.568,0.208,1.953,0.4l-0.32,1.088c-0.336-0.191-0.865-0.368-1.633-0.368
		c-1.777,0-2.737,1.313-2.737,2.93c0,1.793,1.152,2.897,2.689,2.897c0.801,0,1.329-0.209,1.729-0.385L116.2,26.671z"/>
	<path fill="#221E1F" d="M118.533,23.342c0.032,1.904,1.249,2.688,2.657,2.688c1.008,0,1.617-0.176,2.145-0.399l0.24,1.008
		c-0.496,0.225-1.344,0.48-2.577,0.48c-2.385,0-3.81-1.568-3.81-3.905s1.376-4.178,3.633-4.178c2.529,0,3.201,2.225,3.201,3.649
		c0,0.288-0.032,0.512-0.048,0.656H118.533z M122.663,22.333c0.016-0.896-0.368-2.289-1.953-2.289c-1.425,0-2.049,1.313-2.161,2.289
		H122.663z"/>
	<path fill="#221E1F" d="M135.639,24.846c0,0.801,0.016,1.505,0.064,2.113h-1.249l-0.08-1.265h-0.032
		c-0.368,0.624-1.185,1.44-2.561,1.44c-1.216,0-2.673-0.672-2.673-3.394v-4.529h1.408v4.29c0,1.473,0.448,2.465,1.729,2.465
		c0.944,0,1.601-0.656,1.856-1.28c0.08-0.209,0.128-0.465,0.128-0.721v-4.754h1.408V24.846z"/>
	<path fill="#221E1F" d="M137.973,21.309c0-0.8-0.016-1.456-0.064-2.097h1.249l0.08,1.28h0.032c0.384-0.736,1.281-1.456,2.561-1.456
		c1.073,0,2.737,0.64,2.737,3.297v4.626h-1.409v-4.466c0-1.248-0.464-2.289-1.792-2.289c-0.929,0-1.649,0.656-1.889,1.44
		c-0.064,0.177-0.096,0.416-0.096,0.656v4.658h-1.409V21.309z"/>
	<path fill="#221E1F" d="M151.142,26.959l-0.112-0.977h-0.048c-0.432,0.608-1.265,1.152-2.369,1.152
		c-1.569,0-2.369-1.104-2.369-2.225c0-1.873,1.665-2.897,4.658-2.881v-0.16c0-0.641-0.176-1.793-1.761-1.793
		c-0.72,0-1.473,0.225-2.017,0.576l-0.32-0.929c0.64-0.416,1.568-0.688,2.545-0.688c2.369,0,2.945,1.616,2.945,3.169v2.897
		c0,0.672,0.032,1.328,0.128,1.856H151.142z M150.934,23.006c-1.537-0.032-3.281,0.239-3.281,1.744c0,0.912,0.608,1.345,1.329,1.345
		c1.008,0,1.648-0.641,1.873-1.297c0.048-0.144,0.08-0.304,0.08-0.448V23.006z"/>
	<path fill="#221E1F" d="M157.892,26.959c0.032-0.528,0.064-1.313,0.064-2.001v-9.363h1.393v4.865h0.032
		c0.496-0.864,1.393-1.424,2.641-1.424c1.921,0,3.282,1.601,3.266,3.953c0,2.77-1.745,4.146-3.474,4.146
		c-1.12,0-2.017-0.432-2.593-1.456h-0.048l-0.064,1.28H157.892z M159.349,23.854c0,0.177,0.032,0.353,0.064,0.513
		c0.272,0.977,1.088,1.648,2.113,1.648c1.473,0,2.353-1.2,2.353-2.978c0-1.553-0.8-2.881-2.305-2.881
		c-0.96,0-1.857,0.656-2.145,1.729c-0.032,0.16-0.08,0.353-0.08,0.576V23.854z"/>
	<path fill="#221E1F" d="M173.542,24.846c0,0.801,0.016,1.505,0.064,2.113h-1.249l-0.08-1.265h-0.032
		c-0.368,0.624-1.185,1.44-2.561,1.44c-1.216,0-2.673-0.672-2.673-3.394v-4.529h1.408v4.29c0,1.473,0.448,2.465,1.729,2.465
		c0.944,0,1.601-0.656,1.856-1.28c0.08-0.209,0.128-0.465,0.128-0.721v-4.754h1.408V24.846z"/>
	<path fill="#221E1F" d="M176.66,23.342c0.032,1.904,1.249,2.688,2.657,2.688c1.008,0,1.617-0.176,2.145-0.399l0.24,1.008
		c-0.496,0.225-1.344,0.48-2.577,0.48c-2.385,0-3.81-1.568-3.81-3.905s1.376-4.178,3.633-4.178c2.529,0,3.201,2.225,3.201,3.649
		c0,0.288-0.032,0.512-0.048,0.656H176.66z M180.79,22.333c0.016-0.896-0.368-2.289-1.953-2.289c-1.425,0-2.049,1.313-2.161,2.289
		H180.79z"/>
	<path fill="#221E1F" d="M183.892,21.309c0-0.8-0.016-1.456-0.064-2.097h1.249l0.08,1.28h0.032c0.384-0.736,1.281-1.456,2.561-1.456
		c1.073,0,2.737,0.64,2.737,3.297v4.626h-1.409v-4.466c0-1.248-0.464-2.289-1.792-2.289c-0.929,0-1.649,0.656-1.889,1.44
		c-0.064,0.177-0.096,0.416-0.096,0.656v4.658h-1.409V21.309z"/>
	<path fill="#221E1F" d="M197.061,26.959l-0.112-0.977h-0.048c-0.432,0.608-1.265,1.152-2.369,1.152
		c-1.569,0-2.369-1.104-2.369-2.225c0-1.873,1.665-2.897,4.658-2.881v-0.16c0-0.641-0.176-1.793-1.761-1.793
		c-0.72,0-1.473,0.225-2.017,0.576l-0.32-0.929c0.64-0.416,1.568-0.688,2.545-0.688c2.369,0,2.945,1.616,2.945,3.169v2.897
		c0,0.672,0.032,1.328,0.128,1.856H197.061z M196.853,23.006c-1.537-0.032-3.281,0.239-3.281,1.744c0,0.912,0.608,1.345,1.329,1.345
		c1.008,0,1.648-0.641,1.873-1.297c0.048-0.144,0.08-0.304,0.08-0.448V23.006z"/>
	<path fill="#221E1F" d="M205.444,17.035c0.016,0.48-0.336,0.864-0.896,0.864c-0.496,0-0.849-0.384-0.849-0.864
		c0-0.496,0.368-0.881,0.88-0.881C205.108,16.154,205.444,16.539,205.444,17.035z M203.875,26.959v-7.747h1.409v7.747H203.875z"/>
	<path fill="#221E1F" d="M214.31,15.595v9.363c0,0.688,0.016,1.473,0.064,2.001h-1.265l-0.064-1.345h-0.032
		c-0.432,0.864-1.376,1.521-2.641,1.521c-1.873,0-3.313-1.584-3.313-3.938c-0.016-2.577,1.584-4.161,3.473-4.161
		c1.185,0,1.985,0.56,2.337,1.185h0.032v-4.626H214.31z M212.902,22.365c0-0.176-0.016-0.416-0.064-0.593
		c-0.208-0.896-0.977-1.632-2.033-1.632c-1.457,0-2.321,1.28-2.321,2.993c0,1.568,0.769,2.865,2.289,2.865
		c0.944,0,1.809-0.625,2.065-1.681c0.048-0.192,0.064-0.385,0.064-0.608V22.365z"/>
	<path fill="#221E1F" d="M217.428,23.342c0.032,1.904,1.249,2.688,2.657,2.688c1.008,0,1.617-0.176,2.145-0.399l0.24,1.008
		c-0.496,0.225-1.344,0.48-2.577,0.48c-2.385,0-3.81-1.568-3.81-3.905s1.376-4.178,3.633-4.178c2.529,0,3.201,2.225,3.201,3.649
		c0,0.288-0.032,0.512-0.048,0.656H217.428z M221.558,22.333c0.016-0.896-0.368-2.289-1.953-2.289c-1.425,0-2.049,1.313-2.161,2.289
		H221.558z"/>
	<path fill="#221E1F" d="M228.949,26.959l-0.112-0.977h-0.048c-0.432,0.608-1.265,1.152-2.369,1.152
		c-1.569,0-2.369-1.104-2.369-2.225c0-1.873,1.665-2.897,4.658-2.881v-0.16c0-0.641-0.176-1.793-1.761-1.793
		c-0.72,0-1.473,0.225-2.017,0.576l-0.32-0.929c0.64-0.416,1.568-0.688,2.545-0.688c2.369,0,2.945,1.616,2.945,3.169v2.897
		c0,0.672,0.032,1.328,0.128,1.856H228.949z M228.741,23.006c-1.537-0.032-3.281,0.239-3.281,1.744c0,0.912,0.608,1.345,1.329,1.345
		c1.008,0,1.648-0.641,1.873-1.297c0.048-0.144,0.08-0.304,0.08-0.448V23.006z"/>
	<path fill="#221E1F" d="M232.035,26.127c0-0.593,0.4-1.009,0.96-1.009c0.56,0,0.944,0.416,0.944,1.009
		c0,0.576-0.368,1.008-0.96,1.008C232.419,27.135,232.035,26.703,232.035,26.127z"/>
	<path fill="#221E1F" d="M56.96,38.397l0.048,0.416c0.096,0.864-0.208,1.776-1.008,2.737c-0.72,0.864-1.104,1.456-1.104,2.177
		c0,0.816,0.496,1.36,1.521,1.36c0.561,0,1.201-0.176,1.617-0.496l0.384,1.024c-0.544,0.368-1.457,0.64-2.305,0.64
		c-1.825,0-2.673-1.136-2.673-2.353c0-1.089,0.608-1.856,1.393-2.753c0.688-0.849,0.944-1.521,0.896-2.337l-0.016-0.416H56.96z
		 M57.296,36.124c0,0.561-0.368,1.009-0.944,1.009s-0.944-0.448-0.944-1.009c0-0.576,0.384-0.992,0.944-0.992
		C56.927,35.132,57.296,35.548,57.296,36.124z"/>
	<path fill="#221E1F" d="M67.809,42.606c-0.512,0.257-1.537,0.513-2.849,0.513c-3.041,0-5.33-1.921-5.33-5.458
		c0-3.378,2.289-5.667,5.634-5.667c1.345,0,2.193,0.288,2.561,0.48l-0.336,1.137c-0.528-0.256-1.281-0.448-2.177-0.448
		c-2.529,0-4.209,1.616-4.209,4.45c0,2.641,1.521,4.337,4.146,4.337c0.849,0,1.713-0.176,2.273-0.448L67.809,42.606z"/>
	<path fill="#221E1F" d="M76.337,39.021c0,2.865-1.985,4.113-3.857,4.113c-2.097,0-3.713-1.536-3.713-3.985
		c0-2.593,1.697-4.113,3.841-4.113C74.832,35.036,76.337,36.652,76.337,39.021z M70.19,39.102c0,1.696,0.977,2.978,2.353,2.978
		c1.345,0,2.353-1.265,2.353-3.01c0-1.313-0.656-2.978-2.321-2.978C70.91,36.092,70.19,37.629,70.19,39.102z M74.656,31.866
		l-1.953,2.289h-1.008l1.408-2.289H74.656z"/>
	<path fill="#221E1F" d="M78.11,37.309c0-0.8-0.016-1.456-0.064-2.097h1.232l0.064,1.248h0.048c0.432-0.736,1.152-1.424,2.433-1.424
		c1.057,0,1.857,0.64,2.193,1.553h0.032c0.24-0.433,0.544-0.769,0.864-1.009c0.464-0.353,0.977-0.544,1.713-0.544
		c1.024,0,2.545,0.672,2.545,3.361v4.562h-1.376v-4.386c0-1.488-0.544-2.385-1.681-2.385c-0.8,0-1.425,0.592-1.665,1.28
		c-0.064,0.192-0.112,0.448-0.112,0.704v4.786H82.96v-4.642c0-1.232-0.544-2.129-1.617-2.129c-0.88,0-1.521,0.704-1.745,1.408
		c-0.08,0.208-0.112,0.448-0.112,0.688v4.674H78.11V37.309z"/>
	<path fill="#221E1F" d="M98.464,39.021c0,2.865-1.985,4.113-3.857,4.113c-2.097,0-3.713-1.536-3.713-3.985
		c0-2.593,1.696-4.113,3.841-4.113C96.96,35.036,98.464,36.652,98.464,39.021z M92.318,39.102c0,1.696,0.977,2.978,2.353,2.978
		c1.345,0,2.353-1.265,2.353-3.01c0-1.313-0.656-2.978-2.321-2.978C93.038,36.092,92.318,37.629,92.318,39.102z"/>
	<path fill="#221E1F" d="M103.437,41.519c0.416,0.271,1.152,0.561,1.856,0.561c1.024,0,1.505-0.513,1.505-1.153
		c0-0.672-0.4-1.04-1.441-1.424c-1.393-0.496-2.049-1.265-2.049-2.193c0-1.248,1.009-2.272,2.673-2.272
		c0.784,0,1.473,0.224,1.905,0.479l-0.352,1.024c-0.304-0.191-0.865-0.448-1.585-0.448c-0.832,0-1.296,0.48-1.296,1.057
		c0,0.641,0.464,0.929,1.473,1.313c1.345,0.513,2.033,1.185,2.033,2.337c0,1.36-1.056,2.321-2.897,2.321
		c-0.849,0-1.633-0.208-2.177-0.528L103.437,41.519z"/>
	<path fill="#221E1F" d="M110.749,39.342c0.032,1.904,1.249,2.688,2.657,2.688c1.008,0,1.617-0.176,2.145-0.399l0.24,1.008
		c-0.496,0.225-1.344,0.48-2.577,0.48c-2.385,0-3.81-1.568-3.81-3.905s1.376-4.178,3.633-4.178c2.529,0,3.201,2.225,3.201,3.649
		c0,0.288-0.032,0.512-0.048,0.656H110.749z M114.879,38.333c0.016-0.896-0.368-2.289-1.953-2.289c-1.425,0-2.049,1.313-2.161,2.289
		H114.879z"/>
	<path fill="#221E1F" d="M121.372,37.741c0-0.993-0.032-1.793-0.064-2.529h1.265l0.064,1.328h0.032
		c0.576-0.944,1.489-1.504,2.753-1.504c1.873,0,3.281,1.584,3.281,3.938c0,2.785-1.697,4.161-3.521,4.161
		c-1.024,0-1.921-0.448-2.385-1.216h-0.032v4.209h-1.393V37.741z M122.765,39.806c0,0.208,0.032,0.4,0.064,0.576
		c0.256,0.977,1.104,1.648,2.113,1.648c1.489,0,2.353-1.216,2.353-2.993c0-1.553-0.816-2.881-2.305-2.881
		c-0.96,0-1.857,0.688-2.129,1.745c-0.048,0.176-0.096,0.384-0.096,0.576V39.806z"/>
	<path fill="#221E1F" d="M137.487,39.021c0,2.865-1.985,4.113-3.857,4.113c-2.097,0-3.713-1.536-3.713-3.985
		c0-2.593,1.696-4.113,3.841-4.113C135.982,35.036,137.487,36.652,137.487,39.021z M131.34,39.102c0,1.696,0.977,2.978,2.353,2.978
		c1.345,0,2.353-1.265,2.353-3.01c0-1.313-0.656-2.978-2.321-2.978C132.06,36.092,131.34,37.629,131.34,39.102z"/>
	<path fill="#221E1F" d="M145.951,31.595v9.363c0,0.688,0.016,1.473,0.064,2.001h-1.265l-0.064-1.345h-0.032
		c-0.432,0.864-1.376,1.521-2.641,1.521c-1.873,0-3.313-1.584-3.313-3.938c-0.016-2.577,1.584-4.161,3.473-4.161
		c1.185,0,1.985,0.56,2.337,1.185h0.032v-4.626H145.951z M144.542,38.365c0-0.176-0.016-0.416-0.064-0.593
		c-0.208-0.896-0.977-1.632-2.033-1.632c-1.457,0-2.321,1.28-2.321,2.993c0,1.568,0.769,2.865,2.289,2.865
		c0.944,0,1.809-0.625,2.065-1.681c0.048-0.192,0.064-0.385,0.064-0.608V38.365z"/>
	<path fill="#221E1F" d="M148.284,37.629c0-0.912-0.016-1.696-0.064-2.417h1.232l0.048,1.521h0.064
		c0.352-1.04,1.2-1.696,2.145-1.696c0.16,0,0.272,0.016,0.4,0.048v1.328c-0.144-0.032-0.288-0.048-0.48-0.048
		c-0.992,0-1.697,0.752-1.889,1.809c-0.032,0.192-0.064,0.416-0.064,0.656v4.13h-1.393V37.629z"/>
	<path fill="#221E1F" d="M156.445,31.866l-1.953,2.289h-1.009l1.409-2.289H156.445z M153.58,42.959v-7.747h1.409v7.747H153.58z"/>
	<path fill="#221E1F" d="M161.614,42.959l-0.112-0.977h-0.048c-0.433,0.608-1.265,1.152-2.369,1.152
		c-1.569,0-2.369-1.104-2.369-2.225c0-1.873,1.665-2.897,4.658-2.881v-0.16c0-0.641-0.176-1.793-1.761-1.793
		c-0.72,0-1.473,0.225-2.017,0.576l-0.32-0.929c0.64-0.416,1.568-0.688,2.545-0.688c2.369,0,2.945,1.616,2.945,3.169v2.897
		c0,0.672,0.032,1.328,0.128,1.856H161.614z M161.406,39.006c-1.537-0.032-3.281,0.239-3.281,1.744c0,0.912,0.608,1.345,1.329,1.345
		c1.008,0,1.648-0.641,1.873-1.297c0.048-0.144,0.08-0.304,0.08-0.448V39.006z"/>
	<path fill="#221E1F" d="M168.427,31.595h1.409v4.834h0.032c0.224-0.4,0.576-0.753,1.009-0.993c0.416-0.239,0.912-0.399,1.44-0.399
		c1.041,0,2.705,0.64,2.705,3.313v4.609h-1.409v-4.45c0-1.248-0.464-2.305-1.792-2.305c-0.913,0-1.633,0.641-1.889,1.409
		c-0.08,0.191-0.096,0.399-0.096,0.672v4.674h-1.409V31.595z"/>
	<path fill="#221E1F" d="M181.597,42.959l-0.112-0.977h-0.048c-0.433,0.608-1.265,1.152-2.369,1.152
		c-1.569,0-2.369-1.104-2.369-2.225c0-1.873,1.665-2.897,4.658-2.881v-0.16c0-0.641-0.176-1.793-1.761-1.793
		c-0.72,0-1.473,0.225-2.017,0.576l-0.32-0.929c0.64-0.416,1.568-0.688,2.545-0.688c2.369,0,2.945,1.616,2.945,3.169v2.897
		c0,0.672,0.032,1.328,0.128,1.856H181.597z M181.389,39.006c-1.537-0.032-3.281,0.239-3.281,1.744c0,0.912,0.608,1.345,1.329,1.345
		c1.008,0,1.648-0.641,1.873-1.297c0.048-0.144,0.08-0.304,0.08-0.448V39.006z"/>
	<path fill="#221E1F" d="M190.542,42.671c-0.368,0.192-1.185,0.448-2.225,0.448c-2.337,0-3.857-1.585-3.857-3.954
		c0-2.385,1.632-4.113,4.162-4.113c0.832,0,1.568,0.208,1.953,0.4l-0.32,1.088c-0.336-0.191-0.865-0.368-1.633-0.368
		c-1.777,0-2.737,1.313-2.737,2.93c0,1.793,1.152,2.897,2.689,2.897c0.801,0,1.329-0.209,1.729-0.385L190.542,42.671z"/>
	<path fill="#221E1F" d="M192.875,39.342c0.032,1.904,1.249,2.688,2.657,2.688c1.008,0,1.617-0.176,2.145-0.399l0.24,1.008
		c-0.496,0.225-1.344,0.48-2.577,0.48c-2.385,0-3.81-1.568-3.81-3.905s1.376-4.178,3.633-4.178c2.529,0,3.201,2.225,3.201,3.649
		c0,0.288-0.032,0.512-0.048,0.656H192.875z M197.005,38.333c0.016-0.896-0.368-2.289-1.953-2.289c-1.425,0-2.049,1.313-2.161,2.289
		H197.005z"/>
	<path fill="#221E1F" d="M200.107,37.629c0-0.912-0.016-1.696-0.064-2.417h1.232l0.048,1.521h0.064
		c0.352-1.04,1.2-1.696,2.145-1.696c0.16,0,0.272,0.016,0.4,0.048v1.328c-0.144-0.032-0.288-0.048-0.48-0.048
		c-0.992,0-1.696,0.752-1.889,1.809c-0.032,0.192-0.064,0.416-0.064,0.656v4.13h-1.393V37.629z"/>
	<path fill="#221E1F" d="M209.515,39.342c0.032,1.904,1.249,2.688,2.657,2.688c1.008,0,1.617-0.176,2.145-0.399l0.24,1.008
		c-0.496,0.225-1.344,0.48-2.577,0.48c-2.385,0-3.81-1.568-3.81-3.905s1.376-4.178,3.633-4.178c2.529,0,3.201,2.225,3.201,3.649
		c0,0.288-0.032,0.512-0.048,0.656H209.515z M213.645,38.333c0.016-0.896-0.368-2.289-1.953-2.289c-1.425,0-2.049,1.313-2.161,2.289
		H213.645z"/>
	<path fill="#221E1F" d="M216.554,41.519c0.416,0.271,1.152,0.561,1.856,0.561c1.024,0,1.505-0.513,1.505-1.153
		c0-0.672-0.4-1.04-1.441-1.424c-1.393-0.496-2.049-1.265-2.049-2.193c0-1.248,1.009-2.272,2.673-2.272
		c0.784,0,1.473,0.224,1.905,0.479l-0.352,1.024c-0.304-0.191-0.865-0.448-1.585-0.448c-0.832,0-1.296,0.48-1.296,1.057
		c0,0.641,0.464,0.929,1.473,1.313c1.345,0.513,2.033,1.185,2.033,2.337c0,1.36-1.056,2.321-2.897,2.321
		c-0.849,0-1.633-0.208-2.177-0.528L216.554,41.519z"/>
	<path fill="#221E1F" d="M230.093,39.021c0,2.865-1.985,4.113-3.857,4.113c-2.097,0-3.713-1.536-3.713-3.985
		c0-2.593,1.696-4.113,3.841-4.113C228.589,35.036,230.093,36.652,230.093,39.021z M223.947,39.102c0,1.696,0.977,2.978,2.353,2.978
		c1.345,0,2.353-1.265,2.353-3.01c0-1.313-0.656-2.978-2.321-2.978C224.667,36.092,223.947,37.629,223.947,39.102z"/>
	<path fill="#221E1F" d="M232.955,39.901l-0.032-0.416c-0.096-0.864,0.192-1.809,0.992-2.769c0.72-0.849,1.121-1.473,1.121-2.193
		c0-0.816-0.512-1.36-1.521-1.376c-0.577,0-1.217,0.191-1.617,0.496l-0.384-1.009c0.528-0.384,1.44-0.641,2.289-0.641
		c1.84,0,2.673,1.137,2.673,2.354c0,1.088-0.608,1.873-1.376,2.785c-0.705,0.832-0.96,1.536-0.913,2.353l0.016,0.416H232.955z
		 M232.603,42.143c0-0.592,0.4-1.009,0.96-1.009c0.56,0,0.944,0.417,0.944,1.009c0,0.561-0.368,0.992-0.96,0.992
		C232.987,43.135,232.603,42.703,232.603,42.143z"/>
</g>
</svg>