<!-- Generator: Adobe Illustrator 17.0.0, SVG Export Plug-In  -->
<svg version="1.1"
	 xmlns="http://www.w3.org/2000/svg" xmlns:xlink="http://www.w3.org/1999/xlink" xmlns:a="http://ns.adobe.com/AdobeSVGViewerExtensions/3.0/"
	 x="0px" y="0px" width="209.804px" height="102.063px" viewBox="0 0 209.804 102.063" enable-background="new 0 0 209.804 102.063"
	 xml:space="preserve">
<defs>
</defs>
<polygon fill="#F1F1F1" stroke="#000000" stroke-width="2" stroke-linecap="round" stroke-linejoin="round" stroke-miterlimit="10" points="
	1,1 208.804,1 208.804,68.122 65.145,68.122 65.145,101.063 32.206,68.122 1,68.122 "/>
<g>
	<path fill="#221E1F" d="M39.414,36.964c0.624,0.384,1.537,0.704,2.497,0.704c1.424,0,2.257-0.753,2.257-1.841
		c0-1.009-0.576-1.585-2.033-2.145c-1.761-0.625-2.849-1.537-2.849-3.058c0-1.681,1.393-2.93,3.489-2.93
		c1.104,0,1.905,0.257,2.385,0.528l-0.384,1.137c-0.352-0.192-1.073-0.512-2.049-0.512c-1.473,0-2.033,0.88-2.033,1.616
		c0,1.009,0.656,1.505,2.145,2.081c1.825,0.704,2.753,1.584,2.753,3.169c0,1.665-1.233,3.105-3.778,3.105
		c-1.041,0-2.177-0.305-2.753-0.688L39.414,36.964z"/>
	<path fill="#221E1F" d="M53.929,36.547c0,0.801,0.016,1.505,0.064,2.113h-1.249l-0.08-1.265h-0.032
		c-0.368,0.624-1.185,1.44-2.561,1.44c-1.216,0-2.673-0.672-2.673-3.394v-4.529h1.408v4.29c0,1.473,0.448,2.465,1.729,2.465
		c0.944,0,1.601-0.656,1.856-1.28c0.08-0.209,0.128-0.465,0.128-0.721v-4.754h1.408V36.547z"/>
	<path fill="#221E1F" d="M57.047,35.043c0.032,1.904,1.249,2.688,2.657,2.688c1.008,0,1.617-0.176,2.145-0.399l0.24,1.008
		c-0.496,0.225-1.344,0.48-2.577,0.48c-2.385,0-3.81-1.568-3.81-3.905s1.376-4.178,3.633-4.178c2.529,0,3.201,2.225,3.201,3.649
		c0,0.288-0.032,0.512-0.048,0.656H57.047z M61.177,34.035c0.016-0.896-0.368-2.289-1.953-2.289c-1.425,0-2.049,1.313-2.161,2.289
		H61.177z"/>
	<path fill="#221E1F" d="M64.279,33.01c0-0.8-0.016-1.456-0.064-2.097h1.249l0.08,1.28h0.032c0.384-0.736,1.281-1.456,2.561-1.456
		c1.073,0,2.737,0.64,2.737,3.297v4.626h-1.409v-4.466c0-1.248-0.464-2.289-1.792-2.289c-0.929,0-1.649,0.656-1.889,1.44
		c-0.064,0.177-0.096,0.416-0.096,0.656v4.658h-1.409V33.01z"/>
	<path fill="#221E1F" d="M77.448,38.661l-0.112-0.977h-0.048c-0.432,0.608-1.265,1.152-2.369,1.152
		c-1.569,0-2.369-1.104-2.369-2.225c0-1.873,1.665-2.897,4.658-2.881v-0.16c0-0.641-0.176-1.793-1.761-1.793
		c-0.72,0-1.473,0.225-2.017,0.576l-0.32-0.929c0.64-0.416,1.568-0.688,2.545-0.688c2.369,0,2.945,1.616,2.945,3.169v2.897
		c0,0.672,0.032,1.328,0.128,1.856H77.448z M77.24,34.707c-1.537-0.032-3.281,0.239-3.281,1.744c0,0.912,0.608,1.345,1.329,1.345
		c1.008,0,1.648-0.641,1.873-1.297c0.048-0.144,0.08-0.304,0.08-0.448V34.707z"/>
	<path fill="#221E1F" d="M85.831,28.737c0.016,0.48-0.336,0.864-0.896,0.864c-0.496,0-0.849-0.384-0.849-0.864
		c0-0.496,0.368-0.881,0.88-0.881C85.494,27.856,85.831,28.241,85.831,28.737z M84.262,38.661v-7.747h1.409v7.747H84.262z"/>
	<path fill="#221E1F" d="M88.006,33.01c0-0.8-0.016-1.456-0.064-2.097h1.249l0.08,1.28h0.032c0.384-0.736,1.281-1.456,2.561-1.456
		c1.073,0,2.737,0.64,2.737,3.297v4.626h-1.409v-4.466c0-1.248-0.464-2.289-1.792-2.289c-0.929,0-1.649,0.656-1.889,1.44
		c-0.064,0.177-0.096,0.416-0.096,0.656v4.658h-1.409V33.01z"/>
	<path fill="#221E1F" d="M98.519,28.689v2.225h2.017v1.072h-2.017v4.178c0,0.96,0.272,1.505,1.056,1.505
		c0.368,0,0.641-0.048,0.816-0.097l0.064,1.057c-0.272,0.112-0.704,0.192-1.249,0.192c-0.656,0-1.184-0.208-1.521-0.593
		c-0.4-0.416-0.544-1.104-0.544-2.017v-4.226h-1.201v-1.072h1.201v-1.856L98.519,28.689z"/>
	<path fill="#221E1F" d="M102.806,35.043c0.032,1.904,1.249,2.688,2.657,2.688c1.008,0,1.617-0.176,2.145-0.399l0.24,1.008
		c-0.496,0.225-1.344,0.48-2.577,0.48c-2.385,0-3.81-1.568-3.81-3.905s1.376-4.178,3.633-4.178c2.529,0,3.201,2.225,3.201,3.649
		c0,0.288-0.032,0.512-0.048,0.656H102.806z M106.936,34.035c0.016-0.896-0.368-2.289-1.953-2.289c-1.425,0-2.049,1.313-2.161,2.289
		H106.936z"/>
	<path fill="#221E1F" d="M110.037,33.33c0-0.912-0.016-1.696-0.064-2.417h1.232l0.048,1.521h0.064c0.352-1.04,1.2-1.696,2.145-1.696
		c0.16,0,0.272,0.016,0.4,0.048v1.328c-0.144-0.032-0.288-0.048-0.48-0.048c-0.992,0-1.696,0.752-1.889,1.809
		c-0.032,0.192-0.064,0.416-0.064,0.656v4.13h-1.393V33.33z"/>
	<path fill="#221E1F" d="M115.894,35.043c0.032,1.904,1.249,2.688,2.657,2.688c1.008,0,1.617-0.176,2.145-0.399l0.24,1.008
		c-0.496,0.225-1.344,0.48-2.577,0.48c-2.385,0-3.81-1.568-3.81-3.905s1.376-4.178,3.633-4.178c2.529,0,3.201,2.225,3.201,3.649
		c0,0.288-0.032,0.512-0.048,0.656H115.894z M120.024,34.035c0.016-0.896-0.368-2.289-1.953-2.289c-1.425,0-2.049,1.313-2.161,2.289
		H120.024z"/>
	<path fill="#221E1F" d="M122.934,37.22c0.416,0.271,1.152,0.561,1.856,0.561c1.024,0,1.505-0.513,1.505-1.153
		c0-0.672-0.4-1.04-1.441-1.424c-1.393-0.496-2.049-1.265-2.049-2.193c0-1.248,1.009-2.272,2.673-2.272
		c0.784,0,1.473,0.224,1.905,0.479l-0.352,1.024c-0.304-0.191-0.865-0.448-1.585-0.448c-0.832,0-1.296,0.48-1.296,1.057
		c0,0.641,0.464,0.929,1.473,1.313c1.345,0.513,2.033,1.185,2.033,2.337c0,1.36-1.056,2.321-2.897,2.321
		c-0.849,0-1.633-0.208-2.177-0.528L122.934,37.22z"/>
	<path fill="#221E1F" d="M133.751,38.661l-0.112-0.977h-0.048c-0.433,0.608-1.265,1.152-2.369,1.152
		c-1.569,0-2.369-1.104-2.369-2.225c0-1.873,1.665-2.897,4.658-2.881v-0.16c0-0.641-0.176-1.793-1.761-1.793
		c-0.72,0-1.473,0.225-2.017,0.576l-0.32-0.929c0.64-0.416,1.568-0.688,2.545-0.688c2.369,0,2.945,1.616,2.945,3.169v2.897
		c0,0.672,0.032,1.328,0.128,1.856H133.751z M133.543,34.707c-1.537-0.032-3.281,0.239-3.281,1.744c0,0.912,0.608,1.345,1.329,1.345
		c1.008,0,1.648-0.641,1.873-1.297c0.048-0.144,0.08-0.304,0.08-0.448V34.707z"/>
	<path fill="#221E1F" d="M137.174,33.01c0-0.8-0.016-1.456-0.064-2.097h1.249l0.08,1.28h0.032c0.384-0.736,1.281-1.456,2.561-1.456
		c1.073,0,2.737,0.64,2.737,3.297v4.626h-1.409v-4.466c0-1.248-0.464-2.289-1.792-2.289c-0.929,0-1.649,0.656-1.889,1.44
		c-0.064,0.177-0.096,0.416-0.096,0.656v4.658h-1.409V33.01z"/>
	<path fill="#221E1F" d="M147.686,28.689v2.225h2.017v1.072h-2.017v4.178c0,0.96,0.272,1.505,1.056,1.505
		c0.368,0,0.641-0.048,0.816-0.097l0.064,1.057c-0.272,0.112-0.704,0.192-1.249,0.192c-0.656,0-1.184-0.208-1.521-0.593
		c-0.4-0.416-0.544-1.104-0.544-2.017v-4.226h-1.201v-1.072h1.201v-1.856L147.686,28.689z"/>
	<path fill="#221E1F" d="M151.974,35.043c0.032,1.904,1.249,2.688,2.657,2.688c1.008,0,1.617-0.176,2.145-0.399l0.24,1.008
		c-0.496,0.225-1.344,0.48-2.577,0.48c-2.385,0-3.81-1.568-3.81-3.905s1.376-4.178,3.633-4.178c2.529,0,3.201,2.225,3.201,3.649
		c0,0.288-0.032,0.512-0.048,0.656H151.974z M156.104,34.035c0.016-0.896-0.368-2.289-1.953-2.289c-1.425,0-2.049,1.313-2.161,2.289
		H156.104z"/>
	<path fill="#221E1F" d="M162.261,37.829c0-0.593,0.4-1.009,0.96-1.009c0.56,0,0.944,0.416,0.944,1.009
		c0,0.576-0.368,1.008-0.96,1.008C162.645,38.836,162.261,38.405,162.261,37.829z"/>
	<path fill="#221E1F" d="M165.573,37.829c0-0.593,0.4-1.009,0.96-1.009c0.56,0,0.944,0.416,0.944,1.009
		c0,0.576-0.368,1.008-0.96,1.008C165.956,38.836,165.573,38.405,165.573,37.829z"/>
	<path fill="#221E1F" d="M168.884,37.829c0-0.593,0.4-1.009,0.96-1.009c0.56,0,0.944,0.416,0.944,1.009
		c0,0.576-0.368,1.008-0.96,1.008C169.268,38.836,168.884,38.405,168.884,37.829z"/>
</g>
</svg>