<!-- Generator: Adobe Illustrator 17.0.0, SVG Export Plug-In  -->
<svg version="1.1"
	 xmlns="http://www.w3.org/2000/svg" xmlns:xlink="http://www.w3.org/1999/xlink" xmlns:a="http://ns.adobe.com/AdobeSVGViewerExtensions/3.0/"
	 x="0px" y="0px" width="289.804px" height="102.063px" viewBox="0 0 289.804 102.063" enable-background="new 0 0 289.804 102.063"
	 xml:space="preserve">
<defs>
</defs>
<polygon fill="#F1F1F1" stroke="#000000" stroke-width="2" stroke-linecap="round" stroke-linejoin="round" stroke-miterlimit="10" points="
	1,1 288.804,1 288.804,68.122 65.145,68.122 65.145,101.063 32.206,68.122 1,68.122 "/>
<g>
	<path fill="#221E1F" d="M14.615,9.488c0.672-0.112,1.553-0.208,2.673-0.208c1.376,0,2.385,0.32,3.025,0.896
		c0.592,0.512,0.944,1.296,0.944,2.257c0,0.977-0.288,1.744-0.833,2.305c-0.736,0.784-1.937,1.185-3.297,1.185
		c-0.416,0-0.8-0.017-1.121-0.096v4.321h-1.393V9.488z M16.007,14.69c0.304,0.08,0.688,0.112,1.153,0.112
		c1.681,0,2.705-0.816,2.705-2.306c0-1.424-1.009-2.112-2.545-2.112c-0.608,0-1.072,0.048-1.313,0.111V14.69z"/>
	<path fill="#221E1F" d="M23.463,16.531c0.032,1.904,1.249,2.688,2.657,2.688c1.008,0,1.617-0.176,2.145-0.399l0.24,1.008
		c-0.496,0.225-1.344,0.48-2.577,0.48c-2.385,0-3.81-1.568-3.81-3.905s1.376-4.178,3.633-4.178c2.529,0,3.201,2.225,3.201,3.649
		c0,0.288-0.032,0.512-0.048,0.656H23.463z M27.593,15.522c0.016-0.896-0.368-2.289-1.953-2.289c-1.425,0-2.049,1.313-2.161,2.289
		H27.593z"/>
	<path fill="#221E1F" d="M30.694,14.818c0-0.912-0.016-1.696-0.064-2.417h1.232l0.048,1.521h0.064c0.352-1.04,1.2-1.696,2.145-1.696
		c0.16,0,0.272,0.016,0.4,0.048v1.328c-0.144-0.032-0.288-0.048-0.48-0.048c-0.992,0-1.697,0.752-1.889,1.809
		c-0.032,0.192-0.064,0.416-0.064,0.656v4.13h-1.393V14.818z"/>
	<path fill="#221E1F" d="M36.55,20.148v-6.675h-1.088v-1.072h1.088v-0.368c0-1.089,0.24-2.081,0.896-2.705
		c0.528-0.513,1.232-0.721,1.889-0.721c0.496,0,0.928,0.112,1.201,0.225L40.344,9.92c-0.208-0.096-0.496-0.176-0.896-0.176
		c-1.2,0-1.504,1.057-1.504,2.241v0.416h1.873v1.072h-1.873v6.675H36.55z"/>
	<path fill="#221E1F" d="M41.655,16.531c0.032,1.904,1.249,2.688,2.657,2.688c1.008,0,1.617-0.176,2.145-0.399l0.24,1.008
		c-0.496,0.225-1.344,0.48-2.577,0.48c-2.385,0-3.81-1.568-3.81-3.905s1.376-4.178,3.633-4.178c2.529,0,3.201,2.225,3.201,3.649
		c0,0.288-0.032,0.512-0.048,0.656H41.655z M45.784,15.522c0.016-0.896-0.368-2.289-1.953-2.289c-1.425,0-2.049,1.313-2.161,2.289
		H45.784z"/>
	<path fill="#221E1F" d="M54.408,19.86c-0.368,0.192-1.185,0.448-2.225,0.448c-2.337,0-3.857-1.585-3.857-3.954
		c0-2.385,1.632-4.113,4.162-4.113c0.832,0,1.568,0.208,1.953,0.4l-0.32,1.088c-0.336-0.191-0.864-0.368-1.632-0.368
		c-1.777,0-2.737,1.313-2.737,2.93c0,1.793,1.152,2.897,2.689,2.897c0.801,0,1.329-0.209,1.729-0.385L54.408,19.86z"/>
	<path fill="#221E1F" d="M57.959,10.177v2.225h2.017v1.072h-2.017v4.178c0,0.96,0.272,1.505,1.056,1.505
		c0.368,0,0.641-0.048,0.816-0.097l0.064,1.057c-0.272,0.112-0.704,0.192-1.249,0.192c-0.656,0-1.184-0.208-1.521-0.593
		c-0.4-0.416-0.544-1.104-0.544-2.017v-4.226h-1.201v-1.072h1.201v-1.856L57.959,10.177z"/>
	<path fill="#221E1F" d="M68.473,16.211c0,2.865-1.985,4.113-3.857,4.113c-2.097,0-3.713-1.536-3.713-3.985
		c0-2.593,1.696-4.113,3.841-4.113C66.969,12.225,68.473,13.842,68.473,16.211z M62.326,16.291c0,1.696,0.977,2.978,2.353,2.978
		c1.345,0,2.353-1.265,2.353-3.01c0-1.313-0.656-2.978-2.321-2.978C63.047,13.281,62.326,14.818,62.326,16.291z"/>
	<path fill="#221E1F" d="M69.527,19.316c0-0.593,0.4-1.009,0.96-1.009c0.56,0,0.944,0.416,0.944,1.009
		c0,0.576-0.368,1.008-0.96,1.008C69.91,20.324,69.527,19.892,69.527,19.316z"/>
	<path fill="#221E1F" d="M76.614,9.504c0.849-0.128,1.857-0.224,2.961-0.224c2.001,0,3.425,0.464,4.37,1.345
		c0.96,0.88,1.521,2.129,1.521,3.873c0,1.761-0.544,3.201-1.552,4.193c-1.009,1.009-2.673,1.553-4.77,1.553
		c-0.993,0-1.825-0.048-2.529-0.128V9.504z M78.006,19.044c0.353,0.064,0.865,0.08,1.409,0.08c2.977,0,4.594-1.665,4.594-4.578
		c0.016-2.545-1.424-4.161-4.37-4.161c-0.72,0-1.265,0.063-1.633,0.144V19.044z"/>
	<path fill="#221E1F" d="M88.07,16.531c0.032,1.904,1.249,2.688,2.657,2.688c1.008,0,1.617-0.176,2.145-0.399l0.24,1.008
		c-0.496,0.225-1.344,0.48-2.577,0.48c-2.385,0-3.81-1.568-3.81-3.905s1.376-4.178,3.633-4.178c2.529,0,3.201,2.225,3.201,3.649
		c0,0.288-0.032,0.512-0.048,0.656H88.07z M92.199,15.522c0.016-0.896-0.368-2.289-1.953-2.289c-1.425,0-2.049,1.313-2.161,2.289
		H92.199z"/>
	<path fill="#221E1F" d="M99.477,16.531c0.032,1.904,1.249,2.688,2.657,2.688c1.008,0,1.617-0.176,2.145-0.399l0.24,1.008
		c-0.496,0.225-1.344,0.48-2.577,0.48c-2.385,0-3.81-1.568-3.81-3.905s1.376-4.178,3.633-4.178c2.529,0,3.201,2.225,3.201,3.649
		c0,0.288-0.032,0.512-0.048,0.656H99.477z M103.607,15.522c0.016-0.896-0.368-2.289-1.953-2.289c-1.425,0-2.049,1.313-2.161,2.289
		H103.607z"/>
	<path fill="#221E1F" d="M106.516,18.708c0.416,0.271,1.152,0.561,1.856,0.561c1.024,0,1.505-0.513,1.505-1.153
		c0-0.672-0.4-1.04-1.441-1.424c-1.393-0.496-2.049-1.265-2.049-2.193c0-1.248,1.009-2.272,2.673-2.272
		c0.784,0,1.473,0.224,1.905,0.479l-0.352,1.024c-0.304-0.191-0.865-0.448-1.585-0.448c-0.832,0-1.296,0.48-1.296,1.057
		c0,0.641,0.464,0.929,1.473,1.313c1.345,0.513,2.033,1.185,2.033,2.337c0,1.36-1.056,2.321-2.897,2.321
		c-0.849,0-1.633-0.208-2.177-0.528L106.516,18.708z"/>
	<path fill="#221E1F" d="M114.741,10.177v2.225h2.017v1.072h-2.017v4.178c0,0.96,0.272,1.505,1.056,1.505
		c0.368,0,0.641-0.048,0.816-0.097l0.064,1.057c-0.272,0.112-0.704,0.192-1.249,0.192c-0.656,0-1.184-0.208-1.521-0.593
		c-0.4-0.416-0.544-1.104-0.544-2.017v-4.226h-1.201v-1.072h1.201v-1.856L114.741,10.177z"/>
	<path fill="#221E1F" d="M122.63,20.148l-0.112-0.977h-0.048c-0.432,0.608-1.265,1.152-2.369,1.152
		c-1.569,0-2.369-1.104-2.369-2.225c0-1.873,1.665-2.897,4.658-2.881v-0.16c0-0.641-0.176-1.793-1.761-1.793
		c-0.72,0-1.473,0.225-2.017,0.576l-0.32-0.929c0.64-0.416,1.568-0.688,2.545-0.688c2.369,0,2.945,1.616,2.945,3.169v2.897
		c0,0.672,0.032,1.328,0.128,1.856H122.63z M122.422,16.195c-1.537-0.032-3.281,0.239-3.281,1.744c0,0.912,0.608,1.345,1.329,1.345
		c1.008,0,1.648-0.641,1.873-1.297c0.048-0.144,0.08-0.304,0.08-0.448V16.195z"/>
	<path fill="#221E1F" d="M129.588,20.148v-6.675h-1.088v-1.072h1.088v-0.368c0-1.089,0.24-2.081,0.896-2.705
		c0.528-0.513,1.232-0.721,1.889-0.721c0.496,0,0.928,0.112,1.201,0.225l-0.192,1.088c-0.208-0.096-0.496-0.176-0.896-0.176
		c-1.2,0-1.504,1.057-1.504,2.241v0.416h1.873v1.072h-1.873v6.675H129.588z"/>
	<path fill="#221E1F" d="M140.919,16.211c0,2.865-1.985,4.113-3.857,4.113c-2.097,0-3.713-1.536-3.713-3.985
		c0-2.593,1.697-4.113,3.841-4.113C139.414,12.225,140.919,13.842,140.919,16.211z M134.772,16.291c0,1.696,0.977,2.978,2.353,2.978
		c1.345,0,2.353-1.265,2.353-3.01c0-1.313-0.656-2.978-2.321-2.978C135.492,13.281,134.772,14.818,134.772,16.291z"/>
	<path fill="#221E1F" d="M142.692,14.818c0-0.912-0.016-1.696-0.064-2.417h1.232l0.048,1.521h0.064
		c0.352-1.04,1.2-1.696,2.145-1.696c0.16,0,0.272,0.016,0.4,0.048v1.328c-0.144-0.032-0.288-0.048-0.48-0.048
		c-0.992,0-1.697,0.752-1.889,1.809c-0.032,0.192-0.064,0.416-0.064,0.656v4.13h-1.393V14.818z"/>
	<path fill="#221E1F" d="M147.988,14.498c0-0.8-0.016-1.456-0.064-2.097h1.232l0.064,1.248h0.048
		c0.432-0.736,1.152-1.424,2.433-1.424c1.057,0,1.857,0.64,2.193,1.553h0.032c0.24-0.433,0.544-0.769,0.864-1.009
		c0.464-0.353,0.977-0.544,1.713-0.544c1.024,0,2.545,0.672,2.545,3.361v4.562h-1.376v-4.386c0-1.488-0.544-2.385-1.681-2.385
		c-0.8,0-1.425,0.592-1.665,1.28c-0.064,0.192-0.112,0.448-0.112,0.704v4.786h-1.376v-4.642c0-1.232-0.544-2.129-1.617-2.129
		c-0.88,0-1.521,0.704-1.745,1.408c-0.08,0.208-0.112,0.448-0.112,0.688v4.674h-1.376V14.498z"/>
	<path fill="#221E1F" d="M165.622,20.148l-0.112-0.977h-0.048c-0.432,0.608-1.265,1.152-2.369,1.152
		c-1.569,0-2.369-1.104-2.369-2.225c0-1.873,1.665-2.897,4.658-2.881v-0.16c0-0.641-0.176-1.793-1.761-1.793
		c-0.72,0-1.473,0.225-2.017,0.576l-0.32-0.929c0.64-0.416,1.568-0.688,2.545-0.688c2.369,0,2.945,1.616,2.945,3.169v2.897
		c0,0.672,0.032,1.328,0.128,1.856H165.622z M165.414,16.195c-1.537-0.032-3.281,0.239-3.281,1.744c0,0.912,0.608,1.345,1.329,1.345
		c1.008,0,1.648-0.641,1.873-1.297c0.048-0.144,0.08-0.304,0.08-0.448V16.195z"/>
	<path fill="#221E1F" d="M172.436,14.93c0-0.993-0.032-1.793-0.064-2.529h1.265l0.064,1.328h0.032
		c0.576-0.944,1.489-1.504,2.753-1.504c1.873,0,3.281,1.584,3.281,3.938c0,2.785-1.697,4.161-3.521,4.161
		c-1.024,0-1.921-0.448-2.385-1.216h-0.032v4.209h-1.393V14.93z M173.828,16.995c0,0.208,0.032,0.4,0.064,0.576
		c0.256,0.977,1.104,1.648,2.113,1.648c1.489,0,2.353-1.216,2.353-2.993c0-1.553-0.816-2.881-2.305-2.881
		c-0.96,0-1.857,0.688-2.129,1.745c-0.048,0.176-0.096,0.384-0.096,0.576V16.995z"/>
	<path fill="#221E1F" d="M188.55,16.211c0,2.865-1.985,4.113-3.857,4.113c-2.097,0-3.713-1.536-3.713-3.985
		c0-2.593,1.696-4.113,3.841-4.113C187.046,12.225,188.55,13.842,188.55,16.211z M182.404,16.291c0,1.696,0.977,2.978,2.353,2.978
		c1.345,0,2.353-1.265,2.353-3.01c0-1.313-0.656-2.978-2.321-2.978C183.124,13.281,182.404,14.818,182.404,16.291z"/>
	<path fill="#221E1F" d="M197.014,8.784v9.363c0,0.688,0.016,1.473,0.064,2.001h-1.265l-0.064-1.345h-0.032
		c-0.432,0.864-1.376,1.521-2.641,1.521c-1.873,0-3.313-1.584-3.313-3.938c-0.016-2.577,1.584-4.161,3.473-4.161
		c1.185,0,1.985,0.56,2.337,1.185h0.032V8.784H197.014z M195.606,15.554c0-0.176-0.016-0.416-0.064-0.593
		c-0.208-0.896-0.977-1.632-2.033-1.632c-1.457,0-2.321,1.28-2.321,2.993c0,1.568,0.769,2.865,2.289,2.865
		c0.944,0,1.809-0.625,2.065-1.681c0.048-0.192,0.064-0.385,0.064-0.608V15.554z"/>
	<path fill="#221E1F" d="M200.132,16.531c0.032,1.904,1.249,2.688,2.657,2.688c1.008,0,1.617-0.176,2.145-0.399l0.24,1.008
		c-0.496,0.225-1.344,0.48-2.577,0.48c-2.385,0-3.81-1.568-3.81-3.905s1.376-4.178,3.633-4.178c2.529,0,3.201,2.225,3.201,3.649
		c0,0.288-0.032,0.512-0.048,0.656H200.132z M204.261,15.522c0.016-0.896-0.368-2.289-1.953-2.289c-1.425,0-2.049,1.313-2.161,2.289
		H204.261z"/>
	<path fill="#221E1F" d="M207.364,14.498c0-0.8-0.016-1.456-0.064-2.097h1.232l0.064,1.248h0.048
		c0.432-0.736,1.152-1.424,2.433-1.424c1.057,0,1.857,0.64,2.193,1.553h0.032c0.24-0.433,0.544-0.769,0.864-1.009
		c0.464-0.353,0.977-0.544,1.713-0.544c1.024,0,2.545,0.672,2.545,3.361v4.562h-1.376v-4.386c0-1.488-0.544-2.385-1.681-2.385
		c-0.8,0-1.425,0.592-1.665,1.28c-0.064,0.192-0.112,0.448-0.112,0.704v4.786h-1.376v-4.642c0-1.232-0.544-2.129-1.617-2.129
		c-0.88,0-1.521,0.704-1.745,1.408c-0.08,0.208-0.112,0.448-0.112,0.688v4.674h-1.376V14.498z"/>
	<path fill="#221E1F" d="M227.718,16.211c0,2.865-1.985,4.113-3.857,4.113c-2.097,0-3.713-1.536-3.713-3.985
		c0-2.593,1.696-4.113,3.841-4.113C226.214,12.225,227.718,13.842,227.718,16.211z M221.572,16.291c0,1.696,0.977,2.978,2.353,2.978
		c1.345,0,2.353-1.265,2.353-3.01c0-1.313-0.656-2.978-2.321-2.978C222.292,13.281,221.572,14.818,221.572,16.291z"/>
	<path fill="#221E1F" d="M229.3,18.708c0.416,0.271,1.152,0.561,1.856,0.561c1.024,0,1.505-0.513,1.505-1.153
		c0-0.672-0.4-1.04-1.441-1.424c-1.393-0.496-2.049-1.265-2.049-2.193c0-1.248,1.009-2.272,2.673-2.272
		c0.784,0,1.473,0.224,1.905,0.479l-0.352,1.024c-0.304-0.191-0.865-0.448-1.585-0.448c-0.832,0-1.296,0.48-1.296,1.057
		c0,0.641,0.464,0.929,1.473,1.313c1.345,0.513,2.033,1.185,2.033,2.337c0,1.36-1.056,2.321-2.897,2.321
		c-0.849,0-1.633-0.208-2.177-0.528L229.3,18.708z"/>
	<path fill="#221E1F" d="M243.509,20.148l-0.112-0.977h-0.048c-0.432,0.608-1.265,1.152-2.369,1.152
		c-1.569,0-2.369-1.104-2.369-2.225c0-1.873,1.665-2.897,4.658-2.881v-0.16c0-0.641-0.176-1.793-1.761-1.793
		c-0.72,0-1.473,0.225-2.017,0.576l-0.32-0.929c0.64-0.416,1.568-0.688,2.545-0.688c2.369,0,2.945,1.616,2.945,3.169v2.897
		c0,0.672,0.032,1.328,0.128,1.856H243.509z M243.301,16.195c-1.537-0.032-3.281,0.239-3.281,1.744c0,0.912,0.608,1.345,1.329,1.345
		c1.008,0,1.648-0.641,1.873-1.297c0.048-0.144,0.08-0.304,0.08-0.448V16.195z"/>
	<path fill="#221E1F" d="M247.347,12.401l1.521,4.354c0.256,0.704,0.464,1.345,0.624,1.985h0.048c0.176-0.641,0.4-1.281,0.656-1.985
		l1.504-4.354h1.473l-3.041,7.747h-1.345l-2.945-7.747H247.347z"/>
	<path fill="#221E1F" d="M256.068,10.224c0.016,0.48-0.336,0.864-0.896,0.864c-0.496,0-0.849-0.384-0.849-0.864
		c0-0.496,0.368-0.881,0.88-0.881C255.731,9.344,256.068,9.728,256.068,10.224z M254.499,20.148v-7.747h1.409v7.747H254.499z"/>
	<path fill="#221E1F" d="M258.051,18.708c0.416,0.271,1.152,0.561,1.856,0.561c1.024,0,1.505-0.513,1.505-1.153
		c0-0.672-0.4-1.04-1.441-1.424c-1.393-0.496-2.049-1.265-2.049-2.193c0-1.248,1.009-2.272,2.673-2.272
		c0.784,0,1.473,0.224,1.905,0.479l-0.352,1.024c-0.304-0.191-0.865-0.448-1.585-0.448c-0.832,0-1.296,0.48-1.296,1.057
		c0,0.641,0.464,0.929,1.473,1.313c1.345,0.513,2.033,1.185,2.033,2.337c0,1.36-1.056,2.321-2.897,2.321
		c-0.849,0-1.633-0.208-2.177-0.528L258.051,18.708z"/>
	<path fill="#221E1F" d="M268.868,20.148l-0.112-0.977h-0.048c-0.432,0.608-1.265,1.152-2.369,1.152
		c-1.569,0-2.369-1.104-2.369-2.225c0-1.873,1.665-2.897,4.658-2.881v-0.16c0-0.641-0.176-1.793-1.761-1.793
		c-0.72,0-1.473,0.225-2.017,0.576l-0.32-0.929c0.64-0.416,1.568-0.688,2.545-0.688c2.369,0,2.945,1.616,2.945,3.169v2.897
		c0,0.672,0.032,1.328,0.128,1.856H268.868z M268.66,16.195c-1.537-0.032-3.281,0.239-3.281,1.744c0,0.912,0.608,1.345,1.329,1.345
		c1.008,0,1.648-0.641,1.873-1.297c0.048-0.144,0.08-0.304,0.08-0.448V16.195z"/>
	<path fill="#221E1F" d="M272.29,14.818c0-0.912-0.016-1.696-0.064-2.417h1.232l0.048,1.521h0.064c0.352-1.04,1.2-1.696,2.145-1.696
		c0.16,0,0.272,0.016,0.4,0.048v1.328c-0.144-0.032-0.288-0.048-0.48-0.048c-0.992,0-1.696,0.752-1.889,1.809
		c-0.032,0.192-0.064,0.416-0.064,0.656v4.13h-1.393V14.818z"/>
	<path fill="#221E1F" d="M51.496,36.148l-0.112-0.977h-0.048c-0.432,0.608-1.265,1.152-2.369,1.152
		c-1.569,0-2.369-1.104-2.369-2.225c0-1.873,1.665-2.897,4.658-2.881v-0.16c0-0.641-0.176-1.793-1.761-1.793
		c-0.72,0-1.473,0.225-2.017,0.576l-0.32-0.929c0.64-0.416,1.568-0.688,2.545-0.688c2.369,0,2.945,1.616,2.945,3.169v2.897
		c0,0.672,0.032,1.328,0.128,1.856H51.496z M51.288,32.195c-1.537-0.032-3.281,0.239-3.281,1.744c0,0.912,0.608,1.345,1.329,1.345
		c1.008,0,1.648-0.641,1.873-1.297c0.048-0.144,0.08-0.304,0.08-0.448V32.195z"/>
	<path fill="#221E1F" d="M63.832,35.86c-0.368,0.192-1.185,0.448-2.225,0.448c-2.337,0-3.857-1.585-3.857-3.954
		c0-2.385,1.632-4.113,4.162-4.113c0.832,0,1.568,0.208,1.953,0.4l-0.32,1.088c-0.336-0.191-0.864-0.368-1.632-0.368
		c-1.777,0-2.737,1.313-2.737,2.93c0,1.793,1.152,2.897,2.689,2.897c0.801,0,1.329-0.209,1.729-0.385L63.832,35.86z"/>
	<path fill="#221E1F" d="M69.767,36.148l-0.112-0.977h-0.048c-0.432,0.608-1.265,1.152-2.369,1.152
		c-1.569,0-2.369-1.104-2.369-2.225c0-1.873,1.665-2.897,4.658-2.881v-0.16c0-0.641-0.176-1.793-1.761-1.793
		c-0.72,0-1.473,0.225-2.017,0.576l-0.32-0.929c0.64-0.416,1.568-0.688,2.545-0.688c2.369,0,2.945,1.616,2.945,3.169v2.897
		c0,0.672,0.032,1.328,0.128,1.856H69.767z M69.559,32.195c-1.537-0.032-3.281,0.239-3.281,1.744c0,0.912,0.608,1.345,1.329,1.345
		c1.008,0,1.648-0.641,1.873-1.297c0.048-0.144,0.08-0.304,0.08-0.448V32.195z"/>
	<path fill="#221E1F" d="M79.881,24.784v9.363c0,0.688,0.016,1.473,0.064,2.001H78.68l-0.064-1.345h-0.032
		c-0.432,0.864-1.376,1.521-2.641,1.521c-1.873,0-3.313-1.584-3.313-3.938c-0.016-2.577,1.584-4.161,3.473-4.161
		c1.185,0,1.985,0.56,2.337,1.185h0.032v-4.626H79.881z M78.472,31.554c0-0.176-0.016-0.416-0.064-0.593
		c-0.208-0.896-0.977-1.632-2.033-1.632c-1.457,0-2.321,1.28-2.321,2.993c0,1.568,0.769,2.865,2.289,2.865
		c0.944,0,1.809-0.625,2.065-1.681c0.048-0.192,0.064-0.385,0.064-0.608V31.554z"/>
	<path fill="#221E1F" d="M86.503,36.148l-0.112-0.977h-0.048c-0.433,0.608-1.265,1.152-2.369,1.152
		c-1.569,0-2.369-1.104-2.369-2.225c0-1.873,1.665-2.897,4.658-2.881v-0.16c0-0.641-0.176-1.793-1.761-1.793
		c-0.72,0-1.473,0.225-2.017,0.576l-0.32-0.929c0.64-0.416,1.568-0.688,2.545-0.688c2.369,0,2.945,1.616,2.945,3.169v2.897
		c0,0.672,0.032,1.328,0.128,1.856H86.503z M86.295,32.195c-1.537-0.032-3.281,0.239-3.281,1.744c0,0.912,0.608,1.345,1.329,1.345
		c1.008,0,1.648-0.641,1.873-1.297c0.048-0.144,0.08-0.304,0.08-0.448V32.195z"/>
	<path fill="#221E1F" d="M93.318,30.93c0-0.993-0.032-1.793-0.064-2.529h1.265l0.064,1.328h0.032
		c0.576-0.944,1.489-1.504,2.753-1.504c1.873,0,3.281,1.584,3.281,3.938c0,2.785-1.697,4.161-3.521,4.161
		c-1.024,0-1.921-0.448-2.385-1.216H94.71v4.209h-1.393V30.93z M94.71,32.995c0,0.208,0.032,0.4,0.064,0.576
		c0.256,0.977,1.104,1.648,2.113,1.648c1.489,0,2.353-1.216,2.353-2.993c0-1.553-0.816-2.881-2.305-2.881
		c-0.96,0-1.857,0.688-2.129,1.745c-0.048,0.176-0.096,0.384-0.096,0.576V32.995z"/>
	<path fill="#221E1F" d="M106.711,36.148l-0.112-0.977h-0.048c-0.432,0.608-1.265,1.152-2.369,1.152
		c-1.569,0-2.369-1.104-2.369-2.225c0-1.873,1.665-2.897,4.658-2.881v-0.16c0-0.641-0.176-1.793-1.761-1.793
		c-0.72,0-1.473,0.225-2.017,0.576l-0.32-0.929c0.64-0.416,1.568-0.688,2.545-0.688c2.369,0,2.945,1.616,2.945,3.169v2.897
		c0,0.672,0.032,1.328,0.128,1.856H106.711z M106.503,32.195c-1.537-0.032-3.281,0.239-3.281,1.744c0,0.912,0.608,1.345,1.329,1.345
		c1.008,0,1.648-0.641,1.873-1.297c0.048-0.144,0.08-0.304,0.08-0.448V32.195z"/>
	<path fill="#221E1F" d="M115.656,35.86c-0.368,0.192-1.185,0.448-2.225,0.448c-2.337,0-3.857-1.585-3.857-3.954
		c0-2.385,1.632-4.113,4.162-4.113c0.832,0,1.568,0.208,1.953,0.4l-0.32,1.088c-0.336-0.191-0.864-0.368-1.632-0.368
		c-1.777,0-2.737,1.313-2.737,2.93c0,1.793,1.152,2.897,2.689,2.897c0.801,0,1.329-0.209,1.729-0.385L115.656,35.86z"/>
	<path fill="#221E1F" d="M118.87,26.224c0.016,0.48-0.336,0.864-0.896,0.864c-0.496,0-0.849-0.384-0.849-0.864
		c0-0.496,0.368-0.881,0.88-0.881C118.533,25.344,118.87,25.728,118.87,26.224z M117.301,36.148v-7.747h1.409v7.747H117.301z"/>
	<path fill="#221E1F" d="M121.829,32.531c0.032,1.904,1.249,2.688,2.657,2.688c1.008,0,1.617-0.176,2.145-0.399l0.24,1.008
		c-0.496,0.225-1.344,0.48-2.577,0.48c-2.385,0-3.81-1.568-3.81-3.905s1.376-4.178,3.633-4.178c2.529,0,3.201,2.225,3.201,3.649
		c0,0.288-0.032,0.512-0.048,0.656H121.829z M125.959,31.522c0.016-0.896-0.368-2.289-1.953-2.289c-1.425,0-2.049,1.313-2.161,2.289
		H125.959z"/>
	<path fill="#221E1F" d="M129.061,30.498c0-0.8-0.016-1.456-0.064-2.097h1.249l0.08,1.28h0.032c0.384-0.736,1.281-1.456,2.561-1.456
		c1.073,0,2.737,0.64,2.737,3.297v4.626h-1.409v-4.466c0-1.248-0.464-2.289-1.792-2.289c-0.929,0-1.649,0.656-1.889,1.44
		c-0.064,0.177-0.096,0.416-0.096,0.656v4.658h-1.409V30.498z"/>
	<path fill="#221E1F" d="M139.573,26.177v2.225h2.017v1.072h-2.017v4.178c0,0.96,0.272,1.505,1.056,1.505
		c0.368,0,0.641-0.048,0.816-0.097l0.064,1.057c-0.272,0.112-0.704,0.192-1.249,0.192c-0.656,0-1.184-0.208-1.521-0.593
		c-0.4-0.416-0.544-1.104-0.544-2.017v-4.226h-1.201v-1.072h1.201v-1.856L139.573,26.177z"/>
	<path fill="#221E1F" d="M143.861,32.531c0.032,1.904,1.249,2.688,2.657,2.688c1.008,0,1.617-0.176,2.145-0.399l0.24,1.008
		c-0.496,0.225-1.344,0.48-2.577,0.48c-2.385,0-3.81-1.568-3.81-3.905s1.376-4.178,3.633-4.178c2.529,0,3.201,2.225,3.201,3.649
		c0,0.288-0.032,0.512-0.048,0.656H143.861z M147.99,31.522c0.016-0.896-0.368-2.289-1.953-2.289c-1.425,0-2.049,1.313-2.161,2.289
		H147.99z"/>
	<path fill="#221E1F" d="M150.565,35.316c0-0.593,0.4-1.009,0.96-1.009c0.56,0,0.944,0.416,0.944,1.009
		c0,0.576-0.368,1.008-0.96,1.008C150.948,36.324,150.565,35.892,150.565,35.316z"/>
	<path fill="#221E1F" d="M157.652,25.488c0.672-0.112,1.553-0.208,2.673-0.208c1.376,0,2.385,0.32,3.025,0.896
		c0.592,0.512,0.944,1.296,0.944,2.257c0,0.977-0.288,1.744-0.833,2.305c-0.736,0.784-1.937,1.185-3.297,1.185
		c-0.416,0-0.8-0.017-1.121-0.096v4.321h-1.393V25.488z M159.044,30.69c0.304,0.08,0.688,0.112,1.153,0.112
		c1.681,0,2.705-0.816,2.705-2.306c0-1.424-1.009-2.112-2.545-2.112c-0.608,0-1.072,0.048-1.313,0.111V30.69z"/>
	<path fill="#221E1F" d="M166.499,32.531c0.032,1.904,1.249,2.688,2.657,2.688c1.008,0,1.617-0.176,2.145-0.399l0.24,1.008
		c-0.496,0.225-1.344,0.48-2.577,0.48c-2.385,0-3.81-1.568-3.81-3.905s1.376-4.178,3.633-4.178c2.529,0,3.201,2.225,3.201,3.649
		c0,0.288-0.032,0.512-0.048,0.656H166.499z M170.629,31.522c0.016-0.896-0.368-2.289-1.953-2.289c-1.425,0-2.049,1.313-2.161,2.289
		H170.629z"/>
	<path fill="#221E1F" d="M173.731,30.818c0-0.912-0.016-1.696-0.064-2.417h1.232l0.048,1.521h0.064
		c0.352-1.04,1.2-1.696,2.145-1.696c0.16,0,0.272,0.016,0.4,0.048v1.328c-0.144-0.032-0.288-0.048-0.48-0.048
		c-0.992,0-1.696,0.752-1.889,1.809c-0.032,0.192-0.064,0.416-0.064,0.656v4.13h-1.393V30.818z"/>
	<path fill="#221E1F" d="M185.814,32.211c0,2.865-1.985,4.113-3.857,4.113c-2.097,0-3.713-1.536-3.713-3.985
		c0-2.593,1.696-4.113,3.841-4.113C184.309,28.225,185.814,29.842,185.814,32.211z M179.667,32.291c0,1.696,0.977,2.978,2.353,2.978
		c1.345,0,2.353-1.265,2.353-3.01c0-1.313-0.656-2.978-2.321-2.978C180.387,29.281,179.667,30.818,179.667,32.291z"/>
	<path fill="#221E1F" d="M197.669,24.784v9.363c0,0.688,0.016,1.473,0.064,2.001h-1.265l-0.064-1.345h-0.032
		c-0.432,0.864-1.376,1.521-2.641,1.521c-1.873,0-3.313-1.584-3.313-3.938c-0.016-2.577,1.584-4.161,3.473-4.161
		c1.185,0,1.985,0.56,2.337,1.185h0.032v-4.626H197.669z M196.26,31.554c0-0.176-0.016-0.416-0.064-0.593
		c-0.208-0.896-0.977-1.632-2.033-1.632c-1.457,0-2.321,1.28-2.321,2.993c0,1.568,0.769,2.865,2.289,2.865
		c0.944,0,1.809-0.625,2.065-1.681c0.048-0.192,0.064-0.385,0.064-0.608V31.554z"/>
	<path fill="#221E1F" d="M202.867,25.055l-1.953,2.289h-1.009l1.409-2.289H202.867z M200.002,36.148v-7.747h1.409v7.747H200.002z"/>
	<path fill="#221E1F" d="M210.421,28.401c-0.032,0.561-0.064,1.185-0.064,2.129v4.498c0,1.776-0.352,2.865-1.104,3.537
		c-0.752,0.704-1.841,0.929-2.817,0.929c-0.928,0-1.953-0.225-2.577-0.641l0.352-1.072c0.512,0.32,1.313,0.608,2.273,0.608
		c1.44,0,2.497-0.753,2.497-2.705V34.82h-0.032c-0.432,0.72-1.265,1.296-2.465,1.296c-1.921,0-3.297-1.633-3.297-3.777
		c0-2.625,1.712-4.113,3.489-4.113c1.345,0,2.081,0.704,2.417,1.344h0.032l0.064-1.168H210.421z M208.964,31.459
		c0-0.24-0.016-0.448-0.08-0.641c-0.256-0.816-0.944-1.488-1.969-1.488c-1.345,0-2.305,1.136-2.305,2.929
		c0,1.521,0.769,2.785,2.289,2.785c0.864,0,1.648-0.544,1.953-1.44c0.08-0.24,0.112-0.513,0.112-0.752V31.459z"/>
	<path fill="#221E1F" d="M216.979,36.148l-0.112-0.977h-0.048c-0.432,0.608-1.265,1.152-2.369,1.152
		c-1.569,0-2.369-1.104-2.369-2.225c0-1.873,1.665-2.897,4.658-2.881v-0.16c0-0.641-0.176-1.793-1.761-1.793
		c-0.72,0-1.473,0.225-2.017,0.576l-0.32-0.929c0.64-0.416,1.568-0.688,2.545-0.688c2.369,0,2.945,1.616,2.945,3.169v2.897
		c0,0.672,0.032,1.328,0.128,1.856H216.979z M216.771,32.195c-1.537-0.032-3.281,0.239-3.281,1.744c0,0.912,0.608,1.345,1.329,1.345
		c1.008,0,1.648-0.641,1.873-1.297c0.048-0.144,0.08-0.304,0.08-0.448V32.195z"/>
	<path fill="#221E1F" d="M220.402,30.498c0-0.8-0.016-1.456-0.064-2.097h1.232l0.064,1.248h0.048
		c0.432-0.736,1.152-1.424,2.433-1.424c1.057,0,1.857,0.64,2.193,1.553h0.032c0.24-0.433,0.544-0.769,0.864-1.009
		c0.464-0.353,0.977-0.544,1.713-0.544c1.024,0,2.545,0.672,2.545,3.361v4.562h-1.376v-4.386c0-1.488-0.544-2.385-1.681-2.385
		c-0.8,0-1.425,0.592-1.665,1.28c-0.064,0.192-0.112,0.448-0.112,0.704v4.786h-1.376v-4.642c0-1.232-0.544-2.129-1.617-2.129
		c-0.88,0-1.521,0.704-1.745,1.408c-0.08,0.208-0.112,0.448-0.112,0.688v4.674h-1.376V30.498z"/>
	<path fill="#221E1F" d="M234.53,32.531c0.032,1.904,1.249,2.688,2.657,2.688c1.008,0,1.617-0.176,2.145-0.399l0.24,1.008
		c-0.496,0.225-1.344,0.48-2.577,0.48c-2.385,0-3.81-1.568-3.81-3.905s1.376-4.178,3.633-4.178c2.529,0,3.201,2.225,3.201,3.649
		c0,0.288-0.032,0.512-0.048,0.656H234.53z M238.66,31.522c0.016-0.896-0.368-2.289-1.953-2.289c-1.425,0-2.049,1.313-2.161,2.289
		H238.66z"/>
	<path fill="#221E1F" d="M240.657,38.117c0.353-0.944,0.785-2.657,0.96-3.825l1.569-0.16c-0.368,1.36-1.072,3.137-1.521,3.89
		L240.657,38.117z"/>
	<path fill="#221E1F" d="M37.016,47.587l0.048,0.416c0.096,0.864-0.208,1.776-1.008,2.737c-0.72,0.864-1.104,1.456-1.104,2.177
		c0,0.816,0.496,1.36,1.521,1.36c0.561,0,1.201-0.176,1.617-0.496l0.384,1.024c-0.544,0.368-1.457,0.64-2.305,0.64
		c-1.825,0-2.673-1.136-2.673-2.353c0-1.089,0.608-1.856,1.393-2.753c0.688-0.849,0.944-1.521,0.896-2.337l-0.016-0.416H37.016z
		 M37.352,45.313c0,0.561-0.368,1.009-0.944,1.009s-0.944-0.448-0.944-1.009c0-0.576,0.384-0.992,0.944-0.992
		C36.984,44.321,37.352,44.737,37.352,45.313z"/>
	<path fill="#221E1F" d="M40.279,46.498c0-0.8-0.016-1.456-0.064-2.097h1.249l0.08,1.28h0.032c0.384-0.736,1.281-1.456,2.561-1.456
		c1.073,0,2.737,0.64,2.737,3.297v4.626h-1.409v-4.466c0-1.248-0.464-2.289-1.792-2.289c-0.929,0-1.649,0.656-1.889,1.44
		c-0.064,0.177-0.096,0.416-0.096,0.656v4.658h-1.409V46.498z"/>
	<path fill="#221E1F" d="M56.169,48.211c0,2.865-1.985,4.113-3.857,4.113c-2.097,0-3.713-1.536-3.713-3.985
		c0-2.593,1.696-4.113,3.841-4.113C54.665,44.225,56.169,45.842,56.169,48.211z M50.023,48.291c0,1.696,0.977,2.978,2.353,2.978
		c1.345,0,2.353-1.265,2.353-3.01c0-1.313-0.656-2.978-2.321-2.978C50.743,45.281,50.023,46.818,50.023,48.291z"/>
	<path fill="#221E1F" d="M62.118,48.531c0.032,1.904,1.249,2.688,2.657,2.688c1.008,0,1.617-0.176,2.145-0.399l0.24,1.008
		c-0.496,0.225-1.344,0.48-2.577,0.48c-2.385,0-3.81-1.568-3.81-3.905s1.376-4.178,3.633-4.178c2.529,0,3.201,2.225,3.201,3.649
		c0,0.288-0.032,0.512-0.048,0.656H62.118z M66.248,47.522c0.016-0.896-0.368-2.289-1.953-2.289c-1.425,0-2.049,1.313-2.161,2.289
		H66.248z"/>
	<path fill="#221E1F" d="M69.158,50.708c0.416,0.271,1.152,0.561,1.856,0.561c1.024,0,1.505-0.513,1.505-1.153
		c0-0.672-0.4-1.04-1.441-1.424c-1.393-0.496-2.049-1.265-2.049-2.193c0-1.248,1.009-2.272,2.673-2.272
		c0.784,0,1.473,0.224,1.905,0.479l-0.352,1.024c-0.304-0.191-0.865-0.448-1.585-0.448c-0.832,0-1.296,0.48-1.296,1.057
		c0,0.641,0.464,0.929,1.473,1.313c1.345,0.513,2.033,1.185,2.033,2.337c0,1.36-1.056,2.321-2.897,2.321
		c-0.849,0-1.633-0.208-2.177-0.528L69.158,50.708z"/>
	<path fill="#221E1F" d="M79.077,46.498c0-0.8-0.016-1.456-0.064-2.097h1.232l0.064,1.248h0.048
		c0.432-0.736,1.152-1.424,2.433-1.424c1.057,0,1.857,0.64,2.193,1.553h0.032c0.24-0.433,0.544-0.769,0.864-1.009
		c0.464-0.353,0.977-0.544,1.713-0.544c1.024,0,2.545,0.672,2.545,3.361v4.562h-1.376v-4.386c0-1.488-0.544-2.385-1.681-2.385
		c-0.8,0-1.425,0.592-1.665,1.28c-0.064,0.192-0.112,0.448-0.112,0.704v4.786h-1.376v-4.642c0-1.232-0.544-2.129-1.617-2.129
		c-0.88,0-1.521,0.704-1.745,1.408c-0.08,0.208-0.112,0.448-0.112,0.688v4.674h-1.376V46.498z"/>
	<path fill="#221E1F" d="M98.904,50.035c0,0.801,0.016,1.505,0.064,2.113h-1.249l-0.08-1.265h-0.032
		c-0.368,0.624-1.185,1.44-2.561,1.44c-1.216,0-2.673-0.672-2.673-3.394v-4.529h1.408v4.29c0,1.473,0.448,2.465,1.729,2.465
		c0.944,0,1.601-0.656,1.856-1.28c0.08-0.209,0.128-0.465,0.128-0.721v-4.754h1.408V50.035z"/>
	<path fill="#221E1F" d="M101.749,44.401l1.697,4.578c0.176,0.512,0.368,1.12,0.496,1.584h0.032
		c0.144-0.464,0.304-1.056,0.496-1.616l1.537-4.546h1.489l-2.113,5.522c-1.008,2.657-1.696,4.018-2.657,4.85
		c-0.688,0.608-1.376,0.849-1.729,0.912l-0.352-1.185c0.352-0.111,0.816-0.336,1.232-0.688c0.384-0.305,0.864-0.849,1.185-1.569
		c0.064-0.144,0.112-0.256,0.112-0.336s-0.032-0.192-0.096-0.368l-2.865-7.139H101.749z"/>
	<path fill="#221E1F" d="M117.687,51.86c-0.368,0.192-1.185,0.448-2.225,0.448c-2.337,0-3.857-1.585-3.857-3.954
		c0-2.385,1.632-4.113,4.162-4.113c0.832,0,1.568,0.208,1.953,0.4l-0.32,1.088c-0.336-0.191-0.864-0.368-1.632-0.368
		c-1.777,0-2.737,1.313-2.737,2.93c0,1.793,1.152,2.897,2.689,2.897c0.801,0,1.329-0.209,1.729-0.385L117.687,51.86z"/>
	<path fill="#221E1F" d="M126.247,48.211c0,2.865-1.985,4.113-3.857,4.113c-2.097,0-3.713-1.536-3.713-3.985
		c0-2.593,1.696-4.113,3.841-4.113C124.743,44.225,126.247,45.842,126.247,48.211z M120.101,48.291c0,1.696,0.977,2.978,2.353,2.978
		c1.345,0,2.353-1.265,2.353-3.01c0-1.313-0.656-2.978-2.321-2.978C120.821,45.281,120.101,46.818,120.101,48.291z"/>
	<path fill="#221E1F" d="M127.829,50.708c0.416,0.271,1.152,0.561,1.856,0.561c1.024,0,1.505-0.513,1.505-1.153
		c0-0.672-0.4-1.04-1.441-1.424c-1.393-0.496-2.049-1.265-2.049-2.193c0-1.248,1.009-2.272,2.673-2.272
		c0.784,0,1.473,0.224,1.905,0.479l-0.352,1.024c-0.304-0.191-0.865-0.448-1.585-0.448c-0.832,0-1.296,0.48-1.296,1.057
		c0,0.641,0.464,0.929,1.473,1.313c1.345,0.513,2.033,1.185,2.033,2.337c0,1.36-1.056,2.321-2.897,2.321
		c-0.849,0-1.633-0.208-2.177-0.528L127.829,50.708z"/>
	<path fill="#221E1F" d="M136.053,42.177v2.225h2.017v1.072h-2.017v4.178c0,0.96,0.272,1.505,1.056,1.505
		c0.368,0,0.641-0.048,0.816-0.097l0.064,1.057c-0.272,0.112-0.704,0.192-1.249,0.192c-0.656,0-1.184-0.208-1.521-0.593
		c-0.4-0.416-0.544-1.104-0.544-2.017v-4.226h-1.201v-1.072h1.201v-1.856L136.053,42.177z"/>
	<path fill="#221E1F" d="M146.567,48.211c0,2.865-1.985,4.113-3.857,4.113c-2.097,0-3.713-1.536-3.713-3.985
		c0-2.593,1.697-4.113,3.841-4.113C145.063,44.225,146.567,45.842,146.567,48.211z M140.421,48.291c0,1.696,0.977,2.978,2.353,2.978
		c1.345,0,2.353-1.265,2.353-3.01c0-1.313-0.656-2.978-2.321-2.978C141.141,45.281,140.421,46.818,140.421,48.291z"/>
	<path fill="#221E1F" d="M148.149,50.708c0.416,0.271,1.152,0.561,1.856,0.561c1.024,0,1.505-0.513,1.505-1.153
		c0-0.672-0.4-1.04-1.441-1.424c-1.393-0.496-2.049-1.265-2.049-2.193c0-1.248,1.009-2.272,2.673-2.272
		c0.784,0,1.473,0.224,1.905,0.479l-0.352,1.024c-0.304-0.191-0.865-0.448-1.585-0.448c-0.832,0-1.296,0.48-1.296,1.057
		c0,0.641,0.464,0.929,1.473,1.313c1.345,0.513,2.033,1.185,2.033,2.337c0,1.36-1.056,2.321-2.897,2.321
		c-0.849,0-1.633-0.208-2.177-0.528L148.149,50.708z"/>
	<path fill="#221E1F" d="M161.687,48.211c0,2.865-1.985,4.113-3.857,4.113c-2.097,0-3.713-1.536-3.713-3.985
		c0-2.593,1.697-4.113,3.841-4.113C160.183,44.225,161.687,45.842,161.687,48.211z M155.541,48.291c0,1.696,0.977,2.978,2.353,2.978
		c1.345,0,2.353-1.265,2.353-3.01c0-1.313-0.656-2.978-2.321-2.978C156.261,45.281,155.541,46.818,155.541,48.291z"/>
	<path fill="#221E1F" d="M167.636,48.531c0.032,1.904,1.249,2.688,2.657,2.688c1.008,0,1.617-0.176,2.145-0.399l0.24,1.008
		c-0.496,0.225-1.344,0.48-2.577,0.48c-2.385,0-3.81-1.568-3.81-3.905s1.376-4.178,3.633-4.178c2.529,0,3.201,2.225,3.201,3.649
		c0,0.288-0.032,0.512-0.048,0.656H167.636z M171.766,47.522c0.016-0.896-0.368-2.289-1.953-2.289c-1.425,0-2.049,1.313-2.161,2.289
		H171.766z"/>
	<path fill="#221E1F" d="M174.676,50.708c0.416,0.271,1.152,0.561,1.856,0.561c1.024,0,1.505-0.513,1.505-1.153
		c0-0.672-0.4-1.04-1.441-1.424c-1.393-0.496-2.049-1.265-2.049-2.193c0-1.248,1.009-2.272,2.673-2.272
		c0.784,0,1.473,0.224,1.905,0.479l-0.352,1.024c-0.304-0.191-0.865-0.448-1.585-0.448c-0.832,0-1.296,0.48-1.296,1.057
		c0,0.641,0.464,0.929,1.473,1.313c1.345,0.513,2.033,1.185,2.033,2.337c0,1.36-1.056,2.321-2.897,2.321
		c-0.849,0-1.633-0.208-2.177-0.528L174.676,50.708z"/>
	<path fill="#221E1F" d="M182.901,42.177v2.225h2.017v1.072h-2.017v4.178c0,0.96,0.272,1.505,1.056,1.505
		c0.368,0,0.641-0.048,0.816-0.097l0.064,1.057c-0.272,0.112-0.704,0.192-1.249,0.192c-0.656,0-1.184-0.208-1.521-0.593
		c-0.4-0.416-0.544-1.104-0.544-2.017v-4.226h-1.201v-1.072h1.201v-1.856L182.901,42.177z"/>
	<path fill="#221E1F" d="M187.188,48.531c0.032,1.904,1.249,2.688,2.657,2.688c1.008,0,1.617-0.176,2.145-0.399l0.24,1.008
		c-0.496,0.225-1.344,0.48-2.577,0.48c-2.385,0-3.81-1.568-3.81-3.905s1.376-4.178,3.633-4.178c2.529,0,3.201,2.225,3.201,3.649
		c0,0.288-0.032,0.512-0.048,0.656H187.188z M191.318,47.522c0.016-0.896-0.368-2.289-1.953-2.289c-1.425,0-2.049,1.313-2.161,2.289
		H191.318z"/>
	<path fill="#221E1F" d="M197.619,50.708c0.416,0.271,1.152,0.561,1.856,0.561c1.024,0,1.505-0.513,1.505-1.153
		c0-0.672-0.4-1.04-1.441-1.424c-1.393-0.496-2.049-1.265-2.049-2.193c0-1.248,1.009-2.272,2.673-2.272
		c0.784,0,1.473,0.224,1.905,0.479l-0.352,1.024c-0.304-0.191-0.865-0.448-1.585-0.448c-0.832,0-1.296,0.48-1.296,1.057
		c0,0.641,0.464,0.929,1.473,1.313c1.345,0.513,2.033,1.185,2.033,2.337c0,1.36-1.056,2.321-2.897,2.321
		c-0.849,0-1.633-0.208-2.177-0.528L197.619,50.708z"/>
	<path fill="#221E1F" d="M205.716,42.224c0.016,0.48-0.336,0.864-0.896,0.864c-0.496,0-0.849-0.384-0.849-0.864
		c0-0.496,0.368-0.881,0.88-0.881C205.379,41.344,205.716,41.728,205.716,42.224z M204.147,52.148v-7.747h1.409v7.747H204.147z"/>
	<path fill="#221E1F" d="M207.699,50.708c0.416,0.271,1.152,0.561,1.856,0.561c1.024,0,1.505-0.513,1.505-1.153
		c0-0.672-0.4-1.04-1.441-1.424c-1.393-0.496-2.049-1.265-2.049-2.193c0-1.248,1.009-2.272,2.673-2.272
		c0.784,0,1.473,0.224,1.905,0.479l-0.352,1.024c-0.304-0.191-0.865-0.448-1.585-0.448c-0.832,0-1.296,0.48-1.296,1.057
		c0,0.641,0.464,0.929,1.473,1.313c1.345,0.513,2.033,1.185,2.033,2.337c0,1.36-1.056,2.321-2.897,2.321
		c-0.849,0-1.633-0.208-2.177-0.528L207.699,50.708z"/>
	<path fill="#221E1F" d="M215.924,42.177v2.225h2.017v1.072h-2.017v4.178c0,0.96,0.272,1.505,1.056,1.505
		c0.368,0,0.641-0.048,0.816-0.097l0.064,1.057c-0.272,0.112-0.704,0.192-1.249,0.192c-0.656,0-1.184-0.208-1.521-0.593
		c-0.4-0.416-0.544-1.104-0.544-2.017v-4.226h-1.201v-1.072h1.201v-1.856L215.924,42.177z"/>
	<path fill="#221E1F" d="M220.211,48.531c0.032,1.904,1.249,2.688,2.657,2.688c1.008,0,1.617-0.176,2.145-0.399l0.24,1.008
		c-0.496,0.225-1.344,0.48-2.577,0.48c-2.385,0-3.81-1.568-3.81-3.905s1.376-4.178,3.633-4.178c2.529,0,3.201,2.225,3.201,3.649
		c0,0.288-0.032,0.512-0.048,0.656H220.211z M224.341,47.522c0.016-0.896-0.368-2.289-1.953-2.289c-1.425,0-2.049,1.313-2.161,2.289
		H224.341z"/>
	<path fill="#221E1F" d="M227.443,46.498c0-0.8-0.016-1.456-0.064-2.097h1.232l0.064,1.248h0.048
		c0.432-0.736,1.152-1.424,2.433-1.424c1.057,0,1.857,0.64,2.193,1.553h0.032c0.24-0.433,0.544-0.769,0.864-1.009
		c0.464-0.353,0.977-0.544,1.713-0.544c1.024,0,2.545,0.672,2.545,3.361v4.562h-1.376v-4.386c0-1.488-0.544-2.385-1.681-2.385
		c-0.8,0-1.425,0.592-1.665,1.28c-0.064,0.192-0.112,0.448-0.112,0.704v4.786h-1.376v-4.642c0-1.232-0.544-2.129-1.617-2.129
		c-0.88,0-1.521,0.704-1.745,1.408c-0.08,0.208-0.112,0.448-0.112,0.688v4.674h-1.376V46.498z"/>
	<path fill="#221E1F" d="M245.076,52.148l-0.112-0.977h-0.048c-0.432,0.608-1.265,1.152-2.369,1.152
		c-1.569,0-2.369-1.104-2.369-2.225c0-1.873,1.665-2.897,4.658-2.881v-0.16c0-0.641-0.176-1.793-1.761-1.793
		c-0.72,0-1.473,0.225-2.017,0.576l-0.32-0.929c0.64-0.416,1.568-0.688,2.545-0.688c2.369,0,2.945,1.616,2.945,3.169v2.897
		c0,0.672,0.032,1.328,0.128,1.856H245.076z M244.868,48.195c-1.537-0.032-3.281,0.239-3.281,1.744c0,0.912,0.608,1.345,1.329,1.345
		c1.008,0,1.648-0.641,1.873-1.297c0.048-0.144,0.08-0.304,0.08-0.448V48.195z"/>
	<path fill="#221E1F" d="M249.587,49.091l-0.032-0.416c-0.096-0.864,0.192-1.809,0.992-2.769c0.72-0.849,1.121-1.473,1.121-2.193
		c0-0.816-0.512-1.36-1.521-1.376c-0.577,0-1.217,0.191-1.617,0.496l-0.384-1.009c0.528-0.384,1.44-0.641,2.289-0.641
		c1.84,0,2.673,1.137,2.673,2.354c0,1.088-0.608,1.873-1.376,2.785c-0.705,0.832-0.96,1.536-0.913,2.353l0.016,0.416H249.587z
		 M249.235,51.332c0-0.592,0.4-1.009,0.96-1.009c0.56,0,0.944,0.417,0.944,1.009c0,0.561-0.368,0.992-0.96,0.992
		C249.619,52.324,249.235,51.892,249.235,51.332z"/>
	<path fill="#221E1F" d="M254.658,51.316c0-0.593,0.4-1.009,0.96-1.009c0.56,0,0.944,0.416,0.944,1.009
		c0,0.576-0.368,1.008-0.96,1.008C255.042,52.324,254.658,51.892,254.658,51.316z"/>
</g>
</svg>