<!-- Generator: Adobe Illustrator 17.0.0, SVG Export Plug-In  -->
<svg version="1.1"
	 xmlns="http://www.w3.org/2000/svg" xmlns:xlink="http://www.w3.org/1999/xlink" xmlns:a="http://ns.adobe.com/AdobeSVGViewerExtensions/3.0/"
	 x="0px" y="0px" width="209.804px" height="102.063px" viewBox="0 0 209.804 102.063" enable-background="new 0 0 209.804 102.063"
	 xml:space="preserve">
<defs>
</defs>
<polygon fill="#F1F1F1" stroke="#000000" stroke-width="2" stroke-linecap="round" stroke-linejoin="round" stroke-miterlimit="10" points="
	1,1 208.804,1 208.804,68.122 65.145,68.122 65.145,101.063 32.206,68.122 1,68.122 "/>
<g>
	<path fill="#221E1F" d="M52.344,33.603h-4.194v3.889h4.674v1.169h-6.066V27.872h5.827v1.168h-4.434v3.409h4.194V33.603z"/>
	<path fill="#221E1F" d="M54.39,37.22c0.416,0.271,1.152,0.561,1.856,0.561c1.024,0,1.505-0.513,1.505-1.153
		c0-0.672-0.4-1.04-1.441-1.424c-1.393-0.496-2.049-1.265-2.049-2.193c0-1.248,1.009-2.272,2.673-2.272
		c0.784,0,1.473,0.224,1.905,0.479l-0.352,1.024c-0.304-0.191-0.865-0.448-1.585-0.448c-0.832,0-1.296,0.48-1.296,1.057
		c0,0.641,0.464,0.929,1.473,1.313c1.345,0.513,2.033,1.185,2.033,2.337c0,1.36-1.056,2.321-2.897,2.321
		c-0.849,0-1.633-0.208-2.177-0.528L54.39,37.22z"/>
	<path fill="#221E1F" d="M67.929,34.723c0,2.865-1.985,4.113-3.857,4.113c-2.097,0-3.713-1.536-3.713-3.985
		c0-2.593,1.696-4.113,3.841-4.113C66.425,30.738,67.929,32.354,67.929,34.723z M61.782,34.803c0,1.696,0.977,2.978,2.353,2.978
		c1.345,0,2.353-1.265,2.353-3.01c0-1.313-0.656-2.978-2.321-2.978C62.503,31.793,61.782,33.33,61.782,34.803z"/>
	<path fill="#221E1F" d="M73.878,35.043c0.032,1.904,1.249,2.688,2.657,2.688c1.008,0,1.617-0.176,2.145-0.399l0.24,1.008
		c-0.496,0.225-1.344,0.48-2.577,0.48c-2.385,0-3.81-1.568-3.81-3.905s1.376-4.178,3.633-4.178c2.529,0,3.201,2.225,3.201,3.649
		c0,0.288-0.032,0.512-0.048,0.656H73.878z M78.008,34.034c0.016-0.896-0.368-2.289-1.953-2.289c-1.425,0-2.049,1.313-2.161,2.289
		H78.008z"/>
	<path fill="#221E1F" d="M80.918,37.22c0.416,0.271,1.152,0.561,1.856,0.561c1.024,0,1.505-0.513,1.505-1.153
		c0-0.672-0.4-1.04-1.441-1.424c-1.393-0.496-2.049-1.265-2.049-2.193c0-1.248,1.009-2.272,2.673-2.272
		c0.784,0,1.473,0.224,1.905,0.479l-0.352,1.024c-0.304-0.191-0.865-0.448-1.585-0.448c-0.832,0-1.296,0.48-1.296,1.057
		c0,0.641,0.464,0.929,1.473,1.313c1.345,0.513,2.033,1.185,2.033,2.337c0,1.36-1.056,2.321-2.897,2.321
		c-0.849,0-1.633-0.208-2.177-0.528L80.918,37.22z"/>
	<path fill="#221E1F" d="M90.837,33.01c0-0.8-0.016-1.456-0.064-2.097h1.232l0.064,1.248h0.048c0.432-0.736,1.152-1.424,2.433-1.424
		c1.057,0,1.857,0.64,2.193,1.553h0.032c0.24-0.433,0.544-0.769,0.864-1.009c0.464-0.353,0.977-0.544,1.713-0.544
		c1.024,0,2.545,0.672,2.545,3.361v4.562h-1.376v-4.386c0-1.488-0.544-2.385-1.681-2.385c-0.8,0-1.425,0.592-1.665,1.28
		c-0.064,0.192-0.112,0.448-0.112,0.704v4.786h-1.376v-4.642c0-1.232-0.544-2.129-1.617-2.129c-0.88,0-1.521,0.704-1.745,1.408
		c-0.08,0.208-0.112,0.448-0.112,0.688v4.674h-1.376V33.01z"/>
	<path fill="#221E1F" d="M110.663,36.547c0,0.801,0.016,1.505,0.064,2.113h-1.249l-0.08-1.265h-0.032
		c-0.368,0.624-1.185,1.44-2.561,1.44c-1.216,0-2.673-0.672-2.673-3.394v-4.529h1.408v4.29c0,1.473,0.448,2.465,1.729,2.465
		c0.944,0,1.601-0.656,1.856-1.28c0.08-0.209,0.128-0.465,0.128-0.721v-4.754h1.408V36.547z"/>
	<path fill="#221E1F" d="M113.509,30.913l1.697,4.578c0.176,0.512,0.368,1.12,0.496,1.584h0.032
		c0.144-0.464,0.304-1.056,0.496-1.616l1.537-4.546h1.489l-2.113,5.522c-1.008,2.657-1.696,4.018-2.657,4.85
		c-0.688,0.608-1.376,0.849-1.729,0.912l-0.352-1.185c0.352-0.111,0.816-0.336,1.232-0.688c0.384-0.305,0.864-0.849,1.185-1.569
		c0.064-0.144,0.112-0.256,0.112-0.336s-0.032-0.192-0.096-0.368l-2.865-7.139H113.509z"/>
	<path fill="#221E1F" d="M129.447,38.372c-0.368,0.192-1.185,0.448-2.225,0.448c-2.337,0-3.857-1.585-3.857-3.954
		c0-2.385,1.632-4.113,4.162-4.113c0.832,0,1.568,0.208,1.953,0.4l-0.32,1.088c-0.336-0.191-0.864-0.368-1.632-0.368
		c-1.777,0-2.737,1.313-2.737,2.93c0,1.793,1.152,2.897,2.689,2.897c0.801,0,1.329-0.209,1.729-0.385L129.447,38.372z"/>
	<path fill="#221E1F" d="M132.661,28.737c0.016,0.48-0.336,0.864-0.896,0.864c-0.496,0-0.849-0.384-0.849-0.864
		c0-0.496,0.368-0.881,0.88-0.881C132.324,27.856,132.661,28.241,132.661,28.737z M131.092,38.66v-7.747h1.409v7.747H131.092z"/>
	<path fill="#221E1F" d="M135.62,35.043c0.032,1.904,1.249,2.688,2.657,2.688c1.008,0,1.617-0.176,2.145-0.399l0.24,1.008
		c-0.496,0.225-1.344,0.48-2.577,0.48c-2.385,0-3.81-1.568-3.81-3.905s1.376-4.178,3.633-4.178c2.529,0,3.201,2.225,3.201,3.649
		c0,0.288-0.032,0.512-0.048,0.656H135.62z M139.75,34.034c0.016-0.896-0.368-2.289-1.953-2.289c-1.425,0-2.049,1.313-2.161,2.289
		H139.75z"/>
	<path fill="#221E1F" d="M142.852,33.33c0-0.912-0.016-1.696-0.064-2.417h1.232l0.048,1.521h0.064c0.352-1.04,1.2-1.696,2.145-1.696
		c0.16,0,0.272,0.016,0.4,0.048v1.328c-0.144-0.032-0.288-0.048-0.48-0.048c-0.992,0-1.696,0.752-1.889,1.809
		c-0.032,0.192-0.064,0.416-0.064,0.656v4.13h-1.393V33.33z"/>
	<path fill="#221E1F" d="M150.164,28.689v2.225h2.017v1.072h-2.017v4.178c0,0.96,0.272,1.505,1.056,1.505
		c0.368,0,0.641-0.048,0.816-0.097l0.064,1.057c-0.272,0.112-0.704,0.192-1.249,0.192c-0.656,0-1.184-0.208-1.521-0.593
		c-0.4-0.416-0.544-1.104-0.544-2.017v-4.226h-1.201v-1.072h1.201v-1.856L150.164,28.689z"/>
	<path fill="#221E1F" d="M160.678,34.723c0,2.865-1.985,4.113-3.857,4.113c-2.097,0-3.713-1.536-3.713-3.985
		c0-2.593,1.696-4.113,3.841-4.113C159.174,30.738,160.678,32.354,160.678,34.723z M154.531,34.803c0,1.696,0.977,2.978,2.353,2.978
		c1.345,0,2.353-1.265,2.353-3.01c0-1.313-0.656-2.978-2.321-2.978C155.252,31.793,154.531,33.33,154.531,34.803z"/>
	<path fill="#221E1F" d="M161.732,37.828c0-0.593,0.4-1.009,0.96-1.009c0.56,0,0.944,0.416,0.944,1.009
		c0,0.576-0.368,1.008-0.96,1.008C162.115,38.836,161.732,38.405,161.732,37.828z"/>
</g>
</svg>