<!-- Generator: Adobe Illustrator 17.0.0, SVG Export Plug-In  -->
<svg version="1.1"
	 xmlns="http://www.w3.org/2000/svg" xmlns:xlink="http://www.w3.org/1999/xlink" xmlns:a="http://ns.adobe.com/AdobeSVGViewerExtensions/3.0/"
	 x="0px" y="0px" width="289.804px" height="102.063px" viewBox="0 0 289.804 102.063" enable-background="new 0 0 289.804 102.063"
	 xml:space="preserve">
<defs>
</defs>
<polygon fill="#F1F1F1" stroke="#000000" stroke-width="2" stroke-linecap="round" stroke-linejoin="round" stroke-miterlimit="10" points="
	1,1 288.804,1 288.804,68.122 65.145,68.122 65.145,101.063 32.206,68.122 1,68.122 "/>
<g>
	<path fill="#221E1F" d="M111.649,26.41c-0.08-1.504-0.176-3.313-0.16-4.657h-0.048c-0.368,1.265-0.816,2.608-1.36,4.098
		l-1.905,5.233h-1.057l-1.745-5.138c-0.512-1.521-0.944-2.913-1.249-4.193h-0.032c-0.032,1.345-0.112,3.153-0.208,4.77l-0.288,4.626
		h-1.329l0.752-10.788h1.777l1.841,5.218c0.448,1.328,0.816,2.513,1.088,3.634h0.048c0.272-1.089,0.656-2.273,1.137-3.634
		l1.92-5.218h1.777l0.672,10.788h-1.361L111.649,26.41z"/>
	<path fill="#221E1F" d="M116.253,27.531c0.032,1.904,1.249,2.688,2.657,2.688c1.008,0,1.617-0.176,2.145-0.399l0.24,1.008
		c-0.496,0.225-1.344,0.48-2.577,0.48c-2.385,0-3.81-1.568-3.81-3.905s1.376-4.178,3.633-4.178c2.529,0,3.201,2.225,3.201,3.649
		c0,0.288-0.032,0.512-0.048,0.656H116.253z M120.383,26.523c0.016-0.896-0.368-2.289-1.953-2.289c-1.425,0-2.049,1.313-2.161,2.289
		H120.383z"/>
	<path fill="#221E1F" d="M132.399,30.861c-0.368,0.192-1.185,0.448-2.225,0.448c-2.337,0-3.857-1.585-3.857-3.954
		c0-2.385,1.632-4.113,4.162-4.113c0.832,0,1.568,0.208,1.953,0.4l-0.32,1.088c-0.336-0.191-0.864-0.368-1.632-0.368
		c-1.777,0-2.737,1.313-2.737,2.93c0,1.793,1.152,2.897,2.689,2.897c0.801,0,1.329-0.209,1.729-0.385L132.399,30.861z"/>
	<path fill="#221E1F" d="M140.959,27.211c0,2.865-1.985,4.113-3.857,4.113c-2.097,0-3.713-1.536-3.713-3.985
		c0-2.593,1.696-4.113,3.841-4.113C139.455,23.226,140.959,24.842,140.959,27.211z M134.813,27.291c0,1.696,0.977,2.978,2.353,2.978
		c1.345,0,2.353-1.265,2.353-3.01c0-1.313-0.656-2.978-2.321-2.978C135.533,24.281,134.813,25.819,134.813,27.291z"/>
	<path fill="#221E1F" d="M142.733,25.498c0-0.8-0.016-1.456-0.064-2.097h1.249l0.08,1.28h0.032c0.384-0.736,1.281-1.456,2.561-1.456
		c1.073,0,2.737,0.64,2.737,3.297v4.626h-1.409v-4.466c0-1.248-0.464-2.289-1.792-2.289c-0.929,0-1.649,0.656-1.889,1.44
		c-0.064,0.177-0.096,0.416-0.096,0.656v4.658h-1.409V25.498z"/>
	<path fill="#221E1F" d="M151.949,23.402l1.521,4.354c0.256,0.704,0.464,1.345,0.624,1.985h0.048c0.176-0.641,0.4-1.281,0.656-1.985
		l1.504-4.354h1.473l-3.041,7.747h-1.345l-2.945-7.747H151.949z"/>
	<path fill="#221E1F" d="M159.725,27.531c0.032,1.904,1.249,2.688,2.657,2.688c1.008,0,1.617-0.176,2.145-0.399l0.24,1.008
		c-0.496,0.225-1.344,0.48-2.577,0.48c-2.385,0-3.81-1.568-3.81-3.905s1.376-4.178,3.633-4.178c2.529,0,3.201,2.225,3.201,3.649
		c0,0.288-0.032,0.512-0.048,0.656H159.725z M163.855,26.523c0.016-0.896-0.368-2.289-1.953-2.289c-1.425,0-2.049,1.313-2.161,2.289
		H163.855z"/>
	<path fill="#221E1F" d="M172.479,30.861c-0.368,0.192-1.185,0.448-2.225,0.448c-2.337,0-3.857-1.585-3.857-3.954
		c0-2.385,1.632-4.113,4.162-4.113c0.832,0,1.568,0.208,1.953,0.4l-0.32,1.088c-0.336-0.191-0.865-0.368-1.633-0.368
		c-1.777,0-2.737,1.313-2.737,2.93c0,1.793,1.152,2.897,2.689,2.897c0.801,0,1.329-0.209,1.729-0.385L172.479,30.861z"/>
	<path fill="#221E1F" d="M175.694,21.225c0.016,0.48-0.336,0.864-0.896,0.864c-0.496,0-0.849-0.384-0.849-0.864
		c0-0.496,0.368-0.881,0.88-0.881C175.357,20.344,175.694,20.729,175.694,21.225z M174.125,31.149v-7.747h1.409v7.747H174.125z"/>
	<path fill="#221E1F" d="M184.88,27.211c0,2.865-1.985,4.113-3.857,4.113c-2.097,0-3.713-1.536-3.713-3.985
		c0-2.593,1.697-4.113,3.841-4.113C183.375,23.226,184.88,24.842,184.88,27.211z M178.733,27.291c0,1.696,0.977,2.978,2.353,2.978
		c1.345,0,2.353-1.265,2.353-3.01c0-1.313-0.656-2.978-2.321-2.978C179.453,24.281,178.733,25.819,178.733,27.291z M183.199,20.056
		l-1.953,2.289h-1.008l1.408-2.289H183.199z"/>
	<path fill="#221E1F" d="M185.933,30.317c0-0.593,0.4-1.009,0.96-1.009c0.561,0,0.945,0.416,0.945,1.009
		c0,0.576-0.368,1.008-0.96,1.008C186.317,31.324,185.933,30.893,185.933,30.317z"/>
	<path fill="#221E1F" d="M63.753,46.796c-0.512,0.257-1.537,0.513-2.849,0.513c-3.041,0-5.33-1.921-5.33-5.458
		c0-3.378,2.289-5.667,5.634-5.667c1.345,0,2.193,0.288,2.561,0.48l-0.336,1.137c-0.528-0.256-1.281-0.448-2.177-0.448
		c-2.529,0-4.209,1.616-4.209,4.45c0,2.641,1.521,4.337,4.146,4.337c0.849,0,1.713-0.176,2.273-0.448L63.753,46.796z"/>
	<path fill="#221E1F" d="M72.281,43.211c0,2.865-1.985,4.113-3.857,4.113c-2.097,0-3.713-1.536-3.713-3.985
		c0-2.593,1.697-4.113,3.841-4.113C70.777,39.226,72.281,40.842,72.281,43.211z M66.135,43.291c0,1.696,0.977,2.978,2.353,2.978
		c1.345,0,2.353-1.265,2.353-3.01c0-1.313-0.656-2.978-2.321-2.978C66.855,40.281,66.135,41.819,66.135,43.291z"/>
	<path fill="#221E1F" d="M74.054,41.498c0-0.8-0.016-1.456-0.064-2.097h1.232l0.064,1.248h0.048
		c0.432-0.736,1.152-1.424,2.433-1.424c1.057,0,1.857,0.64,2.193,1.553h0.032c0.24-0.433,0.544-0.769,0.864-1.009
		c0.464-0.353,0.977-0.544,1.713-0.544c1.024,0,2.545,0.672,2.545,3.361v4.562h-1.376v-4.386c0-1.488-0.544-2.385-1.681-2.385
		c-0.8,0-1.425,0.592-1.665,1.28c-0.064,0.192-0.112,0.448-0.112,0.704v4.786h-1.376v-4.642c0-1.232-0.544-2.129-1.617-2.129
		c-0.88,0-1.521,0.704-1.745,1.408c-0.08,0.208-0.112,0.448-0.112,0.688v4.674h-1.376V41.498z"/>
	<path fill="#221E1F" d="M88.182,43.531c0.032,1.904,1.249,2.688,2.657,2.688c1.008,0,1.617-0.176,2.145-0.399l0.24,1.008
		c-0.496,0.225-1.344,0.48-2.577,0.48c-2.385,0-3.81-1.568-3.81-3.905s1.376-4.178,3.633-4.178c2.529,0,3.201,2.225,3.201,3.649
		c0,0.288-0.032,0.512-0.048,0.656H88.182z M92.312,42.523c0.016-0.896-0.368-2.289-1.953-2.289c-1.425,0-2.049,1.313-2.161,2.289
		H92.312z"/>
	<path fill="#221E1F" d="M95.413,41.498c0-0.8-0.016-1.456-0.064-2.097h1.249l0.08,1.28h0.032c0.384-0.736,1.281-1.456,2.561-1.456
		c1.073,0,2.737,0.64,2.737,3.297v4.626h-1.409v-4.466c0-1.248-0.464-2.289-1.792-2.289c-0.929,0-1.649,0.656-1.889,1.44
		c-0.064,0.177-0.096,0.416-0.096,0.656v4.658h-1.409V41.498z"/>
	<path fill="#221E1F" d="M109.816,46.861c-0.368,0.192-1.185,0.448-2.225,0.448c-2.337,0-3.857-1.585-3.857-3.954
		c0-2.385,1.632-4.113,4.162-4.113c0.832,0,1.568,0.208,1.953,0.4l-0.32,1.088c-0.336-0.191-0.864-0.368-1.632-0.368
		c-1.777,0-2.737,1.313-2.737,2.93c0,1.793,1.152,2.897,2.689,2.897c0.801,0,1.329-0.209,1.729-0.385L109.816,46.861z"/>
	<path fill="#221E1F" d="M112.15,43.531c0.032,1.904,1.249,2.688,2.657,2.688c1.008,0,1.617-0.176,2.145-0.399l0.24,1.008
		c-0.496,0.225-1.344,0.48-2.577,0.48c-2.385,0-3.81-1.568-3.81-3.905s1.376-4.178,3.633-4.178c2.529,0,3.201,2.225,3.201,3.649
		c0,0.288-0.032,0.512-0.048,0.656H112.15z M116.28,42.523c0.016-0.896-0.368-2.289-1.953-2.289c-1.425,0-2.049,1.313-2.161,2.289
		H116.28z"/>
	<path fill="#221E1F" d="M119.381,41.498c0-0.8-0.016-1.456-0.064-2.097h1.232l0.064,1.248h0.048
		c0.432-0.736,1.152-1.424,2.433-1.424c1.057,0,1.857,0.64,2.193,1.553h0.032c0.24-0.433,0.544-0.769,0.864-1.009
		c0.464-0.353,0.977-0.544,1.713-0.544c1.024,0,2.545,0.672,2.545,3.361v4.562h-1.376v-4.386c0-1.488-0.544-2.385-1.681-2.385
		c-0.8,0-1.425,0.592-1.665,1.28c-0.064,0.192-0.112,0.448-0.112,0.704v4.786h-1.376v-4.642c0-1.232-0.544-2.129-1.617-2.129
		c-0.88,0-1.521,0.704-1.745,1.408c-0.08,0.208-0.112,0.448-0.112,0.688v4.674h-1.376V41.498z"/>
	<path fill="#221E1F" d="M139.736,43.211c0,2.865-1.985,4.113-3.857,4.113c-2.097,0-3.713-1.536-3.713-3.985
		c0-2.593,1.696-4.113,3.841-4.113C138.231,39.226,139.736,40.842,139.736,43.211z M133.589,43.291c0,1.696,0.977,2.978,2.353,2.978
		c1.345,0,2.353-1.265,2.353-3.01c0-1.313-0.656-2.978-2.321-2.978C134.309,40.281,133.589,41.819,133.589,43.291z"/>
	<path fill="#221E1F" d="M141.317,45.708c0.416,0.271,1.152,0.561,1.856,0.561c1.024,0,1.505-0.513,1.505-1.153
		c0-0.672-0.4-1.04-1.441-1.424c-1.393-0.496-2.049-1.265-2.049-2.193c0-1.248,1.009-2.272,2.673-2.272
		c0.784,0,1.473,0.224,1.905,0.479l-0.352,1.024c-0.304-0.191-0.865-0.448-1.585-0.448c-0.832,0-1.296,0.48-1.296,1.057
		c0,0.641,0.464,0.929,1.473,1.313c1.345,0.513,2.033,1.185,2.033,2.337c0,1.36-1.056,2.321-2.897,2.321
		c-0.849,0-1.633-0.208-2.177-0.528L141.317,45.708z"/>
	<path fill="#221E1F" d="M152.021,43.531c0.032,1.904,1.249,2.688,2.657,2.688c1.008,0,1.617-0.176,2.145-0.399l0.24,1.008
		c-0.496,0.225-1.344,0.48-2.577,0.48c-2.385,0-3.81-1.568-3.81-3.905s1.376-4.178,3.633-4.178c2.529,0,3.201,2.225,3.201,3.649
		c0,0.288-0.032,0.512-0.048,0.656H152.021z M156.151,42.523c0.016-0.896-0.368-2.289-1.953-2.289c-1.425,0-2.049,1.313-2.161,2.289
		H156.151z"/>
	<path fill="#221E1F" d="M159.252,35.784h1.409v11.364h-1.409V35.784z"/>
	<path fill="#221E1F" d="M173.111,35.784v9.363c0,0.688,0.016,1.473,0.064,2.001h-1.265l-0.064-1.345h-0.032
		c-0.432,0.864-1.376,1.521-2.641,1.521c-1.873,0-3.313-1.584-3.313-3.938c-0.016-2.577,1.584-4.161,3.473-4.161
		c1.185,0,1.985,0.56,2.337,1.185h0.032v-4.626H173.111z M171.702,42.555c0-0.176-0.016-0.416-0.064-0.593
		c-0.208-0.896-0.977-1.632-2.033-1.632c-1.457,0-2.321,1.28-2.321,2.993c0,1.568,0.769,2.865,2.289,2.865
		c0.944,0,1.809-0.625,2.065-1.681c0.048-0.192,0.064-0.385,0.064-0.608V42.555z"/>
	<path fill="#221E1F" d="M176.228,43.531c0.032,1.904,1.249,2.688,2.657,2.688c1.008,0,1.617-0.176,2.145-0.399l0.24,1.008
		c-0.496,0.225-1.344,0.48-2.577,0.48c-2.385,0-3.81-1.568-3.81-3.905s1.376-4.178,3.633-4.178c2.529,0,3.201,2.225,3.201,3.649
		c0,0.288-0.032,0.512-0.048,0.656H176.228z M180.358,42.523c0.016-0.896-0.368-2.289-1.953-2.289c-1.425,0-2.049,1.313-2.161,2.289
		H180.358z"/>
	<path fill="#221E1F" d="M183.268,45.708c0.416,0.271,1.152,0.561,1.856,0.561c1.024,0,1.505-0.513,1.505-1.153
		c0-0.672-0.4-1.04-1.441-1.424c-1.393-0.496-2.049-1.265-2.049-2.193c0-1.248,1.009-2.272,2.673-2.272
		c0.784,0,1.473,0.224,1.905,0.479l-0.352,1.024c-0.304-0.191-0.865-0.448-1.585-0.448c-0.832,0-1.296,0.48-1.296,1.057
		c0,0.641,0.464,0.929,1.473,1.313c1.345,0.513,2.033,1.185,2.033,2.337c0,1.36-1.056,2.321-2.897,2.321
		c-0.849,0-1.633-0.208-2.177-0.528L183.268,45.708z"/>
	<path fill="#221E1F" d="M194.086,47.149l-0.112-0.977h-0.048c-0.432,0.608-1.265,1.152-2.369,1.152
		c-1.569,0-2.369-1.104-2.369-2.225c0-1.873,1.665-2.897,4.658-2.881v-0.16c0-0.641-0.176-1.793-1.761-1.793
		c-0.72,0-1.473,0.225-2.017,0.576l-0.32-0.929c0.64-0.416,1.568-0.688,2.545-0.688c2.369,0,2.945,1.616,2.945,3.169v2.897
		c0,0.672,0.032,1.328,0.128,1.856H194.086z M193.878,43.196c-1.537-0.032-3.281,0.239-3.281,1.744c0,0.912,0.608,1.345,1.329,1.345
		c1.008,0,1.648-0.641,1.873-1.297c0.048-0.144,0.08-0.304,0.08-0.448V43.196z"/>
	<path fill="#221E1F" d="M197.508,41.819c0-0.912-0.016-1.696-0.064-2.417h1.232l0.048,1.521h0.064
		c0.352-1.04,1.2-1.696,2.145-1.696c0.16,0,0.272,0.016,0.4,0.048v1.328c-0.144-0.032-0.288-0.048-0.48-0.048
		c-0.992,0-1.696,0.752-1.889,1.809c-0.032,0.192-0.064,0.416-0.064,0.656v4.13h-1.393V41.819z"/>
	<path fill="#221E1F" d="M202.804,41.819c0-0.912-0.016-1.696-0.064-2.417h1.232l0.048,1.521h0.064
		c0.352-1.04,1.2-1.696,2.145-1.696c0.16,0,0.272,0.016,0.4,0.048v1.328c-0.144-0.032-0.288-0.048-0.48-0.048
		c-0.992,0-1.696,0.752-1.889,1.809c-0.032,0.192-0.064,0.416-0.064,0.656v4.13h-1.393V41.819z"/>
	<path fill="#221E1F" d="M214.886,43.211c0,2.865-1.985,4.113-3.857,4.113c-2.097,0-3.713-1.536-3.713-3.985
		c0-2.593,1.697-4.113,3.841-4.113C213.382,39.226,214.886,40.842,214.886,43.211z M208.74,43.291c0,1.696,0.977,2.978,2.353,2.978
		c1.345,0,2.353-1.265,2.353-3.01c0-1.313-0.656-2.978-2.321-2.978C209.46,40.281,208.74,41.819,208.74,43.291z"/>
	<path fill="#221E1F" d="M216.66,35.784h1.409v11.364h-1.409V35.784z"/>
	<path fill="#221E1F" d="M220.436,35.784h1.409v11.364h-1.409V35.784z"/>
	<path fill="#221E1F" d="M231.222,43.211c0,2.865-1.985,4.113-3.857,4.113c-2.097,0-3.713-1.536-3.713-3.985
		c0-2.593,1.697-4.113,3.841-4.113C229.718,39.226,231.222,40.842,231.222,43.211z M225.076,43.291c0,1.696,0.977,2.978,2.353,2.978
		c1.345,0,2.353-1.265,2.353-3.01c0-1.313-0.656-2.978-2.321-2.978C225.796,40.281,225.076,41.819,225.076,43.291z"/>
	<path fill="#221E1F" d="M232.276,46.317c0-0.593,0.4-1.009,0.96-1.009c0.561,0,0.945,0.416,0.945,1.009
		c0,0.576-0.368,1.008-0.96,1.008C232.66,47.324,232.276,46.893,232.276,46.317z"/>
</g>
</svg>