<?xml version="1.0" encoding="utf-8"?>
<!-- Generator: Adobe Illustrator 17.0.0, SVG Export Plug-In . SVG Version: 6.00 Build 0)  -->
<!DOCTYPE svg PUBLIC "-//W3C//DTD SVG 1.1//EN" "http://www.w3.org/Graphics/SVG/1.1/DTD/svg11.dtd" [
	<!ENTITY ns_extend "http://ns.adobe.com/Extensibility/1.0/">
	<!ENTITY ns_ai "http://ns.adobe.com/AdobeIllustrator/10.0/">
	<!ENTITY ns_graphs "http://ns.adobe.com/Graphs/1.0/">
	<!ENTITY ns_vars "http://ns.adobe.com/Variables/1.0/">
	<!ENTITY ns_imrep "http://ns.adobe.com/ImageReplacement/1.0/">
	<!ENTITY ns_sfw "http://ns.adobe.com/SaveForWeb/1.0/">
	<!ENTITY ns_custom "http://ns.adobe.com/GenericCustomNamespace/1.0/">
	<!ENTITY ns_adobe_xpath "http://ns.adobe.com/XPath/1.0/">
]>
<svg version="1.1" id="Capa_1" xmlns:x="&ns_extend;" xmlns:i="&ns_ai;" xmlns:graph="&ns_graphs;"
	 xmlns="http://www.w3.org/2000/svg" xmlns:xlink="http://www.w3.org/1999/xlink" x="0px" y="0px" width="364.299px"
	 height="488.433px" viewBox="0 0 364.299 488.433" enable-background="new 0 0 364.299 488.433" xml:space="preserve">
<metadata>
	<sfw  xmlns="&ns_sfw;">
		<slices></slices>
		<sliceSourceBounds  width="364.299" height="488.433" x="500.35" y="506.284" bottomLeftOrigin="true"></sliceSourceBounds>
	</sfw>
</metadata>
<g>
	<g>
		<g>
			<defs>
				<rect id="SVGID_1_" y="0" width="364.299" height="419.034"/>
			</defs>
			<clipPath id="SVGID_2_">
				<use xlink:href="#SVGID_1_"  overflow="visible"/>
			</clipPath>
			<g clip-path="url(#SVGID_2_)">
				<path fill="#878686" d="M193.656,377.574c-19.25,11.918-83.267,23.955-109.502,18.252c0,0-15.97,52.47-4.563,68.439
					s2.302,13.917,29.5,22.509c22.423,7.086,74.454-8.972,79.017-39.769C192.672,416.209,193.656,377.574,193.656,377.574"/>
				<path fill="#878686" d="M193.656,377.574c-19.25,11.918-83.267,23.955-109.502,18.252c0,0-15.97,52.47-4.563,68.439
					s2.302,13.917,29.5,22.509c22.423,7.086,20.511-55.069,51.642-54.597C198.375,432.748,193.656,377.574,193.656,377.574"/>
				<path fill="#CE8451" d="M287.217,204.236c0,0-4.811,8.729-6.016,13.467c-1.206,4.732,9.964,9.327,11.254,6.071
					c1.289-3.258,8.053-14.374,5.42-15.576C295.244,207.001,289.6,202.943,287.217,204.236"/>
				<path fill="none" stroke="#6B4529" stroke-miterlimit="10" d="M287.217,204.236c0,0-4.811,8.729-6.016,13.467
					c-1.206,4.732,9.964,9.327,11.254,6.071c1.289-3.258,8.053-14.374,5.42-15.576C295.244,207.001,289.6,202.943,287.217,204.236z"
					/>
				<path fill="#F9A86C" d="M229.418,319.931c13.278-26.517,38.292-41.437,37.787-61.138c-1.661-6.334-1.805-14.961,0.701-24.583
					c2.509-9.619,2.359-11.875,4.665-13.656c2.304-1.782,6.474-5.068,16.939-0.735c10.465,4.334,22.924,11.608,20.154,22.23
					c-2.768,10.625-9.906,24.341-14.808,28.572c-9.605,8.289-27.333,70.918-37.393,80.576
					C247.405,360.853,216.14,346.444,229.418,319.931"/>
				<path fill="none" stroke="#6B4529" stroke-linecap="round" stroke-linejoin="round" stroke-miterlimit="10" d="M229.418,319.931
					c13.278-26.517,38.292-41.437,37.787-61.138c-1.661-6.334-1.805-14.961,0.701-24.583c2.509-9.619,2.359-11.875,4.665-13.656
					c2.304-1.782,6.474-5.068,16.939-0.735c10.465,4.334,22.924,11.608,20.154,22.23c-2.768,10.625-9.906,24.341-14.808,28.572
					c-9.605,8.289-27.333,70.918-37.393,80.576C247.405,360.853,216.14,346.444,229.418,319.931z"/>
				<path fill="#F9A86C" d="M284.911,225.898c1.354-5.197,1.479-15.051,1.314-17.855c-0.188-3.148,1.032-9.234,7.738-7.427
					c4.644,1.252,5.084,4.503,4.386,9.3c-0.673,4.621-1.884,15.98-3.864,20.819c-1.025-0.034-2.556-0.274-4.705-1.073
					C286.899,228.59,285.53,226.95,284.911,225.898"/>
				<path fill="none" stroke="#6B4529" stroke-linecap="round" stroke-linejoin="round" stroke-miterlimit="10" d="M284.911,225.898
					c1.354-5.197,1.479-15.051,1.314-17.855c-0.188-3.148,1.032-9.234,7.738-7.427c4.644,1.252,5.084,4.503,4.386,9.3
					c-0.673,4.621-1.884,15.98-3.864,20.819c-1.025-0.034-2.556-0.274-4.705-1.073C286.899,228.59,285.53,226.95,284.911,225.898z"
					/>
				<path fill="#CE8451" d="M286.62,236.555c-4.193-1.562-4.133-4.615-2.261-8.977c0.204-0.474,0.386-1.045,0.551-1.68
					c0.619,1.052,1.989,2.691,4.87,3.764c2.148,0.799,3.68,1.039,4.705,1.073c-0.074,0.185-0.15,0.361-0.225,0.526
					C292.143,235.749,290.815,238.115,286.62,236.555"/>
				<path fill="none" stroke="#6B4529" stroke-miterlimit="10" d="M286.62,236.555c-4.193-1.562-4.133-4.615-2.261-8.977
					c0.204-0.474,0.386-1.045,0.551-1.68c0.619,1.052,1.989,2.691,4.87,3.764c2.148,0.799,3.68,1.039,4.705,1.073
					c-0.074,0.185-0.15,0.361-0.225,0.526C292.143,235.749,290.815,238.115,286.62,236.555z"/>
				<path fill="#F9A86C" d="M302.473,238.994c2.016-3.748,3.789-11.579,4.125-13.865c0.378-2.569,2.43-7.069,7.728-3.648
					c3.666,2.37,3.484,5.096,2.088,8.72c-1.346,3.491-4.284,12.203-6.758,15.482c-0.85-0.33-2.091-0.979-3.752-2.247
					C303.68,241.729,302.811,240.016,302.473,238.994"/>
				<path fill="none" stroke="#6B4529" stroke-linecap="round" stroke-linejoin="round" stroke-miterlimit="10" d="M302.473,238.994
					c2.016-3.748,3.789-11.579,4.125-13.865c0.378-2.569,2.43-7.069,7.728-3.648c3.666,2.37,3.484,5.096,2.088,8.72
					c-1.346,3.491-4.284,12.203-6.758,15.482c-0.85-0.33-2.091-0.979-3.752-2.247C303.68,241.729,302.811,240.016,302.473,238.994z"
					/>
				<path fill="#CE8451" d="M302.097,248.005c-3.241-2.482-2.673-4.905-0.369-7.833c0.252-0.319,0.5-0.718,0.745-1.176
					c0.339,1.02,1.207,2.732,3.432,4.44c1.661,1.269,2.9,1.914,3.752,2.247c-0.094,0.121-0.188,0.241-0.28,0.351
					C306.848,248.991,305.338,250.486,302.097,248.005"/>
				<path fill="none" stroke="#6B4529" stroke-miterlimit="10" d="M302.097,248.005c-3.241-2.482-2.673-4.905-0.369-7.833
					c0.252-0.319,0.5-0.718,0.745-1.176c0.339,1.02,1.207,2.732,3.432,4.44c1.661,1.269,2.9,1.914,3.752,2.247
					c-0.094,0.121-0.188,0.241-0.28,0.351C306.848,248.991,305.338,250.486,302.097,248.005z"/>
				<path fill="#F9A86C" d="M293.266,233.24c2.059-4.856,4.248-17.188,4.474-19.986c0.255-3.14,2.305-8.903,8.666-5.784
					c4.404,2.157,4.385,5.449,3.028,10.042c-1.308,4.424-4.774,18.025-7.401,22.4c-1.006-0.234-2.483-0.779-4.489-1.993
					C294.852,236.288,293.729,234.399,293.266,233.24"/>
				<path fill="none" stroke="#6B4529" stroke-linecap="round" stroke-linejoin="round" stroke-miterlimit="10" d="M293.266,233.24
					c2.059-4.856,4.248-17.188,4.474-19.986c0.255-3.14,2.305-8.903,8.666-5.784c4.404,2.157,4.385,5.449,3.028,10.042
					c-1.308,4.424-4.774,18.025-7.401,22.4c-1.006-0.234-2.483-0.779-4.489-1.993C294.852,236.288,293.729,234.399,293.266,233.24z"
					/>
				<path fill="#CE8451" d="M293.467,244.084c-3.919-2.373-3.433-5.372-0.978-9.3c0.267-0.427,0.525-0.951,0.777-1.544
					c0.462,1.159,1.586,3.048,4.277,4.677c2.006,1.216,3.483,1.761,4.489,1.995c-0.098,0.168-0.197,0.328-0.299,0.475
					C299.022,244.392,297.385,246.459,293.467,244.084"/>
				<path fill="none" stroke="#6B4529" stroke-miterlimit="10" d="M293.467,244.084c-3.919-2.373-3.433-5.372-0.978-9.3
					c0.267-0.427,0.525-0.951,0.777-1.544c0.462,1.159,1.586,3.048,4.277,4.677c2.006,1.216,3.483,1.761,4.489,1.995
					c-0.098,0.168-0.197,0.328-0.299,0.475C299.022,244.392,297.385,246.459,293.467,244.084z"/>
				<path fill="#CE8451" d="M280.018,251.582c0,0,2.713-1.887,2.808-4.026c0.095-2.138,3.006,1.664,5.481,0.351
					c2.475-1.315,4.836-5.265,4.836-5.265s-12.058-5-16.339-0.555c-4.279,4.446-4.721,6.137-4.721,6.137l6.536,2.838
					L280.018,251.582z"/>
				<path fill="#F9A86C" d="M277.266,268.914c0,0-9.194-1.444-12.011-10.404c-2.817-8.965-3.672-16.978-1.404-20.752
					c2.273-3.772,13.045-7.68,16.327-7.557c3.28,0.119,6.397,3.7,8.527,4.711c2.129,1.01,7.852,0.941,8.996,2.906
					c1.144,1.964-2.508,9.623-7.52,9.076c-5.011-0.546-6.177-3.839-10.212-2.48c-0.913,0.308-1.723,0.646-2.427,0.986
					c-2.405,1.165-3.594,2.346-3.594,2.346s2.59-3.069,4.492-0.384c1.9,2.687,3.969,6.754,3.827,11.537"/>
				<path fill="none" stroke="#6B4529" stroke-linecap="round" stroke-linejoin="round" stroke-miterlimit="10" d="M277.266,268.914
					c0,0-9.194-1.444-12.011-10.404c-2.817-8.965-3.672-16.978-1.404-20.752c2.273-3.772,13.045-7.68,16.327-7.557
					c3.28,0.119,6.397,3.7,8.527,4.711c2.129,1.01,7.852,0.941,8.996,2.906c1.144,1.964-2.508,9.623-7.52,9.076
					c-5.011-0.546-6.177-3.839-10.212-2.48c-0.913,0.308-1.723,0.646-2.427,0.986c-2.405,1.165-3.594,2.346-3.594,2.346
					s2.59-3.069,4.492-0.384c1.9,2.687,3.969,6.754,3.827,11.537"/>
				<path fill="#E8AE85" d="M291.218,237.953c-0.785,0.973-1.189,1.965-1.094,2.982c0,0,3.945,2.163,6.112-1.115"/>
				<path fill="none" stroke="#7C5337" stroke-linecap="round" stroke-linejoin="round" stroke-miterlimit="10" d="M291.218,237.953
					c-0.785,0.973-1.189,1.965-1.094,2.982c0,0,3.945,2.163,6.112-1.115"/>
				<path fill="#F9A86C" d="M270.335,224.34c0,0,3.743-20.121,5.095-26.049c1.354-5.935,13.208-31.896,15.582-35.839
					c2.375-3.942,4.018,9.347,0.914,18.304c-3.103,8.957-7.003,22.443-7.003,22.443s-0.48,8.24-1.564,15.842"/>
				<path fill="none" stroke="#6B4529" stroke-linecap="round" stroke-linejoin="round" stroke-miterlimit="10" d="M270.335,224.34
					c0,0,3.743-20.121,5.095-26.049c1.354-5.935,13.208-31.896,15.582-35.839c2.375-3.942,4.018,9.347,0.914,18.304
					c-3.103,8.957-7.003,22.443-7.003,22.443s-0.48,8.24-1.564,15.842"/>
				<path fill="#CE8451" d="M291.926,180.756c-3.104,8.957-7.003,22.443-7.003,22.443s-0.48,8.24-1.564,15.842l-1.549,0.632
					c0,0-0.536-11.947,0.743-17.29c1.28-5.34,6.038-17.833,7.331-22.604c1.295-4.77,1.697-9.884,1.697-9.884l1.282-3.966
					C294.509,168.086,293.581,175.98,291.926,180.756"/>
				<path fill="#CE8451" d="M294.856,270.621c-9.605,8.289-27.331,70.918-37.393,80.576c8.881-16.338,20.861-54.423,22.768-56.135
					c2.207-1.978,2.119-2.708,3.564-9.624c1.444-6.917,4.684-14.712,6.787-20.136c1.835-4.729,5.451-6.682,16.858-16.373
					C304.037,257.944,298.744,267.265,294.856,270.621"/>
				<path fill="#FFFFFF" d="M265.552,264.936c-3.978,1.569-5.724,11.429-5.724,11.429s7.98,16.853,22.443,18.279
					c3.59-1.528,6.049-13.81,6.049-13.81C284.424,281.053,269.158,276.904,265.552,264.936"/>
				
					<path fill="none" stroke="#7888A1" stroke-width="0.691" stroke-linecap="round" stroke-linejoin="round" stroke-miterlimit="10" d="
					M265.552,264.936c-3.978,1.569-5.724,11.429-5.724,11.429s7.98,16.853,22.443,18.279c3.59-1.528,6.049-13.81,6.049-13.81
					C284.424,281.053,269.158,276.904,265.552,264.936z"/>
				<path fill="#EEF3FA" d="M262.76,279.91c-1.86-2.066-2.932-3.545-2.932-3.545s1.71-9.762,5.661-11.4l0.101,0.084
					c0.528,1.709,1.298,3.212,2.234,4.539C264.163,272.699,262.408,275.115,262.76,279.91"/>
				<path fill="#C8D7ED" d="M288.292,281.065c0,0-2.434,12.083-6.02,13.58c-1.1-0.108-2.16-0.341-3.189-0.653
					c2.06-1.522,2.168-2.497,4.257-8.754c0.51-1.531,1.203-2.854,1.692-4.485C286.413,281.012,287.554,281.106,288.292,281.065"/>
				<path fill="#FFFFFF" d="M187.133,219.328c1.231-0.484,1.996-1.365,2.38-2.371c0.316-0.199,0.609-0.437,0.867-0.701
					c7.079,10.579,13.487,24.294,18.138,35.549c3.113,7.535,20.486,48.195,24.09,58.541c5.288-10.346,28.607-46.758,28.607-46.758
					c0,11.212,26.557,24.186,26.557,24.186s-17.757,51.705-34.384,70.953c-12.588,14.569-23.183,12.416-35.438,4.969
					c-9.214-5.599-51.143-68.699-54.209-84.275c-1.205-6.12-1.527-20.545-0.726-35.408
					C167.848,233.211,175.129,224.03,187.133,219.328"/>
				<path fill="none" stroke="#A8A8A8" stroke-linecap="round" stroke-linejoin="round" stroke-miterlimit="10" d="M187.133,219.328
					c1.231-0.484,1.996-1.365,2.38-2.371c0.316-0.199,0.609-0.437,0.867-0.701c7.079,10.579,13.487,24.294,18.138,35.549
					c3.113,7.535,20.486,48.195,24.09,58.541c5.288-10.346,28.607-46.758,28.607-46.758c0,11.212,26.557,24.186,26.557,24.186
					s-17.757,51.705-34.384,70.953c-12.588,14.569-23.183,12.416-35.438,4.969c-9.214-5.599-51.143-68.699-54.209-84.275
					c-1.205-6.12-1.527-20.545-0.726-35.408C167.848,233.211,175.129,224.03,187.133,219.328z"/>
				<path fill="#D8D8D8" d="M189.521,216.93c0.127-0.082,0.26-0.151,0.379-0.244c7.268,10.673,13.862,24.75,18.616,36.258
					c3.114,7.535,20.486,48.197,24.091,58.543c5.287-10.346,28.607-46.761,28.607-46.761c0,1.547,0.519,3.124,1.387,4.697
					c-0.172,0.611-0.287,1.279-0.333,2.017c-0.374,6.061-10.317,16.475-16.445,27.289S235.73,311.6,233.207,317.96
					c-2.522,6.363-3.964,7.802-3.243,11.049c0,0-2.174-7.939-0.547-11.359s-1.616-8.106-7.383-19.641
					c-5.768-11.535-20.905-56.086-26.313-63.006c-3.349-4.286-5.361-10.418-8.141-15.904
					C188.555,218.586,189.19,217.813,189.521,216.93"/>
				<g>
					<g opacity="0.4">
						<g>
							<defs>
								<rect id="SVGID_3_" x="162.835" y="270.766" width="124.937" height="98.016"/>
							</defs>
							<clipPath id="SVGID_4_">
								<use xlink:href="#SVGID_3_"  overflow="visible"/>
							</clipPath>
							<path clip-path="url(#SVGID_4_)" fill="#545554" d="M253.388,358.007c-12.588,14.573-23.183,12.414-35.438,4.968
								c-9.214-5.602-51.143-67.977-54.209-83.557c-0.402-2.049-0.709-5.035-0.905-8.652c3.012,2.799,5.511,5.08,7.025,6.371
								c7.296,6.221,27.305,46.766,36.676,60.462c9.372,13.695,14.778,19.129,24.511,24.895c9.731,5.767,14.764-0.361,22.695-9.012
								c7.931-8.65,27.559-63.513,30.032-65.707c0.564-0.501,0.99-0.93,1.337-1.385c1.634,0.882,2.66,1.384,2.66,1.384
								S270.014,338.759,253.388,358.007"/>
						</g>
					</g>
					<path fill="#FFFFFF" d="M88.147,183.664l52.27,58.526c0,0,8.09,143.302,5.903,159.339
						c-14.828,9.125-71.092,10.003-71.092,10.003L61.34,216.172L88.147,183.664z"/>
					<path fill="none" stroke="#A8A8A8" stroke-miterlimit="10" d="M88.147,183.664l52.27,58.526c0,0,8.09,143.302,5.903,159.339
						c-14.828,9.125-71.092,10.003-71.092,10.003L61.34,216.172L88.147,183.664z"/>
					<path fill="#FFFFFF" d="M147.46,196.211l-7.043,45.979c0,0,8.09,143.302,5.903,159.339c23.953,0,35.36-15.971,35.36-15.971
						s11.976-163.113,3.421-169.387C176.548,209.899,147.46,196.211,147.46,196.211"/>
					<path fill="none" stroke="#A8A8A8" stroke-miterlimit="10" d="M147.46,196.211l-7.043,45.979c0,0,8.09,143.302,5.903,159.339
						c23.953,0,35.36-15.971,35.36-15.971s11.976-163.113,3.421-169.387C176.548,209.899,147.46,196.211,147.46,196.211z"/>
					<path fill="#FFFFFF" d="M81.684,185.563c-1.366,5.611-43.915,32.703-53.573,42.663c-1.753,9.636,9.609,50.571,12.137,68.51
						c0.791,5.628,13.932,57.835,17.673,88.823c5.322,44.105-14.449,57.792-18.25,82.889c-3.223,21.264,60.834,15.209,60.834,15.209
						c9.126-53.992,33.459-55.512,32.22-67.407c2.987-9.907-10.102-89.469-13.949-115.925
						C114.926,273.866,91.167,201.961,81.684,185.563"/>
					<path fill="none" stroke="#A8A8A8" stroke-linecap="round" stroke-linejoin="round" stroke-miterlimit="10" d="M81.684,185.563
						c-1.366,5.611-43.915,32.703-53.573,42.663c-1.753,9.636,9.609,50.571,12.137,68.51c0.791,5.628,13.932,57.835,17.673,88.823
						c5.322,44.105-14.449,57.792-18.25,82.889c-3.223,21.264,60.834,15.209,60.834,15.209c9.126-53.992,33.459-55.512,32.22-67.407
						c2.987-9.907-10.102-89.469-13.949-115.925C114.926,273.866,91.167,201.961,81.684,185.563z"/>
					<g>
						<g opacity="0.4">
							<g>
								<defs>
									<rect id="SVGID_5_" x="67.548" y="182.142" width="65.178" height="216.701"/>
								</defs>
								<clipPath id="SVGID_6_">
									<use xlink:href="#SVGID_5_"  overflow="visible"/>
								</clipPath>
								<path clip-path="url(#SVGID_6_)" fill="#D8D8D8" d="M83.964,182.142c-1.366,5.609-6.272,6.466-15.93,16.427
									c-1.753,9.637,1.622,28.898,4.148,46.838c0.794,5.63,18.542,9.701,18.542,9.701L74.106,270.9
									c19.242,28.381,52.892,94.347,56.693,127.044c0.299,2.566,1.98-0.944,1.924-3.366c-0.24-10.348-15.804-92.891-19.653-119.35
									C109.221,248.773,93.448,198.538,83.964,182.142"/>
							</g>
						</g>
						<path fill="#FFFFFF" d="M87.387,175.299c-1.367,5.609-6.274,6.466-15.931,16.426c-1.752,9.637,2.764,34.602,5.291,52.541
							c0.791,5.629,18.539,9.699,18.539,9.699L78.669,269.76c19.242,28.381,48.416,92.549,52.218,125.246
							c0.297,2.565,0.596-1.43,0.696-4.989c0.296-10.348-10.102-89.47-13.949-115.929
							C113.785,247.631,96.869,191.695,87.387,175.299"/>
						<path fill="none" stroke="#A8A8A8" stroke-linecap="round" stroke-linejoin="round" stroke-miterlimit="10" d="
							M87.387,175.299c-1.367,5.609-6.274,6.466-15.931,16.426c-1.752,9.637,2.764,34.602,5.291,52.541
							c0.791,5.629,18.539,9.699,18.539,9.699L78.669,269.76c19.242,28.381,48.416,92.549,52.218,125.246
							c0.297,2.565,0.596-1.43,0.696-4.989c0.296-10.348-10.102-89.47-13.949-115.929
							C113.785,247.631,96.869,191.695,87.387,175.299z"/>
						<g>
							<g opacity="0.4">
								<g>
									<defs>
										<rect id="SVGID_7_" x="150.883" y="201.344" width="53.693" height="212.852"/>
									</defs>
									<clipPath id="SVGID_8_">
										<use xlink:href="#SVGID_7_"  overflow="visible"/>
									</clipPath>
									<path clip-path="url(#SVGID_8_)" fill="#545554" d="M182.25,216.172c6.773,1.506,7.415,5.704,6.845,10.839
										c-0.57,5.131-2.282,39.353,2.281,62.165c4.563,22.81-2.852,66.727,2.28,84.408c5.134,17.679,10.919,39.815,10.919,39.815
										s-10.438,1.49-15.369,0.394c-6.827-1.517-5.999-11.537-14.521-19.726c-9.938-9.548-12.241-44.398-15.093-69.493
										c-2.852-25.094-8.71-123.23-8.71-123.23S171.985,213.893,182.25,216.172"/>
								</g>
							</g>
							<path fill="#FFFFFF" d="M185.673,213.893c6.773,1.503,7.414,5.702,6.843,10.837c-0.57,5.134-2.281,39.351,2.281,62.163
								c4.563,22.814-2.851,66.728,2.283,84.409c5.131,17.68,7.758,42.243,7.758,42.243s-7.279-0.938-12.211-2.034
								c-6.827-1.515-5.998-11.538-14.521-19.724c-9.936-9.549-10.115-42.73-12.966-67.822
								c-2.851-25.095-10.836-124.901-10.836-124.901S175.406,211.609,185.673,213.893"/>
							<path fill="none" stroke="#A8A8A8" stroke-linecap="round" stroke-linejoin="round" stroke-miterlimit="10" d="
								M185.673,213.893c6.773,1.503,7.414,5.702,6.843,10.837c-0.57,5.134-2.281,39.351,2.281,62.163
								c4.563,22.814-2.851,66.728,2.283,84.409c5.131,17.68,7.758,42.243,7.758,42.243s-7.279-0.938-12.211-2.034
								c-6.827-1.515-5.998-11.538-14.521-19.724c-9.936-9.549-10.115-42.73-12.966-67.822
								c-2.851-25.095-10.836-124.901-10.836-124.901S175.406,211.609,185.673,213.893z"/>
							<g>
								<g opacity="0.4">
									<g>
										<defs>
											<rect id="SVGID_9_" x="39.972" y="241.464" width="26.726" height="235.788"/>
										</defs>
										<clipPath id="SVGID_10_">
											<use xlink:href="#SVGID_9_"  overflow="visible"/>
										</clipPath>
										<path clip-path="url(#SVGID_10_)" fill="#D8D8D8" d="M40.341,464.878c4.999-22.918,22.643-37.353,17.578-79.319
											c-1.715-14.209-5.406-32.883-8.979-49.478c2.435-35.556,4.4-63.976,4.4-63.976c-0.078-12.12,3.908-24.982-0.467-30.642
											l0.908,0.339c0,0,11.726,19.275,11.726,45.891c-0.204,12.996-1.729,84.029,0.933,112.546
											c2.66,28.517-15.997,80.729-22.813,76.803c-0.405-0.232-0.764-0.385-1.088-0.547c-0.704-0.662-1.294-1.374-1.761-2.145
											c-0.273-0.733-0.536-1.74-0.804-3.18C40.06,469.563,40.186,467.432,40.341,464.878"/>
									</g>
								</g>
								<path fill="#FFFFFF" d="M149.741,190.509c0,0,26.807,34.221,25.096,39.354l-13.118,11.404l20.685,10.606
									c0.71,0.322,1.38,1.589,0.794,2.907c-4.407,9.934-18.18,56.807-10.643,113.098c0,0-10.836-30.798-13.687-69.009
									C156.016,260.657,155.444,202.485,149.741,190.509"/>
								<path fill="none" stroke="#A8A8A8" stroke-linecap="round" stroke-linejoin="round" stroke-miterlimit="10" d="
									M149.741,190.509c0,0,26.807,34.221,25.096,39.354l-13.118,11.404l20.685,10.606c0.71,0.322,1.38,1.589,0.794,2.907
									c-4.407,9.934-18.18,56.807-10.643,113.098c0,0-10.836-30.798-13.687-69.009
									C156.016,260.657,155.444,202.485,149.741,190.509z"/>
								<g>
									<g opacity="0.4">
										<g>
											<defs>
												<rect id="SVGID_11_" x="92.121" y="279.719" width="91.086" height="89.752"/>
											</defs>
											<defs>
												<rect id="SVGID_12_" x="92.121" y="279.719" width="91.086" height="89.752"/>
											</defs>
											<defs>
												<rect id="SVGID_13_" x="92.121" y="279.719" width="91.086" height="89.752"/>
											</defs>
											<defs>
												<rect id="SVGID_14_" x="92.121" y="279.719" width="91.086" height="89.752"/>
											</defs>
											<defs>
												<rect id="SVGID_15_" x="92.121" y="279.719" width="91.086" height="89.752"/>
											</defs>
											<defs>
												<rect id="SVGID_16_" x="92.121" y="279.719" width="91.086" height="89.752"/>
											</defs>
											<clipPath id="SVGID_17_">
												<use xlink:href="#SVGID_11_"  overflow="visible"/>
											</clipPath>
											<clipPath id="SVGID_18_" clip-path="url(#SVGID_17_)">
												<use xlink:href="#SVGID_12_"  overflow="visible"/>
											</clipPath>
											<clipPath id="SVGID_19_" clip-path="url(#SVGID_18_)">
												<use xlink:href="#SVGID_13_"  overflow="visible"/>
											</clipPath>
											<clipPath id="SVGID_20_" clip-path="url(#SVGID_19_)">
												<use xlink:href="#SVGID_14_"  overflow="visible"/>
											</clipPath>
											<clipPath id="SVGID_21_" clip-path="url(#SVGID_20_)">
												<use xlink:href="#SVGID_15_"  overflow="visible"/>
											</clipPath>
											<clipPath id="SVGID_22_" clip-path="url(#SVGID_21_)">
												<use xlink:href="#SVGID_16_"  overflow="visible"/>
											</clipPath>
											<path clip-path="url(#SVGID_22_)" fill="#545554" d="M94.404,352.71c0,0,6.843,1.522,12.546,1.903
												c5.704,0.378,13.18-3.38,22.685-2.999c9.504,0.379,9.634-6.89,13.817-19.435c4.183-12.551,1.329-23.763-7.414-24.523
												c-8.745-0.761-16.159-0.952-26.807,8.553c-10.646,9.506-17.108,8.746-17.108,8.746L94.404,352.71z"/>
											<path clip-path="url(#SVGID_22_)" fill="#545554" d="M129.383,307.847c7.262-0.097,29.871-2.043,32.538,1.084
												c2.669,3.129,15.023,10.893,20.742,16.685c3.044,3.084-7.482,4.718-11.905,2.943c-4.42-1.772-11.601-7.43-15.511-8.114
												c-3.911-0.685-15.328-0.097-15.328-0.097"/>
											<path clip-path="url(#SVGID_22_)" fill="#545554" d="M138.988,318.993c9.042,1.808,21.39,4.724,22.911,7.271
												c2.11,3.528,12.997,13.243,17.671,19.904c2.49,3.55-8.161,3.406-12.227,0.92c-4.064-2.486-10.202-9.256-13.944-10.584
												c-2.587-0.916-8.814-1.832-12.409-2.309"/>
											<path clip-path="url(#SVGID_22_)" fill="#545554" d="M136.877,326.765c8.136,2.307,17.739,5.526,18.927,7.884
												c1.75,3.476,11.609,15.521,15.56,22.125c2.105,3.516-7.93,2.65-11.594,0.027c-3.663-2.618-9.243-11.567-12.68-13.076
												c-1.72-0.752-8.55-2.359-11.633-3.052"/>
											<path clip-path="url(#SVGID_22_)" fill="#545554" d="M135.01,340.538c6.769,2.189,14.109,4.999,15.032,6.968
												c1.462,3.119,9.888,14.032,13.221,19.975c1.775,3.17-7.087,2.15-10.266-0.259c-3.179-2.413-7.893-10.479-10.898-11.898
												c-3.007-1.421-12.355-3.474-12.355-3.474"/>
											<path clip-path="url(#SVGID_22_)" fill="#545554" d="M104.95,319.909c6.077-3.59,3.522-17.388,9.224-21.189
												c5.705-3.802,10.267-2.28,20.533-15.97c7.741-10.325,10.265,8.364,1.901,16.731c-4.105,4.102-9.126,8.364-9.126,8.364"/>
										</g>
									</g>
									<path fill="#FFFFFF" d="M27.899,228.575c0,0-18.266,125.899-17.613,138.292c0.653,12.395,28.703,9.465,28.703,9.465
										s15.004,3.586,17.611-6.852c2.61-10.438,6.526-100.463,6.526-100.463C63,249.53,48.079,236.099,48.079,236.099"/>
									<path fill="none" stroke="#A8A8A8" stroke-miterlimit="10" d="M27.899,228.575c0,0-18.266,125.899-17.613,138.292
										c0.653,12.395,28.703,9.465,28.703,9.465s15.004,3.586,17.611-6.852c2.61-10.438,6.526-100.463,6.526-100.463
										C63,249.53,48.079,236.099,48.079,236.099"/>
									<g>
										<g opacity="0.4">
											<g>
												<defs>
													<rect id="SVGID_23_" x="52.183" y="319.543" width="54.299" height="63.42"/>
												</defs>
												<clipPath id="SVGID_24_">
													<use xlink:href="#SVGID_23_"  overflow="visible"/>
												</clipPath>
												<path clip-path="url(#SVGID_24_)" fill="#D8D8D8" d="M98.698,369.8c7.528-7.82,8.318-15.829,7.547-23.538
													c-0.771-7.711-4.493-27.973-10.118-26.659c-3.792-0.222-31.236,3.166-40.669,3.722
													c-1.127,0.065-2.213,0.185-3.275,0.336c3.23,17.038,5.36,32.32,5.121,41.182c-0.126,4.631-0.293,9.196-0.485,18.121
													C63.358,382.963,97.621,370.919,98.698,369.8"/>
											</g>
										</g>
										<path fill="#A8A8A8" d="M102.81,341.712c-0.773-7.713-3.107-24.562-8.729-23.247
											c-10.195,3.756-11.349,18.905-11.039,29.014c0.473,15.499,4.714,16.652,10.799,18.049
											c1.331,0.306,3.158-1.363,4.238-2.483C105.605,355.226,103.58,349.423,102.81,341.712"/>
										<path fill="none" stroke="#A8A8A8" stroke-linecap="round" stroke-linejoin="round" stroke-miterlimit="10" d="
											M102.81,341.712c-0.773-7.713-3.107-24.562-8.729-23.247c-10.195,3.756-11.349,18.905-11.039,29.014
											c0.473,15.499,4.714,16.652,10.799,18.049c1.331,0.306,3.158-1.363,4.238-2.483
											C105.605,355.226,103.58,349.423,102.81,341.712z"/>
										<path fill="#F9A86C" d="M95.544,350.431c0,0,6.844,1.52,12.547,1.9c5.704,0.379,13.179-3.378,22.684-2.997
											c9.505,0.379,9.635-6.889,13.817-19.439c4.182-12.545,1.33-23.76-7.415-24.522c-8.744-0.761-16.16-0.95-26.805,8.555
											c-10.646,9.507-17.111,8.747-17.111,8.747L95.544,350.431z"/>
										<path fill="none" stroke="#6B4529" stroke-linecap="round" stroke-linejoin="round" stroke-miterlimit="10" d="
											M95.544,350.431c0,0,6.844,1.52,12.547,1.9c5.704,0.379,13.179-3.378,22.684-2.997c9.505,0.379,9.635-6.889,13.817-19.439
											c4.182-12.545,1.33-23.76-7.415-24.522c-8.744-0.761-16.16-0.95-26.805,8.555c-10.646,9.507-17.111,8.747-17.111,8.747
											L95.544,350.431z"/>
										<path fill="#F9A86C" d="M130.524,305.565c7.263-0.096,29.87-2.043,32.537,1.085c2.669,3.13,15.023,10.894,20.741,16.685
											c3.047,3.086-7.481,4.719-11.904,2.943c-4.422-1.773-11.601-7.429-15.511-8.116c-3.912-0.681-15.328-0.093-15.328-0.093"
											/>
										<path fill="none" stroke="#6B4529" stroke-linecap="round" stroke-linejoin="round" stroke-miterlimit="10" d="
											M130.524,305.565c7.263-0.096,29.87-2.043,32.537,1.085c2.669,3.13,15.023,10.894,20.741,16.685
											c3.047,3.086-7.481,4.719-11.904,2.943c-4.422-1.773-11.601-7.429-15.511-8.116c-3.912-0.681-15.328-0.093-15.328-0.093"
											/>
										<path fill="#F9A86C" d="M140.127,316.713c9.044,1.809,21.392,4.725,22.911,7.269c2.112,3.531,12.999,13.243,17.673,19.904
											c2.491,3.552-8.162,3.405-12.228,0.922c-4.063-2.485-10.2-9.258-13.942-10.584c-2.588-0.918-8.815-1.834-12.41-2.311"/>
										<path fill="none" stroke="#6B4529" stroke-linecap="round" stroke-linejoin="round" stroke-miterlimit="10" d="
											M140.127,316.713c9.044,1.809,21.392,4.725,22.911,7.269c2.112,3.531,12.999,13.243,17.673,19.904
											c2.491,3.552-8.162,3.405-12.228,0.922c-4.063-2.485-10.2-9.258-13.942-10.584c-2.588-0.918-8.815-1.834-12.41-2.311"/>
										<path fill="#F9A86C" d="M138.018,324.483c8.137,2.306,17.739,5.526,18.927,7.884c1.749,3.473,11.608,15.522,15.56,22.123
											c2.104,3.517-7.93,2.652-11.594,0.031c-3.663-2.621-9.242-11.568-12.681-13.077c-1.718-0.754-8.548-2.358-11.632-3.052"/>
										<path fill="none" stroke="#6B4529" stroke-linecap="round" stroke-linejoin="round" stroke-miterlimit="10" d="
											M138.018,324.483c8.137,2.306,17.739,5.526,18.927,7.884c1.749,3.473,11.608,15.522,15.56,22.123
											c2.104,3.517-7.93,2.652-11.594,0.031c-3.663-2.621-9.242-11.568-12.681-13.077c-1.718-0.754-8.548-2.358-11.632-3.052"/>
										<path fill="#F9A86C" d="M136.149,338.257c6.769,2.189,14.11,4.999,15.033,6.968c1.462,3.12,9.888,14.032,13.221,19.975
											c1.775,3.168-7.087,2.149-10.266-0.26c-3.179-2.414-7.893-10.48-10.898-11.898c-3.008-1.42-12.355-3.476-12.355-3.476"/>
										<path fill="none" stroke="#6B4529" stroke-linecap="round" stroke-linejoin="round" stroke-miterlimit="10" d="
											M136.149,338.257c6.769,2.189,14.11,4.999,15.033,6.968c1.462,3.12,9.888,14.032,13.221,19.975
											c1.775,3.168-7.087,2.149-10.266-0.26c-3.179-2.414-7.893-10.48-10.898-11.898c-3.008-1.42-12.355-3.476-12.355-3.476"/>
										<path fill="#F9A86C" d="M106.089,317.628c5.563-3.282,3.919-14.165,9.137-17.646c5.218-3.479,8.695-3.825,18.086-16.348
											c7.085-9.449,9.394,7.65,1.74,15.304c-3.753,3.755-6.067,7.653-6.067,7.653"/>
										
											<path fill="none" stroke="#6B4529" stroke-width="0.915" stroke-linecap="round" stroke-linejoin="round" stroke-miterlimit="10" d="
											M106.089,317.628c5.563-3.282,3.919-14.165,9.137-17.646c5.218-3.479,8.695-3.825,18.086-16.348
											c7.085-9.449,9.394,7.65,1.74,15.304c-3.753,3.755-6.067,7.653-6.067,7.653"/>
										<path fill="#FFFFFF" d="M57.916,324.088c0,0,29.7-3.039,33.555-1.881c3.855,1.154,7.354-0.803,7.354-0.803
											s-4.653,5.935-2.593,17.64c1.397,7.942,3.965,12.305,8.594,13.075c4.625,0.774-0.507,2.33-4.362,4.26
											c-3.856,1.926-44.283,10.73-55.656,8.803C33.432,363.253,57.916,324.088,57.916,324.088"/>
										<path fill="none" stroke="#A8A8A8" stroke-miterlimit="10" d="M57.916,324.088c0,0,29.7-3.039,33.555-1.881
											c3.855,1.154,7.354-0.803,7.354-0.803s-4.653,5.935-2.593,17.64c1.397,7.942,3.965,12.305,8.594,13.075
											c4.625,0.774-0.507,2.33-4.362,4.26c-3.856,1.926-44.283,10.73-55.656,8.803
											C33.432,363.253,57.916,324.088,57.916,324.088z"/>
										<path fill="#FFFFFF" d="M13.549,372.737c0,0,4.566,7.176,11.741,9.134c7.063,1.926,56.517-7.054,68.551-16.344
											c-6.085-1.396-10.326-3.689-10.799-19.191c-0.31-10.107,0.846-24.115,11.039-27.871
											c-3.797-0.225-32.611,3.163-42.045,3.717c-22.179,1.305-31.965,19.57-31.965,19.57"/>
										<path fill="none" stroke="#A8A8A8" stroke-linecap="round" stroke-linejoin="round" stroke-miterlimit="10" d="
											M13.549,372.737c0,0,4.566,7.176,11.741,9.134c7.063,1.926,56.517-7.054,68.551-16.344
											c-6.085-1.396-10.326-3.689-10.799-19.191c-0.31-10.107,0.846-24.115,11.039-27.871
											c-3.797-0.225-32.611,3.163-42.045,3.717c-22.179,1.305-31.965,19.57-31.965,19.57"/>
										<path fill="#D8D8D8" d="M33.604,234.277l-5.704-5.702c0,0-18.266,125.899-17.613,138.292
											c0.197,3.759,2.922,6.735,6.615,9.061c-0.524-1.042-0.346-2.299-0.911-3.355
											C10.021,361.403,31.732,234.709,33.604,234.277"/>
										<path fill="#D8D8D8" d="M46.27,326.336c9.286-1.858,40.699-5.885,44.616-6.077c0.776-0.607,1.629-1.122,2.558-1.527
											l0.068-0.298c-3.816-0.196-32.496,3.221-41.476,3.748c-22.181,1.305-31.966,19.57-31.966,19.57
											c-0.368-0.437-2.021,2.055-2.505,5.921c-0.237,1.901,2.054-2.294,2.054-2.294S33.619,328.865,46.27,326.336"/>
										<path fill="#F9A86C" d="M90.012,133.703c0,0,5.549,53.383,1.181,62.946c0.09,4.124,45.024,32.064,50.313,45.039
											c6.36-14.519,4.018-23.52,4.018-30.037l-0.76-46.388L90.012,133.703z"/>
										<path fill="none" stroke="#6B4529" stroke-miterlimit="10" d="M90.012,133.703c0,0,5.549,53.383,1.181,62.946
											c0.09,4.124,45.024,32.064,50.313,45.039c6.36-14.519,4.018-23.52,4.018-30.037l-0.76-46.388L90.012,133.703z"/>
										<path fill="#CE8451" d="M90.012,133.703c-0.725-6.121,54.752,31.561,54.752,31.561l0.167,10.215
											c-3.469,3.541-20.453,6.459-23.638,6.665c-9.011,0.581-11.116-4.68-17.557-13.688
											C95.372,156.754,90.012,133.703,90.012,133.703"/>
										<path fill="#C7C6C6" d="M119.665,213.893c11.827,9.619,21.902,30.035,21.902,30.035
											c-13.688-16.349-34.384-21.405-34.384-21.405S107.84,204.269,119.665,213.893"/>
										<path fill="none" stroke="#A8A8A8" stroke-linecap="round" stroke-linejoin="round" stroke-miterlimit="10" d="
											M119.665,213.893c11.827,9.619,21.902,30.035,21.902,30.035c-13.688-16.349-34.384-21.405-34.384-21.405
											S107.84,204.269,119.665,213.893z"/>
										<path fill="#F9A86C" d="M117.897,26.576c15.28-0.783,45.653,14.885,45.349,34.164c-0.307,19.28-3.284,39.978-3.284,39.978
											s6.066,11.184,5.761,17.61c-0.307,6.427-1.852,39.562-6.511,50.245c-3.005,6.888-36.439,12.049-41.621,8.874
											c-2.568-1.574-21.422-23.563-26.012-39.783c-4.591-16.221-16.218-63.348-9.18-79.567
											C89.438,41.877,94.027,27.798,117.897,26.576"/>
										<path fill="none" stroke="#6B4529" stroke-miterlimit="10" d="M117.897,26.576c15.28-0.783,45.653,14.885,45.349,34.164
											c-0.307,19.28-3.284,39.978-3.284,39.978s6.066,11.184,5.761,17.61c-0.307,6.427-1.852,39.562-6.511,50.245
											c-3.005,6.888-36.439,12.049-41.621,8.874c-2.568-1.574-21.422-23.563-26.012-39.783
											c-4.591-16.221-16.218-63.348-9.18-79.567C89.438,41.877,94.027,27.798,117.897,26.576z"/>
										<path fill="#FBBD92" d="M159.629,85.225c1.382-7.771-1.406-10.412-1.306-16.769c0.109-7.014,3.809-10.371-1.745-17.108
											c-9.056-10.992-29.384-23.457-39.969-24.683c0.428-0.029,0.848-0.067,1.288-0.089
											c15.28-0.783,45.653,14.885,45.349,34.164c-0.307,19.28-3.282,39.978-3.282,39.978S158.936,89.127,159.629,85.225"/>
										<path fill="#FBBD92" d="M156.578,166.462c4.659-10.682,5.416-41.707,5.723-48.134c0.306-6.43-2.337-17.61-2.337-17.61
											s6.064,11.181,5.759,17.61c-0.307,6.427-1.852,39.562-6.511,50.245c-1.158,2.657-6.842,5.059-13.686,6.818
											C136.537,177.705,154.167,171.992,156.578,166.462"/>
										<path fill="#CE8451" d="M121.013,177.447c0.555,0.342,1.454,0.58,2.592,0.734c-2.825,0.107-4.99-0.107-6.014-0.734
											c-2.568-1.574-21.421-23.563-26.012-39.783c-0.377-1.332-0.802-2.873-1.259-4.588
											C100.06,155.26,118.444,175.873,121.013,177.447"/>
										<g>
											<g opacity="0.4">
												<g>
													<defs>
														<rect id="SVGID_25_" x="90.343" y="42.058" width="46.524" height="42.917"/>
													</defs>
													<clipPath id="SVGID_26_">
														<use xlink:href="#SVGID_25_"  overflow="visible"/>
													</clipPath>
													<path clip-path="url(#SVGID_26_)" fill="#3F4242" d="M136.865,47.299c-7.8-4.199-18.176-7.002-30.223-3.967
														c-12.049,3.033-27.071,21.489-5.025,41.643c0,0,0.443-1.471-0.37-4.261c-0.81-2.793-11.947-29.319,8.438-31.919
														C130.067,46.194,136.865,47.299,136.865,47.299"/>
												</g>
											</g>
											<path fill="#564F4C" d="M122.918,77.738c1.278-2.811-9.01-3.486-11.334-3.195c-2.325,0.287-2.615,3.195-6.103,3.777
												c-3.489,0.582-4.069,2.906-3.198,3.778c0.874,0.872,6.685,0.291,10.464-2.325
												C116.525,77.156,121.466,80.937,122.918,77.738"/>
											<path fill="none" stroke="#47403D" stroke-miterlimit="10" d="M122.918,77.738c1.278-2.811-9.01-3.486-11.334-3.195
												c-2.325,0.287-2.615,3.195-6.103,3.777c-3.489,0.582-4.069,2.906-3.198,3.778c0.874,0.872,6.685,0.291,10.464-2.325
												C116.525,77.156,121.466,80.937,122.918,77.738z"/>
											<path fill="#CE8451" d="M152.197,126.998c0.021,1.842-0.402,6.995-7.121,7.836c-4.114,0.518-7.37-1.127-9.522-2.784"/>
											<path fill="#F9A86C" d="M136.436,95.644c0.591,4.252,3.114,13.112,9.093,18.887c5.98,5.772,10.667,10.931,5.789,14.891
												c-4.872,3.961-9.092,3.83-13.15,2.849c-2.909-0.701-3.604-1.327-3.604-1.327"/>
											<path fill="none" stroke="#6B4529" stroke-linecap="round" stroke-linejoin="round" stroke-miterlimit="10" d="
												M136.436,95.644c0.591,4.252,3.114,13.112,9.093,18.887c5.98,5.772,10.667,10.931,5.789,14.891
												c-4.872,3.961-9.092,3.83-13.15,2.849c-2.909-0.701-3.604-1.327-3.604-1.327"/>
											<path fill="#CE8451" d="M130.694,160.32c3.233-1.71,10.267-5.32,16.54-2.471"/>
											<path fill="#564F4C" d="M156.551,43.283c0,0,6.308,9.965,9.16,11.386c2.852,1.421,4.109,5.829,1.164,12.839
												c-3.604,8.578-6.913,33.21-6.913,33.21c-0.054-1.454-0.29-6.385,0.046-7.645c1.521-5.704,2.537-14.596,0.951-21.383
												c-1.702-7.295,3.042-7.51,0.76-16.35C159.743,47.678,153.225,44.803,156.551,43.283"/>
											<path fill="none" stroke="#47403D" stroke-linecap="round" stroke-linejoin="round" stroke-miterlimit="10" d="
												M156.551,43.283c0,0,6.308,9.965,9.16,11.386c2.852,1.421,4.109,5.829,1.164,12.839
												c-3.604,8.578-6.913,33.21-6.913,33.21c-0.054-1.454-0.29-6.385,0.046-7.645c1.521-5.704,2.537-14.596,0.951-21.383
												c-1.702-7.295,3.042-7.51,0.76-16.35C159.743,47.678,153.225,44.803,156.551,43.283z"/>
											<path fill="#564F4C" d="M64.753,65.195c-1.246,8.457,2.584,25.854,7.046,32.01c4.461,6.158,11.558,21.441,11.558,21.441
												s4.562,4.951,4.412-0.951c-0.571-22.172,2.196-29.798,3.922-37.796c1.58-7.321-7.151-10.782-4.725-19.581
												C89.07,52.691,65.573,59.643,64.753,65.195"/>
											<path fill="none" stroke="#47403D" stroke-miterlimit="10" d="M64.753,65.195c-1.246,8.457,2.584,25.854,7.046,32.01
												c4.461,6.158,11.558,21.441,11.558,21.441s4.562,4.951,4.412-0.951c-0.571-22.172,2.196-29.798,3.922-37.796
												c1.58-7.321-7.151-10.782-4.725-19.581C89.07,52.691,65.573,59.643,64.753,65.195z"/>
											<path fill="#564F4C" d="M91.055,47.89c1.59-2.094-11.081-9.987-14.885-10.04c-3.805-0.055-12.661,19.533-12.663,26.615
												C63.501,82.777,74.168,88.869,79.4,82.777C87.095,73.821,89.466,49.985,91.055,47.89"/>
											<path fill="none" stroke="#47403D" stroke-linecap="round" stroke-linejoin="round" stroke-miterlimit="10" d="
												M91.055,47.89c1.59-2.094-11.081-9.987-14.885-10.04c-3.805-0.055-12.661,19.533-12.663,26.615
												C63.501,82.777,74.168,88.869,79.4,82.777C87.095,73.821,89.466,49.985,91.055,47.89z"/>
											<path fill="#564F4C" d="M162.13,52.227c0,0,1.454-21.877-15.222-29.906c-16.679-8.028-30.865-10.276-51.532,0.979
												c-20.665,11.262-19.223,9.239-19.977,12.645c-0.754,3.403,12.027,9.392,17.438,7.417
												c5.409-1.974,20.849-6.891,37.164-1.103C146.317,48.043,156.814,57.131,162.13,52.227"/>
											
												<path fill="none" stroke="#47403D" stroke-width="1.034" stroke-linecap="round" stroke-linejoin="round" stroke-miterlimit="10" d="
												M162.13,52.227c0,0,1.454-21.877-15.222-29.906c-16.679-8.028-30.865-10.276-51.532,0.979
												c-20.665,11.262-19.223,9.239-19.977,12.645c-0.754,3.403,12.027,9.392,17.438,7.417
												c5.409-1.974,20.849-6.891,37.164-1.103C146.317,48.043,156.814,57.131,162.13,52.227z"/>
											<path fill="#736A67" d="M142.531,47.221c-3.589-1.771-7.62-3.64-12.128-5.242c-3.94-1.396-7.822-2.055-11.518-2.228
												c-0.028-0.036-0.054-0.069-0.08-0.104c-8.833-11.678-25.305-11.75-36.983-9.201c2.064-1.576,5.29-2.534,11.023-5.737
												C108.824,25.768,138.301,29.443,142.531,47.221"/>
											<path fill="#736A67" d="M148.215,49.521c0,0,4.248-15.659-12.404-23.011c-9.876-4.36-23.418-6.303-35.229-5.82
												c1.936-0.883,3.815-1.649,5.649-2.293c18.373-0.352,36.806,3.311,42.288,9.283c8.093,8.812,6.572,20.349,4.808,24.71
												c-1.559-0.608-3.263-1.417-5.126-2.336C148.212,49.719,148.215,49.521,148.215,49.521"/>
											<path fill="#564F4C" d="M148.215,49.521c0,0-0.002,0.198-0.014,0.533c-1.75-0.866-3.639-1.832-5.67-2.833
												c-4.231-17.777-33.707-21.453-49.686-22.512c1.189-0.667,1.13-0.644,2.53-1.408c1.782-0.97,3.515-1.832,5.206-2.611
												c11.811-0.483,25.352,1.46,35.229,5.82C152.463,33.861,148.215,49.521,148.215,49.521"/>
											<path fill="#736A67" d="M136.133,46.821c-7.802-4.198-17.639-8.797-29.686-5.763
												C94.4,44.091,79.376,62.549,101.42,82.703c0,0,0.445-1.469-0.367-4.263c-0.81-2.792-12.143-31.588,8.243-34.192
												C129.68,41.648,136.133,46.821,136.133,46.821"/>
											<path fill="none" stroke="#47403D" stroke-linecap="round" stroke-linejoin="round" stroke-miterlimit="10" d="
												M136.133,46.821c-7.802-4.198-17.639-8.797-29.686-5.763C94.4,44.091,79.376,62.549,101.42,82.703
												c0,0,0.445-1.469-0.367-4.263c-0.81-2.792-12.143-31.588,8.243-34.192C129.68,41.648,136.133,46.821,136.133,46.821z"/>
											<path fill="#564F4C" d="M139.638,47.665c0,0-16.149-11.497-35.447-9.562c-19.295,1.936-24.583,10.398-23.344,24.893
												c1.239,14.49,12.48,22.115,12.48,22.115s-9.768-27.214,1.697-37.065C106.486,38.195,129.802,43.068,139.638,47.665"/>
											<path fill="none" stroke="#47403D" stroke-linecap="round" stroke-linejoin="round" stroke-miterlimit="10" d="
												M139.638,47.665c0,0-16.149-11.497-35.447-9.562c-19.295,1.936-24.583,10.398-23.344,24.893
												c1.239,14.49,12.48,22.115,12.48,22.115s-9.768-27.214,1.697-37.065C106.486,38.195,129.802,43.068,139.638,47.665z"/>
											<path fill="#564F4C" d="M136.663,77.121c0,0,2.108-4.084,10.543-4.586c8.434-0.504,10.917,7.381,10.917,7.381
												s-1.367,0.762-3.822-0.094c-2.457-0.855-9.745-2.842-12.552-1.896C138.941,78.878,136.663,77.121,136.663,77.121"/>
											<path fill="none" stroke="#47403D" stroke-miterlimit="10" d="M136.663,77.121c0,0,2.108-4.084,10.543-4.586
												c8.434-0.504,10.917,7.381,10.917,7.381s-1.367,0.762-3.822-0.094c-2.457-0.855-9.745-2.842-12.552-1.896
												C138.941,78.878,136.663,77.121,136.663,77.121z"/>
											<path fill="#F9A86C" d="M155.255,143.17c-3.803,3.424-19.347,8.746-31.726,0.76"/>
											
												<path fill="none" stroke="#6B4529" stroke-width="0.898" stroke-linecap="round" stroke-linejoin="round" stroke-miterlimit="10" d="
												M155.255,143.17c-3.803,3.424-19.347,8.746-31.726,0.76"/>
											<path fill="#F9A86C" d="M88.2,108.833c0,0-8.266-9.86-13.419-4.87s1.729,25.437,8.065,30.739
												c6.336,5.302,8.083-2.052,8.083-2.052"/>
											<path fill="none" stroke="#6B4529" stroke-width="0.74" stroke-miterlimit="10" d="M88.2,108.833
												c0,0-8.266-9.86-13.419-4.87s1.729,25.437,8.065,30.739c6.336,5.302,8.083-2.052,8.083-2.052"/>
											<path fill="#F9A86C" d="M81.677,112.467c-4.245-0.9-2.183,7.877,1.163,9.499c3.345,1.623,2.468,6.18,2.322,8.116"/>
											<path fill="none" stroke="#6B4529" stroke-width="0.74" stroke-miterlimit="10" d="M81.677,112.467
												c-4.245-0.9-2.183,7.877,1.163,9.499c3.345,1.623,2.468,6.18,2.322,8.116"/>
											<path fill="#FFFFFF" d="M92.521,170.356c0,0-1.332,1.792,2.66,8.976c3.993,7.183,24.334,33.608,24.334,33.608
												s1.141,1.709-2.851,1.9c-3.994,0.19-11.407,10.458-16.16,14.829c-4.753,4.372-12.169,8.301-15.78,7.289
												c-3.612-1.015,5.133-7.096,4.753-16.223c-0.38-9.127-0.19-21.865-2.472-29.279
												C84.724,184.043,84.347,170.736,92.521,170.356"/>
											<path fill="none" stroke="#A8A8A8" stroke-linecap="round" stroke-linejoin="round" stroke-miterlimit="10" d="
												M92.521,170.356c0,0-1.332,1.792,2.66,8.976c3.993,7.183,24.334,33.608,24.334,33.608s1.141,1.709-2.851,1.9
												c-3.994,0.19-11.407,10.458-16.16,14.829c-4.753,4.372-12.169,8.301-15.78,7.289c-3.612-1.015,5.133-7.096,4.753-16.223
												c-0.38-9.127-0.19-21.865-2.472-29.279C84.724,184.043,84.347,170.736,92.521,170.356z"/>
											<path fill="#C7C6C6" d="M150.54,213.509c-2.092,5.135-0.798,12.93-3.078,18.063c-2.281,5.13-5.895,8.934-5.893,12.357
												c0,3.422-0.57-12.441,1.712-18.291c2.281-5.855,1.52-46.31,1.52-46.31s5.322,9.582,5.322,16.178
												C150.123,202.104,152.629,208.379,150.54,213.509"/>
											<path fill="none" stroke="#A8A8A8" stroke-linecap="round" stroke-linejoin="round" stroke-miterlimit="10" d="
												M150.54,213.509c-2.092,5.135-0.798,12.93-3.078,18.063c-2.281,5.13-5.895,8.934-5.893,12.357
												c0,3.422-0.57-12.441,1.712-18.291c2.281-5.855,1.52-46.31,1.52-46.31s5.322,9.582,5.322,16.178
												C150.123,202.104,152.629,208.379,150.54,213.509z"/>
											<path fill="#FFFFFF" d="M144.8,179.329c0,0,7.413,14.601,11.785,18.401c4.375,3.804,11.217,32.332,7.416,42.593
												c0,0-0.571-9.024-4.563-14.684c-3.994-5.666-9.316-13.459-9.885-17.26C148.983,204.574,149.362,191.348,144.8,179.329"/>
											<path fill="none" stroke="#A8A8A8" stroke-miterlimit="10" d="M144.8,179.329c0,0,7.413,14.601,11.785,18.401
												c4.375,3.804,11.217,32.332,7.416,42.593c0,0-0.571-9.024-4.563-14.684c-3.994-5.666-9.316-13.459-9.885-17.26
												C148.983,204.574,149.362,191.348,144.8,179.329z"/>
											<path fill="none" d="M125.962,103.168c0.621,2.516-13.579,5.486-22.643,2.678c0,0-0.23-7.409,7.461-7.995
												c1.369-0.105,2.712-0.167,3.997-0.167C120.725,97.684,125.47,98.973,125.962,103.168"/>
											<path fill="none" d="M159.815,100.088c-7.464,3.881-20.322,3.526-20.178,1.235c-0.284-4.546,5.601-6.332,12.405-7.034
												c0.349-0.037,0.682-0.053,1-0.053C158.943,94.236,159.815,100.088,159.815,100.088"/>
											<path fill="#629BBC" d="M39.668,468.447c0.186-1.218,0.418-2.402,0.674-3.569c-0.157,2.554-0.281,4.685-0.367,6.292
												c0.269,1.436,0.53,2.446,0.804,3.184C39.752,472.666,39.326,470.712,39.668,468.447"/>
											<path fill="none" stroke="#304A56" stroke-linecap="round" stroke-linejoin="round" stroke-miterlimit="10" d="
												M39.668,468.447c0.186-1.218,0.418-2.402,0.674-3.569c-0.157,2.554-0.281,4.685-0.367,6.292
												c0.269,1.436,0.53,2.446,0.804,3.184C39.752,472.666,39.326,470.712,39.668,468.447z"/>
											<g>
												<g opacity="0.4">
													<g>
														<defs>
															<rect id="SVGID_27_" x="40.777" y="474.35" width="1.761" height="2.144"/>
														</defs>
														<clipPath id="SVGID_28_">
															<use xlink:href="#SVGID_27_"  overflow="visible"/>
														</clipPath>
														<path clip-path="url(#SVGID_28_)" fill="#545554" d="M40.777,474.353c0.468,0.768,1.058,1.48,1.762,2.142
															C41.836,476.143,41.287,475.729,40.777,474.353"/>
													</g>
												</g>
											</g>
										</g>
										<g>
											<path fill="#3F3F3F" d="M92.724,167.831c0,0-16.845,5.774-21.014,23.486c-4.168,17.709,5.24,45.099,7.676,54.03
												c0,0,3.798,2.438,2.306-2.029c-1.494-4.466-11.155-39.455-6.121-52.001c5.034-12.548,12.991-17.987,16.929-19.123
												C92.499,172.194,94.696,169.885,92.724,167.831z"/>
											<path fill="#3F3F3F" d="M75.57,285.278c0,0-18.189-33.326,6.007-39.267s20.746,34.049,20.746,34.049l-7.104,1.014
												c0,0-2.435,4.348,0,4.204c2.436-0.145,10.795,1.072,11.691-1.77s4.563-47.706-25.569-41.31
												c-28.154,5.979-13.266,42.122-9.233,47.4c0,0,8.652-1.218,9.995-2.843C83.445,285.134,80.909,283.95,75.57,285.278z"/>
										</g>
										<g>
											<path fill="#3F3F3F" d="M145.686,179.824c0,0,12.044,8.824,13.703,24.869c1.661,16.047,1.34,34.403,5.136,42.116
												c3.794,7.713,7.106,5.89,3.39-1.623c-3.717-7.516-2.07-29.05-3.39-40.493c-1.32-11.439-9.74-27.553-19.212-29.053
												L145.686,179.824z"/>
											<g>
												<path fill="#545554" d="M159.88,248.219c1.686-5.621,9.253-13.182,16.154-10.746c6.9,2.434,7.308,10.556,2.436,22.328
													C173.599,271.574,154.323,266.75,159.88,248.219z"/>
												<path fill="#C0BFBF" d="M162.132,249.518c1.686-5.621,9.252-13.184,16.154-10.746c6.9,2.436,7.308,10.555,2.436,22.326
													C175.85,272.872,156.575,268.047,162.132,249.518z"/>
												<path fill="#5E5E5E" d="M167.004,251.098c0.897-2.995,4.928-7.023,8.605-5.727c3.678,1.299,3.895,5.625,1.299,11.896
													C174.313,263.539,164.044,260.969,167.004,251.098z"/>
											</g>
										</g>
									</g>
								</g>
							</g>
						</g>
					</g>
				</g>
			</g>
		</g>
	</g>
</g>
</svg>
