<?xml version="1.0" encoding="utf-8"?>
<!-- Generator: Adobe Illustrator 17.0.0, SVG Export Plug-In . SVG Version: 6.00 Build 0)  -->
<!DOCTYPE svg PUBLIC "-//W3C//DTD SVG 1.1//EN" "http://www.w3.org/Graphics/SVG/1.1/DTD/svg11.dtd" [
	<!ENTITY ns_extend "http://ns.adobe.com/Extensibility/1.0/">
	<!ENTITY ns_ai "http://ns.adobe.com/AdobeIllustrator/10.0/">
	<!ENTITY ns_graphs "http://ns.adobe.com/Graphs/1.0/">
	<!ENTITY ns_vars "http://ns.adobe.com/Variables/1.0/">
	<!ENTITY ns_imrep "http://ns.adobe.com/ImageReplacement/1.0/">
	<!ENTITY ns_sfw "http://ns.adobe.com/SaveForWeb/1.0/">
	<!ENTITY ns_custom "http://ns.adobe.com/GenericCustomNamespace/1.0/">
	<!ENTITY ns_adobe_xpath "http://ns.adobe.com/XPath/1.0/">
]>
<svg version="1.1" id="Capa_1" xmlns:x="&ns_extend;" xmlns:i="&ns_ai;" xmlns:graph="&ns_graphs;"
	 xmlns="http://www.w3.org/2000/svg" xmlns:xlink="http://www.w3.org/1999/xlink" x="0px" y="0px" width="429.556px"
	 height="548.4px" viewBox="0 0 429.556 548.4" enable-background="new 0 0 429.556 548.4" xml:space="preserve">
<metadata>
	<sfw  xmlns="&ns_sfw;">
		<slices></slices>
		<sliceSourceBounds  width="429.556" height="548.401" x="467.722" y="476.299" bottomLeftOrigin="true"></sliceSourceBounds>
	</sfw>
</metadata>
<g>
	<g>
		<defs>
			<rect id="SVGID_1_" x="0" y="0" width="429.556" height="478.716"/>
		</defs>
		<clipPath id="SVGID_2_">
			<use xlink:href="#SVGID_1_"  overflow="visible"/>
		</clipPath>
		<g clip-path="url(#SVGID_2_)">
			<path fill="#957D2E" d="M304.066,220.209c0,7.11-6.82,12.876-15.233,12.876c-8.414,0-15.235-5.766-15.235-12.876
				c0-7.111,0-15.712,15.235-12.876C297.247,207.333,307.834,211.99,304.066,220.209"/>
			<path fill="none" stroke="#C4A42D" stroke-miterlimit="10" d="M304.066,220.209c0,7.11-6.82,12.876-15.233,12.876
				c-8.414,0-15.235-5.766-15.235-12.876c0-7.111,0-15.712,15.235-12.876C297.247,207.333,307.834,211.99,304.066,220.209z"/>
			<path fill="#574A35" d="M155.389,49.643c0,0-10.694,8.004-8.439,18.07c2.256,10.066,1.584,11.592,4.187,20.123
				s-1.931,17.021,7.136,17.31c9.066,0.287,18.14-9.899,19.949-12.964C180.031,89.113,163.457,45.946,155.389,49.643"/>
			<path fill="none" stroke="#4C3618" stroke-miterlimit="10" d="M155.389,49.643c0,0-10.694,8.004-8.439,18.07
				c2.256,10.066,1.584,11.592,4.187,20.123s-1.931,17.021,7.136,17.31c9.066,0.287,18.14-9.899,19.949-12.964
				C180.031,89.113,163.457,45.946,155.389,49.643z"/>
			<path fill="#FDC693" d="M267.648,156.886c0,1.263,16.905,64.036,20.863,69.247c3.957,5.211-17.078,53.529-23.387,53.559
				c-6.311,0.029-73.148,21.905-73.148,21.905s-8.884-56.554-9.936-57.725c-1.051-1.17,41.858-24.307,43.119-24.727
				c1.263-0.422,35.337-25.242,36.178-28.607C262.18,187.175,267.648,156.886,267.648,156.886"/>
			<path fill="none" stroke="#F1B586" stroke-miterlimit="10" d="M267.648,156.886c0,1.263,16.905,64.036,20.863,69.247
				c3.957,5.211-17.078,53.529-23.387,53.559c-6.311,0.029-73.148,21.905-73.148,21.905s-8.884-56.554-9.936-57.725
				c-1.051-1.17,41.858-24.307,43.119-24.727c1.263-0.422,35.337-25.242,36.178-28.607
				C262.18,187.175,267.648,156.886,267.648,156.886z"/>
			<path fill="#F1B586" d="M268.873,162.139c0,0,15.727,59.148,17.752,59.955c2.024,0.81,3.459,9.709,3.745,10.994
				c0.287,1.281-26.082,16.184-26.082,16.184s-8.028-11.548-6.592-16.663c1.432-5.117,9.725-24.611,9.725-24.611
				s-18.543,31.656-39.788,38.327c-21.245,6.676-32.587-4.218-34.654-4.218c-2.069,0,6.941-15.191,6.941-15.191
				s34.333-21.21,35.592-22.354C236.77,203.412,268.873,162.139,268.873,162.139"/>
			<path fill="#17242B" d="M381.242,517.179l1.363,12.081c0,0-9.472,7.528-14.509,10.046c-5.035,2.517-15.669,12.594-34.978,7.835
				c-19.306-4.756-50.327-22.385-69.931-26.302c-19.61-3.92-19.754-13.993-47.663-14.273c-27.912-0.278-75.791-13.52-86.282-16.788
				c-10.487-3.269-19.14-9.514-18.3-10.354c0.84-0.841,30.78-14.271,31.62-14.271s80.219,19.31,80.219,19.31l83.846,33.577
				c0,0,43.841,2.239,44.68,1.96C352.147,519.718,381.242,517.179,381.242,517.179"/>
			<path fill="#FFCD07" d="M304.769,215.521c0,0,3.124,15.685,4.245,17.365c1.123,1.682,30.289,29.167,37.582,35.898
				c7.292,6.732,22.995,26.361,30.288,31.972c7.291,5.609,6.731,4.485,10.096,22.996c3.365,18.508,10.096,45.431,12.339,56.091
				c2.243,10.656,3.366,23.557,3.366,30.289c0,6.728-48.957-13.463-48.957-13.463s14.279,76.843,18.997,88.061
				c4.719,11.219,16.498,17.947,15.376,27.484c-1.12,9.534-31.409,33.092-49.359,29.729c-17.949-3.365-83.012-37.582-91.988-37.582
				c-8.974,0-49.918-6.167-66.186-9.533c-16.266-3.366-34.777-11.78-48.238-11.219c-13.461,0.559-16.265-20.193-16.265-20.193
				s20.193-141.905,19.63-143.589c-0.561-1.683,9.535-46.556,9.535-46.556s45.995,12.903,76.844-5.048
				c30.849-17.948,64.222-35.898,69.971-46.555C297.797,211.012,303.505,209.456,304.769,215.521"/>
			<path fill="none" stroke="#C4A42D" stroke-miterlimit="10" d="M304.769,215.521c0,0,3.124,15.685,4.245,17.365
				c1.123,1.682,30.289,29.167,37.582,35.898c7.292,6.732,22.995,26.361,30.288,31.972c7.291,5.609,6.731,4.485,10.096,22.996
				c3.365,18.508,10.096,45.431,12.339,56.091c2.243,10.656,3.366,23.557,3.366,30.289c0,6.728-48.957-13.463-48.957-13.463
				s14.279,76.843,18.997,88.061c4.719,11.219,16.498,17.947,15.376,27.484c-1.12,9.534-31.409,33.092-49.359,29.729
				c-17.949-3.365-83.012-37.582-91.988-37.582c-8.974,0-49.918-6.167-66.186-9.533c-16.266-3.366-34.777-11.78-48.238-11.219
				c-13.461,0.559-16.265-20.193-16.265-20.193s20.193-141.905,19.63-143.589c-0.561-1.683,9.535-46.556,9.535-46.556
				s45.995,12.903,76.844-5.048c30.849-17.948,64.222-35.898,69.971-46.555C297.797,211.012,303.505,209.456,304.769,215.521z"/>
			<path fill="#FDC693" d="M159.535,56.598c-0.425,1.19-5.889,3.531-4.628,25.408c1.263,21.874,2.046,31.97-0.899,39.965
				c-2.945,7.992-15.086,40.384-14.665,54.266c0.421,13.883,14.703,62.918,22.916,67.637c8.214,4.719,66.277,5.26,90.666-23.045
				c0,0,19.351-21.032,16.828-45.852c-2.524-24.821-4.627-40.807-4.627-40.807s2.945-40.552-18.931-56.537
				c-21.875-15.985-26.925-35.758-32.813-37.02C207.492,39.35,162.265,48.967,159.535,56.598"/>
			<path fill="none" stroke="#F1B586" stroke-miterlimit="10" d="M159.535,56.598c-0.425,1.19-5.889,3.531-4.628,25.408
				c1.263,21.874,2.046,31.97-0.899,39.965c-2.945,7.992-15.086,40.384-14.665,54.266c0.421,13.883,14.703,62.918,22.916,67.637
				c8.214,4.719,66.277,5.26,90.666-23.045c0,0,19.351-21.032,16.828-45.852c-2.524-24.821-4.627-40.807-4.627-40.807
				s2.945-40.552-18.931-56.537c-21.875-15.985-26.925-35.758-32.813-37.02C207.492,39.35,162.265,48.967,159.535,56.598z"/>
			<path fill="#FDC693" d="M201.181,215.521c-1.682,0.68-32.392-3.534-33.654-3.531c-1.262,0.006-16.405-5.045-22.296,7.156
				c-5.889,12.197-25.413,71.514-24.274,74.039c1.137,2.523-4.892,9.675-4.892,9.675s-75.162,76.748-73.058,96.217
				c2.103,19.469-0.844,51.859,32.812,52.28c33.654,0.42,47.077-13.04,52.564-35.336c5.489-22.297,20.634-55.529,21.055-66.467
				c0.42-10.936,8.412-29.448,5.889-39.122c0,0,22.717,2.522,26.924-18.51c0,0,3.787-14.18,0-14.182c0,0,4.206,1.141,9.675,1.56
				c0,0-5.89,21.876,4.206,26.502c0,0,17.248-13.04,14.723-29.026c0,0,4.628-5.047,2.525-10.938c0,0,4.959-6.731-0.214-10.938
				c0,0-5.254-19.77-13.247-22.717c0,0,8.835-2.103,7.152-7.572C205.389,219.146,201.181,215.521,201.181,215.521"/>
			<path fill="none" stroke="#F1B586" stroke-miterlimit="10" d="M201.181,215.521c-1.682,0.68-32.392-3.534-33.654-3.531
				c-1.262,0.006-16.405-5.045-22.296,7.156c-5.889,12.197-25.413,71.514-24.274,74.039c1.137,2.523-4.892,9.675-4.892,9.675
				s-75.162,76.748-73.058,96.217c2.103,19.469-0.844,51.859,32.812,52.28c33.654,0.42,47.077-13.04,52.564-35.336
				c5.489-22.297,20.634-55.529,21.055-66.467c0.42-10.936,8.412-29.448,5.889-39.122c0,0,22.717,2.522,26.924-18.51
				c0,0,3.787-14.18,0-14.182c0,0,4.206,1.141,9.675,1.56c0,0-5.89,21.876,4.206,26.502c0,0,17.248-13.04,14.723-29.026
				c0,0,4.628-5.047,2.525-10.938c0,0,4.959-6.731-0.214-10.938c0,0-5.254-19.77-13.247-22.717c0,0,8.835-2.103,7.152-7.572
				C205.389,219.146,201.181,215.521,201.181,215.521z"/>
			<path fill="#F1B586" d="M182.021,286.913c0,0-0.911,9.281-4.801,10.479c-3.893,1.19-12.752,7.18-18.949,7.18h-9.188
				c0,0,3.294,6.883,3.594,9.578c0.297,2.694-4.79,18.558-5.09,22.147c-0.299,3.592-2.094,11.672-2.393,13.767
				c-0.3,2.097-5.875,15.639-5.865,17.36c0.012,1.723-2.816,9.707-2.816,9.707h4.805c0,0,5.97-18.985,6.569-21.68
				c0.599-2.693,6.654-32.104,7.183-33.817c0.614-2.005,0.858-8.648,0.858-8.648l-0.283-2.818c0,0,7.239,0.554,11.137-0.975
				C170.679,307.66,182.335,304.868,182.021,286.913"/>
			<path fill="#957D2E" d="M386.811,424.599l2.135-20.547c0,0,18.101,2.944,12.211,11.779S386.811,424.599,386.811,424.599"/>
			<path fill="none" stroke="#C4A42D" stroke-miterlimit="10" d="M386.811,424.599l2.135-20.547c0,0,18.101,2.944,12.211,11.779
				S386.811,424.599,386.811,424.599z"/>
			<path fill="#957D2E" d="M314.765,410.172c0,0-10.876,2.033-10.698-7.612c0.18-9.646,0.419-14.303,5.347-14.724
				c4.93-0.421,10.399,3.223,11.03,5.82c0.631,2.593-3.154,16.516-3.154,16.516H314.765z"/>
			<path fill="none" stroke="#C4A42D" stroke-miterlimit="10" d="M314.765,410.172c0,0-10.876,2.033-10.698-7.612
				c0.18-9.646,0.419-14.303,5.347-14.724c4.93-0.421,10.399,3.223,11.03,5.82c0.631,2.593-3.154,16.516-3.154,16.516H314.765z"/>
			<path fill="#FFFFFF" d="M15.243,348.713c0,0,45.013,5.89,46.695,5.89s51.882-24.164,54.128-23.439
				c2.243,0.723,2.783,0.568,9.394,9.137c3.043,3.944,6.545,16.619,16.857,34.094c3.127,5.293,6.85,11.943,10.362,17.268
				c5.146,5.284,8.161,10.67,11.637,15.213c5.671,7.41,9.626,12.959,9.626,12.959l13.591,50.549c0,0-62.787,16.634-71.468,16.313
				c-8.681-0.324-7.012,5.048-17.109-8.836C88.862,463.978,15.243,348.713,15.243,348.713"/>
			<path fill="none" stroke="#6D6E72" stroke-miterlimit="10" d="M15.243,348.713c0,0,45.013,5.89,46.695,5.89
				s51.882-24.164,54.128-23.439c2.243,0.723,2.783,0.568,9.394,9.137c3.043,3.944,6.545,16.619,16.857,34.094
				c3.127,5.293,6.85,11.943,10.362,17.268c5.146,5.284,8.161,10.67,11.637,15.213c5.671,7.41,9.626,12.959,9.626,12.959
				l13.591,50.549c0,0-62.787,16.634-71.468,16.313c-8.681-0.324-7.012,5.048-17.109-8.836
				C88.862,463.978,15.243,348.713,15.243,348.713z"/>
			<path fill="#FDC693" d="M317.988,393.305l-6.17,19.631c0,0-48.798,7.291-63.381,10.658c-14.584,3.366-22.437-1.123-29.728,0
				c-7.291,1.122-10.096-12.34-15.145-18.51c-5.048-6.173-29.167-14.021-40.944-11.779l-8.976-0.393
				c0,0,19.632,25.074,19.632,27.315c0,2.244,1.122,18.512-10.097,21.877c-11.218,3.364-35.337,2.241-42.067,0
				c-6.731-2.243-9.091,0.8-8.413,2.123c0,0,1.561,9.263,8.257,11.881c0,0,3.868,10.239,8.882,10.773
				c-1.474,4.094,9.317,9.9,9.317,9.9s8.443,3.06,14.997,2.769c6.55-0.292,40.181-4.368,45.86-6.846
				c5.676-2.473,11.983-3.492,14.362-3.784c2.378-0.29,5.436,2.479,7.184,1.312c1.747-1.165,11.594,4.264,16.851,5.525
				c5.259,1.262,54.898,11.78,66.256,13.462c11.359,1.684,31.551,4.207,39.544,4.628c7.992,0.421,21.033,0,24.399,0
				c3.364,0,12.62,2.523,13.881-18.09c1.262-20.611,7.981-65.995,7.981-65.995S351.082,392.463,317.988,393.305"/>
			<path fill="none" stroke="#F1B586" stroke-miterlimit="10" d="M317.988,393.305l-6.17,19.631c0,0-48.798,7.291-63.381,10.658
				c-14.584,3.366-22.437-1.123-29.728,0c-7.291,1.122-10.096-12.34-15.145-18.51c-5.048-6.173-29.167-14.021-40.944-11.779
				l-8.976-0.393c0,0,19.632,25.074,19.632,27.315c0,2.244,1.122,18.512-10.097,21.877c-11.218,3.364-35.337,2.241-42.067,0
				c-6.731-2.243-9.091,0.8-8.413,2.123c0,0,1.561,9.263,8.257,11.881c0,0,3.868,10.239,8.882,10.773
				c-1.474,4.094,9.317,9.9,9.317,9.9s8.443,3.06,14.997,2.769c6.55-0.292,40.181-4.368,45.86-6.846
				c5.676-2.473,11.983-3.492,14.362-3.784c2.378-0.29,5.436,2.479,7.184,1.312c1.747-1.165,11.594,4.264,16.851,5.525
				c5.259,1.262,54.898,11.78,66.256,13.462c11.359,1.684,31.551,4.207,39.544,4.628c7.992,0.421,21.033,0,24.399,0
				c3.364,0,12.62,2.523,13.881-18.09c1.262-20.611,7.981-65.995,7.981-65.995S351.082,392.463,317.988,393.305z"/>
			<path fill="none" stroke="#F1B586" stroke-linecap="round" stroke-linejoin="round" stroke-miterlimit="10" d="M329.066,416.021
				c0,0-2.807-5.295-17.247-3.086"/>
			<path fill="#F1B586" d="M314.611,404.052c0,0,10.376-4.099,18.35-2.978c7.976,1.123,30.654,11.55,34.642,13.251
				c3.986,1.701,13.829,3.817,13.829,4.442c0,0.626-4.127,45.166-4.127,47.571c0,2.405-1.588,16.147-4.578,18.392
				c-2.994,2.244-13.371,7.689-34.124,2.722c-20.753-4.966-74.6-10.572-81.051-11.698c-6.45-1.118-34.77-5.644-34.77-5.644
				s14.348,5.422,22.469,7.157c8.119,1.735,47.135,9.967,54.965,11.203c7.828,1.234,29.412,5.751,36.704,5.563
				c7.292-0.189,30.034,2.005,35.055,0.006c5.022-2,8.229-2.924,9.457-11.832s2.124-27.848,3.233-32.94
				c1.11-5.09,4.431-29.977,4.901-33.246c0.469-3.271,0.906-6.263,0.906-6.263l-57.198-20.382l-15.144,1.683L314.611,404.052z"/>
			<path fill="#FFCD07" d="M402.685,410.133l-10.632,0.039c-10.634,0.039-47.001-18.129-60.042-17.261
				c-13.041,0.87-29.868,2.075-27.765,0c2.104-2.073,4.208-21.482,7.573-33.682c3.365-12.198,5.048-48.797,5.048-48.797"/>
			<path fill="none" stroke="#C4A42D" stroke-miterlimit="10" d="M402.685,410.133l-10.632,0.039
				c-10.634,0.039-47.001-18.129-60.042-17.261c-13.041,0.87-29.868,2.075-27.765,0c2.104-2.073,4.208-21.482,7.573-33.682
				c3.365-12.198,5.048-48.797,5.048-48.797"/>
			<path fill="none" stroke="#F1B586" stroke-linecap="round" stroke-linejoin="round" stroke-miterlimit="10" d="M182.252,453.883
				c0,0-23.98,8.832-34.918,8.414c-10.936-0.423-26.377-6.189-26.377-6.189"/>
			<path fill="none" stroke="#F1B586" stroke-linecap="round" stroke-linejoin="round" stroke-miterlimit="10" d="M184.776,462.31
				c-0.422-0.438-23.311,10.542-39.124,7.556l-15.814-2.982"/>
			<path fill="none" stroke="#F1B586" stroke-linecap="round" stroke-linejoin="round" stroke-miterlimit="10" d="M164.162,232.608
				c0,0,30.71-1.684,35.757-0.423"/>
			<path fill="none" stroke="#F1B586" stroke-linecap="round" stroke-linejoin="round" stroke-miterlimit="10" d="M175.101,247.331
				c0,0,17.247-5.048,24.819-2.944c7.573,2.104,12.966,17.313,13.462,21.453"/>
			<path fill="none" stroke="#F1B586" stroke-linecap="round" stroke-linejoin="round" stroke-miterlimit="10" d="M175.101,254.855
				c0,0,22.295-3.408,24.819,0c2.525,3.414,10.962,15.325,10.937,21.922"/>
			<path fill="none" stroke="#F1B586" stroke-linecap="round" stroke-linejoin="round" stroke-miterlimit="10" d="M179.727,269.627
				c0,0-2.102,4.627,5.049,7.15c7.151,2.524,9.932,5.049,10.856,0"/>
			<path fill="none" stroke="#F1B586" stroke-linecap="round" stroke-linejoin="round" stroke-miterlimit="10" d="M125.46,301.598
				c0,0-4.961-5.082-4.502-8.412"/>
			<path fill="none" stroke="#221D1E" stroke-miterlimit="10" d="M158.272,196.009c0,0,44.172,9.675,65.205-20.192"/>
			<path fill="none" stroke="#F1B586" stroke-linecap="round" stroke-linejoin="round" stroke-miterlimit="10" d="M173.443,149.611
				c0,0-2.779-0.156-10.915-0.575c-8.137-0.421-10.946,1.444-11.393,1.189"/>
			<path fill="none" stroke="#221D1E" stroke-miterlimit="10" d="M218.429,169.084c0,0,9.254,2.104,9.254,10.097"/>
			<path fill="none" stroke="#F1B586" stroke-linecap="round" stroke-linejoin="round" stroke-miterlimit="10" d="M200.981,146.483
				c0,0,9.078-1.284,14.376-1.206c5.297,0.081,12.173,0.54,14.708,1.206"/>
			<path fill="#574A35" d="M170.513,8.626c0,0-27.304,0.815-27.304,24.655c0,23.839,11.818,31.988,23.838,31.378
				c12.024-0.61,18.749-6.521,22.823-8.762s11.235-1.426,14.787,0.407c3.549,1.834,7.625,7.947,11.904,7.336
				c4.28-0.61,5.298-3.4,7.949,1.049c2.649,4.449,0,20.531,7.536,24.199c7.54,3.666,14.874,3.463,16.302,8.353
				c1.427,4.892,0.813,16.506,1.834,19.969l3.462-1.837c0,0,3.535-11.383,6.905-11.37c3.372,0.011,13.931,8.968,12.151-2.344
				c-0.522-4.828-7.654-13.84-7.043-19.546c0.612-5.703-7.327-5.023-9.57-10.731c-2.241-5.704-6.11-8.558-6.928-13.038
				c-0.813-4.483,0.817-11.234-7.334-17.842c-8.148-6.61-26.487-13.133-28.525-12.521c-2.037,0.616,4.074-7.537-0.817-8.962
				c-4.888-1.428-17.725,0.408-25.061,5.705c0,0,2.65-7.335-1.427-8.357c-4.074-1.017-14.67,5.503-19.153,13.042
				C166.844,29.408,176.627,9.851,170.513,8.626"/>
			<path fill="none" stroke="#4C3618" stroke-miterlimit="10" d="M170.513,8.626c0,0-27.304,0.815-27.304,24.655
				c0,23.839,11.818,31.988,23.838,31.378c12.024-0.61,18.749-6.521,22.823-8.762s11.235-1.426,14.787,0.407
				c3.549,1.834,7.625,7.947,11.904,7.336c4.28-0.61,5.298-3.4,7.949,1.049c2.649,4.449,0,20.531,7.536,24.199
				c7.54,3.666,14.874,3.463,16.302,8.353c1.427,4.892,0.813,16.506,1.834,19.969l3.462-1.837c0,0,3.535-11.383,6.905-11.37
				c3.372,0.011,13.931,8.968,12.151-2.344c-0.522-4.828-7.654-13.84-7.043-19.546c0.612-5.703-7.327-5.023-9.57-10.731
				c-2.241-5.704-6.11-8.558-6.928-13.038c-0.813-4.483,0.817-11.234-7.334-17.842c-8.148-6.61-26.487-13.133-28.525-12.521
				c-2.037,0.616,4.074-7.537-0.817-8.962c-4.888-1.428-17.725,0.408-25.061,5.705c0,0,2.65-7.335-1.427-8.357
				c-4.074-1.017-14.67,5.503-19.153,13.042C166.844,29.408,176.627,9.851,170.513,8.626z"/>
			<path fill="none" stroke="#4C3618" stroke-linecap="round" stroke-linejoin="round" stroke-miterlimit="10" d="M162.363,37.967
				c0,0,3.136-6.565,4.483-8.559"/>
			<path fill="none" stroke="#4C3618" stroke-linecap="round" stroke-linejoin="round" stroke-miterlimit="10" d="M180.7,33.688
				c0,0,3.984-7.271,6.724-8.966"/>
			<path fill="none" stroke="#4C3618" stroke-linecap="round" stroke-linejoin="round" stroke-miterlimit="10" d="M201.866,35.928
				c0,0,9.805-5.705,11.436-7.944"/>
			<path fill="#221D1E" d="M235.919,119.182c-0.023,1.414-1.162,9.937-1.162,9.937l18.889-10.304v-4.4
				C253.646,114.415,244.504,119.651,235.919,119.182"/>
			<path fill="#FDC693" d="M253.646,118.84c0,0,0.427-16.604,8.872-17.168c8.448-0.561,14.763,16.762,14.356,22.873
				c-0.408,6.111-1.019,10.595-2.65,12.632c-1.629,2.037-2.241,3.058-0.407,6.519c1.834,3.466,6.52,12.635,1.834,14.672
				c-4.686,2.037-9.985-0.816-12.226-4.483"/>
			<path fill="none" stroke="#F1B586" stroke-miterlimit="10" d="M253.646,118.84c0,0,0.427-16.604,8.872-17.168
				c8.448-0.561,14.763,16.762,14.356,22.873c-0.408,6.111-1.019,10.595-2.65,12.632c-1.629,2.037-2.241,3.058-0.407,6.519
				c1.834,3.466,6.52,12.635,1.834,14.672c-4.686,2.037-9.985-0.816-12.226-4.483"/>
			<path fill="#FDC693" d="M260.573,126.582c-0.204-0.815,0.917-13.797,3.617-15.148c2.7-1.355,6.98,0.479,8.202,5.776
				c0,0,4.278,12.427,0,10.8c-4.279-1.631-2.702-3.87-4.97-4.28"/>
			<path fill="none" stroke="#F1B586" stroke-linecap="round" stroke-linejoin="round" stroke-miterlimit="10" d="M260.573,126.582
				c-0.204-0.815,0.917-13.797,3.617-15.148c2.7-1.355,6.98,0.479,8.202,5.776c0,0,4.278,12.427,0,10.8
				c-4.279-1.631-2.702-3.87-4.97-4.28"/>
			<path fill="#FDC693" d="M121.961,458.865c-1.846-4.156,4.945-0.212,4.945-0.212l-0.319,3.627
				C126.239,462.471,123.028,460.996,121.961,458.865"/>
			<path fill="none" stroke="#F1B586" stroke-miterlimit="10" d="M121.961,458.865c-1.846-4.156,4.945-0.212,4.945-0.212
				l-0.319,3.627C126.239,462.471,123.028,460.996,121.961,458.865z"/>
			<path fill="#FDC693" d="M112.906,445.376c-1.845-4.155,4.884-0.524,4.884-0.524l-0.563,4.789
				C117.183,448.983,113.972,447.511,112.906,445.376"/>
			<path fill="none" stroke="#F1B586" stroke-miterlimit="10" d="M112.906,445.376c-1.845-4.155,4.884-0.524,4.884-0.524
				l-0.563,4.789C117.183,448.983,113.972,447.511,112.906,445.376z"/>
			<path fill="#FDC693" d="M129.965,469.02c-1.845-4.155,4.945-0.212,4.945-0.212l-0.318,3.63
				C134.243,472.627,131.031,471.152,129.965,469.02"/>
			<path fill="none" stroke="#F1B586" stroke-miterlimit="10" d="M129.965,469.02c-1.845-4.155,4.945-0.212,4.945-0.212l-0.318,3.63
				C134.243,472.627,131.031,471.152,129.965,469.02z"/>
			<path fill="none" stroke="#D69F7B" stroke-linecap="round" stroke-linejoin="round" stroke-miterlimit="10" d="M193.13,167.131
				c3.462-0.815,7.54,0.202,5.501,5.908c-2.039,5.706-5.909,3.056-7.756,3.465c-1.848,0.406-1.414-4.891-3.858-5.299
				c-2.446-0.408-2.65,2.445-4.28,4.611c-1.627,2.165-2.444,2.315-11.008,2.315s-7.535-7.335-6.514-12.021
				c1.018-4.686,12.021-15.689,12.836-18.543c0.817-2.854-0.895-11.795-0.895-11.795"/>
			<path fill="#221D1E" d="M185.67,113.375c-32.699,0-48.899,2.651-48.899,2.651l1.473,11.194
				c4.123,24.156,13.255,21.504,19.736,21.504s15.909,2.945,20.031-10.604c4.125-13.552,7.659-14.141,7.659-14.141
				s7.352-3.227,11.476,10.326c4.124,13.547,13.55,10.603,20.03,10.603c6.481,0,15.613,2.65,19.738-21.505l1.021-12.775
				C237.936,110.629,219.031,108.14,185.67,113.375 M176.132,136.835c-4.444,10.817-10.371,9.78-10.371,9.78h-7.111
				c-19.262,0-15.562-17.041-16.302-23.708c-0.74-6.669,17.189-6.519,17.189-6.519s7.706-0.297,14.965,1.182
				C181.763,119.054,180.578,126.02,176.132,136.835 M232.81,119.093c-0.742,6.667,2.961,23.707-16.301,23.707h-7.111
				c0,0-5.928,1.037-10.372-9.78c-4.444-10.816-5.631-17.781,1.628-19.263c7.262-1.479,14.967-1.185,14.967-1.185
				S233.553,112.423,232.81,119.093"/>
			<path fill="#574A35" d="M175.043,110.179c0,0-13.955-3.464-20.547,2.851l-7.213-1.561c0,0,1.979-10.81,13.755-12.304
				c11.777-1.491,18.981,8.869,18.981,8.869L175.043,110.179z"/>
			<path fill="#574A35" d="M200.097,108.188c0,0,8.429-5.064,14.684-4.762c6.258,0.307,11.316,5.957,11.316,5.957l6.886-1.325
				c0,0-8.312-13.197-20.329-12.354c-12.019,0.842-16.489,9.823-16.489,9.823L200.097,108.188z"/>
			<path fill="#76664F" d="M209.84,39.849c0,0,15.8-5.62,23.515-1.253c7.715,4.371,9.852,11.609,10.612,13.191
				c0,0-5.145-8.366-12.223-9.839C224.669,40.48,209.84,39.849,209.84,39.849"/>
			<path fill="#76664F" d="M168.905,29.919c8.709-10.517,14.05-11.849,16.707-10.78c0,0,1.042,1.033-0.167,2.692
				c0,0,0.893-2.042-1.05-1.362C182.457,21.156,176.426,22.851,168.905,29.919"/>
			<path fill="#76664F" d="M154.316,15.67c-0.621-1.357,13.104-6.032,15.524-4.502c0,0,0.837,1.207-0.653,2.615
				c0,0,1.245-1.844-0.785-1.524C166.369,12.582,162.499,12.278,154.316,15.67"/>
			<path fill="#4C3618" d="M185.991,50.354c-0.356,0.005-5.741,4.063-8.944,4.912c-3.201,0.852-18.238-2.008-22.557-6.785
				c-3.354-3.712-11.641-18.045-0.879-28.679c-0.083,0.064-0.156,0.117-0.261,0.205c-2.286,1.949-9.525,9.946-8.324,20.792
				c1.388,12.518,15.047,20.211,32.419,17.143C184.647,56.04,185.842,51.662,185.991,50.354"/>
			<path fill="#76664F" d="M187.848,28.505c10.744-10.292,22.562-7.823,23.383-7.304c0,0-0.739,1.039-1.476,1.479
				c-0.736,0.441-0.013-0.604-0.013-0.604S202.639,20.892,187.848,28.505"/>
			<path opacity="0.2" fill="#000101" enable-background="new    " d="M296.663,216.1c0,0,2.6,6.908,2.6,9.753
				c0,2.847,8.158,16.314,11.761,19.541c3.604,3.226,23.336,19.539,25.991,22.007c2.656,2.467,21.816,26.18,25.042,28.647
				c3.224,2.465,12.709,12.898,13.848,15.556c1.139,2.657,8.349,28.458,10.246,34.148c1.896,5.691,13.716,42.292,13.716,42.292
				s-0.793-4.976-2.278-11.719c-2.905-13.201-7.618-33.288-8.373-36.928c-1.138-5.503-2.968-14.352-3.841-18.902
				c-0.415-2.18-1.037-11.202-4.066-14.912c-0.909-1.117-2.146-1.876-3.999-3.441c-7.91-6.691-10.033-9.56-11.951-11.628
				c-2.063-2.222-12.035-14.344-18.697-20.557c-6.663-6.215-30.519-28.701-31.161-29.254c-1.172-1.01-7.117-7.023-7.117-7.023
				s-2.5-8.11-2.977-10.322c-0.477-2.216-0.465-9.164-3.21-10.282C299.927,212.152,296.663,216.1,296.663,216.1"/>
		</g>
	</g>
</g>
</svg>
