<?xml version="1.0" encoding="utf-8"?>
<!-- Generator: Adobe Illustrator 17.0.0, SVG Export Plug-In . SVG Version: 6.00 Build 0)  -->
<!DOCTYPE svg PUBLIC "-//W3C//DTD SVG 1.1//EN" "http://www.w3.org/Graphics/SVG/1.1/DTD/svg11.dtd" [
	<!ENTITY ns_extend "http://ns.adobe.com/Extensibility/1.0/">
	<!ENTITY ns_ai "http://ns.adobe.com/AdobeIllustrator/10.0/">
	<!ENTITY ns_graphs "http://ns.adobe.com/Graphs/1.0/">
	<!ENTITY ns_vars "http://ns.adobe.com/Variables/1.0/">
	<!ENTITY ns_imrep "http://ns.adobe.com/ImageReplacement/1.0/">
	<!ENTITY ns_sfw "http://ns.adobe.com/SaveForWeb/1.0/">
	<!ENTITY ns_custom "http://ns.adobe.com/GenericCustomNamespace/1.0/">
	<!ENTITY ns_adobe_xpath "http://ns.adobe.com/XPath/1.0/">
]>
<svg version="1.1" id="Capa_1" xmlns:x="&ns_extend;" xmlns:i="&ns_ai;" xmlns:graph="&ns_graphs;"
	 xmlns="http://www.w3.org/2000/svg" xmlns:xlink="http://www.w3.org/1999/xlink" x="0px" y="0px" width="1025.617px"
	 height="543.179px" viewBox="0 0 1025.617 543.179" enable-background="new 0 0 1025.617 543.179" xml:space="preserve">
<metadata>
	<sfw  xmlns="&ns_sfw;">
		<slices></slices>
		<sliceSourceBounds  width="1025.617" height="543.179" x="169.692" y="478.911" bottomLeftOrigin="true"></sliceSourceBounds>
	</sfw>
</metadata>
<g>
	<g>
		<g>
			<g>
				<path fill="#FFFFFF" d="M960.993,366.159l-2.322-2.693l6.02-5.188l-6.034-5.316l2.351-2.667l7.564,6.664
					c0.386,0.34,0.606,0.829,0.603,1.344c-0.002,0.513-0.228,1.001-0.616,1.336L960.993,366.159z"/>
			</g>
			<g>
				<rect x="931.945" y="356.277" fill="#FFFFFF" width="35.874" height="3.555"/>
			</g>
		</g>
		<g>
			<rect x="914.551" y="356.277" fill="#FFFFFF" width="11.958" height="3.555"/>
		</g>
	</g>
	<g>
		<g>
			<path fill="#FFFFFF" d="M999.749,389.045l-2.322-2.693l6.02-5.189l-6.034-5.316l2.35-2.667l7.565,6.663
				c0.385,0.34,0.606,0.829,0.602,1.344c-0.003,0.514-0.227,1.001-0.617,1.337L999.749,389.045z"/>
		</g>
		<g>
			<rect x="969.994" y="379.106" fill="#FFFFFF" width="35.875" height="3.555"/>
		</g>
	</g>
	<g>
		<g>
			<path fill="#FFFFFF" d="M985.309,341.819l-2.321-2.693l6.02-5.191l-6.034-5.313l2.351-2.669l7.564,6.662
				c0.386,0.34,0.606,0.83,0.603,1.345c-0.002,0.513-0.227,1.001-0.616,1.337L985.309,341.819z"/>
		</g>
		<g>
			<rect x="950.425" y="332.36" fill="#FFFFFF" width="42.398" height="3.555"/>
		</g>
	</g>
	<g>
		<rect x="953.687" y="379.106" fill="#FFFFFF" width="9.784" height="3.555"/>
	</g>
</g>
<g>
	<g>
		<g>
			<g>
				<path fill="#FFFFFF" d="M69.43,270.142l-7.565-6.664c-0.386-0.339-0.605-0.829-0.603-1.343c0.003-0.514,0.228-1.002,0.617-1.337
					l7.565-6.522l2.322,2.693l-6.02,5.189l6.034,5.315L69.43,270.142z"/>
			</g>
			<g>
				<rect x="63.599" y="260.449" fill="#FFFFFF" width="34.787" height="3.555"/>
			</g>
		</g>
		<g>
			<rect x="103.821" y="260.449" fill="#FFFFFF" width="11.959" height="3.555"/>
		</g>
	</g>
	<g>
		<g>
			<path fill="#FFFFFF" d="M30.675,249.536l-7.565-6.663c-0.386-0.339-0.605-0.83-0.603-1.344c0.003-0.514,0.228-1.002,0.617-1.337
				l7.565-6.524l2.322,2.693l-6.02,5.19l6.034,5.314L30.675,249.536z"/>
		</g>
		<g>
			<rect x="24.463" y="239.794" fill="#FFFFFF" width="36.962" height="3.555"/>
		</g>
	</g>
	<g>
		<g>
			<path fill="#FFFFFF" d="M45.113,292.203l-7.565-6.664c-0.386-0.339-0.605-0.828-0.603-1.343c0.003-0.514,0.228-1.002,0.617-1.337
				l7.565-6.524l2.322,2.693l-6.021,5.19l6.035,5.316L45.113,292.203z"/>
		</g>
		<g>
			<rect x="38.596" y="282.191" fill="#FFFFFF" width="41.31" height="3.555"/>
		</g>
	</g>
	<g>
		<rect x="66.86" y="239.794" fill="#FFFFFF" width="9.784" height="3.555"/>
	</g>
</g>
<g>
	<g>
		<g>
			<g opacity="0.63">
				<defs>
					<rect id="SVGID_1_" x="85.501" y="113.666" opacity="0.63" width="869.796" height="422.583"/>
				</defs>
				<clipPath id="SVGID_2_">
					<use xlink:href="#SVGID_1_"  overflow="visible"/>
				</clipPath>
				<g clip-path="url(#SVGID_2_)">
					<g>
						<defs>
							<rect id="SVGID_3_" x="85.501" y="113.666" width="869.8" height="422.583"/>
						</defs>
						<clipPath id="SVGID_4_">
							<use xlink:href="#SVGID_3_"  overflow="visible"/>
						</clipPath>
						<g clip-path="url(#SVGID_4_)">
							<g>
								<defs>
									<rect id="SVGID_5_" x="85.501" y="113.666" width="869.8" height="422.583"/>
								</defs>
								<clipPath id="SVGID_6_">
									<use xlink:href="#SVGID_5_"  overflow="visible"/>
								</clipPath>
								<g transform="matrix(1 0 0 1 0 0)" clip-path="url(#SVGID_6_)">
									
										<image overflow="visible" enable-background="new    " width="980" height="476" xlink:href="1F68BE81.png"  transform="matrix(0.8876 0 0 0.8878 85.501 113.6659)">
									</image>
								</g>
							</g>
						</g>
					</g>
				</g>
			</g>
			
				<rect x="98.1" y="161.022" fill="#494949" stroke="#FFFFFF" stroke-width="4" stroke-linejoin="round" stroke-miterlimit="10" width="828.995" height="350.99"/>
			<g>
				
					<rect x="98.1" y="129.639" fill="#494949" stroke="#FFFFFF" stroke-width="4" stroke-linejoin="round" stroke-miterlimit="10" width="828.995" height="32.025"/>
				<g>
					<path d="M910.189,148.055h-15.758c-1.33,0-2.406-1.071-2.406-2.399c0-1.335,1.076-2.408,2.406-2.408h15.758
						c1.33,0,2.408,1.073,2.408,2.408C912.597,146.983,911.519,148.055,910.189,148.055z"/>
				</g>
				<g>
					<path fill="#FFCC04" d="M876.24,156.35c-5.902,0-10.704-4.798-10.704-10.694c0-5.906,4.802-10.703,10.704-10.703
						c5.899,0,10.7,4.796,10.7,10.703C886.94,151.552,882.139,156.35,876.24,156.35z M876.24,139.766
						c-3.248,0-5.889,2.64-5.889,5.89c0,3.245,2.641,5.883,5.889,5.883c3.246,0,5.886-2.638,5.886-5.883
						C882.125,142.405,879.486,139.766,876.24,139.766z"/>
				</g>
			</g>
		</g>
		<g>
			<path fill="#FFFFFF" d="M124.512,341.241V230.13h9.995v111.111H124.512z"/>
			<path fill="#FFFFFF" d="M229.401,341.241l-46.335-80.893l-0.93-4.804v85.696h-9.996V230.13h5.191l46.335,80.97l1.007,4.726
				V230.13h9.995v111.111H229.401z"/>
			<path fill="#FFFFFF" d="M333.205,341.241h-3.177l-5.811-8.91c-2.429,3.204-5.374,5.747-8.833,7.632
				c-3.461,1.885-7.31,2.828-11.545,2.828h-5.811c-3.772,0-7.322-0.71-10.654-2.131c-3.331-1.42-6.237-3.371-8.717-5.85
				c-2.479-2.479-4.43-5.372-5.85-8.678c-1.421-3.305-2.13-6.844-2.13-10.615v-59.662c0-3.77,0.71-7.309,2.13-10.615
				c1.42-3.305,3.371-6.199,5.85-8.678c2.479-2.479,5.386-4.429,8.717-5.85c3.332-1.421,6.883-2.131,10.654-2.131h7.903
				c3.77,0,7.309,0.71,10.615,2.131c3.305,1.421,6.199,3.37,8.678,5.85c2.479,2.48,4.428,5.373,5.85,8.678
				c1.42,3.306,2.131,6.845,2.131,10.615v4.494l-9.995,1.55v-6.043c0-2.48-0.465-4.791-1.395-6.935
				c-0.93-2.143-2.196-4.016-3.796-5.617c-1.602-1.6-3.475-2.867-5.617-3.797c-2.145-0.93-4.456-1.395-6.935-1.395h-6.974
				c-2.48,0-4.792,0.465-6.935,1.395c-2.144,0.93-4.029,2.196-5.656,3.797c-1.627,1.602-2.906,3.475-3.836,5.617
				c-0.93,2.144-1.395,4.456-1.395,6.935v59.662c0,2.479,0.465,4.792,1.395,6.935s2.209,4.029,3.836,5.656
				c1.626,1.628,3.512,2.906,5.656,3.836c2.143,0.93,4.455,1.395,6.935,1.395h6.974c2.479,0,4.79-0.465,6.935-1.395
				c2.143-0.93,4.015-2.208,5.617-3.836c1.6-1.627,2.867-3.512,3.796-5.656c0.93-2.144,1.395-4.456,1.395-6.935V292.35h-17.744
				v-9.531h27.739L333.205,341.241L333.205,341.241z"/>
			<path fill="#FFFFFF" d="M369.289,341.241V230.13h62.529v9.53h-52.534v41.299h42.539v9.53h-42.539v41.221h52.534v9.53
				L369.289,341.241L369.289,341.241z"/>
			<path fill="#FFFFFF" d="M520.358,341.241l-46.335-80.893l-0.93-4.804v85.696h-9.995V230.13h5.191l46.335,80.97l1.007,4.726
				V230.13h9.995v111.111H520.358z"/>
			<path fill="#FFFFFF" d="M563.26,341.241V230.13h9.995v111.111H563.26z"/>
			<path fill="#FFFFFF" d="M610.889,341.241V230.13h62.529v9.53h-52.533v41.299h42.538v9.53h-42.538v41.221h52.533v9.53
				L610.889,341.241L610.889,341.241z"/>
			<path fill="#FFFFFF" d="M756.921,341.241l-30.141-47.419h-13.714v47.419h-9.996V230.13h35.255c3.77,0,7.309,0.71,10.615,2.131
				c3.305,1.421,6.199,3.371,8.678,5.85c2.48,2.479,4.429,5.385,5.85,8.717c1.42,3.332,2.131,6.884,2.131,10.654v8.988
				c0,3.771-0.71,7.322-2.131,10.653c-1.421,3.333-3.371,6.238-5.85,8.717s-5.373,4.43-8.678,5.85
				c-3.306,1.422-6.845,2.131-10.615,2.131l30.141,47.419L756.921,341.241L756.921,341.241z M755.604,257.481
				c0-2.479-0.465-4.79-1.395-6.934c-0.93-2.143-2.196-4.029-3.797-5.657c-1.602-1.626-3.474-2.905-5.617-3.835
				c-2.144-0.93-4.456-1.395-6.935-1.395h-24.794v44.63h24.794c2.479,0,4.791-0.465,6.935-1.395c2.143-0.93,4.016-2.208,5.617-3.835
				c1.601-1.628,2.867-3.513,3.797-5.657c0.93-2.143,1.395-4.455,1.395-6.934V257.481z"/>
			<path fill="#FFFFFF" d="M800.831,217.5h-7.128l12.708-19.061h15.884L800.831,217.5z M799.746,341.241V230.13h9.995v111.111
				H799.746z"/>
			<path fill="#FFFFFF" d="M889.06,315.361h-35.177L846.6,341.24h-10.383l32.543-111.11h5.269l32.698,111.111h-10.305
				L889.06,315.361z M856.595,305.831h29.831l-14.644-51.216l-0.31-4.107l-0.31,4.107L856.595,305.831z"/>
		</g>
		<g>
			<path fill="#FFFFFF" d="M273.593,413.287c-0.603,1.402-1.43,2.629-2.481,3.681s-2.284,1.879-3.698,2.481
				c-1.413,0.603-2.92,0.904-4.519,0.904h-14.921v-47.131h14.921c1.599,0,3.106,0.301,4.519,0.904
				c1.414,0.603,2.646,1.43,3.698,2.481s1.878,2.284,2.481,3.698c0.603,1.413,0.904,2.92,0.904,4.519v23.96
				C274.497,410.384,274.196,411.885,273.593,413.287z M270.257,384.825c0-1.052-0.197-2.032-0.592-2.941
				c-0.394-0.909-0.937-1.709-1.627-2.399c-0.69-0.69-1.49-1.232-2.399-1.627c-0.91-0.395-1.89-0.592-2.942-0.592h-10.484v39.046
				h10.484c1.052,0,2.032-0.197,2.942-0.592c0.909-0.395,1.709-0.931,2.399-1.61c0.69-0.679,1.233-1.474,1.627-2.383
				c0.395-0.909,0.592-1.89,0.592-2.941V384.825z"/>
			<path fill="#FFFFFF" d="M284.587,420.353v-47.131h26.523v4.042h-22.284v17.518h18.044v4.042h-18.044v17.485h22.284v4.042h-26.523
				V420.353z"/>
			<path fill="#FFFFFF" d="M356.828,420.353l-12.785-20.114h-5.817v20.114h-4.24v-47.131h14.955c1.599,0,3.1,0.301,4.503,0.904
				c1.402,0.603,2.629,1.43,3.681,2.481s1.879,2.284,2.481,3.698c0.603,1.413,0.904,2.92,0.904,4.519v3.813
				c0,1.6-0.301,3.106-0.904,4.519c-0.603,1.414-1.43,2.646-2.481,3.698s-2.279,1.879-3.681,2.481
				c-1.403,0.603-2.904,0.904-4.503,0.904l12.785,20.114L356.828,420.353L356.828,420.353z M356.269,384.825
				c0-1.052-0.197-2.032-0.591-2.941c-0.395-0.909-0.932-1.709-1.611-2.399c-0.679-0.69-1.474-1.232-2.383-1.627
				s-1.89-0.592-2.941-0.592h-10.517v18.931h10.517c1.052,0,2.032-0.197,2.941-0.591s1.704-0.937,2.383-1.627
				s1.216-1.49,1.611-2.399c0.394-0.909,0.591-1.89,0.591-2.941V384.825z"/>
			<path fill="#FFFFFF" d="M369.81,420.353v-47.131h26.523v4.042h-22.284v17.518h18.044v4.042h-18.044v17.485h22.284v4.042H369.81
				V420.353z"/>
			<path fill="#FFFFFF" d="M429.43,413.78c-0.548,1.359-1.304,2.553-2.268,3.583c-0.964,1.03-2.098,1.868-3.401,2.514
				c-1.304,0.646-2.701,1.024-4.191,1.134l4.306,9.696h-4.24l-4.306-9.696c-1.6,0-3.106-0.301-4.519-0.904s-2.646-1.43-3.698-2.481
				c-1.051-1.052-1.879-2.278-2.481-3.681c-0.603-1.402-0.904-2.903-0.904-4.502v-25.308c0-1.599,0.301-3.1,0.904-4.502
				c0.602-1.402,1.43-2.629,2.481-3.681c1.052-1.052,2.285-1.878,3.698-2.481s2.919-0.904,4.519-0.904h3.353
				c1.599,0,3.1,0.301,4.503,0.904c1.402,0.603,2.629,1.43,3.681,2.481s1.879,2.279,2.481,3.681s0.904,2.903,0.904,4.502v25.308
				C430.251,410.975,429.977,412.422,429.43,413.78z M426.011,384.134c0-1.052-0.197-2.032-0.591-2.941
				c-0.395-0.909-0.932-1.704-1.611-2.383s-1.474-1.216-2.383-1.61c-0.909-0.395-1.89-0.592-2.941-0.592h-2.958
				c-1.052,0-2.033,0.197-2.941,0.592c-0.91,0.394-1.709,0.932-2.399,1.61c-0.69,0.679-1.232,1.474-1.627,2.383
				c-0.395,0.91-0.591,1.89-0.591,2.941v25.308c0,1.052,0.197,2.033,0.591,2.941c0.395,0.91,0.937,1.709,1.627,2.399
				c0.69,0.69,1.49,1.232,2.399,1.627c0.909,0.394,1.89,0.591,2.941,0.591h2.958c1.052,0,2.032-0.197,2.941-0.591
				c0.909-0.395,1.704-0.937,2.383-1.627s1.216-1.49,1.611-2.399c0.394-0.909,0.591-1.89,0.591-2.941V384.134z"/>
			<path fill="#FFFFFF" d="M465.303,413.944c-0.603,1.403-1.43,2.629-2.481,3.681s-2.279,1.879-3.681,2.481
				c-1.403,0.603-2.904,0.904-4.503,0.904h-3.353c-1.6,0-3.106-0.301-4.519-0.904s-2.646-1.43-3.698-2.481
				c-1.051-1.052-1.879-2.278-2.481-3.681c-0.603-1.402-0.904-2.903-0.904-4.502v-36.219h4.24v36.219
				c0,1.052,0.197,2.033,0.591,2.941c0.395,0.91,0.937,1.709,1.627,2.399c0.69,0.69,1.49,1.232,2.399,1.627
				c0.909,0.394,1.89,0.591,2.941,0.591h2.958c1.052,0,2.032-0.197,2.941-0.591c0.909-0.395,1.704-0.937,2.383-1.627
				s1.216-1.49,1.611-2.399c0.394-0.909,0.591-1.89,0.591-2.941v-36.219h4.24v36.219
				C466.207,411.041,465.906,412.542,465.303,413.944z"/>
			<path fill="#FFFFFF" d="M476.33,420.353v-47.131h26.523v4.042H480.57v17.518h18.044v4.042H480.57v17.485h22.284v4.042H476.33
				V420.353z"/>
			<path fill="#FFFFFF" d="M533.091,420.353l-12.785-20.114h-5.817v20.114h-4.24v-47.131h14.955c1.599,0,3.1,0.301,4.503,0.904
				c1.402,0.603,2.629,1.43,3.681,2.481s1.879,2.284,2.481,3.698c0.603,1.413,0.904,2.92,0.904,4.519v3.813
				c0,1.6-0.301,3.106-0.904,4.519c-0.603,1.414-1.43,2.646-2.481,3.698s-2.279,1.879-3.681,2.481
				c-1.403,0.603-2.904,0.904-4.503,0.904l12.785,20.114L533.091,420.353L533.091,420.353z M532.532,384.825
				c0-1.052-0.197-2.032-0.591-2.941c-0.395-0.909-0.932-1.709-1.611-2.399c-0.679-0.69-1.474-1.232-2.383-1.627
				s-1.89-0.592-2.941-0.592h-10.517v18.931h10.517c1.052,0,2.032-0.197,2.941-0.591s1.704-0.937,2.383-1.627
				s1.216-1.49,1.611-2.399c0.394-0.909,0.591-1.89,0.591-2.941V384.825z"/>
			<path fill="#FFFFFF" d="M546.073,420.353v-47.131h4.24v47.131H546.073z"/>
			<path fill="#FFFFFF" d="M590.114,420.353v-32.308l-0.296,2.005l-10.945,30.303h-2.235l-11.043-30.303l-0.263-2.005v32.308h-4.24
				v-47.131h2.202l14.297,38.651l0.131,1.742l0.132-1.742l14.264-38.651h2.235v47.131L590.114,420.353L590.114,420.353z"/>
			<path fill="#FFFFFF" d="M605.101,420.353v-47.131h4.24v47.131H605.101z"/>
			<path fill="#FFFFFF" d="M620.121,420.353v-47.131h26.523v4.042H624.36v17.518h18.044v4.042H624.36v17.485h22.284v4.042h-26.523
				V420.353z"/>
			<path fill="#FFFFFF" d="M679.018,420.353l-19.654-34.313l-0.395-2.038v36.351h-4.24v-47.131h2.202l19.654,34.346l0.427,2.005
				v-36.351h4.24v47.131L679.018,420.353L679.018,420.353z"/>
			<path fill="#FFFFFF" d="M703.471,377.265v43.088h-4.24v-43.088h-11.24v-4.042h26.721v4.042H703.471z"/>
			<path fill="#FFFFFF" d="M746.378,413.944c-0.603,1.403-1.43,2.629-2.481,3.681s-2.279,1.879-3.681,2.481
				c-1.403,0.603-2.904,0.904-4.503,0.904h-3.353c-1.6,0-3.106-0.301-4.519-0.904s-2.646-1.43-3.698-2.481
				c-1.051-1.052-1.879-2.278-2.481-3.681c-0.603-1.402-0.904-2.903-0.904-4.502v-25.308c0-1.599,0.301-3.1,0.904-4.502
				c0.602-1.402,1.43-2.629,2.481-3.681c1.052-1.052,2.285-1.878,3.698-2.481s2.919-0.904,4.519-0.904h3.353
				c1.599,0,3.1,0.301,4.503,0.904c1.402,0.603,2.629,1.43,3.681,2.481s1.879,2.279,2.481,3.681s0.904,2.903,0.904,4.502v25.308
				C747.282,411.041,746.981,412.542,746.378,413.944z M743.042,384.134c0-1.052-0.197-2.032-0.591-2.941
				c-0.395-0.909-0.932-1.704-1.611-2.383s-1.474-1.216-2.383-1.61c-0.909-0.395-1.89-0.592-2.941-0.592h-2.958
				c-1.052,0-2.033,0.197-2.941,0.592c-0.91,0.394-1.709,0.932-2.399,1.61c-0.69,0.679-1.232,1.474-1.627,2.383
				c-0.395,0.91-0.591,1.89-0.591,2.941v25.308c0,1.052,0.197,2.033,0.591,2.941c0.395,0.91,0.937,1.709,1.627,2.399
				c0.69,0.69,1.49,1.232,2.399,1.627c0.909,0.394,1.89,0.591,2.941,0.591h2.958c1.052,0,2.032-0.197,2.941-0.591
				c0.909-0.395,1.704-0.937,2.383-1.627s1.216-1.49,1.611-2.399c0.394-0.909,0.591-1.89,0.591-2.941V384.134z"/>
			<path fill="#FFFFFF" d="M783.238,409.442c0,1.6-0.323,3.101-0.969,4.502c-0.646,1.403-1.512,2.629-2.597,3.681
				s-2.345,1.879-3.78,2.481s-2.953,0.904-4.552,0.904h-3.385c-1.6,0-3.117-0.301-4.552-0.904s-2.695-1.43-3.78-2.481
				c-1.084-1.052-1.95-2.278-2.596-3.681c-0.646-1.402-0.97-2.903-0.97-4.502v-1.874l4.24-0.69v2.563
				c0,1.052,0.214,2.033,0.641,2.941c0.427,0.91,1.002,1.709,1.726,2.399c0.723,0.69,1.561,1.232,2.514,1.627
				c0.953,0.394,1.956,0.591,3.007,0.591h2.958c1.052,0,2.048-0.197,2.991-0.591c0.942-0.395,1.775-0.937,2.498-1.627
				c0.723-0.69,1.298-1.49,1.726-2.399c0.427-0.909,0.641-1.89,0.641-2.941v-1.414c0-1.621-0.318-2.969-0.953-4.042
				c-0.636-1.073-1.479-1.988-2.531-2.744s-2.24-1.397-3.566-1.923s-2.69-1.052-4.092-1.578s-2.767-1.106-4.092-1.742
				c-1.326-0.635-2.515-1.43-3.566-2.383s-1.896-2.12-2.531-3.5c-0.636-1.38-0.953-3.078-0.953-5.094v-0.888
				c0-1.599,0.301-3.1,0.904-4.502c0.602-1.402,1.43-2.629,2.481-3.681c1.052-1.052,2.285-1.878,3.698-2.481
				s2.919-0.904,4.519-0.904h3.024c1.599,0,3.1,0.301,4.502,0.904c1.402,0.603,2.629,1.43,3.681,2.481s1.879,2.279,2.481,3.681
				s0.904,2.903,0.904,4.502v1.216l-4.24,0.69v-1.906c0-1.052-0.197-2.032-0.591-2.941c-0.395-0.909-0.932-1.704-1.611-2.383
				s-1.474-1.216-2.383-1.61c-0.909-0.395-1.89-0.592-2.941-0.592h-2.629c-1.052,0-2.033,0.197-2.941,0.592
				c-0.91,0.394-1.709,0.932-2.399,1.61c-0.69,0.679-1.232,1.474-1.627,2.383c-0.395,0.91-0.591,1.89-0.591,2.941v0.888
				c0,1.512,0.317,2.783,0.953,3.813c0.635,1.03,1.479,1.912,2.531,2.646c1.051,0.734,2.24,1.37,3.566,1.906
				c1.325,0.537,2.689,1.085,4.092,1.644c1.402,0.559,2.766,1.172,4.092,1.84c1.326,0.669,2.515,1.49,3.566,2.465
				c1.052,0.975,1.895,2.164,2.531,3.566c0.635,1.402,0.953,3.111,0.953,5.127v1.414H783.238z"/>
		</g>
		<g>
			<polygon fill="#FFCC04" points="231.591,433.306 231.591,359.261 154.012,359.261 182.457,396.284 154.012,433.306 			"/>
			<path d="M227.054,407.653l0.035-0.011l-29.871-29.984l-0.031-10.993l-11.234-3.011l-1.198,1.198l5.977,5.966l-5.828,5.838
				l-5.977-5.965l-1.197,1.187l3.01,11.233l10.698,0.02l-0.07,0.082l30.008,30.118l0.032-0.022c1.566,1.517,4.073,1.517,5.601-0.032
				C228.56,411.736,228.572,409.238,227.054,407.653L227.054,407.653z M225.538,411.795c-0.697,0.682-1.815,0.693-2.511,0
				c-0.683-0.696-0.694-1.802-0.011-2.508c0.707-0.686,1.825-0.686,2.522,0C226.232,409.98,226.232,411.099,225.538,411.795
				L225.538,411.795z"/>
		</g>
		<g>
			<polygon fill="#FFCC04" points="798.385,433.306 798.385,359.261 875.964,359.261 847.519,396.284 875.964,433.306 			"/>
			<path d="M845.238,384.44l7.46-4.815l2.978-5.335l-3.457-3.455l-5.337,2.975l-4.812,7.471l-17.175,17.185l-2.041-2.052
				l-3.162,3.17l0.982,0.969c-2.839,1.083-10.663,8.92-11.759,11.749l-0.979-0.968l-3.148,3.158l7.252,7.242l3.159-3.161
				l-0.989-0.979c2.837-1.072,10.674-8.917,11.757-11.747l0.981,0.981l3.158-3.16l-2.039-2.04L845.238,384.44z"/>
		</g>
		<g>
			<g>
				<path fill="#A2A2A3" d="M89.277,431.881l6.601-1.913c-3.551-12.255,6.139-23.628,6.139-23.628l-24.858-16.28l-12.29,27.098
					c0,0,14.255,4.381,17.806,16.636L89.277,431.881z"/>
				<g>
					
						<rect x="100.994" y="516.094" transform="matrix(0.9605 -0.2783 0.2783 0.9605 -141.2681 52.7746)" fill="#FFD147" stroke="#221F1F" stroke-width="3.2" stroke-linejoin="round" stroke-miterlimit="10" width="28.519" height="15.761"/>
					<polygon fill="#154A8C" stroke="#221F1F" stroke-width="3.2" stroke-linejoin="round" stroke-miterlimit="10" points="
						104.189,434.593 102.026,435.22 100.146,428.732 77.079,435.416 78.958,441.904 76.796,442.53 97.475,513.895 124.868,505.957 
											"/>
					
						<rect x="108.745" y="498.925" transform="matrix(0.2783 0.9605 -0.9605 0.2783 573.8298 262.6736)" fill="#A7A8AB" stroke="#221F1F" stroke-width="3.2" stroke-linejoin="round" stroke-miterlimit="10" width="6.754" height="28.519"/>
				</g>
				
					<line fill="none" stroke="#221F1F" stroke-width="3.2" stroke-linejoin="round" stroke-miterlimit="10" x1="78.238" y1="442.113" x2="94.097" y2="437.517"/>
				
					<line fill="none" stroke="#221F1F" stroke-width="3.2" stroke-linejoin="round" stroke-miterlimit="10" x1="77.218" y1="390.055" x2="82.858" y2="409.518"/>
				
					<circle fill="#929497" stroke="#221F1F" stroke-width="3.2" stroke-linejoin="round" stroke-miterlimit="10" cx="84.227" cy="414.11" r="4.371"/>
			</g>
			<g>
				<g>
					
						<rect x="123.306" y="399.964" transform="matrix(-0.9605 0.2783 -0.2783 -0.9605 393.6159 866.3871)" fill="#FFCC04" width="24.017" height="122.334"/>
					
						<line fill="none" stroke="#221F1F" stroke-width="3.2" stroke-linejoin="round" stroke-miterlimit="10" x1="122.243" y1="410.607" x2="109.989" y2="414.158"/>
					
						<line fill="none" stroke="#221F1F" stroke-width="3.2" stroke-linejoin="round" stroke-miterlimit="10" x1="121.866" y1="420.094" x2="112.495" y2="422.809"/>
					
						<line fill="none" stroke="#221F1F" stroke-width="3.2" stroke-linejoin="round" stroke-miterlimit="10" x1="127.674" y1="429.35" x2="115.419" y2="432.901"/>
					
						<line fill="none" stroke="#221F1F" stroke-width="3.2" stroke-linejoin="round" stroke-miterlimit="10" x1="127.924" y1="440.999" x2="118.553" y2="443.714"/>
					
						<line fill="none" stroke="#221F1F" stroke-width="3.2" stroke-linejoin="round" stroke-miterlimit="10" x1="133.522" y1="449.534" x2="121.268" y2="453.085"/>
					
						<line fill="none" stroke="#221F1F" stroke-width="3.2" stroke-linejoin="round" stroke-miterlimit="10" x1="133.981" y1="461.903" x2="124.61" y2="464.619"/>
					
						<line fill="none" stroke="#221F1F" stroke-width="3.2" stroke-linejoin="round" stroke-miterlimit="10" x1="139.789" y1="471.16" x2="127.535" y2="474.711"/>
					
						<line fill="none" stroke="#221F1F" stroke-width="3.2" stroke-linejoin="round" stroke-miterlimit="10" x1="139.83" y1="482.088" x2="130.459" y2="484.803"/>
					
						<line fill="none" stroke="#221F1F" stroke-width="3.2" stroke-linejoin="round" stroke-miterlimit="10" x1="145.637" y1="491.344" x2="133.383" y2="494.895"/>
					
						<line fill="none" stroke="#221F1F" stroke-width="3.2" stroke-linejoin="round" stroke-miterlimit="10" x1="145.469" y1="501.551" x2="136.099" y2="504.266"/>
					
						<line fill="none" stroke="#221F1F" stroke-width="3.2" stroke-linejoin="round" stroke-miterlimit="10" x1="151.695" y1="512.248" x2="139.44" y2="515.799"/>
				</g>
				
					<line fill="none" stroke="#221F1F" stroke-width="3.2" stroke-linejoin="round" stroke-miterlimit="10" x1="106.761" y1="405.718" x2="140.808" y2="523.217"/>
			</g>
			<g>
				<g>
					
						<rect x="82.973" y="516.685" transform="matrix(0.2784 0.9605 -0.9605 0.2784 564.697 296.766)" fill="#D1D2D3" width="3.753" height="15.011"/>
					
						<rect x="65.739" y="444.416" transform="matrix(-0.9605 0.2783 -0.2783 -0.9605 278.3444 928.8747)" fill="#154A8C" width="15.01" height="79.554"/>
					
						<rect x="80.587" y="525.716" transform="matrix(0.9605 -0.2783 0.2783 0.9605 -144.8397 45.3573)" fill="#929497" stroke="#221F1F" stroke-width="3.2" stroke-linejoin="round" stroke-miterlimit="10" width="13.509" height="14.26"/>
				</g>
				<polygon fill="#F1F1F1" stroke="#221F1F" stroke-width="3.2" stroke-linejoin="round" stroke-miterlimit="10" points="
					58.445,431.967 55.818,447.828 69.144,443.966 				"/>
				
					<line fill="none" stroke="#221F1F" stroke-width="3.2" stroke-linejoin="round" stroke-miterlimit="10" x1="61.449" y1="446.196" x2="81.919" y2="516.84"/>
			</g>
		</g>
		<g>
			<g>
				<path fill="#A2A2A3" d="M945.204,431.881l-6.601-1.913c3.551-12.255-6.139-23.628-6.139-23.628l24.858-16.28l12.29,27.098
					c0,0-14.255,4.381-17.806,16.636L945.204,431.881z"/>
				<g>
					
						<rect x="904.997" y="516.091" transform="matrix(-0.9605 -0.2783 0.2783 -0.9605 1656.3771 1283.0717)" fill="#FFCD06" stroke="#221F1F" stroke-width="3.2" stroke-linejoin="round" stroke-miterlimit="10" width="28.519" height="15.761"/>
					<polygon fill="#154A8C" stroke="#221F1F" stroke-width="3.2" stroke-linejoin="round" stroke-miterlimit="10" points="
						930.292,434.593 932.455,435.22 934.335,428.732 957.402,435.416 955.523,441.904 957.685,442.53 937.006,513.895 
						909.614,505.957 					"/>
					
						<rect x="918.972" y="498.881" transform="matrix(-0.2783 0.9605 -0.9605 -0.2783 1671.9055 -229.9642)" fill="#A7A8AB" stroke="#221F1F" stroke-width="3.2" stroke-linejoin="round" stroke-miterlimit="10" width="6.754" height="28.519"/>
				</g>
				
					<line fill="none" stroke="#221F1F" stroke-width="3.2" stroke-linejoin="round" stroke-miterlimit="10" x1="956.244" y1="442.113" x2="940.385" y2="437.517"/>
				
					<line fill="none" stroke="#221F1F" stroke-width="3.2" stroke-linejoin="round" stroke-miterlimit="10" x1="957.263" y1="390.055" x2="951.624" y2="409.518"/>
				
					<circle fill="#929497" stroke="#221F1F" stroke-width="3.2" stroke-linejoin="round" stroke-miterlimit="10" cx="950.254" cy="414.11" r="4.371"/>
			</g>
			<g>
				<g>
					
						<rect x="887.143" y="399.963" transform="matrix(0.9605 0.2783 -0.2783 0.9605 163.8531 -232.0153)" fill="#FFCC04" width="24.017" height="122.334"/>
					
						<line fill="none" stroke="#221F1F" stroke-width="3.2" stroke-linejoin="round" stroke-miterlimit="10" x1="912.239" y1="410.607" x2="924.493" y2="414.158"/>
					
						<line fill="none" stroke="#221F1F" stroke-width="3.2" stroke-linejoin="round" stroke-miterlimit="10" x1="912.615" y1="420.094" x2="921.986" y2="422.809"/>
					
						<line fill="none" stroke="#221F1F" stroke-width="3.2" stroke-linejoin="round" stroke-miterlimit="10" x1="906.808" y1="429.35" x2="919.062" y2="432.901"/>
					
						<line fill="none" stroke="#221F1F" stroke-width="3.2" stroke-linejoin="round" stroke-miterlimit="10" x1="906.558" y1="440.999" x2="915.929" y2="443.714"/>
					
						<line fill="none" stroke="#221F1F" stroke-width="3.2" stroke-linejoin="round" stroke-miterlimit="10" x1="900.959" y1="449.534" x2="913.213" y2="453.085"/>
					
						<line fill="none" stroke="#221F1F" stroke-width="3.2" stroke-linejoin="round" stroke-miterlimit="10" x1="900.5" y1="461.903" x2="909.871" y2="464.619"/>
					
						<line fill="none" stroke="#221F1F" stroke-width="3.2" stroke-linejoin="round" stroke-miterlimit="10" x1="894.693" y1="471.16" x2="906.947" y2="474.711"/>
					
						<line fill="none" stroke="#221F1F" stroke-width="3.2" stroke-linejoin="round" stroke-miterlimit="10" x1="894.652" y1="482.088" x2="904.023" y2="484.803"/>
					
						<line fill="none" stroke="#221F1F" stroke-width="3.2" stroke-linejoin="round" stroke-miterlimit="10" x1="888.844" y1="491.344" x2="901.098" y2="494.895"/>
					
						<line fill="none" stroke="#221F1F" stroke-width="3.2" stroke-linejoin="round" stroke-miterlimit="10" x1="889.012" y1="501.551" x2="898.383" y2="504.266"/>
					
						<line fill="none" stroke="#221F1F" stroke-width="3.2" stroke-linejoin="round" stroke-miterlimit="10" x1="882.787" y1="512.248" x2="895.041" y2="515.799"/>
				</g>
				
					<line fill="none" stroke="#221F1F" stroke-width="3.2" stroke-linejoin="round" stroke-miterlimit="10" x1="927.72" y1="405.718" x2="893.673" y2="523.217"/>
			</g>
			<g>
				<g>
					
						<rect x="947.799" y="516.67" transform="matrix(-0.2784 0.9605 -0.9605 -0.2784 1717.51 -242.0322)" fill="#D1D2D3" width="3.753" height="15.011"/>
					
						<rect x="953.736" y="444.406" transform="matrix(0.9605 0.2783 -0.2783 0.9605 172.7217 -248.3841)" fill="#154A8C" width="15.01" height="79.554"/>
					
						<rect x="940.396" y="525.721" transform="matrix(-0.9605 -0.2783 0.2783 -0.9605 1708.5918 1308.2412)" fill="#929497" stroke="#221F1F" stroke-width="3.2" stroke-linejoin="round" stroke-miterlimit="10" width="13.509" height="14.26"/>
				</g>
				<polygon fill="#F1F1F1" stroke="#221F1F" stroke-width="3.2" stroke-linejoin="round" stroke-miterlimit="10" points="
					976.037,431.967 978.663,447.828 965.338,443.966 				"/>
				
					<line fill="none" stroke="#221F1F" stroke-width="3.2" stroke-linejoin="round" stroke-miterlimit="10" x1="973.033" y1="446.196" x2="952.563" y2="516.84"/>
			</g>
		</g>
		<g>
			
				<line fill="none" stroke="#FFFFFF" stroke-width="3.2" stroke-linejoin="round" stroke-miterlimit="10" x1="82.017" y1="162.295" x2="27.339" y2="162.295"/>
			
				<line fill="none" stroke="#FFFFFF" stroke-width="3.2" stroke-linejoin="round" stroke-miterlimit="10" x1="75.584" y1="134.956" x2="0" y2="134.956"/>
			
				<line fill="none" stroke="#FFFFFF" stroke-width="3.2" stroke-linejoin="round" stroke-miterlimit="10" x1="78.801" y1="104.4" x2="48.245" y2="104.4"/>
		</g>
		<g>
			
				<line fill="none" stroke="#FFFFFF" stroke-width="3.2" stroke-linejoin="round" stroke-miterlimit="10" x1="943.6" y1="162.295" x2="998.278" y2="162.295"/>
			
				<line fill="none" stroke="#FFFFFF" stroke-width="3.2" stroke-linejoin="round" stroke-miterlimit="10" x1="950.032" y1="134.956" x2="1025.617" y2="134.956"/>
			
				<line fill="none" stroke="#FFFFFF" stroke-width="3.2" stroke-linejoin="round" stroke-miterlimit="10" x1="946.815" y1="104.4" x2="977.372" y2="104.4"/>
		</g>
		<g>
			<g>
				<g>
					<g>
						<path fill="none" stroke="#FFFFFF" stroke-width="3.2" stroke-linejoin="round" d="M462.695,116.276
							c0.571-1.799,1.227-3.559,1.964-5.276"/>
						<path fill="none" stroke="#FFFFFF" stroke-width="3.2" stroke-linejoin="round" stroke-dasharray="6.0714,6.0714" d="
							M469.262,102.399c2.671-4.107,5.855-7.852,9.46-11.143"/>
						<path fill="none" stroke="#FFFFFF" stroke-width="3.2" stroke-linejoin="round" d="M482.459,88.124
							c1.485-1.143,3.029-2.213,4.624-3.208"/>
					</g>
				</g>
			</g>
			<g>
				<g>
					<g>
						<path fill="none" stroke="#FFFFFF" stroke-width="3.2" stroke-linejoin="round" d="M547.438,84.752
							c1.601,0.985,3.149,2.048,4.641,3.182"/>
						<path fill="none" stroke="#FFFFFF" stroke-width="3.2" stroke-linejoin="round" stroke-dasharray="6.6453,6.6453" d="
							M559.94,95.149c9.213,10.176,14.825,23.675,14.825,38.488c0,5.69-0.826,11.188-2.372,16.378"/>
						<path fill="none" stroke="#FFFFFF" stroke-width="3.2" stroke-linejoin="round" d="M570.636,155.054
							c-0.704,1.747-1.49,3.451-2.357,5.107"/>
					</g>
				</g>
			</g>
			<g>
				<path fill="#FFCC04" d="M476.595,136.311c0,22.758,18.512,41.204,41.271,41.204c22.754,0,41.476-18.445,41.476-41.204
					c0-18.103-11.556-33.468-27.637-39V70.753h-27.341v26.559C488.282,102.844,476.595,118.208,476.595,136.311z"/>
				
					<rect x="504.363" y="53.062" fill="#BCBDBF" stroke="#221F1F" stroke-width="3.2" stroke-linejoin="round" stroke-miterlimit="10" width="27.341" height="17.691"/>
				
					<line fill="none" stroke="#221F1F" stroke-width="3.2" stroke-linejoin="round" stroke-miterlimit="10" x1="518.837" y1="70.753" x2="518.837" y2="138.296"/>
				
					<line fill="none" stroke="#221F1F" stroke-width="3.2" stroke-linejoin="round" stroke-miterlimit="10" x1="525.27" y1="138.296" x2="507.581" y2="138.296"/>
				<path fill="none" stroke="#221F1F" stroke-width="3.2" stroke-linejoin="round" stroke-miterlimit="10" d="M536.322,157.358
					c0,0,13.955-9.749,8.637-28.354"/>
				
					<line fill="none" stroke="#FFFFFF" stroke-width="3.2" stroke-linejoin="round" stroke-miterlimit="10" x1="531.704" y1="41.806" x2="504.363" y2="41.806"/>
				
					<line fill="none" stroke="#FFFFFF" stroke-width="3.2" stroke-linejoin="round" stroke-miterlimit="10" x1="531.704" y1="32.156" x2="504.363" y2="32.156"/>
				
					<line fill="none" stroke="#FFFFFF" stroke-width="3.2" stroke-linejoin="round" stroke-miterlimit="10" x1="502.756" y1="1.6" x2="538.137" y2="1.6"/>
				
					<line fill="none" stroke="#FFFFFF" stroke-width="3.2" stroke-linejoin="round" stroke-miterlimit="10" x1="518.837" y1="32.156" x2="518.837" y2="1.6"/>
			</g>
			
				<line fill="none" stroke="#FFFFFF" stroke-width="3.2" stroke-linejoin="round" stroke-miterlimit="10" x1="567.084" y1="57.888" x2="589.599" y2="57.888"/>
			
				<line fill="none" stroke="#FFFFFF" stroke-width="3.2" stroke-linejoin="round" stroke-miterlimit="10" x1="596.031" y1="57.888" x2="604.072" y2="57.888"/>
			
				<line fill="none" stroke="#FFFFFF" stroke-width="3.2" stroke-linejoin="round" stroke-miterlimit="10" x1="468.983" y1="22.506" x2="440.036" y2="22.506"/>
			
				<line fill="none" stroke="#FFFFFF" stroke-width="3.2" stroke-linejoin="round" stroke-miterlimit="10" x1="430.388" y1="22.506" x2="420.738" y2="22.506"/>
			
				<line fill="none" stroke="#FFFFFF" stroke-width="3.2" stroke-linejoin="round" stroke-miterlimit="10" x1="596.031" y1="24.115" x2="568.691" y2="24.115"/>
			
				<line fill="none" stroke="#FFFFFF" stroke-width="3.2" stroke-linejoin="round" stroke-miterlimit="10" x1="559.042" y1="24.115" x2="549.394" y2="24.115"/>
			
				<line fill="none" stroke="#FFFFFF" stroke-width="3.2" stroke-linejoin="round" stroke-miterlimit="10" x1="443.253" y1="56.279" x2="465.768" y2="56.279"/>
			
				<line fill="none" stroke="#FFFFFF" stroke-width="3.2" stroke-linejoin="round" stroke-miterlimit="10" x1="472.2" y1="56.279" x2="480.241" y2="56.279"/>
		</g>
		<g>
			<rect x="770.219" y="75.248" fill="#D1D2D3" width="37.778" height="35.555"/>
			<g>
				<rect x="624.664" y="75.248" fill="#D1D2D3" width="145.555" height="35.555"/>
				<path fill="#221F1F" d="M770.219,112.581H624.664c-0.982,0-1.778-0.796-1.778-1.778V75.248c0-0.982,0.796-1.778,1.778-1.778
					h145.555c0.982,0,1.777,0.796,1.777,1.778v35.555C771.997,111.785,771.202,112.581,770.219,112.581z M626.442,109.025h142v-32
					h-142V109.025z"/>
			</g>
			<rect x="639.108" y="85.248" opacity="0.8" fill="#FFFFFF" enable-background="new    " width="82.222" height="5.555"/>
			<rect x="639.108" y="95.248" opacity="0.8" fill="#FFFFFF" enable-background="new    " width="101.111" height="6.666"/>
			<rect x="729.109" y="85.248" opacity="0.8" fill="#FFFFFF" enable-background="new    " width="15.556" height="5.555"/>
			<g>
				<g>
					<path fill="#221F1F" d="M790.07,104.754c-6.492,0-11.774-5.281-11.774-11.773c0-6.493,5.282-11.775,11.774-11.775
						s11.773,5.282,11.773,11.775C801.843,99.473,796.562,104.754,790.07,104.754z M790.07,84.762c-4.532,0-8.22,3.687-8.22,8.219
						c0,4.531,3.688,8.219,8.22,8.219c4.531,0,8.219-3.688,8.219-8.219C798.289,88.448,794.601,84.762,790.07,84.762z"/>
				</g>
				<g>
					<rect x="788.442" y="103.025" fill="#221F1F" width="3.555" height="12.223"/>
				</g>
			</g>
		</g>
		<g>
			<rect x="216.608" y="74.565" fill="#D1D2D3" width="37.777" height="35.556"/>
			<g>
				<rect x="254.385" y="74.565" fill="#FFCC04" width="151.111" height="35.556"/>
				<path fill="#221F1F" d="M405.497,111.898H254.385c-0.982,0-1.778-0.795-1.778-1.777V74.565c0-0.981,0.796-1.778,1.778-1.778
					h151.111c0.982,0,1.777,0.797,1.777,1.778v35.556C407.274,111.103,406.478,111.898,405.497,111.898z M256.163,108.343h147.556
					v-32H256.163V108.343z"/>
			</g>
			<rect x="303.274" y="93.453" opacity="0.7" fill="#FFFFFF" enable-background="new    " width="81.111" height="6.667"/>
			<rect x="283.274" y="83.453" opacity="0.7" fill="#FFFFFF" enable-background="new    " width="101.111" height="5.556"/>
			<rect x="278.83" y="93.453" opacity="0.7" fill="#FFFFFF" enable-background="new    " width="16.667" height="6.667"/>
			<g>
				<g>
					<path fill="#221F1F" d="M234.992,106.527c-6.493,0-11.775-5.281-11.775-11.775c0-6.492,5.282-11.774,11.775-11.774
						c6.492,0,11.773,5.282,11.773,11.774C246.765,101.245,241.484,106.527,234.992,106.527z M234.992,86.534
						c-4.532,0-8.219,3.687-8.219,8.219c0,4.532,3.687,8.22,8.219,8.22c4.531,0,8.218-3.688,8.218-8.22
						C243.21,90.22,239.523,86.534,234.992,86.534z"/>
				</g>
				<g>
					<rect x="233.719" y="104.565" fill="#221F1F" width="3.556" height="12.222"/>
				</g>
			</g>
		</g>
	</g>
</g>
</svg>
